M48
;Layer_Color=9474304
;FILE_FORMAT=2:4
INCH,LZ
;TYPE=PLATED
T1F00S00C0.0120
T2F00S00C0.0280
T3F00S00C0.0354
T4F00S00C0.0400
T5F00S00C0.0421
T6F00S00C0.0600
T7F00S00C0.0630
T8F00S00C0.0650
T9F00S00C0.1150
;TYPE=NON_PLATED
T10F00S00C0.0550
T11F00S00C0.1201
%
T01
X0086Y0015
X016187Y00222
X004Y0015
X0039Y00505
X00495Y0044
X00395Y00785
X004Y00955
X00555Y0096
X0063Y00945
X0068
Y00815
X0064
Y00745
X0068
Y01245
X00645Y0128
X00565Y01275
X00545Y01135
X004Y01215
X0038Y01405
Y0167
X0013Y017
Y0131
Y0121
Y0083
Y0074
Y0032
X00765Y0044
X0094Y00835
Y00905
X01025Y0087
X0142Y0077
X01343Y00331
X01277
X0131Y00245
X0135Y0143
X014
X0148Y0148
X01605Y0154
X01675Y01605
X017282Y01741
X01852Y0164
X01938Y01659
Y01699
X01988
Y01659
X0191Y01585
X01837Y01485
X02022Y014277
X0208Y0143
X02062Y01524
X02142Y01633
X0228Y017
X022578Y011722
X0143Y01695
X0146Y01766
X01125Y015
X0104Y01535
Y01465
X00821Y01449
X02321Y01209
X0251Y0102
X0247Y0086
X0288Y0102
X0309Y0097
X03145Y0073
X03168Y0055
X03205Y00575
X03245
Y00525
X03205
X03282Y0055
X0336Y0046
X034
X0344
Y0213
X034
X0336
X03282Y0222
X03245Y02195
X03205
Y02245
X03245
X03168Y0222
X031Y0211
X03145Y024
X0271Y0206
X0258Y02
X0248Y019
X0238Y018
X0182Y0188
X0185Y0191
X01755
X0179Y01945
X01695Y01935
X01705Y01885
X0154Y01855
X01433Y019
X01335Y01925
X01225Y0207
X01155
X0151Y02055
Y02015
X0156
Y02055
X0166Y02185
X0175Y02165
X01785Y0214
X01825
Y0219
X01785
X0186Y02165
X018509Y021037
X0182Y02075
X0189Y0206
X0191Y0201
X01315Y0238
Y0242
X00855Y02325
X0055Y0238
X0041
X0045Y0217
X0059Y0208
X0051Y0195
X0064Y0184
X0015Y0195
T02
X01045Y00375
X01125
X01205
X010926Y020124
X010126
X009326
T03
X020613Y018191
Y019191
Y020191
Y021191
T04
X010813Y026591
X011813
X012813
X013813
X015413
X016413
X017413
X018413
T05
X035299Y004959
Y006141
Y021659
Y022841
T06
X0256Y00215
X0326
X036013Y018841
X029013
T07
X0085Y006
X0216Y0154
X0335Y016
Y013
X0365
Y016
Y0095
X0335
X0237Y02
X0205Y024
X007Y025
T08
X009201Y01158
X01076
X012319
X013878
T09
X035413Y001791
X0016Y0016
X035413Y026591
X0016Y0264
T10
X014469Y010596
T11
X037Y00555
Y02225
M30
