G04*
G04 #@! TF.GenerationSoftware,Altium Limited,Altium Designer,21.1.1 (26)*
G04*
G04 Layer_Color=32896*
%FSLAX25Y25*%
%MOIN*%
G70*
G04*
G04 #@! TF.SameCoordinates,379C1673-3C72-4E82-969D-E9B706308CD5*
G04*
G04*
G04 #@! TF.FilePolarity,Positive*
G04*
G01*
G75*
%ADD11C,0.01000*%
%ADD14C,0.00600*%
%ADD16C,0.00100*%
%ADD22C,0.00800*%
D11*
X141791Y141999D02*
X137792D01*
X139791Y143999D02*
Y140000D01*
X95019Y141999D02*
X91020D01*
X93020Y143999D02*
Y140000D01*
X110609Y141700D02*
X106611D01*
X126200D02*
X122201D01*
D14*
X322400Y223575D02*
X322600D01*
X322400Y220425D02*
X322600D01*
X322400Y56575D02*
X322600D01*
X322400Y53425D02*
X322600D01*
X134901Y179800D02*
X134301Y179201D01*
X133101D01*
X132501Y179800D01*
Y182200D01*
X133101Y182799D01*
X134301D01*
X134901Y182200D01*
X136100Y182799D02*
X137300D01*
X136700D01*
Y179201D01*
X136100Y179800D01*
X141499Y179201D02*
X140299Y179800D01*
X139099Y181000D01*
Y182200D01*
X139699Y182799D01*
X140899D01*
X141499Y182200D01*
Y181600D01*
X140899Y181000D01*
X139099D01*
X301507Y45500D02*
X300907Y44901D01*
X299707D01*
X299108Y45500D01*
Y47900D01*
X299707Y48500D01*
X300907D01*
X301507Y47900D01*
X302706Y48500D02*
X303906D01*
X303306D01*
Y44901D01*
X302706Y45500D01*
X305705D02*
X306305Y44901D01*
X307505D01*
X308105Y45500D01*
Y47900D01*
X307505Y48500D01*
X306305D01*
X305705Y47900D01*
Y45500D01*
X301207Y212501D02*
X300607Y211901D01*
X299408D01*
X298808Y212501D01*
Y214900D01*
X299408Y215499D01*
X300607D01*
X301207Y214900D01*
X302407Y215499D02*
X303606D01*
X303006D01*
Y211901D01*
X302407Y212501D01*
X305405D02*
X306005Y211901D01*
X307205D01*
X307805Y212501D01*
Y214900D01*
X307205Y215499D01*
X306005D01*
X305405Y214900D01*
Y212501D01*
D16*
X182300Y53000D02*
X182900D01*
X181500Y52900D02*
X184800D01*
X181200Y52800D02*
X185500D01*
X180900Y52700D02*
X185900D01*
X180700Y52600D02*
X186300D01*
X180500Y52500D02*
X186600D01*
X180300Y52400D02*
X186800D01*
X180100Y52300D02*
X187100D01*
X180000Y52200D02*
X187300D01*
X179800Y52100D02*
X187500D01*
X183100Y52000D02*
X187700D01*
X179700D02*
X182500D01*
X185100Y51900D02*
X187900D01*
X179600D02*
X181800D01*
X185600Y51800D02*
X188100D01*
X179500D02*
X181500D01*
X186000Y51700D02*
X188300D01*
X179400D02*
X181300D01*
X186200Y51600D02*
X188500D01*
X179300D02*
X181100D01*
X186500Y51500D02*
X188700D01*
X179300D02*
X180900D01*
X186700Y51400D02*
X188900D01*
X179200D02*
X180800D01*
X186900Y51300D02*
X189000D01*
X179100D02*
X180600D01*
X187100Y51200D02*
X189100D01*
X179000D02*
X180500D01*
X187300Y51100D02*
X189200D01*
X178900D02*
X180400D01*
X187500Y51000D02*
X189300D01*
X178800D02*
X180300D01*
X187700Y50900D02*
X189400D01*
X178800D02*
X180200D01*
X187900Y50800D02*
X189500D01*
X178700D02*
X180100D01*
X188100Y50700D02*
X189600D01*
X178600D02*
X180000D01*
X188300Y50600D02*
X189700D01*
X178500D02*
X179900D01*
X188400Y50500D02*
X189800D01*
X178500D02*
X179900D01*
X188500Y50400D02*
X189900D01*
X178400D02*
X179800D01*
X188700Y50300D02*
X190000D01*
X178300D02*
X179700D01*
X188700Y50200D02*
X190100D01*
X178300D02*
X179600D01*
X188800Y50100D02*
X190200D01*
X178200D02*
X179500D01*
X188900Y50000D02*
X190300D01*
X178200D02*
X179500D01*
X189000Y49900D02*
X190300D01*
X178100D02*
X179400D01*
X189100Y49800D02*
X190400D01*
X178100D02*
X179300D01*
X189200Y49700D02*
X190500D01*
X178000D02*
X179300D01*
X189300Y49600D02*
X190500D01*
X178000D02*
X179200D01*
X189400Y49500D02*
X190600D01*
X177900D02*
X179200D01*
X189500Y49400D02*
X190700D01*
X186600D02*
X187100D01*
X181200D02*
X181800D01*
X177900D02*
X179100D01*
X189600Y49300D02*
X190700D01*
X186500D02*
X187200D01*
X181100D02*
X181900D01*
X177800D02*
X179100D01*
X189700Y49200D02*
X190800D01*
X186400D02*
X187300D01*
X181000D02*
X182000D01*
X177800D02*
X179000D01*
X189700Y49100D02*
X190800D01*
X186300D02*
X187400D01*
X181000D02*
X182100D01*
X177700D02*
X179000D01*
X189800Y49000D02*
X190900D01*
X186300D02*
X187400D01*
X181000D02*
X182100D01*
X177700D02*
X178900D01*
X189900Y48900D02*
X190900D01*
X186200D02*
X187500D01*
X181000D02*
X182200D01*
X177700D02*
X178900D01*
X189900Y48800D02*
X190900D01*
X186200D02*
X187600D01*
X181000D02*
X182200D01*
X177600D02*
X178800D01*
X189900Y48700D02*
X191000D01*
X186200D02*
X187600D01*
X181100D02*
X182200D01*
X177600D02*
X178800D01*
X190000Y48600D02*
X191000D01*
X186100D02*
X187600D01*
X181100D02*
X182200D01*
X177500D02*
X178700D01*
X190000Y48500D02*
X191000D01*
X186100D02*
X187700D01*
X181200D02*
X182200D01*
X177500D02*
X178700D01*
X190100Y48400D02*
X191100D01*
X186200D02*
X187700D01*
X181300D02*
X182200D01*
X177500D02*
X178700D01*
X190100Y48300D02*
X191100D01*
X186200D02*
X187700D01*
X181400D02*
X182200D01*
X177400D02*
X178600D01*
X190100Y48200D02*
X191100D01*
X186200D02*
X187700D01*
X181400D02*
X182100D01*
X177400D02*
X178600D01*
X190100Y48100D02*
X191100D01*
X186300D02*
X187700D01*
X181600D02*
X182000D01*
X177400D02*
X178500D01*
X190200Y48000D02*
X191100D01*
X186300D02*
X187700D01*
X177300D02*
X178500D01*
X190200Y47900D02*
X191200D01*
X186400D02*
X187600D01*
X177300D02*
X178500D01*
X190200Y47800D02*
X191200D01*
X186500D02*
X187500D01*
X177300D02*
X178500D01*
X190200Y47700D02*
X191200D01*
X186600D02*
X187400D01*
X177300D02*
X178400D01*
X190200Y47600D02*
X191200D01*
X186900D02*
X187100D01*
X177300D02*
X178400D01*
X190200Y47500D02*
X191200D01*
X177300D02*
X178400D01*
X190300Y47400D02*
X191200D01*
X177200D02*
X178400D01*
X190300Y47300D02*
X191200D01*
X177200D02*
X178400D01*
X190300Y47200D02*
X191200D01*
X177200D02*
X178300D01*
X190300Y47100D02*
X191200D01*
X177200D02*
X178300D01*
X190300Y47000D02*
X191200D01*
X177200D02*
X178300D01*
X190300Y46900D02*
X191200D01*
X177200D02*
X178300D01*
X190300Y46800D02*
X191200D01*
X177200D02*
X178300D01*
X190300Y46700D02*
X191200D01*
X177200D02*
X178300D01*
X190300Y46600D02*
X191200D01*
X177200D02*
X178300D01*
X190300Y46500D02*
X191200D01*
X177200D02*
X178300D01*
X190300Y46400D02*
X191200D01*
X177200D02*
X178300D01*
X190300Y46300D02*
X191200D01*
X177200D02*
X178300D01*
X190300Y46200D02*
X191200D01*
X177200D02*
X178300D01*
X190300Y46100D02*
X191200D01*
X177200D02*
X178300D01*
X190300Y46000D02*
X191200D01*
X186000D02*
X186300D01*
X177200D02*
X178300D01*
X190300Y45900D02*
X191200D01*
X185900D02*
X186400D01*
X177200D02*
X178300D01*
X190300Y45800D02*
X191200D01*
X185900D02*
X186500D01*
X182900D02*
X183600D01*
X177200D02*
X178400D01*
X190300Y45700D02*
X191200D01*
X185800D02*
X186500D01*
X182900D02*
X183700D01*
X177200D02*
X178400D01*
X190200Y45600D02*
X191200D01*
X185700D02*
X186500D01*
X182800D02*
X183800D01*
X177200D02*
X178400D01*
X190200Y45500D02*
X191200D01*
X185500D02*
X186500D01*
X182800D02*
X183900D01*
X177300D02*
X178500D01*
X190200Y45400D02*
X191200D01*
X185300D02*
X186500D01*
X182700D02*
X184400D01*
X177300D02*
X178500D01*
X190200Y45300D02*
X191200D01*
X182700D02*
X186500D01*
X177300D02*
X178600D01*
X190200Y45200D02*
X191100D01*
X182700D02*
X186500D01*
X177400D02*
X178600D01*
X190100Y45100D02*
X191100D01*
X182800D02*
X186500D01*
X177400D02*
X178700D01*
X190100Y45000D02*
X191100D01*
X182800D02*
X186500D01*
X177500D02*
X178800D01*
X190100Y44900D02*
X191100D01*
X182800D02*
X186500D01*
X177500D02*
X178800D01*
X190100Y44800D02*
X191000D01*
X182900D02*
X186400D01*
X177600D02*
X178900D01*
X190000Y44700D02*
X191000D01*
X182900D02*
X186400D01*
X177600D02*
X179000D01*
X190000Y44600D02*
X191000D01*
X182900D02*
X186400D01*
X177700D02*
X179100D01*
X189900Y44500D02*
X190900D01*
X183000D02*
X186300D01*
X177700D02*
X179100D01*
X189900Y44400D02*
X190900D01*
X185100D02*
X186300D01*
X183000D02*
X184100D01*
X177800D02*
X179200D01*
X189900Y44300D02*
X190900D01*
X185100D02*
X186300D01*
X183100D02*
X184100D01*
X177900D02*
X179300D01*
X189800Y44200D02*
X190800D01*
X185000D02*
X186200D01*
X183100D02*
X184200D01*
X177900D02*
X179400D01*
X189800Y44100D02*
X190800D01*
X184900D02*
X186100D01*
X183200D02*
X184300D01*
X178000D02*
X179500D01*
X189700Y44000D02*
X190800D01*
X184900D02*
X186100D01*
X183200D02*
X184400D01*
X178100D02*
X179500D01*
X189700Y43900D02*
X190700D01*
X184800D02*
X186000D01*
X183300D02*
X184400D01*
X178200D02*
X179600D01*
X189600Y43800D02*
X190700D01*
X184800D02*
X185900D01*
X183400D02*
X184500D01*
X178200D02*
X179700D01*
X189600Y43700D02*
X190600D01*
X184700D02*
X185800D01*
X183400D02*
X184600D01*
X178300D02*
X179800D01*
X189500Y43600D02*
X190600D01*
X183500D02*
X185800D01*
X178400D02*
X179900D01*
X189400Y43500D02*
X190500D01*
X183600D02*
X185700D01*
X178500D02*
X180000D01*
X189400Y43400D02*
X190500D01*
X183700D02*
X185600D01*
X178600D02*
X180100D01*
X189300Y43300D02*
X190400D01*
X183700D02*
X185600D01*
X178600D02*
X180200D01*
X189300Y43200D02*
X190400D01*
X183800D02*
X185500D01*
X178700D02*
X180400D01*
X189200Y43100D02*
X190300D01*
X183900D02*
X185400D01*
X178800D02*
X180500D01*
X189200Y43000D02*
X190300D01*
X184000D02*
X185400D01*
X178900D02*
X180600D01*
X189100Y42900D02*
X190200D01*
X184000D02*
X185300D01*
X179000D02*
X180800D01*
X189000Y42800D02*
X190100D01*
X184200D02*
X185200D01*
X179100D02*
X181000D01*
X188900Y42700D02*
X190100D01*
X184300D02*
X185100D01*
X179200D02*
X181100D01*
X188800Y42600D02*
X190000D01*
X184500D02*
X184800D01*
X179300D02*
X181300D01*
X188800Y42500D02*
X190000D01*
X179400D02*
X181400D01*
X188700Y42400D02*
X189900D01*
X179600D02*
X181600D01*
X188600Y42300D02*
X189800D01*
X179700D02*
X181800D01*
X188500Y42200D02*
X189700D01*
X179900D02*
X181900D01*
X188400Y42100D02*
X189600D01*
X180000D02*
X182100D01*
X188300Y42000D02*
X189600D01*
X179900D02*
X182300D01*
X188200Y41900D02*
X189500D01*
X179800D02*
X182600D01*
X188100Y41800D02*
X189400D01*
X179600D02*
X182900D01*
X188000Y41700D02*
X189300D01*
X179500D02*
X183300D01*
X187900Y41600D02*
X189200D01*
X180800D02*
X183700D01*
X179500D02*
X180600D01*
X187700Y41500D02*
X189300D01*
X181000D02*
X184200D01*
X179400D02*
X180500D01*
X187500Y41400D02*
X189500D01*
X181200D02*
X184800D01*
X179300D02*
X180400D01*
X187300Y41300D02*
X189600D01*
X181300D02*
X185500D01*
X179200D02*
X180300D01*
X187000Y41200D02*
X189700D01*
X181500D02*
X186100D01*
X179200D02*
X180200D01*
X181700Y41100D02*
X189800D01*
X179100D02*
X180100D01*
X188800Y41000D02*
X189800D01*
X182000D02*
X188600D01*
X179000D02*
X180100D01*
X188800Y40900D02*
X189900D01*
X182200D02*
X188400D01*
X179000D02*
X180000D01*
X189000Y40800D02*
X190000D01*
X182600D02*
X188300D01*
X178900D02*
X179900D01*
X189000Y40700D02*
X190000D01*
X182900D02*
X188100D01*
X178800D02*
X179900D01*
X189100Y40600D02*
X190100D01*
X183300D02*
X187900D01*
X178800D02*
X179800D01*
X189200Y40500D02*
X190100D01*
X183700D02*
X187700D01*
X178700D02*
X179800D01*
X189200Y40400D02*
X190200D01*
X184500D02*
X187300D01*
X178700D02*
X179800D01*
X189300Y40300D02*
X190200D01*
X178600D02*
X179700D01*
X189300Y40200D02*
X190300D01*
X178600D02*
X179700D01*
X189400Y40100D02*
X190300D01*
X178500D02*
X179600D01*
X189400Y40000D02*
X190400D01*
X178400D02*
X179600D01*
X189500Y39900D02*
X190400D01*
X178400D02*
X179500D01*
X189500Y39800D02*
X190500D01*
X178300D02*
X179500D01*
X189600Y39700D02*
X190500D01*
X178300D02*
X179400D01*
X189600Y39600D02*
X190600D01*
X178200D02*
X179400D01*
X189600Y39500D02*
X190600D01*
X178200D02*
X179400D01*
X189700Y39400D02*
X190700D01*
X178100D02*
X179300D01*
X189700Y39300D02*
X190700D01*
X178100D02*
X179300D01*
X189800Y39200D02*
X190800D01*
X178000D02*
X179200D01*
X189800Y39100D02*
X190800D01*
X177900D02*
X179200D01*
X189900Y39000D02*
X190800D01*
X177900D02*
X179100D01*
X189900Y38900D02*
X190900D01*
X177800D02*
X179100D01*
X189900Y38800D02*
X190900D01*
X177800D02*
X179000D01*
X190000Y38700D02*
X191000D01*
X177700D02*
X179000D01*
X190000Y38600D02*
X191000D01*
X177700D02*
X178900D01*
X190100Y38500D02*
X191000D01*
X177600D02*
X178900D01*
X190100Y38400D02*
X191100D01*
X177600D02*
X178900D01*
X190100Y38300D02*
X191100D01*
X177500D02*
X178800D01*
X190200Y38200D02*
X191100D01*
X177500D02*
X178800D01*
X190200Y38100D02*
X191200D01*
X177400D02*
X178700D01*
X190200Y38000D02*
X191200D01*
X177400D02*
X178700D01*
X190300Y37900D02*
X191300D01*
X177300D02*
X178600D01*
X190300Y37800D02*
X191300D01*
X177300D02*
X178600D01*
X190300Y37700D02*
X191300D01*
X177200D02*
X178500D01*
X190400Y37600D02*
X191400D01*
X177200D02*
X178500D01*
X190400Y37500D02*
X191400D01*
X177200D02*
X178500D01*
X190400Y37400D02*
X191400D01*
X177100D02*
X178400D01*
X190500Y37300D02*
X191500D01*
X177100D02*
X178400D01*
X190500Y37200D02*
X191500D01*
X177000D02*
X178300D01*
X190500Y37100D02*
X191500D01*
X177000D02*
X178300D01*
X190600Y37000D02*
X191600D01*
X177000D02*
X178300D01*
X190600Y36900D02*
X191600D01*
X176900D02*
X178200D01*
X190600Y36800D02*
X191600D01*
X176900D02*
X178200D01*
X190600Y36700D02*
X191600D01*
X176800D02*
X178100D01*
X190700Y36600D02*
X191700D01*
X176800D02*
X178100D01*
X190700Y36500D02*
X191700D01*
X176800D02*
X178100D01*
X190700Y36400D02*
X191700D01*
X176700D02*
X178000D01*
X190800Y36300D02*
X191900D01*
X176700D02*
X178000D01*
X190800Y36200D02*
X192100D01*
X176700D02*
X178000D01*
X190800Y36100D02*
X192200D01*
X176600D02*
X177900D01*
X190800Y36000D02*
X192400D01*
X176500D02*
X177900D01*
X190800Y35900D02*
X192600D01*
X176300D02*
X177900D01*
X190800Y35800D02*
X192800D01*
X176100D02*
X177800D01*
X190800Y35700D02*
X193000D01*
X176000D02*
X177800D01*
X190900Y35600D02*
X193100D01*
X175700D02*
X177800D01*
X190900Y35500D02*
X193300D01*
X175500D02*
X177700D01*
X190900Y35400D02*
X193400D01*
X175200D02*
X177700D01*
X190900Y35300D02*
X193600D01*
X175100D02*
X177700D01*
X190900Y35200D02*
X193700D01*
X174900D02*
X177600D01*
X190900Y35100D02*
X193800D01*
X174700D02*
X177600D01*
X190900Y35000D02*
X193900D01*
X174600D02*
X177600D01*
X191000Y34900D02*
X194000D01*
X174500D02*
X177600D01*
X191000Y34800D02*
X194100D01*
X174300D02*
X177500D01*
X192100Y34700D02*
X194200D01*
X191000D02*
X192000D01*
X176200D02*
X177500D01*
X174200D02*
X176000D01*
X192200Y34600D02*
X194300D01*
X191000D02*
X192000D01*
X176200D02*
X177500D01*
X174100D02*
X175900D01*
X192300Y34500D02*
X194400D01*
X191000D02*
X192000D01*
X176100D02*
X177400D01*
X174000D02*
X175800D01*
X192400Y34400D02*
X194500D01*
X191000D02*
X192000D01*
X176100D02*
X177400D01*
X173900D02*
X175700D01*
X192600Y34300D02*
X194600D01*
X191000D02*
X192000D01*
X176100D02*
X177400D01*
X173900D02*
X175600D01*
X192700Y34200D02*
X194700D01*
X191100D02*
X192100D01*
X176100D02*
X177400D01*
X173800D02*
X175500D01*
X192800Y34100D02*
X194700D01*
X191100D02*
X192100D01*
X176000D02*
X177300D01*
X173700D02*
X175400D01*
X193000Y34000D02*
X194800D01*
X191100D02*
X192100D01*
X176000D02*
X177300D01*
X173500D02*
X175300D01*
X193100Y33900D02*
X194900D01*
X191100D02*
X192100D01*
X176000D02*
X177300D01*
X173400D02*
X175200D01*
X193200Y33800D02*
X195000D01*
X191100D02*
X192100D01*
X176000D02*
X177300D01*
X173200D02*
X175100D01*
X193300Y33700D02*
X195100D01*
X191100D02*
X192100D01*
X175900D02*
X177200D01*
X173100D02*
X175100D01*
X193400Y33600D02*
X195200D01*
X191100D02*
X192200D01*
X175900D02*
X177200D01*
X173000D02*
X175000D01*
X193500Y33500D02*
X195300D01*
X191200D02*
X192200D01*
X175900D02*
X177200D01*
X172800D02*
X174900D01*
X193600Y33400D02*
X195400D01*
X191200D02*
X192200D01*
X175900D02*
X177200D01*
X172700D02*
X174800D01*
X193700Y33300D02*
X195500D01*
X191200D02*
X192200D01*
X175800D02*
X177100D01*
X172600D02*
X174700D01*
X193800Y33200D02*
X195600D01*
X191200D02*
X192200D01*
X175800D02*
X177100D01*
X172500D02*
X174600D01*
X193900Y33100D02*
X195700D01*
X191200D02*
X192300D01*
X175800D02*
X177100D01*
X172400D02*
X174500D01*
X194000Y33000D02*
X195800D01*
X191200D02*
X192300D01*
X175800D02*
X177100D01*
X172300D02*
X174400D01*
X194100Y32900D02*
X195800D01*
X191300D02*
X192300D01*
X175700D02*
X177100D01*
X172200D02*
X174300D01*
X194200Y32800D02*
X195900D01*
X191300D02*
X192300D01*
X175700D02*
X177000D01*
X172200D02*
X174200D01*
X194300Y32700D02*
X196000D01*
X191300D02*
X192300D01*
X175700D02*
X177000D01*
X172100D02*
X174100D01*
X194400Y32600D02*
X196000D01*
X191300D02*
X192300D01*
X175700D02*
X177000D01*
X172000D02*
X173900D01*
X194500Y32500D02*
X196100D01*
X191300D02*
X192400D01*
X175700D02*
X177000D01*
X171900D02*
X173800D01*
X194500Y32400D02*
X196200D01*
X191300D02*
X192400D01*
X175600D02*
X176900D01*
X171900D02*
X173700D01*
X194600Y32300D02*
X196200D01*
X191400D02*
X192400D01*
X175600D02*
X176900D01*
X171800D02*
X173700D01*
X194700Y32200D02*
X196300D01*
X191400D02*
X192400D01*
X175600D02*
X176900D01*
X171700D02*
X173600D01*
X194800Y32100D02*
X196400D01*
X191400D02*
X192400D01*
X175600D02*
X176900D01*
X171700D02*
X173500D01*
X194800Y32000D02*
X196400D01*
X191400D02*
X192500D01*
X175600D02*
X176900D01*
X171600D02*
X173400D01*
X194900Y31900D02*
X196500D01*
X191400D02*
X192500D01*
X175500D02*
X176900D01*
X171500D02*
X173300D01*
X195000Y31800D02*
X196500D01*
X191400D02*
X192500D01*
X175500D02*
X176800D01*
X171400D02*
X173200D01*
X195100Y31700D02*
X196600D01*
X191500D02*
X192500D01*
X175500D02*
X176800D01*
X171400D02*
X173100D01*
X195200Y31600D02*
X196600D01*
X191500D02*
X192500D01*
X175500D02*
X176800D01*
X171300D02*
X173000D01*
X195200Y31500D02*
X196700D01*
X191500D02*
X192500D01*
X175500D02*
X176800D01*
X171300D02*
X172900D01*
X195300Y31400D02*
X196700D01*
X191500D02*
X192600D01*
X175400D02*
X176800D01*
X171200D02*
X172900D01*
X195400Y31300D02*
X196700D01*
X191500D02*
X192600D01*
X175400D02*
X176700D01*
X171200D02*
X172800D01*
X195400Y31200D02*
X196800D01*
X191600D02*
X192600D01*
X175400D02*
X176700D01*
X171100D02*
X172700D01*
X195500Y31100D02*
X196800D01*
X191600D02*
X192600D01*
X175400D02*
X176700D01*
X171100D02*
X172600D01*
X195500Y31000D02*
X196900D01*
X191600D02*
X192600D01*
X175400D02*
X176700D01*
X171100D02*
X172500D01*
X195600Y30900D02*
X196900D01*
X191600D02*
X192700D01*
X175300D02*
X176700D01*
X171000D02*
X172500D01*
X195700Y30800D02*
X197000D01*
X191600D02*
X192900D01*
X175300D02*
X176700D01*
X171000D02*
X172400D01*
X195700Y30700D02*
X197000D01*
X191600D02*
X193000D01*
X175300D02*
X176600D01*
X171000D02*
X172400D01*
X195800Y30600D02*
X197100D01*
X191700D02*
X193200D01*
X175300D02*
X176600D01*
X170900D02*
X172300D01*
X195800Y30500D02*
X197100D01*
X191700D02*
X193300D01*
X175300D02*
X176600D01*
X170900D02*
X172300D01*
X195900Y30400D02*
X197200D01*
X191700D02*
X193400D01*
X175300D02*
X176600D01*
X170800D02*
X172200D01*
X196000Y30300D02*
X197200D01*
X191700D02*
X193600D01*
X175300D02*
X176600D01*
X170800D02*
X172100D01*
X196000Y30200D02*
X197300D01*
X191700D02*
X193700D01*
X175300D02*
X176600D01*
X170700D02*
X172000D01*
X196100Y30100D02*
X197300D01*
X191800D02*
X193900D01*
X175300D02*
X176600D01*
X170700D02*
X172000D01*
X196100Y30000D02*
X197400D01*
X191800D02*
X194000D01*
X175200D02*
X176600D01*
X170600D02*
X172000D01*
X196200Y29900D02*
X197400D01*
X191800D02*
X194100D01*
X175200D02*
X176600D01*
X170500D02*
X171900D01*
X196200Y29800D02*
X197400D01*
X191800D02*
X194200D01*
X175200D02*
X176600D01*
X170500D02*
X171900D01*
X196300Y29700D02*
X197500D01*
X193100D02*
X194300D01*
X191800D02*
X192900D01*
X175200D02*
X176500D01*
X170500D02*
X171800D01*
X196300Y29600D02*
X197500D01*
X193200D02*
X194400D01*
X191900D02*
X192900D01*
X175200D02*
X176500D01*
X170400D02*
X171800D01*
X196300Y29500D02*
X197600D01*
X193400D02*
X194400D01*
X191900D02*
X193000D01*
X175200D02*
X176500D01*
X170400D02*
X171700D01*
X196400Y29400D02*
X197600D01*
X193500D02*
X194500D01*
X191900D02*
X193000D01*
X174900D02*
X176500D01*
X170300D02*
X171700D01*
X196400Y29300D02*
X197600D01*
X193600D02*
X194600D01*
X191900D02*
X193000D01*
X174700D02*
X176500D01*
X170300D02*
X171700D01*
X196400Y29200D02*
X197700D01*
X193700D02*
X194700D01*
X191900D02*
X193000D01*
X174400D02*
X176500D01*
X170200D02*
X171600D01*
X196500Y29100D02*
X197700D01*
X193800D02*
X194700D01*
X191900D02*
X193000D01*
X174200D02*
X176500D01*
X170200D02*
X171600D01*
X196500Y29000D02*
X197700D01*
X193900D02*
X194800D01*
X192000D02*
X193000D01*
X174000D02*
X176500D01*
X170100D02*
X171500D01*
X196600Y28900D02*
X197800D01*
X194000D02*
X194900D01*
X192000D02*
X193000D01*
X173900D02*
X176500D01*
X170100D02*
X171500D01*
X196600Y28800D02*
X197800D01*
X194000D02*
X194900D01*
X192000D02*
X193100D01*
X175200D02*
X176500D01*
X173800D02*
X175000D01*
X170000D02*
X171500D01*
X196700Y28700D02*
X197800D01*
X194100D02*
X195000D01*
X192000D02*
X193100D01*
X175200D02*
X176500D01*
X173700D02*
X174700D01*
X170000D02*
X171400D01*
X196700Y28600D02*
X197800D01*
X194200D02*
X195100D01*
X192000D02*
X193100D01*
X175200D02*
X176500D01*
X173600D02*
X174600D01*
X169900D02*
X171400D01*
X196800Y28500D02*
X197800D01*
X194200D02*
X195100D01*
X192000D02*
X193100D01*
X175200D02*
X176500D01*
X173500D02*
X174400D01*
X169900D02*
X171300D01*
X196800Y28400D02*
X197800D01*
X194300D02*
X195200D01*
X192000D02*
X193100D01*
X175200D02*
X176500D01*
X173400D02*
X174300D01*
X169900D02*
X171300D01*
X196900Y28300D02*
X197900D01*
X194400D02*
X195200D01*
X192000D02*
X193100D01*
X175200D02*
X176500D01*
X173300D02*
X174200D01*
X169800D02*
X171200D01*
X196900Y28200D02*
X197900D01*
X194400D02*
X195300D01*
X192000D02*
X193100D01*
X175200D02*
X176500D01*
X173200D02*
X174100D01*
X169800D02*
X171200D01*
X197000Y28100D02*
X197900D01*
X194500D02*
X195300D01*
X192100D02*
X193100D01*
X175200D02*
X176500D01*
X173100D02*
X174000D01*
X169800D02*
X171100D01*
X197000Y28000D02*
X197900D01*
X194500D02*
X195400D01*
X192100D02*
X193200D01*
X175200D02*
X176500D01*
X173100D02*
X173900D01*
X169700D02*
X171100D01*
X197000Y27900D02*
X197900D01*
X194600D02*
X195400D01*
X192100D02*
X193200D01*
X175200D02*
X176500D01*
X173000D02*
X173800D01*
X169700D02*
X171000D01*
X197100Y27800D02*
X198000D01*
X194600D02*
X195500D01*
X192100D02*
X193200D01*
X175200D02*
X176500D01*
X172900D02*
X173800D01*
X169600D02*
X171000D01*
X197100Y27700D02*
X198000D01*
X194700D02*
X195500D01*
X192100D02*
X193200D01*
X175200D02*
X176500D01*
X172800D02*
X173700D01*
X169600D02*
X170900D01*
X197100Y27600D02*
X198000D01*
X194700D02*
X195600D01*
X192100D02*
X193200D01*
X175200D02*
X176500D01*
X172800D02*
X173600D01*
X169600D02*
X170900D01*
X197200Y27500D02*
X198000D01*
X194800D02*
X195600D01*
X192100D02*
X193200D01*
X175200D02*
X176500D01*
X172700D02*
X173500D01*
X169500D02*
X170900D01*
X197200Y27400D02*
X198000D01*
X194800D02*
X195700D01*
X192100D02*
X193200D01*
X175200D02*
X176500D01*
X172600D02*
X173500D01*
X169500D02*
X170800D01*
X197200Y27300D02*
X198100D01*
X194900D02*
X195700D01*
X192100D02*
X193200D01*
X175200D02*
X176500D01*
X172500D02*
X173400D01*
X169500D02*
X170800D01*
X197200Y27200D02*
X198100D01*
X194900D02*
X195800D01*
X192100D02*
X193200D01*
X175200D02*
X176500D01*
X172400D02*
X173300D01*
X169400D02*
X170700D01*
X197300Y27100D02*
X198100D01*
X195000D02*
X195800D01*
X192100D02*
X193200D01*
X175200D02*
X176600D01*
X172300D02*
X173200D01*
X169400D02*
X170700D01*
X197300Y27000D02*
X198100D01*
X195000D02*
X195900D01*
X192100D02*
X193200D01*
X175200D02*
X176600D01*
X172200D02*
X173200D01*
X169400D02*
X170600D01*
X197400Y26900D02*
X198100D01*
X195100D02*
X195900D01*
X192100D02*
X193200D01*
X175200D02*
X176600D01*
X172200D02*
X173100D01*
X169300D02*
X170600D01*
X197400Y26800D02*
X198100D01*
X195100D02*
X196000D01*
X192100D02*
X193200D01*
X175200D02*
X176600D01*
X172100D02*
X173000D01*
X169300D02*
X170500D01*
X197400Y26700D02*
X198200D01*
X195200D02*
X196000D01*
X192100D02*
X193300D01*
X175300D02*
X176600D01*
X172000D02*
X172900D01*
X169300D02*
X170500D01*
X197500Y26600D02*
X198200D01*
X195200D02*
X196100D01*
X192100D02*
X193300D01*
X175300D02*
X176600D01*
X172000D02*
X172800D01*
X169300D02*
X170400D01*
X197500Y26500D02*
X198200D01*
X195300D02*
X196100D01*
X192200D02*
X193300D01*
X175300D02*
X176700D01*
X171900D02*
X172700D01*
X169200D02*
X170300D01*
X197500Y26400D02*
X198200D01*
X195300D02*
X196200D01*
X192200D02*
X193300D01*
X175300D02*
X176700D01*
X171900D02*
X172700D01*
X169200D02*
X170300D01*
X197500Y26300D02*
X198200D01*
X195400D02*
X196200D01*
X192200D02*
X193300D01*
X175300D02*
X176700D01*
X171800D02*
X172600D01*
X169100D02*
X170300D01*
X197500Y26200D02*
X198200D01*
X195400D02*
X196200D01*
X192200D02*
X193300D01*
X175400D02*
X176800D01*
X171800D02*
X172600D01*
X169100D02*
X170200D01*
X197500Y26100D02*
X198200D01*
X195500D02*
X196300D01*
X192200D02*
X193300D01*
X175400D02*
X176800D01*
X171700D02*
X172500D01*
X169100D02*
X170200D01*
X197500Y26000D02*
X198200D01*
X195500D02*
X196300D01*
X192200D02*
X193300D01*
X175400D02*
X176800D01*
X171700D02*
X172500D01*
X169100D02*
X170200D01*
X197500Y25900D02*
X198200D01*
X195600D02*
X196400D01*
X192200D02*
X193300D01*
X175400D02*
X176800D01*
X171600D02*
X172400D01*
X169100D02*
X170200D01*
X197500Y25800D02*
X198200D01*
X195600D02*
X196400D01*
X192200D02*
X193300D01*
X175500D02*
X176900D01*
X171500D02*
X172400D01*
X169100D02*
X170200D01*
X197500Y25700D02*
X198300D01*
X195600D02*
X196500D01*
X192200D02*
X193300D01*
X175500D02*
X176900D01*
X171500D02*
X172300D01*
X169100D02*
X170100D01*
X197500Y25600D02*
X198300D01*
X195700D02*
X196500D01*
X192200D02*
X193300D01*
X175500D02*
X176900D01*
X171400D02*
X172300D01*
X169000D02*
X170100D01*
X197600Y25500D02*
X198300D01*
X195700D02*
X196500D01*
X192200D02*
X193300D01*
X175600D02*
X176900D01*
X171300D02*
X172200D01*
X169000D02*
X170100D01*
X197600Y25400D02*
X198300D01*
X195800D02*
X196600D01*
X192200D02*
X193300D01*
X175600D02*
X177000D01*
X171300D02*
X172200D01*
X169000D02*
X170100D01*
X197600Y25300D02*
X198300D01*
X195800D02*
X196600D01*
X192200D02*
X193300D01*
X175600D02*
X177000D01*
X171200D02*
X172100D01*
X169000D02*
X170100D01*
X197600Y25200D02*
X198300D01*
X195800D02*
X196700D01*
X192200D02*
X193400D01*
X175600D02*
X177000D01*
X171200D02*
X172100D01*
X169000D02*
X170000D01*
X197600Y25100D02*
X198300D01*
X195900D02*
X196700D01*
X192200D02*
X193400D01*
X175700D02*
X177100D01*
X171100D02*
X172000D01*
X169000D02*
X170000D01*
X197600Y25000D02*
X198300D01*
X195900D02*
X196700D01*
X192200D02*
X193400D01*
X175700D02*
X177100D01*
X171000D02*
X171900D01*
X168900D02*
X170000D01*
X197600Y24900D02*
X198300D01*
X196000D02*
X196800D01*
X192200D02*
X193400D01*
X175700D02*
X177100D01*
X171000D02*
X171900D01*
X168900D02*
X170000D01*
X197600Y24800D02*
X198300D01*
X196000D02*
X196800D01*
X192200D02*
X193400D01*
X175800D02*
X177100D01*
X170900D02*
X171800D01*
X168900D02*
X170000D01*
X197600Y24700D02*
X198300D01*
X196100D02*
X196900D01*
X192200D02*
X193300D01*
X175800D02*
X177200D01*
X170800D02*
X171800D01*
X168900D02*
X169900D01*
X197600Y24600D02*
X198300D01*
X196100D02*
X196900D01*
X192200D02*
X193300D01*
X175800D02*
X177200D01*
X170800D02*
X171700D01*
X168900D02*
X169900D01*
X197600Y24500D02*
X198300D01*
X196100D02*
X196900D01*
X192200D02*
X193300D01*
X175800D02*
X177200D01*
X170700D02*
X171600D01*
X168900D02*
X169900D01*
X197600Y24400D02*
X198300D01*
X196200D02*
X197000D01*
X192200D02*
X193300D01*
X175900D02*
X177300D01*
X170600D02*
X171600D01*
X168900D02*
X169900D01*
X197600Y24300D02*
X198300D01*
X196200D02*
X197000D01*
X192200D02*
X193300D01*
X175900D02*
X177300D01*
X170600D02*
X171500D01*
X168900D02*
X169900D01*
X197600Y24200D02*
X198300D01*
X196300D02*
X197100D01*
X192200D02*
X193300D01*
X175900D02*
X177300D01*
X170500D02*
X171400D01*
X168900D02*
X169800D01*
X197600Y24100D02*
X198300D01*
X196300D02*
X197100D01*
X192200D02*
X193300D01*
X176000D02*
X177400D01*
X170400D02*
X171400D01*
X168900D02*
X169800D01*
X197600Y24000D02*
X198300D01*
X196400D02*
X197200D01*
X192100D02*
X193300D01*
X176000D02*
X177400D01*
X170400D02*
X171300D01*
X168900D02*
X169800D01*
X197600Y23900D02*
X198300D01*
X196400D02*
X197200D01*
X192100D02*
X193300D01*
X176000D02*
X177400D01*
X170300D02*
X171200D01*
X168900D02*
X169700D01*
X197600Y23800D02*
X198300D01*
X196500D02*
X197300D01*
X192100D02*
X193300D01*
X176100D02*
X177400D01*
X170200D02*
X171200D01*
X168900D02*
X169700D01*
X197600Y23700D02*
X198300D01*
X196500D02*
X197300D01*
X192100D02*
X193200D01*
X176100D02*
X177500D01*
X170200D02*
X171100D01*
X168900D02*
X169700D01*
X197600Y23600D02*
X198300D01*
X196600D02*
X197400D01*
X192000D02*
X193200D01*
X176100D02*
X177500D01*
X170100D02*
X171000D01*
X168900D02*
X169600D01*
X197600Y23500D02*
X198300D01*
X196600D02*
X197400D01*
X192000D02*
X193200D01*
X176100D02*
X177500D01*
X170100D02*
X171000D01*
X168900D02*
X169600D01*
X197600Y23400D02*
X198300D01*
X196700D02*
X197500D01*
X192000D02*
X193200D01*
X176200D02*
X177600D01*
X170000D02*
X170900D01*
X168900D02*
X169600D01*
X196700Y23300D02*
X198300D01*
X192000D02*
X193200D01*
X176200D02*
X177600D01*
X170000D02*
X170900D01*
X168900D02*
X169600D01*
X196800Y23200D02*
X198200D01*
X191900D02*
X193100D01*
X176200D02*
X177600D01*
X169900D02*
X170800D01*
X168900D02*
X169600D01*
X196900Y23100D02*
X198200D01*
X191900D02*
X193100D01*
X176300D02*
X177700D01*
X169800D02*
X170800D01*
X168900D02*
X169700D01*
X196900Y23000D02*
X198200D01*
X191800D02*
X193100D01*
X176300D02*
X177700D01*
X169800D02*
X170700D01*
X168900D02*
X169700D01*
X197000Y22900D02*
X198100D01*
X191800D02*
X193000D01*
X176300D02*
X177700D01*
X168900D02*
X170600D01*
X197100Y22800D02*
X198100D01*
X191800D02*
X193000D01*
X176400D02*
X177800D01*
X168900D02*
X170600D01*
X197300Y22700D02*
X197900D01*
X191700D02*
X193000D01*
X176400D02*
X177800D01*
X168900D02*
X170500D01*
X191700Y22600D02*
X192900D01*
X176400D02*
X177800D01*
X169000D02*
X170500D01*
X191600Y22500D02*
X192900D01*
X176500D02*
X177900D01*
X169100D02*
X170400D01*
X191600Y22400D02*
X192900D01*
X176500D02*
X177900D01*
X169200D02*
X170300D01*
X191600Y22300D02*
X192800D01*
X176500D02*
X177900D01*
X169300D02*
X170300D01*
X191500Y22200D02*
X192800D01*
X176600D02*
X178000D01*
X169300D02*
X170200D01*
X191500Y22100D02*
X192700D01*
X176600D02*
X178000D01*
X169500D02*
X170100D01*
X191400Y22000D02*
X192700D01*
X176700D02*
X178100D01*
X191400Y21900D02*
X192700D01*
X176700D02*
X178100D01*
X191300Y21800D02*
X192600D01*
X176700D02*
X178200D01*
X191300Y21700D02*
X192600D01*
X176800D02*
X178200D01*
X191200Y21600D02*
X192500D01*
X176800D02*
X178300D01*
X191200Y21500D02*
X192500D01*
X176900D02*
X178300D01*
X191100Y21400D02*
X192400D01*
X176900D02*
X178400D01*
X191100Y21300D02*
X192400D01*
X177000D02*
X178400D01*
X191000Y21200D02*
X192400D01*
X177000D02*
X178500D01*
X191000Y21100D02*
X192300D01*
X177100D02*
X178500D01*
X190900Y21000D02*
X192300D01*
X177100D02*
X178600D01*
X190900Y20900D02*
X192200D01*
X177200D02*
X178600D01*
X190800Y20800D02*
X192200D01*
X177200D02*
X178700D01*
X190700Y20700D02*
X192100D01*
X177300D02*
X178700D01*
X190700Y20600D02*
X192100D01*
X177300D02*
X178800D01*
X190600Y20500D02*
X192000D01*
X177300D02*
X178800D01*
X190600Y20400D02*
X191900D01*
X177400D02*
X178900D01*
X190500Y20300D02*
X191900D01*
X177400D02*
X178900D01*
X190500Y20200D02*
X191800D01*
X177500D02*
X179000D01*
X190400Y20100D02*
X191800D01*
X177500D02*
X179000D01*
X190400Y20000D02*
X191700D01*
X177600D02*
X179100D01*
X190300Y19900D02*
X191700D01*
X177600D02*
X179100D01*
X190200Y19800D02*
X191600D01*
X177700D02*
X179200D01*
X190100Y19700D02*
X191600D01*
X177700D02*
X179300D01*
X190000Y19600D02*
X191500D01*
X177800D02*
X179300D01*
X189900Y19500D02*
X191500D01*
X177900D02*
X179400D01*
X189900Y19400D02*
X191400D01*
X177900D02*
X179500D01*
X189700Y19300D02*
X191400D01*
X178000D02*
X179600D01*
X189600Y19200D02*
X191300D01*
X178000D02*
X179600D01*
X189500Y19100D02*
X191200D01*
X178100D02*
X179700D01*
X189300Y19000D02*
X191100D01*
X186300D02*
X187700D01*
X178200D02*
X179800D01*
X185600Y18900D02*
X191100D01*
X180200D02*
X180900D01*
X178200D02*
X179900D01*
X185100Y18800D02*
X191000D01*
X178300D02*
X181100D01*
X184600Y18700D02*
X190900D01*
X178400D02*
X181300D01*
X184000Y18600D02*
X190800D01*
X178500D02*
X181600D01*
X183800Y18500D02*
X190700D01*
X178600D02*
X182100D01*
X178600Y18400D02*
X190700D01*
X189400Y18300D02*
X190900D01*
X178700D02*
X189300D01*
X189400Y18200D02*
X191000D01*
X178800D02*
X189200D01*
X189400Y18100D02*
X191200D01*
X188200D02*
X189200D01*
X178900D02*
X187700D01*
X189700Y18000D02*
X191400D01*
X188200D02*
X189300D01*
X179000D02*
X186100D01*
X190000Y17900D02*
X191500D01*
X188300D02*
X189400D01*
X179200D02*
X185600D01*
X190200Y17800D02*
X191600D01*
X188400D02*
X189400D01*
X179300D02*
X185200D01*
X190300Y17700D02*
X191700D01*
X188400D02*
X189400D01*
X181200D02*
X184400D01*
X179500D02*
X181100D01*
X190400Y17600D02*
X191800D01*
X188500D02*
X189500D01*
X181500D02*
X184200D01*
X179900D02*
X181100D01*
X190600Y17500D02*
X191800D01*
X188600D02*
X189500D01*
X182900D02*
X183600D01*
X181500D02*
X182300D01*
X180000D02*
X181100D01*
X190700Y17400D02*
X191900D01*
X188500D02*
X189500D01*
X181600D02*
X182400D01*
X180000D02*
X181100D01*
X190900Y17300D02*
X192000D01*
X188400D02*
X189500D01*
X181600D02*
X182400D01*
X180000D02*
X181100D01*
X191000Y17200D02*
X192100D01*
X188300D02*
X189400D01*
X181700D02*
X182500D01*
X180000D02*
X181100D01*
X191100Y17100D02*
X192100D01*
X188300D02*
X189400D01*
X181700D02*
X182500D01*
X180000D02*
X181100D01*
X191200Y17000D02*
X192200D01*
X188100D02*
X189400D01*
X181700D02*
X182500D01*
X180000D02*
X181000D01*
X191300Y16900D02*
X192200D01*
X188000D02*
X189300D01*
X181700D02*
X182600D01*
X180000D02*
X181000D01*
X191300Y16800D02*
X192300D01*
X187900D02*
X189200D01*
X181700D02*
X182600D01*
X180000D02*
X181000D01*
X191400Y16700D02*
X192400D01*
X187800D02*
X189200D01*
X181800D02*
X182600D01*
X180000D02*
X181000D01*
X191500Y16600D02*
X192400D01*
X190700D02*
X191100D01*
X187700D02*
X189100D01*
X181800D02*
X182600D01*
X180000D02*
X181000D01*
X191500Y16500D02*
X192500D01*
X190600D02*
X191400D01*
X187700D02*
X189000D01*
X181800D02*
X182600D01*
X180000D02*
X181000D01*
X190400Y16400D02*
X192500D01*
X187600D02*
X188900D01*
X181800D02*
X182700D01*
X179900D02*
X181000D01*
X190400Y16300D02*
X192600D01*
X187600D02*
X188700D01*
X181800D02*
X182700D01*
X179800D02*
X181000D01*
X190400Y16200D02*
X192600D01*
X187500D02*
X188600D01*
X181800D02*
X182900D01*
X179700D02*
X180900D01*
X190400Y16100D02*
X192600D01*
X189200D02*
X189600D01*
X187500D02*
X188500D01*
X181800D02*
X183000D01*
X179600D02*
X180900D01*
X190400Y16000D02*
X192600D01*
X189100D02*
X189800D01*
X187500D02*
X188400D01*
X181900D02*
X183100D01*
X179500D02*
X180900D01*
X190400Y15900D02*
X192600D01*
X189000D02*
X189800D01*
X187500D02*
X188500D01*
X181900D02*
X183200D01*
X179300D02*
X180800D01*
X190400Y15800D02*
X192500D01*
X189000D02*
X189900D01*
X187500D02*
X188600D01*
X182000D02*
X183300D01*
X179200D02*
X180700D01*
X190400Y15700D02*
X192400D01*
X187600D02*
X189900D01*
X182000D02*
X183400D01*
X179100D02*
X180700D01*
X190400Y15600D02*
X192300D01*
X187600D02*
X189900D01*
X182200D02*
X183400D01*
X179000D02*
X180600D01*
X190400Y15500D02*
X191200D01*
X187600D02*
X189900D01*
X182400D02*
X183500D01*
X179000D02*
X180500D01*
X190400Y15400D02*
X191200D01*
X187700D02*
X190000D01*
X182500D02*
X183500D01*
X178900D02*
X180400D01*
X190400Y15300D02*
X191200D01*
X187800D02*
X190000D01*
X182600D02*
X183600D01*
X178800D02*
X180300D01*
X190400Y15200D02*
X191200D01*
X187900D02*
X190000D01*
X182600D02*
X183600D01*
X178800D02*
X180100D01*
X190400Y15100D02*
X191200D01*
X188100D02*
X190100D01*
X182700D02*
X183700D01*
X181900D02*
X182600D01*
X178800D02*
X180000D01*
X190400Y15000D02*
X191200D01*
X188400D02*
X190100D01*
X181700D02*
X183700D01*
X178700D02*
X179900D01*
X190400Y14900D02*
X191200D01*
X189300D02*
X190200D01*
X181600D02*
X183700D01*
X180400D02*
X180700D01*
X178700D02*
X179800D01*
X189300Y14800D02*
X191200D01*
X181600D02*
X183700D01*
X180100D02*
X181000D01*
X178700D02*
X179700D01*
X189300Y14700D02*
X191200D01*
X181600D02*
X183700D01*
X179900D02*
X181100D01*
X178700D02*
X179600D01*
X189400Y14600D02*
X191200D01*
X181500D02*
X183700D01*
X179800D02*
X181200D01*
X178700D02*
X179700D01*
X189400Y14500D02*
X191200D01*
X181500D02*
X183700D01*
X178700D02*
X181300D01*
X189500Y14400D02*
X191200D01*
X181500D02*
X183600D01*
X178800D02*
X181300D01*
X189600Y14300D02*
X191200D01*
X181500D02*
X183500D01*
X178800D02*
X181400D01*
X189700Y14200D02*
X191100D01*
X181500D02*
X183300D01*
X178800D02*
X181400D01*
X189900Y14100D02*
X191100D01*
X182600D02*
X183100D01*
X178900D02*
X182400D01*
X190100Y14000D02*
X190900D01*
X179000D02*
X182400D01*
X180500Y13900D02*
X182300D01*
X179100D02*
X180400D01*
X180500Y13800D02*
X182300D01*
X179200D02*
X180200D01*
X180600Y13700D02*
X182200D01*
X179500D02*
X180000D01*
X180600Y13600D02*
X182200D01*
X180700Y13500D02*
X182200D01*
X180700Y13400D02*
X182100D01*
X180800Y13300D02*
X182000D01*
X180800Y13200D02*
X181900D01*
X180900Y13100D02*
X181800D01*
X181000Y13000D02*
X181700D01*
X274100Y116800D02*
X281700D01*
X274100Y116700D02*
X281700D01*
X274200Y116600D02*
X281800D01*
X274200Y116500D02*
X281800D01*
X274200Y116400D02*
X281900D01*
X274300Y116300D02*
X281900D01*
X242200Y97600D02*
X246600D01*
X218100Y97300D02*
X220900D01*
X180200Y119600D02*
X183400D01*
X179600Y119500D02*
X184000D01*
X179200Y119400D02*
X184400D01*
X178900Y119300D02*
X184700D01*
X178600Y119200D02*
X185000D01*
X178400Y119100D02*
X185300D01*
X178200Y119000D02*
X185500D01*
X170200Y98400D02*
X176300D01*
X170400Y98300D02*
X176300D01*
X170600Y98200D02*
X176300D01*
X170900Y98100D02*
X176400D01*
X171200Y98000D02*
X176400D01*
X171600Y97900D02*
X176400D01*
X172200Y97800D02*
X176400D01*
X282100Y98900D02*
X291300D01*
X282200Y98800D02*
X291300D01*
X282200Y98700D02*
X291400D01*
X282300Y98600D02*
X291500D01*
X282300Y98500D02*
X291500D01*
X282300Y98400D02*
X291600D01*
X282400Y98300D02*
X291600D01*
X282400Y98200D02*
X291700D01*
X282500Y98100D02*
X291700D01*
X282500Y98000D02*
X291800D01*
X282600Y97900D02*
X291800D01*
X282600Y97800D02*
X291900D01*
X280500Y102600D02*
X289300D01*
X280500Y102500D02*
X289400D01*
X280600Y102400D02*
X289400D01*
X280600Y102300D02*
X289500D01*
X280700Y102200D02*
X289500D01*
X280700Y102100D02*
X289600D01*
X280800Y102000D02*
X289600D01*
X280800Y101900D02*
X289700D01*
X280800Y101800D02*
X289700D01*
X280900Y101700D02*
X289800D01*
X280900Y101600D02*
X289800D01*
X281000Y101500D02*
X289900D01*
X281000Y101400D02*
X289900D01*
X281100Y101300D02*
X290000D01*
X281100Y101200D02*
X290100D01*
X281200Y101100D02*
X290100D01*
X281200Y101000D02*
X290200D01*
X281200Y100900D02*
X290200D01*
X281300Y100800D02*
X290300D01*
X281300Y100700D02*
X290300D01*
X281400Y100600D02*
X290400D01*
X281400Y100500D02*
X290400D01*
X281500Y100400D02*
X290500D01*
X281500Y100300D02*
X290500D01*
X281600Y100200D02*
X290600D01*
X281600Y100100D02*
X290600D01*
X281600Y100000D02*
X290700D01*
X281700Y99900D02*
X290800D01*
X281700Y99800D02*
X290800D01*
X281800Y99700D02*
X290900D01*
X281800Y99600D02*
X290900D01*
X281900Y99500D02*
X291000D01*
X281900Y99400D02*
X291000D01*
X281900Y99300D02*
X291100D01*
X282000Y99200D02*
X291100D01*
X282000Y99100D02*
X291200D01*
X274900Y114900D02*
X282700D01*
X275000Y114800D02*
X282800D01*
X275000Y114700D02*
X282800D01*
X275100Y114600D02*
X282900D01*
X275100Y114500D02*
X282900D01*
X275200Y114400D02*
X283000D01*
X275200Y114300D02*
X283000D01*
X275300Y114200D02*
X283100D01*
X275300Y114100D02*
X283100D01*
X275300Y114000D02*
X283200D01*
X275400Y113900D02*
X283200D01*
X275400Y113800D02*
X283300D01*
X275500Y113700D02*
X283300D01*
X275500Y113600D02*
X283400D01*
X275600Y113500D02*
X283500D01*
X275600Y113400D02*
X283500D01*
X275700Y113300D02*
X283600D01*
X275700Y113200D02*
X283600D01*
X275800Y113100D02*
X283700D01*
X275800Y113000D02*
X283700D01*
X275900Y112900D02*
X283800D01*
X275900Y112800D02*
X283800D01*
X276000Y112700D02*
X283900D01*
X276000Y112600D02*
X283900D01*
X276000Y112500D02*
X284000D01*
X276100Y112400D02*
X284000D01*
X276100Y112300D02*
X284100D01*
X276200Y112200D02*
X284200D01*
X276200Y112100D02*
X284200D01*
X276300Y112000D02*
X284300D01*
X276300Y111900D02*
X284300D01*
X276400Y111800D02*
X284400D01*
X276400Y111700D02*
X284400D01*
X276500Y111600D02*
X284500D01*
X276500Y111500D02*
X284500D01*
X276600Y111400D02*
X284600D01*
X276600Y111300D02*
X284600D01*
X276600Y111200D02*
X284700D01*
X276700Y111100D02*
X284700D01*
X276700Y111000D02*
X284800D01*
X276800Y110900D02*
X284800D01*
X276800Y110800D02*
X284900D01*
X276900Y110700D02*
X285000D01*
X276900Y110600D02*
X285000D01*
X277000Y110500D02*
X285100D01*
X277000Y110400D02*
X285100D01*
X277100Y110300D02*
X285200D01*
X277100Y110200D02*
X285200D01*
X277200Y110100D02*
X285300D01*
X277200Y110000D02*
X285300D01*
X277200Y109900D02*
X285400D01*
X277300Y109800D02*
X285400D01*
X277300Y109700D02*
X285500D01*
X277400Y109600D02*
X285500D01*
X277400Y109500D02*
X285600D01*
X277500Y109400D02*
X285700D01*
X277500Y109300D02*
X285700D01*
X277600Y109200D02*
X285800D01*
X277600Y109100D02*
X285800D01*
X277700Y109000D02*
X285900D01*
X277700Y108900D02*
X285900D01*
X277800Y108800D02*
X286000D01*
X277800Y108700D02*
X286000D01*
X277800Y108600D02*
X286100D01*
X277900Y108500D02*
X286100D01*
X277900Y108400D02*
X286200D01*
X278000Y108300D02*
X286200D01*
X278000Y108200D02*
X286300D01*
X272900Y119400D02*
X280300D01*
X272900Y119300D02*
X280300D01*
X272900Y119200D02*
X280400D01*
X273000Y119100D02*
X280400D01*
X273000Y119000D02*
X280500D01*
X273100Y118900D02*
X280500D01*
X273100Y118800D02*
X280600D01*
X273200Y118700D02*
X280700D01*
X273200Y118600D02*
X280700D01*
X273300Y118500D02*
X280800D01*
X273300Y118400D02*
X280800D01*
X273400Y118300D02*
X280900D01*
X273400Y118200D02*
X280900D01*
X273500Y118100D02*
X281000D01*
X273500Y118000D02*
X281000D01*
X273500Y117900D02*
X281100D01*
X273600Y117800D02*
X281100D01*
X273600Y117700D02*
X281200D01*
X273700Y117600D02*
X281200D01*
X273700Y117500D02*
X281300D01*
X273800Y117400D02*
X281400D01*
X273800Y117300D02*
X281400D01*
X273900Y117200D02*
X281500D01*
X273900Y117100D02*
X281500D01*
X274000Y117000D02*
X281600D01*
X274000Y116900D02*
X281600D01*
X274300Y116200D02*
X282000D01*
X274400Y116100D02*
X282100D01*
X274400Y116000D02*
X282100D01*
X274500Y115900D02*
X282200D01*
X274500Y115800D02*
X282200D01*
X274600Y115700D02*
X282300D01*
X274600Y115600D02*
X282300D01*
X274700Y115500D02*
X282400D01*
X274700Y115400D02*
X282400D01*
X274800Y115300D02*
X282500D01*
X274800Y115200D02*
X282500D01*
X274800Y115100D02*
X282600D01*
X254900Y98900D02*
X262900D01*
X239900D02*
X250100D01*
X254900Y98800D02*
X263000D01*
X239900D02*
X250000D01*
X254900Y98700D02*
X263000D01*
X239900D02*
X249900D01*
X255000Y98600D02*
X263000D01*
X239900D02*
X249800D01*
X255000Y98500D02*
X263000D01*
X240000D02*
X249700D01*
X255000Y98400D02*
X263100D01*
X240000D02*
X249500D01*
X255000Y98300D02*
X263100D01*
X240000D02*
X249400D01*
X255100Y98200D02*
X263100D01*
X240000D02*
X249200D01*
X255100Y98100D02*
X263100D01*
X240100D02*
X249000D01*
X255100Y98000D02*
X263200D01*
X240100D02*
X248700D01*
X255100Y97900D02*
X263200D01*
X240100D02*
X248400D01*
X255200Y97800D02*
X263200D01*
X240100D02*
X248000D01*
X240600Y97700D02*
X247400D01*
X252900Y106900D02*
X260900D01*
X241200D02*
X249200D01*
X252900Y106800D02*
X261000D01*
X241200D02*
X249200D01*
X252900Y106700D02*
X261000D01*
X241200D02*
X249300D01*
X253000Y106600D02*
X261000D01*
X241200D02*
X249300D01*
X253000Y106500D02*
X261000D01*
X241300D02*
X249300D01*
X253000Y106400D02*
X261100D01*
X241300D02*
X249300D01*
X253000Y106300D02*
X261100D01*
X241300D02*
X249400D01*
X253100Y106200D02*
X261100D01*
X241300D02*
X249400D01*
X253100Y106100D02*
X261100D01*
X241400D02*
X249400D01*
X253100Y106000D02*
X261200D01*
X241400D02*
X249400D01*
X253100Y105900D02*
X261200D01*
X241400D02*
X249500D01*
X253200Y105800D02*
X261200D01*
X241400D02*
X249500D01*
X253200Y105700D02*
X261200D01*
X241500D02*
X249500D01*
X253200Y105600D02*
X261300D01*
X241500D02*
X249500D01*
X253200Y105500D02*
X261300D01*
X241500D02*
X249600D01*
X253300Y105400D02*
X261300D01*
X241500D02*
X249600D01*
X253300Y105300D02*
X261300D01*
X241600D02*
X249600D01*
X253300Y105200D02*
X261400D01*
X241600D02*
X249600D01*
X253300Y105100D02*
X261400D01*
X241600D02*
X249700D01*
X253400Y105000D02*
X261400D01*
X241600D02*
X249700D01*
X253400Y104900D02*
X261400D01*
X241700D02*
X249700D01*
X253400Y104800D02*
X261500D01*
X241700D02*
X249700D01*
X253400Y104700D02*
X261500D01*
X241700D02*
X249800D01*
X253500Y104600D02*
X261500D01*
X241700D02*
X249800D01*
X253500Y104500D02*
X261500D01*
X241800D02*
X249800D01*
X253500Y104400D02*
X261600D01*
X241800D02*
X249800D01*
X253500Y104300D02*
X261600D01*
X241800D02*
X249900D01*
X253600Y104200D02*
X261600D01*
X241800D02*
X249900D01*
X253600Y104100D02*
X261600D01*
X241900D02*
X249900D01*
X253600Y104000D02*
X261700D01*
X241900D02*
X249900D01*
X253600Y103900D02*
X261700D01*
X241900D02*
X250000D01*
X253700Y103800D02*
X261700D01*
X241900D02*
X250000D01*
X253700Y103700D02*
X261700D01*
X241900D02*
X250000D01*
X253700Y103600D02*
X261800D01*
X241900D02*
X250000D01*
X253700Y103500D02*
X261800D01*
X241900D02*
X250100D01*
X253800Y103400D02*
X261800D01*
X241900D02*
X250100D01*
X253800Y103300D02*
X261800D01*
X241900D02*
X250100D01*
X253800Y103200D02*
X261900D01*
X241800D02*
X250100D01*
X253800Y103100D02*
X261900D01*
X241800D02*
X250200D01*
X253900Y103000D02*
X261900D01*
X241700D02*
X250200D01*
X253900Y102900D02*
X261900D01*
X241600D02*
X250200D01*
X253900Y102800D02*
X262000D01*
X241500D02*
X250200D01*
X253900Y102700D02*
X262000D01*
X241300D02*
X250300D01*
X254000Y102600D02*
X262000D01*
X240900D02*
X250300D01*
X254000Y102500D02*
X262000D01*
X239000D02*
X250300D01*
X254000Y102400D02*
X262100D01*
X239000D02*
X250300D01*
X254000Y102300D02*
X262100D01*
X239000D02*
X250400D01*
X254100Y102200D02*
X262100D01*
X239000D02*
X250400D01*
X254100Y102100D02*
X262100D01*
X239100D02*
X250400D01*
X254100Y102000D02*
X262200D01*
X239100D02*
X250400D01*
X254100Y101900D02*
X262200D01*
X239100D02*
X250400D01*
X254200Y101800D02*
X262200D01*
X239100D02*
X250400D01*
X254200Y101700D02*
X262200D01*
X239200D02*
X250500D01*
X254200Y101600D02*
X262300D01*
X239200D02*
X250500D01*
X254200Y101500D02*
X262300D01*
X239200D02*
X250500D01*
X254300Y101400D02*
X262300D01*
X239200D02*
X250500D01*
X254300Y101300D02*
X262300D01*
X239300D02*
X250500D01*
X254300Y101200D02*
X262400D01*
X239300D02*
X250500D01*
X254300Y101100D02*
X262400D01*
X239300D02*
X250500D01*
X254400Y101000D02*
X262400D01*
X239300D02*
X250500D01*
X254400Y100900D02*
X262400D01*
X239400D02*
X250500D01*
X254400Y100800D02*
X262500D01*
X239400D02*
X250500D01*
X254400Y100700D02*
X262500D01*
X239400D02*
X250500D01*
X254500Y100600D02*
X262500D01*
X239400D02*
X250500D01*
X254500Y100500D02*
X262500D01*
X239500D02*
X250500D01*
X254500Y100400D02*
X262600D01*
X239500D02*
X250500D01*
X254500Y100300D02*
X262600D01*
X239500D02*
X250500D01*
X254600Y100200D02*
X262600D01*
X239500D02*
X250500D01*
X254600Y100100D02*
X262600D01*
X239600D02*
X250500D01*
X254600Y100000D02*
X262700D01*
X239600D02*
X250500D01*
X254600Y99900D02*
X262700D01*
X239600D02*
X250500D01*
X254700Y99800D02*
X262700D01*
X239600D02*
X250500D01*
X254700Y99700D02*
X262700D01*
X239700D02*
X250400D01*
X254700Y99600D02*
X262800D01*
X239700D02*
X250400D01*
X254700Y99500D02*
X262800D01*
X239700D02*
X250400D01*
X254800Y99400D02*
X262800D01*
X239700D02*
X250300D01*
X254800Y99300D02*
X262800D01*
X239800D02*
X250300D01*
X254800Y99200D02*
X262900D01*
X239800D02*
X250300D01*
X254800Y99100D02*
X262900D01*
X239800D02*
X250200D01*
X250900Y114900D02*
X258900D01*
X250900Y114800D02*
X258900D01*
X250900Y114700D02*
X259000D01*
X250900Y114600D02*
X259000D01*
X251000Y114500D02*
X259000D01*
X251000Y114400D02*
X259000D01*
X251000Y114300D02*
X259100D01*
X251000Y114200D02*
X259100D01*
X239300D02*
X247400D01*
X251100Y114100D02*
X259100D01*
X239400D02*
X247400D01*
X251100Y114000D02*
X259100D01*
X239400D02*
X247400D01*
X251100Y113900D02*
X259200D01*
X239400D02*
X247400D01*
X251100Y113800D02*
X259200D01*
X239400D02*
X247500D01*
X251200Y113700D02*
X259200D01*
X239500D02*
X247500D01*
X251200Y113600D02*
X259200D01*
X239500D02*
X247500D01*
X251200Y113500D02*
X259300D01*
X239500D02*
X247500D01*
X251200Y113400D02*
X259300D01*
X239500D02*
X247600D01*
X251300Y113300D02*
X259300D01*
X239600D02*
X247600D01*
X251300Y113200D02*
X259300D01*
X239600D02*
X247600D01*
X251300Y113100D02*
X259400D01*
X239600D02*
X247600D01*
X251300Y113000D02*
X259400D01*
X239600D02*
X247700D01*
X251400Y112900D02*
X259400D01*
X239700D02*
X247700D01*
X251400Y112800D02*
X259500D01*
X239700D02*
X247700D01*
X251400Y112700D02*
X259500D01*
X239700D02*
X247700D01*
X251400Y112600D02*
X259500D01*
X239700D02*
X247800D01*
X251500Y112500D02*
X259500D01*
X239800D02*
X247800D01*
X251500Y112400D02*
X259500D01*
X239800D02*
X247800D01*
X251500Y112300D02*
X259600D01*
X239800D02*
X247800D01*
X251500Y112200D02*
X259600D01*
X239800D02*
X247900D01*
X251600Y112100D02*
X259600D01*
X239900D02*
X247900D01*
X251600Y112000D02*
X259700D01*
X239900D02*
X247900D01*
X251600Y111900D02*
X259700D01*
X239900D02*
X247900D01*
X251600Y111800D02*
X259700D01*
X239900D02*
X248000D01*
X251700Y111700D02*
X259700D01*
X240000D02*
X248000D01*
X251700Y111600D02*
X259800D01*
X240000D02*
X248000D01*
X251700Y111500D02*
X259800D01*
X240000D02*
X248000D01*
X251700Y111400D02*
X259800D01*
X240000D02*
X248100D01*
X251800Y111300D02*
X259800D01*
X240100D02*
X248100D01*
X251800Y111200D02*
X259900D01*
X240100D02*
X248100D01*
X251800Y111100D02*
X259900D01*
X240100D02*
X248100D01*
X251800Y111000D02*
X259900D01*
X240100D02*
X248200D01*
X251900Y110900D02*
X259900D01*
X240200D02*
X248200D01*
X251900Y110800D02*
X260000D01*
X240200D02*
X248200D01*
X251900Y110700D02*
X260000D01*
X240200D02*
X248200D01*
X252000Y110600D02*
X260000D01*
X240200D02*
X248300D01*
X252000Y110500D02*
X260000D01*
X240300D02*
X248300D01*
X252000Y110400D02*
X260100D01*
X240300D02*
X248300D01*
X252000Y110300D02*
X260100D01*
X240300D02*
X248300D01*
X252100Y110200D02*
X260100D01*
X240300D02*
X248400D01*
X252100Y110100D02*
X260100D01*
X240400D02*
X248400D01*
X252100Y110000D02*
X260200D01*
X240400D02*
X248400D01*
X252100Y109900D02*
X260200D01*
X240400D02*
X248400D01*
X252200Y109800D02*
X260200D01*
X240400D02*
X248500D01*
X252200Y109700D02*
X260200D01*
X240500D02*
X248500D01*
X252200Y109600D02*
X260300D01*
X240500D02*
X248500D01*
X252200Y109500D02*
X260300D01*
X240500D02*
X248500D01*
X252300Y109400D02*
X260300D01*
X240500D02*
X248600D01*
X252300Y109300D02*
X260300D01*
X240600D02*
X248600D01*
X252300Y109200D02*
X260400D01*
X240600D02*
X248600D01*
X252300Y109100D02*
X260400D01*
X240600D02*
X248600D01*
X252400Y109000D02*
X260400D01*
X240600D02*
X248700D01*
X252400Y108900D02*
X260400D01*
X240700D02*
X248700D01*
X252400Y108800D02*
X260500D01*
X240700D02*
X248700D01*
X252400Y108700D02*
X260500D01*
X240700D02*
X248700D01*
X252500Y108600D02*
X260500D01*
X240700D02*
X248800D01*
X252500Y108500D02*
X260500D01*
X240800D02*
X248800D01*
X252500Y108400D02*
X260600D01*
X240800D02*
X248800D01*
X252500Y108300D02*
X260600D01*
X240800D02*
X248800D01*
X252600Y108200D02*
X260600D01*
X240800D02*
X248900D01*
X252600Y108100D02*
X260600D01*
X240900D02*
X248900D01*
X252600Y108000D02*
X260700D01*
X240900D02*
X248900D01*
X252600Y107900D02*
X260700D01*
X240900D02*
X249000D01*
X252700Y107800D02*
X260700D01*
X240900D02*
X249000D01*
X252700Y107700D02*
X260700D01*
X241000D02*
X249000D01*
X252700Y107600D02*
X260800D01*
X241000D02*
X249000D01*
X252700Y107500D02*
X260800D01*
X241000D02*
X249100D01*
X252800Y107400D02*
X260800D01*
X241000D02*
X249100D01*
X252800Y107300D02*
X260800D01*
X241100D02*
X249100D01*
X252800Y107200D02*
X260900D01*
X241100D02*
X249100D01*
X252800Y107100D02*
X260900D01*
X241100D02*
X249200D01*
X248900Y122900D02*
X256900D01*
X248900Y122800D02*
X256900D01*
X248900Y122700D02*
X257000D01*
X248900Y122600D02*
X257000D01*
X249000Y122500D02*
X257000D01*
X249000Y122400D02*
X257000D01*
X249000Y122300D02*
X257100D01*
X249000Y122200D02*
X257100D01*
X249100Y122100D02*
X257100D01*
X249100Y122000D02*
X257100D01*
X249100Y121900D02*
X257200D01*
X249100Y121800D02*
X257200D01*
X249200Y121700D02*
X257200D01*
X249200Y121600D02*
X257200D01*
X249200Y121500D02*
X257300D01*
X249200Y121400D02*
X257300D01*
X249300Y121300D02*
X257300D01*
X249300Y121200D02*
X257300D01*
X249300Y121100D02*
X257400D01*
X249300Y121000D02*
X257400D01*
X249400Y120900D02*
X257400D01*
X249400Y120800D02*
X257400D01*
X249400Y120700D02*
X257500D01*
X249400Y120600D02*
X257500D01*
X249500Y120500D02*
X257500D01*
X249500Y120400D02*
X257500D01*
X249500Y120300D02*
X257600D01*
X249500Y120200D02*
X257600D01*
X249600Y120100D02*
X257600D01*
X249600Y120000D02*
X257600D01*
X249600Y119900D02*
X257700D01*
X249600Y119800D02*
X257700D01*
X249700Y119700D02*
X257700D01*
X249700Y119600D02*
X257700D01*
X249700Y119500D02*
X257800D01*
X249700Y119400D02*
X257800D01*
X249800Y119300D02*
X257800D01*
X238100D02*
X246100D01*
X249800Y119200D02*
X257800D01*
X238100D02*
X246100D01*
X249800Y119100D02*
X257900D01*
X249800Y119000D02*
X257900D01*
X249900Y118900D02*
X257900D01*
X249900Y118800D02*
X257900D01*
X249900Y118700D02*
X258000D01*
X249900Y118600D02*
X258000D01*
X250000Y118500D02*
X258000D01*
X250000Y118400D02*
X258000D01*
X250000Y118300D02*
X258100D01*
X250000Y118200D02*
X258100D01*
X250100Y118100D02*
X258100D01*
X250100Y118000D02*
X258100D01*
X250100Y117900D02*
X258200D01*
X250100Y117800D02*
X258200D01*
X250200Y117700D02*
X258200D01*
X250200Y117600D02*
X258200D01*
X250200Y117500D02*
X258300D01*
X250200Y117400D02*
X258300D01*
X250300Y117300D02*
X258300D01*
X250300Y117200D02*
X258300D01*
X250300Y117100D02*
X258400D01*
X250300Y117000D02*
X258400D01*
X250400Y116900D02*
X258400D01*
X250400Y116800D02*
X258400D01*
X250400Y116700D02*
X258500D01*
X250400Y116600D02*
X258500D01*
X250500Y116500D02*
X258500D01*
X250500Y116400D02*
X258500D01*
X250500Y116300D02*
X258600D01*
X250500Y116200D02*
X258600D01*
X250600Y116100D02*
X258600D01*
X250600Y116000D02*
X258600D01*
X250600Y115900D02*
X258700D01*
X250600Y115800D02*
X258700D01*
X250700Y115700D02*
X258700D01*
X250700Y115600D02*
X258700D01*
X250700Y115500D02*
X258800D01*
X250700Y115400D02*
X258800D01*
X250800Y115300D02*
X258800D01*
X250800Y115200D02*
X258800D01*
X250800Y115100D02*
X258900D01*
X248100Y125900D02*
X256200D01*
X248100Y125800D02*
X256200D01*
X248200Y125700D02*
X256200D01*
X248200Y125600D02*
X256200D01*
X248200Y125500D02*
X256300D01*
X248200Y125400D02*
X256300D01*
X248300Y125300D02*
X256300D01*
X248300Y125200D02*
X256300D01*
X248300Y125100D02*
X256400D01*
X248300Y125000D02*
X256400D01*
X248400Y124900D02*
X256400D01*
X248400Y124800D02*
X256400D01*
X248400Y124700D02*
X256500D01*
X248400Y124600D02*
X256500D01*
X248500Y124500D02*
X256500D01*
X248500Y124400D02*
X256500D01*
X248500Y124300D02*
X256600D01*
X248500Y124200D02*
X256600D01*
X248600Y124100D02*
X256600D01*
X248600Y124000D02*
X256600D01*
X248600Y123900D02*
X256700D01*
X248600Y123800D02*
X256700D01*
X248700Y123700D02*
X256700D01*
X248700Y123600D02*
X256700D01*
X248700Y123500D02*
X256800D01*
X248700Y123400D02*
X256800D01*
X248800Y123300D02*
X256800D01*
X248800Y123200D02*
X256800D01*
X248800Y123100D02*
X256900D01*
X229000Y98900D02*
X237000D01*
X214100D02*
X224200D01*
X229000Y98800D02*
X237100D01*
X214200D02*
X224100D01*
X229100Y98700D02*
X237100D01*
X214300D02*
X224000D01*
X229100Y98600D02*
X237100D01*
X214500D02*
X223900D01*
X229100Y98500D02*
X237100D01*
X214600D02*
X223800D01*
X229100Y98400D02*
X237200D01*
X214800D02*
X223700D01*
X229200Y98300D02*
X237200D01*
X214900D02*
X223500D01*
X229200Y98200D02*
X237200D01*
X215100D02*
X223400D01*
X229200Y98100D02*
X237200D01*
X215300D02*
X223300D01*
X229200Y98000D02*
X237300D01*
X215500D02*
X223100D01*
X229300Y97900D02*
X237300D01*
X215800D02*
X222900D01*
X229300Y97800D02*
X237300D01*
X216000D02*
X222700D01*
X216300Y97700D02*
X222500D01*
X216600Y97600D02*
X222200D01*
X217000Y97500D02*
X221900D01*
X217400Y97400D02*
X221500D01*
X227000Y106900D02*
X235000D01*
X215500D02*
X223500D01*
X227000Y106800D02*
X235100D01*
X215500D02*
X223500D01*
X227100Y106700D02*
X235100D01*
X215500D02*
X223600D01*
X227100Y106600D02*
X235100D01*
X215500D02*
X223600D01*
X227100Y106500D02*
X235100D01*
X215600D02*
X223600D01*
X227100Y106400D02*
X235200D01*
X215600D02*
X223600D01*
X227200Y106300D02*
X235200D01*
X215600D02*
X223700D01*
X227200Y106200D02*
X235200D01*
X215600D02*
X223700D01*
X227200Y106100D02*
X235200D01*
X215700D02*
X223700D01*
X227200Y106000D02*
X235300D01*
X215700D02*
X223700D01*
X227300Y105900D02*
X235300D01*
X215700D02*
X223800D01*
X227300Y105800D02*
X235300D01*
X215700D02*
X223800D01*
X227300Y105700D02*
X235300D01*
X215800D02*
X223800D01*
X227300Y105600D02*
X235400D01*
X215800D02*
X223800D01*
X227400Y105500D02*
X235400D01*
X215800D02*
X223900D01*
X227400Y105400D02*
X235400D01*
X215800D02*
X223900D01*
X227400Y105300D02*
X235400D01*
X215900D02*
X223900D01*
X227400Y105200D02*
X235500D01*
X215900D02*
X223900D01*
X227500Y105100D02*
X235500D01*
X215900D02*
X224000D01*
X227500Y105000D02*
X235500D01*
X215900D02*
X224000D01*
X227500Y104900D02*
X235500D01*
X216000D02*
X224000D01*
X227500Y104800D02*
X235600D01*
X216000D02*
X224000D01*
X227600Y104700D02*
X235600D01*
X216000D02*
X224100D01*
X227600Y104600D02*
X235600D01*
X216000D02*
X224100D01*
X227600Y104500D02*
X235600D01*
X216000D02*
X224100D01*
X227600Y104400D02*
X235700D01*
X216100D02*
X224100D01*
X227700Y104300D02*
X235700D01*
X216100D02*
X224200D01*
X227700Y104200D02*
X235700D01*
X216100D02*
X224200D01*
X227700Y104100D02*
X235700D01*
X216100D02*
X224200D01*
X227700Y104000D02*
X235800D01*
X216100D02*
X224200D01*
X227800Y103900D02*
X235800D01*
X216100D02*
X224300D01*
X227800Y103800D02*
X235800D01*
X216100D02*
X224300D01*
X227800Y103700D02*
X235800D01*
X216100D02*
X224300D01*
X227800Y103600D02*
X235900D01*
X216100D02*
X224300D01*
X227900Y103500D02*
X235900D01*
X216000D02*
X224400D01*
X227900Y103400D02*
X235900D01*
X216000D02*
X224400D01*
X227900Y103300D02*
X235900D01*
X216000D02*
X224400D01*
X227900Y103200D02*
X236000D01*
X215900D02*
X224400D01*
X228000Y103100D02*
X236000D01*
X215900D02*
X224500D01*
X228000Y103000D02*
X236000D01*
X215800D02*
X224500D01*
X228000Y102900D02*
X236000D01*
X215700D02*
X224500D01*
X228000Y102800D02*
X236100D01*
X215500D02*
X224500D01*
X228100Y102700D02*
X236100D01*
X215300D02*
X224500D01*
X228100Y102600D02*
X236100D01*
X215000D02*
X224600D01*
X228100Y102500D02*
X236100D01*
X228100Y102400D02*
X236200D01*
X228200Y102300D02*
X236200D01*
X228200Y102200D02*
X236200D01*
X228200Y102100D02*
X236200D01*
X228200Y102000D02*
X236300D01*
X228300Y101900D02*
X236300D01*
X228300Y101800D02*
X236300D01*
X228300Y101700D02*
X236300D01*
X228300Y101600D02*
X236400D01*
X228400Y101500D02*
X236400D01*
X228400Y101400D02*
X236400D01*
X228400Y101300D02*
X236400D01*
X228400Y101200D02*
X236500D01*
X228500Y101100D02*
X236500D01*
X228500Y101000D02*
X236500D01*
X228500Y100900D02*
X236500D01*
X228500Y100800D02*
X236600D01*
X228600Y100700D02*
X236600D01*
X228600Y100600D02*
X236600D01*
X228600Y100500D02*
X236600D01*
X228600Y100400D02*
X236700D01*
X228700Y100300D02*
X236700D01*
X228700Y100200D02*
X236700D01*
X228700Y100100D02*
X236700D01*
X212800D02*
X224700D01*
X228700Y100000D02*
X236800D01*
X212900D02*
X224600D01*
X228800Y99900D02*
X236800D01*
X213000D02*
X224600D01*
X228800Y99800D02*
X236800D01*
X213100D02*
X224600D01*
X228800Y99700D02*
X236800D01*
X213200D02*
X224600D01*
X228800Y99600D02*
X236900D01*
X213300D02*
X224500D01*
X228900Y99500D02*
X236900D01*
X213400D02*
X224500D01*
X228900Y99400D02*
X236900D01*
X213500D02*
X224400D01*
X228900Y99300D02*
X236900D01*
X213600D02*
X224400D01*
X228900Y99200D02*
X237000D01*
X213700D02*
X224300D01*
X229000Y99100D02*
X237000D01*
X213800D02*
X224300D01*
X225000Y114900D02*
X233000D01*
X213500D02*
X221500D01*
X225000Y114800D02*
X233100D01*
X213500D02*
X221500D01*
X225000Y114700D02*
X233100D01*
X213500D02*
X221600D01*
X225100Y114600D02*
X233100D01*
X213500D02*
X221600D01*
X225100Y114500D02*
X233100D01*
X213600D02*
X221600D01*
X225100Y114400D02*
X233200D01*
X213600D02*
X221600D01*
X225100Y114300D02*
X233200D01*
X213600D02*
X221700D01*
X225200Y114200D02*
X233200D01*
X213600D02*
X221700D01*
X225200Y114100D02*
X233200D01*
X213700D02*
X221700D01*
X225200Y114000D02*
X233300D01*
X213700D02*
X221700D01*
X225200Y113900D02*
X233300D01*
X213700D02*
X221800D01*
X225300Y113800D02*
X233300D01*
X213700D02*
X221800D01*
X225300Y113700D02*
X233300D01*
X213800D02*
X221800D01*
X225300Y113600D02*
X233400D01*
X213800D02*
X221800D01*
X225300Y113500D02*
X233400D01*
X213800D02*
X221900D01*
X225400Y113400D02*
X233400D01*
X213800D02*
X221900D01*
X225400Y113300D02*
X233400D01*
X213900D02*
X221900D01*
X225400Y113200D02*
X233500D01*
X213900D02*
X221900D01*
X225400Y113100D02*
X233500D01*
X213900D02*
X222000D01*
X225500Y113000D02*
X233500D01*
X213900D02*
X222000D01*
X225500Y112900D02*
X233500D01*
X214000D02*
X222000D01*
X225500Y112800D02*
X233600D01*
X214000D02*
X222000D01*
X225500Y112700D02*
X233600D01*
X214000D02*
X222100D01*
X225600Y112600D02*
X233600D01*
X214000D02*
X222100D01*
X225600Y112500D02*
X233600D01*
X214100D02*
X222100D01*
X225600Y112400D02*
X233700D01*
X214100D02*
X222100D01*
X225700Y112300D02*
X233700D01*
X214100D02*
X222200D01*
X225700Y112200D02*
X233700D01*
X214100D02*
X222200D01*
X225700Y112100D02*
X233700D01*
X214200D02*
X222200D01*
X225700Y112000D02*
X233800D01*
X214200D02*
X222200D01*
X225800Y111900D02*
X233800D01*
X214200D02*
X222300D01*
X225800Y111800D02*
X233800D01*
X214200D02*
X222300D01*
X225800Y111700D02*
X233800D01*
X214300D02*
X222300D01*
X225800Y111600D02*
X233900D01*
X214300D02*
X222300D01*
X225900Y111500D02*
X233900D01*
X214300D02*
X222400D01*
X225900Y111400D02*
X233900D01*
X214300D02*
X222400D01*
X225900Y111300D02*
X233900D01*
X214400D02*
X222400D01*
X225900Y111200D02*
X234000D01*
X214400D02*
X222400D01*
X226000Y111100D02*
X234000D01*
X214400D02*
X222500D01*
X226000Y111000D02*
X234000D01*
X214400D02*
X222500D01*
X226000Y110900D02*
X234000D01*
X214500D02*
X222500D01*
X226000Y110800D02*
X234100D01*
X214500D02*
X222500D01*
X226100Y110700D02*
X234100D01*
X214500D02*
X222600D01*
X226100Y110600D02*
X234100D01*
X214500D02*
X222600D01*
X226100Y110500D02*
X234100D01*
X214600D02*
X222600D01*
X226100Y110400D02*
X234200D01*
X214600D02*
X222600D01*
X226200Y110300D02*
X234200D01*
X214600D02*
X222700D01*
X226200Y110200D02*
X234200D01*
X214600D02*
X222700D01*
X226200Y110100D02*
X234200D01*
X214700D02*
X222700D01*
X226200Y110000D02*
X234300D01*
X214700D02*
X222700D01*
X226300Y109900D02*
X234300D01*
X214700D02*
X222800D01*
X226300Y109800D02*
X234300D01*
X214700D02*
X222800D01*
X226300Y109700D02*
X234300D01*
X214800D02*
X222800D01*
X226300Y109600D02*
X234400D01*
X214800D02*
X222800D01*
X226400Y109500D02*
X234400D01*
X214800D02*
X222900D01*
X226400Y109400D02*
X234400D01*
X214800D02*
X222900D01*
X226400Y109300D02*
X234400D01*
X214900D02*
X222900D01*
X226400Y109200D02*
X234500D01*
X214900D02*
X222900D01*
X226500Y109100D02*
X234500D01*
X214900D02*
X223000D01*
X226500Y109000D02*
X234500D01*
X214900D02*
X223000D01*
X226500Y108900D02*
X234500D01*
X215000D02*
X223000D01*
X226500Y108800D02*
X234600D01*
X215000D02*
X223000D01*
X226600Y108700D02*
X234600D01*
X215000D02*
X223100D01*
X226600Y108600D02*
X234600D01*
X215000D02*
X223100D01*
X226600Y108500D02*
X234600D01*
X215100D02*
X223100D01*
X226600Y108400D02*
X234700D01*
X215100D02*
X223100D01*
X226700Y108300D02*
X234700D01*
X215100D02*
X223200D01*
X226700Y108200D02*
X234700D01*
X215100D02*
X223200D01*
X226700Y108100D02*
X234700D01*
X215200D02*
X223200D01*
X226700Y108000D02*
X234800D01*
X215200D02*
X223200D01*
X226800Y107900D02*
X234800D01*
X215200D02*
X223300D01*
X226800Y107800D02*
X234800D01*
X215200D02*
X223300D01*
X226800Y107700D02*
X234800D01*
X215300D02*
X223300D01*
X226800Y107600D02*
X234900D01*
X215300D02*
X223300D01*
X226900Y107500D02*
X234900D01*
X215300D02*
X223400D01*
X226900Y107400D02*
X234900D01*
X215300D02*
X223400D01*
X226900Y107300D02*
X234900D01*
X215400D02*
X223400D01*
X226900Y107200D02*
X235000D01*
X215400D02*
X223400D01*
X227000Y107100D02*
X235000D01*
X215400D02*
X223500D01*
X224000Y119100D02*
X232000D01*
X212400D02*
X220500D01*
X224000Y119000D02*
X232000D01*
X212400D02*
X220500D01*
X224000Y118900D02*
X232000D01*
X212500D02*
X220500D01*
X224000Y118800D02*
X232100D01*
X212500D02*
X220500D01*
X224000Y118700D02*
X232100D01*
X212500D02*
X220600D01*
X224100Y118600D02*
X232100D01*
X212500D02*
X220600D01*
X224100Y118500D02*
X232100D01*
X212600D02*
X220600D01*
X224100Y118400D02*
X232200D01*
X212600D02*
X220600D01*
X224100Y118300D02*
X232200D01*
X212600D02*
X220700D01*
X224200Y118200D02*
X232200D01*
X212600D02*
X220700D01*
X224200Y118100D02*
X232200D01*
X212700D02*
X220700D01*
X224200Y118000D02*
X232300D01*
X212700D02*
X220700D01*
X224200Y117900D02*
X232300D01*
X212700D02*
X220800D01*
X224300Y117800D02*
X232300D01*
X212700D02*
X220800D01*
X224300Y117700D02*
X232300D01*
X212800D02*
X220800D01*
X224300Y117600D02*
X232400D01*
X212800D02*
X220800D01*
X224300Y117500D02*
X232400D01*
X212800D02*
X220900D01*
X224400Y117400D02*
X232400D01*
X212800D02*
X220900D01*
X224400Y117300D02*
X232400D01*
X212900D02*
X220900D01*
X224400Y117200D02*
X232500D01*
X212900D02*
X220900D01*
X224400Y117100D02*
X232500D01*
X212900D02*
X221000D01*
X224500Y117000D02*
X232500D01*
X212900D02*
X221000D01*
X224500Y116900D02*
X232500D01*
X213000D02*
X221000D01*
X224500Y116800D02*
X232600D01*
X213000D02*
X221000D01*
X224500Y116700D02*
X232600D01*
X213000D02*
X221100D01*
X224600Y116600D02*
X232600D01*
X213000D02*
X221100D01*
X224600Y116500D02*
X232600D01*
X213100D02*
X221100D01*
X224600Y116400D02*
X232700D01*
X213100D02*
X221100D01*
X224600Y116300D02*
X232700D01*
X213100D02*
X221200D01*
X224700Y116200D02*
X232700D01*
X213100D02*
X221200D01*
X224700Y116100D02*
X232700D01*
X213200D02*
X221200D01*
X224700Y116000D02*
X232800D01*
X213200D02*
X221200D01*
X224700Y115900D02*
X232800D01*
X213200D02*
X221300D01*
X224800Y115800D02*
X232800D01*
X213200D02*
X221300D01*
X224800Y115700D02*
X232800D01*
X213300D02*
X221300D01*
X224800Y115600D02*
X232900D01*
X213300D02*
X221300D01*
X224800Y115500D02*
X232900D01*
X213300D02*
X221400D01*
X224900Y115400D02*
X232900D01*
X213300D02*
X221400D01*
X224900Y115300D02*
X232900D01*
X213400D02*
X221400D01*
X224900Y115200D02*
X233000D01*
X213400D02*
X221400D01*
X224900Y115100D02*
X233000D01*
X213400D02*
X221500D01*
X193100Y98900D02*
X201200D01*
X180700D02*
X188700D01*
X193200Y98800D02*
X201200D01*
X180700D02*
X188700D01*
X193200Y98700D02*
X201300D01*
X180700D02*
X188800D01*
X193200Y98600D02*
X201300D01*
X180800D02*
X188800D01*
X193200Y98500D02*
X201300D01*
X180800D02*
X188800D01*
X193300Y98400D02*
X201300D01*
X180800D02*
X188800D01*
X193300Y98300D02*
X201400D01*
X180800D02*
X188900D01*
X193300Y98200D02*
X201400D01*
X180900D02*
X188900D01*
X193300Y98100D02*
X201400D01*
X180900D02*
X188900D01*
X193400Y98000D02*
X201400D01*
X180900D02*
X188900D01*
X193400Y97900D02*
X201500D01*
X180900D02*
X189000D01*
X193400Y97800D02*
X201500D01*
X181000D02*
X189000D01*
X191100Y106900D02*
X199200D01*
X178700D02*
X186700D01*
X191200Y106800D02*
X199200D01*
X178700D02*
X186700D01*
X191200Y106700D02*
X199200D01*
X178700D02*
X186800D01*
X191200Y106600D02*
X199300D01*
X178700D02*
X186800D01*
X191200Y106500D02*
X199300D01*
X178800D02*
X186800D01*
X191300Y106400D02*
X199300D01*
X178800D02*
X186800D01*
X191300Y106300D02*
X199300D01*
X178800D02*
X186900D01*
X191300Y106200D02*
X199400D01*
X178800D02*
X186900D01*
X191300Y106100D02*
X199400D01*
X178900D02*
X186900D01*
X191400Y106000D02*
X199400D01*
X178900D02*
X186900D01*
X191400Y105900D02*
X199500D01*
X178900D02*
X187000D01*
X191400Y105800D02*
X199500D01*
X178900D02*
X187000D01*
X191400Y105700D02*
X199500D01*
X179000D02*
X187000D01*
X191500Y105600D02*
X199500D01*
X179000D02*
X187000D01*
X191500Y105500D02*
X199600D01*
X179000D02*
X187100D01*
X191500Y105400D02*
X199600D01*
X179000D02*
X187100D01*
X191500Y105300D02*
X199600D01*
X179100D02*
X187100D01*
X191600Y105200D02*
X199600D01*
X179100D02*
X187100D01*
X191600Y105100D02*
X199700D01*
X179100D02*
X187200D01*
X191600Y105000D02*
X199700D01*
X179100D02*
X187200D01*
X191600Y104900D02*
X199700D01*
X179200D02*
X187200D01*
X191700Y104800D02*
X199700D01*
X179200D02*
X187200D01*
X191700Y104700D02*
X199800D01*
X179200D02*
X187300D01*
X191700Y104600D02*
X199800D01*
X179200D02*
X187300D01*
X191700Y104500D02*
X199800D01*
X179300D02*
X187300D01*
X191800Y104400D02*
X199800D01*
X179300D02*
X187300D01*
X191800Y104300D02*
X199900D01*
X179300D02*
X187400D01*
X191800Y104200D02*
X199900D01*
X179300D02*
X187400D01*
X191800Y104100D02*
X199900D01*
X179400D02*
X187400D01*
X191900Y104000D02*
X199900D01*
X179400D02*
X187400D01*
X191900Y103900D02*
X200000D01*
X179400D02*
X187500D01*
X191900Y103800D02*
X200000D01*
X179400D02*
X187500D01*
X191900Y103700D02*
X200000D01*
X179500D02*
X187500D01*
X192000Y103600D02*
X200000D01*
X179500D02*
X187500D01*
X192000Y103500D02*
X200100D01*
X179500D02*
X187600D01*
X192000Y103400D02*
X200100D01*
X179500D02*
X187600D01*
X192000Y103300D02*
X200100D01*
X179600D02*
X187600D01*
X192100Y103200D02*
X200100D01*
X179600D02*
X187600D01*
X192100Y103100D02*
X200200D01*
X179600D02*
X187700D01*
X192100Y103000D02*
X200200D01*
X179600D02*
X187700D01*
X192100Y102900D02*
X200200D01*
X179700D02*
X187700D01*
X192200Y102800D02*
X200200D01*
X179700D02*
X187700D01*
X192200Y102700D02*
X200300D01*
X179700D02*
X187800D01*
X192200Y102600D02*
X200300D01*
X179700D02*
X187800D01*
X192200Y102500D02*
X200300D01*
X179800D02*
X187800D01*
X192300Y102400D02*
X200300D01*
X179800D02*
X187800D01*
X192300Y102300D02*
X200400D01*
X179800D02*
X187900D01*
X192300Y102200D02*
X200400D01*
X179900D02*
X187900D01*
X192300Y102100D02*
X200400D01*
X179900D02*
X187900D01*
X192400Y102000D02*
X200400D01*
X179900D02*
X187900D01*
X192400Y101900D02*
X200500D01*
X179900D02*
X188000D01*
X192400Y101800D02*
X200500D01*
X180000D02*
X188000D01*
X192400Y101700D02*
X200500D01*
X180000D02*
X188000D01*
X192500Y101600D02*
X200500D01*
X180000D02*
X188000D01*
X192500Y101500D02*
X200600D01*
X180000D02*
X188100D01*
X192500Y101400D02*
X200600D01*
X180100D02*
X188100D01*
X192500Y101300D02*
X200600D01*
X180100D02*
X188100D01*
X192600Y101200D02*
X200600D01*
X180100D02*
X188100D01*
X192600Y101100D02*
X200700D01*
X180100D02*
X188200D01*
X192600Y101000D02*
X200700D01*
X180200D02*
X188200D01*
X192600Y100900D02*
X200700D01*
X180200D02*
X188200D01*
X192700Y100800D02*
X200700D01*
X180200D02*
X188200D01*
X192700Y100700D02*
X200800D01*
X180200D02*
X188300D01*
X192700Y100600D02*
X200800D01*
X180300D02*
X188300D01*
X192700Y100500D02*
X200800D01*
X180300D02*
X188300D01*
X192800Y100400D02*
X200800D01*
X180300D02*
X188300D01*
X192800Y100300D02*
X200900D01*
X180300D02*
X188400D01*
X192800Y100200D02*
X200900D01*
X180400D02*
X188400D01*
X192800Y100100D02*
X200900D01*
X180400D02*
X188400D01*
X192900Y100000D02*
X200900D01*
X180400D02*
X188400D01*
X192900Y99900D02*
X201000D01*
X180400D02*
X188500D01*
X192900Y99800D02*
X201000D01*
X180500D02*
X188500D01*
X192900Y99700D02*
X201000D01*
X180500D02*
X188500D01*
X193000Y99600D02*
X201000D01*
X180500D02*
X188500D01*
X193000Y99500D02*
X201100D01*
X180500D02*
X188600D01*
X193000Y99400D02*
X201100D01*
X180600D02*
X188600D01*
X193000Y99300D02*
X201100D01*
X180600D02*
X188600D01*
X193100Y99200D02*
X201100D01*
X180600D02*
X188600D01*
X193100Y99100D02*
X201200D01*
X180600D02*
X188700D01*
X187300Y114300D02*
X197300D01*
X174800D02*
X186700D01*
X187900Y114200D02*
X197400D01*
X175400D02*
X186200D01*
X188200Y114100D02*
X197400D01*
X175700D02*
X186000D01*
X188400Y114000D02*
X197400D01*
X175900D02*
X185800D01*
X188600Y113900D02*
X197400D01*
X176100D02*
X185700D01*
X188700Y113800D02*
X197500D01*
X176200D02*
X185600D01*
X188800Y113700D02*
X197500D01*
X176400D02*
X185500D01*
X188900Y113600D02*
X197500D01*
X176500D02*
X185500D01*
X189100Y113500D02*
X197500D01*
X176600D02*
X185400D01*
X189100Y113400D02*
X197600D01*
X176700D02*
X185400D01*
X189200Y113300D02*
X197600D01*
X176700D02*
X185400D01*
X189300Y113200D02*
X197600D01*
X176800D02*
X185300D01*
X189400Y113100D02*
X197600D01*
X176900D02*
X185300D01*
X189400Y113000D02*
X197700D01*
X176900D02*
X185300D01*
X189500Y112900D02*
X197700D01*
X177000D02*
X185300D01*
X189500Y112800D02*
X197700D01*
X177100D02*
X185300D01*
X189600Y112700D02*
X197700D01*
X177100D02*
X185300D01*
X189600Y112600D02*
X197800D01*
X177200D02*
X185300D01*
X189700Y112500D02*
X197800D01*
X177200D02*
X185300D01*
X189700Y112400D02*
X197800D01*
X177200D02*
X185300D01*
X189800Y112300D02*
X197800D01*
X177300D02*
X185400D01*
X189800Y112200D02*
X197900D01*
X177300D02*
X185400D01*
X189800Y112100D02*
X197900D01*
X177400D02*
X185400D01*
X189800Y112000D02*
X197900D01*
X177400D02*
X185400D01*
X189900Y111900D02*
X197900D01*
X177400D02*
X185500D01*
X189900Y111800D02*
X198000D01*
X177400D02*
X185500D01*
X189900Y111700D02*
X198000D01*
X177500D02*
X185500D01*
X190000Y111600D02*
X198000D01*
X177500D02*
X185500D01*
X190000Y111500D02*
X198000D01*
X177500D02*
X185600D01*
X190000Y111400D02*
X198100D01*
X177500D02*
X185600D01*
X190000Y111300D02*
X198100D01*
X177600D02*
X185600D01*
X190100Y111200D02*
X198100D01*
X177600D02*
X185600D01*
X190100Y111100D02*
X198100D01*
X177600D02*
X185700D01*
X190100Y111000D02*
X198200D01*
X177600D02*
X185700D01*
X190100Y110900D02*
X198200D01*
X177700D02*
X185700D01*
X190200Y110800D02*
X198200D01*
X177700D02*
X185700D01*
X190200Y110700D02*
X198200D01*
X177700D02*
X185800D01*
X190200Y110600D02*
X198300D01*
X177700D02*
X185800D01*
X190200Y110500D02*
X198300D01*
X177800D02*
X185800D01*
X190300Y110400D02*
X198300D01*
X177800D02*
X185800D01*
X190300Y110300D02*
X198300D01*
X177800D02*
X185900D01*
X190300Y110200D02*
X198400D01*
X177800D02*
X185900D01*
X190300Y110100D02*
X198400D01*
X177900D02*
X185900D01*
X190400Y110000D02*
X198400D01*
X177900D02*
X185900D01*
X190400Y109900D02*
X198400D01*
X177900D02*
X186000D01*
X190400Y109800D02*
X198500D01*
X177900D02*
X186000D01*
X190400Y109700D02*
X198500D01*
X178000D02*
X186000D01*
X190500Y109600D02*
X198500D01*
X178000D02*
X186000D01*
X190500Y109500D02*
X198500D01*
X178000D02*
X186100D01*
X190500Y109400D02*
X198600D01*
X178000D02*
X186100D01*
X190500Y109300D02*
X198600D01*
X178100D02*
X186100D01*
X190600Y109200D02*
X198600D01*
X178100D02*
X186100D01*
X190600Y109100D02*
X198600D01*
X178100D02*
X186200D01*
X190600Y109000D02*
X198700D01*
X178100D02*
X186200D01*
X190600Y108900D02*
X198700D01*
X178200D02*
X186200D01*
X190700Y108800D02*
X198700D01*
X178200D02*
X186200D01*
X190700Y108700D02*
X198700D01*
X178200D02*
X186300D01*
X190700Y108600D02*
X198800D01*
X178200D02*
X186300D01*
X190700Y108500D02*
X198800D01*
X178300D02*
X186300D01*
X190800Y108400D02*
X198800D01*
X178300D02*
X186300D01*
X190800Y108300D02*
X198800D01*
X178300D02*
X186400D01*
X190800Y108200D02*
X198900D01*
X178300D02*
X186400D01*
X190800Y108100D02*
X198900D01*
X178400D02*
X186400D01*
X190900Y108000D02*
X198900D01*
X178400D02*
X186400D01*
X190900Y107900D02*
X198900D01*
X178400D02*
X186500D01*
X190900Y107800D02*
X199000D01*
X178400D02*
X186500D01*
X190900Y107700D02*
X199000D01*
X178500D02*
X186500D01*
X191000Y107600D02*
X199000D01*
X178500D02*
X186500D01*
X191000Y107500D02*
X199000D01*
X178500D02*
X186600D01*
X191000Y107400D02*
X199100D01*
X178500D02*
X186600D01*
X191000Y107300D02*
X199100D01*
X178600D02*
X186600D01*
X191100Y107200D02*
X199100D01*
X178600D02*
X186600D01*
X191100Y107100D02*
X199100D01*
X178600D02*
X186700D01*
X188000Y119100D02*
X196100D01*
X188000Y119000D02*
X196200D01*
X188100Y118900D02*
X196200D01*
X178000D02*
X185800D01*
X188100Y118800D02*
X196200D01*
X177900D02*
X186000D01*
X188100Y118700D02*
X196200D01*
X177700D02*
X186200D01*
X188100Y118600D02*
X196300D01*
X177600D02*
X186300D01*
X188200Y118500D02*
X196300D01*
X177500D02*
X186500D01*
X188200Y118400D02*
X196300D01*
X177400D02*
X186700D01*
X188200Y118300D02*
X196300D01*
X177300D02*
X186800D01*
X188200Y118200D02*
X196400D01*
X177300D02*
X187000D01*
X188300Y118100D02*
X196400D01*
X177200D02*
X187100D01*
X188300Y118000D02*
X196400D01*
X177100D02*
X187200D01*
X188300Y117900D02*
X196400D01*
X177000D02*
X187300D01*
X188300Y117800D02*
X196500D01*
X177000D02*
X187500D01*
X188400Y117700D02*
X196500D01*
X176900D02*
X187600D01*
X188400Y117600D02*
X196500D01*
X176900D02*
X187700D01*
X188400Y117500D02*
X196500D01*
X176800D02*
X187800D01*
X188400Y117400D02*
X196600D01*
X176800D02*
X187900D01*
X188500Y117300D02*
X196600D01*
X176700D02*
X188000D01*
X188500Y117200D02*
X196600D01*
X176700D02*
X188100D01*
X188500Y117100D02*
X196600D01*
X176700D02*
X188200D01*
X188500Y117000D02*
X196700D01*
X176600D02*
X188300D01*
X188500Y116900D02*
X196700D01*
X176600D02*
X188400D01*
X188600Y116800D02*
X196700D01*
X176600D02*
X188400D01*
X188600Y116700D02*
X196700D01*
X176600D02*
X188500D01*
X176500Y116600D02*
X196800D01*
X164300Y114200D02*
X173700D01*
X164300Y114100D02*
X173400D01*
X164300Y114000D02*
X173300D01*
X164400Y113900D02*
X173100D01*
X164400Y113800D02*
X173000D01*
X164400Y113700D02*
X173000D01*
X164400Y113600D02*
X172900D01*
X164500Y113500D02*
X172900D01*
X164500Y113400D02*
X172800D01*
X164500Y113300D02*
X172800D01*
X164500Y113200D02*
X172800D01*
X164600Y113100D02*
X172800D01*
X164600Y113000D02*
X172800D01*
X164600Y112900D02*
X172800D01*
X164600Y112800D02*
X172800D01*
X164700Y112700D02*
X172800D01*
X164700Y112600D02*
X172800D01*
X164700Y112500D02*
X172800D01*
X164700Y112400D02*
X172800D01*
X164800Y112300D02*
X172800D01*
X164800Y112200D02*
X172800D01*
X164800Y112100D02*
X172900D01*
X164800Y112000D02*
X172900D01*
X164900Y111900D02*
X172900D01*
X164900Y111800D02*
X172900D01*
X164900Y111700D02*
X173000D01*
X164900Y111600D02*
X173000D01*
X165000Y111500D02*
X173000D01*
X165000Y111400D02*
X173000D01*
X165000Y111300D02*
X173100D01*
X165000Y111200D02*
X173100D01*
X165100Y111100D02*
X173100D01*
X165100Y111000D02*
X173100D01*
X165100Y110900D02*
X173200D01*
X165100Y110800D02*
X173200D01*
X165200Y110700D02*
X173200D01*
X165200Y110600D02*
X173200D01*
X165200Y110500D02*
X173300D01*
X165200Y110400D02*
X173300D01*
X165300Y110300D02*
X173300D01*
X165300Y110200D02*
X173300D01*
X165300Y110100D02*
X173400D01*
X165300Y110000D02*
X173400D01*
X165400Y109900D02*
X173400D01*
X165400Y109800D02*
X173400D01*
X165400Y109700D02*
X173500D01*
X165400Y109600D02*
X173500D01*
X165500Y109500D02*
X173500D01*
X165500Y109400D02*
X173500D01*
X165500Y109300D02*
X173600D01*
X165500Y109200D02*
X173600D01*
X165600Y109100D02*
X173600D01*
X165600Y109000D02*
X173600D01*
X165600Y108900D02*
X173700D01*
X165600Y108800D02*
X173700D01*
X165700Y108700D02*
X173700D01*
X165700Y108600D02*
X173700D01*
X165700Y108500D02*
X173800D01*
X165700Y108400D02*
X173800D01*
X165800Y108300D02*
X173800D01*
X165800Y108200D02*
X173800D01*
X165800Y108100D02*
X173900D01*
X165800Y108000D02*
X173900D01*
X165900Y107900D02*
X173900D01*
X165900Y107800D02*
X173900D01*
X167900Y119600D02*
X170900D01*
X167300Y119500D02*
X171500D01*
X166900Y119400D02*
X171900D01*
X166600Y119300D02*
X172300D01*
X166300Y119200D02*
X172600D01*
X166000Y119100D02*
X172900D01*
X165800Y119000D02*
X173200D01*
X165600Y118900D02*
X173400D01*
X165500Y118800D02*
X173700D01*
X165300Y118700D02*
X173800D01*
X274900Y115000D02*
X282600D01*
X282100Y99000D02*
X291200D01*
X250800Y115000D02*
X258900D01*
X252900Y107000D02*
X260900D01*
X241100D02*
X249200D01*
X254900Y99000D02*
X262900D01*
X239800D02*
X250100D01*
X248800Y123000D02*
X256900D01*
X225000Y115000D02*
X233000D01*
X213400D02*
X221500D01*
X227000Y107000D02*
X235000D01*
X215400D02*
X223500D01*
X229000Y99000D02*
X237000D01*
X213900D02*
X224200D01*
X191100Y107000D02*
X199200D01*
X178600D02*
X186700D01*
X193100Y99000D02*
X201200D01*
X180700D02*
X188700D01*
X264800Y98900D02*
X274000D01*
X264800Y98800D02*
X274000D01*
X264800Y98700D02*
X274000D01*
X264800Y98600D02*
X274000D01*
X264800Y98500D02*
X274000D01*
X264800Y98400D02*
X274000D01*
X264800Y98300D02*
X274000D01*
X264800Y98200D02*
X274000D01*
X264800Y98100D02*
X274000D01*
X264800Y98000D02*
X274000D01*
X264800Y97900D02*
X274000D01*
X264800Y97800D02*
X274000D01*
X265100Y106900D02*
X287000D01*
X265100Y106800D02*
X287000D01*
X265100Y106700D02*
X287100D01*
X265100Y106600D02*
X287200D01*
X265100Y106500D02*
X287200D01*
X265100Y106400D02*
X287300D01*
X265100Y106300D02*
X287300D01*
X265100Y106200D02*
X287400D01*
X265100Y106100D02*
X287400D01*
X265100Y106000D02*
X287500D01*
X265100Y105900D02*
X287500D01*
X265100Y105800D02*
X287600D01*
X265100Y105700D02*
X287600D01*
X265100Y105600D02*
X287700D01*
X265100Y105500D02*
X287700D01*
X265100Y105400D02*
X287800D01*
X265100Y105300D02*
X287900D01*
X265100Y105200D02*
X287900D01*
X265000Y105100D02*
X288000D01*
X265000Y105000D02*
X288000D01*
X265000Y104900D02*
X288100D01*
X265000Y104800D02*
X288100D01*
X265000Y104700D02*
X288200D01*
X265000Y104600D02*
X288200D01*
X265000Y104500D02*
X288300D01*
X265000Y104400D02*
X288300D01*
X265000Y104300D02*
X288400D01*
X265000Y104200D02*
X288400D01*
X265000Y104100D02*
X288500D01*
X265000Y104000D02*
X288600D01*
X265000Y103900D02*
X288600D01*
X265000Y103800D02*
X288700D01*
X265000Y103700D02*
X288700D01*
X265000Y103600D02*
X288800D01*
X265000Y103500D02*
X288800D01*
X265000Y103400D02*
X288900D01*
X265000Y103300D02*
X288900D01*
X265000Y103200D02*
X289000D01*
X265000Y103100D02*
X289000D01*
X265000Y103000D02*
X289100D01*
X265000Y102900D02*
X289100D01*
X265000Y102800D02*
X289200D01*
X265000Y102700D02*
X289200D01*
X265000Y102600D02*
X273800D01*
X264900Y102500D02*
X273800D01*
X264900Y102400D02*
X273800D01*
X264900Y102300D02*
X273800D01*
X264900Y102200D02*
X273800D01*
X264900Y102100D02*
X273800D01*
X264900Y102000D02*
X273800D01*
X264900Y101900D02*
X273800D01*
X264900Y101800D02*
X273800D01*
X264900Y101700D02*
X273800D01*
X264900Y101600D02*
X273800D01*
X264900Y101500D02*
X273800D01*
X264900Y101400D02*
X273800D01*
X264900Y101300D02*
X273800D01*
X264900Y101200D02*
X273800D01*
X264900Y101100D02*
X273800D01*
X264900Y101000D02*
X273800D01*
X264900Y100900D02*
X273800D01*
X264900Y100800D02*
X273900D01*
X264900Y100700D02*
X273900D01*
X264900Y100600D02*
X273900D01*
X264900Y100500D02*
X273900D01*
X264900Y100400D02*
X273900D01*
X264900Y100300D02*
X273900D01*
X264900Y100200D02*
X273900D01*
X264900Y100100D02*
X273900D01*
X264900Y100000D02*
X273900D01*
X264900Y99900D02*
X273900D01*
X264800Y99800D02*
X273900D01*
X264800Y99700D02*
X273900D01*
X264800Y99600D02*
X273900D01*
X264800Y99500D02*
X273900D01*
X264800Y99400D02*
X273900D01*
X264800Y99300D02*
X273900D01*
X264800Y99200D02*
X273900D01*
X264800Y99100D02*
X273900D01*
X265400Y114900D02*
X273100D01*
X265400Y114800D02*
X273100D01*
X265400Y114700D02*
X273100D01*
X265400Y114600D02*
X273100D01*
X265400Y114500D02*
X273100D01*
X265400Y114400D02*
X273100D01*
X265400Y114300D02*
X273100D01*
X265400Y114200D02*
X273100D01*
X265400Y114100D02*
X273100D01*
X265400Y114000D02*
X273100D01*
X265400Y113900D02*
X273100D01*
X265400Y113800D02*
X273100D01*
X265400Y113700D02*
X273100D01*
X265400Y113600D02*
X273200D01*
X265400Y113500D02*
X273200D01*
X265400Y113400D02*
X273200D01*
X265400Y113300D02*
X273200D01*
X265400Y113200D02*
X273200D01*
X265300Y113100D02*
X273200D01*
X265300Y113000D02*
X273200D01*
X265300Y112900D02*
X273200D01*
X265300Y112800D02*
X273200D01*
X265300Y112700D02*
X273200D01*
X265300Y112600D02*
X273200D01*
X265300Y112500D02*
X273200D01*
X265300Y112400D02*
X273200D01*
X265300Y112300D02*
X273200D01*
X265300Y112200D02*
X273200D01*
X265300Y112100D02*
X273200D01*
X265300Y112000D02*
X273200D01*
X265300Y111900D02*
X273200D01*
X265300Y111800D02*
X273300D01*
X265300Y111700D02*
X273300D01*
X265300Y111600D02*
X273300D01*
X265300Y111500D02*
X273300D01*
X265300Y111400D02*
X273300D01*
X265300Y111300D02*
X273300D01*
X265300Y111200D02*
X273300D01*
X265300Y111100D02*
X273300D01*
X265300Y111000D02*
X273300D01*
X265300Y110900D02*
X273300D01*
X265300Y110800D02*
X273300D01*
X265300Y110700D02*
X273300D01*
X265300Y110600D02*
X273300D01*
X265300Y110500D02*
X273300D01*
X265200Y110400D02*
X273300D01*
X265200Y110300D02*
X273300D01*
X265200Y110200D02*
X273300D01*
X265200Y110100D02*
X273300D01*
X265200Y110000D02*
X273400D01*
X265200Y109900D02*
X273400D01*
X265200Y109800D02*
X273400D01*
X265200Y109700D02*
X273400D01*
X265200Y109600D02*
X273400D01*
X265200Y109500D02*
X273400D01*
X265200Y109400D02*
X273400D01*
X265200Y109300D02*
X273400D01*
X265200Y109200D02*
X273400D01*
X265200Y109100D02*
X273400D01*
X265200Y109000D02*
X273400D01*
X265200Y108900D02*
X273400D01*
X265200Y108800D02*
X273400D01*
X265200Y108700D02*
X273400D01*
X265200Y108600D02*
X273400D01*
X265200Y108500D02*
X273400D01*
X265200Y108400D02*
X273400D01*
X265200Y108300D02*
X273400D01*
X265200Y108200D02*
X273500D01*
X265200Y108100D02*
X286300D01*
X265200Y108000D02*
X286400D01*
X265200Y107900D02*
X286500D01*
X265100Y107800D02*
X286500D01*
X265100Y107700D02*
X286600D01*
X265100Y107600D02*
X286600D01*
X265100Y107500D02*
X286700D01*
X265100Y107400D02*
X286700D01*
X265100Y107300D02*
X286800D01*
X265100Y107200D02*
X286800D01*
X265100Y107100D02*
X286900D01*
X265700Y122900D02*
X277800D01*
X265700Y122800D02*
X277900D01*
X265700Y122700D02*
X278000D01*
X265700Y122600D02*
X278100D01*
X265700Y122500D02*
X278200D01*
X265700Y122400D02*
X278300D01*
X265700Y122300D02*
X278400D01*
X265700Y122200D02*
X278400D01*
X265700Y122100D02*
X278500D01*
X265700Y122000D02*
X278600D01*
X265700Y121900D02*
X278700D01*
X265700Y121800D02*
X278800D01*
X265700Y121700D02*
X278900D01*
X265700Y121600D02*
X278900D01*
X265700Y121500D02*
X279000D01*
X265700Y121400D02*
X279100D01*
X265700Y121300D02*
X279200D01*
X265700Y121200D02*
X279200D01*
X265700Y121100D02*
X279300D01*
X265600Y121000D02*
X279400D01*
X265600Y120900D02*
X279400D01*
X265600Y120800D02*
X279500D01*
X265600Y120700D02*
X279600D01*
X265600Y120600D02*
X279600D01*
X265600Y120500D02*
X279700D01*
X265600Y120400D02*
X279700D01*
X265600Y120300D02*
X279800D01*
X265600Y120200D02*
X279900D01*
X265600Y120100D02*
X279900D01*
X265600Y120000D02*
X280000D01*
X265600Y119900D02*
X280000D01*
X265600Y119800D02*
X280100D01*
X265600Y119700D02*
X280100D01*
X265600Y119600D02*
X280200D01*
X265600Y119500D02*
X280200D01*
X265600Y119400D02*
X272800D01*
X265600Y119300D02*
X272800D01*
X265600Y119200D02*
X272800D01*
X265600Y119100D02*
X272800D01*
X265600Y119000D02*
X272900D01*
X265600Y118900D02*
X272900D01*
X265600Y118800D02*
X272900D01*
X265600Y118700D02*
X272900D01*
X265600Y118600D02*
X272900D01*
X265600Y118500D02*
X272900D01*
X265500Y118400D02*
X272900D01*
X265500Y118300D02*
X272900D01*
X265500Y118200D02*
X272900D01*
X265500Y118100D02*
X272900D01*
X265500Y118000D02*
X272900D01*
X265500Y117900D02*
X272900D01*
X265500Y117800D02*
X272900D01*
X265500Y117700D02*
X272900D01*
X265500Y117600D02*
X272900D01*
X265500Y117500D02*
X272900D01*
X265500Y117400D02*
X272900D01*
X265500Y117300D02*
X272900D01*
X265500Y117200D02*
X273000D01*
X265500Y117100D02*
X273000D01*
X265500Y117000D02*
X273000D01*
X265500Y116900D02*
X273000D01*
X265500Y116800D02*
X273000D01*
X265500Y116700D02*
X273000D01*
X265500Y116600D02*
X273000D01*
X265500Y116500D02*
X273000D01*
X265500Y116400D02*
X273000D01*
X265500Y116300D02*
X273000D01*
X265500Y116200D02*
X273000D01*
X265500Y116100D02*
X273000D01*
X265500Y116000D02*
X273000D01*
X265500Y115900D02*
X273000D01*
X265500Y115800D02*
X273000D01*
X265400Y115700D02*
X273000D01*
X265400Y115600D02*
X273000D01*
X265400Y115500D02*
X273000D01*
X265400Y115400D02*
X273100D01*
X265400Y115300D02*
X273100D01*
X265400Y115200D02*
X273100D01*
X265400Y115100D02*
X273100D01*
X265800Y125900D02*
X270700D01*
X265800Y125800D02*
X271800D01*
X265800Y125700D02*
X272400D01*
X265800Y125600D02*
X272900D01*
X265800Y125500D02*
X273300D01*
X265800Y125400D02*
X273600D01*
X265800Y125300D02*
X273900D01*
X265800Y125200D02*
X274200D01*
X265800Y125100D02*
X274400D01*
X265800Y125000D02*
X274700D01*
X265800Y124900D02*
X274900D01*
X265800Y124800D02*
X275100D01*
X265800Y124700D02*
X275300D01*
X265800Y124600D02*
X275500D01*
X265800Y124500D02*
X275600D01*
X265800Y124400D02*
X275800D01*
X265800Y124300D02*
X276000D01*
X265800Y124200D02*
X276100D01*
X265800Y124100D02*
X276300D01*
X265800Y124000D02*
X276400D01*
X265800Y123900D02*
X276600D01*
X265800Y123800D02*
X276700D01*
X265700Y123700D02*
X276900D01*
X265700Y123600D02*
X277000D01*
X265700Y123500D02*
X277100D01*
X265700Y123400D02*
X277200D01*
X265700Y123300D02*
X277300D01*
X265700Y123200D02*
X277500D01*
X265700Y123100D02*
X277600D01*
X205000Y98900D02*
X213000D01*
X169400D02*
X176200D01*
X205000Y98800D02*
X213000D01*
X169500D02*
X176200D01*
X205000Y98700D02*
X213100D01*
X169700D02*
X176200D01*
X205100Y98600D02*
X213100D01*
X169800D02*
X176200D01*
X205100Y98500D02*
X213100D01*
X170000D02*
X176300D01*
X205100Y98400D02*
X213100D01*
X205100Y98300D02*
X213200D01*
X205200Y98200D02*
X213200D01*
X205200Y98100D02*
X213200D01*
X205200Y98000D02*
X213200D01*
X205200Y97900D02*
X213300D01*
X205300Y97800D02*
X213300D01*
X203000Y106900D02*
X211000D01*
X166100D02*
X174200D01*
X203000Y106800D02*
X211100D01*
X166100D02*
X174200D01*
X203000Y106700D02*
X211100D01*
X166200D02*
X174200D01*
X203100Y106600D02*
X211100D01*
X166200D02*
X174200D01*
X203100Y106500D02*
X211100D01*
X166200D02*
X174300D01*
X203100Y106400D02*
X211200D01*
X166200D02*
X174300D01*
X203100Y106300D02*
X211200D01*
X166300D02*
X174300D01*
X203200Y106200D02*
X211200D01*
X166300D02*
X174300D01*
X203200Y106100D02*
X211200D01*
X166300D02*
X174400D01*
X203200Y106000D02*
X211300D01*
X166300D02*
X174400D01*
X203200Y105900D02*
X211300D01*
X166400D02*
X174400D01*
X203300Y105800D02*
X211300D01*
X166400D02*
X174400D01*
X203300Y105700D02*
X211300D01*
X166400D02*
X174500D01*
X203300Y105600D02*
X211400D01*
X166400D02*
X174500D01*
X203300Y105500D02*
X211400D01*
X166500D02*
X174500D01*
X203400Y105400D02*
X211400D01*
X166500D02*
X174500D01*
X203400Y105300D02*
X211400D01*
X166500D02*
X174600D01*
X203400Y105200D02*
X211500D01*
X166500D02*
X174600D01*
X203400Y105100D02*
X211500D01*
X166600D02*
X174600D01*
X203500Y105000D02*
X211500D01*
X166600D02*
X174600D01*
X203500Y104900D02*
X211600D01*
X166600D02*
X174700D01*
X203500Y104800D02*
X211600D01*
X166600D02*
X174700D01*
X203500Y104700D02*
X211600D01*
X166700D02*
X174700D01*
X203600Y104600D02*
X211600D01*
X166700D02*
X174700D01*
X203600Y104500D02*
X211700D01*
X166700D02*
X174800D01*
X203600Y104400D02*
X211700D01*
X166700D02*
X174800D01*
X203600Y104300D02*
X211800D01*
X166800D02*
X174800D01*
X203700Y104200D02*
X211800D01*
X166800D02*
X174800D01*
X203700Y104100D02*
X211900D01*
X166800D02*
X174900D01*
X203700Y104000D02*
X211900D01*
X166800D02*
X174900D01*
X203700Y103900D02*
X212000D01*
X166900D02*
X174900D01*
X203800Y103800D02*
X212000D01*
X166900D02*
X174900D01*
X203800Y103700D02*
X212100D01*
X166900D02*
X175000D01*
X203800Y103600D02*
X212200D01*
X166900D02*
X175000D01*
X203800Y103500D02*
X212200D01*
X167000D02*
X175000D01*
X203900Y103400D02*
X212300D01*
X167000D02*
X175000D01*
X203900Y103300D02*
X212400D01*
X167000D02*
X175100D01*
X203900Y103200D02*
X212500D01*
X167000D02*
X175100D01*
X203900Y103100D02*
X212700D01*
X167100D02*
X175100D01*
X204000Y103000D02*
X212800D01*
X167100D02*
X175100D01*
X204000Y102900D02*
X212900D01*
X167100D02*
X175200D01*
X204000Y102800D02*
X213100D01*
X167100D02*
X175200D01*
X204000Y102700D02*
X213400D01*
X167200D02*
X175200D01*
X204100Y102600D02*
X213800D01*
X167200D02*
X175200D01*
X204100Y102500D02*
X224600D01*
X167200D02*
X175300D01*
X204100Y102400D02*
X224600D01*
X167200D02*
X175300D01*
X204100Y102300D02*
X224600D01*
X167300D02*
X175300D01*
X204200Y102200D02*
X224600D01*
X167300D02*
X175300D01*
X204200Y102100D02*
X224700D01*
X167300D02*
X175400D01*
X204200Y102000D02*
X224700D01*
X167300D02*
X175400D01*
X204200Y101900D02*
X224700D01*
X167400D02*
X175400D01*
X204300Y101800D02*
X224700D01*
X167400D02*
X175400D01*
X204300Y101700D02*
X224700D01*
X167400D02*
X175500D01*
X204300Y101600D02*
X224700D01*
X167500D02*
X175500D01*
X204300Y101500D02*
X224700D01*
X167500D02*
X175500D01*
X204400Y101400D02*
X224700D01*
X167500D02*
X175500D01*
X204400Y101300D02*
X224700D01*
X167500D02*
X175600D01*
X204400Y101200D02*
X224700D01*
X167600D02*
X175600D01*
X204400Y101100D02*
X224700D01*
X167600D02*
X175600D01*
X204500Y101000D02*
X224700D01*
X167700D02*
X175600D01*
X204500Y100900D02*
X224700D01*
X167700D02*
X175700D01*
X204500Y100800D02*
X224700D01*
X167700D02*
X175700D01*
X204500Y100700D02*
X224700D01*
X167800D02*
X175700D01*
X204600Y100600D02*
X224700D01*
X167900D02*
X175700D01*
X204600Y100500D02*
X224700D01*
X167900D02*
X175800D01*
X204600Y100400D02*
X224700D01*
X168000D02*
X175800D01*
X204600Y100300D02*
X224700D01*
X168000D02*
X175800D01*
X204700Y100200D02*
X224700D01*
X168100D02*
X175800D01*
X204700Y100100D02*
X212700D01*
X168200D02*
X175900D01*
X204700Y100000D02*
X212800D01*
X168200D02*
X175900D01*
X204700Y99900D02*
X212800D01*
X168300D02*
X175900D01*
X204800Y99800D02*
X212800D01*
X168400D02*
X175900D01*
X204800Y99700D02*
X212800D01*
X168500D02*
X176000D01*
X204800Y99600D02*
X212800D01*
X168600D02*
X176000D01*
X204800Y99500D02*
X212900D01*
X168700D02*
X176000D01*
X204900Y99400D02*
X212900D01*
X168800D02*
X176000D01*
X204900Y99300D02*
X212900D01*
X168900D02*
X176100D01*
X204900Y99200D02*
X212900D01*
X169000D02*
X176100D01*
X204900Y99100D02*
X213000D01*
X169100D02*
X176100D01*
X235900Y114900D02*
X247200D01*
X201000D02*
X209000D01*
X164200D02*
X197200D01*
X235900Y114800D02*
X247200D01*
X201000D02*
X209100D01*
X164200D02*
X197200D01*
X235900Y114700D02*
X247200D01*
X201000D02*
X209100D01*
X164200D02*
X197200D01*
X235900Y114600D02*
X247300D01*
X201100D02*
X209100D01*
X164200D02*
X197300D01*
X236000Y114500D02*
X247300D01*
X201100D02*
X209100D01*
X164200D02*
X197300D01*
X236000Y114400D02*
X247300D01*
X201100D02*
X209200D01*
X164300D02*
X197300D01*
X236000Y114300D02*
X247300D01*
X201100D02*
X209200D01*
X164300D02*
X174200D01*
X201200Y114200D02*
X209200D01*
X201200Y114100D02*
X209200D01*
X201200Y114000D02*
X209300D01*
X201200Y113900D02*
X209300D01*
X201300Y113800D02*
X209300D01*
X201300Y113700D02*
X209300D01*
X201300Y113600D02*
X209400D01*
X201300Y113500D02*
X209400D01*
X201400Y113400D02*
X209400D01*
X201400Y113300D02*
X209400D01*
X201400Y113200D02*
X209500D01*
X201400Y113100D02*
X209500D01*
X201500Y113000D02*
X209500D01*
X201500Y112900D02*
X209500D01*
X201500Y112800D02*
X209600D01*
X201500Y112700D02*
X209600D01*
X201600Y112600D02*
X209600D01*
X201600Y112500D02*
X209600D01*
X201600Y112400D02*
X209700D01*
X201600Y112300D02*
X209700D01*
X201700Y112200D02*
X209700D01*
X201700Y112100D02*
X209700D01*
X201700Y112000D02*
X209800D01*
X201700Y111900D02*
X209800D01*
X201800Y111800D02*
X209800D01*
X201800Y111700D02*
X209800D01*
X201800Y111600D02*
X209900D01*
X201800Y111500D02*
X209900D01*
X201900Y111400D02*
X209900D01*
X201900Y111300D02*
X209900D01*
X201900Y111200D02*
X210000D01*
X201900Y111100D02*
X210000D01*
X202000Y111000D02*
X210000D01*
X202000Y110900D02*
X210000D01*
X202000Y110800D02*
X210100D01*
X202000Y110700D02*
X210100D01*
X202100Y110600D02*
X210100D01*
X202100Y110500D02*
X210100D01*
X202100Y110400D02*
X210200D01*
X202100Y110300D02*
X210200D01*
X202200Y110200D02*
X210200D01*
X202200Y110100D02*
X210200D01*
X202200Y110000D02*
X210300D01*
X202200Y109900D02*
X210300D01*
X202300Y109800D02*
X210300D01*
X202300Y109700D02*
X210300D01*
X202300Y109600D02*
X210400D01*
X202300Y109500D02*
X210400D01*
X202400Y109400D02*
X210400D01*
X202400Y109300D02*
X210400D01*
X202400Y109200D02*
X210500D01*
X202400Y109100D02*
X210500D01*
X202500Y109000D02*
X210500D01*
X202500Y108900D02*
X210500D01*
X202500Y108800D02*
X210600D01*
X202500Y108700D02*
X210600D01*
X202600Y108600D02*
X210600D01*
X202600Y108500D02*
X210600D01*
X202600Y108400D02*
X210700D01*
X202600Y108300D02*
X210700D01*
X202700Y108200D02*
X210700D01*
X202700Y108100D02*
X210700D01*
X202700Y108000D02*
X210800D01*
X202700Y107900D02*
X210800D01*
X202800Y107800D02*
X210800D01*
X202800Y107700D02*
X210800D01*
X165900D02*
X174000D01*
X202800Y107600D02*
X210900D01*
X165900D02*
X174000D01*
X202800Y107500D02*
X210900D01*
X166000D02*
X174000D01*
X202900Y107400D02*
X210900D01*
X166000D02*
X174000D01*
X202900Y107300D02*
X210900D01*
X166000D02*
X174100D01*
X202900Y107200D02*
X211000D01*
X166000D02*
X174100D01*
X202900Y107100D02*
X211000D01*
X166100D02*
X174100D01*
X237100Y122900D02*
X245200D01*
X237200Y122800D02*
X245200D01*
X237200Y122700D02*
X245200D01*
X237200Y122600D02*
X245200D01*
X237200Y122500D02*
X245300D01*
X237300Y122400D02*
X245300D01*
X237300Y122300D02*
X245300D01*
X237300Y122200D02*
X245300D01*
X237300Y122100D02*
X245400D01*
X237400Y122000D02*
X245400D01*
X237400Y121900D02*
X245400D01*
X237400Y121800D02*
X245400D01*
X237400Y121700D02*
X245500D01*
X237500Y121600D02*
X245500D01*
X237500Y121500D02*
X245500D01*
X237500Y121400D02*
X245500D01*
X237500Y121300D02*
X245600D01*
X237600Y121200D02*
X245600D01*
X237600Y121100D02*
X245600D01*
X237600Y121000D02*
X245600D01*
X237600Y120900D02*
X245700D01*
X237700Y120800D02*
X245700D01*
X237700Y120700D02*
X245700D01*
X237700Y120600D02*
X245700D01*
X237700Y120500D02*
X245800D01*
X237800Y120400D02*
X245800D01*
X237800Y120300D02*
X245800D01*
X237800Y120200D02*
X245800D01*
X237800Y120100D02*
X245900D01*
X237900Y120000D02*
X245900D01*
X237900Y119900D02*
X245900D01*
X237900Y119800D02*
X245900D01*
X238000Y119700D02*
X246000D01*
X238000Y119600D02*
X246000D01*
X238000Y119500D02*
X246000D01*
X238000Y119400D02*
X246000D01*
X234800Y119100D02*
X246100D01*
X200000D02*
X208000D01*
X234800Y119000D02*
X246100D01*
X200000D02*
X208000D01*
X234900Y118900D02*
X246200D01*
X200000D02*
X208000D01*
X234900Y118800D02*
X246200D01*
X200000D02*
X208100D01*
X234900Y118700D02*
X246200D01*
X200000D02*
X208100D01*
X234900Y118600D02*
X246200D01*
X200100D02*
X208100D01*
X165200D02*
X174000D01*
X235000Y118500D02*
X246300D01*
X200100D02*
X208100D01*
X165000D02*
X174200D01*
X235000Y118400D02*
X246300D01*
X200100D02*
X208200D01*
X164900D02*
X174400D01*
X235000Y118300D02*
X246300D01*
X200100D02*
X208200D01*
X164800D02*
X174500D01*
X235000Y118200D02*
X246400D01*
X200200D02*
X208200D01*
X164800D02*
X174700D01*
X235100Y118100D02*
X246400D01*
X200200D02*
X208200D01*
X164700D02*
X174800D01*
X235100Y118000D02*
X246400D01*
X200200D02*
X208300D01*
X164600D02*
X175000D01*
X235100Y117900D02*
X246400D01*
X200200D02*
X208300D01*
X164600D02*
X175100D01*
X235100Y117800D02*
X246500D01*
X200300D02*
X208300D01*
X164500D02*
X175200D01*
X235200Y117700D02*
X246500D01*
X200300D02*
X208300D01*
X164400D02*
X175300D01*
X235200Y117600D02*
X246500D01*
X200300D02*
X208400D01*
X164400D02*
X175500D01*
X235200Y117500D02*
X246500D01*
X200300D02*
X208400D01*
X164400D02*
X175600D01*
X235200Y117400D02*
X246600D01*
X200400D02*
X208400D01*
X164300D02*
X175700D01*
X235300Y117300D02*
X246600D01*
X200400D02*
X208400D01*
X164300D02*
X175800D01*
X235300Y117200D02*
X246600D01*
X200400D02*
X208500D01*
X164300D02*
X175900D01*
X235300Y117100D02*
X246600D01*
X200400D02*
X208500D01*
X164200D02*
X176000D01*
X235300Y117000D02*
X246700D01*
X200500D02*
X208500D01*
X164200D02*
X176100D01*
X235400Y116900D02*
X246700D01*
X200500D02*
X208500D01*
X164200D02*
X176200D01*
X235400Y116800D02*
X246700D01*
X200500D02*
X208600D01*
X164200D02*
X176300D01*
X235400Y116700D02*
X246700D01*
X200500D02*
X208600D01*
X164200D02*
X176400D01*
X235400Y116600D02*
X246800D01*
X200600D02*
X208600D01*
X164100D02*
X176400D01*
X235500Y116500D02*
X246800D01*
X200600D02*
X208600D01*
X164100D02*
X196800D01*
X235500Y116400D02*
X246800D01*
X200600D02*
X208700D01*
X164100D02*
X196800D01*
X235500Y116300D02*
X246800D01*
X200600D02*
X208700D01*
X164100D02*
X196800D01*
X235500Y116200D02*
X246900D01*
X200700D02*
X208700D01*
X164100D02*
X196900D01*
X235600Y116100D02*
X246900D01*
X200700D02*
X208700D01*
X164100D02*
X196900D01*
X235600Y116000D02*
X246900D01*
X200700D02*
X208800D01*
X164100D02*
X196900D01*
X235600Y115900D02*
X246900D01*
X200700D02*
X208800D01*
X164100D02*
X196900D01*
X235600Y115800D02*
X247000D01*
X200800D02*
X208800D01*
X164100D02*
X197000D01*
X235700Y115700D02*
X247000D01*
X200800D02*
X208800D01*
X164100D02*
X197000D01*
X235700Y115600D02*
X247000D01*
X200800D02*
X208900D01*
X164100D02*
X197000D01*
X235700Y115500D02*
X247000D01*
X200800D02*
X208900D01*
X164100D02*
X197000D01*
X235700Y115400D02*
X247100D01*
X200900D02*
X208900D01*
X164100D02*
X197100D01*
X235800Y115300D02*
X247100D01*
X200900D02*
X208900D01*
X164100D02*
X197100D01*
X235800Y115200D02*
X247100D01*
X200900D02*
X209000D01*
X164100D02*
X197100D01*
X235800Y115100D02*
X247100D01*
X200900D02*
X209000D01*
X164200D02*
X197100D01*
X236400Y125600D02*
X244500D01*
X236500Y125500D02*
X244500D01*
X236500Y125400D02*
X244500D01*
X236500Y125300D02*
X244600D01*
X236500Y125200D02*
X244600D01*
X236600Y125100D02*
X244600D01*
X236600Y125000D02*
X244600D01*
X236600Y124900D02*
X244700D01*
X236600Y124800D02*
X244700D01*
X236700Y124700D02*
X244700D01*
X236700Y124600D02*
X244700D01*
X236700Y124500D02*
X244800D01*
X236700Y124400D02*
X244800D01*
X236800Y124300D02*
X244800D01*
X236800Y124200D02*
X244800D01*
X236800Y124100D02*
X244900D01*
X236800Y124000D02*
X244900D01*
X236900Y123900D02*
X244900D01*
X236900Y123800D02*
X244900D01*
X236900Y123700D02*
X245000D01*
X236900Y123600D02*
X245000D01*
X237000Y123500D02*
X245000D01*
X237000Y123400D02*
X245000D01*
X237000Y123300D02*
X245100D01*
X237000Y123200D02*
X245100D01*
X237100Y123100D02*
X245100D01*
X265400Y115000D02*
X273100D01*
X265100Y107000D02*
X286900D01*
X264800Y99000D02*
X274000D01*
X265700Y123000D02*
X277700D01*
X235800Y115000D02*
X247200D01*
X201000D02*
X209000D01*
X164200D02*
X197200D01*
X203000Y107000D02*
X211000D01*
X166100D02*
X174100D01*
X205000Y99000D02*
X213000D01*
X169200D02*
X176100D01*
X237100Y123000D02*
X245100D01*
X166200Y78000D02*
X290700D01*
X166200Y77900D02*
X290700D01*
X166200Y77800D02*
X290700D01*
X166200Y77700D02*
X290700D01*
X166200Y77600D02*
X290700D01*
X166200Y77500D02*
X290700D01*
X166200Y77400D02*
X290700D01*
X166200Y77300D02*
X290700D01*
X166200Y77200D02*
X290700D01*
X166200Y77100D02*
X290700D01*
X166200Y77000D02*
X290700D01*
X166200Y76900D02*
X290700D01*
X166200Y76800D02*
X290700D01*
X166200Y76700D02*
X290700D01*
X166200Y76600D02*
X290700D01*
X166200Y76500D02*
X290700D01*
X166200Y76400D02*
X290700D01*
X166200Y76300D02*
X290700D01*
X166200Y76200D02*
X290700D01*
X166200Y76100D02*
X290700D01*
X166200Y76000D02*
X290700D01*
X166200Y75900D02*
X290700D01*
X166200Y75800D02*
X290700D01*
X166200Y75700D02*
X290700D01*
X166200Y75600D02*
X290700D01*
X166200Y75500D02*
X290700D01*
X166200Y75400D02*
X290700D01*
X283800Y75300D02*
X290700D01*
X259000D02*
X270400D01*
X245400D02*
X254800D01*
X220800D02*
X231000D01*
X206400D02*
X208800D01*
X184600D02*
X190600D01*
X166200D02*
X172800D01*
X283800Y75200D02*
X290700D01*
X259000D02*
X270400D01*
X245400D02*
X254800D01*
X220800D02*
X231000D01*
X206400D02*
X208800D01*
X184600D02*
X190600D01*
X166200D02*
X172800D01*
X283800Y75100D02*
X290700D01*
X259200D02*
X269600D01*
X245400D02*
X254600D01*
X221800D02*
X230200D01*
X206400D02*
X208800D01*
X185400D02*
X190600D01*
X166200D02*
X172000D01*
X283800Y75000D02*
X290700D01*
X259200D02*
X269600D01*
X245400D02*
X254600D01*
X221800D02*
X230200D01*
X206400D02*
X208800D01*
X185400D02*
X190600D01*
X166200D02*
X172000D01*
X283800Y74900D02*
X290700D01*
X259200D02*
X269200D01*
X245400D02*
X254600D01*
X222400D02*
X229800D01*
X206400D02*
X208800D01*
X185800D02*
X190600D01*
X166200D02*
X171600D01*
X283800Y74800D02*
X290700D01*
X259200D02*
X269200D01*
X245400D02*
X254600D01*
X222400D02*
X229800D01*
X206400D02*
X208800D01*
X185800D02*
X190600D01*
X166200D02*
X171600D01*
X283800Y74700D02*
X290700D01*
X259400D02*
X268800D01*
X245400D02*
X254400D01*
X222800D02*
X229400D01*
X206400D02*
X208800D01*
X186200D02*
X190600D01*
X166200D02*
X171200D01*
X283800Y74600D02*
X290700D01*
X259400D02*
X268800D01*
X245400D02*
X254400D01*
X222800D02*
X229400D01*
X206400D02*
X208800D01*
X186200D02*
X190600D01*
X166200D02*
X171200D01*
X283800Y74500D02*
X290700D01*
X259400D02*
X268600D01*
X245400D02*
X254400D01*
X223200D02*
X229200D01*
X206400D02*
X208800D01*
X186400D02*
X190600D01*
X166200D02*
X171000D01*
X283800Y74400D02*
X290700D01*
X259400D02*
X268600D01*
X245400D02*
X254400D01*
X223200D02*
X229200D01*
X206400D02*
X208800D01*
X186400D02*
X190600D01*
X166200D02*
X171000D01*
X283800Y74300D02*
X290700D01*
X259600D02*
X268200D01*
X245400D02*
X254200D01*
X223600D02*
X228800D01*
X206400D02*
X208800D01*
X186800D02*
X190600D01*
X166200D02*
X170600D01*
X283800Y74200D02*
X290700D01*
X259600D02*
X268200D01*
X245400D02*
X254200D01*
X223600D02*
X228800D01*
X206400D02*
X208800D01*
X186800D02*
X190600D01*
X166200D02*
X170600D01*
X283800Y74100D02*
X290700D01*
X259600D02*
X268000D01*
X245400D02*
X254200D01*
X223800D02*
X228600D01*
X206400D02*
X208800D01*
X187000D02*
X190600D01*
X166200D02*
X170400D01*
X283800Y74000D02*
X290700D01*
X259600D02*
X268000D01*
X245400D02*
X254200D01*
X223800D02*
X228600D01*
X206400D02*
X208800D01*
X187000D02*
X190600D01*
X166200D02*
X170400D01*
X283800Y73900D02*
X290700D01*
X259800D02*
X267800D01*
X245400D02*
X254000D01*
X224000D02*
X228400D01*
X206400D02*
X208800D01*
X187200D02*
X190600D01*
X166200D02*
X170400D01*
X283800Y73800D02*
X290700D01*
X259800D02*
X267800D01*
X245400D02*
X254000D01*
X224000D02*
X228400D01*
X206400D02*
X208800D01*
X187200D02*
X190600D01*
X166200D02*
X170400D01*
X283800Y73700D02*
X290700D01*
X259800D02*
X267600D01*
X245400D02*
X254000D01*
X224200D02*
X228200D01*
X206400D02*
X208800D01*
X187400D02*
X190600D01*
X166200D02*
X170200D01*
X283800Y73600D02*
X290700D01*
X259800D02*
X267600D01*
X245400D02*
X254000D01*
X224200D02*
X228200D01*
X206400D02*
X208800D01*
X187400D02*
X190600D01*
X166200D02*
X170200D01*
X283800Y73500D02*
X290700D01*
X260000D02*
X267600D01*
X245400D02*
X253800D01*
X224400D02*
X228200D01*
X206400D02*
X208800D01*
X187600D02*
X190600D01*
X166200D02*
X170000D01*
X283800Y73400D02*
X290700D01*
X260000D02*
X267600D01*
X245400D02*
X253800D01*
X224400D02*
X228200D01*
X206400D02*
X208800D01*
X187600D02*
X190600D01*
X166200D02*
X170000D01*
X283800Y73300D02*
X290700D01*
X260000D02*
X267400D01*
X245400D02*
X253800D01*
X224600D02*
X228000D01*
X206400D02*
X208800D01*
X187600D02*
X190600D01*
X166200D02*
X170000D01*
X283800Y73200D02*
X290700D01*
X260000D02*
X267400D01*
X245400D02*
X253800D01*
X224600D02*
X228000D01*
X206400D02*
X208800D01*
X187600D02*
X190600D01*
X166200D02*
X170000D01*
X283800Y73100D02*
X290700D01*
X260200D02*
X267200D01*
X245400D02*
X253600D01*
X224600D02*
X227800D01*
X206400D02*
X208800D01*
X187800D02*
X190600D01*
X166200D02*
X170000D01*
X283800Y73000D02*
X290700D01*
X260200D02*
X267200D01*
X245400D02*
X253600D01*
X224600D02*
X227800D01*
X206400D02*
X208800D01*
X187800D02*
X190600D01*
X166200D02*
X170000D01*
X283800Y72900D02*
X290700D01*
X260200D02*
X267200D01*
X245400D02*
X253400D01*
X224800D02*
X227600D01*
X206400D02*
X208800D01*
X188000D02*
X190600D01*
X166200D02*
X169800D01*
X283800Y72800D02*
X290700D01*
X260200D02*
X267200D01*
X245400D02*
X253400D01*
X224800D02*
X227600D01*
X206400D02*
X208800D01*
X188000D02*
X190600D01*
X166200D02*
X169800D01*
X283800Y72700D02*
X290700D01*
X260400D02*
X267000D01*
X256800D02*
X257000D01*
X245400D02*
X253400D01*
X225000D02*
X227600D01*
X206400D02*
X208800D01*
X188000D02*
X190600D01*
X166200D02*
X169800D01*
X283800Y72600D02*
X290700D01*
X260400D02*
X267000D01*
X256800D02*
X257000D01*
X245400D02*
X253400D01*
X225000D02*
X227600D01*
X206400D02*
X208800D01*
X188000D02*
X190600D01*
X166200D02*
X169800D01*
X283800Y72500D02*
X290700D01*
X260400D02*
X267000D01*
X256600D02*
X257000D01*
X245400D02*
X253200D01*
X225000D02*
X227400D01*
X206400D02*
X208800D01*
X188200D02*
X190600D01*
X166200D02*
X169800D01*
X283800Y72400D02*
X290700D01*
X260400D02*
X267000D01*
X256600D02*
X257000D01*
X245400D02*
X253200D01*
X225000D02*
X227400D01*
X206400D02*
X208800D01*
X188200D02*
X190600D01*
X166200D02*
X169800D01*
X283800Y72300D02*
X290700D01*
X260600D02*
X266800D01*
X256600D02*
X257200D01*
X245400D02*
X253200D01*
X225200D02*
X227400D01*
X206400D02*
X208800D01*
X188200D02*
X190600D01*
X166200D02*
X169800D01*
X283800Y72200D02*
X290700D01*
X260600D02*
X266800D01*
X256600D02*
X257200D01*
X245400D02*
X253200D01*
X225200D02*
X227400D01*
X206400D02*
X208800D01*
X188200D02*
X190600D01*
X166200D02*
X169800D01*
X283800Y72100D02*
X290700D01*
X260800D02*
X266800D01*
X256400D02*
X257200D01*
X245400D02*
X253000D01*
X225200D02*
X227400D01*
X206400D02*
X208800D01*
X188200D02*
X190600D01*
X166200D02*
X169800D01*
X283800Y72000D02*
X290700D01*
X260800D02*
X266800D01*
X256400D02*
X257200D01*
X245400D02*
X253000D01*
X225200D02*
X227400D01*
X206400D02*
X208800D01*
X188200D02*
X190600D01*
X166200D02*
X169800D01*
X283800Y71900D02*
X290700D01*
X270600D02*
X280600D01*
X260800D02*
X266600D01*
X256400D02*
X257400D01*
X245400D02*
X253000D01*
X231200D02*
X242000D01*
X225200D02*
X227200D01*
X206400D02*
X221000D01*
X188400D02*
X203000D01*
X166200D02*
X184400D01*
X283800Y71800D02*
X290700D01*
X270600D02*
X280600D01*
X260800D02*
X266600D01*
X256400D02*
X257400D01*
X245400D02*
X253000D01*
X231200D02*
X242000D01*
X225200D02*
X227200D01*
X206400D02*
X221000D01*
X188400D02*
X203000D01*
X166200D02*
X184400D01*
X283800Y71700D02*
X290700D01*
X270400D02*
X280600D01*
X261000D02*
X266600D01*
X256200D02*
X257400D01*
X245400D02*
X252800D01*
X231000D02*
X242000D01*
X225400D02*
X227200D01*
X206400D02*
X221400D01*
X188400D02*
X203000D01*
X166200D02*
X184600D01*
X283800Y71600D02*
X290700D01*
X270400D02*
X280600D01*
X261000D02*
X266600D01*
X256200D02*
X257400D01*
X245400D02*
X252800D01*
X231000D02*
X242000D01*
X225400D02*
X227200D01*
X206400D02*
X221400D01*
X188400D02*
X203000D01*
X166200D02*
X184600D01*
X283800Y71500D02*
X290700D01*
X270200D02*
X280600D01*
X261000D02*
X266600D01*
X256200D02*
X257600D01*
X245400D02*
X252800D01*
X230800D02*
X242000D01*
X225400D02*
X227200D01*
X206400D02*
X221800D01*
X188400D02*
X203000D01*
X166200D02*
X184800D01*
X283800Y71400D02*
X290700D01*
X270200D02*
X280600D01*
X261000D02*
X266600D01*
X256200D02*
X257600D01*
X245400D02*
X252800D01*
X230800D02*
X242000D01*
X225400D02*
X227200D01*
X206400D02*
X221800D01*
X188400D02*
X203000D01*
X166200D02*
X184800D01*
X283800Y71300D02*
X290700D01*
X270000D02*
X280600D01*
X261200D02*
X266600D01*
X256000D02*
X257600D01*
X245400D02*
X252600D01*
X230600D02*
X242000D01*
X225400D02*
X227200D01*
X206400D02*
X221800D01*
X188400D02*
X203000D01*
X166200D02*
X185000D01*
X283800Y71200D02*
X290700D01*
X270000D02*
X280600D01*
X261200D02*
X266600D01*
X256000D02*
X257600D01*
X245400D02*
X252600D01*
X230600D02*
X242000D01*
X225400D02*
X227200D01*
X206400D02*
X221800D01*
X188400D02*
X203000D01*
X166200D02*
X185000D01*
X283800Y71100D02*
X290700D01*
X270000D02*
X280600D01*
X261200D02*
X266600D01*
X256000D02*
X257800D01*
X245400D02*
X252600D01*
X230600D02*
X242000D01*
X225400D02*
X227200D01*
X206400D02*
X222000D01*
X188400D02*
X203000D01*
X166200D02*
X185000D01*
X283800Y71000D02*
X290700D01*
X270000D02*
X280600D01*
X261200D02*
X266600D01*
X256000D02*
X257800D01*
X245400D02*
X252600D01*
X230600D02*
X242000D01*
X225400D02*
X227200D01*
X206400D02*
X222000D01*
X188400D02*
X203000D01*
X166200D02*
X185000D01*
X283800Y70900D02*
X290700D01*
X270000D02*
X280600D01*
X261400D02*
X266600D01*
X255800D02*
X257800D01*
X245400D02*
X252400D01*
X230600D02*
X242000D01*
X225400D02*
X227200D01*
X206400D02*
X222000D01*
X188400D02*
X203000D01*
X166200D02*
X185000D01*
X283800Y70800D02*
X290700D01*
X270000D02*
X280600D01*
X261400D02*
X266600D01*
X255800D02*
X257800D01*
X245400D02*
X252400D01*
X230600D02*
X242000D01*
X225400D02*
X227200D01*
X206400D02*
X222000D01*
X188400D02*
X203000D01*
X166200D02*
X185000D01*
X283800Y70700D02*
X290700D01*
X270000D02*
X280600D01*
X261400D02*
X266600D01*
X255800D02*
X258000D01*
X245400D02*
X252400D01*
X230400D02*
X242000D01*
X225400D02*
X227200D01*
X206400D02*
X222000D01*
X188400D02*
X203000D01*
X166200D02*
X185000D01*
X283800Y70600D02*
X290700D01*
X270000D02*
X280600D01*
X261400D02*
X266600D01*
X255800D02*
X258000D01*
X245400D02*
X252400D01*
X230400D02*
X242000D01*
X225400D02*
X227200D01*
X206400D02*
X222000D01*
X188400D02*
X203000D01*
X166200D02*
X185000D01*
X283800Y70500D02*
X290700D01*
X270000D02*
X280600D01*
X261600D02*
X266600D01*
X255600D02*
X258000D01*
X245400D02*
X252200D01*
X230400D02*
X242000D01*
X225400D02*
X227200D01*
X206400D02*
X222000D01*
X188400D02*
X203000D01*
X166200D02*
X185000D01*
X283800Y70400D02*
X290700D01*
X270000D02*
X280600D01*
X261600D02*
X266600D01*
X255600D02*
X258000D01*
X245400D02*
X252200D01*
X230400D02*
X242000D01*
X225400D02*
X227200D01*
X206400D02*
X222000D01*
X188400D02*
X203000D01*
X166200D02*
X185000D01*
X283800Y70300D02*
X290700D01*
X270000D02*
X280600D01*
X261600D02*
X266600D01*
X255600D02*
X258200D01*
X245400D02*
X252200D01*
X230400D02*
X242000D01*
X225400D02*
X227200D01*
X206400D02*
X222000D01*
X188400D02*
X203000D01*
X166200D02*
X185000D01*
X283800Y70200D02*
X290700D01*
X270000D02*
X280600D01*
X261600D02*
X266600D01*
X255600D02*
X258200D01*
X245400D02*
X252200D01*
X230400D02*
X242000D01*
X225400D02*
X227200D01*
X206400D02*
X222000D01*
X188400D02*
X203000D01*
X166200D02*
X185000D01*
X283800Y70100D02*
X290700D01*
X270000D02*
X280600D01*
X261800D02*
X266600D01*
X255600D02*
X258200D01*
X245400D02*
X252000D01*
X230400D02*
X242000D01*
X225400D02*
X227200D01*
X206400D02*
X222000D01*
X188400D02*
X203000D01*
X166200D02*
X185000D01*
X283800Y70000D02*
X290700D01*
X270000D02*
X280600D01*
X261800D02*
X266600D01*
X255600D02*
X258200D01*
X245400D02*
X252000D01*
X230400D02*
X242000D01*
X225400D02*
X227200D01*
X206400D02*
X222000D01*
X188400D02*
X203000D01*
X166200D02*
X185000D01*
X283800Y69900D02*
X290700D01*
X270000D02*
X280600D01*
X261800D02*
X266600D01*
X255400D02*
X258400D01*
X245400D02*
X252000D01*
X230400D02*
X242000D01*
X225400D02*
X227200D01*
X206400D02*
X221800D01*
X188400D02*
X203000D01*
X166200D02*
X185000D01*
X283800Y69800D02*
X290700D01*
X270000D02*
X280600D01*
X261800D02*
X266600D01*
X255400D02*
X258400D01*
X245400D02*
X252000D01*
X230400D02*
X242000D01*
X225400D02*
X227200D01*
X206400D02*
X221800D01*
X188400D02*
X203000D01*
X166200D02*
X185000D01*
X283800Y69700D02*
X290700D01*
X270000D02*
X280600D01*
X262000D02*
X266600D01*
X255400D02*
X258400D01*
X245400D02*
X251800D01*
X230400D02*
X242000D01*
X225400D02*
X227200D01*
X206400D02*
X221800D01*
X188400D02*
X203000D01*
X166200D02*
X185000D01*
X283800Y69600D02*
X290700D01*
X270000D02*
X280600D01*
X262000D02*
X266600D01*
X255400D02*
X258400D01*
X245400D02*
X251800D01*
X230400D02*
X242000D01*
X225400D02*
X227200D01*
X206400D02*
X221800D01*
X188400D02*
X203000D01*
X166200D02*
X185000D01*
X283800Y69500D02*
X290700D01*
X270000D02*
X280600D01*
X262000D02*
X266600D01*
X255200D02*
X258600D01*
X245400D02*
X251800D01*
X230400D02*
X242000D01*
X225400D02*
X227200D01*
X206400D02*
X221400D01*
X188400D02*
X203000D01*
X166200D02*
X185000D01*
X283800Y69400D02*
X290700D01*
X270000D02*
X280600D01*
X262000D02*
X266600D01*
X255200D02*
X258600D01*
X245400D02*
X251800D01*
X230400D02*
X242000D01*
X225400D02*
X227200D01*
X206400D02*
X221400D01*
X188400D02*
X203000D01*
X166200D02*
X185000D01*
X283800Y69300D02*
X290700D01*
X270000D02*
X280600D01*
X262200D02*
X266600D01*
X255200D02*
X258600D01*
X245400D02*
X251600D01*
X230400D02*
X242000D01*
X225200D02*
X227200D01*
X206400D02*
X221000D01*
X188400D02*
X202800D01*
X166200D02*
X185000D01*
X283800Y69200D02*
X290700D01*
X270000D02*
X280600D01*
X262200D02*
X266600D01*
X255200D02*
X258600D01*
X245400D02*
X251600D01*
X230400D02*
X242000D01*
X225200D02*
X227200D01*
X206400D02*
X221000D01*
X188400D02*
X202800D01*
X166200D02*
X185000D01*
X283800Y69100D02*
X290700D01*
X270000D02*
X280600D01*
X262200D02*
X266600D01*
X255000D02*
X258800D01*
X245400D02*
X251600D01*
X230400D02*
X242000D01*
X225200D02*
X227200D01*
X206400D02*
X212800D01*
X188400D02*
X191000D01*
X166200D02*
X185000D01*
X283800Y69000D02*
X290700D01*
X270000D02*
X280600D01*
X262200D02*
X266600D01*
X255000D02*
X258800D01*
X245400D02*
X251600D01*
X230400D02*
X242000D01*
X225200D02*
X227200D01*
X206400D02*
X212800D01*
X188400D02*
X191000D01*
X166200D02*
X185000D01*
X283800Y68900D02*
X290700D01*
X270000D02*
X280600D01*
X262400D02*
X266600D01*
X255000D02*
X258800D01*
X245400D02*
X251400D01*
X230600D02*
X242000D01*
X225200D02*
X227200D01*
X206400D02*
X211800D01*
X188400D02*
X191000D01*
X166200D02*
X185000D01*
X283800Y68800D02*
X290700D01*
X270000D02*
X280600D01*
X262400D02*
X266600D01*
X255000D02*
X258800D01*
X245400D02*
X251400D01*
X230600D02*
X242000D01*
X225200D02*
X227200D01*
X206400D02*
X211800D01*
X188400D02*
X191000D01*
X166200D02*
X185000D01*
X283800Y68700D02*
X290700D01*
X270000D02*
X280600D01*
X262400D02*
X266600D01*
X254800D02*
X259000D01*
X245400D02*
X251200D01*
X230600D02*
X242000D01*
X225000D02*
X227200D01*
X206400D02*
X211200D01*
X188400D02*
X191000D01*
X166200D02*
X185000D01*
X283800Y68600D02*
X290700D01*
X270000D02*
X280600D01*
X262400D02*
X266600D01*
X254800D02*
X259000D01*
X245400D02*
X251200D01*
X230600D02*
X242000D01*
X225000D02*
X227200D01*
X206400D02*
X211200D01*
X188400D02*
X191000D01*
X166200D02*
X185000D01*
X283800Y68500D02*
X290700D01*
X270000D02*
X280600D01*
X262600D02*
X266600D01*
X254800D02*
X259000D01*
X245400D02*
X251200D01*
X230600D02*
X242000D01*
X225000D02*
X227200D01*
X206400D02*
X210800D01*
X188400D02*
X191000D01*
X166200D02*
X185000D01*
X283800Y68400D02*
X290700D01*
X270000D02*
X280600D01*
X262600D02*
X266600D01*
X254800D02*
X259000D01*
X245400D02*
X251200D01*
X230600D02*
X242000D01*
X225000D02*
X227200D01*
X206400D02*
X210800D01*
X188400D02*
X191000D01*
X166200D02*
X185000D01*
X283800Y68300D02*
X290700D01*
X270200D02*
X280600D01*
X262600D02*
X266600D01*
X254600D02*
X259200D01*
X245400D02*
X251000D01*
X230800D02*
X242000D01*
X224800D02*
X227200D01*
X206400D02*
X210400D01*
X188400D02*
X191000D01*
X166200D02*
X185000D01*
X283800Y68200D02*
X290700D01*
X270200D02*
X280600D01*
X262600D02*
X266600D01*
X254600D02*
X259200D01*
X245400D02*
X251000D01*
X230800D02*
X242000D01*
X224800D02*
X227200D01*
X206400D02*
X210400D01*
X188400D02*
X191000D01*
X166200D02*
X185000D01*
X283800Y68100D02*
X290700D01*
X270400D02*
X280600D01*
X262800D02*
X266600D01*
X254600D02*
X259200D01*
X245400D02*
X251000D01*
X231000D02*
X242000D01*
X224600D02*
X227200D01*
X206400D02*
X210200D01*
X188400D02*
X191000D01*
X166200D02*
X185000D01*
X283800Y68000D02*
X290700D01*
X270400D02*
X280600D01*
X262800D02*
X266600D01*
X254600D02*
X259200D01*
X245400D02*
X251000D01*
X231000D02*
X242000D01*
X224600D02*
X227200D01*
X206400D02*
X210200D01*
X188400D02*
X191000D01*
X166200D02*
X185000D01*
X283800Y67900D02*
X290700D01*
X270600D02*
X280600D01*
X263000D02*
X266600D01*
X254400D02*
X259400D01*
X245400D02*
X250800D01*
X231200D02*
X242000D01*
X224600D02*
X227200D01*
X206400D02*
X209800D01*
X188400D02*
X191000D01*
X166200D02*
X185000D01*
X283800Y67800D02*
X290700D01*
X270600D02*
X280600D01*
X263000D02*
X266600D01*
X254400D02*
X259400D01*
X245400D02*
X250800D01*
X231200D02*
X242000D01*
X224600D02*
X227200D01*
X206400D02*
X209800D01*
X188400D02*
X191000D01*
X166200D02*
X185000D01*
X283800Y67700D02*
X290700D01*
X244800D02*
X266800D01*
X224400D02*
X227400D01*
X206400D02*
X209600D01*
X188400D02*
X191000D01*
X166200D02*
X185000D01*
X283800Y67600D02*
X290700D01*
X244800D02*
X266800D01*
X224400D02*
X227400D01*
X206400D02*
X209600D01*
X188400D02*
X191000D01*
X166200D02*
X185000D01*
X283800Y67500D02*
X290700D01*
X263200D02*
X266800D01*
X244000D02*
X262600D01*
X224200D02*
X227400D01*
X206400D02*
X209400D01*
X188400D02*
X191000D01*
X166200D02*
X185000D01*
X283800Y67400D02*
X290700D01*
X263200D02*
X266800D01*
X244000D02*
X262600D01*
X224200D02*
X227400D01*
X206400D02*
X209400D01*
X188400D02*
X191000D01*
X166200D02*
X185000D01*
X283800Y67300D02*
X290700D01*
X263200D02*
X267000D01*
X243200D02*
X261800D01*
X224000D02*
X227600D01*
X206400D02*
X209200D01*
X188400D02*
X191000D01*
X166200D02*
X185000D01*
X283800Y67200D02*
X290700D01*
X263200D02*
X267000D01*
X243200D02*
X261800D01*
X224000D02*
X227600D01*
X206400D02*
X209200D01*
X188400D02*
X191000D01*
X166200D02*
X185000D01*
X283800Y67100D02*
X290700D01*
X263400D02*
X267000D01*
X242400D02*
X261000D01*
X223800D02*
X227600D01*
X206400D02*
X209000D01*
X188400D02*
X191000D01*
X166200D02*
X185000D01*
X283800Y67000D02*
X290700D01*
X263400D02*
X267000D01*
X242400D02*
X261000D01*
X223800D02*
X227600D01*
X206400D02*
X209000D01*
X188400D02*
X191000D01*
X166200D02*
X185000D01*
X283800Y66900D02*
X290700D01*
X263400D02*
X267200D01*
X241600D02*
X260400D01*
X223600D02*
X227800D01*
X206400D02*
X209000D01*
X188400D02*
X191000D01*
X166200D02*
X185000D01*
X283800Y66800D02*
X290700D01*
X263400D02*
X267200D01*
X241600D02*
X260400D01*
X223600D02*
X227800D01*
X206400D02*
X209000D01*
X188400D02*
X191000D01*
X166200D02*
X185000D01*
X283800Y66700D02*
X290700D01*
X263600D02*
X267200D01*
X240800D02*
X259600D01*
X223200D02*
X227800D01*
X206400D02*
X208800D01*
X188400D02*
X191000D01*
X166200D02*
X185000D01*
X283800Y66600D02*
X290700D01*
X263600D02*
X267200D01*
X240800D02*
X259600D01*
X223200D02*
X227800D01*
X206400D02*
X208800D01*
X188400D02*
X191000D01*
X166200D02*
X185000D01*
X283800Y66500D02*
X290700D01*
X263600D02*
X267400D01*
X240000D02*
X258800D01*
X222800D02*
X228000D01*
X206400D02*
X208600D01*
X188400D02*
X191000D01*
X166200D02*
X185000D01*
X283800Y66400D02*
X290700D01*
X263600D02*
X267400D01*
X240000D02*
X258800D01*
X222800D02*
X228000D01*
X206400D02*
X208600D01*
X188400D02*
X191000D01*
X166200D02*
X185000D01*
X283800Y66300D02*
X290700D01*
X263800D02*
X267600D01*
X239200D02*
X258000D01*
X222400D02*
X228200D01*
X206400D02*
X208600D01*
X188400D02*
X191000D01*
X166200D02*
X185000D01*
X283800Y66200D02*
X290700D01*
X263800D02*
X267600D01*
X239200D02*
X258000D01*
X222400D02*
X228200D01*
X206400D02*
X208600D01*
X188400D02*
X191000D01*
X166200D02*
X185000D01*
X283800Y66100D02*
X290700D01*
X263800D02*
X267600D01*
X238400D02*
X257200D01*
X221800D02*
X228200D01*
X206400D02*
X208400D01*
X188400D02*
X191000D01*
X166200D02*
X185000D01*
X283800Y66000D02*
X290700D01*
X263800D02*
X267600D01*
X238400D02*
X257200D01*
X221800D02*
X228200D01*
X206400D02*
X208400D01*
X188400D02*
X191000D01*
X166200D02*
X185000D01*
X283800Y65900D02*
X290700D01*
X264000D02*
X267800D01*
X237600D02*
X256400D01*
X220800D02*
X228400D01*
X206400D02*
X208400D01*
X188400D02*
X191000D01*
X166200D02*
X185000D01*
X283800Y65800D02*
X290700D01*
X264000D02*
X267800D01*
X237600D02*
X256400D01*
X220800D02*
X228400D01*
X206400D02*
X208400D01*
X188400D02*
X191000D01*
X166200D02*
X185000D01*
X283800Y65700D02*
X290700D01*
X264000D02*
X268000D01*
X236800D02*
X255600D01*
X212600D02*
X228600D01*
X206400D02*
X208400D01*
X188400D02*
X203000D01*
X166200D02*
X185000D01*
X283800Y65600D02*
X290700D01*
X264000D02*
X268000D01*
X236800D02*
X255600D01*
X212600D02*
X228600D01*
X206400D02*
X208400D01*
X188400D02*
X203000D01*
X166200D02*
X185000D01*
X283800Y65500D02*
X290700D01*
X264200D02*
X268200D01*
X236000D02*
X254800D01*
X212200D02*
X228800D01*
X206400D02*
X208200D01*
X188400D02*
X203000D01*
X166200D02*
X185000D01*
X283800Y65400D02*
X290700D01*
X264200D02*
X268200D01*
X236000D02*
X254800D01*
X212200D02*
X228800D01*
X206400D02*
X208200D01*
X188400D02*
X203000D01*
X166200D02*
X185000D01*
X283800Y65300D02*
X290700D01*
X264200D02*
X268600D01*
X235200D02*
X254000D01*
X212000D02*
X229200D01*
X206400D02*
X208200D01*
X188400D02*
X203000D01*
X166200D02*
X185000D01*
X283800Y65200D02*
X290700D01*
X264200D02*
X268600D01*
X235200D02*
X254000D01*
X212000D02*
X229200D01*
X206400D02*
X208200D01*
X188400D02*
X203000D01*
X166200D02*
X185000D01*
X283800Y65100D02*
X290700D01*
X264400D02*
X268800D01*
X234400D02*
X253200D01*
X211800D02*
X229400D01*
X206400D02*
X208200D01*
X188400D02*
X203000D01*
X166200D02*
X185000D01*
X283800Y65000D02*
X290700D01*
X264400D02*
X268800D01*
X234400D02*
X253200D01*
X211800D02*
X229400D01*
X206400D02*
X208200D01*
X188400D02*
X203000D01*
X166200D02*
X185000D01*
X283800Y64900D02*
X290700D01*
X264400D02*
X269200D01*
X233600D02*
X252400D01*
X211800D02*
X229800D01*
X206400D02*
X208200D01*
X188400D02*
X203000D01*
X166200D02*
X185000D01*
X283800Y64800D02*
X290700D01*
X264400D02*
X269200D01*
X233600D02*
X252400D01*
X211800D02*
X229800D01*
X206400D02*
X208200D01*
X188400D02*
X203000D01*
X166200D02*
X185000D01*
X283800Y64700D02*
X290700D01*
X264600D02*
X269600D01*
X232800D02*
X251600D01*
X211600D02*
X230200D01*
X206400D02*
X208200D01*
X188400D02*
X203000D01*
X166200D02*
X185000D01*
X283800Y64600D02*
X290700D01*
X264600D02*
X269600D01*
X232800D02*
X251600D01*
X211600D02*
X230200D01*
X206400D02*
X208200D01*
X188400D02*
X203000D01*
X166200D02*
X185000D01*
X283800Y64500D02*
X290700D01*
X264600D02*
X270400D01*
X232000D02*
X250800D01*
X211600D02*
X231000D01*
X206400D02*
X208000D01*
X188400D02*
X203000D01*
X166200D02*
X185000D01*
X283800Y64400D02*
X290700D01*
X264600D02*
X270400D01*
X232000D02*
X250800D01*
X211600D02*
X231000D01*
X206400D02*
X208000D01*
X188400D02*
X203000D01*
X166200D02*
X185000D01*
X283800Y64300D02*
X290700D01*
X264800D02*
X280600D01*
X211600D02*
X250000D01*
X206400D02*
X208000D01*
X188400D02*
X203000D01*
X166200D02*
X185000D01*
X283800Y64200D02*
X290700D01*
X264800D02*
X280600D01*
X211600D02*
X250000D01*
X206400D02*
X208000D01*
X188400D02*
X203000D01*
X166200D02*
X185000D01*
X283800Y64100D02*
X290700D01*
X265000D02*
X280600D01*
X252600D02*
X261200D01*
X211600D02*
X249200D01*
X206400D02*
X208200D01*
X188400D02*
X203000D01*
X166200D02*
X185000D01*
X283800Y64000D02*
X290700D01*
X265000D02*
X280600D01*
X252600D02*
X261200D01*
X211600D02*
X249200D01*
X206400D02*
X208200D01*
X188400D02*
X203000D01*
X166200D02*
X185000D01*
X283800Y63900D02*
X290700D01*
X265000D02*
X280600D01*
X252400D02*
X261200D01*
X245400D02*
X248800D01*
X236600D02*
X242000D01*
X211800D02*
X232000D01*
X206400D02*
X208200D01*
X188400D02*
X203000D01*
X166200D02*
X185000D01*
X283800Y63800D02*
X290700D01*
X265000D02*
X280600D01*
X252400D02*
X261200D01*
X245400D02*
X248800D01*
X236600D02*
X242000D01*
X211800D02*
X232000D01*
X206400D02*
X208200D01*
X188400D02*
X203000D01*
X166200D02*
X185000D01*
X283800Y63700D02*
X290700D01*
X265200D02*
X280600D01*
X252400D02*
X261400D01*
X245400D02*
X248600D01*
X236400D02*
X242000D01*
X211800D02*
X231800D01*
X206400D02*
X208200D01*
X188400D02*
X203000D01*
X166200D02*
X185000D01*
X283800Y63600D02*
X290700D01*
X265200D02*
X280600D01*
X252400D02*
X261400D01*
X245400D02*
X248600D01*
X236400D02*
X242000D01*
X211800D02*
X231800D01*
X206400D02*
X208200D01*
X188400D02*
X203000D01*
X166200D02*
X185000D01*
X283800Y63500D02*
X290700D01*
X265200D02*
X280600D01*
X252200D02*
X261400D01*
X245400D02*
X248600D01*
X236200D02*
X242000D01*
X212000D02*
X231600D01*
X206400D02*
X208200D01*
X188400D02*
X203000D01*
X166200D02*
X184800D01*
X283800Y63400D02*
X290700D01*
X265200D02*
X280600D01*
X252200D02*
X261400D01*
X245400D02*
X248600D01*
X236200D02*
X242000D01*
X212000D02*
X231600D01*
X206400D02*
X208200D01*
X188400D02*
X203000D01*
X166200D02*
X184800D01*
X283800Y63300D02*
X290700D01*
X265400D02*
X280600D01*
X252200D02*
X261600D01*
X245400D02*
X248400D01*
X236000D02*
X242000D01*
X212200D02*
X231400D01*
X206400D02*
X208200D01*
X188400D02*
X203000D01*
X166200D02*
X184600D01*
X283800Y63200D02*
X290700D01*
X265400D02*
X280600D01*
X252200D02*
X261600D01*
X245400D02*
X248400D01*
X236000D02*
X242000D01*
X212200D02*
X231400D01*
X206400D02*
X208200D01*
X188400D02*
X203000D01*
X166200D02*
X184600D01*
X283800Y63100D02*
X290700D01*
X265400D02*
X280600D01*
X252200D02*
X261600D01*
X245400D02*
X248400D01*
X235800D02*
X242000D01*
X212800D02*
X231200D01*
X206400D02*
X208400D01*
X188400D02*
X203000D01*
X166200D02*
X184400D01*
X283800Y63000D02*
X290700D01*
X265400D02*
X280600D01*
X252200D02*
X261600D01*
X245400D02*
X248400D01*
X235800D02*
X242000D01*
X212800D02*
X231200D01*
X206400D02*
X208400D01*
X188400D02*
X203000D01*
X166200D02*
X184400D01*
X283800Y62900D02*
X290700D01*
X265600D02*
X280600D01*
X252000D02*
X261800D01*
X245400D02*
X248200D01*
X235600D02*
X242000D01*
X225000D02*
X231000D01*
X206400D02*
X208400D01*
X188200D02*
X190600D01*
X166200D02*
X169800D01*
X283800Y62800D02*
X290700D01*
X265600D02*
X280600D01*
X252000D02*
X261800D01*
X245400D02*
X248200D01*
X235600D02*
X242000D01*
X225000D02*
X231000D01*
X206400D02*
X208400D01*
X188200D02*
X190600D01*
X166200D02*
X169800D01*
X283800Y62700D02*
X290700D01*
X265600D02*
X280600D01*
X252000D02*
X261800D01*
X245400D02*
X248200D01*
X235400D02*
X242000D01*
X225000D02*
X230800D01*
X206400D02*
X208400D01*
X188200D02*
X190600D01*
X166200D02*
X169800D01*
X283800Y62600D02*
X290700D01*
X265600D02*
X280600D01*
X252000D02*
X261800D01*
X245400D02*
X248200D01*
X235400D02*
X242000D01*
X225000D02*
X230800D01*
X206400D02*
X208400D01*
X188200D02*
X190600D01*
X166200D02*
X169800D01*
X283800Y62500D02*
X290700D01*
X265800D02*
X280600D01*
X251800D02*
X262000D01*
X245400D02*
X248000D01*
X235200D02*
X242000D01*
X225000D02*
X230600D01*
X206400D02*
X208600D01*
X188200D02*
X190600D01*
X166200D02*
X169800D01*
X283800Y62400D02*
X290700D01*
X265800D02*
X280600D01*
X251800D02*
X262000D01*
X245400D02*
X248000D01*
X235200D02*
X242000D01*
X225000D02*
X230600D01*
X206400D02*
X208600D01*
X188200D02*
X190600D01*
X166200D02*
X169800D01*
X283800Y62300D02*
X290700D01*
X265800D02*
X280600D01*
X251800D02*
X262000D01*
X245400D02*
X248000D01*
X235000D02*
X242000D01*
X225000D02*
X230400D01*
X206400D02*
X208600D01*
X188000D02*
X190600D01*
X166200D02*
X169800D01*
X283800Y62200D02*
X290700D01*
X265800D02*
X280600D01*
X251800D02*
X262000D01*
X245400D02*
X248000D01*
X235000D02*
X242000D01*
X225000D02*
X230400D01*
X206400D02*
X208600D01*
X188000D02*
X190600D01*
X166200D02*
X169800D01*
X283800Y62100D02*
X290700D01*
X266000D02*
X280600D01*
X251600D02*
X262200D01*
X245400D02*
X247800D01*
X234800D02*
X242000D01*
X225000D02*
X230200D01*
X206400D02*
X208800D01*
X188000D02*
X190600D01*
X166200D02*
X169800D01*
X283800Y62000D02*
X290700D01*
X266000D02*
X280600D01*
X251600D02*
X262200D01*
X245400D02*
X247800D01*
X234800D02*
X242000D01*
X225000D02*
X230200D01*
X206400D02*
X208800D01*
X188000D02*
X190600D01*
X166200D02*
X169800D01*
X283800Y61900D02*
X290700D01*
X266000D02*
X280600D01*
X251600D02*
X262200D01*
X245400D02*
X247800D01*
X234600D02*
X242000D01*
X225000D02*
X230000D01*
X206400D02*
X209000D01*
X187800D02*
X190600D01*
X166200D02*
X170000D01*
X283800Y61800D02*
X290700D01*
X266000D02*
X280600D01*
X251600D02*
X262200D01*
X245400D02*
X247800D01*
X234600D02*
X242000D01*
X225000D02*
X230000D01*
X206400D02*
X209000D01*
X187800D02*
X190600D01*
X166200D02*
X170000D01*
X283800Y61700D02*
X290700D01*
X266200D02*
X280600D01*
X251400D02*
X262400D01*
X245400D02*
X247600D01*
X234400D02*
X242000D01*
X225000D02*
X229800D01*
X206400D02*
X209000D01*
X187600D02*
X190600D01*
X166200D02*
X170000D01*
X283800Y61600D02*
X290700D01*
X266200D02*
X280600D01*
X251400D02*
X262400D01*
X245400D02*
X247600D01*
X234400D02*
X242000D01*
X225000D02*
X229800D01*
X206400D02*
X209000D01*
X187600D02*
X190600D01*
X166200D02*
X170000D01*
X283800Y61500D02*
X290700D01*
X266200D02*
X280600D01*
X251400D02*
X262400D01*
X245400D02*
X247600D01*
X234200D02*
X242000D01*
X225000D02*
X229600D01*
X206400D02*
X209200D01*
X187600D02*
X190600D01*
X166200D02*
X170000D01*
X283800Y61400D02*
X290700D01*
X266200D02*
X280600D01*
X251400D02*
X262400D01*
X245400D02*
X247600D01*
X234200D02*
X242000D01*
X225000D02*
X229600D01*
X206400D02*
X209200D01*
X187600D02*
X190600D01*
X166200D02*
X170000D01*
X283800Y61300D02*
X290700D01*
X266400D02*
X280600D01*
X251200D02*
X262600D01*
X245400D02*
X247400D01*
X234000D02*
X242000D01*
X225000D02*
X229400D01*
X206400D02*
X209400D01*
X187400D02*
X190600D01*
X166200D02*
X170200D01*
X283800Y61200D02*
X290700D01*
X266400D02*
X280600D01*
X251200D02*
X262600D01*
X245400D02*
X247400D01*
X234000D02*
X242000D01*
X225000D02*
X229400D01*
X206400D02*
X209400D01*
X187400D02*
X190600D01*
X166200D02*
X170200D01*
X283800Y61100D02*
X290700D01*
X266400D02*
X280600D01*
X251200D02*
X262600D01*
X245400D02*
X247400D01*
X233800D02*
X242000D01*
X225000D02*
X229200D01*
X206400D02*
X209600D01*
X187200D02*
X190600D01*
X166200D02*
X170400D01*
X283800Y61000D02*
X290700D01*
X266400D02*
X280600D01*
X251200D02*
X262600D01*
X245400D02*
X247400D01*
X233800D02*
X242000D01*
X225000D02*
X229200D01*
X206400D02*
X209600D01*
X187200D02*
X190600D01*
X166200D02*
X170400D01*
X283800Y60900D02*
X290700D01*
X266600D02*
X280600D01*
X251000D02*
X262800D01*
X245400D02*
X247200D01*
X233600D02*
X242000D01*
X225000D02*
X229000D01*
X206400D02*
X209800D01*
X187000D02*
X190600D01*
X166200D02*
X170400D01*
X283800Y60800D02*
X290700D01*
X266600D02*
X280600D01*
X251000D02*
X262800D01*
X245400D02*
X247200D01*
X233600D02*
X242000D01*
X225000D02*
X229000D01*
X206400D02*
X209800D01*
X187000D02*
X190600D01*
X166200D02*
X170400D01*
X283800Y60700D02*
X290700D01*
X266600D02*
X280600D01*
X251000D02*
X262800D01*
X245400D02*
X247000D01*
X233400D02*
X242000D01*
X225000D02*
X228800D01*
X206400D02*
X210000D01*
X186800D02*
X190600D01*
X166200D02*
X170600D01*
X283800Y60600D02*
X290700D01*
X266600D02*
X280600D01*
X251000D02*
X262800D01*
X245400D02*
X247000D01*
X233400D02*
X242000D01*
X225000D02*
X228800D01*
X206400D02*
X210000D01*
X186800D02*
X190600D01*
X166200D02*
X170600D01*
X283800Y60500D02*
X290700D01*
X266800D02*
X280600D01*
X250800D02*
X263000D01*
X245400D02*
X247000D01*
X233200D02*
X242000D01*
X225000D02*
X228600D01*
X206400D02*
X210400D01*
X186400D02*
X190600D01*
X166200D02*
X171000D01*
X283800Y60400D02*
X290700D01*
X266800D02*
X280600D01*
X250800D02*
X263000D01*
X245400D02*
X247000D01*
X233200D02*
X242000D01*
X225000D02*
X228600D01*
X206400D02*
X210400D01*
X186400D02*
X190600D01*
X166200D02*
X171000D01*
X283800Y60300D02*
X290700D01*
X266800D02*
X280600D01*
X250800D02*
X263000D01*
X245400D02*
X246800D01*
X233200D02*
X242000D01*
X225000D02*
X228400D01*
X206400D02*
X210800D01*
X186200D02*
X190600D01*
X166200D02*
X171200D01*
X283800Y60200D02*
X290700D01*
X266800D02*
X280600D01*
X250800D02*
X263000D01*
X245400D02*
X246800D01*
X233200D02*
X242000D01*
X225000D02*
X228400D01*
X206400D02*
X210800D01*
X186200D02*
X190600D01*
X166200D02*
X171200D01*
X283800Y60100D02*
X290700D01*
X267000D02*
X280600D01*
X250600D02*
X263200D01*
X245400D02*
X246800D01*
X233000D02*
X242000D01*
X225000D02*
X228200D01*
X206400D02*
X211200D01*
X185800D02*
X190600D01*
X166200D02*
X171600D01*
X283800Y60000D02*
X290700D01*
X267000D02*
X280600D01*
X250600D02*
X263200D01*
X245400D02*
X246800D01*
X233000D02*
X242000D01*
X225000D02*
X228200D01*
X206400D02*
X211200D01*
X185800D02*
X190600D01*
X166200D02*
X171600D01*
X283800Y59900D02*
X290700D01*
X267200D02*
X280600D01*
X250600D02*
X263200D01*
X245400D02*
X246600D01*
X232800D02*
X242000D01*
X225000D02*
X228000D01*
X206400D02*
X212000D01*
X185400D02*
X190600D01*
X166200D02*
X172000D01*
X283800Y59800D02*
X290700D01*
X267200D02*
X280600D01*
X250600D02*
X263200D01*
X245400D02*
X246600D01*
X232800D02*
X242000D01*
X225000D02*
X228000D01*
X206400D02*
X212000D01*
X185400D02*
X190600D01*
X166200D02*
X172000D01*
X283800Y59700D02*
X290700D01*
X267200D02*
X280600D01*
X250400D02*
X263400D01*
X245400D02*
X246600D01*
X232600D02*
X242000D01*
X225000D02*
X227800D01*
X206400D02*
X213000D01*
X184600D02*
X190600D01*
X166200D02*
X172800D01*
X283800Y59600D02*
X290700D01*
X267200D02*
X280600D01*
X250400D02*
X263400D01*
X245400D02*
X246600D01*
X232600D02*
X242000D01*
X225000D02*
X227800D01*
X206400D02*
X213000D01*
X184600D02*
X190600D01*
X166200D02*
X172800D01*
X166200Y59500D02*
X290700D01*
X166200Y59400D02*
X290700D01*
X166200Y59300D02*
X290700D01*
X166200Y59200D02*
X290700D01*
X166200Y59100D02*
X290700D01*
X166200Y59000D02*
X290700D01*
X166200Y58900D02*
X290700D01*
X166200Y58800D02*
X290700D01*
X166200Y58700D02*
X290700D01*
X166200Y58600D02*
X290700D01*
X166200Y58500D02*
X290700D01*
X166200Y58400D02*
X290700D01*
X166200Y58300D02*
X290700D01*
X166200Y58200D02*
X290700D01*
X166200Y58100D02*
X290700D01*
X166200Y58000D02*
X290700D01*
X166200Y57900D02*
X290700D01*
D22*
X290200Y52876D02*
Y48078D01*
X287001D01*
X284602D02*
X283002D01*
X282203Y48877D01*
Y50477D01*
X283002Y51277D01*
X284602D01*
X285402Y50477D01*
Y48877D01*
X284602Y48078D01*
X280603Y51277D02*
Y48078D01*
Y49677D01*
X279803Y50477D01*
X279004Y51277D01*
X278204D01*
X273405Y48078D02*
X275005D01*
X275805Y48877D01*
Y50477D01*
X275005Y51277D01*
X273405D01*
X272606Y50477D01*
Y49677D01*
X275805D01*
X271006Y48078D02*
Y51277D01*
X268607D01*
X267807Y50477D01*
Y48078D01*
X266208Y51277D02*
X263009D01*
X266208Y48078D01*
X263009D01*
X260610D02*
X259010D01*
X258210Y48877D01*
Y50477D01*
X259010Y51277D01*
X260610D01*
X261409Y50477D01*
Y48877D01*
X260610Y48078D01*
X248613Y52076D02*
X249413Y52876D01*
X251013D01*
X251812Y52076D01*
Y51277D01*
X251013Y50477D01*
X249413D01*
X248613Y49677D01*
Y48877D01*
X249413Y48078D01*
X251013D01*
X251812Y48877D01*
X247014Y52876D02*
Y48078D01*
Y50477D01*
X246214Y51277D01*
X244615D01*
X243815Y50477D01*
Y48078D01*
X241416Y51277D02*
X239816D01*
X239017Y50477D01*
Y48078D01*
X241416D01*
X242215Y48877D01*
X241416Y49677D01*
X239017D01*
X237417Y48078D02*
X235818D01*
X236617D01*
Y51277D01*
X237417D01*
X233418Y48078D02*
Y52876D01*
Y49677D02*
X231019Y51277D01*
X233418Y49677D02*
X231019Y48078D01*
X226221D02*
X227820D01*
X228620Y48877D01*
Y50477D01*
X227820Y51277D01*
X226221D01*
X225421Y50477D01*
Y49677D01*
X228620D01*
X223821Y51277D02*
Y48877D01*
X223022Y48078D01*
X222222Y48877D01*
X221422Y48078D01*
X220622Y48877D01*
Y51277D01*
X219023Y48078D02*
X217424D01*
X218223D01*
Y51277D01*
X219023D01*
X214225Y52076D02*
Y51277D01*
X215024D01*
X213425D01*
X214225D01*
Y48877D01*
X213425Y48078D01*
X211026Y51277D02*
X207827D01*
X211026Y48078D01*
X207827D01*
X288600Y40400D02*
X290200Y41999D01*
Y43598D01*
X288600Y45198D01*
X285402Y43598D02*
X283802D01*
X283002Y42799D01*
Y40400D01*
X285402D01*
X286201Y41199D01*
X285402Y41999D01*
X283002D01*
X281403Y40400D02*
Y43598D01*
X279004D01*
X278204Y42799D01*
Y40400D01*
X273405Y45198D02*
Y40400D01*
X275805D01*
X276604Y41199D01*
Y42799D01*
X275805Y43598D01*
X273405D01*
X263808Y45198D02*
X265408D01*
X264608D01*
Y41199D01*
X265408Y40400D01*
X266208D01*
X267007Y41199D01*
X262209Y43598D02*
Y41199D01*
X261409Y40400D01*
X259010D01*
Y43598D01*
X257411Y40400D02*
X255811D01*
X256611D01*
Y45198D01*
X257411D01*
X253412Y40400D02*
X251812D01*
X252612D01*
Y43598D01*
X253412D01*
X248613D02*
X247014D01*
X246214Y42799D01*
Y40400D01*
X248613D01*
X249413Y41199D01*
X248613Y41999D01*
X246214D01*
X244615Y40400D02*
Y43598D01*
X242215D01*
X241416Y42799D01*
Y40400D01*
X235018Y45198D02*
Y40400D01*
Y42799D01*
X234218Y43598D01*
X232619D01*
X231819Y42799D01*
Y40400D01*
X227820D02*
X229420D01*
X230219Y41199D01*
Y42799D01*
X229420Y43598D01*
X227820D01*
X227020Y42799D01*
Y41999D01*
X230219D01*
X225421Y40400D02*
X223821D01*
X224621D01*
Y45198D01*
X225421D01*
X221422Y38800D02*
Y43598D01*
X219023D01*
X218223Y42799D01*
Y41199D01*
X219023Y40400D01*
X221422D01*
X214225D02*
X215824D01*
X216624Y41199D01*
Y42799D01*
X215824Y43598D01*
X214225D01*
X213425Y42799D01*
Y41999D01*
X216624D01*
X208626Y45198D02*
Y40400D01*
X211026D01*
X211825Y41199D01*
Y42799D01*
X211026Y43598D01*
X208626D01*
X207027Y40400D02*
X205427Y41999D01*
Y43598D01*
X207027Y45198D01*
M02*
