G04*
G04 #@! TF.GenerationSoftware,Altium Limited,Altium Designer,21.1.1 (26)*
G04*
G04 Layer_Physical_Order=3*
G04 Layer_Color=16440176*
%FSLAX25Y25*%
%MOIN*%
G70*
G04*
G04 #@! TF.SameCoordinates,E270421F-5236-4404-944A-E4286B30A106*
G04*
G04*
G04 #@! TF.FilePolarity,Positive*
G04*
G01*
G75*
%ADD11C,0.01000*%
%ADD87C,0.11000*%
%ADD89R,0.06000X0.06000*%
%ADD90C,0.06000*%
%ADD95C,0.10000*%
%ADD97C,0.05906*%
%ADD99C,0.02500*%
%ADD100C,0.02400*%
%ADD102R,0.33000X0.23000*%
G36*
X384986Y5331D02*
X359809D01*
X359712Y5822D01*
X360187Y6019D01*
X361972Y7112D01*
X363563Y8472D01*
X364923Y10064D01*
X366017Y11849D01*
X366818Y13783D01*
X367307Y15819D01*
X367471Y17906D01*
X367307Y19993D01*
X366818Y22028D01*
X366017Y23962D01*
X364923Y25747D01*
X363563Y27339D01*
X361972Y28699D01*
X360187Y29792D01*
X358253Y30594D01*
X356217Y31082D01*
X354130Y31247D01*
X352043Y31082D01*
X350007Y30594D01*
X348073Y29792D01*
X346288Y28699D01*
X344696Y27339D01*
X343337Y25747D01*
X342243Y23962D01*
X341442Y22028D01*
X340953Y19993D01*
X340789Y17906D01*
X340953Y15819D01*
X341442Y13783D01*
X342243Y11849D01*
X343337Y10064D01*
X344696Y8472D01*
X346288Y7112D01*
X348073Y6019D01*
X348548Y5822D01*
X348450Y5331D01*
X24710D01*
X24537Y5801D01*
X25434Y6566D01*
X26793Y8158D01*
X27887Y9943D01*
X28688Y11877D01*
X29177Y13913D01*
X29341Y16000D01*
X29177Y18087D01*
X28688Y20123D01*
X27887Y22057D01*
X26793Y23842D01*
X25434Y25434D01*
X23842Y26793D01*
X22057Y27887D01*
X20123Y28688D01*
X18087Y29177D01*
X16000Y29341D01*
X13913Y29177D01*
X11877Y28688D01*
X9943Y27887D01*
X8158Y26793D01*
X6566Y25434D01*
X5486Y24169D01*
X4986Y24354D01*
Y255646D01*
X5486Y255831D01*
X6566Y254566D01*
X8158Y253207D01*
X9943Y252113D01*
X11877Y251312D01*
X13913Y250823D01*
X16000Y250659D01*
X18087Y250823D01*
X20123Y251312D01*
X22057Y252113D01*
X23842Y253207D01*
X25434Y254566D01*
X26793Y256158D01*
X27887Y257943D01*
X28688Y259877D01*
X29177Y261913D01*
X29341Y264000D01*
X29177Y266087D01*
X28688Y268123D01*
X27887Y270057D01*
X26793Y271842D01*
X25434Y273434D01*
X23842Y274793D01*
X23749Y274850D01*
X23884Y275331D01*
X344093D01*
X344302Y274877D01*
X343337Y273747D01*
X342243Y271962D01*
X341442Y270028D01*
X340953Y267992D01*
X340789Y265905D01*
X340953Y263819D01*
X341442Y261783D01*
X342243Y259849D01*
X343337Y258064D01*
X344696Y256472D01*
X346288Y255112D01*
X348073Y254018D01*
X350007Y253217D01*
X352043Y252729D01*
X354130Y252564D01*
X356217Y252729D01*
X358253Y253217D01*
X360187Y254018D01*
X361972Y255112D01*
X363563Y256472D01*
X364923Y258064D01*
X366017Y259849D01*
X366818Y261783D01*
X367307Y263819D01*
X367471Y265905D01*
X367307Y267992D01*
X366818Y270028D01*
X366017Y271962D01*
X364923Y273747D01*
X363958Y274877D01*
X364167Y275331D01*
X384986D01*
Y5331D01*
D02*
G37*
%LPC*%
G36*
X184630Y269672D02*
Y266406D01*
X187897D01*
X187832Y266898D01*
X187449Y267822D01*
X186840Y268616D01*
X186046Y269225D01*
X185122Y269608D01*
X184630Y269672D01*
D02*
G37*
G36*
X157930Y269706D02*
X154630D01*
Y266406D01*
X157930D01*
Y269706D01*
D02*
G37*
G36*
X138630Y269672D02*
Y266406D01*
X141897D01*
X141832Y266898D01*
X141449Y267822D01*
X140840Y268616D01*
X140046Y269225D01*
X139122Y269608D01*
X138630Y269672D01*
D02*
G37*
G36*
X111930Y269706D02*
X108630D01*
Y266406D01*
X111930D01*
Y269706D01*
D02*
G37*
G36*
X137630Y269672D02*
X137138Y269608D01*
X136214Y269225D01*
X135420Y268616D01*
X134811Y267822D01*
X134428Y266898D01*
X134363Y266406D01*
X137630D01*
Y269672D01*
D02*
G37*
G36*
X183630D02*
X183138Y269608D01*
X182213Y269225D01*
X181420Y268616D01*
X180811Y267822D01*
X180428Y266898D01*
X180363Y266406D01*
X183630D01*
Y269672D01*
D02*
G37*
G36*
X153630Y269706D02*
X150330D01*
Y266406D01*
X153630D01*
Y269706D01*
D02*
G37*
G36*
X107630D02*
X104330D01*
Y266406D01*
X107630D01*
Y269706D01*
D02*
G37*
G36*
X187897Y265406D02*
X184630D01*
Y262139D01*
X185122Y262203D01*
X186046Y262586D01*
X186840Y263195D01*
X187449Y263989D01*
X187832Y264914D01*
X187897Y265406D01*
D02*
G37*
G36*
X141897D02*
X138630D01*
Y262139D01*
X139122Y262203D01*
X140046Y262586D01*
X140840Y263195D01*
X141449Y263989D01*
X141832Y264914D01*
X141897Y265406D01*
D02*
G37*
G36*
X137630D02*
X134363D01*
X134428Y264914D01*
X134811Y263989D01*
X135420Y263195D01*
X136214Y262586D01*
X137138Y262203D01*
X137630Y262139D01*
Y265406D01*
D02*
G37*
G36*
X183630D02*
X180363D01*
X180428Y264914D01*
X180811Y263989D01*
X181420Y263195D01*
X182213Y262586D01*
X183138Y262203D01*
X183630Y262139D01*
Y265406D01*
D02*
G37*
G36*
X157930D02*
X154630D01*
Y262105D01*
X157930D01*
Y265406D01*
D02*
G37*
G36*
X153630D02*
X150330D01*
Y262105D01*
X153630D01*
Y265406D01*
D02*
G37*
G36*
X111930D02*
X108630D01*
Y262105D01*
X111930D01*
Y265406D01*
D02*
G37*
G36*
X107630D02*
X104330D01*
Y262105D01*
X107630D01*
Y265406D01*
D02*
G37*
G36*
X174130Y269738D02*
X173138Y269608D01*
X172213Y269225D01*
X171420Y268616D01*
X170811Y267822D01*
X170428Y266898D01*
X170297Y265905D01*
X170428Y264914D01*
X170811Y263989D01*
X171420Y263195D01*
X172213Y262586D01*
X173138Y262203D01*
X174130Y262073D01*
X175122Y262203D01*
X176046Y262586D01*
X176840Y263195D01*
X177449Y263989D01*
X177832Y264914D01*
X177963Y265905D01*
X177832Y266898D01*
X177449Y267822D01*
X176840Y268616D01*
X176046Y269225D01*
X175122Y269608D01*
X174130Y269738D01*
D02*
G37*
G36*
X164130D02*
X163138Y269608D01*
X162214Y269225D01*
X161420Y268616D01*
X160811Y267822D01*
X160428Y266898D01*
X160297Y265905D01*
X160428Y264914D01*
X160811Y263989D01*
X161420Y263195D01*
X162214Y262586D01*
X163138Y262203D01*
X164130Y262073D01*
X165122Y262203D01*
X166046Y262586D01*
X166840Y263195D01*
X167449Y263989D01*
X167832Y264914D01*
X167963Y265905D01*
X167832Y266898D01*
X167449Y267822D01*
X166840Y268616D01*
X166046Y269225D01*
X165122Y269608D01*
X164130Y269738D01*
D02*
G37*
G36*
X128130D02*
X127138Y269608D01*
X126214Y269225D01*
X125420Y268616D01*
X124811Y267822D01*
X124428Y266898D01*
X124297Y265905D01*
X124428Y264914D01*
X124811Y263989D01*
X125420Y263195D01*
X126214Y262586D01*
X127138Y262203D01*
X128130Y262073D01*
X129122Y262203D01*
X130046Y262586D01*
X130840Y263195D01*
X131449Y263989D01*
X131832Y264914D01*
X131963Y265905D01*
X131832Y266898D01*
X131449Y267822D01*
X130840Y268616D01*
X130046Y269225D01*
X129122Y269608D01*
X128130Y269738D01*
D02*
G37*
G36*
X118130D02*
X117138Y269608D01*
X116214Y269225D01*
X115420Y268616D01*
X114811Y267822D01*
X114428Y266898D01*
X114297Y265905D01*
X114428Y264914D01*
X114811Y263989D01*
X115420Y263195D01*
X116214Y262586D01*
X117138Y262203D01*
X118130Y262073D01*
X119122Y262203D01*
X120046Y262586D01*
X120840Y263195D01*
X121449Y263989D01*
X121832Y264914D01*
X121963Y265905D01*
X121832Y266898D01*
X121449Y267822D01*
X120840Y268616D01*
X120046Y269225D01*
X119122Y269608D01*
X118130Y269738D01*
D02*
G37*
G36*
X70500Y255779D02*
Y250500D01*
X75779D01*
X75716Y251137D01*
X75384Y252230D01*
X74846Y253238D01*
X74121Y254121D01*
X73238Y254846D01*
X72230Y255384D01*
X71137Y255716D01*
X70500Y255779D01*
D02*
G37*
G36*
X69500D02*
X68863Y255716D01*
X67770Y255384D01*
X66762Y254846D01*
X65879Y254121D01*
X65154Y253238D01*
X64616Y252230D01*
X64284Y251137D01*
X64221Y250500D01*
X69500D01*
Y255779D01*
D02*
G37*
G36*
X75779Y249500D02*
X70500D01*
Y244221D01*
X71137Y244284D01*
X72230Y244616D01*
X73238Y245154D01*
X74121Y245879D01*
X74846Y246762D01*
X75384Y247770D01*
X75716Y248863D01*
X75779Y249500D01*
D02*
G37*
G36*
X69500D02*
X64221D01*
X64284Y248863D01*
X64616Y247770D01*
X65154Y246762D01*
X65879Y245879D01*
X66762Y245154D01*
X67770Y244616D01*
X68863Y244284D01*
X69500Y244221D01*
Y249500D01*
D02*
G37*
G36*
X205500Y245779D02*
Y240500D01*
X210779D01*
X210716Y241137D01*
X210384Y242230D01*
X209846Y243238D01*
X209121Y244121D01*
X208238Y244846D01*
X207230Y245384D01*
X206137Y245716D01*
X205500Y245779D01*
D02*
G37*
G36*
X204500D02*
X203863Y245716D01*
X202770Y245384D01*
X201762Y244846D01*
X200879Y244121D01*
X200154Y243238D01*
X199616Y242230D01*
X199284Y241137D01*
X199221Y240500D01*
X204500D01*
Y245779D01*
D02*
G37*
G36*
X131500Y240090D02*
X130700Y239931D01*
X130022Y239478D01*
X129569Y238800D01*
X129410Y238000D01*
X129569Y237200D01*
X130022Y236522D01*
X130700Y236069D01*
X131500Y235910D01*
X132300Y236069D01*
X132978Y236522D01*
X133431Y237200D01*
X133590Y238000D01*
X133431Y238800D01*
X132978Y239478D01*
X132300Y239931D01*
X131500Y240090D01*
D02*
G37*
G36*
X210779Y239500D02*
X205500D01*
Y234221D01*
X206137Y234284D01*
X207230Y234616D01*
X208238Y235154D01*
X209121Y235879D01*
X209846Y236762D01*
X210384Y237770D01*
X210716Y238863D01*
X210779Y239500D01*
D02*
G37*
G36*
X204500D02*
X199221D01*
X199284Y238863D01*
X199616Y237770D01*
X200154Y236762D01*
X200879Y235879D01*
X201762Y235154D01*
X202770Y234616D01*
X203863Y234284D01*
X204500Y234221D01*
Y239500D01*
D02*
G37*
G36*
X356952Y232365D02*
X349033D01*
Y224446D01*
X356952D01*
Y232365D01*
D02*
G37*
G36*
X320500Y226539D02*
X319720Y226384D01*
X319058Y225942D01*
X318616Y225280D01*
X318461Y224500D01*
X318616Y223720D01*
X318242Y223442D01*
X317580Y223884D01*
X316800Y224039D01*
X316020Y223884D01*
X315358Y223442D01*
X314916Y222780D01*
X314761Y222000D01*
X314916Y221220D01*
X315358Y220558D01*
X316020Y220116D01*
X316800Y219961D01*
X317580Y220116D01*
X318242Y220558D01*
X318616Y220280D01*
X318461Y219500D01*
X318616Y218720D01*
X319058Y218058D01*
X319720Y217616D01*
X320500Y217461D01*
X321280Y217616D01*
X321942Y218058D01*
X322384Y218720D01*
X322539Y219500D01*
X322384Y220280D01*
X321942Y220942D01*
X321280Y221384D01*
X320500Y221539D01*
X319720Y221384D01*
X319058Y220942D01*
X318684Y221220D01*
X318839Y222000D01*
X318684Y222780D01*
X319058Y223058D01*
X319720Y222616D01*
X320500Y222461D01*
X321280Y222616D01*
X321942Y223058D01*
X322384Y223720D01*
X322539Y224500D01*
X322384Y225280D01*
X321942Y225942D01*
X321280Y226384D01*
X320500Y226539D01*
D02*
G37*
G36*
X370000Y229337D02*
X368666Y229205D01*
X367384Y228816D01*
X366202Y228185D01*
X365166Y227334D01*
X364315Y226298D01*
X363684Y225116D01*
X363295Y223834D01*
X363163Y222500D01*
X363295Y221166D01*
X363684Y219884D01*
X364315Y218702D01*
X365166Y217666D01*
X366202Y216815D01*
X367384Y216184D01*
X368666Y215794D01*
X370000Y215663D01*
X371334Y215794D01*
X372616Y216184D01*
X373798Y216815D01*
X374834Y217666D01*
X375685Y218702D01*
X376316Y219884D01*
X376706Y221166D01*
X376837Y222500D01*
X376706Y223834D01*
X376316Y225116D01*
X375685Y226298D01*
X374834Y227334D01*
X373798Y228185D01*
X372616Y228816D01*
X371334Y229205D01*
X370000Y229337D01*
D02*
G37*
G36*
X182500Y221039D02*
X181720Y220884D01*
X181058Y220442D01*
X180616Y219780D01*
X180461Y219000D01*
X180616Y218220D01*
X181058Y217558D01*
X181720Y217116D01*
X182500Y216961D01*
X183280Y217116D01*
X183618Y217342D01*
X184069Y217041D01*
X183961Y216500D01*
X184069Y215959D01*
X183618Y215658D01*
X183280Y215884D01*
X182500Y216039D01*
X181720Y215884D01*
X181058Y215442D01*
X180616Y214780D01*
X180461Y214000D01*
X180616Y213220D01*
X181058Y212558D01*
X181720Y212116D01*
X182500Y211961D01*
X183279Y212116D01*
X183283Y212113D01*
X183597Y211726D01*
X183210Y211148D01*
X183055Y210367D01*
X183185Y209715D01*
X182850Y209417D01*
X182780Y209384D01*
X182000Y209539D01*
X181220Y209384D01*
X180558Y208942D01*
X180116Y208280D01*
X179961Y207500D01*
X180116Y206720D01*
X180558Y206058D01*
X181220Y205616D01*
X182000Y205461D01*
X182780Y205616D01*
X183442Y206058D01*
X183884Y206720D01*
X184039Y207500D01*
X183909Y208152D01*
X184245Y208451D01*
X184315Y208483D01*
X185094Y208328D01*
X185875Y208484D01*
X186536Y208926D01*
X186978Y209587D01*
X187133Y210367D01*
X186978Y211148D01*
X186536Y211809D01*
X185875Y212251D01*
X185094Y212407D01*
X184315Y212252D01*
X184311Y212255D01*
X183998Y212642D01*
X184384Y213220D01*
X184539Y214000D01*
X184432Y214541D01*
X184881Y214842D01*
X185220Y214616D01*
X186000Y214461D01*
X186780Y214616D01*
X187442Y215058D01*
X187884Y215720D01*
X188039Y216500D01*
X187884Y217280D01*
X187442Y217942D01*
X186780Y218384D01*
X186000Y218539D01*
X185220Y218384D01*
X184881Y218158D01*
X184432Y218459D01*
X184539Y219000D01*
X184384Y219780D01*
X183942Y220442D01*
X183280Y220884D01*
X182500Y221039D01*
D02*
G37*
G36*
X45000Y219039D02*
X44220Y218884D01*
X43558Y218442D01*
X43116Y217780D01*
X42961Y217000D01*
X43116Y216220D01*
X43558Y215558D01*
X44220Y215116D01*
X45000Y214961D01*
X45780Y215116D01*
X46442Y215558D01*
X46884Y216220D01*
X47039Y217000D01*
X46884Y217780D01*
X46442Y218442D01*
X45780Y218884D01*
X45000Y219039D01*
D02*
G37*
G36*
X344000Y215039D02*
X343220Y214884D01*
X342558Y214442D01*
X342300Y214056D01*
X341700D01*
X341442Y214442D01*
X340780Y214884D01*
X340000Y215039D01*
X339220Y214884D01*
X338558Y214442D01*
X338300Y214056D01*
X337700D01*
X337442Y214442D01*
X336780Y214884D01*
X336000Y215039D01*
X335220Y214884D01*
X334558Y214442D01*
X334116Y213780D01*
X333961Y213000D01*
X334116Y212220D01*
X334558Y211558D01*
X335220Y211116D01*
X336000Y210961D01*
X336780Y211116D01*
X337442Y211558D01*
X337700Y211944D01*
X338300D01*
X338558Y211558D01*
X339220Y211116D01*
X340000Y210961D01*
X340780Y211116D01*
X341442Y211558D01*
X341700Y211944D01*
X342300D01*
X342558Y211558D01*
X343220Y211116D01*
X344000Y210961D01*
X344780Y211116D01*
X345442Y211558D01*
X345884Y212220D01*
X346039Y213000D01*
X345884Y213780D01*
X345442Y214442D01*
X344780Y214884D01*
X344000Y215039D01*
D02*
G37*
G36*
X352992Y220588D02*
X351958Y220452D01*
X350995Y220053D01*
X350168Y219418D01*
X349534Y218591D01*
X349135Y217628D01*
X348998Y216595D01*
X349135Y215561D01*
X349534Y214598D01*
X350168Y213771D01*
X350995Y213136D01*
X351958Y212737D01*
X352992Y212601D01*
X354026Y212737D01*
X354989Y213136D01*
X355816Y213771D01*
X356451Y214598D01*
X356850Y215561D01*
X356986Y216595D01*
X356850Y217628D01*
X356451Y218591D01*
X355816Y219418D01*
X354989Y220053D01*
X354026Y220452D01*
X352992Y220588D01*
D02*
G37*
G36*
X310000Y213039D02*
X309220Y212884D01*
X308558Y212442D01*
X308116Y211780D01*
X307961Y211000D01*
X307988Y210863D01*
X304451Y207326D01*
X272520D01*
X272442Y207442D01*
X271780Y207884D01*
X271000Y208039D01*
X270220Y207884D01*
X269558Y207442D01*
X269116Y206780D01*
X268961Y206000D01*
X269116Y205220D01*
X269558Y204558D01*
X270220Y204116D01*
X271000Y203961D01*
X271780Y204116D01*
X272442Y204558D01*
X272520Y204675D01*
X305000D01*
X305507Y204775D01*
X305937Y205063D01*
X309863Y208988D01*
X310000Y208961D01*
X310780Y209116D01*
X311442Y209558D01*
X311884Y210220D01*
X312039Y211000D01*
X311884Y211780D01*
X311442Y212442D01*
X310780Y212884D01*
X310000Y213039D01*
D02*
G37*
G36*
X209883Y215658D02*
X202377D01*
Y208153D01*
X209883D01*
Y215658D01*
D02*
G37*
G36*
X59000Y210039D02*
X58220Y209884D01*
X57558Y209442D01*
X57116Y208780D01*
X56961Y208000D01*
X57116Y207220D01*
X57558Y206558D01*
X58220Y206116D01*
X59000Y205961D01*
X59780Y206116D01*
X60442Y206558D01*
X60884Y207220D01*
X61039Y208000D01*
X60884Y208780D01*
X60442Y209442D01*
X59780Y209884D01*
X59000Y210039D01*
D02*
G37*
G36*
X189000Y208039D02*
X188220Y207884D01*
X187558Y207442D01*
X187116Y206780D01*
X186961Y206000D01*
X187116Y205220D01*
X187558Y204558D01*
X188220Y204116D01*
X189000Y203961D01*
X189780Y204116D01*
X190442Y204558D01*
X190884Y205220D01*
X191039Y206000D01*
X190884Y206780D01*
X190442Y207442D01*
X189780Y207884D01*
X189000Y208039D01*
D02*
G37*
G36*
X156000Y203539D02*
X155220Y203384D01*
X154558Y202942D01*
X154116Y202280D01*
X153961Y201500D01*
X154116Y200720D01*
X154558Y200058D01*
X155220Y199616D01*
X156000Y199461D01*
X156780Y199616D01*
X157442Y200058D01*
X157884Y200720D01*
X158039Y201500D01*
X157884Y202280D01*
X157442Y202942D01*
X156780Y203384D01*
X156000Y203539D01*
D02*
G37*
G36*
X151000D02*
X150220Y203384D01*
X149558Y202942D01*
X149116Y202280D01*
X148961Y201500D01*
X149116Y200720D01*
X149558Y200058D01*
X150220Y199616D01*
X151000Y199461D01*
X151780Y199616D01*
X152442Y200058D01*
X152884Y200720D01*
X153039Y201500D01*
X152884Y202280D01*
X152442Y202942D01*
X151780Y203384D01*
X151000Y203539D01*
D02*
G37*
G36*
X191000Y203039D02*
X190220Y202884D01*
X189558Y202442D01*
X189116Y201780D01*
X188961Y201000D01*
X189116Y200220D01*
X189558Y199558D01*
X190220Y199116D01*
X191000Y198961D01*
X191780Y199116D01*
X192442Y199558D01*
X192884Y200220D01*
X193039Y201000D01*
X192884Y201780D01*
X192442Y202442D01*
X191780Y202884D01*
X191000Y203039D01*
D02*
G37*
G36*
X206130Y205691D02*
X205150Y205562D01*
X204237Y205184D01*
X203453Y204582D01*
X202852Y203798D01*
X202474Y202885D01*
X202345Y201905D01*
X202474Y200926D01*
X202852Y200013D01*
X203453Y199229D01*
X204237Y198627D01*
X205150Y198249D01*
X206130Y198120D01*
X207110Y198249D01*
X208022Y198627D01*
X208806Y199229D01*
X209408Y200013D01*
X209786Y200926D01*
X209915Y201905D01*
X209786Y202885D01*
X209408Y203798D01*
X208806Y204582D01*
X208022Y205184D01*
X207110Y205562D01*
X206130Y205691D01*
D02*
G37*
G36*
X109260Y204569D02*
X108398Y204455D01*
X107596Y204123D01*
X106906Y203594D01*
X106377Y202904D01*
X106045Y202102D01*
X105931Y201240D01*
X106045Y200379D01*
X106377Y199576D01*
X106906Y198887D01*
X107596Y198358D01*
X108398Y198025D01*
X109260Y197912D01*
X110121Y198025D01*
X110924Y198358D01*
X111613Y198887D01*
X112142Y199576D01*
X112475Y200379D01*
X112588Y201240D01*
X112475Y202102D01*
X112142Y202904D01*
X111613Y203594D01*
X110924Y204123D01*
X110121Y204455D01*
X109260Y204569D01*
D02*
G37*
G36*
X101260D02*
X100398Y204455D01*
X99596Y204123D01*
X98906Y203594D01*
X98377Y202904D01*
X98045Y202102D01*
X97931Y201240D01*
X98045Y200379D01*
X98377Y199576D01*
X98906Y198887D01*
X99596Y198358D01*
X100398Y198025D01*
X101260Y197912D01*
X102121Y198025D01*
X102924Y198358D01*
X103613Y198887D01*
X104142Y199576D01*
X104475Y200379D01*
X104588Y201240D01*
X104475Y202102D01*
X104142Y202904D01*
X103613Y203594D01*
X102924Y204123D01*
X102121Y204455D01*
X101260Y204569D01*
D02*
G37*
G36*
X93260D02*
X92398Y204455D01*
X91596Y204123D01*
X90906Y203594D01*
X90377Y202904D01*
X90045Y202102D01*
X89931Y201240D01*
X90045Y200379D01*
X90377Y199576D01*
X90906Y198887D01*
X91596Y198358D01*
X92398Y198025D01*
X93260Y197912D01*
X94121Y198025D01*
X94924Y198358D01*
X95613Y198887D01*
X96142Y199576D01*
X96475Y200379D01*
X96588Y201240D01*
X96475Y202102D01*
X96142Y202904D01*
X95613Y203594D01*
X94924Y204123D01*
X94121Y204455D01*
X93260Y204569D01*
D02*
G37*
G36*
X237000Y205828D02*
X235863Y205716D01*
X234770Y205384D01*
X233762Y204846D01*
X232879Y204121D01*
X232154Y203238D01*
X231616Y202230D01*
X231284Y201137D01*
X231172Y200000D01*
X231284Y198863D01*
X231616Y197770D01*
X232154Y196762D01*
X232879Y195879D01*
X233762Y195154D01*
X234770Y194616D01*
X235863Y194284D01*
X237000Y194172D01*
X238137Y194284D01*
X239230Y194616D01*
X240238Y195154D01*
X241121Y195879D01*
X241846Y196762D01*
X242384Y197770D01*
X242716Y198863D01*
X242828Y200000D01*
X242716Y201137D01*
X242384Y202230D01*
X241846Y203238D01*
X241121Y204121D01*
X240238Y204846D01*
X239230Y205384D01*
X238137Y205716D01*
X237000Y205828D01*
D02*
G37*
G36*
X179000Y196539D02*
X178220Y196384D01*
X177558Y195942D01*
X177116Y195280D01*
X176961Y194500D01*
X177116Y193720D01*
X177558Y193058D01*
X178220Y192616D01*
X179000Y192461D01*
X179780Y192616D01*
X180442Y193058D01*
X180884Y193720D01*
X181039Y194500D01*
X180884Y195280D01*
X180442Y195942D01*
X179780Y196384D01*
X179000Y196539D01*
D02*
G37*
G36*
X206630Y195625D02*
Y192405D01*
X209849D01*
X209786Y192885D01*
X209408Y193798D01*
X208806Y194582D01*
X208022Y195184D01*
X207110Y195562D01*
X206630Y195625D01*
D02*
G37*
G36*
X205630D02*
X205150Y195562D01*
X204237Y195184D01*
X203453Y194582D01*
X202852Y193798D01*
X202474Y192885D01*
X202411Y192405D01*
X205630D01*
Y195625D01*
D02*
G37*
G36*
X169500Y195539D02*
X168720Y195384D01*
X168058Y194942D01*
X167616Y194280D01*
X167461Y193500D01*
X167616Y192720D01*
X168058Y192058D01*
X168720Y191616D01*
X169500Y191461D01*
X170280Y191616D01*
X170942Y192058D01*
X171384Y192720D01*
X171539Y193500D01*
X171384Y194280D01*
X170942Y194942D01*
X170280Y195384D01*
X169500Y195539D01*
D02*
G37*
G36*
X185000Y193039D02*
X184220Y192884D01*
X183558Y192442D01*
X183116Y191780D01*
X182961Y191000D01*
X183107Y190267D01*
X182938Y190062D01*
X182733Y189893D01*
X182000Y190039D01*
X181220Y189884D01*
X180558Y189442D01*
X180116Y188780D01*
X179961Y188000D01*
X180116Y187220D01*
X180558Y186558D01*
X181220Y186116D01*
X182000Y185961D01*
X182780Y186116D01*
X183442Y186558D01*
X183884Y187220D01*
X184039Y188000D01*
X183894Y188733D01*
X184062Y188938D01*
X184267Y189107D01*
X185000Y188961D01*
X185780Y189116D01*
X186442Y189558D01*
X186884Y190220D01*
X187039Y191000D01*
X186884Y191780D01*
X186442Y192442D01*
X185780Y192884D01*
X185000Y193039D01*
D02*
G37*
G36*
X175500D02*
X174720Y192884D01*
X174058Y192442D01*
X173616Y191780D01*
X173461Y191000D01*
X173616Y190220D01*
X174058Y189558D01*
X174720Y189116D01*
X175500Y188961D01*
X176280Y189116D01*
X176942Y189558D01*
X177384Y190220D01*
X177539Y191000D01*
X177384Y191780D01*
X176942Y192442D01*
X176280Y192884D01*
X175500Y193039D01*
D02*
G37*
G36*
X205630Y191405D02*
X202411D01*
X202474Y190926D01*
X202852Y190013D01*
X203453Y189229D01*
X204237Y188628D01*
X205150Y188249D01*
X205630Y188186D01*
Y191405D01*
D02*
G37*
G36*
X209849D02*
X206630D01*
Y188186D01*
X207110Y188249D01*
X208022Y188628D01*
X208806Y189229D01*
X209408Y190013D01*
X209786Y190926D01*
X209849Y191405D01*
D02*
G37*
G36*
X170500Y190539D02*
X169720Y190384D01*
X169058Y189942D01*
X168616Y189280D01*
X168461Y188500D01*
X168616Y187720D01*
X169058Y187058D01*
X169720Y186616D01*
X170500Y186461D01*
X171280Y186616D01*
X171942Y187058D01*
X172384Y187720D01*
X172539Y188500D01*
X172384Y189280D01*
X171942Y189942D01*
X171280Y190384D01*
X170500Y190539D01*
D02*
G37*
G36*
X154000Y187539D02*
X153220Y187384D01*
X152558Y186942D01*
X152116Y186280D01*
X151961Y185500D01*
X152116Y184720D01*
X152558Y184058D01*
X153220Y183616D01*
X154000Y183461D01*
X154780Y183616D01*
X155442Y184058D01*
X155884Y184720D01*
X156039Y185500D01*
X155884Y186280D01*
X155442Y186942D01*
X154780Y187384D01*
X154000Y187539D01*
D02*
G37*
G36*
X64000Y186039D02*
X63220Y185884D01*
X62558Y185442D01*
X62116Y184780D01*
X61961Y184000D01*
X62116Y183220D01*
X62558Y182558D01*
X63220Y182116D01*
X64000Y181961D01*
X64780Y182116D01*
X65442Y182558D01*
X65884Y183220D01*
X66039Y184000D01*
X65884Y184780D01*
X65442Y185442D01*
X64780Y185884D01*
X64000Y186039D01*
D02*
G37*
G36*
X360130Y195238D02*
X358797Y195107D01*
X357515Y194718D01*
X356334Y194087D01*
X355298Y193237D01*
X354449Y192202D01*
X353817Y191020D01*
X353428Y189739D01*
X353297Y188406D01*
X353428Y187073D01*
X353817Y185791D01*
X354449Y184609D01*
X355298Y183574D01*
X356334Y182724D01*
X357515Y182093D01*
X358797Y181704D01*
X360130Y181573D01*
X361463Y181704D01*
X362745Y182093D01*
X363926Y182724D01*
X364962Y183574D01*
X365811Y184609D01*
X366443Y185791D01*
X366831Y187073D01*
X366963Y188406D01*
X366831Y189739D01*
X366443Y191020D01*
X365811Y192202D01*
X364962Y193237D01*
X363926Y194087D01*
X362745Y194718D01*
X361463Y195107D01*
X360130Y195238D01*
D02*
G37*
G36*
X290130D02*
X288797Y195107D01*
X287515Y194718D01*
X286334Y194087D01*
X285298Y193237D01*
X284449Y192202D01*
X283817Y191020D01*
X283428Y189739D01*
X283297Y188406D01*
X283428Y187073D01*
X283817Y185791D01*
X284449Y184609D01*
X285298Y183574D01*
X286334Y182724D01*
X287515Y182093D01*
X288797Y181704D01*
X290130Y181573D01*
X291463Y181704D01*
X292745Y182093D01*
X293926Y182724D01*
X294962Y183574D01*
X295811Y184609D01*
X296443Y185791D01*
X296831Y187073D01*
X296963Y188406D01*
X296831Y189739D01*
X296443Y191020D01*
X295811Y192202D01*
X294962Y193237D01*
X293926Y194087D01*
X292745Y194718D01*
X291463Y195107D01*
X290130Y195238D01*
D02*
G37*
G36*
X206130Y185691D02*
X205150Y185562D01*
X204237Y185184D01*
X203453Y184582D01*
X202852Y183798D01*
X202474Y182885D01*
X202345Y181905D01*
X202474Y180926D01*
X202852Y180013D01*
X203453Y179229D01*
X204237Y178628D01*
X205150Y178249D01*
X206130Y178120D01*
X207110Y178249D01*
X208022Y178628D01*
X208806Y179229D01*
X209408Y180013D01*
X209786Y180926D01*
X209915Y181905D01*
X209786Y182885D01*
X209408Y183798D01*
X208806Y184582D01*
X208022Y185184D01*
X207110Y185562D01*
X206130Y185691D01*
D02*
G37*
G36*
X172825Y176190D02*
X172025Y176031D01*
X171346Y175578D01*
X170893Y174900D01*
X170734Y174100D01*
X170893Y173300D01*
X171346Y172622D01*
X172025Y172169D01*
X172825Y172010D01*
X173624Y172169D01*
X174302Y172622D01*
X174756Y173300D01*
X174915Y174100D01*
X174756Y174900D01*
X174302Y175578D01*
X173624Y176031D01*
X172825Y176190D01*
D02*
G37*
G36*
X198800Y171939D02*
X198020Y171784D01*
X197358Y171342D01*
X196916Y170680D01*
X196761Y169900D01*
X196916Y169120D01*
X197358Y168458D01*
X198020Y168016D01*
X198800Y167861D01*
X199580Y168016D01*
X200242Y168458D01*
X200684Y169120D01*
X200839Y169900D01*
X200684Y170680D01*
X200242Y171342D01*
X199580Y171784D01*
X198800Y171939D01*
D02*
G37*
G36*
X193800D02*
X193020Y171784D01*
X192358Y171342D01*
X191916Y170680D01*
X191761Y169900D01*
X191916Y169120D01*
X192358Y168458D01*
X193020Y168016D01*
X193800Y167861D01*
X194580Y168016D01*
X195242Y168458D01*
X195684Y169120D01*
X195839Y169900D01*
X195684Y170680D01*
X195242Y171342D01*
X194580Y171784D01*
X193800Y171939D01*
D02*
G37*
G36*
X214200Y165339D02*
X213420Y165184D01*
X212758Y164742D01*
X212316Y164080D01*
X212161Y163300D01*
X212316Y162520D01*
X212758Y161858D01*
X213420Y161416D01*
X214200Y161261D01*
X214980Y161416D01*
X215642Y161858D01*
X216084Y162520D01*
X216239Y163300D01*
X216084Y164080D01*
X215642Y164742D01*
X214980Y165184D01*
X214200Y165339D01*
D02*
G37*
G36*
X335500Y165779D02*
Y160500D01*
X340779D01*
X340716Y161137D01*
X340384Y162230D01*
X339846Y163238D01*
X339121Y164121D01*
X338238Y164846D01*
X337230Y165384D01*
X336137Y165716D01*
X335500Y165779D01*
D02*
G37*
G36*
X334500D02*
X333863Y165716D01*
X332770Y165384D01*
X331762Y164846D01*
X330879Y164121D01*
X330154Y163238D01*
X329616Y162230D01*
X329284Y161137D01*
X329221Y160500D01*
X334500D01*
Y165779D01*
D02*
G37*
G36*
X163500Y163490D02*
X162700Y163331D01*
X162022Y162878D01*
X161569Y162200D01*
X161410Y161400D01*
X161569Y160600D01*
X162022Y159922D01*
X162700Y159469D01*
X163500Y159310D01*
X164300Y159469D01*
X164978Y159922D01*
X165431Y160600D01*
X165590Y161400D01*
X165431Y162200D01*
X164978Y162878D01*
X164300Y163331D01*
X163500Y163490D01*
D02*
G37*
G36*
X340779Y159500D02*
X335500D01*
Y154221D01*
X336137Y154284D01*
X337230Y154616D01*
X338238Y155154D01*
X339121Y155879D01*
X339846Y156762D01*
X340384Y157770D01*
X340716Y158863D01*
X340779Y159500D01*
D02*
G37*
G36*
X334500D02*
X329221D01*
X329284Y158863D01*
X329616Y157770D01*
X330154Y156762D01*
X330879Y155879D01*
X331762Y155154D01*
X332770Y154616D01*
X333863Y154284D01*
X334500Y154221D01*
Y159500D01*
D02*
G37*
G36*
X365000Y165828D02*
X363863Y165716D01*
X362770Y165384D01*
X361762Y164846D01*
X360879Y164121D01*
X360154Y163238D01*
X359616Y162230D01*
X359284Y161137D01*
X359172Y160000D01*
X359284Y158863D01*
X359616Y157770D01*
X360154Y156762D01*
X360879Y155879D01*
X361762Y155154D01*
X362770Y154616D01*
X363863Y154284D01*
X365000Y154172D01*
X366137Y154284D01*
X367230Y154616D01*
X368238Y155154D01*
X369121Y155879D01*
X369846Y156762D01*
X370384Y157770D01*
X370716Y158863D01*
X370828Y160000D01*
X370716Y161137D01*
X370384Y162230D01*
X369846Y163238D01*
X369121Y164121D01*
X368238Y164846D01*
X367230Y165384D01*
X366137Y165716D01*
X365000Y165828D01*
D02*
G37*
G36*
X104000Y155539D02*
X103220Y155384D01*
X102558Y154942D01*
X102116Y154280D01*
X101961Y153500D01*
X102116Y152720D01*
X102558Y152058D01*
X103220Y151616D01*
X104000Y151461D01*
X104780Y151616D01*
X105442Y152058D01*
X105884Y152720D01*
X106039Y153500D01*
X105884Y154280D01*
X105442Y154942D01*
X104780Y155384D01*
X104000Y155539D01*
D02*
G37*
G36*
X206200Y154439D02*
X205420Y154284D01*
X204758Y153842D01*
X204316Y153180D01*
X204161Y152400D01*
X204316Y151620D01*
X204758Y150958D01*
X205420Y150516D01*
X206200Y150361D01*
X206980Y150516D01*
X207642Y150958D01*
X208084Y151620D01*
X208239Y152400D01*
X208084Y153180D01*
X207642Y153842D01*
X206980Y154284D01*
X206200Y154439D01*
D02*
G37*
G36*
X216000Y159828D02*
X214863Y159716D01*
X213770Y159384D01*
X212762Y158846D01*
X211879Y158121D01*
X211154Y157238D01*
X210616Y156230D01*
X210284Y155137D01*
X210172Y154000D01*
X210284Y152863D01*
X210616Y151770D01*
X211154Y150762D01*
X211879Y149879D01*
X212762Y149154D01*
X213770Y148616D01*
X214863Y148284D01*
X216000Y148172D01*
X217137Y148284D01*
X218230Y148616D01*
X219238Y149154D01*
X220121Y149879D01*
X220846Y150762D01*
X221384Y151770D01*
X221716Y152863D01*
X221828Y154000D01*
X221716Y155137D01*
X221384Y156230D01*
X220846Y157238D01*
X220121Y158121D01*
X219238Y158846D01*
X218230Y159384D01*
X217137Y159716D01*
X216000Y159828D01*
D02*
G37*
G36*
X112500Y152039D02*
X111720Y151884D01*
X111058Y151442D01*
X110616Y150780D01*
X110461Y150000D01*
X110616Y149220D01*
X111058Y148558D01*
X111720Y148116D01*
X112500Y147961D01*
X113280Y148116D01*
X113942Y148558D01*
X114384Y149220D01*
X114539Y150000D01*
X114384Y150780D01*
X113942Y151442D01*
X113280Y151884D01*
X112500Y152039D01*
D02*
G37*
G36*
X183700Y150539D02*
X182920Y150384D01*
X182258Y149942D01*
X181816Y149280D01*
X181661Y148500D01*
X181816Y147720D01*
X182258Y147058D01*
X182920Y146616D01*
X183700Y146461D01*
X184480Y146616D01*
X185142Y147058D01*
X185584Y147720D01*
X185739Y148500D01*
X185584Y149280D01*
X185142Y149942D01*
X184480Y150384D01*
X183700Y150539D01*
D02*
G37*
G36*
X148000Y150039D02*
X147220Y149884D01*
X146558Y149442D01*
X146116Y148780D01*
X145961Y148000D01*
X146116Y147220D01*
X146558Y146558D01*
X147220Y146116D01*
X148000Y145961D01*
X148780Y146116D01*
X149442Y146558D01*
X149884Y147220D01*
X150039Y148000D01*
X149884Y148780D01*
X149442Y149442D01*
X148780Y149884D01*
X148000Y150039D01*
D02*
G37*
G36*
X104000Y148539D02*
X103220Y148384D01*
X102558Y147942D01*
X102116Y147280D01*
X101961Y146500D01*
X102116Y145720D01*
X102558Y145058D01*
X103220Y144616D01*
X104000Y144461D01*
X104780Y144616D01*
X105442Y145058D01*
X105884Y145720D01*
X106039Y146500D01*
X105884Y147280D01*
X105442Y147942D01*
X104780Y148384D01*
X104000Y148539D01*
D02*
G37*
G36*
X208000Y145039D02*
X207220Y144884D01*
X206558Y144442D01*
X206116Y143780D01*
X205961Y143000D01*
X206116Y142220D01*
X206558Y141558D01*
X207220Y141116D01*
X208000Y140961D01*
X208780Y141116D01*
X209442Y141558D01*
X209884Y142220D01*
X210039Y143000D01*
X209884Y143780D01*
X209442Y144442D01*
X208780Y144884D01*
X208000Y145039D01*
D02*
G37*
G36*
X140000D02*
X139220Y144884D01*
X138558Y144442D01*
X138116Y143780D01*
X137961Y143000D01*
X138116Y142220D01*
X138558Y141558D01*
X139220Y141116D01*
X140000Y140961D01*
X140780Y141116D01*
X141442Y141558D01*
X141884Y142220D01*
X142039Y143000D01*
X141884Y143780D01*
X141442Y144442D01*
X140780Y144884D01*
X140000Y145039D01*
D02*
G37*
G36*
X135000D02*
X134220Y144884D01*
X133558Y144442D01*
X133116Y143780D01*
X132961Y143000D01*
X133116Y142220D01*
X133558Y141558D01*
X134220Y141116D01*
X135000Y140961D01*
X135780Y141116D01*
X136442Y141558D01*
X136884Y142220D01*
X137039Y143000D01*
X136884Y143780D01*
X136442Y144442D01*
X135780Y144884D01*
X135000Y145039D01*
D02*
G37*
G36*
X202203Y144814D02*
X201423Y144659D01*
X200761Y144216D01*
X200319Y143555D01*
X200164Y142774D01*
X200319Y141994D01*
X200761Y141333D01*
X201423Y140891D01*
X202203Y140735D01*
X202983Y140891D01*
X203645Y141333D01*
X204087Y141994D01*
X204242Y142774D01*
X204087Y143555D01*
X203645Y144216D01*
X202983Y144659D01*
X202203Y144814D01*
D02*
G37*
G36*
X38000Y142539D02*
X37220Y142384D01*
X36558Y141942D01*
X36116Y141280D01*
X35961Y140500D01*
X36116Y139720D01*
X36558Y139058D01*
X37220Y138616D01*
X38000Y138461D01*
X38780Y138616D01*
X39442Y139058D01*
X39884Y139720D01*
X40039Y140500D01*
X39884Y141280D01*
X39442Y141942D01*
X38780Y142384D01*
X38000Y142539D01*
D02*
G37*
G36*
X64500Y130039D02*
X63720Y129884D01*
X63058Y129442D01*
X62616Y128780D01*
X62461Y128000D01*
X62616Y127220D01*
X63058Y126558D01*
X63720Y126116D01*
X64500Y125961D01*
X65280Y126116D01*
X65942Y126558D01*
X66384Y127220D01*
X66539Y128000D01*
X66384Y128780D01*
X65942Y129442D01*
X65280Y129884D01*
X64500Y130039D01*
D02*
G37*
G36*
X56500Y129539D02*
X55720Y129384D01*
X55058Y128942D01*
X54616Y128280D01*
X54461Y127500D01*
X54616Y126720D01*
X55058Y126058D01*
X55720Y125616D01*
X56500Y125461D01*
X57280Y125616D01*
X57942Y126058D01*
X58384Y126720D01*
X58539Y127500D01*
X58384Y128280D01*
X57942Y128942D01*
X57280Y129384D01*
X56500Y129539D01*
D02*
G37*
G36*
X365000Y135828D02*
X363863Y135716D01*
X362770Y135384D01*
X361762Y134846D01*
X360879Y134121D01*
X360154Y133238D01*
X359616Y132230D01*
X359284Y131137D01*
X359172Y130000D01*
X359284Y128863D01*
X359616Y127770D01*
X360154Y126762D01*
X360879Y125879D01*
X361762Y125154D01*
X362770Y124616D01*
X363863Y124284D01*
X365000Y124172D01*
X366137Y124284D01*
X367230Y124616D01*
X368238Y125154D01*
X369121Y125879D01*
X369846Y126762D01*
X370384Y127770D01*
X370716Y128863D01*
X370828Y130000D01*
X370716Y131137D01*
X370384Y132230D01*
X369846Y133238D01*
X369121Y134121D01*
X368238Y134846D01*
X367230Y135384D01*
X366137Y135716D01*
X365000Y135828D01*
D02*
G37*
G36*
X335000D02*
X333863Y135716D01*
X332770Y135384D01*
X331762Y134846D01*
X330879Y134121D01*
X330154Y133238D01*
X329616Y132230D01*
X329284Y131137D01*
X329172Y130000D01*
X329284Y128863D01*
X329616Y127770D01*
X330154Y126762D01*
X330879Y125879D01*
X331762Y125154D01*
X332770Y124616D01*
X333863Y124284D01*
X335000Y124172D01*
X336137Y124284D01*
X337230Y124616D01*
X338238Y125154D01*
X339121Y125879D01*
X339846Y126762D01*
X340384Y127770D01*
X340716Y128863D01*
X340828Y130000D01*
X340716Y131137D01*
X340384Y132230D01*
X339846Y133238D01*
X339121Y134121D01*
X338238Y134846D01*
X337230Y135384D01*
X336137Y135716D01*
X335000Y135828D01*
D02*
G37*
G36*
X68000Y126539D02*
X67220Y126384D01*
X66558Y125942D01*
X66116Y125280D01*
X65961Y124500D01*
X66116Y123720D01*
X66558Y123058D01*
X67220Y122616D01*
X68000Y122461D01*
X68780Y122616D01*
X69442Y123058D01*
X69884Y123720D01*
X70039Y124500D01*
X69884Y125280D01*
X69442Y125942D01*
X68780Y126384D01*
X68000Y126539D01*
D02*
G37*
G36*
X98309Y122100D02*
X85710D01*
Y109500D01*
X98309D01*
Y122100D01*
D02*
G37*
G36*
X138781Y122131D02*
X137546Y122009D01*
X136358Y121649D01*
X135264Y121064D01*
X134305Y120276D01*
X133518Y119317D01*
X132932Y118223D01*
X132572Y117035D01*
X132451Y115800D01*
X132572Y114565D01*
X132932Y113377D01*
X133518Y112283D01*
X134305Y111324D01*
X135264Y110536D01*
X136358Y109951D01*
X137546Y109591D01*
X138781Y109469D01*
X140016Y109591D01*
X141204Y109951D01*
X142298Y110536D01*
X143257Y111324D01*
X144045Y112283D01*
X144630Y113377D01*
X144990Y114565D01*
X145112Y115800D01*
X144990Y117035D01*
X144630Y118223D01*
X144045Y119317D01*
X143257Y120276D01*
X142298Y121064D01*
X141204Y121649D01*
X140016Y122009D01*
X138781Y122131D01*
D02*
G37*
G36*
X123191D02*
X121956Y122009D01*
X120768Y121649D01*
X119674Y121064D01*
X118714Y120276D01*
X117927Y119317D01*
X117342Y118223D01*
X116982Y117035D01*
X116860Y115800D01*
X116982Y114565D01*
X117342Y113377D01*
X117927Y112283D01*
X118714Y111324D01*
X119674Y110536D01*
X120768Y109951D01*
X121956Y109591D01*
X123191Y109469D01*
X124426Y109591D01*
X125613Y109951D01*
X126708Y110536D01*
X127667Y111324D01*
X128454Y112283D01*
X129039Y113377D01*
X129399Y114565D01*
X129521Y115800D01*
X129399Y117035D01*
X129039Y118223D01*
X128454Y119317D01*
X127667Y120276D01*
X126708Y121064D01*
X125613Y121649D01*
X124426Y122009D01*
X123191Y122131D01*
D02*
G37*
G36*
X107600D02*
X106365Y122009D01*
X105177Y121649D01*
X104083Y121064D01*
X103124Y120276D01*
X102336Y119317D01*
X101751Y118223D01*
X101391Y117035D01*
X101269Y115800D01*
X101391Y114565D01*
X101751Y113377D01*
X102336Y112283D01*
X103124Y111324D01*
X104083Y110536D01*
X105177Y109951D01*
X106365Y109591D01*
X107600Y109469D01*
X108835Y109591D01*
X110023Y109951D01*
X111117Y110536D01*
X112076Y111324D01*
X112864Y112283D01*
X113449Y113377D01*
X113809Y114565D01*
X113930Y115800D01*
X113809Y117035D01*
X113449Y118223D01*
X112864Y119317D01*
X112076Y120276D01*
X111117Y121064D01*
X110023Y121649D01*
X108835Y122009D01*
X107600Y122131D01*
D02*
G37*
G36*
X144687Y109544D02*
X143758Y109422D01*
X142893Y109064D01*
X142150Y108494D01*
X141580Y107751D01*
X141222Y106886D01*
X141100Y105957D01*
X141222Y105029D01*
X141580Y104164D01*
X142150Y103421D01*
X142893Y102851D01*
X143758Y102493D01*
X144687Y102371D01*
X145615Y102493D01*
X146480Y102851D01*
X147223Y103421D01*
X147793Y104164D01*
X148151Y105029D01*
X148273Y105957D01*
X148151Y106886D01*
X147793Y107751D01*
X147223Y108494D01*
X146480Y109064D01*
X145615Y109422D01*
X144687Y109544D01*
D02*
G37*
G36*
X232100Y122939D02*
X231320Y122784D01*
X230658Y122342D01*
X230216Y121680D01*
X230061Y120900D01*
X230216Y120120D01*
X230658Y119458D01*
X231320Y119016D01*
X232100Y118861D01*
X232237Y118888D01*
X248988Y102137D01*
X248961Y102000D01*
X249116Y101220D01*
X249558Y100558D01*
X250220Y100116D01*
X251000Y99961D01*
X251780Y100116D01*
X252442Y100558D01*
X252884Y101220D01*
X253039Y102000D01*
X252884Y102780D01*
X252442Y103442D01*
X251780Y103884D01*
X251000Y104039D01*
X250863Y104012D01*
X234112Y120763D01*
X234139Y120900D01*
X233984Y121680D01*
X233542Y122342D01*
X232880Y122784D01*
X232100Y122939D01*
D02*
G37*
G36*
X335500Y100779D02*
Y95500D01*
X340779D01*
X340716Y96137D01*
X340384Y97230D01*
X339846Y98238D01*
X339121Y99121D01*
X338238Y99846D01*
X337230Y100384D01*
X336137Y100716D01*
X335500Y100779D01*
D02*
G37*
G36*
X334500D02*
X333863Y100716D01*
X332770Y100384D01*
X331762Y99846D01*
X330879Y99121D01*
X330154Y98238D01*
X329616Y97230D01*
X329284Y96137D01*
X329221Y95500D01*
X334500D01*
Y100779D01*
D02*
G37*
G36*
X288000Y104039D02*
X287220Y103884D01*
X286558Y103442D01*
X286116Y102780D01*
X285961Y102000D01*
X286116Y101220D01*
X286558Y100558D01*
X287220Y100116D01*
X288000Y99961D01*
X288780Y100116D01*
X289442Y100558D01*
X289520Y100674D01*
X303451D01*
X306988Y97137D01*
X306961Y97000D01*
X307116Y96220D01*
X307558Y95558D01*
X308220Y95116D01*
X309000Y94961D01*
X309780Y95116D01*
X310442Y95558D01*
X310884Y96220D01*
X311039Y97000D01*
X310884Y97780D01*
X310442Y98442D01*
X309780Y98884D01*
X309000Y99039D01*
X308863Y99012D01*
X304937Y102937D01*
X304507Y103225D01*
X304000Y103325D01*
X289520D01*
X289442Y103442D01*
X288780Y103884D01*
X288000Y104039D01*
D02*
G37*
G36*
X55500Y98039D02*
X54720Y97884D01*
X54058Y97442D01*
X53616Y96780D01*
X53461Y96000D01*
X53616Y95220D01*
X54058Y94558D01*
X54720Y94116D01*
X55500Y93961D01*
X56280Y94116D01*
X56942Y94558D01*
X57384Y95220D01*
X57539Y96000D01*
X57384Y96780D01*
X56942Y97442D01*
X56280Y97884D01*
X55500Y98039D01*
D02*
G37*
G36*
X40000Y97539D02*
X39220Y97384D01*
X38558Y96942D01*
X38116Y96280D01*
X37961Y95500D01*
X38116Y94720D01*
X38558Y94058D01*
X39220Y93616D01*
X40000Y93461D01*
X40780Y93616D01*
X41442Y94058D01*
X41884Y94720D01*
X42039Y95500D01*
X41884Y96280D01*
X41442Y96942D01*
X40780Y97384D01*
X40000Y97539D01*
D02*
G37*
G36*
X68000Y96539D02*
X67220Y96384D01*
X66558Y95942D01*
X66116Y95280D01*
X65961Y94500D01*
X66116Y93720D01*
X66558Y93058D01*
X67220Y92616D01*
X68000Y92461D01*
X68780Y92616D01*
X69442Y93058D01*
X69884Y93720D01*
X70039Y94500D01*
X69884Y95280D01*
X69442Y95942D01*
X68780Y96384D01*
X68000Y96539D01*
D02*
G37*
G36*
X63000D02*
X62220Y96384D01*
X61558Y95942D01*
X61116Y95280D01*
X60961Y94500D01*
X61116Y93720D01*
X61558Y93058D01*
X62220Y92616D01*
X63000Y92461D01*
X63780Y92616D01*
X64442Y93058D01*
X64884Y93720D01*
X65039Y94500D01*
X64884Y95280D01*
X64442Y95942D01*
X63780Y96384D01*
X63000Y96539D01*
D02*
G37*
G36*
X340779Y94500D02*
X335500D01*
Y89221D01*
X336137Y89284D01*
X337230Y89616D01*
X338238Y90154D01*
X339121Y90879D01*
X339846Y91762D01*
X340384Y92770D01*
X340716Y93863D01*
X340779Y94500D01*
D02*
G37*
G36*
X334500D02*
X329221D01*
X329284Y93863D01*
X329616Y92770D01*
X330154Y91762D01*
X330879Y90879D01*
X331762Y90154D01*
X332770Y89616D01*
X333863Y89284D01*
X334500Y89221D01*
Y94500D01*
D02*
G37*
G36*
X365000Y100828D02*
X363863Y100716D01*
X362770Y100384D01*
X361762Y99846D01*
X360879Y99121D01*
X360154Y98238D01*
X359616Y97230D01*
X359284Y96137D01*
X359172Y95000D01*
X359284Y93863D01*
X359616Y92770D01*
X360154Y91762D01*
X360879Y90879D01*
X361762Y90154D01*
X362770Y89616D01*
X363863Y89284D01*
X365000Y89172D01*
X366137Y89284D01*
X367230Y89616D01*
X368238Y90154D01*
X369121Y90879D01*
X369846Y91762D01*
X370384Y92770D01*
X370716Y93863D01*
X370828Y95000D01*
X370716Y96137D01*
X370384Y97230D01*
X369846Y98238D01*
X369121Y99121D01*
X368238Y99846D01*
X367230Y100384D01*
X366137Y100716D01*
X365000Y100828D01*
D02*
G37*
G36*
X94000Y92539D02*
X93220Y92384D01*
X92558Y91942D01*
X92116Y91280D01*
X91961Y90500D01*
X92116Y89720D01*
X92558Y89058D01*
X93220Y88616D01*
X94000Y88461D01*
X94780Y88616D01*
X95442Y89058D01*
X95884Y89720D01*
X96039Y90500D01*
X95884Y91280D01*
X95442Y91942D01*
X94780Y92384D01*
X94000Y92539D01*
D02*
G37*
G36*
X102500Y89039D02*
X101720Y88884D01*
X101058Y88442D01*
X100616Y87780D01*
X100461Y87000D01*
X100616Y86220D01*
X101058Y85558D01*
X101720Y85116D01*
X102500Y84961D01*
X103280Y85116D01*
X103942Y85558D01*
X104384Y86220D01*
X104539Y87000D01*
X104384Y87780D01*
X103942Y88442D01*
X103280Y88884D01*
X102500Y89039D01*
D02*
G37*
G36*
X225780Y119259D02*
X225000Y119104D01*
X224338Y118662D01*
X223896Y118000D01*
X223741Y117220D01*
X223896Y116439D01*
X224338Y115778D01*
X225000Y115336D01*
X225780Y115181D01*
X225918Y115208D01*
X245674Y95451D01*
Y87520D01*
X245558Y87442D01*
X245116Y86780D01*
X244961Y86000D01*
X245116Y85220D01*
X245558Y84558D01*
X246220Y84116D01*
X247000Y83961D01*
X247780Y84116D01*
X248442Y84558D01*
X248884Y85220D01*
X249039Y86000D01*
X248884Y86780D01*
X248442Y87442D01*
X248325Y87520D01*
Y96000D01*
X248225Y96507D01*
X247937Y96937D01*
X227792Y117082D01*
X227819Y117220D01*
X227664Y118000D01*
X227222Y118662D01*
X226561Y119104D01*
X225780Y119259D01*
D02*
G37*
G36*
X94000Y85539D02*
X93220Y85384D01*
X92558Y84942D01*
X92116Y84280D01*
X91961Y83500D01*
X92116Y82720D01*
X92558Y82058D01*
X93220Y81616D01*
X94000Y81461D01*
X94780Y81616D01*
X95442Y82058D01*
X95884Y82720D01*
X96039Y83500D01*
X95884Y84280D01*
X95442Y84942D01*
X94780Y85384D01*
X94000Y85539D01*
D02*
G37*
G36*
X68000Y83539D02*
X67220Y83384D01*
X66558Y82942D01*
X66116Y82280D01*
X65961Y81500D01*
X66116Y80720D01*
X66558Y80058D01*
X67220Y79616D01*
X68000Y79461D01*
X68780Y79616D01*
X69442Y80058D01*
X69884Y80720D01*
X70039Y81500D01*
X69884Y82280D01*
X69442Y82942D01*
X68780Y83384D01*
X68000Y83539D01*
D02*
G37*
G36*
Y76539D02*
X67220Y76384D01*
X66558Y75942D01*
X66116Y75280D01*
X65961Y74500D01*
X66116Y73720D01*
X66558Y73058D01*
X67220Y72616D01*
X68000Y72461D01*
X68780Y72616D01*
X69442Y73058D01*
X69884Y73720D01*
X70039Y74500D01*
X69884Y75280D01*
X69442Y75942D01*
X68780Y76384D01*
X68000Y76539D01*
D02*
G37*
G36*
X85500Y65779D02*
Y60500D01*
X90779D01*
X90716Y61137D01*
X90384Y62230D01*
X89846Y63238D01*
X89121Y64121D01*
X88238Y64846D01*
X87230Y65384D01*
X86137Y65716D01*
X85500Y65779D01*
D02*
G37*
G36*
X84500D02*
X83863Y65716D01*
X82770Y65384D01*
X81762Y64846D01*
X80879Y64121D01*
X80154Y63238D01*
X79616Y62230D01*
X79284Y61137D01*
X79221Y60500D01*
X84500D01*
Y65779D01*
D02*
G37*
G36*
X356952Y65365D02*
X349033D01*
Y57446D01*
X356952D01*
Y65365D01*
D02*
G37*
G36*
X320500Y59539D02*
X319720Y59384D01*
X319058Y58942D01*
X318616Y58280D01*
X318461Y57500D01*
X318616Y56720D01*
X318242Y56442D01*
X317580Y56884D01*
X316800Y57039D01*
X316020Y56884D01*
X315358Y56442D01*
X314916Y55780D01*
X314761Y55000D01*
X314916Y54220D01*
X315358Y53558D01*
X316020Y53116D01*
X316800Y52961D01*
X317580Y53116D01*
X318242Y53558D01*
X318616Y53280D01*
X318461Y52500D01*
X318616Y51720D01*
X319058Y51058D01*
X319720Y50616D01*
X320500Y50461D01*
X321280Y50616D01*
X321942Y51058D01*
X322384Y51720D01*
X322539Y52500D01*
X322384Y53280D01*
X321942Y53942D01*
X321280Y54384D01*
X320500Y54539D01*
X319720Y54384D01*
X319058Y53942D01*
X318684Y54220D01*
X318839Y55000D01*
X318684Y55780D01*
X319058Y56058D01*
X319720Y55616D01*
X320500Y55461D01*
X321280Y55616D01*
X321942Y56058D01*
X322384Y56720D01*
X322539Y57500D01*
X322384Y58280D01*
X321942Y58942D01*
X321280Y59384D01*
X320500Y59539D01*
D02*
G37*
G36*
X90779Y59500D02*
X85500D01*
Y54221D01*
X86137Y54284D01*
X87230Y54616D01*
X88238Y55154D01*
X89121Y55879D01*
X89846Y56762D01*
X90384Y57770D01*
X90716Y58863D01*
X90779Y59500D01*
D02*
G37*
G36*
X84500D02*
X79221D01*
X79284Y58863D01*
X79616Y57770D01*
X80154Y56762D01*
X80879Y55879D01*
X81762Y55154D01*
X82770Y54616D01*
X83863Y54284D01*
X84500Y54221D01*
Y59500D01*
D02*
G37*
G36*
X370000Y62337D02*
X368666Y62205D01*
X367384Y61816D01*
X366202Y61185D01*
X365166Y60334D01*
X364315Y59298D01*
X363684Y58116D01*
X363295Y56834D01*
X363163Y55500D01*
X363295Y54166D01*
X363684Y52884D01*
X364315Y51702D01*
X365166Y50666D01*
X366202Y49815D01*
X367384Y49184D01*
X368666Y48794D01*
X370000Y48663D01*
X371334Y48794D01*
X372616Y49184D01*
X373798Y49815D01*
X374834Y50666D01*
X375685Y51702D01*
X376316Y52884D01*
X376706Y54166D01*
X376837Y55500D01*
X376706Y56834D01*
X376316Y58116D01*
X375685Y59298D01*
X374834Y60334D01*
X373798Y61185D01*
X372616Y61816D01*
X371334Y62205D01*
X370000Y62337D01*
D02*
G37*
G36*
X39000Y52539D02*
X38220Y52384D01*
X37558Y51942D01*
X37116Y51280D01*
X36961Y50500D01*
X37116Y49720D01*
X37558Y49058D01*
X38220Y48616D01*
X39000Y48461D01*
X39780Y48616D01*
X40442Y49058D01*
X40884Y49720D01*
X41039Y50500D01*
X40884Y51280D01*
X40442Y51942D01*
X39780Y52384D01*
X39000Y52539D01*
D02*
G37*
G36*
X344000Y48039D02*
X343220Y47884D01*
X342558Y47442D01*
X342300Y47056D01*
X341700D01*
X341442Y47442D01*
X340780Y47884D01*
X340000Y48039D01*
X339220Y47884D01*
X338558Y47442D01*
X338300Y47056D01*
X337700D01*
X337442Y47442D01*
X336780Y47884D01*
X336000Y48039D01*
X335220Y47884D01*
X334558Y47442D01*
X334116Y46780D01*
X333961Y46000D01*
X334116Y45220D01*
X334558Y44558D01*
X335220Y44116D01*
X336000Y43961D01*
X336780Y44116D01*
X337442Y44558D01*
X337700Y44944D01*
X338300D01*
X338558Y44558D01*
X339220Y44116D01*
X340000Y43961D01*
X340780Y44116D01*
X341442Y44558D01*
X341700Y44944D01*
X342300D01*
X342558Y44558D01*
X343220Y44116D01*
X344000Y43961D01*
X344780Y44116D01*
X345442Y44558D01*
X345884Y45220D01*
X346039Y46000D01*
X345884Y46780D01*
X345442Y47442D01*
X344780Y47884D01*
X344000Y48039D01*
D02*
G37*
G36*
X352992Y53588D02*
X351958Y53452D01*
X350995Y53053D01*
X350168Y52418D01*
X349534Y51591D01*
X349135Y50628D01*
X348998Y49595D01*
X349135Y48561D01*
X349534Y47598D01*
X350168Y46771D01*
X350995Y46136D01*
X351958Y45737D01*
X352992Y45601D01*
X354026Y45737D01*
X354989Y46136D01*
X355816Y46771D01*
X356451Y47598D01*
X356850Y48561D01*
X356986Y49595D01*
X356850Y50628D01*
X356451Y51591D01*
X355816Y52418D01*
X354989Y53053D01*
X354026Y53452D01*
X352992Y53588D01*
D02*
G37*
G36*
X76500Y46039D02*
X75720Y45884D01*
X75058Y45442D01*
X74616Y44780D01*
X74461Y44000D01*
X74616Y43220D01*
X75058Y42558D01*
X75720Y42116D01*
X76500Y41961D01*
X77280Y42116D01*
X77942Y42558D01*
X78384Y43220D01*
X78539Y44000D01*
X78384Y44780D01*
X77942Y45442D01*
X77280Y45884D01*
X76500Y46039D01*
D02*
G37*
G36*
X120500Y40828D02*
X119639Y40715D01*
X118836Y40383D01*
X118146Y39854D01*
X117617Y39164D01*
X117285Y38361D01*
X117172Y37500D01*
X117285Y36639D01*
X117617Y35836D01*
X118146Y35146D01*
X118836Y34617D01*
X119639Y34285D01*
X120500Y34172D01*
X121361Y34285D01*
X122164Y34617D01*
X122854Y35146D01*
X123382Y35836D01*
X123715Y36639D01*
X123828Y37500D01*
X123715Y38361D01*
X123382Y39164D01*
X122854Y39854D01*
X122164Y40383D01*
X121361Y40715D01*
X120500Y40828D01*
D02*
G37*
G36*
X112500D02*
X111638Y40715D01*
X110836Y40383D01*
X110146Y39854D01*
X109617Y39164D01*
X109285Y38361D01*
X109171Y37500D01*
X109285Y36639D01*
X109617Y35836D01*
X110146Y35146D01*
X110836Y34617D01*
X111638Y34285D01*
X112500Y34172D01*
X113362Y34285D01*
X114164Y34617D01*
X114854Y35146D01*
X115383Y35836D01*
X115715Y36639D01*
X115829Y37500D01*
X115715Y38361D01*
X115383Y39164D01*
X114854Y39854D01*
X114164Y40383D01*
X113362Y40715D01*
X112500Y40828D01*
D02*
G37*
G36*
X104500D02*
X103639Y40715D01*
X102836Y40383D01*
X102146Y39854D01*
X101617Y39164D01*
X101285Y38361D01*
X101172Y37500D01*
X101285Y36639D01*
X101617Y35836D01*
X102146Y35146D01*
X102836Y34617D01*
X103639Y34285D01*
X104500Y34172D01*
X105361Y34285D01*
X106164Y34617D01*
X106854Y35146D01*
X107383Y35836D01*
X107715Y36639D01*
X107828Y37500D01*
X107715Y38361D01*
X107383Y39164D01*
X106854Y39854D01*
X106164Y40383D01*
X105361Y40715D01*
X104500Y40828D01*
D02*
G37*
G36*
X326000Y28333D02*
X324667Y28202D01*
X323385Y27813D01*
X322204Y27181D01*
X321168Y26332D01*
X320319Y25296D01*
X319687Y24115D01*
X319298Y22833D01*
X319167Y21500D01*
X319298Y20167D01*
X319687Y18885D01*
X320319Y17704D01*
X321168Y16668D01*
X322204Y15819D01*
X323385Y15187D01*
X324667Y14798D01*
X326000Y14667D01*
X327333Y14798D01*
X328615Y15187D01*
X329796Y15819D01*
X330832Y16668D01*
X331681Y17704D01*
X332313Y18885D01*
X332702Y20167D01*
X332833Y21500D01*
X332702Y22833D01*
X332313Y24115D01*
X331681Y25296D01*
X330832Y26332D01*
X329796Y27181D01*
X328615Y27813D01*
X327333Y28202D01*
X326000Y28333D01*
D02*
G37*
G36*
X256000D02*
X254667Y28202D01*
X253385Y27813D01*
X252204Y27181D01*
X251168Y26332D01*
X250319Y25296D01*
X249687Y24115D01*
X249298Y22833D01*
X249167Y21500D01*
X249298Y20167D01*
X249687Y18885D01*
X250319Y17704D01*
X251168Y16668D01*
X252204Y15819D01*
X253385Y15187D01*
X254667Y14798D01*
X256000Y14667D01*
X257333Y14798D01*
X258615Y15187D01*
X259796Y15819D01*
X260832Y16668D01*
X261681Y17704D01*
X262313Y18885D01*
X262702Y20167D01*
X262833Y21500D01*
X262702Y22833D01*
X262313Y24115D01*
X261681Y25296D01*
X260832Y26332D01*
X259796Y27181D01*
X258615Y27813D01*
X257333Y28202D01*
X256000Y28333D01*
D02*
G37*
%LPD*%
D11*
X225780Y117220D02*
X227000Y116000D01*
X247000Y96000D01*
Y86000D02*
Y96000D01*
X232100Y120900D02*
X251000Y102000D01*
X305000Y206000D02*
X310000Y211000D01*
X271000Y206000D02*
X305000D01*
X304000Y102000D02*
X309000Y97000D01*
X288000Y102000D02*
X304000D01*
D87*
X107600Y115800D02*
D03*
X123191D02*
D03*
D89*
X108130Y265905D02*
D03*
X154130D02*
D03*
D90*
X138130D02*
D03*
X184130D02*
D03*
D95*
X205000Y240000D02*
D03*
X85000Y60000D02*
D03*
X70000Y250000D02*
D03*
X335000Y160000D02*
D03*
Y95000D02*
D03*
D97*
X206130Y191905D02*
D03*
D99*
X166000Y218500D02*
D03*
X131500Y242000D02*
D03*
D100*
X143299Y189999D02*
D03*
X161875Y22199D02*
D03*
X178500Y214000D02*
D03*
X258000Y200000D02*
D03*
X248000Y190000D02*
D03*
X238000Y180000D02*
D03*
X228000Y170000D02*
D03*
X225780Y117220D02*
D03*
X232100Y120900D02*
D03*
X134300Y33100D02*
D03*
X127700D02*
D03*
X122500Y207000D02*
D03*
X310000Y211000D02*
D03*
X271000Y206000D02*
D03*
X86000Y15000D02*
D03*
X40000D02*
D03*
X51000Y195000D02*
D03*
X15000D02*
D03*
X13000Y170000D02*
D03*
Y74000D02*
D03*
Y32000D02*
D03*
X115500Y207000D02*
D03*
X131000Y24500D02*
D03*
X85500Y232500D02*
D03*
X41000Y238000D02*
D03*
X55000D02*
D03*
X38000Y167000D02*
D03*
X40000Y121500D02*
D03*
X13000Y131000D02*
D03*
Y121000D02*
D03*
X39500Y78500D02*
D03*
X13000Y83000D02*
D03*
X49500Y44000D02*
D03*
X156000Y205500D02*
D03*
X191000Y158500D02*
D03*
X160500Y154000D02*
D03*
X54500Y113500D02*
D03*
X64000Y74500D02*
D03*
Y81500D02*
D03*
X247000Y86000D02*
D03*
X314500Y73000D02*
D03*
X309000Y97000D02*
D03*
X288000Y102000D02*
D03*
X251000D02*
D03*
X82100Y144900D02*
D03*
X143000Y169500D02*
D03*
X146000Y176600D02*
D03*
X151000Y205500D02*
D03*
X175000Y216500D02*
D03*
X178500Y219000D02*
D03*
X133500Y192500D02*
D03*
X198800Y165900D02*
D03*
X185200Y164000D02*
D03*
X193800Y165900D02*
D03*
X142000Y77000D02*
D03*
X324500Y57500D02*
D03*
X328200Y55000D02*
D03*
X324500Y52500D02*
D03*
X328200Y222000D02*
D03*
X324500Y219500D02*
D03*
Y224500D02*
D03*
X314500Y240000D02*
D03*
D102*
X115500Y115500D02*
D03*
M02*
