G04*
G04 #@! TF.GenerationSoftware,Altium Limited,Altium Designer,21.1.1 (26)*
G04*
G04 Layer_Physical_Order=1*
G04 Layer_Color=255*
%FSLAX25Y25*%
%MOIN*%
G70*
G04*
G04 #@! TF.SameCoordinates,379C1673-3C72-4E82-969D-E9B706308CD5*
G04*
G04*
G04 #@! TF.FilePolarity,Positive*
G04*
G01*
G75*
%ADD11C,0.01000*%
%ADD32R,0.02200X0.06550*%
%ADD36R,0.05800X0.02000*%
%ADD37R,0.02000X0.05800*%
%ADD38R,0.04000X0.02200*%
%ADD62R,0.05118X0.09000*%
%ADD63R,0.05512X0.04134*%
%ADD64R,0.09000X0.05118*%
%ADD65R,0.04528X0.05709*%
%ADD66R,0.04134X0.05512*%
%ADD67R,0.05709X0.04528*%
G04:AMPARAMS|DCode=68|XSize=13mil|YSize=72.84mil|CornerRadius=1.43mil|HoleSize=0mil|Usage=FLASHONLY|Rotation=0.000|XOffset=0mil|YOffset=0mil|HoleType=Round|Shape=RoundedRectangle|*
%AMROUNDEDRECTD68*
21,1,0.01300,0.06998,0,0,0.0*
21,1,0.01014,0.07284,0,0,0.0*
1,1,0.00286,0.00507,-0.03499*
1,1,0.00286,-0.00507,-0.03499*
1,1,0.00286,-0.00507,0.03499*
1,1,0.00286,0.00507,0.03499*
%
%ADD68ROUNDEDRECTD68*%
%ADD69R,0.38000X0.42000*%
%ADD70R,0.13000X0.08000*%
%ADD71R,0.03740X0.08268*%
%ADD72R,0.21654X0.25591*%
%ADD73R,0.04331X0.01355*%
%ADD74R,0.05000X0.06000*%
%ADD75R,0.08800X0.05315*%
%ADD76R,0.05315X0.08800*%
%ADD77R,0.03937X0.03543*%
%ADD78R,0.03543X0.03937*%
%ADD79R,0.10630X0.04724*%
%ADD80R,0.07200X0.01600*%
%ADD81C,0.01500*%
%ADD82C,0.03000*%
%ADD83C,0.02000*%
%ADD84C,0.06000*%
%ADD85C,0.05000*%
%ADD86R,0.11000X0.11000*%
%ADD87C,0.11000*%
%ADD88C,0.05512*%
%ADD89R,0.06000X0.06000*%
%ADD90C,0.06000*%
%ADD91R,0.06319X0.06319*%
%ADD92C,0.06319*%
%ADD93C,0.12008*%
%ADD94C,0.12000*%
%ADD95C,0.10000*%
%ADD96C,0.25000*%
%ADD97C,0.05906*%
%ADD98R,0.05906X0.05906*%
%ADD99C,0.02400*%
%ADD100C,0.02500*%
%ADD101C,0.05000*%
G36*
X323485Y249971D02*
X323790Y249232D01*
X315995Y241437D01*
X315942Y241442D01*
X315280Y241884D01*
X314500Y242039D01*
X313720Y241884D01*
X313058Y241442D01*
X312616Y240780D01*
X312461Y240000D01*
X312616Y239220D01*
X313058Y238558D01*
X312732Y237815D01*
X312600Y237700D01*
Y237700D01*
X312095Y237149D01*
X311748Y237080D01*
X311417Y236859D01*
X301946Y227388D01*
X301726Y227058D01*
X301648Y226667D01*
X301648Y226667D01*
X301090Y226273D01*
X300924Y226205D01*
X288330D01*
Y217360D01*
X288279Y217326D01*
X288058Y216996D01*
X287980Y216605D01*
X287980Y204000D01*
X287984Y203982D01*
X287981Y203965D01*
X288022Y203788D01*
X288058Y203610D01*
X288068Y203595D01*
X288072Y203578D01*
X288178Y203430D01*
X288279Y203279D01*
X288294Y203269D01*
X288304Y203255D01*
X316161Y177255D01*
X316316Y177159D01*
X316467Y177058D01*
X316484Y177055D01*
X316500Y177045D01*
X316679Y177016D01*
X316857Y176980D01*
X379863Y176980D01*
X379882Y165716D01*
X379889Y161137D01*
X379895Y157770D01*
X379901Y154172D01*
X379909Y149220D01*
X379917Y144616D01*
X379925Y139597D01*
X379932Y135384D01*
X379941Y130000D01*
X379948Y125879D01*
X379955Y122131D01*
X379963Y117220D01*
X379969Y113377D01*
X379977Y108494D01*
X379985Y103884D01*
X379990Y100716D01*
X379998Y95937D01*
X380004Y92770D01*
X380010Y88884D01*
X380018Y84000D01*
X380025Y79917D01*
X380033Y75039D01*
X380039Y71803D01*
X379626Y71242D01*
X379240Y71020D01*
X331400Y71020D01*
X331010Y70942D01*
X330679Y70721D01*
X330665Y70700D01*
X327600D01*
X327600Y70700D01*
X326884Y70902D01*
X326825Y70941D01*
X326824Y70942D01*
X326824Y70942D01*
X326628Y70981D01*
X326435Y71020D01*
X326434Y71019D01*
X326433Y71020D01*
X317400Y71020D01*
X317010Y70942D01*
X316716Y70825D01*
X316247Y71103D01*
X316106Y71804D01*
X316384Y72220D01*
X316539Y73000D01*
X316384Y73780D01*
X315942Y74442D01*
X315280Y74884D01*
X314500Y75039D01*
X313720Y74884D01*
X313125Y74487D01*
X312796Y74565D01*
X312326Y74786D01*
Y95000D01*
X312225Y95507D01*
X311937Y95937D01*
X311012Y96863D01*
X311039Y97000D01*
X310884Y97780D01*
X310442Y98442D01*
X309780Y98884D01*
X309000Y99039D01*
X308220Y98884D01*
X307558Y98442D01*
X307116Y97780D01*
X306961Y97000D01*
X307116Y96220D01*
X307558Y95558D01*
X308220Y95116D01*
X309000Y94961D01*
X309137Y94988D01*
X309675Y94451D01*
Y60020D01*
X302930D01*
X302540Y59942D01*
X302209Y59721D01*
X301988Y59390D01*
X301951Y59206D01*
X288330D01*
Y51398D01*
X288281Y50624D01*
X288111Y50582D01*
X287940Y50547D01*
X287919Y50534D01*
X287895Y50528D01*
X287754Y50424D01*
X287609Y50327D01*
X287595Y50306D01*
X287575Y50291D01*
X287245Y49928D01*
X287155Y49778D01*
X287058Y49632D01*
X287053Y49608D01*
X287040Y49586D01*
X287015Y49414D01*
X286980Y49242D01*
Y10000D01*
X221000D01*
X147000Y84000D01*
X122000D01*
X119572Y81572D01*
X118936D01*
Y80936D01*
X114000Y76000D01*
X106324D01*
Y81572D01*
X105746D01*
X105312Y82221D01*
X103189Y84344D01*
X103441Y85223D01*
X103942Y85558D01*
X104384Y86220D01*
X104539Y87000D01*
X104384Y87780D01*
X103942Y88442D01*
X103280Y88884D01*
X102500Y89039D01*
X102417Y89108D01*
Y90457D01*
X96074D01*
X96039Y90500D01*
X95884Y91280D01*
X95442Y91942D01*
X94780Y92384D01*
X94000Y92539D01*
X93220Y92384D01*
X92558Y91942D01*
X92116Y91280D01*
X91961Y90500D01*
X91926Y90457D01*
X87283D01*
Y87000D01*
Y83543D01*
X91926D01*
X91961Y83500D01*
X92116Y82720D01*
X92558Y82058D01*
X93220Y81616D01*
X94000Y81461D01*
X94780Y81616D01*
X95442Y82058D01*
X95884Y82720D01*
X96039Y83500D01*
X96074Y83543D01*
X97358D01*
X100984Y79917D01*
Y76000D01*
X82000D01*
X77000Y81000D01*
Y156432D01*
X77567Y156996D01*
X78444Y156991D01*
Y151873D01*
X85556D01*
Y156377D01*
X86123Y156941D01*
X93302Y156894D01*
X107761Y156800D01*
Y153861D01*
X107358Y153457D01*
X106074D01*
X106039Y153500D01*
X105884Y154280D01*
X105442Y154942D01*
X104780Y155384D01*
X104000Y155539D01*
X103220Y155384D01*
X102558Y154942D01*
X102116Y154280D01*
X101961Y153500D01*
X101926Y153457D01*
X97284D01*
Y150000D01*
Y146543D01*
X101926D01*
X101961Y146500D01*
X102116Y145720D01*
X102558Y145058D01*
X103220Y144616D01*
X104000Y144461D01*
X104780Y144616D01*
X105442Y145058D01*
X105884Y145720D01*
X106039Y146500D01*
X106074Y146543D01*
X112417D01*
Y147892D01*
X112500Y147961D01*
X113280Y148116D01*
X113942Y148558D01*
X114384Y149220D01*
X114539Y150000D01*
X114384Y150780D01*
X113942Y151442D01*
X113280Y151884D01*
X112500Y152039D01*
X112435Y152806D01*
X112451Y152890D01*
Y156202D01*
X113019Y156766D01*
X131500Y156646D01*
X131500Y140074D01*
X212000Y139597D01*
X275607Y207141D01*
X275112Y249565D01*
X275675Y250133D01*
X323485Y249971D01*
D02*
G37*
G36*
X380000Y178000D02*
X316857Y178000D01*
X289000Y204000D01*
X289000Y216605D01*
X293630D01*
Y221406D01*
X295630D01*
Y223406D01*
X302930D01*
Y226205D01*
X302859D01*
X302667Y226667D01*
X312138Y236138D01*
X312600Y235947D01*
Y229550D01*
X315798D01*
X315825Y229492D01*
X315710Y229227D01*
X315512Y228985D01*
X315406Y228966D01*
X315218Y228935D01*
X315210Y228930D01*
X315201Y228929D01*
X315041Y228826D01*
X314880Y228726D01*
X314875Y228718D01*
X314867Y228713D01*
X314292Y228158D01*
X314286Y228150D01*
X314279Y228145D01*
X314173Y227987D01*
X314065Y227831D01*
X314063Y227822D01*
X314058Y227815D01*
X314021Y227628D01*
X313981Y227442D01*
X313982Y227433D01*
X313980Y227424D01*
Y218000D01*
X314058Y217610D01*
X314279Y217279D01*
X315646Y215912D01*
X315455Y215450D01*
X312600D01*
Y212701D01*
X311055D01*
X310780Y212884D01*
X310000Y213039D01*
X309220Y212884D01*
X308558Y212442D01*
X308116Y211780D01*
X307961Y211000D01*
X308116Y210220D01*
X308558Y209558D01*
X309220Y209116D01*
X310000Y208961D01*
X310780Y209116D01*
X311442Y209558D01*
X311770Y210050D01*
X312600D01*
Y207300D01*
X316400D01*
X316802Y207063D01*
X316810Y207058D01*
X317200Y206980D01*
X321480D01*
X321871Y207058D01*
X321990Y207138D01*
X322110Y207058D01*
X322500Y206980D01*
X327000D01*
X327390Y207058D01*
X327721Y207279D01*
X327735Y207300D01*
X331400D01*
Y215450D01*
X331400D01*
X331325Y215950D01*
X332549Y217175D01*
X333885D01*
Y215380D01*
X333758Y215190D01*
X333680Y214800D01*
Y212000D01*
X333758Y211610D01*
X333979Y211279D01*
X334479Y210779D01*
X334810Y210558D01*
X335200Y210480D01*
X344600D01*
X344990Y210558D01*
X345321Y210779D01*
X346021Y211479D01*
X346242Y211810D01*
X346320Y212200D01*
Y214800D01*
X346242Y215190D01*
X346115Y215380D01*
Y219953D01*
X333885D01*
Y219826D01*
X332000D01*
X331532Y219732D01*
X331472Y219738D01*
X331031Y220017D01*
X331013Y224995D01*
X331490Y225274D01*
X331512Y225272D01*
X332000Y225174D01*
X333885D01*
Y225046D01*
X339011D01*
X339139Y224994D01*
X340000Y224880D01*
X349033D01*
Y224446D01*
X351943D01*
X352476Y224376D01*
X352761Y224413D01*
X352833D01*
X353082Y224446D01*
X356952D01*
Y232365D01*
X349033D01*
Y231537D01*
X340000D01*
X339139Y231424D01*
X339011Y231371D01*
X333885D01*
Y227825D01*
X332549D01*
X331325Y229050D01*
X331400Y229550D01*
X331400D01*
Y237700D01*
X327600D01*
X327600Y237700D01*
X327119Y237745D01*
X326989Y237831D01*
X326825Y237941D01*
X326824Y237942D01*
X326823Y237942D01*
X326628Y237981D01*
X326435Y238020D01*
X326434Y238019D01*
X326433Y238020D01*
X317400Y238020D01*
X317010Y237942D01*
X316845Y237832D01*
X316400Y237700D01*
X316400Y237700D01*
Y237700D01*
X316400Y237700D01*
X315826D01*
Y238480D01*
X315942Y238558D01*
X316384Y239220D01*
X316539Y240000D01*
X316450Y240450D01*
X326000Y250000D01*
X380000D01*
Y178000D01*
D02*
G37*
G36*
X345300Y212200D02*
X344600Y211500D01*
X335200D01*
X334700Y212000D01*
Y214800D01*
X345300D01*
Y212200D01*
D02*
G37*
G36*
X326998Y236433D02*
X326971Y228301D01*
X329992Y225445D01*
X330015Y218931D01*
X327000Y215500D01*
Y208000D01*
X322500D01*
Y219303D01*
X322539Y219500D01*
X322500Y219697D01*
Y224303D01*
X322539Y224500D01*
X322500Y224697D01*
Y225833D01*
X317400Y229233D01*
X317400Y237000D01*
X326433Y237000D01*
X326998Y236433D01*
D02*
G37*
G36*
X317544Y227912D02*
X321480Y225288D01*
Y224697D01*
X321500Y224599D01*
Y224401D01*
X321480Y224303D01*
Y219697D01*
X321500Y219599D01*
Y219402D01*
X321480Y219303D01*
Y208000D01*
X317200D01*
Y215800D01*
X315000Y218000D01*
Y227424D01*
X315575Y227980D01*
X317544Y227912D01*
D02*
G37*
G36*
X160500Y183300D02*
X160500Y181400D01*
X154600D01*
X153800Y180600D01*
Y177400D01*
X151500Y175100D01*
X151500Y166900D01*
X149500Y164900D01*
X149500Y153500D01*
X143500Y147500D01*
Y142500D01*
X142500Y141500D01*
X133000D01*
X133000Y155900D01*
X146000Y168900D01*
X146000Y173300D01*
X148500Y175800D01*
Y180500D01*
X151300Y183300D01*
X160500Y183300D01*
D02*
G37*
G36*
X380000Y70000D02*
Y9000D01*
X364612D01*
X364402Y9454D01*
X364923Y10064D01*
X366017Y11849D01*
X366818Y13783D01*
X367307Y15819D01*
X367471Y17906D01*
X367307Y19993D01*
X366818Y22028D01*
X366017Y23962D01*
X364923Y25747D01*
X363563Y27339D01*
X361972Y28699D01*
X360187Y29792D01*
X358253Y30594D01*
X356217Y31082D01*
X354130Y31247D01*
X352043Y31082D01*
X350007Y30594D01*
X348073Y29792D01*
X346288Y28699D01*
X344696Y27339D01*
X343337Y25747D01*
X342243Y23962D01*
X341442Y22028D01*
X340953Y19993D01*
X340789Y17906D01*
X340953Y15819D01*
X341442Y13783D01*
X342243Y11849D01*
X343337Y10064D01*
X343858Y9454D01*
X343648Y9000D01*
X339000D01*
X288000D01*
Y49242D01*
X288330Y49606D01*
X295130D01*
Y54405D01*
X295630D01*
Y54905D01*
X302930D01*
Y59000D01*
X309675D01*
Y47125D01*
X309775Y46618D01*
X310063Y46188D01*
X312600Y43650D01*
Y40300D01*
X316400D01*
X316802Y40063D01*
X316810Y40058D01*
X317200Y39980D01*
X321480D01*
X321871Y40058D01*
X321990Y40138D01*
X322110Y40058D01*
X322500Y39980D01*
X327000D01*
X327390Y40058D01*
X327721Y40279D01*
X327735Y40300D01*
X331400D01*
Y48450D01*
X331400D01*
X331325Y48950D01*
X332549Y50174D01*
X333885D01*
Y48380D01*
X333758Y48190D01*
X333680Y47800D01*
Y45000D01*
X333758Y44610D01*
X333979Y44279D01*
X334479Y43779D01*
X334810Y43558D01*
X335200Y43480D01*
X344600D01*
X344990Y43558D01*
X345321Y43779D01*
X346021Y44479D01*
X346242Y44810D01*
X346320Y45200D01*
Y47800D01*
X346242Y48190D01*
X346115Y48380D01*
Y52953D01*
X333885D01*
Y52825D01*
X332000D01*
X331532Y52732D01*
X331472Y52738D01*
X331031Y53017D01*
X331013Y57995D01*
X331490Y58274D01*
X331512Y58272D01*
X332000Y58175D01*
X333885D01*
Y58047D01*
X339011D01*
X339139Y57994D01*
X340000Y57880D01*
X349033D01*
Y57446D01*
X351943D01*
X352476Y57376D01*
X352761Y57413D01*
X352833D01*
X353082Y57446D01*
X356952D01*
Y65365D01*
X349033D01*
Y64537D01*
X340000D01*
X339139Y64424D01*
X339011Y64371D01*
X333885D01*
Y60826D01*
X332549D01*
X331325Y62050D01*
X331400Y62550D01*
X331400D01*
Y70000D01*
X380000Y70000D01*
D02*
G37*
G36*
X345300Y45200D02*
X344600Y44500D01*
X335200D01*
X334700Y45000D01*
Y47800D01*
X345300D01*
Y45200D01*
D02*
G37*
G36*
X326998Y69433D02*
X326971Y61301D01*
X329992Y58445D01*
X330015Y51931D01*
X327000Y48500D01*
Y41000D01*
X322500D01*
Y52303D01*
X322539Y52500D01*
X322500Y52697D01*
Y57303D01*
X322539Y57500D01*
X322500Y57697D01*
Y58833D01*
X317400Y62233D01*
X317400Y70000D01*
X326433Y70000D01*
X326998Y69433D01*
D02*
G37*
G36*
X317544Y60912D02*
X321480Y58288D01*
Y57697D01*
X321500Y57598D01*
Y57402D01*
X321480Y57303D01*
Y52697D01*
X321500Y52598D01*
Y52402D01*
X321480Y52303D01*
Y41000D01*
X317200D01*
Y48800D01*
X315000Y51000D01*
Y60424D01*
X315575Y60980D01*
X317544Y60912D01*
D02*
G37*
%LPC*%
G36*
X302930Y246205D02*
X297630D01*
Y243406D01*
X302930D01*
Y246205D01*
D02*
G37*
G36*
X293630D02*
X288330D01*
Y243406D01*
X293630D01*
Y246205D01*
D02*
G37*
G36*
X302930Y239405D02*
X297630D01*
Y236606D01*
X302930D01*
Y239405D01*
D02*
G37*
G36*
X293630D02*
X288330D01*
Y236606D01*
X293630D01*
Y239405D01*
D02*
G37*
G36*
X290130Y195238D02*
X288797Y195107D01*
X287515Y194718D01*
X286334Y194087D01*
X285298Y193237D01*
X284449Y192202D01*
X283817Y191020D01*
X283428Y189739D01*
X283297Y188406D01*
X283428Y187073D01*
X283817Y185791D01*
X284449Y184609D01*
X285298Y183574D01*
X286334Y182724D01*
X287515Y182093D01*
X288797Y181704D01*
X290130Y181573D01*
X291463Y181704D01*
X292745Y182093D01*
X293926Y182724D01*
X294962Y183574D01*
X295811Y184609D01*
X296443Y185791D01*
X296831Y187073D01*
X296963Y188406D01*
X296831Y189739D01*
X296443Y191020D01*
X295811Y192202D01*
X294962Y193237D01*
X293926Y194087D01*
X292745Y194718D01*
X291463Y195107D01*
X290130Y195238D01*
D02*
G37*
G36*
X365500Y165779D02*
Y160500D01*
X370779D01*
X370716Y161137D01*
X370384Y162230D01*
X369846Y163238D01*
X369121Y164121D01*
X368238Y164846D01*
X367230Y165384D01*
X366137Y165716D01*
X365500Y165779D01*
D02*
G37*
G36*
X364500D02*
X363863Y165716D01*
X362770Y165384D01*
X361762Y164846D01*
X360879Y164121D01*
X360154Y163238D01*
X359616Y162230D01*
X359284Y161137D01*
X359221Y160500D01*
X364500D01*
Y165779D01*
D02*
G37*
G36*
X370779Y159500D02*
X365500D01*
Y154221D01*
X366137Y154284D01*
X367230Y154616D01*
X368238Y155154D01*
X369121Y155879D01*
X369846Y156762D01*
X370384Y157770D01*
X370716Y158863D01*
X370779Y159500D01*
D02*
G37*
G36*
X364500D02*
X359221D01*
X359284Y158863D01*
X359616Y157770D01*
X360154Y156762D01*
X360879Y155879D01*
X361762Y155154D01*
X362770Y154616D01*
X363863Y154284D01*
X364500Y154221D01*
Y159500D01*
D02*
G37*
G36*
X335000Y165828D02*
X333863Y165716D01*
X332770Y165384D01*
X331762Y164846D01*
X330879Y164121D01*
X330154Y163238D01*
X329616Y162230D01*
X329284Y161137D01*
X329172Y160000D01*
X329284Y158863D01*
X329616Y157770D01*
X330154Y156762D01*
X330879Y155879D01*
X331762Y155154D01*
X332770Y154616D01*
X333863Y154284D01*
X335000Y154172D01*
X336137Y154284D01*
X337230Y154616D01*
X338238Y155154D01*
X339121Y155879D01*
X339846Y156762D01*
X340384Y157770D01*
X340716Y158863D01*
X340828Y160000D01*
X340716Y161137D01*
X340384Y162230D01*
X339846Y163238D01*
X339121Y164121D01*
X338238Y164846D01*
X337230Y165384D01*
X336137Y165716D01*
X335000Y165828D01*
D02*
G37*
G36*
X96284Y153457D02*
X91584D01*
Y150500D01*
X96284D01*
Y153457D01*
D02*
G37*
G36*
Y149500D02*
X91584D01*
Y146543D01*
X96284D01*
Y149500D01*
D02*
G37*
G36*
X85556Y150127D02*
X78444D01*
Y144393D01*
X80162D01*
X80216Y144120D01*
X80658Y143458D01*
X81320Y143016D01*
X82100Y142861D01*
X82880Y143016D01*
X83542Y143458D01*
X83984Y144120D01*
X84038Y144393D01*
X85556D01*
Y150127D01*
D02*
G37*
G36*
X365000Y135828D02*
X363863Y135716D01*
X362770Y135384D01*
X361762Y134846D01*
X360879Y134121D01*
X360154Y133238D01*
X359616Y132230D01*
X359284Y131137D01*
X359172Y130000D01*
X359284Y128863D01*
X359616Y127770D01*
X360154Y126762D01*
X360879Y125879D01*
X361762Y125154D01*
X362770Y124616D01*
X363863Y124284D01*
X365000Y124172D01*
X366137Y124284D01*
X367230Y124616D01*
X368238Y125154D01*
X369121Y125879D01*
X369846Y126762D01*
X370384Y127770D01*
X370716Y128863D01*
X370828Y130000D01*
X370716Y131137D01*
X370384Y132230D01*
X369846Y133238D01*
X369121Y134121D01*
X368238Y134846D01*
X367230Y135384D01*
X366137Y135716D01*
X365000Y135828D01*
D02*
G37*
G36*
X335000D02*
X333863Y135716D01*
X332770Y135384D01*
X331762Y134846D01*
X330879Y134121D01*
X330154Y133238D01*
X329616Y132230D01*
X329284Y131137D01*
X329172Y130000D01*
X329284Y128863D01*
X329616Y127770D01*
X330154Y126762D01*
X330879Y125879D01*
X331762Y125154D01*
X332770Y124616D01*
X333863Y124284D01*
X335000Y124172D01*
X336137Y124284D01*
X337230Y124616D01*
X338238Y125154D01*
X339121Y125879D01*
X339846Y126762D01*
X340384Y127770D01*
X340716Y128863D01*
X340828Y130000D01*
X340716Y131137D01*
X340384Y132230D01*
X339846Y133238D01*
X339121Y134121D01*
X338238Y134846D01*
X337230Y135384D01*
X336137Y135716D01*
X335000Y135828D01*
D02*
G37*
G36*
X232100Y122939D02*
X231320Y122784D01*
X230658Y122342D01*
X230216Y121680D01*
X230061Y120900D01*
X230216Y120120D01*
X230658Y119458D01*
X231320Y119016D01*
X232100Y118861D01*
X232880Y119016D01*
X233542Y119458D01*
X233984Y120120D01*
X234139Y120900D01*
X233984Y121680D01*
X233542Y122342D01*
X232880Y122784D01*
X232100Y122939D01*
D02*
G37*
G36*
X124691Y121928D02*
Y117300D01*
X129319D01*
X129039Y118223D01*
X128454Y119317D01*
X127667Y120276D01*
X126708Y121064D01*
X125613Y121649D01*
X124691Y121928D01*
D02*
G37*
G36*
X109100Y121929D02*
Y117300D01*
X113728D01*
X113449Y118223D01*
X112864Y119317D01*
X112076Y120276D01*
X111117Y121064D01*
X110023Y121649D01*
X109100Y121929D01*
D02*
G37*
G36*
X106100D02*
X105177Y121649D01*
X104083Y121064D01*
X103124Y120276D01*
X102336Y119317D01*
X101751Y118223D01*
X101471Y117300D01*
X106100D01*
Y121929D01*
D02*
G37*
G36*
X121691D02*
X120768Y121649D01*
X119674Y121064D01*
X118714Y120276D01*
X117927Y119317D01*
X117342Y118223D01*
X117062Y117300D01*
X121691D01*
Y121929D01*
D02*
G37*
G36*
X225780Y119259D02*
X225000Y119104D01*
X224338Y118662D01*
X223896Y118000D01*
X223741Y117220D01*
X223896Y116439D01*
X224338Y115778D01*
X225000Y115336D01*
X225780Y115181D01*
X226561Y115336D01*
X227222Y115778D01*
X227664Y116439D01*
X227819Y117220D01*
X227664Y118000D01*
X227222Y118662D01*
X226561Y119104D01*
X225780Y119259D01*
D02*
G37*
G36*
X129319Y114300D02*
X124691D01*
Y109672D01*
X125613Y109951D01*
X126708Y110536D01*
X127667Y111324D01*
X128454Y112283D01*
X129039Y113377D01*
X129319Y114300D01*
D02*
G37*
G36*
X113728D02*
X109100D01*
Y109671D01*
X110023Y109951D01*
X111117Y110536D01*
X112076Y111324D01*
X112864Y112283D01*
X113449Y113377D01*
X113728Y114300D01*
D02*
G37*
G36*
X106100D02*
X101471D01*
X101751Y113377D01*
X102336Y112283D01*
X103124Y111324D01*
X104083Y110536D01*
X105177Y109951D01*
X106100Y109671D01*
Y114300D01*
D02*
G37*
G36*
X121691D02*
X117062D01*
X117342Y113377D01*
X117927Y112283D01*
X118714Y111324D01*
X119674Y110536D01*
X120768Y109951D01*
X121691Y109671D01*
Y114300D01*
D02*
G37*
G36*
X98309Y122100D02*
X85710D01*
Y109500D01*
X98309D01*
Y122100D01*
D02*
G37*
G36*
X138781Y122131D02*
X137546Y122009D01*
X136358Y121649D01*
X135264Y121064D01*
X134305Y120276D01*
X133518Y119317D01*
X132932Y118223D01*
X132572Y117035D01*
X132451Y115800D01*
X132572Y114565D01*
X132932Y113377D01*
X133518Y112283D01*
X134305Y111324D01*
X135264Y110536D01*
X136358Y109951D01*
X137546Y109591D01*
X138781Y109469D01*
X140016Y109591D01*
X141204Y109951D01*
X142298Y110536D01*
X143257Y111324D01*
X144045Y112283D01*
X144630Y113377D01*
X144990Y114565D01*
X145112Y115800D01*
X144990Y117035D01*
X144630Y118223D01*
X144045Y119317D01*
X143257Y120276D01*
X142298Y121064D01*
X141204Y121649D01*
X140016Y122009D01*
X138781Y122131D01*
D02*
G37*
G36*
X144687Y109544D02*
X143758Y109422D01*
X142893Y109064D01*
X142150Y108494D01*
X141580Y107751D01*
X141222Y106886D01*
X141100Y105957D01*
X141222Y105029D01*
X141580Y104164D01*
X142150Y103421D01*
X142893Y102851D01*
X143758Y102493D01*
X144687Y102371D01*
X145615Y102493D01*
X146480Y102851D01*
X147223Y103421D01*
X147793Y104164D01*
X148151Y105029D01*
X148273Y105957D01*
X148151Y106886D01*
X147793Y107751D01*
X147223Y108494D01*
X146480Y109064D01*
X145615Y109422D01*
X144687Y109544D01*
D02*
G37*
G36*
X288000Y104039D02*
X287220Y103884D01*
X286558Y103442D01*
X286116Y102780D01*
X285961Y102000D01*
X286116Y101220D01*
X286558Y100558D01*
X287220Y100116D01*
X288000Y99961D01*
X288780Y100116D01*
X289442Y100558D01*
X289884Y101220D01*
X290039Y102000D01*
X289884Y102780D01*
X289442Y103442D01*
X288780Y103884D01*
X288000Y104039D01*
D02*
G37*
G36*
X251000D02*
X250220Y103884D01*
X249558Y103442D01*
X249116Y102780D01*
X248961Y102000D01*
X249116Y101220D01*
X249558Y100558D01*
X250220Y100116D01*
X251000Y99961D01*
X251780Y100116D01*
X252442Y100558D01*
X252884Y101220D01*
X253039Y102000D01*
X252884Y102780D01*
X252442Y103442D01*
X251780Y103884D01*
X251000Y104039D01*
D02*
G37*
G36*
X365500Y100779D02*
Y95500D01*
X370779D01*
X370716Y96137D01*
X370384Y97230D01*
X369846Y98238D01*
X369121Y99121D01*
X368238Y99846D01*
X367230Y100384D01*
X366137Y100716D01*
X365500Y100779D01*
D02*
G37*
G36*
X364500D02*
X363863Y100716D01*
X362770Y100384D01*
X361762Y99846D01*
X360879Y99121D01*
X360154Y98238D01*
X359616Y97230D01*
X359284Y96137D01*
X359221Y95500D01*
X364500D01*
Y100779D01*
D02*
G37*
G36*
X370779Y94500D02*
X365500D01*
Y89221D01*
X366137Y89284D01*
X367230Y89616D01*
X368238Y90154D01*
X369121Y90879D01*
X369846Y91762D01*
X370384Y92770D01*
X370716Y93863D01*
X370779Y94500D01*
D02*
G37*
G36*
X364500D02*
X359221D01*
X359284Y93863D01*
X359616Y92770D01*
X360154Y91762D01*
X360879Y90879D01*
X361762Y90154D01*
X362770Y89616D01*
X363863Y89284D01*
X364500Y89221D01*
Y94500D01*
D02*
G37*
G36*
X335000Y100828D02*
X333863Y100716D01*
X332770Y100384D01*
X331762Y99846D01*
X330879Y99121D01*
X330154Y98238D01*
X329616Y97230D01*
X329284Y96137D01*
X329172Y95000D01*
X329284Y93863D01*
X329616Y92770D01*
X330154Y91762D01*
X330879Y90879D01*
X331762Y90154D01*
X332770Y89616D01*
X333863Y89284D01*
X335000Y89172D01*
X336137Y89284D01*
X337230Y89616D01*
X338238Y90154D01*
X339121Y90879D01*
X339846Y91762D01*
X340384Y92770D01*
X340716Y93863D01*
X340828Y95000D01*
X340716Y96137D01*
X340384Y97230D01*
X339846Y98238D01*
X339121Y99121D01*
X338238Y99846D01*
X337230Y100384D01*
X336137Y100716D01*
X335000Y100828D01*
D02*
G37*
G36*
X86283Y90457D02*
X81583D01*
Y87500D01*
X86283D01*
Y90457D01*
D02*
G37*
G36*
Y86500D02*
X81583D01*
Y83543D01*
X86283D01*
Y86500D01*
D02*
G37*
G36*
X302930Y79206D02*
X297630D01*
Y76406D01*
X302930D01*
Y79206D01*
D02*
G37*
G36*
X293630D02*
X288330D01*
Y76406D01*
X293630D01*
Y79206D01*
D02*
G37*
G36*
X302930Y72405D02*
X297630D01*
Y69605D01*
X302930D01*
Y72405D01*
D02*
G37*
G36*
X293630D02*
X288330D01*
Y69605D01*
X293630D01*
Y72405D01*
D02*
G37*
G36*
X247000Y88039D02*
X246220Y87884D01*
X245558Y87442D01*
X245116Y86780D01*
X245002Y86206D01*
X234830D01*
Y42606D01*
X274430D01*
Y86206D01*
X248998D01*
X248884Y86780D01*
X248442Y87442D01*
X247780Y87884D01*
X247000Y88039D01*
D02*
G37*
G36*
X256000Y28333D02*
X254667Y28202D01*
X253385Y27813D01*
X252204Y27181D01*
X251168Y26332D01*
X250319Y25296D01*
X249687Y24115D01*
X249298Y22833D01*
X249167Y21500D01*
X249298Y20167D01*
X249687Y18885D01*
X250319Y17704D01*
X251168Y16668D01*
X252204Y15819D01*
X253385Y15187D01*
X254667Y14798D01*
X256000Y14667D01*
X257333Y14798D01*
X258615Y15187D01*
X259796Y15819D01*
X260832Y16668D01*
X261681Y17704D01*
X262313Y18885D01*
X262702Y20167D01*
X262833Y21500D01*
X262702Y22833D01*
X262313Y24115D01*
X261681Y25296D01*
X260832Y26332D01*
X259796Y27181D01*
X258615Y27813D01*
X257333Y28202D01*
X256000Y28333D01*
D02*
G37*
G36*
X354492Y220259D02*
Y218094D01*
X356657D01*
X356451Y218591D01*
X355816Y219418D01*
X354989Y220053D01*
X354492Y220259D01*
D02*
G37*
G36*
X351492Y220259D02*
X350995Y220053D01*
X350168Y219418D01*
X349534Y218591D01*
X349328Y218094D01*
X351492D01*
Y220259D01*
D02*
G37*
G36*
X302930Y219406D02*
X297630D01*
Y216605D01*
X302930D01*
Y219406D01*
D02*
G37*
G36*
X370000Y229337D02*
X368666Y229205D01*
X367384Y228816D01*
X366202Y228185D01*
X365166Y227334D01*
X364315Y226298D01*
X363684Y225116D01*
X363295Y223834D01*
X363163Y222500D01*
X363295Y221166D01*
X363684Y219884D01*
X364315Y218702D01*
X365166Y217666D01*
X366202Y216815D01*
X367384Y216184D01*
X368666Y215794D01*
X370000Y215663D01*
X371334Y215794D01*
X372616Y216184D01*
X373798Y216815D01*
X374834Y217666D01*
X375685Y218702D01*
X376316Y219884D01*
X376706Y221166D01*
X376837Y222500D01*
X376706Y223834D01*
X376316Y225116D01*
X375685Y226298D01*
X374834Y227334D01*
X373798Y228185D01*
X372616Y228816D01*
X371334Y229205D01*
X370000Y229337D01*
D02*
G37*
G36*
X351492Y215094D02*
X349328D01*
X349534Y214598D01*
X350168Y213771D01*
X350995Y213136D01*
X351492Y212930D01*
Y215094D01*
D02*
G37*
G36*
X356657D02*
X354492D01*
Y212930D01*
X354989Y213136D01*
X355816Y213771D01*
X356451Y214598D01*
X356657Y215094D01*
D02*
G37*
G36*
X361630Y195056D02*
Y189906D01*
X366781D01*
X366443Y191020D01*
X365811Y192202D01*
X364962Y193237D01*
X363926Y194087D01*
X362745Y194718D01*
X361630Y195056D01*
D02*
G37*
G36*
X358630D02*
X357515Y194718D01*
X356334Y194087D01*
X355298Y193237D01*
X354449Y192202D01*
X353817Y191020D01*
X353479Y189906D01*
X358630D01*
Y195056D01*
D02*
G37*
G36*
X366781Y186906D02*
X361630D01*
Y181755D01*
X362745Y182093D01*
X363926Y182724D01*
X364962Y183574D01*
X365811Y184609D01*
X366443Y185791D01*
X366781Y186906D01*
D02*
G37*
G36*
X358630D02*
X353479D01*
X353817Y185791D01*
X354449Y184609D01*
X355298Y183574D01*
X356334Y182724D01*
X357515Y182093D01*
X358630Y181755D01*
Y186906D01*
D02*
G37*
G36*
X353492Y53522D02*
Y50094D01*
X356920D01*
X356850Y50628D01*
X356451Y51591D01*
X355816Y52418D01*
X354989Y53053D01*
X354026Y53452D01*
X353492Y53522D01*
D02*
G37*
G36*
X352492Y53522D02*
X351958Y53452D01*
X350995Y53053D01*
X350168Y52418D01*
X349534Y51591D01*
X349135Y50628D01*
X349064Y50094D01*
X352492D01*
Y53522D01*
D02*
G37*
G36*
X302930Y53905D02*
X296130D01*
Y49606D01*
X302930D01*
Y53905D01*
D02*
G37*
G36*
X370000Y62337D02*
X368666Y62205D01*
X367384Y61816D01*
X366202Y61185D01*
X365166Y60334D01*
X364315Y59298D01*
X363684Y58116D01*
X363295Y56834D01*
X363163Y55500D01*
X363295Y54166D01*
X363684Y52884D01*
X364315Y51702D01*
X365166Y50666D01*
X366202Y49815D01*
X367384Y49184D01*
X368666Y48794D01*
X370000Y48663D01*
X371334Y48794D01*
X372616Y49184D01*
X373798Y49815D01*
X374834Y50666D01*
X375685Y51702D01*
X376316Y52884D01*
X376706Y54166D01*
X376837Y55500D01*
X376706Y56834D01*
X376316Y58116D01*
X375685Y59298D01*
X374834Y60334D01*
X373798Y61185D01*
X372616Y61816D01*
X371334Y62205D01*
X370000Y62337D01*
D02*
G37*
G36*
X352492Y49095D02*
X349064D01*
X349135Y48561D01*
X349534Y47598D01*
X350168Y46771D01*
X350995Y46136D01*
X351958Y45737D01*
X352492Y45667D01*
Y49095D01*
D02*
G37*
G36*
X356920D02*
X353492D01*
Y45667D01*
X354026Y45737D01*
X354989Y46136D01*
X355816Y46771D01*
X356451Y47598D01*
X356850Y48561D01*
X356920Y49095D01*
D02*
G37*
G36*
X326500Y28284D02*
Y22000D01*
X332784D01*
X332702Y22833D01*
X332313Y24115D01*
X331681Y25296D01*
X330832Y26332D01*
X329796Y27181D01*
X328615Y27813D01*
X327333Y28202D01*
X326500Y28284D01*
D02*
G37*
G36*
X325500Y28284D02*
X324667Y28202D01*
X323385Y27813D01*
X322204Y27181D01*
X321168Y26332D01*
X320319Y25296D01*
X319687Y24115D01*
X319298Y22833D01*
X319216Y22000D01*
X325500D01*
Y28284D01*
D02*
G37*
G36*
X332784Y21000D02*
X326500D01*
Y14716D01*
X327333Y14798D01*
X328615Y15187D01*
X329796Y15819D01*
X330832Y16668D01*
X331681Y17704D01*
X332313Y18885D01*
X332702Y20167D01*
X332784Y21000D01*
D02*
G37*
G36*
X325500D02*
X319216D01*
X319298Y20167D01*
X319687Y18885D01*
X320319Y17704D01*
X321168Y16668D01*
X322204Y15819D01*
X323385Y15187D01*
X324667Y14798D01*
X325500Y14716D01*
Y21000D01*
D02*
G37*
%LPD*%
D11*
X150600Y186000D02*
X153230Y188630D01*
X150600Y185576D02*
Y186000D01*
X153230Y188630D02*
X157930D01*
X150300Y185276D02*
X150600Y185576D01*
X147500Y185276D02*
X150300D01*
X150600Y194000D02*
Y194424D01*
X152821Y191779D02*
X157930D01*
X147500Y194724D02*
X150300D01*
X150600Y194424D01*
Y194000D02*
X152821Y191779D01*
X143300Y190000D02*
X147500D01*
X147500Y190000D01*
X143299Y189999D02*
X143300Y190000D01*
X70677Y105323D02*
Y117665D01*
Y105323D02*
X74000Y102000D01*
Y65000D02*
Y102000D01*
X62802Y53802D02*
X74000Y65000D01*
X62802Y40800D02*
Y53802D01*
X63000Y30858D02*
X81000D01*
X45000D02*
X63000D01*
X62802Y40800D02*
X66660D01*
X58943D02*
X62802D01*
Y31057D02*
X63000Y30858D01*
X62802Y31057D02*
Y40800D01*
X66660D02*
X66660Y40800D01*
X39000Y64598D02*
X51598D01*
X57882Y70882D01*
Y88335D01*
X39000Y64598D02*
Y68457D01*
Y60740D02*
Y64598D01*
X27858Y64000D02*
Y71000D01*
Y35000D02*
Y64000D01*
X28457Y64598D01*
X39000D01*
Y60740D02*
X39000Y60740D01*
X214130Y172105D02*
Y196130D01*
X249406Y231405D02*
X254630D01*
X214130Y196130D02*
X249406Y231405D01*
X216000Y151000D02*
Y154000D01*
X208000Y143000D02*
X216000Y151000D01*
X211105Y172105D02*
X214130D01*
X197630Y158630D02*
X211105Y172105D01*
X197630Y155806D02*
Y158630D01*
X128130Y265905D02*
X134224Y272000D01*
X168035D01*
X174130Y265905D01*
X118130D02*
X124035Y260000D01*
X158224D01*
X164130Y265905D01*
X159130Y235425D02*
X164425D01*
X174130Y245130D02*
Y265905D01*
X164425Y235425D02*
X174130Y245130D01*
X148000Y224000D02*
X185000D01*
X141130Y230870D02*
Y235906D01*
Y230870D02*
X148000Y224000D01*
X185000D02*
X189000Y220000D01*
X184520Y185480D02*
X190330D01*
X182000Y188000D02*
X184520Y185480D01*
X189000Y206000D02*
Y220000D01*
X187000Y229000D02*
X193000Y223000D01*
X191000Y201000D02*
X193000Y203000D01*
Y223000D01*
X141130Y243583D02*
X141213Y243500D01*
X144500D01*
X145500Y242500D01*
Y233500D02*
Y242500D01*
Y233500D02*
X150000Y229000D01*
X151094Y238736D02*
X151366Y238465D01*
X150000Y229000D02*
X187000D01*
X182000Y207500D02*
X182002Y207498D01*
Y200108D02*
Y207498D01*
X185094Y210367D02*
X185124Y210338D01*
Y200135D02*
Y210338D01*
X185000Y191000D02*
X187370Y188630D01*
X190330D01*
X310375Y211375D02*
X314500D01*
X310000Y211000D02*
X310375Y211375D01*
X45000Y216701D02*
Y217000D01*
X41150Y212850D02*
X45000Y216701D01*
X83000Y205035D02*
X101130Y186906D01*
X83000Y205035D02*
Y205760D01*
X83000Y213240D02*
X83000Y213240D01*
X83000Y213240D02*
Y221000D01*
X52000Y220150D02*
Y226500D01*
X38000Y219150D02*
Y226500D01*
X68000Y94500D02*
X68118Y94382D01*
Y88335D02*
Y94382D01*
X63000Y88335D02*
Y94500D01*
X201978Y143000D02*
X202203Y142774D01*
X177000Y143000D02*
X201978D01*
X174850Y145150D02*
X177000Y143000D01*
X174850Y145150D02*
Y148500D01*
X311000Y47125D02*
X314125Y44000D01*
X311000Y47125D02*
Y95000D01*
X309000Y97000D02*
X311000Y95000D01*
X314500Y66625D02*
Y73000D01*
X171500Y148500D02*
X174850D01*
X170500Y149500D02*
X171500Y148500D01*
X167000Y149500D02*
X170500D01*
X153110Y145760D02*
X158000D01*
X153000Y145650D02*
X153110Y145760D01*
X153000Y145650D02*
Y156350D01*
Y162650D02*
Y174000D01*
X155032Y176031D01*
X157930D01*
X63173Y121814D02*
X64500Y123141D01*
Y128000D01*
X63173Y117839D02*
Y121814D01*
X63000Y117665D02*
X63173Y117839D01*
X60441Y117665D02*
Y143059D01*
X53000Y150500D02*
X60441Y143059D01*
X56500Y125244D02*
Y127500D01*
Y125244D02*
X57816Y123927D01*
Y117731D02*
Y123927D01*
X157920Y185490D02*
X157930Y185480D01*
X154010Y185490D02*
X157920D01*
X154000Y185500D02*
X154010Y185490D01*
X185124Y200135D02*
X185153Y200106D01*
X38000Y212850D02*
X41150D01*
X53150Y213850D02*
X59000Y208000D01*
X52000Y213850D02*
X53150D01*
X182002Y200108D02*
X182004Y200106D01*
X57816Y117731D02*
X57882Y117665D01*
X17252Y180142D02*
X48748D01*
X60142D01*
X64000Y184000D01*
X169405Y200106D02*
X169453Y200058D01*
Y193547D02*
Y200058D01*
Y193547D02*
X169500Y193500D01*
X55323Y88335D02*
X55411Y88423D01*
Y95911D01*
X55500Y96000D01*
X172555Y190555D02*
Y200106D01*
X170500Y188500D02*
X172555Y190555D01*
X175602Y200003D02*
X175705Y200106D01*
X175602Y191102D02*
Y200003D01*
X175500Y191000D02*
X175602Y191102D01*
X179000Y194500D02*
Y199606D01*
X178677Y199928D02*
X179000Y199606D01*
X178677Y199928D02*
X178854Y200106D01*
X68059Y117724D02*
X68118Y117665D01*
X68059Y117724D02*
Y124441D01*
X68000Y124500D02*
X68059Y124441D01*
X166256Y162150D02*
Y167706D01*
Y162150D02*
X167500Y160906D01*
Y160500D02*
Y160906D01*
X166000Y215016D02*
X166130Y214886D01*
X172690Y167840D02*
Y173965D01*
X172555Y167706D02*
X172690Y167840D01*
Y173965D02*
X172825Y174100D01*
X199153Y194929D02*
X206130Y201905D01*
X190330Y194929D02*
X199153D01*
X204731Y184632D02*
Y184804D01*
X198130Y191405D02*
X204731Y184804D01*
Y184632D02*
X206130Y183233D01*
Y181905D02*
Y183233D01*
X190704Y191405D02*
X198130D01*
X165441Y214886D02*
X166130D01*
X159130Y242905D02*
X164130Y247905D01*
Y265905D01*
X158441Y242905D02*
X159130D01*
X151366Y238465D02*
X155402D01*
X158441Y235425D01*
X159130D01*
X151366Y241024D02*
X156559D01*
X158441Y242905D01*
X190330Y191779D02*
X190704Y191405D01*
X174886Y157000D02*
X175980Y155905D01*
X163106Y160394D02*
X166500Y157000D01*
X174886D01*
X163106Y160394D02*
Y167706D01*
X254630Y62406D02*
Y64406D01*
X338291Y59500D02*
X340000Y61209D01*
X329500Y62000D02*
X332000Y59500D01*
X329500Y62000D02*
Y66625D01*
X332000Y59500D02*
X338291D01*
X314125Y44000D02*
X314500Y44375D01*
X338291Y51500D02*
X340000Y49791D01*
X332000Y51500D02*
X338291D01*
X329500Y44375D02*
Y49000D01*
X332000Y51500D01*
X314500Y233625D02*
Y240000D01*
X338291Y226500D02*
X340000Y228209D01*
X329500Y229000D02*
X332000Y226500D01*
X338291D01*
X329500Y229000D02*
Y233625D01*
X338291Y218500D02*
X340000Y216791D01*
X332000Y218500D02*
X338291D01*
X329500Y211375D02*
Y216000D01*
X332000Y218500D01*
X38000Y150740D02*
X38240Y150500D01*
X38000Y150740D02*
X38000Y150740D01*
X38240Y150500D02*
X53000D01*
X65559Y111559D02*
Y117665D01*
X59740Y105740D02*
X65559Y111559D01*
X40000Y105740D02*
X59740D01*
X40000Y105740D02*
Y111457D01*
Y105740D02*
X40000Y105740D01*
X38000Y150740D02*
Y157457D01*
X27858Y151000D02*
Y165748D01*
Y134252D02*
Y151000D01*
X28118Y150740D02*
X38000D01*
X27858Y151000D02*
X28118Y150740D01*
X27858Y100500D02*
Y117748D01*
Y86252D02*
Y100500D01*
X28098Y105740D02*
X40000D01*
X27858Y105500D02*
X28098Y105740D01*
X254630Y229405D02*
Y231405D01*
X202130Y154806D02*
Y158302D01*
X199390Y152065D02*
X202130Y154806D01*
Y158302D02*
X204933Y161105D01*
X205933D01*
X204661Y159833D02*
Y159833D01*
X188630Y152065D02*
X199390D01*
X187730D02*
X188630D01*
X205933Y161105D02*
X206130D01*
X204661Y159833D02*
X205933Y161105D01*
X185551Y154806D02*
X187130Y153227D01*
Y152665D02*
X187730Y152065D01*
X182280Y154806D02*
X185551D01*
X187130Y152665D02*
Y153227D01*
D32*
X329500Y44375D02*
D03*
X324500D02*
D03*
X319500D02*
D03*
X314500D02*
D03*
Y66625D02*
D03*
X319500D02*
D03*
X324500D02*
D03*
X329500D02*
D03*
X329500Y233625D02*
D03*
X324500D02*
D03*
X319500D02*
D03*
X314500D02*
D03*
Y211375D02*
D03*
X319500D02*
D03*
X324500D02*
D03*
X329500D02*
D03*
D36*
X157930Y182331D02*
D03*
Y194929D02*
D03*
Y191779D02*
D03*
Y188630D02*
D03*
Y185480D02*
D03*
Y179181D02*
D03*
Y176031D02*
D03*
Y172882D02*
D03*
X190330D02*
D03*
Y176031D02*
D03*
Y179181D02*
D03*
Y182331D02*
D03*
Y185480D02*
D03*
Y188630D02*
D03*
Y191779D02*
D03*
Y194929D02*
D03*
D37*
X163106Y167706D02*
D03*
X166256D02*
D03*
X169405D02*
D03*
X172555D02*
D03*
X175705D02*
D03*
X178854D02*
D03*
X182004D02*
D03*
X185153D02*
D03*
Y200106D02*
D03*
X182004D02*
D03*
X178854D02*
D03*
X175705D02*
D03*
X172555D02*
D03*
X169405D02*
D03*
X166256D02*
D03*
X163106D02*
D03*
D38*
X188630Y159546D02*
D03*
Y152065D02*
D03*
X197630Y155806D02*
D03*
X158000Y153240D02*
D03*
Y145760D02*
D03*
X167000Y149500D02*
D03*
D62*
X10142Y35000D02*
D03*
Y71000D02*
D03*
X27858Y35000D02*
D03*
Y71000D02*
D03*
Y120000D02*
D03*
Y84000D02*
D03*
X10142Y120000D02*
D03*
Y84000D02*
D03*
Y132000D02*
D03*
Y168000D02*
D03*
X27858Y132000D02*
D03*
Y168000D02*
D03*
D63*
X39000Y53260D02*
D03*
Y60740D02*
D03*
X38000Y143260D02*
D03*
Y150740D02*
D03*
X40000Y98260D02*
D03*
Y105740D02*
D03*
X82000Y147260D02*
D03*
Y154740D02*
D03*
X82130Y160165D02*
D03*
Y167646D02*
D03*
X83000Y205760D02*
D03*
Y213240D02*
D03*
X134130Y69665D02*
D03*
Y77146D02*
D03*
Y61646D02*
D03*
Y54165D02*
D03*
X159130Y235425D02*
D03*
Y242905D02*
D03*
X166130Y208405D02*
D03*
Y215886D02*
D03*
D64*
X45000Y30858D02*
D03*
X81000D02*
D03*
X45000Y13142D02*
D03*
X81000D02*
D03*
X15000Y197858D02*
D03*
X51000D02*
D03*
X15000Y180142D02*
D03*
X51000D02*
D03*
D65*
X51857Y40800D02*
D03*
X58943D02*
D03*
X62457Y78000D02*
D03*
X69543D02*
D03*
D66*
X74140Y40800D02*
D03*
X66660D02*
D03*
X156740Y48000D02*
D03*
X149260D02*
D03*
D67*
X39000Y75543D02*
D03*
Y68457D02*
D03*
X40000Y118543D02*
D03*
Y111457D02*
D03*
X38000Y164543D02*
D03*
Y157457D02*
D03*
X134630Y236319D02*
D03*
Y243406D02*
D03*
D68*
X70677Y117665D02*
D03*
X68118D02*
D03*
X65559D02*
D03*
X63000D02*
D03*
X60441D02*
D03*
X57882D02*
D03*
X55323D02*
D03*
X70677Y88335D02*
D03*
X68118D02*
D03*
X65559D02*
D03*
X63000D02*
D03*
X60441D02*
D03*
X57882D02*
D03*
X55323D02*
D03*
D69*
X254630Y64406D02*
D03*
Y231405D02*
D03*
D70*
X295630Y54405D02*
D03*
Y74405D02*
D03*
Y221406D02*
D03*
Y241406D02*
D03*
D71*
X103654Y76638D02*
D03*
X121606D02*
D03*
X110106Y162102D02*
D03*
X92154D02*
D03*
D72*
X112630Y51835D02*
D03*
X101130Y186906D02*
D03*
D73*
X151366Y235906D02*
D03*
Y238465D02*
D03*
Y241024D02*
D03*
Y243583D02*
D03*
X141130Y235906D02*
D03*
Y238465D02*
D03*
Y241024D02*
D03*
Y243583D02*
D03*
D74*
X162000Y37500D02*
D03*
Y28500D02*
D03*
X83000Y230000D02*
D03*
Y221000D02*
D03*
X52000Y235500D02*
D03*
Y226500D02*
D03*
X38000D02*
D03*
Y235500D02*
D03*
D75*
X96784Y150000D02*
D03*
X107217D02*
D03*
X86783Y87000D02*
D03*
X97216D02*
D03*
D76*
X119000Y199284D02*
D03*
Y209717D02*
D03*
X131000Y40216D02*
D03*
Y29783D02*
D03*
D77*
X52000Y220150D02*
D03*
Y213850D02*
D03*
X38000Y219150D02*
D03*
Y212850D02*
D03*
X153500Y200350D02*
D03*
Y206650D02*
D03*
X196300Y171050D02*
D03*
Y164750D02*
D03*
X214130Y172105D02*
D03*
Y165805D02*
D03*
X206130Y161105D02*
D03*
Y154806D02*
D03*
X153000Y162650D02*
D03*
Y156350D02*
D03*
D78*
X148150Y172000D02*
D03*
X141850D02*
D03*
X144850Y179100D02*
D03*
X151150D02*
D03*
X183650Y216500D02*
D03*
X177350D02*
D03*
X175980Y155905D02*
D03*
X182280D02*
D03*
X153150Y145500D02*
D03*
X146850D02*
D03*
X174850Y148500D02*
D03*
X181150D02*
D03*
D79*
X340000Y216791D02*
D03*
Y228209D02*
D03*
Y49791D02*
D03*
Y61209D02*
D03*
D80*
X147500Y194724D02*
D03*
Y190000D02*
D03*
Y185276D02*
D03*
D81*
X161875Y22199D02*
X162000Y22324D01*
Y28500D01*
X134630Y243406D02*
X137012Y241024D01*
X141130D01*
X134630Y236319D02*
X136776Y238465D01*
X141130D01*
X70677Y79134D02*
Y88335D01*
X166130Y207405D02*
X166256Y207279D01*
Y200106D02*
Y207279D01*
D82*
X162000Y37500D02*
Y42740D01*
X156740Y48000D02*
X162000Y42740D01*
X116465Y48000D02*
X124248Y40216D01*
X116465Y48000D02*
X149260D01*
X112630Y51835D02*
X116465Y48000D01*
X124248Y40216D02*
X131000D01*
X107217Y150000D02*
X110106Y152890D01*
Y162102D01*
X97216Y87000D02*
X103654Y80563D01*
Y76638D02*
Y80563D01*
X90216Y160165D02*
X92154Y162102D01*
X82130Y160165D02*
X90216D01*
X82000Y154740D02*
X82130Y154870D01*
Y160165D01*
X134130Y77146D02*
X141854D01*
X142000Y77000D01*
X114961Y54165D02*
X134130D01*
X112630Y51835D02*
X114961Y54165D01*
X134130Y61646D02*
Y69665D01*
X126315D02*
X134130D01*
X121606Y74374D02*
Y76638D01*
Y74374D02*
X126315Y69665D01*
D83*
X106622Y186906D02*
X119000Y199284D01*
X101130Y186906D02*
X106622D01*
X153500Y206650D02*
X158850D01*
X163106Y202394D01*
Y200106D02*
Y202394D01*
X69543Y78000D02*
X70677Y79134D01*
X101130Y186646D02*
Y186906D01*
X82130Y167646D02*
X101130Y186646D01*
X154672Y194929D02*
X157930D01*
X153500Y196101D02*
Y200350D01*
Y196101D02*
X154672Y194929D01*
X190330Y172882D02*
X194271D01*
X196103Y171050D01*
X196300D01*
D84*
X352833Y61246D02*
X352992Y61405D01*
X352514Y61246D02*
X352833D01*
X352476Y61209D02*
X352514Y61246D01*
X352833Y228246D02*
X352992Y228405D01*
X352514Y228246D02*
X352833D01*
X352476Y228209D02*
X352514Y228246D01*
D85*
X340000Y61209D02*
X352476D01*
X340000Y228209D02*
X352476D01*
D86*
X92010Y115800D02*
D03*
D87*
X107600D02*
D03*
X123191D02*
D03*
X138781D02*
D03*
D88*
X144687Y105957D02*
D03*
D89*
X108130Y265905D02*
D03*
X154130D02*
D03*
D90*
X118130D02*
D03*
X128130D02*
D03*
X138130D02*
D03*
X164130D02*
D03*
X174130D02*
D03*
X184130D02*
D03*
D91*
X352992Y228405D02*
D03*
Y61405D02*
D03*
D92*
Y216595D02*
D03*
Y49595D02*
D03*
D93*
X370000Y222500D02*
D03*
Y55500D02*
D03*
D94*
X326000Y21500D02*
D03*
X256000D02*
D03*
X290130Y188406D02*
D03*
X360130D02*
D03*
D95*
X237000Y200000D02*
D03*
X216000Y154000D02*
D03*
X205000Y240000D02*
D03*
X85000Y60000D02*
D03*
X70000Y250000D02*
D03*
X335000Y130000D02*
D03*
Y160000D02*
D03*
Y95000D02*
D03*
X365000Y130000D02*
D03*
Y95000D02*
D03*
Y160000D02*
D03*
D96*
X16000Y16000D02*
D03*
Y264000D02*
D03*
X354130Y17906D02*
D03*
Y265905D02*
D03*
D97*
X206130Y181905D02*
D03*
Y191905D02*
D03*
Y201905D02*
D03*
D98*
Y211906D02*
D03*
D99*
X143299Y189999D02*
D03*
X161875Y22199D02*
D03*
X182000Y188000D02*
D03*
X185000Y191000D02*
D03*
X189000Y206000D02*
D03*
X186000Y216500D02*
D03*
X182500Y219000D02*
D03*
X191000Y201000D02*
D03*
X185094Y210367D02*
D03*
X182000Y207500D02*
D03*
X178500Y214000D02*
D03*
X182500D02*
D03*
X258000Y200000D02*
D03*
X248000Y190000D02*
D03*
X238000Y180000D02*
D03*
X228000Y170000D02*
D03*
X225780Y117220D02*
D03*
X232100Y120900D02*
D03*
X134300Y33100D02*
D03*
X127700D02*
D03*
X122500Y207000D02*
D03*
X310000Y211000D02*
D03*
X271000Y206000D02*
D03*
X86000Y15000D02*
D03*
X40000D02*
D03*
X51000Y195000D02*
D03*
X15000D02*
D03*
X13000Y170000D02*
D03*
Y74000D02*
D03*
Y32000D02*
D03*
X45000Y217000D02*
D03*
X104000Y153500D02*
D03*
X112500Y150000D02*
D03*
X104000Y146500D02*
D03*
X94000Y83500D02*
D03*
X102500Y87000D02*
D03*
X94000Y90500D02*
D03*
X115500Y207000D02*
D03*
X131000Y24500D02*
D03*
X40000Y95500D02*
D03*
X85500Y232500D02*
D03*
X41000Y238000D02*
D03*
X55000D02*
D03*
X38000Y167000D02*
D03*
Y140500D02*
D03*
X40000Y121500D02*
D03*
X13000Y131000D02*
D03*
Y121000D02*
D03*
X39500Y78500D02*
D03*
X13000Y83000D02*
D03*
X39000Y50500D02*
D03*
X49500Y44000D02*
D03*
X76500D02*
D03*
X156000Y205500D02*
D03*
Y201500D02*
D03*
X191000Y158500D02*
D03*
X160500Y154000D02*
D03*
X54500Y113500D02*
D03*
X68000Y94500D02*
D03*
X63000D02*
D03*
X68000Y74500D02*
D03*
X64000D02*
D03*
Y81500D02*
D03*
X68000D02*
D03*
X247000Y86000D02*
D03*
X202203Y142774D02*
D03*
X314500Y73000D02*
D03*
X309000Y97000D02*
D03*
X288000Y102000D02*
D03*
X251000D02*
D03*
X208000Y143000D02*
D03*
X183700Y148500D02*
D03*
X140000Y143000D02*
D03*
X135000D02*
D03*
X148000Y148000D02*
D03*
X82100Y144900D02*
D03*
X143000Y169500D02*
D03*
X146000Y176600D02*
D03*
X214200Y163300D02*
D03*
X206200Y152400D02*
D03*
X64500Y128000D02*
D03*
X56500Y127500D02*
D03*
X344000Y46000D02*
D03*
X340000D02*
D03*
X336000D02*
D03*
X151000Y205500D02*
D03*
Y201500D02*
D03*
X175000Y216500D02*
D03*
X178500Y219000D02*
D03*
X133500Y192500D02*
D03*
X154000Y185500D02*
D03*
X198800Y169900D02*
D03*
Y165900D02*
D03*
X185200Y164000D02*
D03*
X193800Y165900D02*
D03*
Y169900D02*
D03*
X142000Y77000D02*
D03*
X59000Y208000D02*
D03*
X169500Y193500D02*
D03*
X55500Y96000D02*
D03*
X170500Y188500D02*
D03*
X175500Y191000D02*
D03*
X179000Y194500D02*
D03*
X68000Y124500D02*
D03*
X64000Y184000D02*
D03*
X320500Y57500D02*
D03*
X316800Y55000D02*
D03*
X320500Y52500D02*
D03*
X324500Y57500D02*
D03*
X328200Y55000D02*
D03*
X324500Y52500D02*
D03*
X328200Y222000D02*
D03*
X324500Y219500D02*
D03*
Y224500D02*
D03*
X316800Y222000D02*
D03*
X320500Y224500D02*
D03*
Y219500D02*
D03*
X314500Y240000D02*
D03*
X336000Y213000D02*
D03*
X340000D02*
D03*
X344000D02*
D03*
D100*
X166000Y218500D02*
D03*
X172825Y174100D02*
D03*
X167500Y160500D02*
D03*
X131500Y242000D02*
D03*
Y238000D02*
D03*
D101*
X109260Y201240D02*
D03*
X93260D02*
D03*
X101260D02*
D03*
X112500Y37500D02*
D03*
X120500D02*
D03*
X104500D02*
D03*
M02*
