G04*
G04 #@! TF.GenerationSoftware,Altium Limited,Altium Designer,21.1.1 (26)*
G04*
G04 Layer_Color=16711935*
%FSLAX25Y25*%
%MOIN*%
G70*
G04*
G04 #@! TF.SameCoordinates,E270421F-5236-4404-944A-E4286B30A106*
G04*
G04*
G04 #@! TF.FilePolarity,Positive*
G04*
G01*
G75*
%ADD10C,0.00787*%
%ADD11C,0.01000*%
%ADD15C,0.00591*%
%ADD16C,0.00100*%
%ADD17C,0.00500*%
%ADD20C,0.00300*%
%ADD103C,0.00394*%
%ADD104C,0.00200*%
D10*
X353241Y77229D02*
G03*
X353241Y77229I-394J0D01*
G01*
Y244229D02*
G03*
X353241Y244229I-394J0D01*
G01*
X289130Y61405D02*
Y67405D01*
X231130Y206405D02*
X275130D01*
X231130D02*
Y256405D01*
X306130D01*
Y206405D02*
Y256405D01*
X275130Y206405D02*
X306130D01*
X289130Y228405D02*
Y234405D01*
X331000Y48500D02*
Y62500D01*
X313000D02*
X331000D01*
X313000Y48500D02*
Y62500D01*
Y48500D02*
X331000D01*
X313000Y215500D02*
X331000D01*
X313000D02*
Y229500D01*
X331000D01*
Y215500D02*
Y229500D01*
X231130Y39406D02*
X275130D01*
X231130D02*
Y89406D01*
X306130D01*
Y39406D02*
Y89406D01*
X275130Y39406D02*
X306130D01*
D11*
X329300Y60500D02*
G03*
X329300Y60500I-300J0D01*
G01*
X329300Y227500D02*
G03*
X329300Y227500I-300J0D01*
G01*
X298130Y188406D02*
X306630D01*
X343630D02*
X352130D01*
X306630Y177406D02*
X343630D01*
X306630Y199406D02*
X343630D01*
X306630Y177406D02*
Y199406D01*
X304130Y177406D02*
Y199406D01*
X343630Y188406D02*
Y199406D01*
Y177406D02*
Y188406D01*
X309500Y10500D02*
Y21500D01*
Y32500D01*
X270000Y10500D02*
Y32500D01*
X272500Y10500D02*
Y32500D01*
X309500D01*
X272500Y10500D02*
X309500D01*
Y21500D02*
X318000D01*
X264000D02*
X272500D01*
D15*
X65436Y109500D02*
X62156D01*
X61500Y108844D01*
Y107532D01*
X62156Y106876D01*
X65436D01*
Y102940D02*
X64780Y104252D01*
X63468Y105564D01*
X62156D01*
X61500Y104908D01*
Y103596D01*
X62156Y102940D01*
X62812D01*
X63468Y103596D01*
Y105564D01*
D16*
X156430Y192680D02*
X160330D01*
Y190879D02*
Y192680D01*
X156430Y194029D02*
X160330D01*
X156430D02*
Y195829D01*
X160330D01*
Y194029D02*
Y195829D01*
X162206Y197705D02*
Y201606D01*
X164006D01*
Y197705D02*
Y201606D01*
X162206Y197705D02*
X164006D01*
X165356D02*
Y201606D01*
X167156D01*
Y197705D02*
Y201606D01*
X165356Y197705D02*
X167156D01*
X168506D02*
Y201606D01*
X170306D01*
Y197705D02*
Y201606D01*
X168506Y197705D02*
X170306D01*
X171655D02*
Y201606D01*
X173455D01*
Y197705D02*
Y201606D01*
X171655Y197705D02*
X173455D01*
X174805D02*
Y201606D01*
X176605D01*
Y197705D02*
Y201606D01*
X174805Y197705D02*
X176605D01*
X177954D02*
Y201606D01*
X179754D01*
Y197705D02*
Y201606D01*
X177954Y197705D02*
X179754D01*
X181104D02*
Y201606D01*
X182904D01*
Y197705D02*
Y201606D01*
X181104Y197705D02*
X182904D01*
X184254D02*
Y201606D01*
X186054D01*
Y197705D02*
Y201606D01*
X184254Y197705D02*
X186054D01*
X159650Y155200D02*
X165350D01*
Y143800D02*
Y155200D01*
X159650Y143800D02*
X165350D01*
X159650D02*
Y155200D01*
X165350Y150500D02*
X167600D01*
Y148500D02*
Y150500D01*
X165350Y148500D02*
X167600D01*
X165350D02*
Y150500D01*
X157400Y144760D02*
X159650D01*
X157400D02*
Y146760D01*
X159650D01*
Y144760D02*
Y146760D01*
X157400Y152240D02*
X159650D01*
X157400D02*
Y154240D01*
X159650D01*
Y152240D02*
Y154240D01*
X190280Y161505D02*
X195980D01*
Y150106D02*
Y161505D01*
X190280Y150106D02*
X195980D01*
X190280D02*
Y161505D01*
X195980Y156806D02*
X198230D01*
Y154806D02*
Y156806D01*
X195980Y154806D02*
X198230D01*
X195980D02*
Y156806D01*
X188030Y151065D02*
X190280D01*
X188030D02*
Y153065D01*
X187930Y175131D02*
X191830D01*
X187930D02*
Y176932D01*
Y173782D02*
X191830D01*
Y171982D02*
Y173782D01*
X187930Y171982D02*
X191830D01*
X187930D02*
Y173782D01*
X186054Y166206D02*
Y170106D01*
X184254Y166206D02*
X186054D01*
X184254D02*
Y170106D01*
X186054D01*
X182904Y166206D02*
Y170106D01*
X181104Y166206D02*
X182904D01*
X181104D02*
Y170106D01*
X182904D01*
X179754Y166206D02*
Y170106D01*
X177954Y166206D02*
X179754D01*
X177954D02*
Y170106D01*
X179754D01*
X176605Y166206D02*
Y170106D01*
X174805Y166206D02*
X176605D01*
X174805D02*
Y170106D01*
X176605D01*
X173455Y166206D02*
Y170106D01*
X171655Y166206D02*
X173455D01*
X171655D02*
Y170106D01*
X173455D01*
X170306Y166206D02*
Y170106D01*
X168506Y166206D02*
X170306D01*
X168506D02*
Y170106D01*
X170306D01*
X167156Y166206D02*
Y170106D01*
X165356Y166206D02*
X167156D01*
X165356D02*
Y170106D01*
X167156D01*
X164006Y166206D02*
Y170106D01*
X162206Y166206D02*
X164006D01*
X162206D02*
Y170106D01*
X164006D01*
X156430Y171982D02*
X160330D01*
X156430D02*
Y173782D01*
X160330D01*
Y171982D02*
Y173782D01*
X156430Y175131D02*
X160330D01*
X156430D02*
Y176932D01*
X160330D01*
Y175131D02*
Y176932D01*
X156430Y178281D02*
X160330D01*
X156430D02*
Y180081D01*
X160330D01*
Y178281D02*
Y180081D01*
X156430Y181431D02*
X160330D01*
X156430D02*
Y183231D01*
X160330D01*
Y181431D02*
Y183231D01*
X156430Y184580D02*
X160330D01*
X156430D02*
Y186380D01*
X160330D01*
Y184580D02*
Y186380D01*
X156430Y187730D02*
X160330D01*
X156430D02*
Y189530D01*
X160330D01*
Y187730D02*
Y189530D01*
X156430Y190879D02*
X160330D01*
X156430D02*
Y192680D01*
X160330Y170106D02*
Y197705D01*
X187930D01*
Y170106D02*
Y197705D01*
X160330Y170106D02*
X187930D01*
X160330Y192706D02*
X165330Y197705D01*
X187930Y195829D02*
X191830D01*
Y194029D02*
Y195829D01*
X187930Y194029D02*
X191830D01*
X187930D02*
Y195829D01*
Y192680D02*
X191830D01*
Y190879D02*
Y192680D01*
X187930Y190879D02*
X191830D01*
X187930D02*
Y192680D01*
Y189530D02*
X191830D01*
Y187730D02*
Y189530D01*
X187930Y187730D02*
X191830D01*
X187930D02*
Y189530D01*
Y186380D02*
X191830D01*
Y184580D02*
Y186380D01*
X187930Y184580D02*
X191830D01*
X187930D02*
Y186380D01*
Y183231D02*
X191830D01*
Y181431D02*
Y183231D01*
X187930Y181431D02*
X191830D01*
X187930D02*
Y183231D01*
Y180081D02*
X191830D01*
Y178281D02*
Y180081D01*
X187930Y178281D02*
X191830D01*
X187930D02*
Y180081D01*
Y176932D02*
X191830D01*
Y175131D02*
Y176932D01*
X188030Y153065D02*
X190280D01*
Y151065D02*
Y153065D01*
X188030Y158546D02*
X190280D01*
X188030D02*
Y160546D01*
X190280D01*
Y158546D02*
Y160546D01*
D17*
X349107Y36580D02*
Y74572D01*
X382572D01*
X388083Y69060D01*
Y42092D02*
Y69060D01*
X382572Y36580D02*
X388083Y42092D01*
X349107Y36580D02*
X382572D01*
X349107Y203580D02*
Y241572D01*
X382572D01*
X388083Y236060D01*
Y209092D02*
Y236060D01*
X382572Y203580D02*
X388083Y209092D01*
X349107Y203580D02*
X382572D01*
X75521Y113300D02*
X81521Y115800D01*
X75521Y113300D02*
Y118300D01*
X81521Y115800D01*
X82521Y138162D02*
X148309D01*
X82521Y92493D02*
Y138162D01*
Y92493D02*
X148309D01*
Y138162D01*
D20*
X160580Y198169D02*
X163912Y194837D01*
X160580D02*
X163912Y198169D01*
X160580Y196503D02*
X163912D01*
X162246Y194837D02*
Y198169D01*
D103*
X74221Y110480D02*
G03*
X74221Y110480I-1969J0D01*
G01*
X36342Y52669D02*
Y61331D01*
X41658Y52669D02*
Y61331D01*
X36342Y52669D02*
X41658D01*
X36342Y61331D02*
X41658D01*
X51069Y43654D02*
X59731D01*
X51069Y37946D02*
X59731D01*
X51069D02*
Y43654D01*
X59731Y37946D02*
Y43654D01*
X66069Y38142D02*
X74731D01*
X66069Y43457D02*
X74731D01*
Y38142D02*
Y43457D01*
X66069Y38142D02*
Y43457D01*
X41854Y67669D02*
Y76331D01*
X36146Y67669D02*
Y76331D01*
X41854D01*
X36146Y67669D02*
X41854D01*
X50205Y114024D02*
X75795D01*
X50205Y91976D02*
X75795D01*
Y114024D01*
X50205Y91976D02*
Y114024D01*
X61669Y80854D02*
X70331D01*
X61669Y75146D02*
X70331D01*
X61669D02*
Y80854D01*
X70331Y75146D02*
Y80854D01*
X35342Y142669D02*
Y151331D01*
X40657Y142669D02*
Y151331D01*
X35342Y142669D02*
X40657D01*
X35342Y151331D02*
X40657D01*
X42854Y110669D02*
Y119331D01*
X37146Y110669D02*
Y119331D01*
X42854D01*
X37146Y110669D02*
X42854D01*
X37343Y97669D02*
Y106331D01*
X42658Y97669D02*
Y106331D01*
X37343Y97669D02*
X42658D01*
X37343Y106331D02*
X42658D01*
X40854Y156669D02*
Y165331D01*
X35146Y156669D02*
Y165331D01*
X40854D01*
X35146Y156669D02*
X40854D01*
X79343Y146669D02*
X84658D01*
X79343Y155331D02*
X84658D01*
X79343Y146669D02*
Y155331D01*
X84658Y146669D02*
Y155331D01*
X79472Y159575D02*
X84787D01*
X79472Y168236D02*
X84787D01*
X79472Y159575D02*
Y168236D01*
X84787Y159575D02*
Y168236D01*
X80343Y205169D02*
Y213831D01*
X85658Y205169D02*
Y213831D01*
X80343Y205169D02*
X85658D01*
X80343Y213831D02*
X85658D01*
X99638Y43370D02*
Y67779D01*
X125622Y43370D02*
Y67779D01*
X99638Y43370D02*
X125622D01*
X99638Y67779D02*
X125622D01*
X131473Y69075D02*
Y77736D01*
X136787Y69075D02*
Y77736D01*
X131473Y69075D02*
X136787D01*
X131473Y77736D02*
X136787D01*
X157331Y45342D02*
Y50657D01*
X148669Y45342D02*
Y50657D01*
Y45342D02*
X157331D01*
X148669Y50657D02*
X157331D01*
X131473Y53575D02*
Y62236D01*
X136787Y53575D02*
Y62236D01*
X131473Y53575D02*
X136787D01*
X131473Y62236D02*
X136787D01*
X114122Y170961D02*
Y195370D01*
X88138Y170961D02*
Y195370D01*
X114122D01*
X88138Y170961D02*
X114122D01*
X131776Y235531D02*
X137484D01*
X131776Y244193D02*
X137484D01*
X131776Y235531D02*
Y244193D01*
X137484Y235531D02*
Y244193D01*
X156472Y234835D02*
Y243496D01*
X161787Y234835D02*
Y243496D01*
X156472Y234835D02*
X161787D01*
X156472Y243496D02*
X161787D01*
X163472Y207815D02*
Y216476D01*
X168787Y207815D02*
Y216476D01*
X163472Y207815D02*
X168787D01*
X163472Y216476D02*
X168787D01*
X134146Y194831D02*
X139854D01*
X134146Y186169D02*
X139854D01*
X134146D02*
Y194831D01*
X139854Y186169D02*
Y194831D01*
X95307Y153543D02*
X108693D01*
X95307Y146457D02*
X108693D01*
X95307D02*
Y153543D01*
X108693Y146457D02*
Y153543D01*
X115457Y197807D02*
X122543D01*
X115457Y211193D02*
X122543D01*
X115457Y197807D02*
Y211193D01*
X122543Y197807D02*
Y211193D01*
X85307Y90543D02*
X98693D01*
X85307Y83457D02*
X98693D01*
X85307D02*
Y90543D01*
X98693Y83457D02*
Y90543D01*
X127457Y41693D02*
X134543D01*
X127457Y28307D02*
X134543D01*
Y41693D01*
X127457Y28307D02*
Y41693D01*
X50130Y220346D02*
X53870D01*
X50130Y213653D02*
X53870D01*
Y220346D01*
X50130Y213653D02*
Y220346D01*
X36130Y219346D02*
X39870D01*
X36130Y212653D02*
X39870D01*
Y219346D01*
X36130Y212653D02*
Y219346D01*
X148445Y170130D02*
Y173870D01*
X141555Y170130D02*
Y173870D01*
Y170130D02*
X148445D01*
X141555Y173870D02*
X148445D01*
X319055Y223870D02*
X325945D01*
X319055Y220130D02*
X325945D01*
Y223870D01*
X319055Y220130D02*
Y223870D01*
Y56870D02*
X325945D01*
X319055Y53130D02*
X325945D01*
Y56870D01*
X319055Y53130D02*
Y56870D01*
X334685Y215807D02*
Y229193D01*
X345315Y215807D02*
Y229193D01*
X334685Y215807D02*
X345315D01*
X334685Y229193D02*
X345315D01*
X144555Y180970D02*
X151445D01*
X144555Y177230D02*
X151445D01*
X144555D02*
Y180970D01*
X151445Y177230D02*
Y180970D01*
X151630Y200055D02*
Y206945D01*
X155370Y200055D02*
Y206945D01*
X151630Y200055D02*
X155370D01*
X151630Y206945D02*
X155370D01*
X198170Y164455D02*
Y171345D01*
X194430Y164455D02*
Y171345D01*
X198170D01*
X194430Y164455D02*
X198170D01*
X177055Y214630D02*
X183945D01*
X177055Y218370D02*
X183945D01*
Y214630D02*
Y218370D01*
X177055Y214630D02*
Y218370D01*
X216000Y165609D02*
Y172302D01*
X212260Y165609D02*
Y172302D01*
X216000D01*
X212260Y165609D02*
X216000D01*
X208000Y154609D02*
Y161302D01*
X204260Y154609D02*
Y161302D01*
X208000D01*
X204260Y154609D02*
X208000D01*
X175784Y157776D02*
X182476D01*
X175784Y154035D02*
X182476D01*
X175784D02*
Y157776D01*
X182476Y154035D02*
Y157776D01*
X154870Y156154D02*
Y162847D01*
X151130Y156154D02*
Y162847D01*
X154870D01*
X151130Y156154D02*
X154870D01*
X146653Y143630D02*
X153347D01*
X146653Y147370D02*
X153347D01*
Y143630D02*
Y147370D01*
X146653Y143630D02*
Y147370D01*
X174653Y150370D02*
X181346D01*
X174653Y146630D02*
X181346D01*
X174653D02*
Y150370D01*
X181346Y146630D02*
Y150370D01*
X334685Y48807D02*
Y62193D01*
X345315Y48807D02*
Y62193D01*
X334685Y48807D02*
X345315D01*
X334685Y62193D02*
X345315D01*
X316230Y60188D02*
X313935D01*
X313475Y59729D01*
Y58810D01*
X313935Y58351D01*
X316230D01*
X315771Y57433D02*
X316230Y56974D01*
Y56055D01*
X315771Y55596D01*
X315312D01*
X314853Y56055D01*
Y56515D01*
Y56055D01*
X314394Y55596D01*
X313935D01*
X313475Y56055D01*
Y56974D01*
X313935Y57433D01*
X320691Y222727D02*
X318395D01*
X317936Y222268D01*
Y221350D01*
X318395Y220890D01*
X320691D01*
X320232Y219972D02*
X320691Y219513D01*
Y218595D01*
X320232Y218135D01*
X319773D01*
X319314Y218595D01*
Y219054D01*
Y218595D01*
X318854Y218135D01*
X318395D01*
X317936Y218595D01*
Y219513D01*
X318395Y219972D01*
X159370Y148240D02*
X161207D01*
X161666Y148700D01*
Y149618D01*
X161207Y150077D01*
X159370D01*
X158911Y149618D01*
Y148700D01*
X159829Y149159D02*
X158911Y148240D01*
Y148700D02*
X159370Y148240D01*
X158911Y145485D02*
Y147322D01*
X160748Y145485D01*
X161207D01*
X161666Y145945D01*
Y146863D01*
X161207Y147322D01*
X190919Y159007D02*
X192755D01*
X193214Y159466D01*
Y160384D01*
X192755Y160844D01*
X190919D01*
X190459Y160384D01*
Y159466D01*
X191378Y159925D02*
X190459Y159007D01*
Y159466D02*
X190919Y159007D01*
X190459Y156252D02*
Y158089D01*
X192296Y156252D01*
X192755D01*
X193214Y156711D01*
Y157629D01*
X192755Y158089D01*
X307606Y27351D02*
Y30106D01*
X306229D01*
X305770Y29647D01*
Y27810D01*
X306229Y27351D01*
X307606D01*
X304851Y30106D02*
X303933D01*
X304392D01*
Y27351D01*
X304851Y27810D01*
X303277Y43636D02*
X301440D01*
X300981Y43177D01*
Y42258D01*
X301440Y41799D01*
X303277D01*
X303736Y42258D01*
Y43177D01*
X302818Y42718D02*
X303736Y43636D01*
Y43177D02*
X303277Y43636D01*
X303736Y44554D02*
Y45473D01*
Y45013D01*
X300981D01*
X301440Y44554D01*
X341736Y194257D02*
Y197012D01*
X340359D01*
X339899Y196553D01*
Y194716D01*
X340359Y194257D01*
X341736D01*
X338981Y197012D02*
X338063D01*
X338522D01*
Y194257D01*
X338981Y194716D01*
X303277Y210636D02*
X301440D01*
X300981Y210177D01*
Y209258D01*
X301440Y208799D01*
X303277D01*
X303736Y209258D01*
Y210177D01*
X302818Y209718D02*
X303736Y210636D01*
Y210177D02*
X303277Y210636D01*
X303736Y211554D02*
Y212473D01*
Y212013D01*
X300981D01*
X301440Y211554D01*
D104*
X160190Y37060D02*
X163758D01*
X160190Y28940D02*
Y37060D01*
Y28940D02*
X163758D01*
Y37060D01*
X81242Y221440D02*
Y229560D01*
X84810D01*
Y221440D02*
Y229560D01*
X81242Y221440D02*
X84810D01*
X50242Y226940D02*
Y235060D01*
X53810D01*
Y226940D02*
Y235060D01*
X50242Y226940D02*
X53810D01*
X36242D02*
X39810D01*
Y235060D01*
X36242D02*
X39810D01*
X36242Y226940D02*
Y235060D01*
M02*
