G04*
G04 #@! TF.GenerationSoftware,Altium Limited,Altium Designer,21.1.1 (26)*
G04*
G04 Layer_Color=8388736*
%FSLAX25Y25*%
%MOIN*%
G70*
G04*
G04 #@! TF.SameCoordinates,379C1673-3C72-4E82-969D-E9B706308CD5*
G04*
G04*
G04 #@! TF.FilePolarity,Negative*
G04*
G01*
G75*
%ADD23R,0.05518X0.09400*%
%ADD24R,0.05912X0.04534*%
%ADD25R,0.09400X0.05518*%
%ADD26R,0.04928X0.06109*%
%ADD27R,0.04534X0.05912*%
%ADD28R,0.06109X0.04928*%
G04:AMPARAMS|DCode=29|XSize=17mil|YSize=76.84mil|CornerRadius=3.43mil|HoleSize=0mil|Usage=FLASHONLY|Rotation=0.000|XOffset=0mil|YOffset=0mil|HoleType=Round|Shape=RoundedRectangle|*
%AMROUNDEDRECTD29*
21,1,0.01700,0.06998,0,0,0.0*
21,1,0.01014,0.07684,0,0,0.0*
1,1,0.00686,0.00507,-0.03499*
1,1,0.00686,-0.00507,-0.03499*
1,1,0.00686,-0.00507,0.03499*
1,1,0.00686,0.00507,0.03499*
%
%ADD29ROUNDEDRECTD29*%
%ADD30R,0.38400X0.42400*%
%ADD31R,0.13400X0.08400*%
%ADD32R,0.02200X0.06550*%
%ADD33R,0.02600X0.06950*%
%ADD34R,0.04140X0.08668*%
%ADD35R,0.22054X0.25991*%
%ADD36R,0.05800X0.02000*%
%ADD37R,0.02000X0.05800*%
%ADD38R,0.04000X0.02200*%
%ADD39R,0.04731X0.01755*%
%ADD40R,0.05400X0.06400*%
%ADD41R,0.09200X0.05715*%
%ADD42R,0.05715X0.09200*%
%ADD43R,0.04337X0.03943*%
%ADD44R,0.03943X0.04337*%
%ADD45R,0.11030X0.05124*%
%ADD46R,0.07600X0.02000*%
%ADD47R,0.11600X0.11600*%
%ADD48C,0.11600*%
%ADD49C,0.06112*%
%ADD50R,0.06400X0.06400*%
%ADD51C,0.06400*%
%ADD52R,0.06719X0.06719*%
%ADD53C,0.06719*%
%ADD54C,0.12408*%
%ADD55C,0.12400*%
%ADD56C,0.10400*%
%ADD57C,0.25400*%
%ADD58C,0.06306*%
%ADD59R,0.06306X0.06306*%
%ADD60C,0.02800*%
%ADD61C,0.05400*%
D23*
X10142Y35000D02*
D03*
Y71000D02*
D03*
X27858Y35000D02*
D03*
Y71000D02*
D03*
Y120000D02*
D03*
Y84000D02*
D03*
X10142Y120000D02*
D03*
Y84000D02*
D03*
Y132000D02*
D03*
Y168000D02*
D03*
X27858Y132000D02*
D03*
Y168000D02*
D03*
D24*
X39000Y53260D02*
D03*
Y60740D02*
D03*
X38000Y143260D02*
D03*
Y150740D02*
D03*
X40000Y98260D02*
D03*
Y105740D02*
D03*
X82000Y147260D02*
D03*
Y154740D02*
D03*
X82130Y160165D02*
D03*
Y167646D02*
D03*
X83000Y205760D02*
D03*
Y213240D02*
D03*
X134130Y69665D02*
D03*
Y77146D02*
D03*
Y61646D02*
D03*
Y54165D02*
D03*
X159130Y235425D02*
D03*
Y242905D02*
D03*
X166130Y208405D02*
D03*
Y215886D02*
D03*
D25*
X45000Y30858D02*
D03*
X81000D02*
D03*
X45000Y13142D02*
D03*
X81000D02*
D03*
X15000Y197858D02*
D03*
X51000D02*
D03*
X15000Y180142D02*
D03*
X51000D02*
D03*
D26*
X51857Y40800D02*
D03*
X58943D02*
D03*
X62457Y78000D02*
D03*
X69543D02*
D03*
D27*
X74140Y40800D02*
D03*
X66660D02*
D03*
X156740Y48000D02*
D03*
X149260D02*
D03*
D28*
X39000Y75543D02*
D03*
Y68457D02*
D03*
X40000Y118543D02*
D03*
Y111457D02*
D03*
X38000Y164543D02*
D03*
Y157457D02*
D03*
X134630Y236319D02*
D03*
Y243406D02*
D03*
D29*
X70677Y117665D02*
D03*
X68118D02*
D03*
X65559D02*
D03*
X63000D02*
D03*
X60441D02*
D03*
X57882D02*
D03*
X55323D02*
D03*
X70677Y88335D02*
D03*
X68118D02*
D03*
X65559D02*
D03*
X63000D02*
D03*
X60441D02*
D03*
X57882D02*
D03*
X55323D02*
D03*
D30*
X254630Y64406D02*
D03*
Y231405D02*
D03*
D31*
X295630Y54405D02*
D03*
Y74405D02*
D03*
Y221406D02*
D03*
Y241406D02*
D03*
D32*
X329500Y44375D02*
D03*
X324500D02*
D03*
X319500D02*
D03*
X314500D02*
D03*
Y66625D02*
D03*
X319500D02*
D03*
X324500D02*
D03*
X329500D02*
D03*
D33*
X329500Y233625D02*
D03*
X324500D02*
D03*
X319500D02*
D03*
X314500D02*
D03*
Y211375D02*
D03*
X319500D02*
D03*
X324500D02*
D03*
X329500D02*
D03*
D34*
X103654Y76638D02*
D03*
X121606D02*
D03*
X110106Y162102D02*
D03*
X92154D02*
D03*
D35*
X112630Y51835D02*
D03*
X101130Y186906D02*
D03*
D36*
X157930Y182331D02*
D03*
Y194929D02*
D03*
Y191779D02*
D03*
Y188630D02*
D03*
Y185480D02*
D03*
Y179181D02*
D03*
Y176031D02*
D03*
Y172882D02*
D03*
X190330D02*
D03*
Y176031D02*
D03*
Y179181D02*
D03*
Y182331D02*
D03*
Y185480D02*
D03*
Y188630D02*
D03*
Y191779D02*
D03*
Y194929D02*
D03*
D37*
X163106Y167706D02*
D03*
X166256D02*
D03*
X169405D02*
D03*
X172555D02*
D03*
X175705D02*
D03*
X178854D02*
D03*
X182004D02*
D03*
X185153D02*
D03*
Y200106D02*
D03*
X182004D02*
D03*
X178854D02*
D03*
X175705D02*
D03*
X172555D02*
D03*
X169405D02*
D03*
X166256D02*
D03*
X163106D02*
D03*
D38*
X188630Y159546D02*
D03*
Y152065D02*
D03*
X197630Y155806D02*
D03*
X158000Y153240D02*
D03*
Y145760D02*
D03*
X167000Y149500D02*
D03*
D39*
X151366Y235906D02*
D03*
Y238465D02*
D03*
Y241024D02*
D03*
Y243583D02*
D03*
X141130Y235906D02*
D03*
Y238465D02*
D03*
Y241024D02*
D03*
Y243583D02*
D03*
D40*
X162000Y37500D02*
D03*
Y28500D02*
D03*
X83000Y230000D02*
D03*
Y221000D02*
D03*
X52000Y235500D02*
D03*
Y226500D02*
D03*
X38000D02*
D03*
Y235500D02*
D03*
D41*
X96784Y150000D02*
D03*
X107217D02*
D03*
X86783Y87000D02*
D03*
X97216D02*
D03*
D42*
X119000Y199284D02*
D03*
Y209717D02*
D03*
X131000Y40216D02*
D03*
Y29783D02*
D03*
D43*
X52000Y220150D02*
D03*
Y213850D02*
D03*
X38000Y219150D02*
D03*
Y212850D02*
D03*
X153500Y200350D02*
D03*
Y206650D02*
D03*
X196300Y171050D02*
D03*
Y164750D02*
D03*
X214130Y172105D02*
D03*
Y165805D02*
D03*
X206130Y161105D02*
D03*
Y154806D02*
D03*
X153000Y162650D02*
D03*
Y156350D02*
D03*
D44*
X148150Y172000D02*
D03*
X141850D02*
D03*
X144850Y179100D02*
D03*
X151150D02*
D03*
X183650Y216500D02*
D03*
X177350D02*
D03*
X175980Y155905D02*
D03*
X182280D02*
D03*
X153150Y145500D02*
D03*
X146850D02*
D03*
X174850Y148500D02*
D03*
X181150D02*
D03*
D45*
X340000Y216791D02*
D03*
Y228209D02*
D03*
Y49791D02*
D03*
Y61209D02*
D03*
D46*
X147500Y194724D02*
D03*
Y190000D02*
D03*
Y185276D02*
D03*
D47*
X92010Y115800D02*
D03*
D48*
X107600D02*
D03*
X123191D02*
D03*
X138781D02*
D03*
D49*
X144687Y105957D02*
D03*
D50*
X108130Y265905D02*
D03*
X154130D02*
D03*
D51*
X118130D02*
D03*
X128130D02*
D03*
X138130D02*
D03*
X164130D02*
D03*
X174130D02*
D03*
X184130D02*
D03*
D52*
X352992Y228405D02*
D03*
Y61405D02*
D03*
D53*
Y216595D02*
D03*
Y49595D02*
D03*
D54*
X370000Y222500D02*
D03*
Y55500D02*
D03*
D55*
X326000Y21500D02*
D03*
X256000D02*
D03*
X290130Y188406D02*
D03*
X360130D02*
D03*
D56*
X237000Y200000D02*
D03*
X216000Y154000D02*
D03*
X205000Y240000D02*
D03*
X85000Y60000D02*
D03*
X70000Y250000D02*
D03*
X335000Y130000D02*
D03*
Y160000D02*
D03*
Y95000D02*
D03*
X365000Y130000D02*
D03*
Y95000D02*
D03*
Y160000D02*
D03*
D57*
X16000Y16000D02*
D03*
Y264000D02*
D03*
X354130Y17906D02*
D03*
Y265905D02*
D03*
D58*
X206130Y181905D02*
D03*
Y191905D02*
D03*
Y201905D02*
D03*
D59*
Y211906D02*
D03*
D60*
X161875Y22199D02*
D03*
X189000Y206000D02*
D03*
X191000Y201000D02*
D03*
X185094Y210367D02*
D03*
X310000Y211000D02*
D03*
X271000Y206000D02*
D03*
X45000Y217000D02*
D03*
X68000Y94500D02*
D03*
X63000D02*
D03*
X247000Y86000D02*
D03*
X202203Y142774D02*
D03*
X314500Y73000D02*
D03*
X208000Y143000D02*
D03*
X64500Y128000D02*
D03*
X56500Y127500D02*
D03*
X344000Y46000D02*
D03*
X340000D02*
D03*
X336000D02*
D03*
X142000Y77000D02*
D03*
X59000Y208000D02*
D03*
X55500Y96000D02*
D03*
X68000Y124500D02*
D03*
X64000Y184000D02*
D03*
X314500Y240000D02*
D03*
X336000Y213000D02*
D03*
X340000D02*
D03*
X344000D02*
D03*
D61*
X109260Y201240D02*
D03*
X93260D02*
D03*
X101260D02*
D03*
X112500Y37500D02*
D03*
X120500D02*
D03*
X104500D02*
D03*
M02*
