G04 Layer_Color=65535*
%FSLAX25Y25*%
%MOIN*%
G70*
G01*
G75*
%ADD21C,0.01000*%
%ADD29C,0.02362*%
%ADD30C,0.00984*%
%ADD31C,0.00400*%
%ADD32C,0.00787*%
%ADD33C,0.00591*%
D21*
X602078Y246500D02*
G03*
X602078Y246500I-8078J0D01*
G01*
X582189Y234689D02*
X605811D01*
X582189D02*
Y258311D01*
X605811D01*
Y234689D02*
Y258311D01*
X854500Y255944D02*
X862372D01*
X858436D01*
Y244137D01*
X872211D02*
X868275D01*
X866307Y246105D01*
Y250041D01*
X868275Y252009D01*
X872211D01*
X874179Y250041D01*
Y248073D01*
X866307D01*
X878114Y244137D02*
Y252009D01*
X880082D01*
X882050Y250041D01*
Y244137D01*
Y250041D01*
X884018Y252009D01*
X885986Y250041D01*
Y244137D01*
X889922Y240201D02*
Y252009D01*
X895825D01*
X897793Y250041D01*
Y246105D01*
X895825Y244137D01*
X889922D01*
X907632D02*
X903697D01*
X901729Y246105D01*
Y250041D01*
X903697Y252009D01*
X907632D01*
X909600Y250041D01*
Y248073D01*
X901729D01*
X913536Y252009D02*
Y244137D01*
Y248073D01*
X915504Y250041D01*
X917472Y252009D01*
X919440D01*
X927311D02*
X931247D01*
X933215Y250041D01*
Y244137D01*
X927311D01*
X925343Y246105D01*
X927311Y248073D01*
X933215D01*
X939118Y253977D02*
Y252009D01*
X937150D01*
X941086D01*
X939118D01*
Y246105D01*
X941086Y244137D01*
X946990Y252009D02*
Y246105D01*
X948958Y244137D01*
X954861D01*
Y252009D01*
X958797D02*
Y244137D01*
Y248073D01*
X960765Y250041D01*
X962733Y252009D01*
X964701D01*
X976508Y244137D02*
X972572D01*
X970604Y246105D01*
Y250041D01*
X972572Y252009D01*
X976508D01*
X978476Y250041D01*
Y248073D01*
X970604D01*
X982411Y242169D02*
X990283D01*
X994219Y244137D02*
Y255944D01*
X998154Y252009D01*
X1002090Y255944D01*
Y244137D01*
X1007994D02*
X1011929D01*
X1013897Y246105D01*
Y250041D01*
X1011929Y252009D01*
X1007994D01*
X1006026Y250041D01*
Y246105D01*
X1007994Y244137D01*
X1025704Y255944D02*
Y244137D01*
X1019801D01*
X1017833Y246105D01*
Y250041D01*
X1019801Y252009D01*
X1025704D01*
X1029640D02*
Y246105D01*
X1031608Y244137D01*
X1037512D01*
Y252009D01*
X1041447Y244137D02*
X1045383D01*
X1043415D01*
Y255944D01*
X1041447D01*
X1057190Y244137D02*
X1053255D01*
X1051287Y246105D01*
Y250041D01*
X1053255Y252009D01*
X1057190D01*
X1059158Y250041D01*
Y248073D01*
X1051287D01*
X854500Y223633D02*
Y235440D01*
X858436Y231504D01*
X862372Y235440D01*
Y223633D01*
X868275Y231504D02*
X872211D01*
X874179Y229537D01*
Y223633D01*
X868275D01*
X866307Y225601D01*
X868275Y227569D01*
X874179D01*
X878114Y223633D02*
X882050D01*
X880082D01*
Y235440D01*
X878114D01*
X887954Y223633D02*
X891889D01*
X889922D01*
Y231504D01*
X887954D01*
X899761D02*
X903697D01*
X905665Y229537D01*
Y223633D01*
X899761D01*
X897793Y225601D01*
X899761Y227569D01*
X905665D01*
X921408Y223633D02*
Y235440D01*
X927311D01*
X929279Y233472D01*
Y229537D01*
X927311Y227569D01*
X921408D01*
X925343D02*
X929279Y223633D01*
X939118D02*
X935183D01*
X933215Y225601D01*
Y229537D01*
X935183Y231504D01*
X939118D01*
X941086Y229537D01*
Y227569D01*
X933215D01*
X945022Y235440D02*
Y223633D01*
X950926D01*
X952893Y225601D01*
Y227569D01*
Y229537D01*
X950926Y231504D01*
X945022D01*
X958797Y223633D02*
X962733D01*
X964701Y225601D01*
Y229537D01*
X962733Y231504D01*
X958797D01*
X956829Y229537D01*
Y225601D01*
X958797Y223633D01*
X968636D02*
X972572D01*
X970604D01*
Y235440D01*
X968636D01*
X978476Y223633D02*
X982411D01*
X980443D01*
Y235440D01*
X978476D01*
X990283Y223633D02*
X994219D01*
X996186Y225601D01*
Y229537D01*
X994219Y231504D01*
X990283D01*
X988315Y229537D01*
Y225601D01*
X990283Y223633D01*
X854500Y216904D02*
X856468Y218871D01*
X860404D01*
X862372Y216904D01*
Y209032D01*
X860404Y207064D01*
X856468D01*
X854500Y209032D01*
Y216904D01*
X872211Y207064D02*
Y218871D01*
X866307Y212968D01*
X874179D01*
X878114Y207064D02*
X885986Y214936D01*
X889922Y207064D02*
X893857D01*
X891889D01*
Y218871D01*
X889922Y216904D01*
X907632Y218871D02*
X899761D01*
Y212968D01*
X903697Y214936D01*
X905665D01*
X907632Y212968D01*
Y209032D01*
X905665Y207064D01*
X901729D01*
X899761Y209032D01*
X911568Y207064D02*
X919440Y214936D01*
X931247Y207064D02*
X923375D01*
X931247Y214936D01*
Y216904D01*
X929279Y218871D01*
X925343D01*
X923375Y216904D01*
X935182D02*
X937150Y218871D01*
X941086D01*
X943054Y216904D01*
Y209032D01*
X941086Y207064D01*
X937150D01*
X935182Y209032D01*
Y216904D01*
X946990Y207064D02*
X950926D01*
X948958D01*
Y218871D01*
X946990Y216904D01*
X956829D02*
X958797Y218871D01*
X962733D01*
X964701Y216904D01*
Y214936D01*
X962733Y212968D01*
X964701Y211000D01*
Y209032D01*
X962733Y207064D01*
X958797D01*
X956829Y209032D01*
Y211000D01*
X958797Y212968D01*
X956829Y214936D01*
Y216904D01*
X958797Y212968D02*
X962733D01*
X174000Y315998D02*
Y310000D01*
X176999D01*
X177999Y311000D01*
Y314998D01*
X176999Y315998D01*
X174000D01*
X179998Y310000D02*
X181997D01*
X180998D01*
Y315998D01*
X179998Y314998D01*
X187000Y290000D02*
Y295998D01*
X189999D01*
X190999Y294998D01*
Y292999D01*
X189999Y291999D01*
X187000D01*
X188999D02*
X190999Y290000D01*
X196997Y295998D02*
X192998D01*
Y292999D01*
X194997Y293999D01*
X195997D01*
X196997Y292999D01*
Y291000D01*
X195997Y290000D01*
X193998D01*
X192998Y291000D01*
X968000Y391000D02*
X971936D01*
X969968D01*
Y402807D01*
X968000Y400839D01*
X977839D02*
X979807Y402807D01*
X983743D01*
X985711Y400839D01*
Y392968D01*
X983743Y391000D01*
X979807D01*
X977839Y392968D01*
Y400839D01*
X874500Y392468D02*
X876468Y390500D01*
X880404D01*
X882372Y392468D01*
Y400339D01*
X880404Y402307D01*
X876468D01*
X874500Y400339D01*
Y398372D01*
X876468Y396404D01*
X882372D01*
X778500Y399839D02*
X780468Y401807D01*
X784404D01*
X786372Y399839D01*
Y397871D01*
X784404Y395904D01*
X786372Y393936D01*
Y391968D01*
X784404Y390000D01*
X780468D01*
X778500Y391968D01*
Y393936D01*
X780468Y395904D01*
X778500Y397871D01*
Y399839D01*
X780468Y395904D02*
X784404D01*
X682000Y402307D02*
X689872D01*
Y400339D01*
X682000Y392468D01*
Y390500D01*
X594372Y400807D02*
X590436Y398839D01*
X586500Y394904D01*
Y390968D01*
X588468Y389000D01*
X592404D01*
X594372Y390968D01*
Y392936D01*
X592404Y394904D01*
X586500D01*
X496872Y399307D02*
X489000D01*
Y393404D01*
X492936Y395372D01*
X494904D01*
X496872Y393404D01*
Y389468D01*
X494904Y387500D01*
X490968D01*
X489000Y389468D01*
X399904Y390000D02*
Y401807D01*
X394000Y395904D01*
X401871D01*
X297000Y399839D02*
X298968Y401807D01*
X302904D01*
X304872Y399839D01*
Y397871D01*
X302904Y395904D01*
X300936D01*
X302904D01*
X304872Y393936D01*
Y391968D01*
X302904Y390000D01*
X298968D01*
X297000Y391968D01*
X204372Y389000D02*
X196500D01*
X204372Y396871D01*
Y398839D01*
X202404Y400807D01*
X198468D01*
X196500Y398839D01*
X99000Y389000D02*
X102936D01*
X100968D01*
Y400807D01*
X99000Y398839D01*
X537000Y202000D02*
Y207998D01*
X539999D01*
X540999Y206998D01*
Y204999D01*
X539999Y203999D01*
X537000D01*
X538999D02*
X540999Y202000D01*
X542998Y206998D02*
X543998Y207998D01*
X545997D01*
X546997Y206998D01*
Y205999D01*
X545997Y204999D01*
X544997D01*
X545997D01*
X546997Y203999D01*
Y203000D01*
X545997Y202000D01*
X543998D01*
X542998Y203000D01*
X586699Y274198D02*
X585699Y275198D01*
X583700D01*
X582700Y274198D01*
Y273199D01*
X583700Y272199D01*
X585699D01*
X586699Y271199D01*
Y270200D01*
X585699Y269200D01*
X583700D01*
X582700Y270200D01*
X588698Y275198D02*
Y269200D01*
X590697Y271199D01*
X592697Y269200D01*
Y275198D01*
X594696Y269200D02*
X596696D01*
X595696D01*
Y275198D01*
X594696Y274198D01*
X569300Y271198D02*
Y270198D01*
X571299Y268199D01*
X573299Y270198D01*
Y271198D01*
X571299Y268199D02*
Y265200D01*
X575298D02*
X577297D01*
X576298D01*
Y271198D01*
X575298Y270198D01*
X496500Y300098D02*
Y295100D01*
X497500Y294100D01*
X499499D01*
X500499Y295100D01*
Y300098D01*
X506497Y294100D02*
X502498D01*
X506497Y298099D01*
Y299098D01*
X505497Y300098D01*
X503498D01*
X502498Y299098D01*
X141000Y315998D02*
Y311000D01*
X142000Y310000D01*
X143999D01*
X144999Y311000D01*
Y315998D01*
X146998Y310000D02*
X148997D01*
X147998D01*
Y315998D01*
X146998Y314998D01*
X153000Y245000D02*
Y250998D01*
X155999D01*
X156999Y249998D01*
Y247999D01*
X155999Y246999D01*
X153000D01*
X154999D02*
X156999Y245000D01*
X162997D02*
X158998D01*
X162997Y248999D01*
Y249998D01*
X161997Y250998D01*
X159998D01*
X158998Y249998D01*
X138500Y245000D02*
Y250998D01*
X141499D01*
X142499Y249998D01*
Y247999D01*
X141499Y246999D01*
X138500D01*
X140499D02*
X142499Y245000D01*
X144498D02*
X146497D01*
X145498D01*
Y250998D01*
X144498Y249998D01*
X481700Y213500D02*
Y219498D01*
X484699D01*
X485699Y218498D01*
Y216499D01*
X484699Y215499D01*
X481700D01*
X487698Y218498D02*
X488698Y219498D01*
X490697D01*
X491697Y218498D01*
Y217499D01*
X490697Y216499D01*
X489697D01*
X490697D01*
X491697Y215499D01*
Y214500D01*
X490697Y213500D01*
X488698D01*
X487698Y214500D01*
X110600Y290400D02*
Y296398D01*
X113599D01*
X114599Y295398D01*
Y293399D01*
X113599Y292399D01*
X110600D01*
X120597Y290400D02*
X116598D01*
X120597Y294399D01*
Y295398D01*
X119597Y296398D01*
X117598D01*
X116598Y295398D01*
X166600Y279400D02*
Y285398D01*
X169599D01*
X170599Y284398D01*
Y282399D01*
X169599Y281399D01*
X166600D01*
X172598Y279400D02*
X174597D01*
X173598D01*
Y285398D01*
X172598Y284398D01*
X1060124Y470651D02*
Y472650D01*
Y471651D01*
X1055126D01*
X1054126Y472650D01*
Y473650D01*
X1055126Y474650D01*
X1054126Y468652D02*
Y466652D01*
Y467652D01*
X1060124D01*
X1059124Y468652D01*
X963624Y470651D02*
Y472650D01*
Y471651D01*
X958626D01*
X957626Y472650D01*
Y473650D01*
X958626Y474650D01*
X957626Y468652D02*
Y466652D01*
Y467652D01*
X963624D01*
X962624Y468652D01*
X867124Y471151D02*
Y473150D01*
Y472151D01*
X862126D01*
X861126Y473150D01*
Y474150D01*
X862126Y475150D01*
X861126Y469152D02*
Y467152D01*
Y468152D01*
X867124D01*
X866124Y469152D01*
X770793Y472001D02*
Y474001D01*
Y473001D01*
X765795D01*
X764795Y474001D01*
Y475000D01*
X765795Y476000D01*
X764795Y470002D02*
Y468003D01*
Y469002D01*
X770793D01*
X769794Y470002D01*
X673274Y471151D02*
Y473150D01*
Y472151D01*
X668275D01*
X667276Y473150D01*
Y474150D01*
X668275Y475150D01*
X667276Y469152D02*
Y467152D01*
Y468152D01*
X673274D01*
X672274Y469152D01*
X576774Y471151D02*
Y473150D01*
Y472151D01*
X571775D01*
X570776Y473150D01*
Y474150D01*
X571775Y475150D01*
X570776Y469152D02*
Y467152D01*
Y468152D01*
X576774D01*
X575774Y469152D01*
X481624Y471151D02*
Y473150D01*
Y472151D01*
X476626D01*
X475626Y473150D01*
Y474150D01*
X476626Y475150D01*
X475626Y469152D02*
Y467152D01*
Y468152D01*
X481624D01*
X480624Y469152D01*
X387274Y470651D02*
Y472650D01*
Y471651D01*
X382275D01*
X381276Y472650D01*
Y473650D01*
X382275Y474650D01*
X381276Y468652D02*
Y466652D01*
Y467652D01*
X387274D01*
X386274Y468652D01*
X291124Y469651D02*
Y471650D01*
Y470651D01*
X286126D01*
X285126Y471650D01*
Y472650D01*
X286126Y473650D01*
X285126Y467652D02*
Y465652D01*
Y466652D01*
X291124D01*
X290124Y467652D01*
X192774Y470651D02*
Y472650D01*
Y471651D01*
X187775D01*
X186776Y472650D01*
Y473650D01*
X187775Y474650D01*
X186776Y468652D02*
Y466652D01*
Y467652D01*
X192774D01*
X191774Y468652D01*
X995499Y337498D02*
X994499Y338498D01*
X992500D01*
X991500Y337498D01*
Y333500D01*
X992500Y332500D01*
X994499D01*
X995499Y333500D01*
X1001497Y332500D02*
X997498D01*
X1001497Y336499D01*
Y337498D01*
X1000497Y338498D01*
X998498D01*
X997498Y337498D01*
X1006495Y332500D02*
Y338498D01*
X1003496Y335499D01*
X1007495D01*
X898999Y337498D02*
X897999Y338498D01*
X896000D01*
X895000Y337498D01*
Y333500D01*
X896000Y332500D01*
X897999D01*
X898999Y333500D01*
X904997Y332500D02*
X900998D01*
X904997Y336499D01*
Y337498D01*
X903997Y338498D01*
X901998D01*
X900998Y337498D01*
X909995Y332500D02*
Y338498D01*
X906996Y335499D01*
X910995D01*
X802499Y337998D02*
X801499Y338998D01*
X799500D01*
X798500Y337998D01*
Y334000D01*
X799500Y333000D01*
X801499D01*
X802499Y334000D01*
X808497Y333000D02*
X804498D01*
X808497Y336999D01*
Y337998D01*
X807497Y338998D01*
X805498D01*
X804498Y337998D01*
X813495Y333000D02*
Y338998D01*
X810496Y335999D01*
X814495D01*
X706168Y338849D02*
X705168Y339848D01*
X703169D01*
X702169Y338849D01*
Y334850D01*
X703169Y333850D01*
X705168D01*
X706168Y334850D01*
X712166Y333850D02*
X708167D01*
X712166Y337849D01*
Y338849D01*
X711166Y339848D01*
X709167D01*
X708167Y338849D01*
X717164Y333850D02*
Y339848D01*
X714165Y336849D01*
X718164D01*
X608648Y337998D02*
X607649Y338998D01*
X605649D01*
X604650Y337998D01*
Y334000D01*
X605649Y333000D01*
X607649D01*
X608648Y334000D01*
X614646Y333000D02*
X610648D01*
X614646Y336999D01*
Y337998D01*
X613647Y338998D01*
X611647D01*
X610648Y337998D01*
X619645Y333000D02*
Y338998D01*
X616646Y335999D01*
X620644D01*
X512148Y337998D02*
X511149Y338998D01*
X509149D01*
X508150Y337998D01*
Y334000D01*
X509149Y333000D01*
X511149D01*
X512148Y334000D01*
X518146Y333000D02*
X514148D01*
X518146Y336999D01*
Y337998D01*
X517147Y338998D01*
X515147D01*
X514148Y337998D01*
X523145Y333000D02*
Y338998D01*
X520146Y335999D01*
X524144D01*
X416999Y337998D02*
X415999Y338998D01*
X414000D01*
X413000Y337998D01*
Y334000D01*
X414000Y333000D01*
X415999D01*
X416999Y334000D01*
X422997Y333000D02*
X418998D01*
X422997Y336999D01*
Y337998D01*
X421997Y338998D01*
X419998D01*
X418998Y337998D01*
X427995Y333000D02*
Y338998D01*
X424996Y335999D01*
X428995D01*
X322648Y337498D02*
X321649Y338498D01*
X319649D01*
X318650Y337498D01*
Y333500D01*
X319649Y332500D01*
X321649D01*
X322648Y333500D01*
X328646Y332500D02*
X324648D01*
X328646Y336499D01*
Y337498D01*
X327647Y338498D01*
X325647D01*
X324648Y337498D01*
X333645Y332500D02*
Y338498D01*
X330646Y335499D01*
X334644D01*
X226499Y336498D02*
X225499Y337498D01*
X223500D01*
X222500Y336498D01*
Y332500D01*
X223500Y331500D01*
X225499D01*
X226499Y332500D01*
X232497Y331500D02*
X228498D01*
X232497Y335499D01*
Y336498D01*
X231497Y337498D01*
X229498D01*
X228498Y336498D01*
X237495Y331500D02*
Y337498D01*
X234496Y334499D01*
X238495D01*
X128148Y337498D02*
X127149Y338498D01*
X125149D01*
X124150Y337498D01*
Y333500D01*
X125149Y332500D01*
X127149D01*
X128148Y333500D01*
X134146Y332500D02*
X130148D01*
X134146Y336499D01*
Y337498D01*
X133147Y338498D01*
X131147D01*
X130148Y337498D01*
X139145Y332500D02*
Y338498D01*
X136146Y335499D01*
X140144D01*
X989999Y389498D02*
X988999Y390498D01*
X987000D01*
X986000Y389498D01*
Y385500D01*
X987000Y384500D01*
X988999D01*
X989999Y385500D01*
X995997Y384500D02*
X991998D01*
X995997Y388499D01*
Y389498D01*
X994997Y390498D01*
X992998D01*
X991998Y389498D01*
X1001995Y384500D02*
X997996D01*
X1001995Y388499D01*
Y389498D01*
X1000995Y390498D01*
X998996D01*
X997996Y389498D01*
X893499D02*
X892499Y390498D01*
X890500D01*
X889500Y389498D01*
Y385500D01*
X890500Y384500D01*
X892499D01*
X893499Y385500D01*
X899497Y384500D02*
X895498D01*
X899497Y388499D01*
Y389498D01*
X898497Y390498D01*
X896498D01*
X895498Y389498D01*
X905495Y384500D02*
X901496D01*
X905495Y388499D01*
Y389498D01*
X904495Y390498D01*
X902496D01*
X901496Y389498D01*
X796999Y389998D02*
X795999Y390998D01*
X794000D01*
X793000Y389998D01*
Y386000D01*
X794000Y385000D01*
X795999D01*
X796999Y386000D01*
X802997Y385000D02*
X798998D01*
X802997Y388999D01*
Y389998D01*
X801997Y390998D01*
X799998D01*
X798998Y389998D01*
X808995Y385000D02*
X804996D01*
X808995Y388999D01*
Y389998D01*
X807995Y390998D01*
X805996D01*
X804996Y389998D01*
X700668Y390849D02*
X699668Y391848D01*
X697669D01*
X696669Y390849D01*
Y386850D01*
X697669Y385850D01*
X699668D01*
X700668Y386850D01*
X706666Y385850D02*
X702667D01*
X706666Y389849D01*
Y390849D01*
X705666Y391848D01*
X703667D01*
X702667Y390849D01*
X712664Y385850D02*
X708665D01*
X712664Y389849D01*
Y390849D01*
X711664Y391848D01*
X709665D01*
X708665Y390849D01*
X603148Y389998D02*
X602149Y390998D01*
X600149D01*
X599150Y389998D01*
Y386000D01*
X600149Y385000D01*
X602149D01*
X603148Y386000D01*
X609146Y385000D02*
X605148D01*
X609146Y388999D01*
Y389998D01*
X608147Y390998D01*
X606147D01*
X605148Y389998D01*
X615144Y385000D02*
X611146D01*
X615144Y388999D01*
Y389998D01*
X614145Y390998D01*
X612145D01*
X611146Y389998D01*
X506648D02*
X505649Y390998D01*
X503649D01*
X502650Y389998D01*
Y386000D01*
X503649Y385000D01*
X505649D01*
X506648Y386000D01*
X512646Y385000D02*
X508648D01*
X512646Y388999D01*
Y389998D01*
X511647Y390998D01*
X509647D01*
X508648Y389998D01*
X518644Y385000D02*
X514646D01*
X518644Y388999D01*
Y389998D01*
X517645Y390998D01*
X515645D01*
X514646Y389998D01*
X411499D02*
X410499Y390998D01*
X408500D01*
X407500Y389998D01*
Y386000D01*
X408500Y385000D01*
X410499D01*
X411499Y386000D01*
X417497Y385000D02*
X413498D01*
X417497Y388999D01*
Y389998D01*
X416497Y390998D01*
X414498D01*
X413498Y389998D01*
X423495Y385000D02*
X419496D01*
X423495Y388999D01*
Y389998D01*
X422495Y390998D01*
X420496D01*
X419496Y389998D01*
X317148Y389498D02*
X316149Y390498D01*
X314149D01*
X313150Y389498D01*
Y385500D01*
X314149Y384500D01*
X316149D01*
X317148Y385500D01*
X323146Y384500D02*
X319148D01*
X323146Y388499D01*
Y389498D01*
X322147Y390498D01*
X320147D01*
X319148Y389498D01*
X329144Y384500D02*
X325146D01*
X329144Y388499D01*
Y389498D01*
X328145Y390498D01*
X326145D01*
X325146Y389498D01*
X220999Y388498D02*
X219999Y389498D01*
X218000D01*
X217000Y388498D01*
Y384500D01*
X218000Y383500D01*
X219999D01*
X220999Y384500D01*
X226997Y383500D02*
X222998D01*
X226997Y387499D01*
Y388498D01*
X225997Y389498D01*
X223998D01*
X222998Y388498D01*
X232995Y383500D02*
X228996D01*
X232995Y387499D01*
Y388498D01*
X231995Y389498D01*
X229996D01*
X228996Y388498D01*
X122648Y389498D02*
X121649Y390498D01*
X119649D01*
X118650Y389498D01*
Y385500D01*
X119649Y384500D01*
X121649D01*
X122648Y385500D01*
X128646Y384500D02*
X124648D01*
X128646Y388499D01*
Y389498D01*
X127647Y390498D01*
X125647D01*
X124648Y389498D01*
X134644Y384500D02*
X130646D01*
X134644Y388499D01*
Y389498D01*
X133645Y390498D01*
X131645D01*
X130646Y389498D01*
X1016499Y395998D02*
X1015499Y396998D01*
X1013500D01*
X1012500Y395998D01*
Y392000D01*
X1013500Y391000D01*
X1015499D01*
X1016499Y392000D01*
X1022497Y391000D02*
X1018498D01*
X1022497Y394999D01*
Y395998D01*
X1021497Y396998D01*
X1019498D01*
X1018498Y395998D01*
X1024496Y391000D02*
X1026495D01*
X1025496D01*
Y396998D01*
X1024496Y395998D01*
X919999D02*
X918999Y396998D01*
X917000D01*
X916000Y395998D01*
Y392000D01*
X917000Y391000D01*
X918999D01*
X919999Y392000D01*
X925997Y391000D02*
X921998D01*
X925997Y394999D01*
Y395998D01*
X924997Y396998D01*
X922998D01*
X921998Y395998D01*
X927996Y391000D02*
X929996D01*
X928996D01*
Y396998D01*
X927996Y395998D01*
X823499Y396498D02*
X822499Y397498D01*
X820500D01*
X819500Y396498D01*
Y392500D01*
X820500Y391500D01*
X822499D01*
X823499Y392500D01*
X829497Y391500D02*
X825498D01*
X829497Y395499D01*
Y396498D01*
X828497Y397498D01*
X826498D01*
X825498Y396498D01*
X831496Y391500D02*
X833496D01*
X832496D01*
Y397498D01*
X831496Y396498D01*
X727168Y397349D02*
X726168Y398348D01*
X724169D01*
X723169Y397349D01*
Y393350D01*
X724169Y392350D01*
X726168D01*
X727168Y393350D01*
X733166Y392350D02*
X729167D01*
X733166Y396349D01*
Y397349D01*
X732166Y398348D01*
X730167D01*
X729167Y397349D01*
X735165Y392350D02*
X737165D01*
X736165D01*
Y398348D01*
X735165Y397349D01*
X629648Y396498D02*
X628649Y397498D01*
X626649D01*
X625650Y396498D01*
Y392500D01*
X626649Y391500D01*
X628649D01*
X629648Y392500D01*
X635646Y391500D02*
X631648D01*
X635646Y395499D01*
Y396498D01*
X634647Y397498D01*
X632647D01*
X631648Y396498D01*
X637646Y391500D02*
X639645D01*
X638645D01*
Y397498D01*
X637646Y396498D01*
X533148D02*
X532149Y397498D01*
X530149D01*
X529150Y396498D01*
Y392500D01*
X530149Y391500D01*
X532149D01*
X533148Y392500D01*
X539146Y391500D02*
X535148D01*
X539146Y395499D01*
Y396498D01*
X538147Y397498D01*
X536147D01*
X535148Y396498D01*
X541146Y391500D02*
X543145D01*
X542145D01*
Y397498D01*
X541146Y396498D01*
X437999D02*
X436999Y397498D01*
X435000D01*
X434000Y396498D01*
Y392500D01*
X435000Y391500D01*
X436999D01*
X437999Y392500D01*
X443997Y391500D02*
X439998D01*
X443997Y395499D01*
Y396498D01*
X442997Y397498D01*
X440998D01*
X439998Y396498D01*
X445996Y391500D02*
X447996D01*
X446996D01*
Y397498D01*
X445996Y396498D01*
X343648Y395998D02*
X342649Y396998D01*
X340649D01*
X339650Y395998D01*
Y392000D01*
X340649Y391000D01*
X342649D01*
X343648Y392000D01*
X349646Y391000D02*
X345648D01*
X349646Y394999D01*
Y395998D01*
X348647Y396998D01*
X346647D01*
X345648Y395998D01*
X351646Y391000D02*
X353645D01*
X352645D01*
Y396998D01*
X351646Y395998D01*
X247499Y394998D02*
X246499Y395998D01*
X244500D01*
X243500Y394998D01*
Y391000D01*
X244500Y390000D01*
X246499D01*
X247499Y391000D01*
X253497Y390000D02*
X249498D01*
X253497Y393999D01*
Y394998D01*
X252497Y395998D01*
X250498D01*
X249498Y394998D01*
X255496Y390000D02*
X257495D01*
X256496D01*
Y395998D01*
X255496Y394998D01*
X149148Y395998D02*
X148149Y396998D01*
X146149D01*
X145150Y395998D01*
Y392000D01*
X146149Y391000D01*
X148149D01*
X149148Y392000D01*
X155146Y391000D02*
X151148D01*
X155146Y394999D01*
Y395998D01*
X154147Y396998D01*
X152147D01*
X151148Y395998D01*
X157146Y391000D02*
X159145D01*
X158145D01*
Y396998D01*
X157146Y395998D01*
X1040499Y383998D02*
X1039499Y384998D01*
X1037500D01*
X1036500Y383998D01*
Y380000D01*
X1037500Y379000D01*
X1039499D01*
X1040499Y380000D01*
X1046497Y379000D02*
X1042498D01*
X1046497Y382999D01*
Y383998D01*
X1045497Y384998D01*
X1043498D01*
X1042498Y383998D01*
X1048496D02*
X1049496Y384998D01*
X1051495D01*
X1052495Y383998D01*
Y380000D01*
X1051495Y379000D01*
X1049496D01*
X1048496Y380000D01*
Y383998D01*
X943999D02*
X942999Y384998D01*
X941000D01*
X940000Y383998D01*
Y380000D01*
X941000Y379000D01*
X942999D01*
X943999Y380000D01*
X949997Y379000D02*
X945998D01*
X949997Y382999D01*
Y383998D01*
X948997Y384998D01*
X946998D01*
X945998Y383998D01*
X951996D02*
X952996Y384998D01*
X954995D01*
X955995Y383998D01*
Y380000D01*
X954995Y379000D01*
X952996D01*
X951996Y380000D01*
Y383998D01*
X847499Y384498D02*
X846499Y385498D01*
X844500D01*
X843500Y384498D01*
Y380500D01*
X844500Y379500D01*
X846499D01*
X847499Y380500D01*
X853497Y379500D02*
X849498D01*
X853497Y383499D01*
Y384498D01*
X852497Y385498D01*
X850498D01*
X849498Y384498D01*
X855496D02*
X856496Y385498D01*
X858495D01*
X859495Y384498D01*
Y380500D01*
X858495Y379500D01*
X856496D01*
X855496Y380500D01*
Y384498D01*
X751168Y385349D02*
X750168Y386349D01*
X748169D01*
X747169Y385349D01*
Y381350D01*
X748169Y380350D01*
X750168D01*
X751168Y381350D01*
X757166Y380350D02*
X753167D01*
X757166Y384349D01*
Y385349D01*
X756166Y386349D01*
X754167D01*
X753167Y385349D01*
X759165D02*
X760165Y386349D01*
X762164D01*
X763164Y385349D01*
Y381350D01*
X762164Y380350D01*
X760165D01*
X759165Y381350D01*
Y385349D01*
X653648Y384498D02*
X652649Y385498D01*
X650649D01*
X649650Y384498D01*
Y380500D01*
X650649Y379500D01*
X652649D01*
X653648Y380500D01*
X659646Y379500D02*
X655648D01*
X659646Y383499D01*
Y384498D01*
X658647Y385498D01*
X656647D01*
X655648Y384498D01*
X661646D02*
X662645Y385498D01*
X664645D01*
X665644Y384498D01*
Y380500D01*
X664645Y379500D01*
X662645D01*
X661646Y380500D01*
Y384498D01*
X557148D02*
X556149Y385498D01*
X554149D01*
X553150Y384498D01*
Y380500D01*
X554149Y379500D01*
X556149D01*
X557148Y380500D01*
X563146Y379500D02*
X559148D01*
X563146Y383499D01*
Y384498D01*
X562147Y385498D01*
X560147D01*
X559148Y384498D01*
X565146D02*
X566145Y385498D01*
X568145D01*
X569144Y384498D01*
Y380500D01*
X568145Y379500D01*
X566145D01*
X565146Y380500D01*
Y384498D01*
X461999D02*
X460999Y385498D01*
X459000D01*
X458000Y384498D01*
Y380500D01*
X459000Y379500D01*
X460999D01*
X461999Y380500D01*
X467997Y379500D02*
X463998D01*
X467997Y383499D01*
Y384498D01*
X466997Y385498D01*
X464998D01*
X463998Y384498D01*
X469996D02*
X470996Y385498D01*
X472995D01*
X473995Y384498D01*
Y380500D01*
X472995Y379500D01*
X470996D01*
X469996Y380500D01*
Y384498D01*
X367648Y383998D02*
X366649Y384998D01*
X364649D01*
X363650Y383998D01*
Y380000D01*
X364649Y379000D01*
X366649D01*
X367648Y380000D01*
X373646Y379000D02*
X369648D01*
X373646Y382999D01*
Y383998D01*
X372647Y384998D01*
X370647D01*
X369648Y383998D01*
X375646D02*
X376645Y384998D01*
X378645D01*
X379644Y383998D01*
Y380000D01*
X378645Y379000D01*
X376645D01*
X375646Y380000D01*
Y383998D01*
X271499Y382998D02*
X270499Y383998D01*
X268500D01*
X267500Y382998D01*
Y379000D01*
X268500Y378000D01*
X270499D01*
X271499Y379000D01*
X277497Y378000D02*
X273498D01*
X277497Y381999D01*
Y382998D01*
X276497Y383998D01*
X274498D01*
X273498Y382998D01*
X279496D02*
X280496Y383998D01*
X282495D01*
X283495Y382998D01*
Y379000D01*
X282495Y378000D01*
X280496D01*
X279496Y379000D01*
Y382998D01*
X173148Y383998D02*
X172149Y384998D01*
X170149D01*
X169150Y383998D01*
Y380000D01*
X170149Y379000D01*
X172149D01*
X173148Y380000D01*
X179146Y379000D02*
X175148D01*
X179146Y382999D01*
Y383998D01*
X178147Y384998D01*
X176147D01*
X175148Y383998D01*
X181146D02*
X182145Y384998D01*
X184145D01*
X185144Y383998D01*
Y380000D01*
X184145Y379000D01*
X182145D01*
X181146Y380000D01*
Y383998D01*
X127499Y249498D02*
X126499Y250498D01*
X124500D01*
X123500Y249498D01*
Y245500D01*
X124500Y244500D01*
X126499D01*
X127499Y245500D01*
X133497Y244500D02*
X129498D01*
X133497Y248499D01*
Y249498D01*
X132497Y250498D01*
X130498D01*
X129498Y249498D01*
X1007498Y360000D02*
X1002500D01*
X1001500Y359000D01*
Y357001D01*
X1002500Y356001D01*
X1007498D01*
X1006498Y354002D02*
X1007498Y353002D01*
Y351003D01*
X1006498Y350003D01*
X1005499D01*
X1004499Y351003D01*
Y352003D01*
Y351003D01*
X1003499Y350003D01*
X1002500D01*
X1001500Y351003D01*
Y353002D01*
X1002500Y354002D01*
X910998Y360000D02*
X906000D01*
X905000Y359000D01*
Y357001D01*
X906000Y356001D01*
X910998D01*
X909998Y354002D02*
X910998Y353002D01*
Y351003D01*
X909998Y350003D01*
X908999D01*
X907999Y351003D01*
Y352003D01*
Y351003D01*
X906999Y350003D01*
X906000D01*
X905000Y351003D01*
Y353002D01*
X906000Y354002D01*
X814498Y360500D02*
X809500D01*
X808500Y359500D01*
Y357501D01*
X809500Y356501D01*
X814498D01*
X813498Y354502D02*
X814498Y353502D01*
Y351503D01*
X813498Y350503D01*
X812499D01*
X811499Y351503D01*
Y352503D01*
Y351503D01*
X810499Y350503D01*
X809500D01*
X808500Y351503D01*
Y353502D01*
X809500Y354502D01*
X718167Y361350D02*
X713169D01*
X712169Y360351D01*
Y358351D01*
X713169Y357352D01*
X718167D01*
X717168Y355352D02*
X718167Y354353D01*
Y352353D01*
X717168Y351354D01*
X716168D01*
X715168Y352353D01*
Y353353D01*
Y352353D01*
X714169Y351354D01*
X713169D01*
X712169Y352353D01*
Y354353D01*
X713169Y355352D01*
X620648Y360500D02*
X615649D01*
X614650Y359500D01*
Y357501D01*
X615649Y356501D01*
X620648D01*
X619648Y354502D02*
X620648Y353502D01*
Y351503D01*
X619648Y350503D01*
X618648D01*
X617649Y351503D01*
Y352503D01*
Y351503D01*
X616649Y350503D01*
X615649D01*
X614650Y351503D01*
Y353502D01*
X615649Y354502D01*
X524148Y360500D02*
X519149D01*
X518150Y359500D01*
Y357501D01*
X519149Y356501D01*
X524148D01*
X523148Y354502D02*
X524148Y353502D01*
Y351503D01*
X523148Y350503D01*
X522148D01*
X521149Y351503D01*
Y352503D01*
Y351503D01*
X520149Y350503D01*
X519149D01*
X518150Y351503D01*
Y353502D01*
X519149Y354502D01*
X428998Y360500D02*
X424000D01*
X423000Y359500D01*
Y357501D01*
X424000Y356501D01*
X428998D01*
X427998Y354502D02*
X428998Y353502D01*
Y351503D01*
X427998Y350503D01*
X426999D01*
X425999Y351503D01*
Y352503D01*
Y351503D01*
X424999Y350503D01*
X424000D01*
X423000Y351503D01*
Y353502D01*
X424000Y354502D01*
X334648Y360000D02*
X329649D01*
X328650Y359000D01*
Y357001D01*
X329649Y356001D01*
X334648D01*
X333648Y354002D02*
X334648Y353002D01*
Y351003D01*
X333648Y350003D01*
X332648D01*
X331649Y351003D01*
Y352003D01*
Y351003D01*
X330649Y350003D01*
X329649D01*
X328650Y351003D01*
Y353002D01*
X329649Y354002D01*
X238498Y359000D02*
X233500D01*
X232500Y358000D01*
Y356001D01*
X233500Y355001D01*
X238498D01*
X237498Y353002D02*
X238498Y352002D01*
Y350003D01*
X237498Y349003D01*
X236499D01*
X235499Y350003D01*
Y351003D01*
Y350003D01*
X234499Y349003D01*
X233500D01*
X232500Y350003D01*
Y352002D01*
X233500Y353002D01*
X140148Y360000D02*
X135149D01*
X134150Y359000D01*
Y357001D01*
X135149Y356001D01*
X140148D01*
X139148Y354002D02*
X140148Y353002D01*
Y351003D01*
X139148Y350003D01*
X138148D01*
X137149Y351003D01*
Y352003D01*
Y351003D01*
X136149Y350003D01*
X135149D01*
X134150Y351003D01*
Y353002D01*
X135149Y354002D01*
D29*
X551673Y236098D02*
G03*
X551673Y236098I-1181J0D01*
G01*
D30*
X560039Y230390D02*
G03*
X560039Y230390I-492J0D01*
G01*
X138980Y270197D02*
G03*
X138980Y270197I-492J0D01*
G01*
X971358Y405126D02*
X1050098D01*
Y475992D01*
X971358D02*
X1050098D01*
X971358Y405126D02*
Y475992D01*
X979232D02*
Y495677D01*
X1042224D01*
Y475992D02*
Y495677D01*
X874858Y405126D02*
X953598D01*
Y475992D01*
X874858D02*
X953598D01*
X874858Y405126D02*
Y475992D01*
X882732D02*
Y495677D01*
X945724D01*
Y475992D02*
Y495677D01*
X778358Y405626D02*
X857098D01*
Y476492D01*
X778358D02*
X857098D01*
X778358Y405626D02*
Y476492D01*
X786232D02*
Y496177D01*
X849224D01*
Y476492D02*
Y496177D01*
X682028Y406476D02*
X760768D01*
Y477343D01*
X682028D02*
X760768D01*
X682028Y406476D02*
Y477343D01*
X689902D02*
Y497028D01*
X752894D01*
Y477343D02*
Y497028D01*
X584508Y405626D02*
X663248D01*
Y476492D01*
X584508D02*
X663248D01*
X584508Y405626D02*
Y476492D01*
X592382D02*
Y496177D01*
X655374D01*
Y476492D02*
Y496177D01*
X488008Y405626D02*
X566748D01*
Y476492D01*
X488008D02*
X566748D01*
X488008Y405626D02*
Y476492D01*
X495882D02*
Y496177D01*
X558874D01*
Y476492D02*
Y496177D01*
X392858Y405626D02*
X471598D01*
Y476492D01*
X392858D02*
X471598D01*
X392858Y405626D02*
Y476492D01*
X400732D02*
Y496177D01*
X463724D01*
Y476492D02*
Y496177D01*
X298508Y405126D02*
X377248D01*
Y475992D01*
X298508D02*
X377248D01*
X298508Y405126D02*
Y475992D01*
X306382D02*
Y495677D01*
X369374D01*
Y475992D02*
Y495677D01*
X202358Y404126D02*
X281098D01*
Y474992D01*
X202358D02*
X281098D01*
X202358Y404126D02*
Y474992D01*
X210232D02*
Y494677D01*
X273224D01*
Y474992D02*
Y494677D01*
X104008Y405126D02*
X182748D01*
Y475992D01*
X104008D02*
X182748D01*
X104008Y405126D02*
Y475992D01*
X111882D02*
Y495677D01*
X174874D01*
Y475992D02*
Y495677D01*
D31*
X169000Y298500D02*
X169000Y307500D01*
X188000Y298500D02*
Y307500D01*
X169000Y298500D02*
X188000Y298500D01*
X169000Y307500D02*
X188000D01*
X177488Y301425D02*
Y304575D01*
Y303000D02*
X179063Y301425D01*
Y304575D01*
X177488Y303000D02*
X179063Y304575D01*
X170008Y299457D02*
X171189D01*
X186937Y298669D02*
Y300244D01*
X186150Y299457D02*
X188000D01*
D32*
X178063Y290638D02*
X178457D01*
X178063Y295362D02*
X178457D01*
X540445Y215779D02*
X540839D01*
X540445Y220504D02*
X540839D01*
X505217Y281374D02*
X554429D01*
X505217Y232161D02*
X554429D01*
X505217D02*
Y281374D01*
X554429Y232161D02*
Y281374D01*
X138508Y279055D02*
Y280630D01*
X164492Y279055D02*
Y280630D01*
X138508Y279055D02*
X164492D01*
X157303Y258362D02*
X157697D01*
X157303Y253638D02*
X157697D01*
X142803Y258362D02*
X143197D01*
X142803Y253638D02*
X143197D01*
X481142Y200142D02*
Y210142D01*
X521142D01*
X481142Y200142D02*
X521142D01*
Y210142D01*
X110000Y267000D02*
X112000D01*
X110000D02*
Y271000D01*
Y287000D01*
X111000Y267000D02*
X134000D01*
X130000D02*
Y287000D01*
X134000Y267000D02*
Y287000D01*
X110000D02*
X134000D01*
X188000Y276000D02*
X190000D01*
Y272000D02*
Y276000D01*
Y256000D02*
Y272000D01*
X166000Y276000D02*
X189000D01*
X170000Y256000D02*
Y276000D01*
X166000Y256000D02*
Y276000D01*
Y256000D02*
X190000D01*
X1018847Y337461D02*
X1019240D01*
X1018847Y332539D02*
X1019240D01*
X922346Y337461D02*
X922740D01*
X922346Y332539D02*
X922740D01*
X825846Y337961D02*
X826240D01*
X825846Y333039D02*
X826240D01*
X729516Y338811D02*
X729910D01*
X729516Y333890D02*
X729910D01*
X631996Y337961D02*
X632390D01*
X631996Y333039D02*
X632390D01*
X535496Y337961D02*
X535890D01*
X535496Y333039D02*
X535890D01*
X440346Y337961D02*
X440740D01*
X440346Y333039D02*
X440740D01*
X345996Y337461D02*
X346390D01*
X345996Y332539D02*
X346390D01*
X249847Y336461D02*
X250240D01*
X249847Y331539D02*
X250240D01*
X151496Y337461D02*
X151890D01*
X151496Y332539D02*
X151890D01*
X1008461Y382347D02*
Y382740D01*
X1003539Y382347D02*
Y382740D01*
X911961Y382347D02*
Y382740D01*
X907039Y382347D02*
Y382740D01*
X815461Y382846D02*
Y383240D01*
X810539Y382846D02*
Y383240D01*
X719130Y383697D02*
Y384090D01*
X714209Y383697D02*
Y384090D01*
X621610Y382846D02*
Y383240D01*
X616689Y382846D02*
Y383240D01*
X525110Y382846D02*
Y383240D01*
X520189Y382846D02*
Y383240D01*
X429961Y382846D02*
Y383240D01*
X425039Y382846D02*
Y383240D01*
X335610Y382347D02*
Y382740D01*
X330689Y382347D02*
Y382740D01*
X239461Y381347D02*
Y381740D01*
X234539Y381347D02*
Y381740D01*
X141110Y382347D02*
Y382740D01*
X136189Y382347D02*
Y382740D01*
X1018760Y381539D02*
X1019153D01*
X1018760Y386461D02*
X1019153D01*
X922260Y381539D02*
X922653D01*
X922260Y386461D02*
X922653D01*
X825760Y382039D02*
X826153D01*
X825760Y386961D02*
X826153D01*
X729429Y382890D02*
X729823D01*
X729429Y387811D02*
X729823D01*
X631910Y382039D02*
X632303D01*
X631910Y386961D02*
X632303D01*
X535409Y382039D02*
X535803D01*
X535409Y386961D02*
X535803D01*
X440260Y382039D02*
X440654D01*
X440260Y386961D02*
X440654D01*
X345910Y381539D02*
X346303D01*
X345910Y386461D02*
X346303D01*
X249760Y380539D02*
X250153D01*
X249760Y385461D02*
X250153D01*
X151409Y381539D02*
X151803D01*
X151409Y386461D02*
X151803D01*
X1028039Y377260D02*
Y377654D01*
X1032961Y377260D02*
Y377654D01*
X931539Y377260D02*
Y377654D01*
X936461Y377260D02*
Y377654D01*
X835039Y377760D02*
Y378153D01*
X839961Y377760D02*
Y378153D01*
X738709Y378610D02*
Y379004D01*
X743630Y378610D02*
Y379004D01*
X641189Y377760D02*
Y378153D01*
X646110Y377760D02*
Y378153D01*
X544689Y377760D02*
Y378153D01*
X549610Y377760D02*
Y378153D01*
X449539Y377760D02*
Y378153D01*
X454461Y377760D02*
Y378153D01*
X355189Y377260D02*
Y377654D01*
X360110Y377260D02*
Y377654D01*
X259039Y376260D02*
Y376654D01*
X263961Y376260D02*
Y376654D01*
X160689Y377260D02*
Y377654D01*
X165610Y377260D02*
Y377654D01*
X128260Y253539D02*
X128654D01*
X128260Y258461D02*
X128654D01*
D33*
X568563Y261862D02*
X576437D01*
X568563Y247689D02*
Y261862D01*
Y247689D02*
X576437D01*
Y261862D01*
M02*
