M48
;Layer_Color=9474304
;FILE_FORMAT=2:5
INCH,LZ
;TYPE=PLATED
T1F00S00C0.01181
T2F00S00C0.03543
T3F00S00C0.04000
T4F00S00C0.06968
T5F00S00C0.12000
%
T01
X10145Y03105
X0918293Y0311
X0822147Y0310853
X0726Y03105
X0627943Y0310057
X057475Y030875
X05695Y0308
X0567642Y0286142
X0566Y02665
X0565669Y0252831
X0578276Y0254776
X0575142Y0271642
X0602Y0273
Y02275
X0583642Y0226642
X0567402Y0219402
X0551642Y0217642
X0524642Y0216142
X0496142Y0212642
X0491142Y0226142
X0492142Y0234642
X0488182Y0238601
X0492098Y0288142
X0504642Y0293642
X0509026Y0298026
X05135Y0299
X05165Y0301
X05185Y0304
X05225Y03005
X05241Y02969
X0520781Y0293719
X05305Y02975
X0528781Y03
X05265Y0303
X0531443Y0311057
X05395Y0308
X0543602Y0308102
X0545642Y0293642
X0551476Y0293876
X0533482Y02955
X0492098Y03085
X0568142Y0240642
X0566Y02385
X04355Y0311
X0342Y03115
X0246
X0167Y0303
X0148Y03115
X0152Y0316
X0156Y0321
X0156211Y0354116
X0147443
X0144Y03535
X0151827Y03585
X014015Y03725
X013115Y0379
X017265Y0372
X01615Y0335
X026Y0334
X02545Y03205
X02505Y03159
X0254561Y0353616
X0245793
X02425Y0354
X0250177Y0358
X02385Y03715
X02295Y0378
X0271Y0371
X032565Y0379
X033465Y03725
X03385Y0354
X0341943Y0355116
X03465Y0359
X0350711Y0355116
X0356Y0335
X0351Y03205
X0347Y0316
X036715Y0372
X042Y03795
X0429Y0373
X0433Y0354
X0436293Y0355116
X0445061
X0440677Y03595
X04615Y03725
X04505Y03355
X0445Y03205
X04405Y0316
X0492098Y0328
X05405Y0321
X0543602Y0316102
X0536Y0316
X0546Y03355
X0540211Y0355616
X0535827Y03565
X0531443Y0355616
X05275Y03535
X052415Y0373
X051515Y03795
X055665Y03725
X05695Y03315
X057475Y033075
X06245Y0355
X062065Y0373
X061165Y03795
X0627943Y0356116
X06325Y03595
X0637Y03555
X0642Y03355
X0637Y0321
X0633Y03155
X065315Y03725
X0709169Y038035
X0718169Y037385
X0721Y0355
X0725462Y0356616
X073Y03605
X0734231Y0356616
X073965Y033635
X07345Y0321
X073Y0316
X0750669Y037335
X08055Y03795
X08145Y0373
X08175Y03545
X0821793Y0355116
X0830561
X0826177Y03595
X0847Y03725
X0836Y03355
X0831Y0321
X08265Y0316
X09225
X0927Y0321
X0933Y0335
X0927061Y0355116
X09225Y0359
X0918293Y0355116
X09135Y03545
X0911Y03725
X0902Y0379
X09435Y0372
X09985Y0379
X10075Y03725
X1011Y0354
X1014793Y0355116
X1019Y0359
X1023561Y0355116
X1029Y0335
X1023561Y0320939
X10195Y03155
X104Y0372
T02
X0486142Y0205142
X0496142
X0506142
X0516142
T03
X0177Y0261
Y0271
X0123Y0272
Y0282
T04
X0116606Y0413
X0112276Y046615
X017448
X0210626Y046515
X0214957Y0412
X017015Y0413
X02685Y0412
X0311106Y0413
X0306776Y046615
X0272831Y046515
X036898Y046615
X0401126Y046665
X0405457Y04135
X036465Y0413
X0459Y04135
X0463331Y046665
X0496276
X0500606Y04135
X055415
X0597106
X0592776Y046665
X055848
X065498
X0690295Y04675
X0694626Y041435
X065065Y04135
X0748169Y041435
X07525Y04675
X0786626Y046665
X0790957Y04135
X08445
X0887457Y0413
X0883126Y046615
X0848831Y046665
X0945331Y046615
X0979626
X0983957Y0413
X0941
X10375
X1041831Y046615
T05
X1072835Y0216535
X007874
X1072835Y0482283
X007874
M30
