G04 Layer_Physical_Order=2*
G04 Layer_Color=16711680*
%FSLAX25Y25*%
%MOIN*%
G70*
G01*
G75*
%ADD11R,0.04134X0.05512*%
%ADD18R,0.04528X0.05709*%
%ADD19R,0.05709X0.04528*%
%ADD21C,0.01000*%
%ADD22C,0.15000*%
%ADD23R,0.05905X0.05905*%
%ADD24C,0.05905*%
%ADD25C,0.06000*%
%ADD26R,0.06000X0.06000*%
%ADD27C,0.09842*%
%ADD28C,0.02362*%
G36*
X1027707Y371207D02*
X1027707Y371207D01*
X1028071Y370964D01*
X1028500Y370878D01*
X1028500Y370879D01*
X1036500D01*
X1036500Y209500D01*
X96500D01*
X96500Y370940D01*
X122386Y370996D01*
X122598Y370543D01*
X107660Y352720D01*
X107578Y352571D01*
X107483Y352429D01*
X107474Y352380D01*
X107450Y352337D01*
X107431Y352167D01*
X107398Y352000D01*
Y274905D01*
X106453D01*
X105993Y274715D01*
X105803Y274256D01*
Y268744D01*
X105993Y268285D01*
X106453Y268095D01*
X110587D01*
X111046Y268285D01*
X111236Y268744D01*
Y274256D01*
X111046Y274715D01*
X110587Y274905D01*
X109641D01*
Y351592D01*
X125910Y371003D01*
X139142Y371031D01*
X139455Y370822D01*
X140150Y370684D01*
X140341Y370722D01*
X142063Y369000D01*
X114207Y341143D01*
X113964Y340780D01*
X113878Y340350D01*
X113878Y340350D01*
Y294905D01*
X112933D01*
X112474Y294715D01*
X112284Y294256D01*
Y288744D01*
X112474Y288285D01*
X112933Y288095D01*
X117067D01*
X117526Y288285D01*
X117716Y288744D01*
Y294256D01*
X117526Y294715D01*
X117067Y294905D01*
X116122D01*
Y339886D01*
X144114Y367879D01*
X238059D01*
X238352Y367683D01*
X238781Y367597D01*
X238781Y367597D01*
X271945D01*
X271945Y367597D01*
X272374Y367683D01*
X272667Y367879D01*
X428500D01*
X428500Y367878D01*
X428500Y367879D01*
X523500D01*
X523500Y367878D01*
X523500Y367879D01*
X620000D01*
X620000Y367878D01*
X620000Y367879D01*
X1007000D01*
X1007000Y367878D01*
X1007429Y367964D01*
X1007793Y368207D01*
X1008293Y368707D01*
X1008293Y368707D01*
X1008536Y369071D01*
X1008622Y369500D01*
X1008622Y369500D01*
Y371107D01*
X1008784Y371216D01*
X1009178Y371805D01*
X1009316Y372500D01*
X1009705Y372884D01*
X1025996Y372918D01*
X1027707Y371207D01*
D02*
G37*
%LPC*%
G36*
X115500Y271000D02*
X112914D01*
Y268744D01*
X112991Y268354D01*
X113212Y268023D01*
X113543Y267802D01*
X113933Y267724D01*
X115500D01*
Y271000D01*
D02*
G37*
G36*
X547382Y272142D02*
X544098D01*
X540815D01*
Y269787D01*
X540893Y269397D01*
X541114Y269066D01*
X541444Y268845D01*
X541835Y268768D01*
X542977D01*
Y267516D01*
X541835D01*
X541444Y267438D01*
X541114Y267217D01*
X540893Y266886D01*
X540815Y266496D01*
Y264142D01*
X544098D01*
X547382D01*
Y266496D01*
X547304Y266886D01*
X547083Y267217D01*
X546752Y267438D01*
X546362Y267516D01*
X545220D01*
Y268768D01*
X546362D01*
X546752Y268845D01*
X547083Y269066D01*
X547304Y269397D01*
X547382Y269787D01*
Y272142D01*
D02*
G37*
G36*
X168500Y265697D02*
X166146D01*
X165755Y265619D01*
X165425Y265398D01*
X165204Y265067D01*
X165126Y264677D01*
Y262913D01*
X168500D01*
Y265697D01*
D02*
G37*
G36*
X126969Y271500D02*
X123500D01*
Y268031D01*
X124044Y268103D01*
X125017Y268506D01*
X125853Y269147D01*
X126494Y269983D01*
X126897Y270956D01*
X126969Y271500D01*
D02*
G37*
G36*
X115500Y275275D02*
X113933D01*
X113543Y275198D01*
X113212Y274977D01*
X112991Y274646D01*
X112914Y274256D01*
Y272000D01*
X115500D01*
Y275275D01*
D02*
G37*
G36*
X604124Y272500D02*
X602500D01*
Y270876D01*
X602851Y270945D01*
X603573Y271427D01*
X604055Y272149D01*
X604124Y272500D01*
D02*
G37*
G36*
X601500D02*
X599876D01*
X599945Y272149D01*
X600427Y271427D01*
X601149Y270945D01*
X601500Y270876D01*
Y272500D01*
D02*
G37*
G36*
X171854Y265697D02*
X169500D01*
Y262413D01*
Y259130D01*
X171854D01*
X172245Y259208D01*
X172480Y259365D01*
X172823Y259254D01*
X172980Y259144D01*
Y258000D01*
X173058Y257610D01*
X173279Y257279D01*
X173610Y257058D01*
X174000Y256980D01*
X176500D01*
Y261000D01*
Y265020D01*
X174000D01*
X173610Y264942D01*
X173364Y264778D01*
X173008Y264849D01*
X172822Y264937D01*
X172796Y265067D01*
X172575Y265398D01*
X172245Y265619D01*
X171854Y265697D01*
D02*
G37*
G36*
X547382Y263142D02*
X544098D01*
X540815D01*
Y260787D01*
X540893Y260397D01*
X541114Y260066D01*
X541444Y259845D01*
X541835Y259768D01*
X542977D01*
Y259016D01*
X541835D01*
X541444Y258938D01*
X541114Y258717D01*
X540893Y258386D01*
X540815Y257996D01*
Y255642D01*
X544098D01*
X547382D01*
Y257996D01*
X547304Y258386D01*
X547083Y258717D01*
X546752Y258938D01*
X546362Y259016D01*
X545220D01*
Y259768D01*
X546362D01*
X546752Y259845D01*
X547083Y260066D01*
X547304Y260397D01*
X547382Y260787D01*
Y263142D01*
D02*
G37*
G36*
X578776Y256900D02*
Y255276D01*
X580400D01*
X580330Y255627D01*
X579848Y256348D01*
X579127Y256830D01*
X578776Y256900D01*
D02*
G37*
G36*
X181020Y260500D02*
X177500D01*
Y256980D01*
X180000D01*
X180390Y257058D01*
X180721Y257279D01*
X180942Y257610D01*
X181020Y258000D01*
Y260500D01*
D02*
G37*
G36*
X180000Y265020D02*
X177500D01*
Y261500D01*
X181020D01*
Y264000D01*
X180942Y264390D01*
X180721Y264721D01*
X180390Y264942D01*
X180000Y265020D01*
D02*
G37*
G36*
X522468Y267642D02*
X519185D01*
X515902D01*
Y265287D01*
X515979Y264897D01*
X516200Y264566D01*
X516531Y264345D01*
X516921Y264268D01*
X518063D01*
Y263016D01*
X516878D01*
X516488Y262938D01*
X516157Y262717D01*
X515936Y262386D01*
X515858Y261996D01*
Y259642D01*
X519142D01*
X522425D01*
Y261996D01*
X522347Y262386D01*
X522126Y262717D01*
X521796Y262938D01*
X521406Y263016D01*
X520307D01*
Y264268D01*
X521449D01*
X521839Y264345D01*
X522170Y264566D01*
X522391Y264897D01*
X522468Y265287D01*
Y267642D01*
D02*
G37*
G36*
X168500Y261913D02*
X165126D01*
Y260150D01*
X165204Y259759D01*
X165425Y259429D01*
X165755Y259208D01*
X166146Y259130D01*
X168500D01*
Y261913D01*
D02*
G37*
G36*
X177000Y274631D02*
X176060Y274507D01*
X175185Y274145D01*
X174432Y273568D01*
X173855Y272815D01*
X173568Y272122D01*
X172356D01*
X172314Y272223D01*
X171854Y272413D01*
X166146D01*
X165686Y272223D01*
X165496Y271764D01*
Y267236D01*
X165686Y266777D01*
X166146Y266587D01*
X171854D01*
X172314Y266777D01*
X172504Y267236D01*
Y269879D01*
X173568D01*
X173855Y269184D01*
X174432Y268432D01*
X175185Y267855D01*
X176060Y267493D01*
X177000Y267369D01*
X177940Y267493D01*
X178815Y267855D01*
X179568Y268432D01*
X180145Y269184D01*
X180507Y270060D01*
X180631Y271000D01*
X180507Y271940D01*
X180145Y272815D01*
X179568Y273568D01*
X178815Y274145D01*
X177940Y274507D01*
X177000Y274631D01*
D02*
G37*
G36*
X124547Y294905D02*
X120413D01*
X119954Y294715D01*
X119764Y294256D01*
Y288744D01*
X119954Y288285D01*
X120413Y288095D01*
X121878D01*
Y285649D01*
X120000D01*
X119541Y285459D01*
X119351Y285000D01*
Y279000D01*
X119541Y278541D01*
X120000Y278351D01*
X126000D01*
X126459Y278541D01*
X126649Y279000D01*
Y285000D01*
X126459Y285459D01*
X126000Y285649D01*
X124122D01*
Y288095D01*
X124547D01*
X125006Y288285D01*
X125197Y288744D01*
Y294256D01*
X125006Y294715D01*
X124547Y294905D01*
D02*
G37*
G36*
X535598Y280382D02*
X533244D01*
X532854Y280304D01*
X532523Y280083D01*
X532302Y279752D01*
X532225Y279362D01*
Y278220D01*
X531472D01*
Y279362D01*
X531395Y279752D01*
X531174Y280083D01*
X530843Y280304D01*
X530453Y280382D01*
X528098D01*
Y277098D01*
Y273815D01*
X530453D01*
X530843Y273893D01*
X531174Y274114D01*
X531395Y274445D01*
X531472Y274835D01*
Y275977D01*
X532225D01*
Y274835D01*
X532302Y274445D01*
X532523Y274114D01*
X532854Y273893D01*
X533244Y273815D01*
X535598D01*
Y277098D01*
Y280382D01*
D02*
G37*
G36*
X527098D02*
X524744D01*
X524354Y280304D01*
X524023Y280083D01*
X523802Y279752D01*
X523725Y279362D01*
Y278220D01*
X522972D01*
Y278862D01*
X522895Y279252D01*
X522674Y279583D01*
X522343Y279804D01*
X521953Y279882D01*
X519598D01*
Y276599D01*
X519098D01*
Y276098D01*
X515225D01*
Y274335D01*
X515302Y273944D01*
X515523Y273614D01*
X515854Y273393D01*
X516244Y273315D01*
X517977D01*
Y272016D01*
X516921D01*
X516531Y271938D01*
X516200Y271717D01*
X515979Y271386D01*
X515902Y270996D01*
Y268642D01*
X519185D01*
X522468D01*
Y270996D01*
X522391Y271386D01*
X522170Y271717D01*
X521839Y271938D01*
X521449Y272016D01*
X520220D01*
Y273315D01*
X521953D01*
X522343Y273393D01*
X522674Y273614D01*
X522895Y273944D01*
X522972Y274335D01*
Y275977D01*
X523725D01*
Y274835D01*
X523802Y274445D01*
X524023Y274114D01*
X524354Y273893D01*
X524744Y273815D01*
X527098D01*
Y277098D01*
Y280382D01*
D02*
G37*
G36*
X567642Y287958D02*
X566947Y287820D01*
X566358Y287426D01*
X565964Y286837D01*
X565826Y286142D01*
X565964Y285447D01*
X566358Y284858D01*
X566520Y284749D01*
Y281642D01*
X564787D01*
X564328Y281451D01*
X564138Y280992D01*
Y279307D01*
X563145D01*
Y280449D01*
X562955Y280908D01*
X562496Y281098D01*
X556787D01*
X556328Y280908D01*
X556138Y280449D01*
Y275921D01*
X556328Y275462D01*
X556787Y275272D01*
X562496D01*
X562955Y275462D01*
X563145Y275921D01*
Y277063D01*
X564138D01*
Y276465D01*
X564328Y276005D01*
X564787Y275815D01*
X570496D01*
X570955Y276005D01*
X571145Y276465D01*
Y280992D01*
X570955Y281451D01*
X570496Y281642D01*
X568763D01*
Y284749D01*
X568926Y284858D01*
X569319Y285447D01*
X569458Y286142D01*
X569319Y286837D01*
X568926Y287426D01*
X568337Y287820D01*
X567642Y287958D01*
D02*
G37*
G36*
X506766Y293142D02*
X502517D01*
X502568Y292885D01*
X502520Y292642D01*
X502520Y292642D01*
Y290516D01*
X501378D01*
X500988Y290438D01*
X500657Y290217D01*
X500436Y289886D01*
X500358Y289496D01*
Y287142D01*
X503642D01*
X506925D01*
Y289496D01*
X506847Y289886D01*
X506627Y290217D01*
X506296Y290438D01*
X505905Y290516D01*
X504763D01*
Y291442D01*
X505493Y291587D01*
X506214Y292069D01*
X506696Y292791D01*
X506766Y293142D01*
D02*
G37*
G36*
X506925Y286142D02*
X504142D01*
Y282768D01*
X505905D01*
X506296Y282845D01*
X506627Y283066D01*
X506847Y283397D01*
X506925Y283787D01*
Y286142D01*
D02*
G37*
G36*
X503142D02*
X500358D01*
Y283787D01*
X500436Y283397D01*
X500657Y283066D01*
X500988Y282845D01*
X501378Y282768D01*
X503142D01*
Y286142D01*
D02*
G37*
G36*
X546362Y276516D02*
X544598D01*
Y273142D01*
X547382D01*
Y275496D01*
X547304Y275886D01*
X547083Y276217D01*
X546752Y276438D01*
X546362Y276516D01*
D02*
G37*
G36*
X543598D02*
X541835D01*
X541444Y276438D01*
X541114Y276217D01*
X540893Y275886D01*
X540815Y275496D01*
Y273142D01*
X543598D01*
Y276516D01*
D02*
G37*
G36*
X123500Y275969D02*
Y272500D01*
X126969D01*
X126897Y273044D01*
X126494Y274017D01*
X125853Y274853D01*
X125017Y275494D01*
X124044Y275897D01*
X123500Y275969D01*
D02*
G37*
G36*
X601500Y275124D02*
X601149Y275055D01*
X600427Y274572D01*
X599945Y273851D01*
X599876Y273500D01*
X601500D01*
Y275124D01*
D02*
G37*
G36*
X122500Y275969D02*
X121956Y275897D01*
X120983Y275494D01*
X120147Y274853D01*
X119587Y274122D01*
X119131Y274226D01*
X119087Y274251D01*
Y274256D01*
X119009Y274646D01*
X118788Y274977D01*
X118457Y275198D01*
X118067Y275275D01*
X116500D01*
Y271500D01*
Y267724D01*
X118067D01*
X118457Y267802D01*
X118788Y268023D01*
X119009Y268354D01*
X119087Y268744D01*
Y269749D01*
X119131Y269774D01*
X119587Y269878D01*
X120147Y269147D01*
X120983Y268506D01*
X121956Y268103D01*
X122500Y268031D01*
Y272000D01*
Y275969D01*
D02*
G37*
G36*
X538953Y280382D02*
X536598D01*
Y277098D01*
Y273815D01*
X538953D01*
X539343Y273893D01*
X539674Y274114D01*
X539895Y274445D01*
X539972Y274835D01*
Y276426D01*
X540135Y276669D01*
X540220Y277098D01*
X540135Y277528D01*
X539972Y277770D01*
Y279362D01*
X539895Y279752D01*
X539674Y280083D01*
X539343Y280304D01*
X538953Y280382D01*
D02*
G37*
G36*
X602500Y275124D02*
Y273500D01*
X604124D01*
X604055Y273851D01*
X603573Y274572D01*
X602851Y275055D01*
X602500Y275124D01*
D02*
G37*
G36*
X577776Y256900D02*
X577425Y256830D01*
X576703Y256348D01*
X576221Y255627D01*
X576151Y255276D01*
X577776D01*
Y256900D01*
D02*
G37*
G36*
X601500Y227000D02*
X599876D01*
X599945Y226649D01*
X600427Y225927D01*
X601149Y225445D01*
X601500Y225376D01*
Y227000D01*
D02*
G37*
G36*
X583642Y228458D02*
X582947Y228320D01*
X582358Y227926D01*
X582249Y227763D01*
X574882D01*
X574453Y227678D01*
X574089Y227435D01*
X573846Y227071D01*
X573760Y226642D01*
Y226234D01*
X573714Y226215D01*
X573524Y225756D01*
Y220244D01*
X573714Y219785D01*
X574173Y219595D01*
X578307D01*
X578766Y219785D01*
X578957Y220244D01*
Y225520D01*
X582249D01*
X582358Y225358D01*
X582947Y224964D01*
X583642Y224826D01*
X584337Y224964D01*
X584926Y225358D01*
X585320Y225947D01*
X585458Y226642D01*
X585320Y227337D01*
X584926Y227926D01*
X584337Y228320D01*
X583642Y228458D01*
D02*
G37*
G36*
X552142Y219766D02*
Y218142D01*
X553766D01*
X553696Y218493D01*
X553214Y219214D01*
X552493Y219696D01*
X552142Y219766D01*
D02*
G37*
G36*
X604124Y227000D02*
X602500D01*
Y225376D01*
X602851Y225445D01*
X603573Y225927D01*
X604055Y226649D01*
X604124Y227000D01*
D02*
G37*
G36*
X503694Y231187D02*
X500320D01*
Y228403D01*
X502675D01*
X503065Y228481D01*
X503396Y228702D01*
X503617Y229033D01*
X503694Y229423D01*
Y231187D01*
D02*
G37*
G36*
X602500Y229624D02*
Y228000D01*
X604124D01*
X604055Y228351D01*
X603573Y229072D01*
X602851Y229555D01*
X602500Y229624D01*
D02*
G37*
G36*
X601500D02*
X601149Y229555D01*
X600427Y229072D01*
X599945Y228351D01*
X599876Y228000D01*
X601500D01*
Y229624D01*
D02*
G37*
G36*
X495642Y214766D02*
X495291Y214696D01*
X494569Y214214D01*
X494087Y213493D01*
X494017Y213142D01*
X495642D01*
Y214766D01*
D02*
G37*
G36*
X498266Y212142D02*
X496642D01*
Y210517D01*
X496993Y210587D01*
X497714Y211069D01*
X498196Y211791D01*
X498266Y212142D01*
D02*
G37*
G36*
X495642D02*
X494017D01*
X494087Y211791D01*
X494569Y211069D01*
X495291Y210587D01*
X495642Y210517D01*
Y212142D01*
D02*
G37*
G36*
X496642Y214766D02*
Y213142D01*
X498266D01*
X498196Y213493D01*
X497714Y214214D01*
X496993Y214696D01*
X496642Y214766D01*
D02*
G37*
G36*
X551142Y219766D02*
X550791Y219696D01*
X550069Y219214D01*
X549587Y218493D01*
X549517Y218142D01*
X551142D01*
Y219766D01*
D02*
G37*
G36*
X553766Y217142D02*
X552142D01*
Y215517D01*
X552493Y215587D01*
X553214Y216069D01*
X553696Y216791D01*
X553766Y217142D01*
D02*
G37*
G36*
X551142D02*
X549517D01*
X549587Y216791D01*
X550069Y216069D01*
X550791Y215587D01*
X551142Y215517D01*
Y217142D01*
D02*
G37*
G36*
X502675Y234970D02*
X500320D01*
Y232187D01*
X503694D01*
Y233950D01*
X503617Y234341D01*
X503396Y234671D01*
X503065Y234892D01*
X502675Y234970D01*
D02*
G37*
G36*
X543598Y246642D02*
X540815D01*
Y245444D01*
X540448Y245077D01*
X539905Y245242D01*
X539895Y245296D01*
X539674Y245626D01*
X539343Y245848D01*
X538953Y245925D01*
X536598D01*
Y242642D01*
Y239358D01*
X538953D01*
X539343Y239436D01*
X539674Y239657D01*
X539895Y239988D01*
X539972Y240378D01*
Y241595D01*
X540028Y241606D01*
X540391Y241849D01*
X541815Y243272D01*
X541835Y243268D01*
X543598D01*
Y246642D01*
D02*
G37*
G36*
X547382D02*
X544598D01*
Y243268D01*
X546362D01*
X546752Y243345D01*
X547083Y243566D01*
X547304Y243897D01*
X547382Y244287D01*
Y246642D01*
D02*
G37*
G36*
X568642Y242766D02*
Y241142D01*
X570266D01*
X570196Y241493D01*
X569714Y242214D01*
X568993Y242696D01*
X568642Y242766D01*
D02*
G37*
G36*
X547382Y254642D02*
X544098D01*
X540815D01*
Y252287D01*
X540893Y251897D01*
X541114Y251566D01*
X541334Y251419D01*
X541371Y251257D01*
Y251027D01*
X541334Y250864D01*
X541114Y250717D01*
X540893Y250386D01*
X540815Y249996D01*
Y247642D01*
X544098D01*
X547382D01*
Y249996D01*
X547304Y250386D01*
X547083Y250717D01*
X546863Y250864D01*
X546826Y251027D01*
Y251257D01*
X546863Y251419D01*
X547083Y251566D01*
X547304Y251897D01*
X547382Y252287D01*
Y254642D01*
D02*
G37*
G36*
X580400Y254276D02*
X578776D01*
Y252651D01*
X579127Y252721D01*
X579848Y253203D01*
X580330Y253925D01*
X580400Y254276D01*
D02*
G37*
G36*
X577776D02*
X576151D01*
X576221Y253925D01*
X576703Y253203D01*
X577425Y252721D01*
X577776Y252651D01*
Y254276D01*
D02*
G37*
G36*
X522425Y258642D02*
X519142D01*
X515858D01*
Y256287D01*
X515936Y255897D01*
X516157Y255567D01*
X516488Y255345D01*
X516878Y255268D01*
X518020D01*
Y254016D01*
X516878D01*
X516488Y253938D01*
X516157Y253717D01*
X515936Y253386D01*
X515858Y252996D01*
Y250642D01*
X519142D01*
X522425D01*
Y252996D01*
X522347Y253386D01*
X522126Y253717D01*
X521796Y253938D01*
X521406Y254016D01*
X520263D01*
Y255268D01*
X521406D01*
X521796Y255345D01*
X522126Y255567D01*
X522347Y255897D01*
X522425Y256287D01*
Y258642D01*
D02*
G37*
G36*
X491642Y236766D02*
X491291Y236696D01*
X490569Y236214D01*
X490087Y235493D01*
X490017Y235142D01*
X491642D01*
Y236766D01*
D02*
G37*
G36*
X499321Y234970D02*
X496966D01*
X496576Y234892D01*
X496245Y234671D01*
X496024Y234341D01*
X495947Y233950D01*
Y233576D01*
X495485Y233385D01*
X494728Y234142D01*
X492642D01*
Y232517D01*
X492993Y232587D01*
X493063Y232634D01*
X494804Y230894D01*
X494804Y230894D01*
X495168Y230650D01*
X495597Y230565D01*
X495947Y230243D01*
Y229423D01*
X496024Y229033D01*
X496245Y228702D01*
X496576Y228481D01*
X496966Y228403D01*
X499321D01*
Y231687D01*
Y234970D01*
D02*
G37*
G36*
X491642Y234142D02*
X490017D01*
X490087Y233791D01*
X490569Y233069D01*
X491291Y232587D01*
X491642Y232517D01*
Y234142D01*
D02*
G37*
G36*
X492642Y236766D02*
Y235142D01*
X494266D01*
X494196Y235493D01*
X493714Y236214D01*
X492993Y236696D01*
X492642Y236766D01*
D02*
G37*
G36*
X502675Y241687D02*
X496966D01*
X496507Y241496D01*
X496317Y241037D01*
Y239895D01*
X489452D01*
X488877Y240279D01*
X488182Y240418D01*
X487487Y240279D01*
X486898Y239886D01*
X486504Y239297D01*
X486366Y238601D01*
X486504Y237907D01*
X486898Y237317D01*
X487487Y236924D01*
X488182Y236786D01*
X488877Y236924D01*
X489466Y237317D01*
X489689Y237652D01*
X496317D01*
Y236509D01*
X496507Y236050D01*
X496966Y235860D01*
X502675D01*
X503134Y236050D01*
X503324Y236509D01*
Y241037D01*
X503134Y241496D01*
X502675Y241687D01*
D02*
G37*
G36*
X522425Y249642D02*
X519142D01*
X515858D01*
Y247287D01*
X515936Y246897D01*
X516157Y246567D01*
X516241Y246510D01*
X516242Y246316D01*
X516123Y245988D01*
X515854Y245934D01*
X515523Y245713D01*
X515302Y245382D01*
X515225Y244992D01*
Y243228D01*
X519098D01*
Y242728D01*
X519598D01*
Y239445D01*
X521953D01*
X522343Y239523D01*
X522674Y239744D01*
X522895Y240074D01*
X522972Y240465D01*
Y241607D01*
X523725D01*
Y240465D01*
X523802Y240074D01*
X524023Y239744D01*
X524354Y239523D01*
X524744Y239445D01*
X527098D01*
Y242728D01*
Y246012D01*
X524744D01*
X524354Y245934D01*
X524023Y245713D01*
X523802Y245382D01*
X523725Y244992D01*
Y243850D01*
X522972D01*
Y244992D01*
X522895Y245382D01*
X522674Y245713D01*
X522343Y245934D01*
X522140Y245974D01*
X522022Y246496D01*
X522126Y246567D01*
X522347Y246897D01*
X522425Y247287D01*
Y249642D01*
D02*
G37*
G36*
X530453Y246012D02*
X528098D01*
Y242728D01*
Y239445D01*
X530453D01*
X530843Y239523D01*
X531174Y239744D01*
X531395Y240074D01*
X531472Y240465D01*
Y241607D01*
X532225D01*
Y240378D01*
X532302Y239988D01*
X532523Y239657D01*
X532854Y239436D01*
X533244Y239358D01*
X535598D01*
Y242642D01*
Y245925D01*
X533244D01*
X532854Y245848D01*
X532523Y245626D01*
X532302Y245296D01*
X532225Y244905D01*
Y243850D01*
X531472D01*
Y244992D01*
X531395Y245382D01*
X531174Y245713D01*
X530843Y245934D01*
X530453Y246012D01*
D02*
G37*
G36*
X550976Y293376D02*
X549352D01*
X549422Y293025D01*
X549904Y292304D01*
X550625Y291822D01*
X550976Y291752D01*
Y293376D01*
D02*
G37*
G36*
X260500Y336124D02*
Y334500D01*
X262124D01*
X262055Y334851D01*
X261573Y335573D01*
X260851Y336055D01*
X260500Y336124D01*
D02*
G37*
G36*
X259500D02*
X259149Y336055D01*
X258428Y335573D01*
X257945Y334851D01*
X257876Y334500D01*
X259500D01*
Y336124D01*
D02*
G37*
G36*
X741774Y335850D02*
X740150D01*
Y334226D01*
X740501Y334296D01*
X741222Y334778D01*
X741704Y335499D01*
X741774Y335850D01*
D02*
G37*
G36*
X161000Y337124D02*
X160649Y337055D01*
X159927Y336573D01*
X159446Y335851D01*
X159376Y335500D01*
X161000D01*
Y337124D01*
D02*
G37*
G36*
X356500D02*
Y335500D01*
X358124D01*
X358055Y335851D01*
X357573Y336573D01*
X356851Y337055D01*
X356500Y337124D01*
D02*
G37*
G36*
X355500D02*
X355149Y337055D01*
X354428Y336573D01*
X353945Y335851D01*
X353876Y335500D01*
X355500D01*
Y337124D01*
D02*
G37*
G36*
X162000D02*
Y335500D01*
X163624D01*
X163555Y335851D01*
X163073Y336573D01*
X162351Y337055D01*
X162000Y337124D01*
D02*
G37*
G36*
X641500Y335000D02*
X639876D01*
X639945Y334649D01*
X640427Y333927D01*
X641149Y333445D01*
X641500Y333376D01*
Y335000D01*
D02*
G37*
G36*
X548124D02*
X546500D01*
Y333376D01*
X546851Y333445D01*
X547573Y333927D01*
X548055Y334649D01*
X548124Y335000D01*
D02*
G37*
G36*
X545500D02*
X543876D01*
X543945Y334649D01*
X544427Y333927D01*
X545149Y333445D01*
X545500Y333376D01*
Y335000D01*
D02*
G37*
G36*
X644124D02*
X642500D01*
Y333376D01*
X642851Y333445D01*
X643573Y333927D01*
X644055Y334649D01*
X644124Y335000D01*
D02*
G37*
G36*
X739150Y335850D02*
X737525D01*
X737595Y335499D01*
X738077Y334778D01*
X738799Y334296D01*
X739150Y334226D01*
Y335850D01*
D02*
G37*
G36*
X838124Y335000D02*
X836500D01*
Y333376D01*
X836851Y333445D01*
X837572Y333927D01*
X838055Y334649D01*
X838124Y335000D01*
D02*
G37*
G36*
X835500D02*
X833876D01*
X833945Y334649D01*
X834428Y333927D01*
X835149Y333445D01*
X835500Y333376D01*
Y335000D01*
D02*
G37*
G36*
X932500Y337124D02*
X932149Y337055D01*
X931427Y336573D01*
X930945Y335851D01*
X930876Y335500D01*
X932500D01*
Y337124D01*
D02*
G37*
G36*
X835500Y337624D02*
X835149Y337555D01*
X834428Y337072D01*
X833945Y336351D01*
X833876Y336000D01*
X835500D01*
Y337624D01*
D02*
G37*
G36*
X642500D02*
Y336000D01*
X644124D01*
X644055Y336351D01*
X643573Y337072D01*
X642851Y337555D01*
X642500Y337624D01*
D02*
G37*
G36*
X641500D02*
X641149Y337555D01*
X640427Y337072D01*
X639945Y336351D01*
X639876Y336000D01*
X641500D01*
Y337624D01*
D02*
G37*
G36*
X836500D02*
Y336000D01*
X838124D01*
X838055Y336351D01*
X837572Y337072D01*
X836851Y337555D01*
X836500Y337624D01*
D02*
G37*
G36*
X463945Y362903D02*
X463945Y362903D01*
X439732D01*
X439732Y362903D01*
X439303Y362817D01*
X438939Y362574D01*
X438939Y362574D01*
X432207Y355842D01*
X431964Y355478D01*
X431957Y355445D01*
X431716Y355284D01*
X431322Y354695D01*
X431184Y354000D01*
X431322Y353305D01*
X431716Y352716D01*
X432305Y352322D01*
X433000Y352184D01*
X433695Y352322D01*
X434284Y352716D01*
X434321Y352771D01*
X434821Y352620D01*
Y312681D01*
X434805Y312678D01*
X434216Y312284D01*
X433822Y311695D01*
X433684Y311000D01*
X433822Y310305D01*
X434216Y309716D01*
X434805Y309322D01*
X435500Y309184D01*
X436195Y309322D01*
X436784Y309716D01*
X436979Y310007D01*
X437179Y310207D01*
X437179Y310207D01*
X437422Y310571D01*
X437507Y311000D01*
X437422Y311429D01*
X437179Y311793D01*
X437064Y311869D01*
Y353489D01*
X437577Y353832D01*
X437971Y354421D01*
X438109Y355116D01*
X437971Y355811D01*
X437577Y356400D01*
X437018Y356774D01*
X436943Y356857D01*
X436815Y357278D01*
X438515Y358978D01*
X438936Y358851D01*
X439019Y358775D01*
X439378Y358238D01*
Y317393D01*
X439216Y317284D01*
X438822Y316695D01*
X438684Y316000D01*
X438822Y315305D01*
X439216Y314716D01*
X439805Y314322D01*
X440500Y314184D01*
X441195Y314322D01*
X441784Y314716D01*
X442178Y315305D01*
X442316Y316000D01*
X442178Y316695D01*
X441784Y317284D01*
X441622Y317393D01*
Y357989D01*
X441961Y358216D01*
X442355Y358805D01*
X442493Y359500D01*
X442362Y360159D01*
X442368Y360272D01*
X442575Y360660D01*
X463480D01*
X517780Y306360D01*
X517650Y305798D01*
X517540Y305754D01*
X517322Y305764D01*
X516293Y306793D01*
X515929Y307036D01*
X515500Y307122D01*
X515500Y307121D01*
X493921D01*
X493654Y307622D01*
X493776Y307805D01*
X493914Y308500D01*
X493776Y309195D01*
X493383Y309784D01*
X493220Y309893D01*
Y326607D01*
X493383Y326716D01*
X493776Y327305D01*
X493914Y328000D01*
X493776Y328695D01*
X493383Y329284D01*
X492793Y329678D01*
X492098Y329816D01*
X491403Y329678D01*
X490814Y329284D01*
X490421Y328695D01*
X490282Y328000D01*
X490421Y327305D01*
X490814Y326716D01*
X490977Y326607D01*
Y309893D01*
X490814Y309784D01*
X490421Y309195D01*
X490282Y308500D01*
X490421Y307805D01*
X490543Y307622D01*
X490276Y307121D01*
X403191D01*
X354079Y356233D01*
X354028Y356490D01*
X353785Y356854D01*
X353785Y356854D01*
X352449Y358190D01*
X352085Y358433D01*
X351828Y358484D01*
X348238Y362074D01*
X347874Y362317D01*
X347445Y362403D01*
X347445Y362403D01*
X344882D01*
X344453Y362317D01*
X344089Y362074D01*
X344089Y362074D01*
X337707Y355692D01*
X337610Y355548D01*
X337216Y355284D01*
X336822Y354695D01*
X336684Y354000D01*
X336822Y353305D01*
X337216Y352716D01*
X337805Y352322D01*
X338500Y352184D01*
X339195Y352322D01*
X339784Y352716D01*
X340115Y353210D01*
X340515Y353340D01*
X340698Y353359D01*
X340821Y353250D01*
Y312854D01*
X340716Y312784D01*
X340322Y312195D01*
X340184Y311500D01*
X340322Y310805D01*
X340716Y310216D01*
X341305Y309822D01*
X342000Y309684D01*
X342695Y309822D01*
X343284Y310216D01*
X343678Y310805D01*
X343816Y311500D01*
X343678Y312195D01*
X343284Y312784D01*
X343064Y312931D01*
Y353723D01*
X343227Y353832D01*
X343620Y354421D01*
X343759Y355116D01*
X343620Y355811D01*
X343227Y356400D01*
X342668Y356774D01*
X342592Y356857D01*
X342465Y357278D01*
X344219Y359033D01*
X344719Y358825D01*
X344822Y358305D01*
X345216Y357716D01*
X345378Y357607D01*
Y316779D01*
X345322Y316695D01*
X345184Y316000D01*
X345322Y315305D01*
X345716Y314716D01*
X346305Y314322D01*
X347000Y314184D01*
X347695Y314322D01*
X348284Y314716D01*
X348678Y315305D01*
X348816Y316000D01*
X348678Y316695D01*
X348284Y317284D01*
X347695Y317678D01*
X347621Y317692D01*
Y357535D01*
X347793Y357707D01*
X347793Y357707D01*
X348036Y358071D01*
X348042Y358103D01*
X348158Y358275D01*
X348241Y358350D01*
X348662Y358478D01*
X349899Y357241D01*
X349790Y356643D01*
X349427Y356400D01*
X349033Y355811D01*
X348895Y355116D01*
X349033Y354421D01*
X349427Y353832D01*
X349589Y353723D01*
Y321595D01*
X349322Y321195D01*
X349184Y320500D01*
X349322Y319805D01*
X349716Y319216D01*
X350305Y318822D01*
X351000Y318684D01*
X351695Y318822D01*
X352284Y319216D01*
X352678Y319805D01*
X352816Y320500D01*
X352678Y321195D01*
X352284Y321784D01*
X351832Y322086D01*
Y353723D01*
X351995Y353832D01*
X352238Y354195D01*
X352836Y354304D01*
X401933Y305207D01*
X401933Y305207D01*
X402061Y305121D01*
X401909Y304622D01*
X308965D01*
X252793Y360793D01*
X252429Y361036D01*
X252000Y361122D01*
X252000Y361122D01*
X251844D01*
X251551Y361317D01*
X251122Y361403D01*
X251122Y361403D01*
X248781D01*
X248781Y361403D01*
X248352Y361317D01*
X247988Y361074D01*
X247988Y361074D01*
X242692Y355778D01*
X242500Y355816D01*
X241805Y355678D01*
X241216Y355284D01*
X240822Y354695D01*
X240684Y354000D01*
X240822Y353305D01*
X241216Y352716D01*
X241805Y352322D01*
X242500Y352184D01*
X243195Y352322D01*
X243724Y352676D01*
X243787Y352715D01*
X244319Y352616D01*
X244509Y352332D01*
X244879Y352085D01*
Y312893D01*
X244716Y312784D01*
X244322Y312195D01*
X244184Y311500D01*
X244322Y310805D01*
X244716Y310216D01*
X245305Y309822D01*
X246000Y309684D01*
X246695Y309822D01*
X247284Y310216D01*
X247678Y310805D01*
X247816Y311500D01*
X247678Y312195D01*
X247284Y312784D01*
X247122Y312893D01*
Y352398D01*
X247471Y352921D01*
X247609Y353616D01*
X247471Y354311D01*
X247077Y354900D01*
X246488Y355294D01*
X246153Y355360D01*
X245989Y355903D01*
X247890Y357804D01*
X248433Y357640D01*
X248499Y357305D01*
X248893Y356716D01*
X248901Y356711D01*
X248964Y356394D01*
X249207Y356030D01*
X249378Y355858D01*
Y317293D01*
X249216Y317184D01*
X248822Y316595D01*
X248684Y315900D01*
X248822Y315205D01*
X249216Y314616D01*
X249805Y314222D01*
X250500Y314084D01*
X251195Y314222D01*
X251784Y314616D01*
X252178Y315205D01*
X252316Y315900D01*
X252178Y316595D01*
X251784Y317184D01*
X251622Y317293D01*
Y356323D01*
X251622Y356323D01*
X251536Y356752D01*
X251511Y356790D01*
X251855Y357305D01*
X251946Y357761D01*
X252477Y357937D01*
X254499Y355915D01*
X254322Y355384D01*
X253866Y355294D01*
X253277Y354900D01*
X252884Y354311D01*
X252745Y353616D01*
X252884Y352921D01*
X253277Y352332D01*
X253379Y352264D01*
Y321893D01*
X253216Y321784D01*
X252822Y321195D01*
X252684Y320500D01*
X252822Y319805D01*
X253216Y319216D01*
X253805Y318822D01*
X254500Y318684D01*
X255195Y318822D01*
X255784Y319216D01*
X256178Y319805D01*
X256316Y320500D01*
X256178Y321195D01*
X255784Y321784D01*
X255622Y321893D01*
Y352182D01*
X255845Y352332D01*
X256239Y352921D01*
X256330Y353377D01*
X256861Y353553D01*
X307707Y302707D01*
X307707Y302707D01*
X307835Y302622D01*
X307683Y302121D01*
X250465D01*
X190793Y361793D01*
X190429Y362036D01*
X190000Y362122D01*
X190000Y362122D01*
X150000D01*
X150000Y362122D01*
X149571Y362036D01*
X149207Y361793D01*
X149207Y361793D01*
X143207Y355793D01*
X142964Y355429D01*
X142878Y355000D01*
X142878Y355000D01*
Y354893D01*
X142716Y354784D01*
X142322Y354195D01*
X142184Y353500D01*
X142322Y352805D01*
X142716Y352216D01*
X143305Y351822D01*
X144000Y351684D01*
X144695Y351822D01*
X145284Y352216D01*
X145626Y352728D01*
X146155Y352837D01*
X146159Y352832D01*
X146466Y352627D01*
X146707Y352266D01*
X146878Y352094D01*
Y312893D01*
X146716Y312784D01*
X146322Y312195D01*
X146184Y311500D01*
X146322Y310805D01*
X146716Y310216D01*
X147305Y309822D01*
X148000Y309684D01*
X148695Y309822D01*
X149284Y310216D01*
X149678Y310805D01*
X149816Y311500D01*
X149678Y312195D01*
X149284Y312784D01*
X149122Y312893D01*
Y352559D01*
X149122Y352559D01*
X149036Y352988D01*
X148989Y353059D01*
X149036Y353130D01*
X149083Y353365D01*
X149120Y353421D01*
X149259Y354116D01*
X149120Y354811D01*
X148727Y355400D01*
X148138Y355794D01*
X147443Y355932D01*
X147171Y355878D01*
X146925Y356339D01*
X149604Y359018D01*
X150065Y358772D01*
X150011Y358500D01*
X150114Y357981D01*
X149964Y357756D01*
X149878Y357327D01*
X149964Y356898D01*
X150207Y356534D01*
X150878Y355862D01*
Y317393D01*
X150716Y317284D01*
X150322Y316695D01*
X150184Y316000D01*
X150322Y315305D01*
X150716Y314716D01*
X151305Y314322D01*
X152000Y314184D01*
X152695Y314322D01*
X153284Y314716D01*
X153678Y315305D01*
X153816Y316000D01*
X153678Y316695D01*
X153284Y317284D01*
X153122Y317393D01*
Y356327D01*
X153036Y356756D01*
X152847Y357039D01*
X153111Y357216D01*
X153505Y357805D01*
X153643Y358500D01*
X153505Y359195D01*
X153382Y359379D01*
X153649Y359878D01*
X189535D01*
X249207Y300207D01*
X249207Y300207D01*
X249571Y299964D01*
X250000Y299879D01*
X507693D01*
X507844Y299378D01*
X507742Y299310D01*
X507348Y298721D01*
X507210Y298026D01*
X507348Y297331D01*
X507742Y296742D01*
X507904Y296633D01*
Y289711D01*
X507815Y289496D01*
Y283787D01*
X508005Y283328D01*
X508465Y283138D01*
X512992D01*
X513451Y283328D01*
X513642Y283787D01*
Y289496D01*
X513451Y289955D01*
X512992Y290145D01*
X510147D01*
Y296633D01*
X510310Y296742D01*
X510704Y297331D01*
X510842Y298026D01*
X510704Y298721D01*
X510310Y299310D01*
X510207Y299378D01*
X510359Y299879D01*
X511035D01*
X511722Y299192D01*
X511684Y299000D01*
X511822Y298305D01*
X512216Y297716D01*
X512805Y297322D01*
X513500Y297184D01*
X514195Y297322D01*
X514784Y297716D01*
X515178Y298305D01*
X515301Y298923D01*
X515485Y299052D01*
X515797Y299147D01*
X516071Y298964D01*
X516500Y298879D01*
X516929Y298964D01*
X517293Y299207D01*
X517511Y299534D01*
X517784Y299716D01*
X518178Y300305D01*
X518316Y301000D01*
X518178Y301695D01*
X518178Y301695D01*
X518420Y302116D01*
X518850Y302161D01*
X519164Y301779D01*
X519097Y301445D01*
X519097Y301445D01*
Y294384D01*
X518965Y293719D01*
X519103Y293024D01*
X519497Y292435D01*
X520086Y292041D01*
X520781Y291903D01*
X521476Y292041D01*
X522065Y292435D01*
X522459Y293024D01*
X522597Y293719D01*
X522459Y294414D01*
X522065Y295003D01*
X521476Y295397D01*
X521340Y295424D01*
Y298602D01*
X521728Y298810D01*
X521840Y298815D01*
X522500Y298684D01*
X522734Y298730D01*
X522929Y298259D01*
X522816Y298184D01*
X522422Y297595D01*
X522284Y296900D01*
X522422Y296205D01*
X522816Y295616D01*
X523405Y295222D01*
X524100Y295084D01*
X524795Y295222D01*
X525384Y295616D01*
X525778Y296205D01*
X525916Y296900D01*
X525842Y297274D01*
X525903Y297581D01*
X525903Y297581D01*
Y300909D01*
X526289Y301226D01*
X526500Y301184D01*
X526879Y301259D01*
X527180Y300809D01*
X527103Y300695D01*
X526965Y300000D01*
X527103Y299305D01*
X527497Y298716D01*
X528086Y298322D01*
X528328Y298274D01*
X528724Y297702D01*
X528684Y297500D01*
X528822Y296805D01*
X529216Y296216D01*
X529805Y295822D01*
X530500Y295684D01*
X531195Y295822D01*
X531224Y295842D01*
X531674Y295541D01*
X531666Y295500D01*
X531804Y294805D01*
X532198Y294216D01*
X532787Y293822D01*
X533482Y293684D01*
X534177Y293822D01*
X534766Y294216D01*
X535160Y294805D01*
X535206Y295036D01*
X543830D01*
X544097Y294536D01*
X543964Y294337D01*
X543826Y293642D01*
X543964Y292947D01*
X544358Y292358D01*
X544947Y291964D01*
X545642Y291826D01*
X546250Y291947D01*
X550064Y288134D01*
Y276146D01*
X548921D01*
X548462Y275955D01*
X548272Y275496D01*
Y269787D01*
X548462Y269328D01*
X548921Y269138D01*
X550064D01*
Y267145D01*
X548921D01*
X548462Y266955D01*
X548272Y266496D01*
Y260787D01*
X548462Y260328D01*
X548921Y260138D01*
X550064D01*
Y258646D01*
X548921D01*
X548462Y258455D01*
X548272Y257996D01*
Y252287D01*
X548462Y251828D01*
X548921Y251638D01*
X550064D01*
Y250645D01*
X548921D01*
X548462Y250455D01*
X548272Y249996D01*
Y244287D01*
X548462Y243828D01*
X548921Y243638D01*
X550064D01*
Y242693D01*
X544047Y236677D01*
X539602D01*
Y237819D01*
X539412Y238278D01*
X538953Y238468D01*
X533244D01*
X532785Y238278D01*
X532595Y237819D01*
Y236763D01*
X531102D01*
Y237906D01*
X530912Y238365D01*
X530453Y238555D01*
X524744D01*
X524285Y238365D01*
X524095Y237906D01*
Y236763D01*
X522602D01*
Y237906D01*
X522412Y238365D01*
X521953Y238555D01*
X516771D01*
X516381Y238945D01*
X516588Y239445D01*
X518598D01*
Y242228D01*
X515225D01*
Y240809D01*
X514724Y240602D01*
X513177Y242150D01*
Y246638D01*
X514319D01*
X514778Y246828D01*
X514968Y247287D01*
Y252996D01*
X514778Y253455D01*
X514319Y253645D01*
X513177D01*
Y255638D01*
X514319D01*
X514778Y255828D01*
X514968Y256287D01*
Y261996D01*
X514778Y262455D01*
X514319Y262646D01*
X513220D01*
Y264638D01*
X514362D01*
X514821Y264828D01*
X515012Y265287D01*
Y270996D01*
X514821Y271455D01*
X514362Y271645D01*
X513220D01*
Y276220D01*
X514763Y277763D01*
X515225Y277572D01*
Y277098D01*
X518598D01*
Y279882D01*
X517535D01*
X517343Y280344D01*
X517771Y280772D01*
X521953D01*
X522412Y280962D01*
X522602Y281421D01*
Y283064D01*
X524095D01*
Y281921D01*
X524285Y281462D01*
X524744Y281272D01*
X530453D01*
X530912Y281462D01*
X531102Y281921D01*
Y283064D01*
X532595D01*
Y281921D01*
X532785Y281462D01*
X533244Y281272D01*
X538953D01*
X539412Y281462D01*
X539602Y281921D01*
Y286449D01*
X539412Y286908D01*
X538953Y287098D01*
X533244D01*
X532785Y286908D01*
X532595Y286449D01*
Y285307D01*
X531102D01*
Y286449D01*
X530912Y286908D01*
X530453Y287098D01*
X524744D01*
X524285Y286908D01*
X524095Y286449D01*
Y285307D01*
X522602D01*
Y285949D01*
X522412Y286408D01*
X521953Y286598D01*
X516244D01*
X515785Y286408D01*
X515595Y285949D01*
Y281767D01*
X511305Y277478D01*
X511062Y277114D01*
X510977Y276685D01*
X510977Y276685D01*
Y271645D01*
X510181D01*
X493876Y287950D01*
X493914Y288142D01*
X493776Y288837D01*
X493383Y289426D01*
X492793Y289820D01*
X492098Y289958D01*
X491403Y289820D01*
X490814Y289426D01*
X490421Y288837D01*
X490282Y288142D01*
X490421Y287447D01*
X490814Y286858D01*
X491403Y286464D01*
X492098Y286326D01*
X492290Y286364D01*
X509185Y269469D01*
Y265287D01*
X509375Y264828D01*
X509835Y264638D01*
X510977D01*
Y262646D01*
X509791D01*
X509332Y262455D01*
X509142Y261996D01*
Y256287D01*
X509332Y255828D01*
X509791Y255638D01*
X510934D01*
Y253645D01*
X509791D01*
X509332Y253455D01*
X509142Y252996D01*
Y247287D01*
X509332Y246828D01*
X509791Y246638D01*
X510934D01*
Y241685D01*
X510934Y241685D01*
X511019Y241256D01*
X511262Y240892D01*
X514929Y237225D01*
X514738Y236763D01*
X514142D01*
X513713Y236678D01*
X513349Y236435D01*
X513349Y236435D01*
X504177Y227263D01*
X492534D01*
X492426Y227426D01*
X491837Y227819D01*
X491142Y227958D01*
X490447Y227819D01*
X489858Y227426D01*
X489464Y226837D01*
X489326Y226142D01*
X489464Y225447D01*
X489858Y224858D01*
X490447Y224464D01*
X491142Y224326D01*
X491837Y224464D01*
X492426Y224858D01*
X492534Y225020D01*
X504642D01*
X504642Y225020D01*
X505071Y225106D01*
X505435Y225349D01*
X514606Y234520D01*
X515595D01*
Y233378D01*
X515785Y232919D01*
X516244Y232729D01*
X520426D01*
X523520Y229634D01*
Y217534D01*
X523358Y217426D01*
X522964Y216837D01*
X522826Y216142D01*
X522964Y215447D01*
X523358Y214858D01*
X523947Y214464D01*
X524642Y214326D01*
X525337Y214464D01*
X525926Y214858D01*
X526320Y215447D01*
X526458Y216142D01*
X526320Y216837D01*
X525926Y217426D01*
X525763Y217534D01*
Y230098D01*
X525763Y230098D01*
X525678Y230528D01*
X525435Y230891D01*
X522602Y233724D01*
Y234520D01*
X524095D01*
Y233378D01*
X524285Y232919D01*
X524744Y232729D01*
X530453D01*
X530912Y232919D01*
X531102Y233378D01*
Y234520D01*
X532595D01*
Y233291D01*
X532785Y232832D01*
X533244Y232642D01*
X538953D01*
X539412Y232832D01*
X539602Y233291D01*
Y234434D01*
X544512D01*
X544512Y234434D01*
X544941Y234519D01*
X545305Y234762D01*
X551185Y240642D01*
X565979Y225849D01*
X565979Y225849D01*
X566059Y225795D01*
X566044Y225756D01*
Y220575D01*
X565724Y220096D01*
X565586Y219402D01*
X565724Y218707D01*
X566117Y218117D01*
X566707Y217724D01*
X567402Y217586D01*
X568096Y217724D01*
X568686Y218117D01*
X569079Y218707D01*
X569218Y219402D01*
X569376Y219595D01*
X570827D01*
X571286Y219785D01*
X571476Y220244D01*
Y225756D01*
X571286Y226215D01*
X570827Y226405D01*
X568523D01*
Y226642D01*
X568438Y227071D01*
X568195Y227435D01*
X567831Y227678D01*
X567402Y227763D01*
X567236D01*
X552307Y242693D01*
Y243638D01*
X553449D01*
X553908Y243828D01*
X554098Y244287D01*
Y246020D01*
X556894D01*
X564222Y238692D01*
X564184Y238500D01*
X564322Y237805D01*
X564716Y237216D01*
X565305Y236822D01*
X566000Y236684D01*
X566695Y236822D01*
X567284Y237216D01*
X567678Y237805D01*
X567747Y238154D01*
X568142Y238418D01*
X568993Y238587D01*
X569714Y239069D01*
X570196Y239791D01*
X570266Y240142D01*
X568142D01*
Y240642D01*
X567642D01*
Y242766D01*
X567291Y242696D01*
X566569Y242214D01*
X566087Y241493D01*
X565957Y240837D01*
X565450Y240640D01*
X565447Y240640D01*
X558151Y247935D01*
X557788Y248178D01*
X557358Y248263D01*
X557358Y248263D01*
X554098D01*
Y249996D01*
X553908Y250455D01*
X553449Y250645D01*
X552307D01*
Y251638D01*
X553449D01*
X553621Y251709D01*
X564277D01*
X564385Y251547D01*
X564974Y251153D01*
X565669Y251015D01*
X566364Y251153D01*
X566953Y251547D01*
X567347Y252136D01*
X567485Y252831D01*
X567347Y253526D01*
X566953Y254115D01*
X566364Y254508D01*
X565669Y254647D01*
X564974Y254508D01*
X564385Y254115D01*
X564277Y253952D01*
X554098D01*
Y257996D01*
X553908Y258455D01*
X553449Y258646D01*
X552307D01*
Y260138D01*
X553449D01*
X553908Y260328D01*
X554098Y260787D01*
Y266496D01*
X553908Y266955D01*
X553449Y267145D01*
X552307D01*
Y269138D01*
X553103D01*
X556534Y265707D01*
X556534Y265707D01*
X556898Y265464D01*
X557327Y265378D01*
X564607D01*
X564716Y265216D01*
X565305Y264822D01*
X566000Y264684D01*
X566695Y264822D01*
X567284Y265216D01*
X567678Y265805D01*
X567816Y266500D01*
X567678Y267195D01*
X567284Y267784D01*
X566695Y268178D01*
X566440Y268229D01*
X566489Y268728D01*
X570496D01*
X570955Y268919D01*
X571145Y269378D01*
Y270520D01*
X573749D01*
X573858Y270358D01*
X574447Y269964D01*
X575142Y269826D01*
X575837Y269964D01*
X576426Y270358D01*
X576820Y270947D01*
X576958Y271642D01*
X576820Y272337D01*
X576426Y272926D01*
X575837Y273320D01*
X575142Y273458D01*
X574447Y273320D01*
X573858Y272926D01*
X573749Y272763D01*
X571145D01*
Y273905D01*
X570955Y274365D01*
X570496Y274555D01*
X564787D01*
X564328Y274365D01*
X564138Y273905D01*
Y272220D01*
X563145D01*
Y273362D01*
X562955Y273821D01*
X562496Y274012D01*
X556787D01*
X556328Y273821D01*
X556138Y273362D01*
Y269928D01*
X555676Y269737D01*
X554098Y271315D01*
Y275496D01*
X553908Y275955D01*
X553449Y276146D01*
X552307D01*
Y288598D01*
X552307Y288598D01*
X552221Y289028D01*
X551978Y289391D01*
X551978Y289391D01*
X547391Y293979D01*
X547320Y294337D01*
X547186Y294536D01*
X547454Y295036D01*
X549072D01*
X549384Y294536D01*
X549352Y294376D01*
X553601D01*
X553569Y294536D01*
X553880Y295036D01*
X907157D01*
X907158Y295036D01*
X907587Y295121D01*
X907950Y295364D01*
X908558Y295972D01*
X908571Y295964D01*
X909000Y295878D01*
X909429Y295964D01*
X909793Y296207D01*
X966465Y352878D01*
X1009607D01*
X1009716Y352716D01*
X1010305Y352322D01*
X1011000Y352184D01*
X1011695Y352322D01*
X1012284Y352716D01*
X1012678Y353305D01*
X1012811Y353976D01*
X1012890Y354023D01*
X1013296Y354151D01*
X1013509Y353832D01*
X1013672Y353723D01*
Y312089D01*
X1013216Y311784D01*
X1012822Y311195D01*
X1012684Y310500D01*
X1012822Y309805D01*
X1013216Y309216D01*
X1013805Y308822D01*
X1014500Y308684D01*
X1015195Y308822D01*
X1015784Y309216D01*
X1016178Y309805D01*
X1016316Y310500D01*
X1016178Y311195D01*
X1015915Y311589D01*
Y353723D01*
X1016077Y353832D01*
X1016471Y354421D01*
X1016609Y355116D01*
X1016471Y355811D01*
X1016077Y356400D01*
X1015488Y356794D01*
X1014793Y356932D01*
X1014098Y356794D01*
X1013509Y356400D01*
X1013115Y355811D01*
X1012982Y355140D01*
X1012903Y355093D01*
X1012497Y354965D01*
X1012284Y355284D01*
X1011695Y355678D01*
X1011000Y355816D01*
X1010305Y355678D01*
X1009716Y355284D01*
X1009607Y355121D01*
X966000D01*
X965571Y355036D01*
X965207Y354793D01*
X965207Y354793D01*
X920277Y309863D01*
X919888Y310182D01*
X919971Y310305D01*
X920109Y311000D01*
X919971Y311695D01*
X919577Y312284D01*
X919415Y312393D01*
Y353723D01*
X919577Y353832D01*
X919971Y354421D01*
X920109Y355116D01*
X919971Y355811D01*
X919577Y356400D01*
X918988Y356794D01*
X918293Y356932D01*
X917598Y356794D01*
X917009Y356400D01*
X916615Y355811D01*
X916477Y355116D01*
X916615Y354421D01*
X917009Y353832D01*
X917172Y353723D01*
Y312393D01*
X917009Y312284D01*
X916615Y311695D01*
X916477Y311000D01*
X916615Y310305D01*
X917009Y309716D01*
X917598Y309322D01*
X918293Y309184D01*
X918988Y309322D01*
X919112Y309405D01*
X919430Y309016D01*
X908942Y298528D01*
X908929Y298536D01*
X908500Y298622D01*
X908071Y298536D01*
X907707Y298293D01*
X906693Y297279D01*
X812720D01*
X812529Y297741D01*
X813322Y298535D01*
X813601Y298479D01*
X814030Y298565D01*
X814394Y298808D01*
X823037Y307451D01*
X823091D01*
X823091Y307451D01*
X823521Y307536D01*
X823884Y307779D01*
X869484Y353379D01*
X912107D01*
X912216Y353216D01*
X912805Y352822D01*
X913500Y352684D01*
X914195Y352822D01*
X914784Y353216D01*
X915178Y353805D01*
X915316Y354500D01*
X915178Y355195D01*
X914784Y355784D01*
X914195Y356178D01*
X913500Y356316D01*
X912805Y356178D01*
X912216Y355784D01*
X912107Y355622D01*
X869019D01*
X869019Y355622D01*
X868590Y355536D01*
X868226Y355293D01*
X833175Y320242D01*
X832714Y320488D01*
X832816Y321000D01*
X832678Y321695D01*
X832284Y322284D01*
X831695Y322678D01*
X831683Y322680D01*
Y353723D01*
X831845Y353832D01*
X832239Y354421D01*
X832377Y355116D01*
X832239Y355811D01*
X831845Y356400D01*
X831256Y356794D01*
X830561Y356932D01*
X829866Y356794D01*
X829277Y356400D01*
X828883Y355811D01*
X828745Y355116D01*
X828883Y354421D01*
X829277Y353832D01*
X829440Y353723D01*
Y321871D01*
X829322Y321695D01*
X829184Y321000D01*
X829322Y320305D01*
X829716Y319716D01*
X830305Y319322D01*
X831000Y319184D01*
X831512Y319286D01*
X831758Y318825D01*
X828799Y315866D01*
X828541Y315938D01*
X828301Y316075D01*
X828178Y316695D01*
X827784Y317284D01*
X827622Y317393D01*
Y358456D01*
X827855Y358805D01*
X827993Y359500D01*
X827855Y360195D01*
X827461Y360784D01*
X826872Y361178D01*
X826177Y361316D01*
X825482Y361178D01*
X824893Y360784D01*
X824499Y360195D01*
X824361Y359500D01*
X824499Y358805D01*
X824893Y358216D01*
X825378Y357892D01*
Y317393D01*
X825216Y317284D01*
X824822Y316695D01*
X824684Y316000D01*
X824822Y315305D01*
X825216Y314716D01*
X825805Y314322D01*
X826425Y314199D01*
X826562Y313959D01*
X826634Y313701D01*
X824308Y311375D01*
X823888Y311503D01*
X823804Y311578D01*
X823431Y312138D01*
X822915Y312482D01*
Y353723D01*
X823077Y353832D01*
X823471Y354421D01*
X823609Y355116D01*
X823471Y355811D01*
X823077Y356400D01*
X822488Y356794D01*
X821793Y356932D01*
X821098Y356794D01*
X820509Y356400D01*
X820115Y355811D01*
X819977Y355116D01*
X820115Y354421D01*
X820509Y353832D01*
X820672Y353723D01*
Y311852D01*
X820469Y311548D01*
X820331Y310853D01*
X820469Y310158D01*
X820862Y309569D01*
X821110Y309404D01*
X821174Y308760D01*
X813480Y301066D01*
X813202Y301122D01*
X812772Y301036D01*
X812409Y300793D01*
X812409Y300793D01*
X810518Y298903D01*
X719196D01*
X718989Y299403D01*
X721558Y301972D01*
X721571Y301964D01*
X722000Y301878D01*
X722429Y301964D01*
X722793Y302207D01*
X773965Y353379D01*
X816107D01*
X816216Y353216D01*
X816805Y352822D01*
X817500Y352684D01*
X818195Y352822D01*
X818784Y353216D01*
X819178Y353805D01*
X819316Y354500D01*
X819178Y355195D01*
X818784Y355784D01*
X818195Y356178D01*
X817500Y356316D01*
X816805Y356178D01*
X816216Y355784D01*
X816107Y355622D01*
X773500D01*
X773500Y355622D01*
X773071Y355536D01*
X772707Y355293D01*
X772707Y355293D01*
X728257Y310844D01*
X727715Y311008D01*
X727678Y311195D01*
X727284Y311784D01*
X726695Y312178D01*
X726584Y312200D01*
Y355223D01*
X726747Y355332D01*
X727140Y355921D01*
X727278Y356616D01*
X727140Y357311D01*
X726747Y357900D01*
X726157Y358294D01*
X725462Y358432D01*
X724767Y358294D01*
X724178Y357900D01*
X723785Y357311D01*
X723646Y356616D01*
X723785Y355921D01*
X724178Y355332D01*
X724341Y355223D01*
Y311223D01*
X724322Y311195D01*
X724184Y310500D01*
X724322Y309805D01*
X724716Y309216D01*
X725305Y308822D01*
X725492Y308785D01*
X725656Y308243D01*
X721942Y304528D01*
X721929Y304536D01*
X721500Y304622D01*
X721071Y304536D01*
X720707Y304293D01*
X720707Y304293D01*
X717535Y301121D01*
X624428D01*
X624277Y301622D01*
X624404Y301707D01*
X676576Y353878D01*
X719607D01*
X719716Y353716D01*
X720305Y353322D01*
X721000Y353184D01*
X721695Y353322D01*
X722284Y353716D01*
X722678Y354305D01*
X722816Y355000D01*
X722678Y355695D01*
X722284Y356284D01*
X721695Y356678D01*
X721000Y356816D01*
X720305Y356678D01*
X719716Y356284D01*
X719607Y356121D01*
X676111D01*
X675682Y356036D01*
X675318Y355793D01*
X675318Y355793D01*
X635276Y315751D01*
X634733Y315915D01*
X634678Y316195D01*
X634284Y316784D01*
X634122Y316893D01*
Y358721D01*
X634178Y358805D01*
X634316Y359500D01*
X634178Y360195D01*
X633784Y360784D01*
X633195Y361178D01*
X632500Y361316D01*
X631805Y361178D01*
X631216Y360784D01*
X630822Y360195D01*
X630684Y359500D01*
X630822Y358805D01*
X631216Y358216D01*
X631805Y357822D01*
X631878Y357808D01*
Y316893D01*
X631716Y316784D01*
X631322Y316195D01*
X631184Y315500D01*
X631322Y314805D01*
X631716Y314216D01*
X632305Y313822D01*
X632585Y313767D01*
X632749Y313224D01*
X630104Y310579D01*
X629684Y310707D01*
X629600Y310782D01*
X629227Y311341D01*
X629064Y311450D01*
Y354723D01*
X629227Y354832D01*
X629621Y355421D01*
X629759Y356116D01*
X629621Y356811D01*
X629227Y357400D01*
X628638Y357794D01*
X627943Y357932D01*
X627248Y357794D01*
X626659Y357400D01*
X626265Y356811D01*
X626212Y356544D01*
X626075Y356461D01*
X625666Y356363D01*
X625195Y356678D01*
X624500Y356816D01*
X623805Y356678D01*
X623216Y356284D01*
X622822Y355695D01*
X622684Y355000D01*
X622822Y354305D01*
X623216Y353716D01*
X623378Y353607D01*
Y335965D01*
X594035Y306622D01*
X575602D01*
X575536Y306810D01*
X575519Y307121D01*
X576034Y307466D01*
X576428Y308055D01*
X576566Y308750D01*
X576428Y309445D01*
X576034Y310034D01*
X575872Y310143D01*
Y329357D01*
X576034Y329466D01*
X576428Y330055D01*
X576566Y330750D01*
X576428Y331445D01*
X576034Y332034D01*
X575445Y332428D01*
X574750Y332566D01*
X574055Y332428D01*
X573466Y332034D01*
X573072Y331445D01*
X572934Y330750D01*
X573072Y330055D01*
X573466Y329466D01*
X573628Y329357D01*
Y310143D01*
X573466Y310034D01*
X573072Y309445D01*
X572934Y308750D01*
X573072Y308055D01*
X573466Y307466D01*
X573981Y307121D01*
X573964Y306810D01*
X573898Y306622D01*
X571322D01*
X571055Y307121D01*
X571178Y307305D01*
X571316Y308000D01*
X571178Y308695D01*
X570784Y309284D01*
X570622Y309393D01*
Y330107D01*
X570784Y330216D01*
X571178Y330805D01*
X571316Y331500D01*
X571178Y332195D01*
X570784Y332784D01*
X570195Y333178D01*
X569500Y333316D01*
X568805Y333178D01*
X568216Y332784D01*
X567822Y332195D01*
X567684Y331500D01*
X567822Y330805D01*
X568216Y330216D01*
X568378Y330107D01*
Y309393D01*
X568216Y309284D01*
X567822Y308695D01*
X567684Y308000D01*
X567822Y307305D01*
X567945Y307121D01*
X567678Y306622D01*
X545356D01*
X545089Y307121D01*
X545280Y307407D01*
X545418Y308102D01*
X545280Y308797D01*
X544886Y309386D01*
X544724Y309495D01*
Y314710D01*
X544886Y314818D01*
X545280Y315407D01*
X545418Y316102D01*
X545280Y316797D01*
X544886Y317387D01*
X544297Y317780D01*
X543602Y317918D01*
X542907Y317780D01*
X542318Y317387D01*
X541925Y316797D01*
X541786Y316102D01*
X541925Y315407D01*
X542318Y314818D01*
X542481Y314710D01*
Y309495D01*
X542318Y309386D01*
X541925Y308797D01*
X541786Y308102D01*
X541305Y308053D01*
X541178Y308695D01*
X540784Y309284D01*
X540622Y309393D01*
Y319208D01*
X541195Y319322D01*
X541784Y319716D01*
X542178Y320305D01*
X542316Y321000D01*
X542178Y321695D01*
X541784Y322284D01*
X541332Y322586D01*
Y354223D01*
X541495Y354332D01*
X541889Y354921D01*
X542027Y355616D01*
X541889Y356311D01*
X541495Y356900D01*
X540906Y357294D01*
X540211Y357432D01*
X539516Y357294D01*
X538927Y356900D01*
X538533Y356311D01*
X538395Y355616D01*
X538533Y354921D01*
X538927Y354332D01*
X539089Y354223D01*
Y322095D01*
X538822Y321695D01*
X538684Y321000D01*
X538722Y320808D01*
X538707Y320793D01*
X538464Y320429D01*
X538378Y320000D01*
X538378Y320000D01*
Y309393D01*
X538216Y309284D01*
X537822Y308695D01*
X537684Y308000D01*
X537822Y307305D01*
X537945Y307121D01*
X537678Y306622D01*
X524100D01*
X523622Y307036D01*
Y348035D01*
X527308Y351722D01*
X527500Y351684D01*
X528195Y351822D01*
X528784Y352216D01*
X529178Y352805D01*
X529316Y353500D01*
X529178Y354195D01*
X528784Y354784D01*
X528195Y355178D01*
X527500Y355316D01*
X526805Y355178D01*
X526216Y354784D01*
X525822Y354195D01*
X525684Y353500D01*
X525722Y353308D01*
X521707Y349293D01*
X521464Y348929D01*
X521378Y348500D01*
X521378Y348500D01*
Y306587D01*
X520917Y306396D01*
X464738Y362574D01*
X464374Y362817D01*
X463945Y362903D01*
D02*
G37*
G36*
X740150Y338475D02*
Y336850D01*
X741774D01*
X741704Y337201D01*
X741222Y337923D01*
X740501Y338405D01*
X740150Y338475D01*
D02*
G37*
G36*
X739150D02*
X738799Y338405D01*
X738077Y337923D01*
X737595Y337201D01*
X737525Y336850D01*
X739150D01*
Y338475D01*
D02*
G37*
G36*
X1029500Y337124D02*
Y335500D01*
X1031124D01*
X1031055Y335851D01*
X1030573Y336573D01*
X1029851Y337055D01*
X1029500Y337124D01*
D02*
G37*
G36*
X1028500D02*
X1028149Y337055D01*
X1027427Y336573D01*
X1026945Y335851D01*
X1026876Y335500D01*
X1028500D01*
Y337124D01*
D02*
G37*
G36*
X933500D02*
Y335500D01*
X935124D01*
X935055Y335851D01*
X934573Y336573D01*
X933851Y337055D01*
X933500Y337124D01*
D02*
G37*
G36*
X450000Y337624D02*
X449649Y337555D01*
X448927Y337072D01*
X448445Y336351D01*
X448376Y336000D01*
X450000D01*
Y337624D01*
D02*
G37*
G36*
X546500D02*
Y336000D01*
X548124D01*
X548055Y336351D01*
X547573Y337072D01*
X546851Y337555D01*
X546500Y337624D01*
D02*
G37*
G36*
X545500D02*
X545149Y337555D01*
X544427Y337072D01*
X543945Y336351D01*
X543876Y336000D01*
X545500D01*
Y337624D01*
D02*
G37*
G36*
X451000D02*
Y336000D01*
X452624D01*
X452555Y336351D01*
X452072Y337072D01*
X451351Y337555D01*
X451000Y337624D01*
D02*
G37*
G36*
X452624Y335000D02*
X451000D01*
Y333376D01*
X451351Y333445D01*
X452072Y333927D01*
X452555Y334649D01*
X452624Y335000D01*
D02*
G37*
G36*
X535827Y358316D02*
X535132Y358178D01*
X534543Y357784D01*
X534149Y357195D01*
X534011Y356500D01*
X534149Y355805D01*
X534543Y355216D01*
X534705Y355107D01*
Y317268D01*
X534322Y316695D01*
X534184Y316000D01*
X534322Y315305D01*
X534716Y314716D01*
X535305Y314322D01*
X536000Y314184D01*
X536695Y314322D01*
X537284Y314716D01*
X537678Y315305D01*
X537816Y316000D01*
X537678Y316695D01*
X537284Y317284D01*
X536948Y317508D01*
Y355107D01*
X537111Y355216D01*
X537505Y355805D01*
X537643Y356500D01*
X537505Y357195D01*
X537111Y357784D01*
X536522Y358178D01*
X535827Y358316D01*
D02*
G37*
G36*
X1019000Y360816D02*
X1018305Y360678D01*
X1017716Y360284D01*
X1017322Y359695D01*
X1017184Y359000D01*
X1017322Y358305D01*
X1017716Y357716D01*
X1018305Y357322D01*
X1018378Y357308D01*
Y316893D01*
X1018216Y316784D01*
X1017822Y316195D01*
X1017684Y315500D01*
X1017822Y314805D01*
X1018216Y314216D01*
X1018805Y313822D01*
X1019500Y313684D01*
X1020195Y313822D01*
X1020784Y314216D01*
X1021178Y314805D01*
X1021316Y315500D01*
X1021178Y316195D01*
X1020784Y316784D01*
X1020622Y316893D01*
Y358221D01*
X1020678Y358305D01*
X1020816Y359000D01*
X1020678Y359695D01*
X1020284Y360284D01*
X1019695Y360678D01*
X1019000Y360816D01*
D02*
G37*
G36*
X531443Y357432D02*
X530748Y357294D01*
X530159Y356900D01*
X529765Y356311D01*
X529627Y355616D01*
X529765Y354921D01*
X530159Y354332D01*
X530321Y354223D01*
Y312450D01*
X530159Y312341D01*
X529765Y311752D01*
X529627Y311057D01*
X529765Y310362D01*
X530159Y309773D01*
X530748Y309380D01*
X531443Y309241D01*
X532138Y309380D01*
X532727Y309773D01*
X533120Y310362D01*
X533259Y311057D01*
X533120Y311752D01*
X532727Y312341D01*
X532564Y312450D01*
Y354223D01*
X532727Y354332D01*
X533120Y354921D01*
X533259Y355616D01*
X533120Y356311D01*
X532727Y356900D01*
X532138Y357294D01*
X531443Y357432D01*
D02*
G37*
G36*
X730000Y362316D02*
X729305Y362178D01*
X728716Y361784D01*
X728322Y361195D01*
X728184Y360500D01*
X728322Y359805D01*
X728716Y359216D01*
X728878Y359107D01*
Y317393D01*
X728716Y317284D01*
X728322Y316695D01*
X728184Y316000D01*
X728322Y315305D01*
X728716Y314716D01*
X729305Y314322D01*
X730000Y314184D01*
X730695Y314322D01*
X731284Y314716D01*
X731678Y315305D01*
X731816Y316000D01*
X731678Y316695D01*
X731284Y317284D01*
X731122Y317393D01*
Y359107D01*
X731284Y359216D01*
X731678Y359805D01*
X731816Y360500D01*
X731678Y361195D01*
X731284Y361784D01*
X730695Y362178D01*
X730000Y362316D01*
D02*
G37*
G36*
X1023561Y356932D02*
X1022866Y356794D01*
X1022277Y356400D01*
X1021883Y355811D01*
X1021745Y355116D01*
X1021883Y354421D01*
X1022277Y353832D01*
X1022440Y353723D01*
Y322332D01*
X1022277Y322223D01*
X1021883Y321634D01*
X1021745Y320939D01*
X1021883Y320244D01*
X1022277Y319655D01*
X1022866Y319261D01*
X1023561Y319123D01*
X1024256Y319261D01*
X1024845Y319655D01*
X1025239Y320244D01*
X1025377Y320939D01*
X1025239Y321634D01*
X1024845Y322223D01*
X1024683Y322332D01*
Y353723D01*
X1024845Y353832D01*
X1025239Y354421D01*
X1025377Y355116D01*
X1025239Y355811D01*
X1024845Y356400D01*
X1024256Y356794D01*
X1023561Y356932D01*
D02*
G37*
G36*
X445061D02*
X444366Y356794D01*
X443777Y356400D01*
X443384Y355811D01*
X443245Y355116D01*
X443384Y354421D01*
X443589Y354113D01*
Y321595D01*
X443322Y321195D01*
X443184Y320500D01*
X443322Y319805D01*
X443716Y319216D01*
X444305Y318822D01*
X445000Y318684D01*
X445695Y318822D01*
X446284Y319216D01*
X446678Y319805D01*
X446816Y320500D01*
X446678Y321195D01*
X446284Y321784D01*
X445832Y322086D01*
Y353489D01*
X446345Y353832D01*
X446739Y354421D01*
X446877Y355116D01*
X446739Y355811D01*
X446345Y356400D01*
X445756Y356794D01*
X445061Y356932D01*
D02*
G37*
G36*
X922500Y360816D02*
X921805Y360678D01*
X921216Y360284D01*
X920822Y359695D01*
X920684Y359000D01*
X920822Y358305D01*
X921216Y357716D01*
X921378Y357607D01*
Y317393D01*
X921216Y317284D01*
X920822Y316695D01*
X920684Y316000D01*
X920822Y315305D01*
X921216Y314716D01*
X921805Y314322D01*
X922500Y314184D01*
X923195Y314322D01*
X923784Y314716D01*
X924178Y315305D01*
X924316Y316000D01*
X924178Y316695D01*
X923784Y317284D01*
X923622Y317393D01*
Y357607D01*
X923784Y357716D01*
X924178Y358305D01*
X924316Y359000D01*
X924178Y359695D01*
X923784Y360284D01*
X923195Y360678D01*
X922500Y360816D01*
D02*
G37*
G36*
X505142Y295766D02*
Y294142D01*
X506766D01*
X506696Y294493D01*
X506214Y295214D01*
X505493Y295696D01*
X505142Y295766D01*
D02*
G37*
G36*
X504142D02*
X503791Y295696D01*
X503069Y295214D01*
X502587Y294493D01*
X502517Y294142D01*
X504142D01*
Y295766D01*
D02*
G37*
G36*
X553601Y293376D02*
X551976D01*
Y291752D01*
X552327Y291822D01*
X553049Y292304D01*
X553531Y293025D01*
X553601Y293376D01*
D02*
G37*
G36*
X166500Y302500D02*
X164876D01*
X164945Y302149D01*
X165427Y301428D01*
X166149Y300945D01*
X166500Y300876D01*
Y302500D01*
D02*
G37*
G36*
X167500Y305124D02*
Y303500D01*
X169124D01*
X169054Y303851D01*
X168572Y304573D01*
X167851Y305055D01*
X167500Y305124D01*
D02*
G37*
G36*
X166500D02*
X166149Y305055D01*
X165427Y304573D01*
X164945Y303851D01*
X164876Y303500D01*
X166500D01*
Y305124D01*
D02*
G37*
G36*
X169124Y302500D02*
X167500D01*
Y300876D01*
X167851Y300945D01*
X168572Y301428D01*
X169054Y302149D01*
X169124Y302500D01*
D02*
G37*
G36*
X156211Y355932D02*
X155516Y355794D01*
X154927Y355400D01*
X154533Y354811D01*
X154395Y354116D01*
X154533Y353421D01*
X154878Y352904D01*
Y322393D01*
X154716Y322284D01*
X154322Y321695D01*
X154184Y321000D01*
X154322Y320305D01*
X154716Y319716D01*
X155305Y319322D01*
X156000Y319184D01*
X156695Y319322D01*
X157284Y319716D01*
X157678Y320305D01*
X157816Y321000D01*
X157678Y321695D01*
X157284Y322284D01*
X157122Y322393D01*
Y352582D01*
X157495Y352832D01*
X157889Y353421D01*
X158027Y354116D01*
X157889Y354811D01*
X157495Y355400D01*
X156906Y355794D01*
X156211Y355932D01*
D02*
G37*
G36*
X932500Y334500D02*
X930876D01*
X930945Y334149D01*
X931427Y333428D01*
X932149Y332945D01*
X932500Y332876D01*
Y334500D01*
D02*
G37*
G36*
X358124D02*
X356500D01*
Y332876D01*
X356851Y332945D01*
X357573Y333428D01*
X358055Y334149D01*
X358124Y334500D01*
D02*
G37*
G36*
X355500D02*
X353876D01*
X353945Y334149D01*
X354428Y333428D01*
X355149Y332945D01*
X355500Y332876D01*
Y334500D01*
D02*
G37*
G36*
X935124D02*
X933500D01*
Y332876D01*
X933851Y332945D01*
X934573Y333428D01*
X935055Y334149D01*
X935124Y334500D01*
D02*
G37*
G36*
X450000Y335000D02*
X448376D01*
X448445Y334649D01*
X448927Y333927D01*
X449649Y333445D01*
X450000Y333376D01*
Y335000D01*
D02*
G37*
G36*
X1031124Y334500D02*
X1029500D01*
Y332876D01*
X1029851Y332945D01*
X1030573Y333428D01*
X1031055Y334149D01*
X1031124Y334500D01*
D02*
G37*
G36*
X1028500D02*
X1026876D01*
X1026945Y334149D01*
X1027427Y333428D01*
X1028149Y332945D01*
X1028500Y332876D01*
Y334500D01*
D02*
G37*
G36*
X927061Y356932D02*
X926366Y356794D01*
X925777Y356400D01*
X925383Y355811D01*
X925245Y355116D01*
X925383Y354421D01*
X925777Y353832D01*
X925940Y353723D01*
Y322434D01*
X925716Y322284D01*
X925322Y321695D01*
X925184Y321000D01*
X925322Y320305D01*
X925716Y319716D01*
X926305Y319322D01*
X927000Y319184D01*
X927695Y319322D01*
X928284Y319716D01*
X928678Y320305D01*
X928816Y321000D01*
X928678Y321695D01*
X928284Y322284D01*
X928183Y322352D01*
Y353723D01*
X928345Y353832D01*
X928739Y354421D01*
X928877Y355116D01*
X928739Y355811D01*
X928345Y356400D01*
X927756Y356794D01*
X927061Y356932D01*
D02*
G37*
G36*
X734231Y358432D02*
X733536Y358294D01*
X732946Y357900D01*
X732553Y357311D01*
X732414Y356616D01*
X732553Y355921D01*
X732946Y355332D01*
X733109Y355223D01*
Y322124D01*
X732822Y321695D01*
X732684Y321000D01*
X732822Y320305D01*
X733216Y319716D01*
X733805Y319322D01*
X734500Y319184D01*
X735195Y319322D01*
X735784Y319716D01*
X736178Y320305D01*
X736316Y321000D01*
X736178Y321695D01*
X735784Y322284D01*
X735352Y322573D01*
Y355223D01*
X735515Y355332D01*
X735908Y355921D01*
X736047Y356616D01*
X735908Y357311D01*
X735515Y357900D01*
X734926Y358294D01*
X734231Y358432D01*
D02*
G37*
G36*
X637000Y357316D02*
X636305Y357178D01*
X635716Y356784D01*
X635322Y356195D01*
X635184Y355500D01*
X635322Y354805D01*
X635716Y354216D01*
X635878Y354107D01*
Y322393D01*
X635716Y322284D01*
X635322Y321695D01*
X635184Y321000D01*
X635322Y320305D01*
X635716Y319716D01*
X636305Y319322D01*
X637000Y319184D01*
X637695Y319322D01*
X638284Y319716D01*
X638678Y320305D01*
X638816Y321000D01*
X638678Y321695D01*
X638284Y322284D01*
X638122Y322393D01*
Y354107D01*
X638284Y354216D01*
X638678Y354805D01*
X638816Y355500D01*
X638678Y356195D01*
X638284Y356784D01*
X637695Y357178D01*
X637000Y357316D01*
D02*
G37*
G36*
X259500Y333500D02*
X257876D01*
X257945Y333149D01*
X258428Y332428D01*
X259149Y331945D01*
X259500Y331876D01*
Y333500D01*
D02*
G37*
G36*
X163624Y334500D02*
X162000D01*
Y332876D01*
X162351Y332945D01*
X163073Y333428D01*
X163555Y334149D01*
X163624Y334500D01*
D02*
G37*
G36*
X161000D02*
X159376D01*
X159446Y334149D01*
X159927Y333428D01*
X160649Y332945D01*
X161000Y332876D01*
Y334500D01*
D02*
G37*
G36*
X262124Y333500D02*
X260500D01*
Y331876D01*
X260851Y331945D01*
X261573Y332428D01*
X262055Y333149D01*
X262124Y333500D01*
D02*
G37*
%LPD*%
D11*
X568760Y223000D02*
D03*
X576240D02*
D03*
X116000Y271500D02*
D03*
X108520D02*
D03*
X122480Y291500D02*
D03*
X115000D02*
D03*
D18*
X551185Y272642D02*
D03*
X544098D02*
D03*
X510728Y286642D02*
D03*
X503642D02*
D03*
X551185Y263642D02*
D03*
X544098D02*
D03*
X551185Y255142D02*
D03*
X544098D02*
D03*
X551185Y247142D02*
D03*
X544098D02*
D03*
X512055Y250142D02*
D03*
X519142D02*
D03*
X512055Y259142D02*
D03*
X519142D02*
D03*
X512098Y268142D02*
D03*
X519185D02*
D03*
X1015413Y379500D02*
D03*
X1022500D02*
D03*
X918913D02*
D03*
X926000D02*
D03*
X822413Y380000D02*
D03*
X829500D02*
D03*
X726083Y380850D02*
D03*
X733169D02*
D03*
X628563Y380000D02*
D03*
X635650D02*
D03*
X532063D02*
D03*
X539150D02*
D03*
X436913D02*
D03*
X444000D02*
D03*
X342563Y379500D02*
D03*
X349650D02*
D03*
X246413Y378500D02*
D03*
X253500D02*
D03*
X148063Y379500D02*
D03*
X155150D02*
D03*
D19*
X527598Y284185D02*
D03*
Y277098D02*
D03*
X519098Y283685D02*
D03*
Y276598D02*
D03*
X536098Y284185D02*
D03*
Y277098D02*
D03*
X527598Y235642D02*
D03*
Y242728D02*
D03*
X536098Y235555D02*
D03*
Y242642D02*
D03*
X519098Y235642D02*
D03*
Y242728D02*
D03*
X559642Y278185D02*
D03*
Y271098D02*
D03*
X499821Y238773D02*
D03*
Y231687D02*
D03*
X567642Y278728D02*
D03*
Y271642D02*
D03*
X169000Y269500D02*
D03*
Y262413D02*
D03*
D21*
X574882Y223000D02*
Y226642D01*
Y223000D02*
X576240D01*
X567402Y219402D02*
Y226642D01*
X526500Y302500D02*
X623611D01*
X435943Y310557D02*
Y311000D01*
Y310557D02*
X436385Y311000D01*
X435943D02*
Y354116D01*
X147500Y353059D02*
X148000Y353559D01*
X140150Y372500D02*
X148063Y380413D01*
X238500Y371500D02*
X246413Y379413D01*
X334650Y372500D02*
X342563Y380413D01*
X429000Y373000D02*
X436913Y380913D01*
X524150Y373000D02*
X532063Y380913D01*
X620650Y373000D02*
X628563Y380913D01*
X718169Y373850D02*
X726083Y381764D01*
X911000Y372500D02*
X918913Y380413D01*
X814500Y373000D02*
X822413Y380913D01*
X1007500Y372500D02*
X1015413Y380413D01*
X350711Y320500D02*
Y355116D01*
X444711Y320500D02*
Y354116D01*
X254500Y353116D02*
X255000Y353616D01*
X830561Y321000D02*
Y355116D01*
X250000Y357823D02*
X250500Y357323D01*
X151000Y357327D02*
X152000Y358327D01*
X346500Y358000D02*
X347000Y358500D01*
X909000Y297000D02*
X966000Y354000D01*
X1011000D01*
X822572Y308572D02*
X823091D01*
X869019Y354500D01*
X913500D01*
X773500D02*
X817500D01*
X531443Y311057D02*
Y355616D01*
X676111Y355000D02*
X721000D01*
X725462Y311038D02*
Y356616D01*
X433000Y355049D02*
X439732Y361781D01*
X433000Y354000D02*
Y355049D01*
X515500Y306000D02*
X517500Y304000D01*
X402726Y306000D02*
X515500D01*
X352992Y355734D02*
X402726Y306000D01*
X352992Y355734D02*
Y356061D01*
X351656Y357397D02*
X352992Y356061D01*
X351329Y357397D02*
X351656D01*
X347445Y361281D02*
X351329Y357397D01*
X344882Y361281D02*
X347445D01*
X338500Y354899D02*
X344882Y361281D01*
X338500Y354000D02*
Y354899D01*
X515500Y301000D02*
X516500D01*
Y300000D02*
Y301000D01*
X513000Y303500D02*
X515500Y301000D01*
X511500D02*
X513500Y299000D01*
X250000Y301000D02*
X511500D01*
X308500Y303500D02*
X513000D01*
X252000Y360000D02*
X308500Y303500D01*
X251403Y360000D02*
X252000D01*
X251122Y360281D02*
X251403Y360000D01*
X248781Y360281D02*
X251122D01*
X242500Y354000D02*
X248781Y360281D01*
X190000Y361000D02*
X250000Y301000D01*
X150000Y361000D02*
X190000D01*
X574882Y226642D02*
X583642D01*
X509026Y288344D02*
X510728Y286642D01*
X509026Y288344D02*
Y298026D01*
X717500Y369000D02*
X814500D01*
X115000Y340350D02*
X143650Y369000D01*
X108520Y352000D02*
X131150Y379000D01*
X250500Y315900D02*
Y356323D01*
X250000Y356823D02*
X250500Y356323D01*
X524642Y216142D02*
Y230098D01*
X519098Y235642D02*
X524642Y230098D01*
X144000Y355000D02*
X150000Y361000D01*
X144000Y353500D02*
Y355000D01*
X148000Y311500D02*
Y352559D01*
X147500Y353059D02*
X148000Y352559D01*
X147443Y354116D02*
X148000Y353559D01*
X115000Y291500D02*
Y340350D01*
X108520Y271500D02*
Y352000D01*
X1007500Y369500D02*
Y372500D01*
X1007000Y369000D02*
X1007500Y369500D01*
X911500Y369000D02*
X1007000D01*
X911000Y372500D02*
X911500Y372000D01*
Y369000D02*
Y372000D01*
X814500Y369000D02*
X911500D01*
X814500D02*
Y373000D01*
X717500Y373181D02*
X718169Y373850D01*
X717500Y369000D02*
Y373181D01*
X620000Y369000D02*
X717500D01*
X620650Y369650D02*
Y373000D01*
X620000Y369000D02*
X620650Y369650D01*
X523500Y369000D02*
X620000D01*
X524150Y369650D02*
Y373000D01*
X523500Y369000D02*
X524150Y369650D01*
X429000Y369500D02*
Y373000D01*
X428500Y369000D02*
X429000Y369500D01*
X335000Y369000D02*
X428500D01*
X334650Y372500D02*
X335000Y372150D01*
Y369000D02*
Y372150D01*
X272226Y369000D02*
X335000D01*
X271945Y368719D02*
X272226Y369000D01*
X238781Y368719D02*
X271945D01*
X238500Y369000D02*
X238781Y368719D01*
X238500Y369000D02*
Y371500D01*
X143650Y369000D02*
X238500D01*
X140150Y372500D02*
X143650Y369000D01*
X739500Y336201D02*
X739650Y336350D01*
X152000Y316000D02*
Y356327D01*
X254500Y320500D02*
Y353116D01*
X156000Y321000D02*
Y353905D01*
X346500Y316500D02*
Y358000D01*
X341943Y311557D02*
Y355116D01*
X492098Y288142D02*
X512098Y268142D01*
X514142Y235642D02*
X518098D01*
X519098D01*
X488354Y238773D02*
X499821D01*
X492142Y234642D02*
X492642D01*
X495597Y231687D01*
X488182Y238601D02*
X488354Y238773D01*
X491142Y226142D02*
X504642D01*
X514142Y235642D01*
X546142Y293642D02*
X551185Y288598D01*
Y272642D02*
Y288598D01*
X503642Y286642D02*
Y292642D01*
X504642Y293642D01*
X519098Y268228D02*
Y276598D01*
X519598Y277098D01*
X519098Y268228D02*
X519185Y268142D01*
X519598Y277098D02*
X527598D01*
X519185Y259185D02*
Y268142D01*
X519142Y259142D02*
X519185Y259185D01*
X544098Y263642D02*
Y272642D01*
Y255142D02*
Y263642D01*
X519142Y242772D02*
Y250142D01*
Y259142D01*
X519098Y242728D02*
X519142Y242772D01*
X519098Y242728D02*
X527598D01*
X536012D01*
X536098Y242642D01*
X539598D01*
X544098Y247142D02*
Y255142D01*
X539598Y242642D02*
X544098Y247142D01*
X495597Y231687D02*
X499821D01*
X551185Y255142D02*
Y263642D01*
Y242228D02*
Y247142D01*
X544512Y235555D02*
X551185Y242228D01*
X536098Y235555D02*
X544512D01*
X536012Y235642D02*
X536098Y235555D01*
X527598Y235642D02*
X536012D01*
X519098D02*
X527598D01*
X512055Y241685D02*
X518098Y235642D01*
X512055Y241685D02*
Y250142D01*
Y259142D01*
X512098Y259185D01*
Y268142D01*
Y276685D01*
X519098Y283685D01*
X519598Y284185D01*
X527598D01*
X536098D01*
X169000Y269500D02*
X170500Y271000D01*
X177000D01*
X169000Y262413D02*
X170413Y261000D01*
X177000D01*
X116000Y271500D02*
X116500Y272000D01*
X123000D01*
X122480Y291500D02*
X123000Y290980D01*
Y282000D02*
Y290980D01*
X1023561Y320939D02*
Y355116D01*
X1019500Y315500D02*
Y358500D01*
X1019000Y359000D02*
X1019500Y358500D01*
X1014793Y310793D02*
Y355116D01*
X1014500Y310500D02*
X1014793Y310793D01*
X927061Y321061D02*
Y355116D01*
X927000Y321000D02*
X927061Y321061D01*
X734231Y321269D02*
Y356616D01*
X637000Y321000D02*
Y355500D01*
X540211Y321289D02*
Y355616D01*
X734231Y321269D02*
X734500Y321000D01*
X540211Y321289D02*
X540500Y321000D01*
X156000Y353905D02*
X156211Y354116D01*
X918293Y311000D02*
Y355116D01*
X821793Y311207D02*
Y355116D01*
X627943Y310057D02*
Y356116D01*
X821793Y311207D02*
X822147Y310853D01*
X725462Y311038D02*
X726000Y310500D01*
X245793Y353616D02*
X246000Y353409D01*
X435943Y311000D02*
X436385D01*
X435500D02*
X435943D01*
X246000Y311500D02*
Y353409D01*
X826177Y359500D02*
X826500Y359177D01*
X632500Y359500D02*
X633000Y359000D01*
X922500Y316000D02*
Y359000D01*
X826500Y316000D02*
Y359177D01*
X730000Y316000D02*
Y360500D01*
X633000Y315500D02*
Y359000D01*
X440677Y359500D02*
X440850Y359327D01*
X346500Y359000D02*
X347000Y358500D01*
X250000Y357823D02*
X250177Y358000D01*
X151827Y358500D02*
X152000Y358327D01*
X250000Y356823D02*
X250500Y357323D01*
X151000Y357327D02*
X152000Y356327D01*
X440500Y316000D02*
Y358327D01*
X155150Y378000D02*
X161150Y372000D01*
X148063Y379500D02*
Y380413D01*
X161150Y372000D02*
X172650D01*
X131150Y379000D02*
X138150Y386000D01*
X153150D01*
X155150Y384000D01*
Y378000D02*
Y379500D01*
Y384000D01*
X1005500Y386000D02*
X1020500D01*
X1022500Y384000D01*
X998500Y379000D02*
X1005500Y386000D01*
X1022500Y379500D02*
Y384000D01*
Y378000D02*
Y379500D01*
X1028500Y372000D02*
X1040000D01*
X1022500Y378000D02*
X1028500Y372000D01*
X1015413Y379500D02*
Y380413D01*
X924000Y386000D02*
X926000Y384000D01*
Y379500D02*
Y384000D01*
X909000Y386000D02*
X924000D01*
X902000Y379000D02*
X909000Y386000D01*
X926000Y378000D02*
Y379500D01*
Y378000D02*
X932000Y372000D01*
X943500D01*
X918913Y379500D02*
Y380413D01*
X827500Y386500D02*
X829500Y384500D01*
Y380000D02*
Y384500D01*
Y378500D02*
Y380000D01*
X812500Y386500D02*
X827500D01*
X805500Y379500D02*
X812500Y386500D01*
X829500Y378500D02*
X835500Y372500D01*
X847000D01*
X822413Y380000D02*
Y380913D01*
X733169Y380850D02*
Y385350D01*
X716169Y387350D02*
X731169D01*
X733169Y385350D01*
X709169Y380350D02*
X716169Y387350D01*
X733169Y379350D02*
Y380850D01*
X739169Y373350D02*
X750669D01*
X733169Y379350D02*
X739169Y373350D01*
X726083Y380850D02*
Y381764D01*
X633650Y386500D02*
X635650Y384500D01*
X618650Y386500D02*
X633650D01*
X635650Y380000D02*
Y384500D01*
Y378500D02*
Y380000D01*
Y378500D02*
X641650Y372500D01*
X653150D01*
X611650Y379500D02*
X618650Y386500D01*
X628563Y380000D02*
Y380913D01*
X537150Y386500D02*
X539150Y384500D01*
Y380000D02*
Y384500D01*
X515150Y379500D02*
X522150Y386500D01*
X537150D01*
X539150Y378500D02*
Y380000D01*
Y378500D02*
X545150Y372500D01*
X556650D01*
X532063Y380000D02*
Y380913D01*
X442000Y386500D02*
X444000Y384500D01*
Y380000D02*
Y384500D01*
X427000Y386500D02*
X442000D01*
X420000Y379500D02*
X427000Y386500D01*
X444000Y378500D02*
Y380000D01*
Y378500D02*
X450000Y372500D01*
X461500D01*
X436913Y380000D02*
Y380913D01*
X347650Y386000D02*
X349650Y384000D01*
X332650Y386000D02*
X347650D01*
X349650Y379500D02*
Y384000D01*
X325650Y379000D02*
X332650Y386000D01*
X349650Y378000D02*
Y379500D01*
X355650Y372000D02*
X367150D01*
X349650Y378000D02*
X355650Y372000D01*
X342563Y379500D02*
Y380413D01*
X236500Y385000D02*
X251500D01*
X253500Y383000D01*
Y378500D02*
Y383000D01*
X229500Y378000D02*
X236500Y385000D01*
X253500Y377000D02*
Y378500D01*
Y377000D02*
X259500Y371000D01*
X271000D01*
X246413Y378500D02*
Y379413D01*
X559642Y278185D02*
X567098D01*
X567642Y278728D01*
X559642Y271098D02*
X567098D01*
X567642Y271642D01*
Y278728D02*
Y286142D01*
Y271642D02*
X575142D01*
X527598Y277098D02*
X536098D01*
X539098D01*
X566772Y226642D02*
X567402D01*
X551185Y242228D02*
X566772Y226642D01*
X551185Y263642D02*
Y272642D01*
Y247142D02*
X557358D01*
X566000Y238500D01*
X551185Y272642D02*
X557327Y266500D01*
X566000D01*
X908500Y297500D02*
X909000Y297000D01*
X907158Y296158D02*
X908500Y297500D01*
X545642Y293642D02*
X546142D01*
X520219Y294281D02*
X520781Y293719D01*
X813202Y300000D02*
X813601Y299601D01*
X822572Y308572D01*
X533482Y295500D02*
Y295518D01*
X530781Y297781D02*
X810983D01*
X533482Y295518D02*
X534121Y296158D01*
X907158D01*
X810983Y297781D02*
X813202Y300000D01*
X722000Y303000D02*
X773500Y354500D01*
X721500Y303500D02*
X722000Y303000D01*
X718000Y300000D02*
X721500Y303500D01*
X522500Y348500D02*
X527500Y353500D01*
X517500Y304000D02*
X518500D01*
X530500Y297500D02*
X530781Y297781D01*
X524100Y296900D02*
X524781Y297581D01*
X520219Y294281D02*
Y301445D01*
X520781Y302007D01*
X463945Y361781D02*
X520781Y304945D01*
X522500Y300500D02*
Y348500D01*
X520781Y302007D02*
Y304945D01*
X528781Y300000D02*
X718000D01*
X524781Y297581D02*
Y301445D01*
X524100Y302126D02*
X524781Y301445D01*
X623611Y302500D02*
X676111Y355000D01*
X524100Y302126D02*
Y305500D01*
X539500Y308000D02*
Y320000D01*
X540500Y321000D01*
X543602Y308102D02*
Y316102D01*
X428500Y369000D02*
X523500D01*
X574750Y308750D02*
Y330750D01*
X524100Y305500D02*
X594500D01*
X624500Y335500D01*
Y355000D01*
X535827Y316173D02*
X536000Y316000D01*
X535827Y316173D02*
Y356500D01*
X569500Y308000D02*
Y331500D01*
X439732Y361781D02*
X463945D01*
X492098Y308500D02*
Y328000D01*
X552354Y252831D02*
X565669D01*
X551185Y254000D02*
X552354Y252831D01*
X551185Y247142D02*
Y254000D01*
Y255142D01*
D22*
X78740Y482283D02*
D03*
Y216535D02*
D03*
X1072835D02*
D03*
Y482283D02*
D03*
D23*
X516142Y205142D02*
D03*
D24*
X506142D02*
D03*
X496142D02*
D03*
X486142D02*
D03*
D25*
X123000Y272000D02*
D03*
X177000Y271000D02*
D03*
D26*
X123000Y282000D02*
D03*
X177000Y261000D02*
D03*
D27*
X1041831Y466150D02*
D03*
X979626D02*
D03*
X983957Y413000D02*
D03*
X1037500D02*
D03*
X945331Y466150D02*
D03*
X883126D02*
D03*
X887457Y413000D02*
D03*
X941000D02*
D03*
X848831Y466650D02*
D03*
X786626D02*
D03*
X790957Y413500D02*
D03*
X844500D02*
D03*
X752500Y467500D02*
D03*
X690295D02*
D03*
X694626Y414350D02*
D03*
X748169D02*
D03*
X654980Y466650D02*
D03*
X592776D02*
D03*
X597106Y413500D02*
D03*
X650650D02*
D03*
X558480Y466650D02*
D03*
X496276D02*
D03*
X500606Y413500D02*
D03*
X554150D02*
D03*
X463331Y466650D02*
D03*
X401126D02*
D03*
X405457Y413500D02*
D03*
X459000D02*
D03*
X368980Y466150D02*
D03*
X306776D02*
D03*
X311106Y413000D02*
D03*
X364650D02*
D03*
X272831Y465150D02*
D03*
X210626D02*
D03*
X214957Y412000D02*
D03*
X268500D02*
D03*
X174480Y466150D02*
D03*
X112276D02*
D03*
X116606Y413000D02*
D03*
X170150D02*
D03*
D28*
X167000Y303000D02*
D03*
X1011000Y354000D02*
D03*
X913500Y354500D02*
D03*
X817500D02*
D03*
X531443Y311057D02*
D03*
X721000Y355000D02*
D03*
X624500D02*
D03*
X527500Y353500D02*
D03*
X433000Y354000D02*
D03*
X338500D02*
D03*
X516500Y301000D02*
D03*
X242500Y354000D02*
D03*
X513500Y299000D02*
D03*
X524642Y216142D02*
D03*
X347000Y316000D02*
D03*
X342000Y311500D02*
D03*
X144000Y353500D02*
D03*
X496142Y212642D02*
D03*
X152000Y316000D02*
D03*
X147443Y354116D02*
D03*
X254500Y320500D02*
D03*
X156000Y321000D02*
D03*
X351000Y320500D02*
D03*
X350711Y355116D02*
D03*
X492098Y288142D02*
D03*
X567402Y219402D02*
D03*
X492142Y234642D02*
D03*
X488182Y238601D02*
D03*
X491142Y226142D02*
D03*
X509026Y298026D02*
D03*
X504642Y293642D02*
D03*
X1023561Y320939D02*
D03*
X1019500Y315500D02*
D03*
X1014500Y310500D02*
D03*
X927061Y355116D02*
D03*
X830561D02*
D03*
X734231Y356616D02*
D03*
X637000Y355500D02*
D03*
X927000Y321000D02*
D03*
X831000D02*
D03*
X734500D02*
D03*
X637000D02*
D03*
X540211Y355616D02*
D03*
X445061Y355116D02*
D03*
X254561Y353616D02*
D03*
X156211Y354116D02*
D03*
X540500Y321000D02*
D03*
X445000Y320500D02*
D03*
X918293Y355116D02*
D03*
X725462Y356616D02*
D03*
X821793Y355116D02*
D03*
X627943Y356116D02*
D03*
X531443Y355616D02*
D03*
X918293Y311000D02*
D03*
X822147Y310853D02*
D03*
X726000Y310500D02*
D03*
X627943Y310057D02*
D03*
X436293Y355116D02*
D03*
X341943D02*
D03*
X245793Y353616D02*
D03*
X435500Y311000D02*
D03*
X148000Y311500D02*
D03*
X246000D02*
D03*
X922500Y359000D02*
D03*
X730000Y360500D02*
D03*
X826177Y359500D02*
D03*
X632500D02*
D03*
X826500Y316000D02*
D03*
X922500D02*
D03*
X536000D02*
D03*
X730000D02*
D03*
X633000Y315500D02*
D03*
X440677Y359500D02*
D03*
X346500Y359000D02*
D03*
X250177Y358000D02*
D03*
X151827Y358500D02*
D03*
X440500Y316000D02*
D03*
X250500Y315900D02*
D03*
X1023561Y355116D02*
D03*
X1014793D02*
D03*
X1019000Y359000D02*
D03*
X172650Y372000D02*
D03*
X140150Y372500D02*
D03*
X131150Y379000D02*
D03*
X1040000Y372000D02*
D03*
X998500Y379000D02*
D03*
X1007500Y372500D02*
D03*
X902000Y379000D02*
D03*
X943500Y372000D02*
D03*
X911000Y372500D02*
D03*
X805500Y379500D02*
D03*
X847000Y372500D02*
D03*
X814500Y373000D02*
D03*
X709169Y380350D02*
D03*
X750669Y373350D02*
D03*
X718169Y373850D02*
D03*
X653150Y372500D02*
D03*
X611650Y379500D02*
D03*
X620650Y373000D02*
D03*
X515150Y379500D02*
D03*
X556650Y372500D02*
D03*
X524150Y373000D02*
D03*
X461500Y372500D02*
D03*
X420000Y379500D02*
D03*
X429000Y373000D02*
D03*
X325650Y379000D02*
D03*
X367150Y372000D02*
D03*
X334650Y372500D02*
D03*
X271000Y371000D02*
D03*
X229500Y378000D02*
D03*
X238500Y371500D02*
D03*
X567642Y286142D02*
D03*
X575142Y271642D02*
D03*
X551642Y217642D02*
D03*
X161500Y335000D02*
D03*
X260000Y334000D02*
D03*
X356000Y335000D02*
D03*
X450500Y335500D02*
D03*
X546000D02*
D03*
X642000D02*
D03*
X739650Y336350D02*
D03*
X836000Y335500D02*
D03*
X933000Y335000D02*
D03*
X1029000D02*
D03*
X568142Y240642D02*
D03*
X583642Y226642D02*
D03*
X602000Y273000D02*
D03*
Y227500D02*
D03*
X566000Y238500D02*
D03*
Y266500D02*
D03*
X545642Y293642D02*
D03*
X551476Y293876D02*
D03*
X520781Y293719D02*
D03*
X524100Y296900D02*
D03*
X533482Y295500D02*
D03*
X518500Y304000D02*
D03*
X522500Y300500D02*
D03*
X530500Y297500D02*
D03*
X528781Y300000D02*
D03*
X526500Y303000D02*
D03*
X539500Y308000D02*
D03*
X543602Y308102D02*
D03*
Y316102D02*
D03*
X574750Y330750D02*
D03*
Y308750D02*
D03*
X535827Y356500D02*
D03*
X569500Y331500D02*
D03*
Y308000D02*
D03*
X492098Y308500D02*
D03*
Y328000D02*
D03*
X578276Y254776D02*
D03*
X565669Y252831D02*
D03*
M02*
