G04 Layer_Color=8388736*
%FSLAX25Y25*%
%MOIN*%
G70*
G01*
G75*
%ADD34R,0.06800X0.05800*%
%ADD35R,0.04934X0.06312*%
%ADD36R,0.05918X0.06902*%
%ADD37R,0.05524X0.02375*%
%ADD38O,0.01981X0.07887*%
%ADD39O,0.07887X0.01981*%
%ADD40R,0.04540X0.09068*%
%ADD41R,0.22453X0.26391*%
%ADD42R,0.05328X0.06509*%
%ADD43R,0.06509X0.05328*%
%ADD44R,0.02178X0.06312*%
%ADD45C,0.15800*%
%ADD46R,0.06706X0.06706*%
%ADD47C,0.06706*%
%ADD48C,0.06800*%
%ADD49R,0.06800X0.06800*%
%ADD50C,0.10642*%
%ADD51C,0.03162*%
D34*
X174000Y303000D02*
D03*
X183000D02*
D03*
D35*
X182000Y293000D02*
D03*
X174520D02*
D03*
X544382Y218142D02*
D03*
X536902D02*
D03*
X153760Y256000D02*
D03*
X161240D02*
D03*
X139260D02*
D03*
X146740D02*
D03*
D36*
X602858Y230752D02*
D03*
Y262248D02*
D03*
X585142D02*
D03*
Y230752D02*
D03*
D37*
X572500Y250051D02*
D03*
Y254776D02*
D03*
Y259500D02*
D03*
D38*
X553445Y227043D02*
D03*
X551476D02*
D03*
X549508D02*
D03*
X547539D02*
D03*
X545571D02*
D03*
X543602D02*
D03*
X541634D02*
D03*
X539665D02*
D03*
X537697D02*
D03*
X535728D02*
D03*
X533760D02*
D03*
X531791D02*
D03*
X529823D02*
D03*
X527854D02*
D03*
X525886D02*
D03*
X523917D02*
D03*
X521949D02*
D03*
X519980D02*
D03*
X518012D02*
D03*
X516043D02*
D03*
X514075D02*
D03*
X512106D02*
D03*
X510138D02*
D03*
X508169D02*
D03*
X506201D02*
D03*
Y286492D02*
D03*
X508169D02*
D03*
X510138D02*
D03*
X512106D02*
D03*
X514075D02*
D03*
X516043D02*
D03*
X518012D02*
D03*
X519980D02*
D03*
X521949D02*
D03*
X523917D02*
D03*
X525886D02*
D03*
X527854D02*
D03*
X529823D02*
D03*
X531791D02*
D03*
X533760D02*
D03*
X535728D02*
D03*
X537697D02*
D03*
X539665D02*
D03*
X541634D02*
D03*
X543602D02*
D03*
X545571D02*
D03*
X547539D02*
D03*
X549508D02*
D03*
X551476D02*
D03*
X553445D02*
D03*
D39*
X500098Y233146D02*
D03*
Y235114D02*
D03*
Y237083D02*
D03*
Y239051D02*
D03*
Y241020D02*
D03*
Y242988D02*
D03*
Y244957D02*
D03*
Y246925D02*
D03*
Y248894D02*
D03*
Y250862D02*
D03*
Y252831D02*
D03*
Y254799D02*
D03*
Y256768D02*
D03*
Y258736D02*
D03*
Y260705D02*
D03*
Y262673D02*
D03*
Y264642D02*
D03*
Y266610D02*
D03*
Y268579D02*
D03*
Y270547D02*
D03*
Y272516D02*
D03*
Y274484D02*
D03*
Y276453D02*
D03*
Y278421D02*
D03*
Y280390D02*
D03*
X559547D02*
D03*
Y278421D02*
D03*
Y276453D02*
D03*
Y274484D02*
D03*
Y272516D02*
D03*
Y270547D02*
D03*
Y268579D02*
D03*
Y266610D02*
D03*
Y264642D02*
D03*
Y262673D02*
D03*
Y260705D02*
D03*
Y258736D02*
D03*
Y256768D02*
D03*
Y254799D02*
D03*
Y252831D02*
D03*
Y250862D02*
D03*
Y248894D02*
D03*
Y246925D02*
D03*
Y244957D02*
D03*
Y242988D02*
D03*
Y241020D02*
D03*
Y239051D02*
D03*
Y237083D02*
D03*
Y235114D02*
D03*
Y233146D02*
D03*
D40*
X142524Y270197D02*
D03*
X160476D02*
D03*
D41*
X151500Y295000D02*
D03*
D42*
X1015500Y335000D02*
D03*
X1022587D02*
D03*
X919000D02*
D03*
X926087D02*
D03*
X822500Y335500D02*
D03*
X829587D02*
D03*
X726169Y336350D02*
D03*
X733256D02*
D03*
X628650Y335500D02*
D03*
X635736D02*
D03*
X532150D02*
D03*
X539236D02*
D03*
X437000D02*
D03*
X444087D02*
D03*
X342650Y335000D02*
D03*
X349736D02*
D03*
X246500Y334000D02*
D03*
X253587D02*
D03*
X148150Y335000D02*
D03*
X155236D02*
D03*
X1022500Y384000D02*
D03*
X1015413D02*
D03*
X926000D02*
D03*
X918913D02*
D03*
X829500Y384500D02*
D03*
X822413D02*
D03*
X733169Y385350D02*
D03*
X726083D02*
D03*
X635650Y384500D02*
D03*
X628563D02*
D03*
X539150D02*
D03*
X532063D02*
D03*
X444000D02*
D03*
X436913D02*
D03*
X349650Y384000D02*
D03*
X342563D02*
D03*
X253500Y383000D02*
D03*
X246413D02*
D03*
X155150Y384000D02*
D03*
X148063D02*
D03*
X132000Y256000D02*
D03*
X124913D02*
D03*
D43*
X1006000Y386087D02*
D03*
Y379000D02*
D03*
X909500Y386087D02*
D03*
Y379000D02*
D03*
X813000Y386587D02*
D03*
Y379500D02*
D03*
X716669Y387437D02*
D03*
Y380350D02*
D03*
X619150Y386587D02*
D03*
Y379500D02*
D03*
X522650Y386587D02*
D03*
Y379500D02*
D03*
X427500Y386587D02*
D03*
Y379500D02*
D03*
X333150Y386087D02*
D03*
Y379000D02*
D03*
X237000Y385087D02*
D03*
Y378000D02*
D03*
X138650Y386087D02*
D03*
Y379000D02*
D03*
X1030500Y373913D02*
D03*
Y381000D02*
D03*
X934000Y373913D02*
D03*
Y381000D02*
D03*
X837500Y374413D02*
D03*
Y381500D02*
D03*
X741169Y375264D02*
D03*
Y382350D02*
D03*
X643650Y374413D02*
D03*
Y381500D02*
D03*
X547150Y374413D02*
D03*
Y381500D02*
D03*
X452000Y374413D02*
D03*
Y381500D02*
D03*
X357650Y373913D02*
D03*
Y381000D02*
D03*
X261500Y372913D02*
D03*
Y380000D02*
D03*
X163150Y373913D02*
D03*
Y381000D02*
D03*
D44*
X1026854Y346500D02*
D03*
X1024295Y346500D02*
D03*
X1021736Y346500D02*
D03*
X1019177Y346500D02*
D03*
X1016618Y346500D02*
D03*
X1014059D02*
D03*
X1011500Y346500D02*
D03*
X1011500Y365201D02*
D03*
X1014059D02*
D03*
X1016618D02*
D03*
X1019177D02*
D03*
X1021736D02*
D03*
X1024295D02*
D03*
X1026854D02*
D03*
X930354Y346500D02*
D03*
X927795Y346500D02*
D03*
X925236Y346500D02*
D03*
X922677Y346500D02*
D03*
X920118Y346500D02*
D03*
X917559D02*
D03*
X915000Y346500D02*
D03*
X915000Y365201D02*
D03*
X917559D02*
D03*
X920118D02*
D03*
X922677D02*
D03*
X925236D02*
D03*
X927795D02*
D03*
X930354D02*
D03*
X833854Y347000D02*
D03*
X831295Y347000D02*
D03*
X828736Y347000D02*
D03*
X826177Y347000D02*
D03*
X823618Y347000D02*
D03*
X821059D02*
D03*
X818500Y347000D02*
D03*
X818500Y365701D02*
D03*
X821059D02*
D03*
X823618D02*
D03*
X826177D02*
D03*
X828736D02*
D03*
X831295D02*
D03*
X833854D02*
D03*
X737524Y347850D02*
D03*
X734965Y347850D02*
D03*
X732406Y347850D02*
D03*
X729846Y347850D02*
D03*
X727287Y347850D02*
D03*
X724728D02*
D03*
X722169Y347850D02*
D03*
X722169Y366551D02*
D03*
X724728D02*
D03*
X727287D02*
D03*
X729846D02*
D03*
X732406D02*
D03*
X734965D02*
D03*
X737524D02*
D03*
X640004Y347000D02*
D03*
X637445Y347000D02*
D03*
X634886Y347000D02*
D03*
X632327Y347000D02*
D03*
X629768Y347000D02*
D03*
X627209D02*
D03*
X624650Y347000D02*
D03*
X624650Y365701D02*
D03*
X627209D02*
D03*
X629768D02*
D03*
X632327D02*
D03*
X634886D02*
D03*
X637445D02*
D03*
X640004D02*
D03*
X543504Y347000D02*
D03*
X540945Y347000D02*
D03*
X538386Y347000D02*
D03*
X535827Y347000D02*
D03*
X533268Y347000D02*
D03*
X530709D02*
D03*
X528150Y347000D02*
D03*
X528150Y365701D02*
D03*
X530709D02*
D03*
X533268D02*
D03*
X535827D02*
D03*
X538386D02*
D03*
X540945D02*
D03*
X543504D02*
D03*
X448354Y347000D02*
D03*
X445795Y347000D02*
D03*
X443236Y347000D02*
D03*
X440677Y347000D02*
D03*
X438118Y347000D02*
D03*
X435559D02*
D03*
X433000Y347000D02*
D03*
X433000Y365701D02*
D03*
X435559D02*
D03*
X438118D02*
D03*
X440677D02*
D03*
X443236D02*
D03*
X445795D02*
D03*
X448354D02*
D03*
X354004Y346500D02*
D03*
X351445Y346500D02*
D03*
X348886Y346500D02*
D03*
X346327Y346500D02*
D03*
X343768Y346500D02*
D03*
X341209D02*
D03*
X338650Y346500D02*
D03*
X338650Y365201D02*
D03*
X341209D02*
D03*
X343768D02*
D03*
X346327D02*
D03*
X348886D02*
D03*
X351445D02*
D03*
X354004D02*
D03*
X257854Y345500D02*
D03*
X255295Y345500D02*
D03*
X252736Y345500D02*
D03*
X250177Y345500D02*
D03*
X247618Y345500D02*
D03*
X245059D02*
D03*
X242500Y345500D02*
D03*
X242500Y364201D02*
D03*
X245059D02*
D03*
X247618D02*
D03*
X250177D02*
D03*
X252736D02*
D03*
X255295D02*
D03*
X257854D02*
D03*
X159504Y346500D02*
D03*
X156945Y346500D02*
D03*
X154386Y346500D02*
D03*
X151827Y346500D02*
D03*
X149268Y346500D02*
D03*
X146709D02*
D03*
X144150Y346500D02*
D03*
X144150Y365201D02*
D03*
X146709D02*
D03*
X149268D02*
D03*
X151827D02*
D03*
X154386D02*
D03*
X156945D02*
D03*
X159504D02*
D03*
D45*
X78740Y482283D02*
D03*
Y216535D02*
D03*
X1072835D02*
D03*
Y482283D02*
D03*
D46*
X516142Y205142D02*
D03*
D47*
X506142D02*
D03*
X496142D02*
D03*
X486142D02*
D03*
D48*
X123000Y272000D02*
D03*
X177000Y271000D02*
D03*
D49*
X123000Y282000D02*
D03*
X177000Y261000D02*
D03*
D50*
X1041831Y466150D02*
D03*
X979626D02*
D03*
X983957Y413000D02*
D03*
X1037500D02*
D03*
X945331Y466150D02*
D03*
X883126D02*
D03*
X887457Y413000D02*
D03*
X941000D02*
D03*
X848831Y466650D02*
D03*
X786626D02*
D03*
X790957Y413500D02*
D03*
X844500D02*
D03*
X752500Y467500D02*
D03*
X690295D02*
D03*
X694626Y414350D02*
D03*
X748169D02*
D03*
X654980Y466650D02*
D03*
X592776D02*
D03*
X597106Y413500D02*
D03*
X650650D02*
D03*
X558480Y466650D02*
D03*
X496276D02*
D03*
X500606Y413500D02*
D03*
X554150D02*
D03*
X463331Y466650D02*
D03*
X401126D02*
D03*
X405457Y413500D02*
D03*
X459000D02*
D03*
X368980Y466150D02*
D03*
X306776D02*
D03*
X311106Y413000D02*
D03*
X364650D02*
D03*
X272831Y465150D02*
D03*
X210626D02*
D03*
X214957Y412000D02*
D03*
X268500D02*
D03*
X174480Y466150D02*
D03*
X112276D02*
D03*
X116606Y413000D02*
D03*
X170150D02*
D03*
D51*
X167000Y303000D02*
D03*
X1011000Y354000D02*
D03*
X913500Y354500D02*
D03*
X817500D02*
D03*
X531443Y311057D02*
D03*
X721000Y355000D02*
D03*
X624500D02*
D03*
X527500Y353500D02*
D03*
X433000Y354000D02*
D03*
X338500D02*
D03*
X516500Y301000D02*
D03*
X242500Y354000D02*
D03*
X513500Y299000D02*
D03*
X524642Y216142D02*
D03*
X347000Y316000D02*
D03*
X342000Y311500D02*
D03*
X144000Y353500D02*
D03*
X496142Y212642D02*
D03*
X152000Y316000D02*
D03*
X147443Y354116D02*
D03*
X254500Y320500D02*
D03*
X156000Y321000D02*
D03*
X351000Y320500D02*
D03*
X350711Y355116D02*
D03*
X492098Y288142D02*
D03*
X567402Y219402D02*
D03*
X492142Y234642D02*
D03*
X488182Y238601D02*
D03*
X491142Y226142D02*
D03*
X509026Y298026D02*
D03*
X504642Y293642D02*
D03*
X1023561Y320939D02*
D03*
X1019500Y315500D02*
D03*
X1014500Y310500D02*
D03*
X927061Y355116D02*
D03*
X830561D02*
D03*
X734231Y356616D02*
D03*
X637000Y355500D02*
D03*
X927000Y321000D02*
D03*
X831000D02*
D03*
X734500D02*
D03*
X637000D02*
D03*
X540211Y355616D02*
D03*
X445061Y355116D02*
D03*
X254561Y353616D02*
D03*
X156211Y354116D02*
D03*
X540500Y321000D02*
D03*
X445000Y320500D02*
D03*
X918293Y355116D02*
D03*
X725462Y356616D02*
D03*
X821793Y355116D02*
D03*
X627943Y356116D02*
D03*
X531443Y355616D02*
D03*
X918293Y311000D02*
D03*
X822147Y310853D02*
D03*
X726000Y310500D02*
D03*
X627943Y310057D02*
D03*
X436293Y355116D02*
D03*
X341943D02*
D03*
X245793Y353616D02*
D03*
X435500Y311000D02*
D03*
X148000Y311500D02*
D03*
X246000D02*
D03*
X922500Y359000D02*
D03*
X730000Y360500D02*
D03*
X826177Y359500D02*
D03*
X632500D02*
D03*
X826500Y316000D02*
D03*
X922500D02*
D03*
X536000D02*
D03*
X730000D02*
D03*
X633000Y315500D02*
D03*
X440677Y359500D02*
D03*
X346500Y359000D02*
D03*
X250177Y358000D02*
D03*
X151827Y358500D02*
D03*
X440500Y316000D02*
D03*
X250500Y315900D02*
D03*
X1023561Y355116D02*
D03*
X1014793D02*
D03*
X1019000Y359000D02*
D03*
X172650Y372000D02*
D03*
X140150Y372500D02*
D03*
X131150Y379000D02*
D03*
X1040000Y372000D02*
D03*
X998500Y379000D02*
D03*
X1007500Y372500D02*
D03*
X902000Y379000D02*
D03*
X943500Y372000D02*
D03*
X911000Y372500D02*
D03*
X805500Y379500D02*
D03*
X847000Y372500D02*
D03*
X814500Y373000D02*
D03*
X709169Y380350D02*
D03*
X750669Y373350D02*
D03*
X718169Y373850D02*
D03*
X653150Y372500D02*
D03*
X611650Y379500D02*
D03*
X620650Y373000D02*
D03*
X515150Y379500D02*
D03*
X556650Y372500D02*
D03*
X524150Y373000D02*
D03*
X461500Y372500D02*
D03*
X420000Y379500D02*
D03*
X429000Y373000D02*
D03*
X325650Y379000D02*
D03*
X367150Y372000D02*
D03*
X334650Y372500D02*
D03*
X271000Y371000D02*
D03*
X229500Y378000D02*
D03*
X238500Y371500D02*
D03*
X567642Y286142D02*
D03*
X575142Y271642D02*
D03*
X551642Y217642D02*
D03*
X161500Y335000D02*
D03*
X260000Y334000D02*
D03*
X356000Y335000D02*
D03*
X450500Y335500D02*
D03*
X546000D02*
D03*
X642000D02*
D03*
X739650Y336350D02*
D03*
X836000Y335500D02*
D03*
X933000Y335000D02*
D03*
X1029000D02*
D03*
X568142Y240642D02*
D03*
X583642Y226642D02*
D03*
X602000Y273000D02*
D03*
Y227500D02*
D03*
X566000Y238500D02*
D03*
Y266500D02*
D03*
X545642Y293642D02*
D03*
X551476Y293876D02*
D03*
X520781Y293719D02*
D03*
X524100Y296900D02*
D03*
X533482Y295500D02*
D03*
X518500Y304000D02*
D03*
X522500Y300500D02*
D03*
X530500Y297500D02*
D03*
X528781Y300000D02*
D03*
X526500Y303000D02*
D03*
X539500Y308000D02*
D03*
X543602Y308102D02*
D03*
Y316102D02*
D03*
X574750Y330750D02*
D03*
Y308750D02*
D03*
X535827Y356500D02*
D03*
X569500Y331500D02*
D03*
Y308000D02*
D03*
X492098Y308500D02*
D03*
Y328000D02*
D03*
X578276Y254776D02*
D03*
X565669Y252831D02*
D03*
M02*
