G04 Layer_Color=32896*
%FSLAX25Y25*%
%MOIN*%
G70*
G01*
G75*
%ADD21C,0.01000*%
%ADD32C,0.00787*%
D21*
X525502Y300001D02*
X524502Y301001D01*
Y303000D01*
X525502Y304000D01*
X529500D01*
X530500Y303000D01*
Y301001D01*
X529500Y300001D01*
X530500Y298002D02*
Y296003D01*
Y297002D01*
X524502D01*
X525502Y298002D01*
X524502Y289005D02*
X525502Y291004D01*
X527501Y293004D01*
X529500D01*
X530500Y292004D01*
Y290004D01*
X529500Y289005D01*
X528501D01*
X527501Y290004D01*
Y293004D01*
X517502Y299001D02*
X516502Y300001D01*
Y302000D01*
X517502Y303000D01*
X521500D01*
X522500Y302000D01*
Y300001D01*
X521500Y299001D01*
X522500Y297002D02*
Y295003D01*
Y296002D01*
X516502D01*
X517502Y297002D01*
X516502Y292004D02*
Y288005D01*
X517502D01*
X521500Y292004D01*
X522500D01*
X551001Y281498D02*
X552001Y282498D01*
X554000D01*
X555000Y281498D01*
Y277500D01*
X554000Y276500D01*
X552001D01*
X551001Y277500D01*
X549002Y276500D02*
X547003D01*
X548002D01*
Y282498D01*
X549002Y281498D01*
X541005Y276500D02*
Y282498D01*
X544004Y279499D01*
X540005D01*
X534002Y299501D02*
X533002Y300501D01*
Y302500D01*
X534002Y303500D01*
X538000D01*
X539000Y302500D01*
Y300501D01*
X538000Y299501D01*
X539000Y297502D02*
Y295503D01*
Y296502D01*
X533002D01*
X534002Y297502D01*
X533002Y288505D02*
Y292504D01*
X536001D01*
X535001Y290504D01*
Y289505D01*
X536001Y288505D01*
X538000D01*
X539000Y289505D01*
Y291504D01*
X538000Y292504D01*
X509001Y295998D02*
X510001Y296998D01*
X512000D01*
X513000Y295998D01*
Y292000D01*
X512000Y291000D01*
X510001D01*
X509001Y292000D01*
X507002Y291000D02*
X505003D01*
X506002D01*
Y296998D01*
X507002Y295998D01*
X502004D02*
X501004Y296998D01*
X499005D01*
X498005Y295998D01*
Y294999D01*
X499005Y293999D01*
X498005Y292999D01*
Y292000D01*
X499005Y291000D01*
X501004D01*
X502004Y292000D01*
Y292999D01*
X501004Y293999D01*
X502004Y294999D01*
Y295998D01*
X501004Y293999D02*
X499005D01*
X565501Y265498D02*
X566501Y266498D01*
X568500D01*
X569500Y265498D01*
Y261500D01*
X568500Y260500D01*
X566501D01*
X565501Y261500D01*
X563502Y260500D02*
X561503D01*
X562502D01*
Y266498D01*
X563502Y265498D01*
X558504D02*
X557504Y266498D01*
X555505D01*
X554505Y265498D01*
Y264499D01*
X555505Y263499D01*
X556504D01*
X555505D01*
X554505Y262499D01*
Y261500D01*
X555505Y260500D01*
X557504D01*
X558504Y261500D01*
X565001Y256498D02*
X566001Y257498D01*
X568000D01*
X569000Y256498D01*
Y252500D01*
X568000Y251500D01*
X566001D01*
X565001Y252500D01*
X563002Y251500D02*
X561003D01*
X562002D01*
Y257498D01*
X563002Y256498D01*
X554005Y251500D02*
X558004D01*
X554005Y255499D01*
Y256498D01*
X555005Y257498D01*
X557004D01*
X558004Y256498D01*
X564501Y248498D02*
X565501Y249498D01*
X567500D01*
X568500Y248498D01*
Y244500D01*
X567500Y243500D01*
X565501D01*
X564501Y244500D01*
X562502Y243500D02*
X560503D01*
X561502D01*
Y249498D01*
X562502Y248498D01*
X557504Y243500D02*
X555504D01*
X556504D01*
Y249498D01*
X557504Y248498D01*
X525502Y228001D02*
X524502Y229001D01*
Y231000D01*
X525502Y232000D01*
X529500D01*
X530500Y231000D01*
Y229001D01*
X529500Y228001D01*
Y226002D02*
X530500Y225002D01*
Y223003D01*
X529500Y222003D01*
X525502D01*
X524502Y223003D01*
Y225002D01*
X525502Y226002D01*
X526501D01*
X527501Y225002D01*
Y222003D01*
X534002Y227501D02*
X533002Y228501D01*
Y230500D01*
X534002Y231500D01*
X538000D01*
X539000Y230500D01*
Y228501D01*
X538000Y227501D01*
X539000Y225502D02*
Y223503D01*
Y224502D01*
X533002D01*
X534002Y225502D01*
Y220504D02*
X533002Y219504D01*
Y217505D01*
X534002Y216505D01*
X538000D01*
X539000Y217505D01*
Y219504D01*
X538000Y220504D01*
X534002D01*
X516502Y228001D02*
X515502Y229001D01*
Y231000D01*
X516502Y232000D01*
X520500D01*
X521500Y231000D01*
Y229001D01*
X520500Y228001D01*
X516502Y226002D02*
X515502Y225002D01*
Y223003D01*
X516502Y222003D01*
X517501D01*
X518501Y223003D01*
X519501Y222003D01*
X520500D01*
X521500Y223003D01*
Y225002D01*
X520500Y226002D01*
X519501D01*
X518501Y225002D01*
X517501Y226002D01*
X516502D01*
X518501Y225002D02*
Y223003D01*
X504001Y251998D02*
X505001Y252998D01*
X507000D01*
X508000Y251998D01*
Y248000D01*
X507000Y247000D01*
X505001D01*
X504001Y248000D01*
X502002Y252998D02*
X498003D01*
Y251998D01*
X502002Y248000D01*
Y247000D01*
X503501Y261498D02*
X504501Y262498D01*
X506500D01*
X507500Y261498D01*
Y257500D01*
X506500Y256500D01*
X504501D01*
X503501Y257500D01*
X497503Y262498D02*
X499503Y261498D01*
X501502Y259499D01*
Y257500D01*
X500502Y256500D01*
X498503D01*
X497503Y257500D01*
Y258499D01*
X498503Y259499D01*
X501502D01*
X502501Y271498D02*
X503501Y272498D01*
X505500D01*
X506500Y271498D01*
Y267500D01*
X505500Y266500D01*
X503501D01*
X502501Y267500D01*
X496503Y272498D02*
X500502D01*
Y269499D01*
X498503Y270499D01*
X497503D01*
X496503Y269499D01*
Y267500D01*
X497503Y266500D01*
X499502D01*
X500502Y267500D01*
X557002Y288501D02*
X556002Y289501D01*
Y291500D01*
X557002Y292500D01*
X561000D01*
X562000Y291500D01*
Y289501D01*
X561000Y288501D01*
X557002Y286502D02*
X556002Y285502D01*
Y283503D01*
X557002Y282503D01*
X558001D01*
X559001Y283503D01*
Y284503D01*
Y283503D01*
X560001Y282503D01*
X561000D01*
X562000Y283503D01*
Y285502D01*
X561000Y286502D01*
X503501Y226998D02*
X504501Y227998D01*
X506500D01*
X507500Y226998D01*
Y223000D01*
X506500Y222000D01*
X504501D01*
X503501Y223000D01*
X501502Y222000D02*
X499503D01*
X500502D01*
Y227998D01*
X501502Y226998D01*
X496504Y223000D02*
X495504Y222000D01*
X493504D01*
X492505Y223000D01*
Y226998D01*
X493504Y227998D01*
X495504D01*
X496504Y226998D01*
Y225999D01*
X495504Y224999D01*
X492505D01*
X565002Y288501D02*
X564002Y289501D01*
Y291500D01*
X565002Y292500D01*
X569000D01*
X570000Y291500D01*
Y289501D01*
X569000Y288501D01*
X570000Y283503D02*
X564002D01*
X567001Y286502D01*
Y282503D01*
X578500Y229800D02*
Y235798D01*
X575501D01*
X574501Y234798D01*
Y232799D01*
X575501Y231799D01*
X578500D01*
X576501D02*
X574501Y229800D01*
X569503D02*
Y235798D01*
X572502Y232799D01*
X568503D01*
X112001Y263998D02*
X116000D01*
Y260999D01*
X114001D01*
X116000D01*
Y258000D01*
X110002Y263998D02*
Y258000D01*
X107003D01*
X106003Y259000D01*
Y259999D01*
X107003Y260999D01*
X110002D01*
X107003D01*
X106003Y261999D01*
Y262998D01*
X107003Y263998D01*
X110002D01*
X100005Y258000D02*
X104004D01*
X100005Y261999D01*
Y262998D01*
X101005Y263998D01*
X103004D01*
X104004Y262998D01*
X120701Y304298D02*
X124700D01*
Y301299D01*
X122701D01*
X124700D01*
Y298300D01*
X118702Y304298D02*
Y298300D01*
X115703D01*
X114703Y299300D01*
Y300299D01*
X115703Y301299D01*
X118702D01*
X115703D01*
X114703Y302299D01*
Y303298D01*
X115703Y304298D01*
X118702D01*
X112704Y298300D02*
X110705D01*
X111704D01*
Y304298D01*
X112704Y303298D01*
X1023001Y371998D02*
X1024001Y372998D01*
X1026000D01*
X1027000Y371998D01*
Y368000D01*
X1026000Y367000D01*
X1024001D01*
X1023001Y368000D01*
X1017003Y367000D02*
X1021002D01*
X1017003Y370999D01*
Y371998D01*
X1018003Y372998D01*
X1020002D01*
X1021002Y371998D01*
X1015004D02*
X1014004Y372998D01*
X1012005D01*
X1011005Y371998D01*
Y370999D01*
X1012005Y369999D01*
X1013004D01*
X1012005D01*
X1011005Y368999D01*
Y368000D01*
X1012005Y367000D01*
X1014004D01*
X1015004Y368000D01*
X926501Y371998D02*
X927501Y372998D01*
X929500D01*
X930500Y371998D01*
Y368000D01*
X929500Y367000D01*
X927501D01*
X926501Y368000D01*
X920503Y367000D02*
X924502D01*
X920503Y370999D01*
Y371998D01*
X921503Y372998D01*
X923502D01*
X924502Y371998D01*
X918504D02*
X917504Y372998D01*
X915505D01*
X914505Y371998D01*
Y370999D01*
X915505Y369999D01*
X916504D01*
X915505D01*
X914505Y368999D01*
Y368000D01*
X915505Y367000D01*
X917504D01*
X918504Y368000D01*
X830001Y372498D02*
X831001Y373498D01*
X833000D01*
X834000Y372498D01*
Y368500D01*
X833000Y367500D01*
X831001D01*
X830001Y368500D01*
X824003Y367500D02*
X828002D01*
X824003Y371499D01*
Y372498D01*
X825003Y373498D01*
X827002D01*
X828002Y372498D01*
X822004D02*
X821004Y373498D01*
X819005D01*
X818005Y372498D01*
Y371499D01*
X819005Y370499D01*
X820004D01*
X819005D01*
X818005Y369499D01*
Y368500D01*
X819005Y367500D01*
X821004D01*
X822004Y368500D01*
X733671Y373349D02*
X734670Y374348D01*
X736670D01*
X737669Y373349D01*
Y369350D01*
X736670Y368350D01*
X734670D01*
X733671Y369350D01*
X727672Y368350D02*
X731671D01*
X727672Y372349D01*
Y373349D01*
X728672Y374348D01*
X730672D01*
X731671Y373349D01*
X725673D02*
X724674Y374348D01*
X722674D01*
X721674Y373349D01*
Y372349D01*
X722674Y371349D01*
X723674D01*
X722674D01*
X721674Y370350D01*
Y369350D01*
X722674Y368350D01*
X724674D01*
X725673Y369350D01*
X636151Y372498D02*
X637151Y373498D01*
X639150D01*
X640150Y372498D01*
Y368500D01*
X639150Y367500D01*
X637151D01*
X636151Y368500D01*
X630153Y367500D02*
X634152D01*
X630153Y371499D01*
Y372498D01*
X631152Y373498D01*
X633152D01*
X634152Y372498D01*
X628154D02*
X627154Y373498D01*
X625154D01*
X624155Y372498D01*
Y371499D01*
X625154Y370499D01*
X626154D01*
X625154D01*
X624155Y369499D01*
Y368500D01*
X625154Y367500D01*
X627154D01*
X628154Y368500D01*
X539651Y372498D02*
X540651Y373498D01*
X542650D01*
X543650Y372498D01*
Y368500D01*
X542650Y367500D01*
X540651D01*
X539651Y368500D01*
X533653Y367500D02*
X537652D01*
X533653Y371499D01*
Y372498D01*
X534653Y373498D01*
X536652D01*
X537652Y372498D01*
X531653D02*
X530654Y373498D01*
X528654D01*
X527655Y372498D01*
Y371499D01*
X528654Y370499D01*
X529654D01*
X528654D01*
X527655Y369499D01*
Y368500D01*
X528654Y367500D01*
X530654D01*
X531653Y368500D01*
X444501Y372498D02*
X445501Y373498D01*
X447500D01*
X448500Y372498D01*
Y368500D01*
X447500Y367500D01*
X445501D01*
X444501Y368500D01*
X438503Y367500D02*
X442502D01*
X438503Y371499D01*
Y372498D01*
X439503Y373498D01*
X441502D01*
X442502Y372498D01*
X436504D02*
X435504Y373498D01*
X433505D01*
X432505Y372498D01*
Y371499D01*
X433505Y370499D01*
X434505D01*
X433505D01*
X432505Y369499D01*
Y368500D01*
X433505Y367500D01*
X435504D01*
X436504Y368500D01*
X350151Y371998D02*
X351151Y372998D01*
X353150D01*
X354150Y371998D01*
Y368000D01*
X353150Y367000D01*
X351151D01*
X350151Y368000D01*
X344153Y367000D02*
X348151D01*
X344153Y370999D01*
Y371998D01*
X345152Y372998D01*
X347152D01*
X348151Y371998D01*
X342154D02*
X341154Y372998D01*
X339155D01*
X338155Y371998D01*
Y370999D01*
X339155Y369999D01*
X340154D01*
X339155D01*
X338155Y368999D01*
Y368000D01*
X339155Y367000D01*
X341154D01*
X342154Y368000D01*
X254001Y370998D02*
X255001Y371998D01*
X257000D01*
X258000Y370998D01*
Y367000D01*
X257000Y366000D01*
X255001D01*
X254001Y367000D01*
X248003Y366000D02*
X252002D01*
X248003Y369999D01*
Y370998D01*
X249003Y371998D01*
X251002D01*
X252002Y370998D01*
X246004D02*
X245004Y371998D01*
X243005D01*
X242005Y370998D01*
Y369999D01*
X243005Y368999D01*
X244005D01*
X243005D01*
X242005Y367999D01*
Y367000D01*
X243005Y366000D01*
X245004D01*
X246004Y367000D01*
X155651Y371998D02*
X156651Y372998D01*
X158650D01*
X159650Y371998D01*
Y368000D01*
X158650Y367000D01*
X156651D01*
X155651Y368000D01*
X149653Y367000D02*
X153651D01*
X149653Y370999D01*
Y371998D01*
X150653Y372998D01*
X152652D01*
X153651Y371998D01*
X147653D02*
X146654Y372998D01*
X144655D01*
X143655Y371998D01*
Y370999D01*
X144655Y369999D01*
X145654D01*
X144655D01*
X143655Y368999D01*
Y368000D01*
X144655Y367000D01*
X146654D01*
X147653Y368000D01*
X169501Y280998D02*
X170501Y281998D01*
X172500D01*
X173500Y280998D01*
Y277000D01*
X172500Y276000D01*
X170501D01*
X169501Y277000D01*
X167502Y276000D02*
X165503D01*
X166502D01*
Y281998D01*
X167502Y280998D01*
D32*
X525138Y280445D02*
Y280839D01*
X530059Y280445D02*
Y280839D01*
X516638Y279945D02*
Y280339D01*
X521559Y279945D02*
Y280339D01*
X547445Y275102D02*
X547839D01*
X547445Y270181D02*
X547839D01*
X533638Y280445D02*
Y280839D01*
X538559Y280445D02*
Y280839D01*
X506988Y289102D02*
X507382D01*
X506988Y284181D02*
X507382D01*
X547445Y266102D02*
X547839D01*
X547445Y261181D02*
X547839D01*
X547445Y257602D02*
X547839D01*
X547445Y252681D02*
X547839D01*
X547445Y249602D02*
X547839D01*
X547445Y244681D02*
X547839D01*
X530059Y238988D02*
Y239382D01*
X525138Y238988D02*
Y239382D01*
X538559Y238902D02*
Y239295D01*
X533638Y238902D02*
Y239295D01*
X521559Y238988D02*
Y239382D01*
X516638Y238988D02*
Y239382D01*
X515402Y247681D02*
X515795D01*
X515402Y252602D02*
X515795D01*
X515402Y256681D02*
X515795D01*
X515402Y261602D02*
X515795D01*
X515445Y265681D02*
X515839D01*
X515445Y270602D02*
X515839D01*
X557181Y274445D02*
Y274839D01*
X562102Y274445D02*
Y274839D01*
X497360Y235033D02*
Y235427D01*
X502281Y235033D02*
Y235427D01*
X565181Y274988D02*
Y275382D01*
X570102Y274988D02*
Y275382D01*
X572303Y220638D02*
X572697D01*
X572303Y225362D02*
X572697D01*
X112063Y273862D02*
X112457D01*
X112063Y269138D02*
X112457D01*
X118543Y293862D02*
X118937D01*
X118543Y289138D02*
X118937D01*
X1018760Y377039D02*
X1019153D01*
X1018760Y381961D02*
X1019153D01*
X922260Y377039D02*
X922653D01*
X922260Y381961D02*
X922653D01*
X825760Y377539D02*
X826153D01*
X825760Y382461D02*
X826153D01*
X729429Y378390D02*
X729823D01*
X729429Y383311D02*
X729823D01*
X631910Y377539D02*
X632303D01*
X631910Y382461D02*
X632303D01*
X535409Y377539D02*
X535803D01*
X535409Y382461D02*
X535803D01*
X440260Y377539D02*
X440654D01*
X440260Y382461D02*
X440654D01*
X345910Y377039D02*
X346303D01*
X345910Y381961D02*
X346303D01*
X249760Y376039D02*
X250153D01*
X249760Y380961D02*
X250153D01*
X151409Y377039D02*
X151803D01*
X151409Y381961D02*
X151803D01*
X166539Y265760D02*
Y266154D01*
X171461Y265760D02*
Y266154D01*
M02*
