G04 Layer_Color=16711935*
%FSLAX25Y25*%
%MOIN*%
G70*
G01*
G75*
%ADD35R,0.04934X0.06312*%
%ADD42R,0.05328X0.06509*%
%ADD43R,0.06509X0.05328*%
%ADD45C,0.15800*%
%ADD46R,0.06706X0.06706*%
%ADD47C,0.06706*%
%ADD48C,0.06800*%
%ADD49R,0.06800X0.06800*%
%ADD50C,0.10642*%
%ADD51C,0.03162*%
D35*
X568760Y223000D02*
D03*
X576240D02*
D03*
X116000Y271500D02*
D03*
X108520D02*
D03*
X122480Y291500D02*
D03*
X115000D02*
D03*
D42*
X551185Y272642D02*
D03*
X544098D02*
D03*
X510728Y286642D02*
D03*
X503642D02*
D03*
X551185Y263642D02*
D03*
X544098D02*
D03*
X551185Y255142D02*
D03*
X544098D02*
D03*
X551185Y247142D02*
D03*
X544098D02*
D03*
X512055Y250142D02*
D03*
X519142D02*
D03*
X512055Y259142D02*
D03*
X519142D02*
D03*
X512098Y268142D02*
D03*
X519185D02*
D03*
X1015413Y379500D02*
D03*
X1022500D02*
D03*
X918913D02*
D03*
X926000D02*
D03*
X822413Y380000D02*
D03*
X829500D02*
D03*
X726083Y380850D02*
D03*
X733169D02*
D03*
X628563Y380000D02*
D03*
X635650D02*
D03*
X532063D02*
D03*
X539150D02*
D03*
X436913D02*
D03*
X444000D02*
D03*
X342563Y379500D02*
D03*
X349650D02*
D03*
X246413Y378500D02*
D03*
X253500D02*
D03*
X148063Y379500D02*
D03*
X155150D02*
D03*
D43*
X527598Y284185D02*
D03*
Y277098D02*
D03*
X519098Y283685D02*
D03*
Y276598D02*
D03*
X536098Y284185D02*
D03*
Y277098D02*
D03*
X527598Y235642D02*
D03*
Y242728D02*
D03*
X536098Y235555D02*
D03*
Y242642D02*
D03*
X519098Y235642D02*
D03*
Y242728D02*
D03*
X559642Y278185D02*
D03*
Y271098D02*
D03*
X499821Y238773D02*
D03*
Y231687D02*
D03*
X567642Y278728D02*
D03*
Y271642D02*
D03*
X169000Y269500D02*
D03*
Y262413D02*
D03*
D45*
X78740Y482283D02*
D03*
Y216535D02*
D03*
X1072835D02*
D03*
Y482283D02*
D03*
D46*
X516142Y205142D02*
D03*
D47*
X506142D02*
D03*
X496142D02*
D03*
X486142D02*
D03*
D48*
X123000Y272000D02*
D03*
X177000Y271000D02*
D03*
D49*
X123000Y282000D02*
D03*
X177000Y261000D02*
D03*
D50*
X1041831Y466150D02*
D03*
X979626D02*
D03*
X983957Y413000D02*
D03*
X1037500D02*
D03*
X945331Y466150D02*
D03*
X883126D02*
D03*
X887457Y413000D02*
D03*
X941000D02*
D03*
X848831Y466650D02*
D03*
X786626D02*
D03*
X790957Y413500D02*
D03*
X844500D02*
D03*
X752500Y467500D02*
D03*
X690295D02*
D03*
X694626Y414350D02*
D03*
X748169D02*
D03*
X654980Y466650D02*
D03*
X592776D02*
D03*
X597106Y413500D02*
D03*
X650650D02*
D03*
X558480Y466650D02*
D03*
X496276D02*
D03*
X500606Y413500D02*
D03*
X554150D02*
D03*
X463331Y466650D02*
D03*
X401126D02*
D03*
X405457Y413500D02*
D03*
X459000D02*
D03*
X368980Y466150D02*
D03*
X306776D02*
D03*
X311106Y413000D02*
D03*
X364650D02*
D03*
X272831Y465150D02*
D03*
X210626D02*
D03*
X214957Y412000D02*
D03*
X268500D02*
D03*
X174480Y466150D02*
D03*
X112276D02*
D03*
X116606Y413000D02*
D03*
X170150D02*
D03*
D51*
X167000Y303000D02*
D03*
X1011000Y354000D02*
D03*
X913500Y354500D02*
D03*
X817500D02*
D03*
X531443Y311057D02*
D03*
X721000Y355000D02*
D03*
X624500D02*
D03*
X527500Y353500D02*
D03*
X433000Y354000D02*
D03*
X338500D02*
D03*
X516500Y301000D02*
D03*
X242500Y354000D02*
D03*
X513500Y299000D02*
D03*
X524642Y216142D02*
D03*
X347000Y316000D02*
D03*
X342000Y311500D02*
D03*
X144000Y353500D02*
D03*
X496142Y212642D02*
D03*
X152000Y316000D02*
D03*
X147443Y354116D02*
D03*
X254500Y320500D02*
D03*
X156000Y321000D02*
D03*
X351000Y320500D02*
D03*
X350711Y355116D02*
D03*
X492098Y288142D02*
D03*
X567402Y219402D02*
D03*
X492142Y234642D02*
D03*
X488182Y238601D02*
D03*
X491142Y226142D02*
D03*
X509026Y298026D02*
D03*
X504642Y293642D02*
D03*
X1023561Y320939D02*
D03*
X1019500Y315500D02*
D03*
X1014500Y310500D02*
D03*
X927061Y355116D02*
D03*
X830561D02*
D03*
X734231Y356616D02*
D03*
X637000Y355500D02*
D03*
X927000Y321000D02*
D03*
X831000D02*
D03*
X734500D02*
D03*
X637000D02*
D03*
X540211Y355616D02*
D03*
X445061Y355116D02*
D03*
X254561Y353616D02*
D03*
X156211Y354116D02*
D03*
X540500Y321000D02*
D03*
X445000Y320500D02*
D03*
X918293Y355116D02*
D03*
X725462Y356616D02*
D03*
X821793Y355116D02*
D03*
X627943Y356116D02*
D03*
X531443Y355616D02*
D03*
X918293Y311000D02*
D03*
X822147Y310853D02*
D03*
X726000Y310500D02*
D03*
X627943Y310057D02*
D03*
X436293Y355116D02*
D03*
X341943D02*
D03*
X245793Y353616D02*
D03*
X435500Y311000D02*
D03*
X148000Y311500D02*
D03*
X246000D02*
D03*
X922500Y359000D02*
D03*
X730000Y360500D02*
D03*
X826177Y359500D02*
D03*
X632500D02*
D03*
X826500Y316000D02*
D03*
X922500D02*
D03*
X536000D02*
D03*
X730000D02*
D03*
X633000Y315500D02*
D03*
X440677Y359500D02*
D03*
X346500Y359000D02*
D03*
X250177Y358000D02*
D03*
X151827Y358500D02*
D03*
X440500Y316000D02*
D03*
X250500Y315900D02*
D03*
X1023561Y355116D02*
D03*
X1014793D02*
D03*
X1019000Y359000D02*
D03*
X172650Y372000D02*
D03*
X140150Y372500D02*
D03*
X131150Y379000D02*
D03*
X1040000Y372000D02*
D03*
X998500Y379000D02*
D03*
X1007500Y372500D02*
D03*
X902000Y379000D02*
D03*
X943500Y372000D02*
D03*
X911000Y372500D02*
D03*
X805500Y379500D02*
D03*
X847000Y372500D02*
D03*
X814500Y373000D02*
D03*
X709169Y380350D02*
D03*
X750669Y373350D02*
D03*
X718169Y373850D02*
D03*
X653150Y372500D02*
D03*
X611650Y379500D02*
D03*
X620650Y373000D02*
D03*
X515150Y379500D02*
D03*
X556650Y372500D02*
D03*
X524150Y373000D02*
D03*
X461500Y372500D02*
D03*
X420000Y379500D02*
D03*
X429000Y373000D02*
D03*
X325650Y379000D02*
D03*
X367150Y372000D02*
D03*
X334650Y372500D02*
D03*
X271000Y371000D02*
D03*
X229500Y378000D02*
D03*
X238500Y371500D02*
D03*
X567642Y286142D02*
D03*
X575142Y271642D02*
D03*
X551642Y217642D02*
D03*
X161500Y335000D02*
D03*
X260000Y334000D02*
D03*
X356000Y335000D02*
D03*
X450500Y335500D02*
D03*
X546000D02*
D03*
X642000D02*
D03*
X739650Y336350D02*
D03*
X836000Y335500D02*
D03*
X933000Y335000D02*
D03*
X1029000D02*
D03*
X568142Y240642D02*
D03*
X583642Y226642D02*
D03*
X602000Y273000D02*
D03*
Y227500D02*
D03*
X566000Y238500D02*
D03*
Y266500D02*
D03*
X545642Y293642D02*
D03*
X551476Y293876D02*
D03*
X520781Y293719D02*
D03*
X524100Y296900D02*
D03*
X533482Y295500D02*
D03*
X518500Y304000D02*
D03*
X522500Y300500D02*
D03*
X530500Y297500D02*
D03*
X528781Y300000D02*
D03*
X526500Y303000D02*
D03*
X539500Y308000D02*
D03*
X543602Y308102D02*
D03*
Y316102D02*
D03*
X574750Y330750D02*
D03*
Y308750D02*
D03*
X535827Y356500D02*
D03*
X569500Y331500D02*
D03*
Y308000D02*
D03*
X492098Y308500D02*
D03*
Y328000D02*
D03*
X578276Y254776D02*
D03*
X565669Y252831D02*
D03*
M02*
