M48
;Layer_Color=9474304
;FILE_FORMAT=2:5
INCH,LZ
;TYPE=PLATED
T1F00S00C0.01181
T2F00S00C0.04000
;TYPE=NON_PLATED
T3F00S00C0.12000
%
T01
X01419Y0135
X01534
X0162Y01275
X0186Y0132
Y0138
X0194
Y0132
X0202
Y0138
Y0148
Y0156
X0194
X0186
Y0148
X0194
X01745Y01535
X0186Y012
X0194
X0202
X0229Y0122
X0233Y01265
X0249Y0124
X0241Y01405
X02315Y0149
X0267Y01355
X02774Y013435
X02889
X0297Y01275
X0293Y01475
Y01515
X02986Y01551
X0283Y00905
X02695Y0092
X0322Y0118
X033
X0338
Y0128
X033
X0322
Y0138
X033
X0338
Y0148
Y0156
X033
X0322
Y0148
X033
X03785
X03765Y013985
X03685Y012585
X03645Y012135
X03845Y012335
X03735Y017
X03695Y0167
X03635
X03645Y0163
X0338Y0164
Y0172
X033
X0322
Y0164
X033
X03475Y02205
X0355Y02215
X03315Y02425
X0335Y02695
X0327Y0276
X0314Y0286
X03435Y03085
X0366Y0312
X03655Y0277
X03675Y02725
X03475Y026
X02775Y0261
Y02525
X0268Y0276
X027Y0294
X02795Y0291
X02725Y0308
X0192Y0306
X0182
X0184Y03
X0176Y0296
X0168
X0158
X0162Y0306
X0172
Y0288
X0164
X01785Y02785
X01835Y0279
X01885
X0192Y0288
X0198Y0296
X0204Y027
X01745Y0262
X01665Y0252
X0216Y0233
X02085Y02175
X02135Y01925
X0217Y0193
X0226Y01885
X0243Y0188
Y01785
X0234Y0175
X02305Y0162
X0228Y01575
X02515Y0159
X0202Y0164
Y0172
X0194
X0186
Y0164
X0194
X01965Y0195
X01825Y0194
X01625Y01685
X01605Y01575
X0297Y0169
X0294Y01795
X03025Y019
X015Y0244
X01525Y026
X0148Y0264
X015Y0288
X0156
X0144
Y0296
X015
X0154Y03
X0152Y0306
X0144
X01475Y03345
X0154Y0332
X0147Y03735
X01475Y0443
X01395Y0445
X01468Y0458
X01605Y0446
X01595Y0441
X01605Y04365
X01585Y04305
X0186Y0436
Y0444
X0194
X02
Y0436
X0194
X0192Y043
X02Y0428
Y0452
X0194
Y046
X02
X0186
Y0452
X02255Y0451
X0226Y0446
X02255Y0441
X0236Y0442
X0248Y0446
X0245Y04295
X0219Y04225
X02344Y04635
X02459
X0254Y0466
X02844Y0459
X0272Y04425
X03055Y0442
X03045Y0447
X0304Y0437
X02925Y04175
X03Y0408
X03085Y04085
X03045Y04015
X03055Y03915
X03085Y0392
X0312Y03945
X02965Y0386
X0288Y0365
X0288596Y0361
X0289Y0358
X0285634Y036174
X02855Y03675
X0278Y03665
X02775Y037
X0277Y03735
X0285634Y035424
X02885Y0350468
X0286Y0342469
X0285633Y0333633
X0284Y033
X0288Y0328
X0292Y0318
X0302Y03175
X0306546Y0318736
X0309906Y0317906
X031Y0314
Y0334968
X02735Y03455
X0271Y0349969
X02055Y0341
X0198Y0331
X01835Y03255
X01785Y0325
X01745Y03255
X0178Y03385
X0183Y0345
X0161Y03396
Y03511
X01565Y03505
X01985Y0357
X0161Y03975
X0314Y0397
X03215Y03975
X03225Y0407
X0319
X03125Y04075
X03425Y0406
X0338Y0428
X0332
X0326
Y0438
X0332
X0338
Y0448
X0332
Y0458
X0338
Y0466
X0332
X0322
Y0458
Y0448
X03635Y04465
X0363Y0433
X0373Y0438
X0372Y04645
X03835
X03655Y03975
X0366Y0382469
X03605Y0377969
X0361Y0371969
X036Y03575
X03595Y03545
Y03485
X03585Y0343938
X0365Y03415
X03635Y0337
X03645Y03505
X0367Y03255
X03675Y03215
X03535Y03155
X03505Y03165
X03465Y0318969
X03435Y03195
X0341Y0316
X03365Y03145
X0323802Y0317802
X0319833Y0317833
X0316095Y0318095
X0314Y0316
X03185Y0332968
X0338Y0367469
X03445Y0368468
X0344Y0362
X03505Y0383498
X03545Y0387968
X03585Y0385
X0365Y0472
X0338Y0474
X0332
X033Y0482
X0322
Y0474
X0338Y0482
X02964Y04775
X02924Y0473
X02764Y04755
X0227Y0471
X02Y047
X0194
X0186
Y048
X0194
X02
X01588Y04765
X01548Y0472
X01388Y04745
T02
X01374Y01145
X01474
X02429
X02529
X02729Y011385
X02829
X03784
X03884
X0452Y0118
Y0128
Y0138
Y0108
Y0094
Y0084
Y0074
Y0064
Y0158
Y0168
Y0178
Y0188
X0454Y0204
Y0214
Y0224
Y0234
X0452Y0252
Y0262
Y0272
Y0282
X045Y0304
X03795Y02655
Y02555
Y02435
Y02335
Y02215
Y02115
X01405Y02401
Y02501
Y03456
Y03556
X0383047Y036174
Y037174
Y038174
Y039174
X045Y0404
Y0414
Y0424
Y0434
Y045
Y046
X0452Y038
Y037
Y036
Y035
X045Y0334
Y0324
Y0314
Y047
Y048
Y0496
Y0506
Y0516
Y0526
X0388Y0485
X0378
X02825
X02725
X02504Y0484
X02404
X01449
X01349
T03
X0116Y007
X0484Y0066
Y0528
X0114
M30
