G04 Layer_Color=8388736*
%FSLAX25Y25*%
%MOIN*%
G70*
G01*
G75*
%ADD11R,0.24400X0.63000*%
%ADD12R,0.08300X0.02500*%
%ADD17R,0.63000X0.24400*%
%ADD18R,0.02500X0.08300*%
%ADD44R,0.04737X0.04343*%
%ADD45R,0.26391X0.22453*%
%ADD46R,0.09068X0.04540*%
%ADD47O,0.07887X0.01981*%
%ADD48O,0.01981X0.07887*%
%ADD49R,0.05328X0.06509*%
%ADD50R,0.04934X0.06312*%
%ADD51R,0.06312X0.04934*%
%ADD52R,0.06509X0.05328*%
%ADD53R,0.04343X0.04737*%
%ADD54R,0.05524X0.02375*%
%ADD55R,0.06312X0.09068*%
%ADD56R,0.05800X0.06800*%
%ADD57R,0.06800X0.06800*%
%ADD58C,0.06800*%
%ADD59R,0.06800X0.06800*%
%ADD60C,0.00800*%
%ADD61C,0.03162*%
D11*
X330500Y454500D02*
D03*
X192900Y453500D02*
D03*
X330400Y144350D02*
D03*
X194900Y145000D02*
D03*
D12*
X357100Y477000D02*
D03*
Y472000D02*
D03*
Y467000D02*
D03*
Y462000D02*
D03*
Y457000D02*
D03*
Y452000D02*
D03*
Y447000D02*
D03*
Y442000D02*
D03*
Y437000D02*
D03*
Y432000D02*
D03*
X303900D02*
D03*
Y437000D02*
D03*
Y442000D02*
D03*
Y447000D02*
D03*
Y452000D02*
D03*
Y457000D02*
D03*
Y462000D02*
D03*
Y467000D02*
D03*
Y472000D02*
D03*
Y477000D02*
D03*
X219500Y476000D02*
D03*
Y471000D02*
D03*
Y466000D02*
D03*
Y461000D02*
D03*
Y456000D02*
D03*
Y451000D02*
D03*
Y446000D02*
D03*
Y441000D02*
D03*
Y436000D02*
D03*
Y431000D02*
D03*
X166300D02*
D03*
Y436000D02*
D03*
Y441000D02*
D03*
Y446000D02*
D03*
Y451000D02*
D03*
Y456000D02*
D03*
Y461000D02*
D03*
Y466000D02*
D03*
Y471000D02*
D03*
Y476000D02*
D03*
X303800Y121850D02*
D03*
Y126850D02*
D03*
Y131850D02*
D03*
Y136850D02*
D03*
Y141850D02*
D03*
Y146850D02*
D03*
Y151850D02*
D03*
Y156850D02*
D03*
Y161850D02*
D03*
Y166850D02*
D03*
X357000D02*
D03*
Y161850D02*
D03*
Y156850D02*
D03*
Y151850D02*
D03*
Y146850D02*
D03*
Y141850D02*
D03*
Y136850D02*
D03*
Y131850D02*
D03*
Y126850D02*
D03*
Y121850D02*
D03*
X168300Y122500D02*
D03*
Y127500D02*
D03*
Y132500D02*
D03*
Y137500D02*
D03*
Y142500D02*
D03*
Y147500D02*
D03*
Y152500D02*
D03*
Y157500D02*
D03*
Y162500D02*
D03*
Y167500D02*
D03*
X221500D02*
D03*
Y162500D02*
D03*
Y157500D02*
D03*
Y152500D02*
D03*
Y147500D02*
D03*
Y142500D02*
D03*
Y137500D02*
D03*
Y132500D02*
D03*
Y127500D02*
D03*
Y122500D02*
D03*
D17*
X171000Y298100D02*
D03*
D18*
X148500Y324700D02*
D03*
X153500D02*
D03*
X158500D02*
D03*
X163500D02*
D03*
X168500D02*
D03*
X173500D02*
D03*
X178500D02*
D03*
X183500D02*
D03*
X188500D02*
D03*
X193500D02*
D03*
Y271500D02*
D03*
X188500D02*
D03*
X183500D02*
D03*
X178500D02*
D03*
X173500D02*
D03*
X168500D02*
D03*
X163500D02*
D03*
X158500D02*
D03*
X153500D02*
D03*
X148500D02*
D03*
D44*
X233000Y188150D02*
D03*
Y181850D02*
D03*
X154800Y410350D02*
D03*
Y416650D02*
D03*
X139300Y449850D02*
D03*
Y456150D02*
D03*
X276900Y450850D02*
D03*
Y457150D02*
D03*
X292400Y411350D02*
D03*
Y417650D02*
D03*
X272000Y328850D02*
D03*
Y335150D02*
D03*
X264000Y329701D02*
D03*
Y336000D02*
D03*
X248500Y148650D02*
D03*
Y142350D02*
D03*
X368500Y187500D02*
D03*
Y181201D02*
D03*
X384000Y148000D02*
D03*
Y141701D02*
D03*
D45*
X302740Y218524D02*
D03*
X304240Y260524D02*
D03*
D46*
X327543Y227500D02*
D03*
Y209547D02*
D03*
X329043Y269500D02*
D03*
Y251547D02*
D03*
D47*
X294051Y377776D02*
D03*
Y375807D02*
D03*
Y373839D02*
D03*
Y371870D02*
D03*
Y369902D02*
D03*
Y367933D02*
D03*
Y365965D02*
D03*
Y363996D02*
D03*
Y362028D02*
D03*
Y360059D02*
D03*
Y358090D02*
D03*
Y356122D02*
D03*
Y354153D02*
D03*
Y352185D02*
D03*
Y350217D02*
D03*
Y348248D02*
D03*
Y346280D02*
D03*
Y344311D02*
D03*
Y342342D02*
D03*
Y340374D02*
D03*
Y338405D02*
D03*
Y336437D02*
D03*
Y334469D02*
D03*
Y332500D02*
D03*
Y330532D02*
D03*
X353500D02*
D03*
Y332500D02*
D03*
Y334469D02*
D03*
Y336437D02*
D03*
Y338405D02*
D03*
Y340374D02*
D03*
Y342342D02*
D03*
Y344311D02*
D03*
Y346280D02*
D03*
Y348248D02*
D03*
Y350217D02*
D03*
Y352185D02*
D03*
Y354153D02*
D03*
Y356122D02*
D03*
Y358090D02*
D03*
Y360059D02*
D03*
Y362028D02*
D03*
Y363996D02*
D03*
Y365965D02*
D03*
Y367933D02*
D03*
Y369902D02*
D03*
Y371870D02*
D03*
Y373839D02*
D03*
Y375807D02*
D03*
Y377776D02*
D03*
D48*
X300153Y324429D02*
D03*
X302122D02*
D03*
X304090D02*
D03*
X306059D02*
D03*
X308028D02*
D03*
X309996D02*
D03*
X311965D02*
D03*
X313933D02*
D03*
X315902D02*
D03*
X317870D02*
D03*
X319839D02*
D03*
X321807D02*
D03*
X323776D02*
D03*
X325744D02*
D03*
X327713D02*
D03*
X329681D02*
D03*
X331650D02*
D03*
X333618D02*
D03*
X335587D02*
D03*
X337555D02*
D03*
X339524D02*
D03*
X341492D02*
D03*
X343461D02*
D03*
X345429D02*
D03*
X347398D02*
D03*
Y383878D02*
D03*
X345429D02*
D03*
X343461D02*
D03*
X341492D02*
D03*
X339524D02*
D03*
X337555D02*
D03*
X335587D02*
D03*
X333618D02*
D03*
X331650D02*
D03*
X329681D02*
D03*
X327713D02*
D03*
X325744D02*
D03*
X323776D02*
D03*
X321807D02*
D03*
X319839D02*
D03*
X317870D02*
D03*
X315902D02*
D03*
X313933D02*
D03*
X311965D02*
D03*
X309996D02*
D03*
X308028D02*
D03*
X306059D02*
D03*
X304090D02*
D03*
X302122D02*
D03*
X300153D02*
D03*
D49*
X347043Y231500D02*
D03*
X339957D02*
D03*
X331043Y242500D02*
D03*
X338130D02*
D03*
X336500Y281000D02*
D03*
X343587D02*
D03*
D50*
X339803Y220500D02*
D03*
X347284D02*
D03*
X347043Y209500D02*
D03*
X339563D02*
D03*
X346783Y254500D02*
D03*
X339303D02*
D03*
X359283Y281000D02*
D03*
X351803D02*
D03*
D51*
X349043Y264760D02*
D03*
Y272240D02*
D03*
X340043Y264760D02*
D03*
Y272240D02*
D03*
X406000Y397740D02*
D03*
Y390260D02*
D03*
D52*
X358543Y272043D02*
D03*
Y264957D02*
D03*
D53*
X174650Y244500D02*
D03*
X168350D02*
D03*
X214150Y260000D02*
D03*
X207850D02*
D03*
D54*
X278634Y353016D02*
D03*
Y357740D02*
D03*
Y362465D02*
D03*
D55*
X269905Y393653D02*
D03*
Y357827D02*
D03*
X252189D02*
D03*
Y393653D02*
D03*
D56*
X406000Y381000D02*
D03*
Y372000D02*
D03*
D57*
X452000Y94000D02*
D03*
Y138000D02*
D03*
Y188000D02*
D03*
X454000Y234000D02*
D03*
X452000Y282000D02*
D03*
X450000Y334000D02*
D03*
X452000Y380000D02*
D03*
X450000Y434000D02*
D03*
Y480000D02*
D03*
Y526000D02*
D03*
X379500Y243500D02*
D03*
Y221500D02*
D03*
X383047Y391740D02*
D03*
X140500Y345600D02*
D03*
Y240100D02*
D03*
X379500Y265500D02*
D03*
D58*
X452000Y84000D02*
D03*
Y74000D02*
D03*
Y64000D02*
D03*
Y128000D02*
D03*
Y118000D02*
D03*
Y108000D02*
D03*
Y178000D02*
D03*
Y168000D02*
D03*
Y158000D02*
D03*
X454000Y224000D02*
D03*
Y214000D02*
D03*
Y204000D02*
D03*
X452000Y272000D02*
D03*
Y262000D02*
D03*
Y252000D02*
D03*
X450000Y324000D02*
D03*
Y314000D02*
D03*
Y304000D02*
D03*
X452000Y370000D02*
D03*
Y360000D02*
D03*
Y350000D02*
D03*
X450000Y424000D02*
D03*
Y414000D02*
D03*
Y404000D02*
D03*
Y470000D02*
D03*
Y460000D02*
D03*
Y450000D02*
D03*
Y516000D02*
D03*
Y506000D02*
D03*
Y496000D02*
D03*
X379500Y233500D02*
D03*
Y211500D02*
D03*
X383047Y381740D02*
D03*
Y371740D02*
D03*
Y361740D02*
D03*
X140500Y355600D02*
D03*
Y250100D02*
D03*
X250400Y484000D02*
D03*
X379500Y255500D02*
D03*
X272900Y113850D02*
D03*
X242900Y114500D02*
D03*
X137400D02*
D03*
X378400Y113850D02*
D03*
X282500Y485000D02*
D03*
X388000D02*
D03*
X144900Y484000D02*
D03*
D59*
X240400D02*
D03*
X282900Y113850D02*
D03*
X252900Y114500D02*
D03*
X147400D02*
D03*
X388400Y113850D02*
D03*
X272500Y485000D02*
D03*
X378000D02*
D03*
X134900Y484000D02*
D03*
D60*
X484000Y528000D02*
D03*
Y66000D02*
D03*
X116000Y70000D02*
D03*
X114000Y528000D02*
D03*
D61*
X344000Y362000D02*
D03*
X309906Y317906D02*
D03*
X314000Y316000D02*
D03*
X316095Y318095D02*
D03*
X310000Y314000D02*
D03*
X366000Y312000D02*
D03*
X346500Y318969D02*
D03*
X343500Y319500D02*
D03*
X350500Y316500D02*
D03*
X353500Y315500D02*
D03*
X367500Y321500D02*
D03*
X367000Y325500D02*
D03*
X323802Y317802D02*
D03*
X319833Y317833D02*
D03*
X306546Y318736D02*
D03*
X302000Y317500D02*
D03*
X360500Y377969D02*
D03*
X365000Y341500D02*
D03*
X363500Y337000D02*
D03*
X341000Y316000D02*
D03*
X292000Y318000D02*
D03*
X288000Y328000D02*
D03*
X284000Y330000D02*
D03*
X285633Y333633D02*
D03*
X288000Y365000D02*
D03*
X277500Y370000D02*
D03*
X213500Y192500D02*
D03*
X217000Y193000D02*
D03*
X226000Y188500D02*
D03*
X378500Y148000D02*
D03*
X364500Y121350D02*
D03*
X368500Y125850D02*
D03*
X373500Y170000D02*
D03*
X288596Y361000D02*
D03*
X305500Y391500D02*
D03*
X279500Y291000D02*
D03*
X314000Y286000D02*
D03*
X270000Y294000D02*
D03*
X272500Y308000D02*
D03*
X347500Y260000D02*
D03*
X365500Y277000D02*
D03*
X367500Y272500D02*
D03*
X335000Y269500D02*
D03*
X296500Y386000D02*
D03*
X369500Y167000D02*
D03*
X289000Y358000D02*
D03*
X364500Y163000D02*
D03*
X350500Y383498D02*
D03*
X293000Y147500D02*
D03*
X277500Y252500D02*
D03*
X343500Y308500D02*
D03*
X293000Y151500D02*
D03*
X277500Y261000D02*
D03*
X358500Y343938D02*
D03*
X336500Y314500D02*
D03*
X294000Y179500D02*
D03*
X302500Y190000D02*
D03*
X363500Y167000D02*
D03*
X298600Y155100D02*
D03*
X268000Y276000D02*
D03*
X297000Y169000D02*
D03*
Y127500D02*
D03*
X267000Y135500D02*
D03*
X251500Y159000D02*
D03*
X243000Y188000D02*
D03*
Y178500D02*
D03*
X162500Y168500D02*
D03*
X162000Y127500D02*
D03*
X231500Y149000D02*
D03*
X174500Y262000D02*
D03*
X216000Y233000D02*
D03*
X204000Y270000D02*
D03*
X228000Y157500D02*
D03*
X230500Y162000D02*
D03*
X174500Y153500D02*
D03*
X196500Y195000D02*
D03*
X160500Y157500D02*
D03*
X182500Y194000D02*
D03*
X285634Y354240D02*
D03*
Y361740D02*
D03*
X154000Y332000D02*
D03*
X156500Y350500D02*
D03*
X178000Y338500D02*
D03*
X183000Y345000D02*
D03*
X205500Y341000D02*
D03*
X198000Y331000D02*
D03*
X147500Y334500D02*
D03*
X147000Y373500D02*
D03*
X158500Y430500D02*
D03*
X147500Y443000D02*
D03*
X139500Y445000D02*
D03*
X245000Y429500D02*
D03*
X236000Y442000D02*
D03*
X248000Y446000D02*
D03*
X272000Y442500D02*
D03*
X225500Y451000D02*
D03*
X226000Y446000D02*
D03*
X219000Y422500D02*
D03*
X227000Y471000D02*
D03*
X254000Y466000D02*
D03*
X273500Y345500D02*
D03*
X359500Y348500D02*
D03*
X364500Y350500D02*
D03*
X361000Y371969D02*
D03*
X178500Y278500D02*
D03*
X183500Y279000D02*
D03*
X359500Y354500D02*
D03*
X373000Y438000D02*
D03*
X363000Y433000D02*
D03*
X365000Y472000D02*
D03*
X365500Y397500D02*
D03*
X360000Y357500D02*
D03*
X358500Y385000D02*
D03*
X321500Y397500D02*
D03*
X314000Y397000D02*
D03*
X312000Y394500D02*
D03*
X308500Y392000D02*
D03*
Y408500D02*
D03*
X312500Y407500D02*
D03*
X225500Y441000D02*
D03*
X304500Y401500D02*
D03*
X160500Y436500D02*
D03*
X159500Y441000D02*
D03*
X160500Y446000D02*
D03*
X285500Y367500D02*
D03*
X245900Y463500D02*
D03*
X234400D02*
D03*
X138800Y474500D02*
D03*
X154800Y472000D02*
D03*
X146800Y458000D02*
D03*
X158800Y476500D02*
D03*
X284400Y459000D02*
D03*
X296400Y477500D02*
D03*
X276400Y475500D02*
D03*
X292400Y473000D02*
D03*
X372000Y464500D02*
D03*
X383500D02*
D03*
X376500Y139850D02*
D03*
X384500Y123350D02*
D03*
X288900Y134350D02*
D03*
X277400D02*
D03*
X241000Y140500D02*
D03*
X229000Y122000D02*
D03*
X249000Y124000D02*
D03*
X233000Y126500D02*
D03*
X153400Y135000D02*
D03*
X141900D02*
D03*
X166500Y252000D02*
D03*
X148000Y264000D02*
D03*
X150000Y244000D02*
D03*
X152500Y260000D02*
D03*
X161000Y339600D02*
D03*
Y351100D02*
D03*
X366000Y382469D02*
D03*
X354500Y387968D02*
D03*
X318500Y332968D02*
D03*
X310000Y334968D02*
D03*
X344500Y368468D02*
D03*
X338000Y367469D02*
D03*
X271000Y349969D02*
D03*
X286000Y342469D02*
D03*
X288500Y350468D02*
D03*
X331500Y242500D02*
D03*
X355000Y221500D02*
D03*
X347500Y220500D02*
D03*
X327000Y276000D02*
D03*
X342500Y406000D02*
D03*
X363500Y446500D02*
D03*
X305500Y442000D02*
D03*
X304500Y447000D02*
D03*
X304000Y437000D02*
D03*
X277000Y373500D02*
D03*
X178500Y325000D02*
D03*
X278000Y366500D02*
D03*
X183500Y325500D02*
D03*
X322500Y407000D02*
D03*
X319000D02*
D03*
X300000Y408000D02*
D03*
X292500Y417500D02*
D03*
X174500Y325500D02*
D03*
X198500Y357000D02*
D03*
X188500Y279000D02*
D03*
X208500Y217500D02*
D03*
X234000Y175000D02*
D03*
X161000Y397500D02*
D03*
X269500Y92000D02*
D03*
X283000Y90500D02*
D03*
X186000Y480000D02*
D03*
X200000D02*
D03*
Y470000D02*
D03*
Y444000D02*
D03*
Y436000D02*
D03*
Y428000D02*
D03*
X186000Y460000D02*
D03*
Y444000D02*
D03*
Y436000D02*
D03*
X194000D02*
D03*
X192000Y430000D02*
D03*
X194000Y444000D02*
D03*
Y460000D02*
D03*
X186000Y470000D02*
D03*
X194000D02*
D03*
Y480000D02*
D03*
X200000Y460000D02*
D03*
Y452000D02*
D03*
X194000D02*
D03*
X186000D02*
D03*
X322000Y482000D02*
D03*
X330000D02*
D03*
X338000D02*
D03*
Y474000D02*
D03*
Y466000D02*
D03*
Y458000D02*
D03*
Y448000D02*
D03*
Y438000D02*
D03*
Y428000D02*
D03*
X332000D02*
D03*
Y438000D02*
D03*
Y448000D02*
D03*
Y458000D02*
D03*
Y466000D02*
D03*
Y474000D02*
D03*
X322000D02*
D03*
Y466000D02*
D03*
Y458000D02*
D03*
Y448000D02*
D03*
X326000Y438000D02*
D03*
Y428000D02*
D03*
X322000Y172000D02*
D03*
X330000D02*
D03*
X338000D02*
D03*
Y164000D02*
D03*
X330000D02*
D03*
X322000D02*
D03*
Y156000D02*
D03*
X330000D02*
D03*
X338000D02*
D03*
Y148000D02*
D03*
X330000D02*
D03*
X322000D02*
D03*
Y138000D02*
D03*
X330000D02*
D03*
X338000D02*
D03*
Y128000D02*
D03*
X330000D02*
D03*
X322000D02*
D03*
Y118000D02*
D03*
X330000D02*
D03*
X338000D02*
D03*
X186000Y172000D02*
D03*
X194000D02*
D03*
X202000D02*
D03*
Y164000D02*
D03*
Y156000D02*
D03*
Y148000D02*
D03*
Y120000D02*
D03*
X186000Y164000D02*
D03*
Y156000D02*
D03*
Y148000D02*
D03*
Y138000D02*
D03*
X202000D02*
D03*
X194000Y164000D02*
D03*
Y156000D02*
D03*
Y148000D02*
D03*
Y138000D02*
D03*
X186000Y120000D02*
D03*
X194000D02*
D03*
X186000Y132000D02*
D03*
X194000D02*
D03*
X202000D02*
D03*
X144000Y306000D02*
D03*
X152000D02*
D03*
X162000D02*
D03*
X172000D02*
D03*
X182000D02*
D03*
X192000D02*
D03*
X198000Y296000D02*
D03*
X192000Y288000D02*
D03*
X172000D02*
D03*
X164000D02*
D03*
X156000D02*
D03*
X150000D02*
D03*
X144000D02*
D03*
Y296000D02*
D03*
X150000D02*
D03*
X158000D02*
D03*
X168000D02*
D03*
X176000D02*
D03*
X184000Y300000D02*
D03*
X154000D02*
D03*
M02*
