G04 Layer_Color=65535*
%FSLAX25Y25*%
%MOIN*%
G70*
G01*
G75*
%ADD27C,0.00984*%
%ADD28C,0.01000*%
%ADD39C,0.02362*%
%ADD40C,0.00787*%
%ADD41C,0.00600*%
%ADD42C,0.00591*%
%ADD43C,0.00400*%
G36*
X227650Y166750D02*
X226650D01*
Y168250D01*
X227650D01*
Y166750D01*
D02*
G37*
G36*
X194250Y265350D02*
X192750D01*
Y266350D01*
X194250D01*
Y265350D01*
D02*
G37*
G36*
X363150Y166100D02*
X362150D01*
Y167600D01*
X363150D01*
Y166100D01*
D02*
G37*
G36*
X298650Y121100D02*
X297650D01*
Y122600D01*
X298650D01*
Y121100D01*
D02*
G37*
G36*
X163150Y121750D02*
X162150D01*
Y123250D01*
X163150D01*
Y121750D01*
D02*
G37*
G36*
X225650Y475250D02*
X224650D01*
Y476750D01*
X225650D01*
Y475250D01*
D02*
G37*
G36*
X363250Y476250D02*
X362250D01*
Y477750D01*
X363250D01*
Y476250D01*
D02*
G37*
G36*
X298750Y431250D02*
X297750D01*
Y432750D01*
X298750D01*
Y431250D01*
D02*
G37*
G36*
X149250Y329850D02*
X147750D01*
Y330850D01*
X149250D01*
Y329850D01*
D02*
G37*
G36*
X161150Y430250D02*
X160150D01*
Y431750D01*
X161150D01*
Y430250D01*
D02*
G37*
D27*
X328035Y205512D02*
G03*
X328035Y205512I-492J0D01*
G01*
X294543Y380532D02*
G03*
X294543Y380532I-492J0D01*
G01*
X329535Y247512D02*
G03*
X329535Y247512I-492J0D01*
G01*
D28*
X268145Y375740D02*
G03*
X268145Y375740I-7097J0D01*
G01*
X251205Y365898D02*
X270890D01*
X251205D02*
Y385583D01*
X270890D01*
Y365898D02*
Y385583D01*
X295000Y89192D02*
Y85194D01*
X296999Y83194D01*
X298999Y85194D01*
Y89192D01*
X301998Y87193D02*
X303997D01*
X304997Y86193D01*
Y83194D01*
X301998D01*
X300998Y84194D01*
X301998Y85194D01*
X304997D01*
X306996Y83194D02*
X308996D01*
X307996D01*
Y89192D01*
X306996D01*
X311995Y87193D02*
X313994Y83194D01*
X315993Y87193D01*
X320992Y83194D02*
X318992D01*
X317993Y84194D01*
Y86193D01*
X318992Y87193D01*
X320992D01*
X321991Y86193D01*
Y85194D01*
X317993D01*
X323991Y82195D02*
X327989D01*
X329989Y83194D02*
Y89192D01*
X331988Y87193D01*
X333987Y89192D01*
Y83194D01*
X336986D02*
X338986D01*
X339985Y84194D01*
Y86193D01*
X338986Y87193D01*
X336986D01*
X335987Y86193D01*
Y84194D01*
X336986Y83194D01*
X345984Y89192D02*
Y83194D01*
X342985D01*
X341985Y84194D01*
Y86193D01*
X342985Y87193D01*
X345984D01*
X347983D02*
Y84194D01*
X348983Y83194D01*
X351982D01*
Y87193D01*
X353981Y83194D02*
X355980D01*
X354981D01*
Y89192D01*
X353981D01*
X361978Y83194D02*
X359979D01*
X358979Y84194D01*
Y86193D01*
X359979Y87193D01*
X361978D01*
X362978Y86193D01*
Y85194D01*
X358979D01*
X295000Y78595D02*
X298999D01*
X296999D01*
Y72597D01*
X301998Y76596D02*
X303997D01*
X304997Y75596D01*
Y72597D01*
X301998D01*
X300998Y73597D01*
X301998Y74596D01*
X304997D01*
X306996Y76596D02*
Y72597D01*
Y74596D01*
X307996Y75596D01*
X308996Y76596D01*
X309995D01*
X313994D02*
X315993D01*
X316993Y75596D01*
Y72597D01*
X313994D01*
X312994Y73597D01*
X313994Y74596D01*
X316993D01*
X324990Y72597D02*
Y78595D01*
X327989D01*
X328989Y77595D01*
Y75596D01*
X327989Y74596D01*
X324990D01*
X331988Y72597D02*
X333987D01*
X334987Y73597D01*
Y75596D01*
X333987Y76596D01*
X331988D01*
X330988Y75596D01*
Y73597D01*
X331988Y72597D01*
X336986Y76596D02*
Y72597D01*
Y74596D01*
X337986Y75596D01*
X338986Y76596D01*
X339985D01*
X343984Y77595D02*
Y76596D01*
X342985D01*
X344984D01*
X343984D01*
Y73597D01*
X344984Y72597D01*
X350982D02*
X348983D01*
X347983Y73597D01*
Y75596D01*
X348983Y76596D01*
X350982D01*
X351982Y75596D01*
Y74596D01*
X347983D01*
X353981Y76596D02*
Y72597D01*
Y74596D01*
X354981Y75596D01*
X355980Y76596D01*
X356980D01*
X295000Y62999D02*
Y66998D01*
X296999Y68997D01*
X298999Y66998D01*
Y62999D01*
Y65998D01*
X295000D01*
X300998Y61000D02*
Y66998D01*
X303997D01*
X304997Y65998D01*
Y63999D01*
X303997Y62999D01*
X300998D01*
X306996Y66998D02*
Y62999D01*
Y64999D01*
X307996Y65998D01*
X308996Y66998D01*
X309995D01*
X312994Y62999D02*
X314994D01*
X313994D01*
Y66998D01*
X312994D01*
X317993Y62999D02*
X319992D01*
X318992D01*
Y68997D01*
X317993D01*
X332988Y62999D02*
X328989D01*
X332988Y66998D01*
Y67998D01*
X331988Y68997D01*
X329989D01*
X328989Y67998D01*
X334987D02*
X335987Y68997D01*
X337986D01*
X338986Y67998D01*
Y63999D01*
X337986Y62999D01*
X335987D01*
X334987Y63999D01*
Y67998D01*
X340985Y62999D02*
X342985D01*
X341985D01*
Y68997D01*
X340985Y67998D01*
X345984D02*
X346983Y68997D01*
X348983D01*
X349982Y67998D01*
Y66998D01*
X348983Y65998D01*
X349982Y64999D01*
Y63999D01*
X348983Y62999D01*
X346983D01*
X345984Y63999D01*
Y64999D01*
X346983Y65998D01*
X345984Y66998D01*
Y67998D01*
X346983Y65998D02*
X348983D01*
X475998Y94000D02*
X471999D01*
X470000Y92001D01*
X471999Y90001D01*
X475998D01*
X473999Y87002D02*
Y85003D01*
X472999Y84003D01*
X470000D01*
Y87002D01*
X471000Y88002D01*
X471999Y87002D01*
Y84003D01*
X470000Y82004D02*
Y80005D01*
Y81004D01*
X475998D01*
Y82004D01*
X473999Y77005D02*
X470000Y75006D01*
X473999Y73007D01*
X470000Y68008D02*
Y70008D01*
X471000Y71007D01*
X472999D01*
X473999Y70008D01*
Y68008D01*
X472999Y67009D01*
X471999D01*
Y71007D01*
X475998Y61011D02*
Y65009D01*
X472999D01*
X473999Y63010D01*
Y62010D01*
X472999Y61011D01*
X471000D01*
X470000Y62010D01*
Y64010D01*
X471000Y65009D01*
X475998Y138000D02*
X471999D01*
X470000Y136001D01*
X471999Y134001D01*
X475998D01*
X473999Y131002D02*
Y129003D01*
X472999Y128003D01*
X470000D01*
Y131002D01*
X471000Y132002D01*
X471999Y131002D01*
Y128003D01*
X470000Y126004D02*
Y124004D01*
Y125004D01*
X475998D01*
Y126004D01*
X473999Y121005D02*
X470000Y119006D01*
X473999Y117007D01*
X470000Y112008D02*
Y114008D01*
X471000Y115007D01*
X472999D01*
X473999Y114008D01*
Y112008D01*
X472999Y111009D01*
X471999D01*
Y115007D01*
X475998Y105011D02*
X474998Y107010D01*
X472999Y109009D01*
X471000D01*
X470000Y108010D01*
Y106010D01*
X471000Y105011D01*
X471999D01*
X472999Y106010D01*
Y109009D01*
X475998Y186000D02*
X471999D01*
X470000Y184001D01*
X471999Y182001D01*
X475998D01*
X473999Y179002D02*
Y177003D01*
X472999Y176003D01*
X470000D01*
Y179002D01*
X471000Y180002D01*
X471999Y179002D01*
Y176003D01*
X470000Y174004D02*
Y172004D01*
Y173004D01*
X475998D01*
Y174004D01*
X473999Y169006D02*
X470000Y167006D01*
X473999Y165007D01*
X470000Y160008D02*
Y162008D01*
X471000Y163007D01*
X472999D01*
X473999Y162008D01*
Y160008D01*
X472999Y159009D01*
X471999D01*
Y163007D01*
X475998Y157009D02*
Y153011D01*
X474998D01*
X471000Y157009D01*
X470000D01*
X475998Y236000D02*
X471999D01*
X470000Y234001D01*
X471999Y232001D01*
X475998D01*
X473999Y229002D02*
Y227003D01*
X472999Y226003D01*
X470000D01*
Y229002D01*
X471000Y230002D01*
X471999Y229002D01*
Y226003D01*
X470000Y224004D02*
Y222005D01*
Y223004D01*
X475998D01*
Y224004D01*
X473999Y219005D02*
X470000Y217006D01*
X473999Y215007D01*
X470000Y210008D02*
Y212008D01*
X471000Y213007D01*
X472999D01*
X473999Y212008D01*
Y210008D01*
X472999Y209009D01*
X471999D01*
Y213007D01*
X474998Y207009D02*
X475998Y206010D01*
Y204010D01*
X474998Y203011D01*
X473999D01*
X472999Y204010D01*
X471999Y203011D01*
X471000D01*
X470000Y204010D01*
Y206010D01*
X471000Y207009D01*
X471999D01*
X472999Y206010D01*
X473999Y207009D01*
X474998D01*
X472999Y206010D02*
Y204010D01*
X475998Y282000D02*
X471999D01*
X470000Y280001D01*
X471999Y278001D01*
X475998D01*
X473999Y275002D02*
Y273003D01*
X472999Y272003D01*
X470000D01*
Y275002D01*
X471000Y276002D01*
X471999Y275002D01*
Y272003D01*
X470000Y270004D02*
Y268004D01*
Y269004D01*
X475998D01*
Y270004D01*
X473999Y265005D02*
X470000Y263006D01*
X473999Y261007D01*
X470000Y256008D02*
Y258008D01*
X471000Y259007D01*
X472999D01*
X473999Y258008D01*
Y256008D01*
X472999Y255009D01*
X471999D01*
Y259007D01*
X471000Y253009D02*
X470000Y252010D01*
Y250010D01*
X471000Y249011D01*
X474998D01*
X475998Y250010D01*
Y252010D01*
X474998Y253009D01*
X473999D01*
X472999Y252010D01*
Y249011D01*
X475998Y332000D02*
X471999D01*
X470000Y330001D01*
X471999Y328001D01*
X475998D01*
X473999Y325002D02*
Y323003D01*
X472999Y322003D01*
X470000D01*
Y325002D01*
X471000Y326002D01*
X471999Y325002D01*
Y322003D01*
X470000Y320004D02*
Y318004D01*
Y319004D01*
X475998D01*
Y320004D01*
X473999Y315005D02*
X470000Y313006D01*
X473999Y311007D01*
X470000Y306008D02*
Y308008D01*
X471000Y309007D01*
X472999D01*
X473999Y308008D01*
Y306008D01*
X472999Y305009D01*
X471999D01*
Y309007D01*
X474998Y303009D02*
X475998Y302010D01*
Y300010D01*
X474998Y299011D01*
X473999D01*
X472999Y300010D01*
Y301010D01*
Y300010D01*
X471999Y299011D01*
X471000D01*
X470000Y300010D01*
Y302010D01*
X471000Y303009D01*
X475998Y380000D02*
X471999D01*
X470000Y378001D01*
X471999Y376001D01*
X475998D01*
X473999Y373002D02*
Y371003D01*
X472999Y370003D01*
X470000D01*
Y373002D01*
X471000Y374002D01*
X471999Y373002D01*
Y370003D01*
X470000Y368004D02*
Y366004D01*
Y367004D01*
X475998D01*
Y368004D01*
X473999Y363005D02*
X470000Y361006D01*
X473999Y359007D01*
X470000Y354008D02*
Y356008D01*
X471000Y357007D01*
X472999D01*
X473999Y356008D01*
Y354008D01*
X472999Y353009D01*
X471999D01*
Y357007D01*
X470000Y348010D02*
X475998D01*
X472999Y351009D01*
Y347011D01*
X473998Y434000D02*
X469999D01*
X468000Y432001D01*
X469999Y430001D01*
X473998D01*
X471999Y427002D02*
Y425003D01*
X470999Y424003D01*
X468000D01*
Y427002D01*
X469000Y428002D01*
X469999Y427002D01*
Y424003D01*
X468000Y422004D02*
Y420005D01*
Y421004D01*
X473998D01*
Y422004D01*
X471999Y417005D02*
X468000Y415006D01*
X471999Y413007D01*
X468000Y408008D02*
Y410008D01*
X469000Y411007D01*
X470999D01*
X471999Y410008D01*
Y408008D01*
X470999Y407009D01*
X469999D01*
Y411007D01*
X468000Y401011D02*
Y405009D01*
X471999Y401011D01*
X472998D01*
X473998Y402010D01*
Y404010D01*
X472998Y405009D01*
X473998Y480000D02*
X469999D01*
X468000Y478001D01*
X469999Y476001D01*
X473998D01*
X471999Y473002D02*
Y471003D01*
X470999Y470003D01*
X468000D01*
Y473002D01*
X469000Y474002D01*
X469999Y473002D01*
Y470003D01*
X468000Y468004D02*
Y466005D01*
Y467004D01*
X473998D01*
Y468004D01*
X471999Y463005D02*
X468000Y461006D01*
X471999Y459007D01*
X468000Y454008D02*
Y456008D01*
X469000Y457007D01*
X470999D01*
X471999Y456008D01*
Y454008D01*
X470999Y453009D01*
X469999D01*
Y457007D01*
X468000Y451009D02*
Y449010D01*
Y450010D01*
X473998D01*
X472998Y451009D01*
X471998Y524000D02*
X467999D01*
X466000Y522001D01*
X467999Y520001D01*
X471998D01*
X469999Y517002D02*
Y515003D01*
X468999Y514003D01*
X466000D01*
Y517002D01*
X467000Y518002D01*
X467999Y517002D01*
Y514003D01*
X466000Y512004D02*
Y510005D01*
Y511004D01*
X471998D01*
Y512004D01*
X469999Y507006D02*
X466000Y505006D01*
X469999Y503007D01*
X466000Y498008D02*
Y500008D01*
X467000Y501007D01*
X468999D01*
X469999Y500008D01*
Y498008D01*
X468999Y497009D01*
X467999D01*
Y501007D01*
X470998Y495009D02*
X471998Y494010D01*
Y492010D01*
X470998Y491011D01*
X467000D01*
X466000Y492010D01*
Y494010D01*
X467000Y495009D01*
X470998D01*
X430000Y82000D02*
Y87998D01*
X432999D01*
X433999Y86998D01*
Y84999D01*
X432999Y83999D01*
X430000D01*
X435998Y82000D02*
X437997D01*
X436998D01*
Y87998D01*
X435998Y86998D01*
X444995Y87998D02*
X442996Y86998D01*
X440996Y84999D01*
Y83000D01*
X441996Y82000D01*
X443996D01*
X444995Y83000D01*
Y83999D01*
X443996Y84999D01*
X440996D01*
X418000Y120000D02*
Y125998D01*
X420999D01*
X421999Y124998D01*
Y122999D01*
X420999Y121999D01*
X418000D01*
X423998Y120000D02*
X425997D01*
X424998D01*
Y125998D01*
X423998Y124998D01*
X432995Y120000D02*
X428996D01*
X432995Y123999D01*
Y124998D01*
X431995Y125998D01*
X429996D01*
X428996Y124998D01*
X422000Y176000D02*
Y181998D01*
X424999D01*
X425999Y180998D01*
Y178999D01*
X424999Y177999D01*
X422000D01*
X427998Y176000D02*
X429997D01*
X428998D01*
Y181998D01*
X427998Y180998D01*
X432996D02*
X433996Y181998D01*
X435995D01*
X436995Y180998D01*
Y179999D01*
X435995Y178999D01*
X434996D01*
X435995D01*
X436995Y177999D01*
Y177000D01*
X435995Y176000D01*
X433996D01*
X432996Y177000D01*
X424000Y222000D02*
Y227998D01*
X426999D01*
X427999Y226998D01*
Y224999D01*
X426999Y223999D01*
X424000D01*
X429998Y222000D02*
X431997D01*
X430998D01*
Y227998D01*
X429998Y226998D01*
X437995Y222000D02*
Y227998D01*
X434996Y224999D01*
X438995D01*
X422000Y270000D02*
Y275998D01*
X424999D01*
X425999Y274998D01*
Y272999D01*
X424999Y271999D01*
X422000D01*
X427998Y270000D02*
X429997D01*
X428998D01*
Y275998D01*
X427998Y274998D01*
X436995Y275998D02*
X432996D01*
Y272999D01*
X434996Y273999D01*
X435995D01*
X436995Y272999D01*
Y271000D01*
X435995Y270000D01*
X433996D01*
X432996Y271000D01*
X422000Y308000D02*
Y313998D01*
X424999D01*
X425999Y312998D01*
Y310999D01*
X424999Y309999D01*
X422000D01*
X427998Y308000D02*
X429997D01*
X428998D01*
Y313998D01*
X427998Y312998D01*
X432996Y308000D02*
X434996D01*
X433996D01*
Y313998D01*
X432996Y312998D01*
X418000Y354000D02*
Y359998D01*
X420999D01*
X421999Y358998D01*
Y356999D01*
X420999Y355999D01*
X418000D01*
X423998Y354000D02*
X425997D01*
X424998D01*
Y359998D01*
X423998Y358998D01*
X428996D02*
X429996Y359998D01*
X431995D01*
X432995Y358998D01*
Y355000D01*
X431995Y354000D01*
X429996D01*
X428996Y355000D01*
Y358998D01*
X424000Y422000D02*
Y427998D01*
X426999D01*
X427999Y426998D01*
Y424999D01*
X426999Y423999D01*
X424000D01*
X429998Y423000D02*
X430998Y422000D01*
X432997D01*
X433997Y423000D01*
Y426998D01*
X432997Y427998D01*
X430998D01*
X429998Y426998D01*
Y425999D01*
X430998Y424999D01*
X433997D01*
X422000Y466000D02*
Y471998D01*
X424999D01*
X425999Y470998D01*
Y468999D01*
X424999Y467999D01*
X422000D01*
X427998Y470998D02*
X428998Y471998D01*
X430997D01*
X431997Y470998D01*
Y469999D01*
X430997Y468999D01*
X431997Y467999D01*
Y467000D01*
X430997Y466000D01*
X428998D01*
X427998Y467000D01*
Y467999D01*
X428998Y468999D01*
X427998Y469999D01*
Y470998D01*
X428998Y468999D02*
X430997D01*
X424000Y510000D02*
Y515998D01*
X426999D01*
X427999Y514998D01*
Y512999D01*
X426999Y511999D01*
X424000D01*
X429998Y515998D02*
X433997D01*
Y514998D01*
X429998Y511000D01*
Y510000D01*
X110000Y375998D02*
Y371999D01*
X111999Y370000D01*
X113999Y371999D01*
Y375998D01*
X116998Y373999D02*
X118997D01*
X119997Y372999D01*
Y370000D01*
X116998D01*
X115998Y371000D01*
X116998Y371999D01*
X119997D01*
X121996Y370000D02*
X123995D01*
X122996D01*
Y375998D01*
X121996D01*
X126995Y373999D02*
X128994Y370000D01*
X130993Y373999D01*
X135992Y370000D02*
X133992D01*
X132993Y371000D01*
Y372999D01*
X133992Y373999D01*
X135992D01*
X136991Y372999D01*
Y371999D01*
X132993D01*
X138991Y371000D02*
X139990Y370000D01*
X141990D01*
X142989Y371000D01*
Y374998D01*
X141990Y375998D01*
X139990D01*
X138991Y374998D01*
Y373999D01*
X139990Y372999D01*
X142989D01*
X118000Y231998D02*
Y227999D01*
X119999Y226000D01*
X121999Y227999D01*
Y231998D01*
X124998Y229999D02*
X126997D01*
X127997Y228999D01*
Y226000D01*
X124998D01*
X123998Y227000D01*
X124998Y227999D01*
X127997D01*
X129996Y226000D02*
X131995D01*
X130996D01*
Y231998D01*
X129996D01*
X134994Y229999D02*
X136994Y226000D01*
X138993Y229999D01*
X143992Y226000D02*
X141992D01*
X140993Y227000D01*
Y228999D01*
X141992Y229999D01*
X143992D01*
X144991Y228999D01*
Y227999D01*
X140993D01*
X146991Y230998D02*
X147990Y231998D01*
X149990D01*
X150989Y230998D01*
Y229999D01*
X149990Y228999D01*
X150989Y227999D01*
Y227000D01*
X149990Y226000D01*
X147990D01*
X146991Y227000D01*
Y227999D01*
X147990Y228999D01*
X146991Y229999D01*
Y230998D01*
X147990Y228999D02*
X149990D01*
X156002Y78000D02*
X160001D01*
X162000Y79999D01*
X160001Y81999D01*
X156002D01*
X158001Y84998D02*
Y86997D01*
X159001Y87997D01*
X162000D01*
Y84998D01*
X161000Y83998D01*
X160001Y84998D01*
Y87997D01*
X162000Y89996D02*
Y91996D01*
Y90996D01*
X156002D01*
Y89996D01*
X158001Y94994D02*
X162000Y96994D01*
X158001Y98993D01*
X162000Y103992D02*
Y101992D01*
X161000Y100993D01*
X159001D01*
X158001Y101992D01*
Y103992D01*
X159001Y104991D01*
X160001D01*
Y100993D01*
X156002Y106991D02*
Y110989D01*
X157002D01*
X161000Y106991D01*
X162000D01*
X202000Y87998D02*
Y83999D01*
X203999Y82000D01*
X205999Y83999D01*
Y87998D01*
X208998Y85999D02*
X210997D01*
X211997Y84999D01*
Y82000D01*
X208998D01*
X207998Y83000D01*
X208998Y83999D01*
X211997D01*
X213996Y82000D02*
X215996D01*
X214996D01*
Y87998D01*
X213996D01*
X218994Y85999D02*
X220994Y82000D01*
X222993Y85999D01*
X227992Y82000D02*
X225992D01*
X224993Y83000D01*
Y84999D01*
X225992Y85999D01*
X227992D01*
X228991Y84999D01*
Y83999D01*
X224993D01*
X234989Y87998D02*
X232990Y86998D01*
X230991Y84999D01*
Y83000D01*
X231990Y82000D01*
X233990D01*
X234989Y83000D01*
Y83999D01*
X233990Y84999D01*
X230991D01*
X256000Y85998D02*
Y81999D01*
X257999Y80000D01*
X259999Y81999D01*
Y85998D01*
X262998Y83999D02*
X264997D01*
X265997Y82999D01*
Y80000D01*
X262998D01*
X261998Y81000D01*
X262998Y81999D01*
X265997D01*
X267996Y80000D02*
X269995D01*
X268996D01*
Y85998D01*
X267996D01*
X272994Y83999D02*
X274994Y80000D01*
X276993Y83999D01*
X281992Y80000D02*
X279992D01*
X278993Y81000D01*
Y82999D01*
X279992Y83999D01*
X281992D01*
X282991Y82999D01*
Y81999D01*
X278993D01*
X288989Y85998D02*
X284991D01*
Y82999D01*
X286990Y83999D01*
X287990D01*
X288989Y82999D01*
Y81000D01*
X287990Y80000D01*
X285990D01*
X284991Y81000D01*
X409998Y120000D02*
X405999D01*
X404000Y118001D01*
X405999Y116001D01*
X409998D01*
X407999Y113002D02*
Y111003D01*
X406999Y110003D01*
X404000D01*
Y113002D01*
X405000Y114002D01*
X405999Y113002D01*
Y110003D01*
X404000Y108004D02*
Y106005D01*
Y107004D01*
X409998D01*
Y108004D01*
X407999Y103006D02*
X404000Y101006D01*
X407999Y99007D01*
X404000Y94008D02*
Y96008D01*
X405000Y97007D01*
X406999D01*
X407999Y96008D01*
Y94008D01*
X406999Y93009D01*
X405999D01*
Y97007D01*
X404000Y88010D02*
X409998D01*
X406999Y91009D01*
Y87011D01*
X407998Y504000D02*
X403999D01*
X402000Y502001D01*
X403999Y500001D01*
X407998D01*
X405999Y497002D02*
Y495003D01*
X404999Y494003D01*
X402000D01*
Y497002D01*
X403000Y498002D01*
X403999Y497002D01*
Y494003D01*
X402000Y492004D02*
Y490004D01*
Y491004D01*
X407998D01*
Y492004D01*
X405999Y487006D02*
X402000Y485006D01*
X405999Y483007D01*
X402000Y478008D02*
Y480008D01*
X403000Y481007D01*
X404999D01*
X405999Y480008D01*
Y478008D01*
X404999Y477009D01*
X403999D01*
Y481007D01*
X406998Y475009D02*
X407998Y474010D01*
Y472010D01*
X406998Y471011D01*
X405999D01*
X404999Y472010D01*
Y473010D01*
Y472010D01*
X403999Y471011D01*
X403000D01*
X402000Y472010D01*
Y474010D01*
X403000Y475009D01*
X300000Y505998D02*
Y501999D01*
X301999Y500000D01*
X303999Y501999D01*
Y505998D01*
X306998Y503999D02*
X308997D01*
X309997Y502999D01*
Y500000D01*
X306998D01*
X305998Y501000D01*
X306998Y501999D01*
X309997D01*
X311996Y500000D02*
X313996D01*
X312996D01*
Y505998D01*
X311996D01*
X316995Y503999D02*
X318994Y500000D01*
X320993Y503999D01*
X325992Y500000D02*
X323992D01*
X322993Y501000D01*
Y502999D01*
X323992Y503999D01*
X325992D01*
X326991Y502999D01*
Y501999D01*
X322993D01*
X332989Y500000D02*
X328991D01*
X332989Y503999D01*
Y504998D01*
X331990Y505998D01*
X329990D01*
X328991Y504998D01*
X218002Y490000D02*
X222001D01*
X224000Y491999D01*
X222001Y493999D01*
X218002D01*
X220001Y496998D02*
Y498997D01*
X221001Y499997D01*
X224000D01*
Y496998D01*
X223000Y495998D01*
X222001Y496998D01*
Y499997D01*
X224000Y501996D02*
Y503996D01*
Y502996D01*
X218002D01*
Y501996D01*
X220001Y506994D02*
X224000Y508994D01*
X220001Y510993D01*
X224000Y515992D02*
Y513992D01*
X223000Y512993D01*
X221001D01*
X220001Y513992D01*
Y515992D01*
X221001Y516991D01*
X222001D01*
Y512993D01*
X224000Y518991D02*
Y520990D01*
Y519990D01*
X218002D01*
X219002Y518991D01*
X116002Y476000D02*
X120001D01*
X122000Y477999D01*
X120001Y479999D01*
X116002D01*
X118001Y482998D02*
Y484997D01*
X119001Y485997D01*
X122000D01*
Y482998D01*
X121000Y481998D01*
X120001Y482998D01*
Y485997D01*
X122000Y487996D02*
Y489995D01*
Y488996D01*
X116002D01*
Y487996D01*
X118001Y492994D02*
X122000Y494994D01*
X118001Y496993D01*
X122000Y501992D02*
Y499992D01*
X121000Y498993D01*
X119001D01*
X118001Y499992D01*
Y501992D01*
X119001Y502991D01*
X120001D01*
Y498993D01*
X117002Y504991D02*
X116002Y505990D01*
Y507990D01*
X117002Y508989D01*
X121000D01*
X122000Y507990D01*
Y505990D01*
X121000Y504991D01*
X117002D01*
X275500Y348998D02*
Y347998D01*
X277499Y345999D01*
X279499Y347998D01*
Y348998D01*
X277499Y345999D02*
Y343000D01*
X281498D02*
X283497D01*
X282498D01*
Y348998D01*
X281498Y347998D01*
X289843Y241598D02*
Y236600D01*
X290843Y235600D01*
X292842D01*
X293842Y236600D01*
Y241598D01*
X298840Y235600D02*
Y241598D01*
X295841Y238599D01*
X299840D01*
X128002Y283500D02*
X133000D01*
X134000Y284500D01*
Y286499D01*
X133000Y287499D01*
X128002D01*
X129002Y289498D02*
X128002Y290498D01*
Y292497D01*
X129002Y293497D01*
X130001D01*
X131001Y292497D01*
Y291497D01*
Y292497D01*
X132001Y293497D01*
X133000D01*
X134000Y292497D01*
Y290498D01*
X133000Y289498D01*
X135000Y295496D02*
Y299495D01*
X128002Y301494D02*
X132001D01*
X134000Y303493D01*
X132001Y305493D01*
X128002D01*
Y307492D02*
X134000D01*
Y310491D01*
X133000Y311491D01*
X129002D01*
X128002Y310491D01*
Y307492D01*
Y317489D02*
Y313490D01*
X131001D01*
X130001Y315490D01*
Y316489D01*
X131001Y317489D01*
X133000D01*
X134000Y316489D01*
Y314490D01*
X133000Y313490D01*
X178500Y186998D02*
Y182000D01*
X179500Y181000D01*
X181499D01*
X182499Y182000D01*
Y186998D01*
X184498Y185998D02*
X185498Y186998D01*
X187497D01*
X188497Y185998D01*
Y184999D01*
X187497Y183999D01*
X186497D01*
X187497D01*
X188497Y182999D01*
Y182000D01*
X187497Y181000D01*
X185498D01*
X184498Y182000D01*
X190496Y180000D02*
X194495D01*
X196494Y186998D02*
Y182999D01*
X198494Y181000D01*
X200493Y182999D01*
Y186998D01*
X202492D02*
Y181000D01*
X205491D01*
X206491Y182000D01*
Y185998D01*
X205491Y186998D01*
X202492D01*
X211489Y181000D02*
Y186998D01*
X208490Y183999D01*
X212489D01*
X316000Y188498D02*
Y183500D01*
X317000Y182500D01*
X318999D01*
X319999Y183500D01*
Y188498D01*
X321998Y187498D02*
X322998Y188498D01*
X324997D01*
X325997Y187498D01*
Y186499D01*
X324997Y185499D01*
X323997D01*
X324997D01*
X325997Y184499D01*
Y183500D01*
X324997Y182500D01*
X322998D01*
X321998Y183500D01*
X327996Y181500D02*
X331995D01*
X333994Y188498D02*
Y184499D01*
X335994Y182500D01*
X337993Y184499D01*
Y188498D01*
X339992D02*
Y182500D01*
X342991D01*
X343991Y183500D01*
Y187498D01*
X342991Y188498D01*
X339992D01*
X345990Y187498D02*
X346990Y188498D01*
X348989D01*
X349989Y187498D01*
Y186499D01*
X348989Y185499D01*
X347990D01*
X348989D01*
X349989Y184499D01*
Y183500D01*
X348989Y182500D01*
X346990D01*
X345990Y183500D01*
X298750Y496748D02*
Y491750D01*
X299750Y490750D01*
X301749D01*
X302749Y491750D01*
Y496748D01*
X304748Y495748D02*
X305748Y496748D01*
X307747D01*
X308747Y495748D01*
Y494749D01*
X307747Y493749D01*
X306747D01*
X307747D01*
X308747Y492749D01*
Y491750D01*
X307747Y490750D01*
X305748D01*
X304748Y491750D01*
X310746Y489750D02*
X314745D01*
X316744Y496748D02*
Y492749D01*
X318743Y490750D01*
X320743Y492749D01*
Y496748D01*
X322742D02*
Y490750D01*
X325741D01*
X326741Y491750D01*
Y495748D01*
X325741Y496748D01*
X322742D01*
X332739Y490750D02*
X328740D01*
X332739Y494749D01*
Y495748D01*
X331739Y496748D01*
X329740D01*
X328740Y495748D01*
X161150Y495748D02*
Y490750D01*
X162150Y489750D01*
X164149D01*
X165149Y490750D01*
Y495748D01*
X167148Y494748D02*
X168148Y495748D01*
X170147D01*
X171147Y494748D01*
Y493749D01*
X170147Y492749D01*
X169147D01*
X170147D01*
X171147Y491749D01*
Y490750D01*
X170147Y489750D01*
X168148D01*
X167148Y490750D01*
X173146Y488750D02*
X177145D01*
X179144Y495748D02*
Y491749D01*
X181143Y489750D01*
X183143Y491749D01*
Y495748D01*
X185142D02*
Y489750D01*
X188141D01*
X189141Y490750D01*
Y494748D01*
X188141Y495748D01*
X185142D01*
X191140Y489750D02*
X193140D01*
X192140D01*
Y495748D01*
X191140Y494748D01*
X290426Y397502D02*
Y392503D01*
X291425Y391504D01*
X293425D01*
X294424Y392503D01*
Y397502D01*
X300422Y391504D02*
X296424D01*
X300422Y395502D01*
Y396502D01*
X299423Y397502D01*
X297423D01*
X296424Y396502D01*
X305000Y283498D02*
Y278500D01*
X306000Y277500D01*
X307999D01*
X308999Y278500D01*
Y283498D01*
X310998Y277500D02*
X312997D01*
X311998D01*
Y283498D01*
X310998Y282498D01*
X233999Y393498D02*
X232999Y394498D01*
X231000D01*
X230000Y393498D01*
Y392499D01*
X231000Y391499D01*
X232999D01*
X233999Y390499D01*
Y389500D01*
X232999Y388500D01*
X231000D01*
X230000Y389500D01*
X235998Y394498D02*
Y388500D01*
X237997Y390499D01*
X239997Y388500D01*
Y394498D01*
X241996Y388500D02*
X243995D01*
X242996D01*
Y394498D01*
X241996Y393498D01*
X358000Y203500D02*
X352002D01*
Y206499D01*
X353002Y207499D01*
X355001D01*
X356001Y206499D01*
Y203500D01*
Y205499D02*
X358000Y207499D01*
X352002Y213497D02*
X353002Y211497D01*
X355001Y209498D01*
X357000D01*
X358000Y210498D01*
Y212497D01*
X357000Y213497D01*
X356001D01*
X355001Y212497D01*
Y209498D01*
X364000Y215500D02*
X358002D01*
Y218499D01*
X359002Y219499D01*
X361001D01*
X362001Y218499D01*
Y215500D01*
Y217499D02*
X364000Y219499D01*
X358002Y225497D02*
Y221498D01*
X361001D01*
X360001Y223497D01*
Y224497D01*
X361001Y225497D01*
X363000D01*
X364000Y224497D01*
Y222498D01*
X363000Y221498D01*
X379000Y310000D02*
Y315998D01*
X381999D01*
X382999Y314998D01*
Y312999D01*
X381999Y311999D01*
X379000D01*
X380999D02*
X382999Y310000D01*
X388997D02*
X384998D01*
X388997Y313999D01*
Y314998D01*
X387997Y315998D01*
X385998D01*
X384998Y314998D01*
X382500Y322500D02*
X376502D01*
Y325499D01*
X377502Y326499D01*
X379501D01*
X380501Y325499D01*
Y322500D01*
Y324499D02*
X382500Y326499D01*
Y328498D02*
Y330497D01*
Y329498D01*
X376502D01*
X377502Y328498D01*
X367143Y229900D02*
Y235898D01*
X370142D01*
X371142Y234898D01*
Y232899D01*
X370142Y231899D01*
X367143D01*
X377140Y235898D02*
X375141Y234898D01*
X373141Y232899D01*
Y230900D01*
X374141Y229900D01*
X376140D01*
X377140Y230900D01*
Y231899D01*
X376140Y232899D01*
X373141D01*
X115000Y358000D02*
X120998D01*
Y355001D01*
X119998Y354001D01*
X117999D01*
X116999Y355001D01*
Y358000D01*
X120998Y348003D02*
Y352002D01*
X117999D01*
X118999Y350003D01*
Y349003D01*
X117999Y348003D01*
X116000D01*
X115000Y349003D01*
Y351002D01*
X116000Y352002D01*
X114000Y346004D02*
Y342005D01*
X120998Y340006D02*
X116999D01*
X115000Y338006D01*
X116999Y336007D01*
X120998D01*
Y334008D02*
X115000D01*
Y331009D01*
X116000Y330009D01*
X119998D01*
X120998Y331009D01*
Y334008D01*
Y324011D02*
Y328010D01*
X117999D01*
X118999Y326010D01*
Y325011D01*
X117999Y324011D01*
X116000D01*
X115000Y325011D01*
Y327010D01*
X116000Y328010D01*
X121000Y103000D02*
X115002D01*
Y105999D01*
X116002Y106999D01*
X118001D01*
X119001Y105999D01*
Y103000D01*
X115002Y112997D02*
Y108998D01*
X118001D01*
X117001Y110997D01*
Y111997D01*
X118001Y112997D01*
X120000D01*
X121000Y111997D01*
Y109998D01*
X120000Y108998D01*
X122000Y114996D02*
Y118995D01*
X115002Y120994D02*
X119001D01*
X121000Y122994D01*
X119001Y124993D01*
X115002D01*
Y126992D02*
X121000D01*
Y129991D01*
X120000Y130991D01*
X116002D01*
X115002Y129991D01*
Y126992D01*
X121000Y135989D02*
X115002D01*
X118001Y132990D01*
Y136989D01*
X293000Y94500D02*
Y100498D01*
X295999D01*
X296999Y99498D01*
Y97499D01*
X295999Y96499D01*
X293000D01*
X302997Y100498D02*
X298998D01*
Y97499D01*
X300997Y98499D01*
X301997D01*
X302997Y97499D01*
Y95500D01*
X301997Y94500D01*
X299998D01*
X298998Y95500D01*
X304996Y93500D02*
X308995D01*
X310994Y100498D02*
Y96499D01*
X312994Y94500D01*
X314993Y96499D01*
Y100498D01*
X316992D02*
Y94500D01*
X319991D01*
X320991Y95500D01*
Y99498D01*
X319991Y100498D01*
X316992D01*
X322990Y99498D02*
X323990Y100498D01*
X325989D01*
X326989Y99498D01*
Y98499D01*
X325989Y97499D01*
X324990D01*
X325989D01*
X326989Y96499D01*
Y95500D01*
X325989Y94500D01*
X323990D01*
X322990Y95500D01*
X365000Y510500D02*
Y516498D01*
X367999D01*
X368999Y515498D01*
Y513499D01*
X367999Y512499D01*
X365000D01*
X374997Y516498D02*
X370998D01*
Y513499D01*
X372997Y514499D01*
X373997D01*
X374997Y513499D01*
Y511500D01*
X373997Y510500D01*
X371998D01*
X370998Y511500D01*
X376996Y509500D02*
X380995D01*
X382994Y516498D02*
Y512499D01*
X384994Y510500D01*
X386993Y512499D01*
Y516498D01*
X388992D02*
Y510500D01*
X391991D01*
X392991Y511500D01*
Y515498D01*
X391991Y516498D01*
X388992D01*
X398989Y510500D02*
X394990D01*
X398989Y514499D01*
Y515498D01*
X397989Y516498D01*
X395990D01*
X394990Y515498D01*
X228000Y500500D02*
Y506498D01*
X230999D01*
X231999Y505498D01*
Y503499D01*
X230999Y502499D01*
X228000D01*
X237997Y506498D02*
X233998D01*
Y503499D01*
X235997Y504499D01*
X236997D01*
X237997Y503499D01*
Y501500D01*
X236997Y500500D01*
X234998D01*
X233998Y501500D01*
X239996Y499500D02*
X243995D01*
X245994Y506498D02*
Y502499D01*
X247993Y500500D01*
X249993Y502499D01*
Y506498D01*
X251992D02*
Y500500D01*
X254991D01*
X255991Y501500D01*
Y505498D01*
X254991Y506498D01*
X251992D01*
X257990Y500500D02*
X259990D01*
X258990D01*
Y506498D01*
X257990Y505498D01*
X114000Y273500D02*
X119998D01*
Y270501D01*
X118998Y269501D01*
X116999D01*
X115999Y270501D01*
Y273500D01*
X114000Y264503D02*
X119998D01*
X116999Y267502D01*
Y263503D01*
X113000Y261504D02*
Y257505D01*
X119998Y255506D02*
X115999D01*
X114000Y253506D01*
X115999Y251507D01*
X119998D01*
Y249508D02*
X114000D01*
Y246509D01*
X115000Y245509D01*
X118998D01*
X119998Y246509D01*
Y249508D01*
Y239511D02*
Y243510D01*
X116999D01*
X117999Y241510D01*
Y240511D01*
X116999Y239511D01*
X115000D01*
X114000Y240511D01*
Y242510D01*
X115000Y243510D01*
X200500Y95500D02*
Y101498D01*
X203499D01*
X204499Y100498D01*
Y98499D01*
X203499Y97499D01*
X200500D01*
X209497Y95500D02*
Y101498D01*
X206498Y98499D01*
X210497D01*
X212496Y94500D02*
X216495D01*
X218494Y101498D02*
Y97499D01*
X220494Y95500D01*
X222493Y97499D01*
Y101498D01*
X224492D02*
Y95500D01*
X227491D01*
X228491Y96500D01*
Y100498D01*
X227491Y101498D01*
X224492D01*
X233489Y95500D02*
Y101498D01*
X230490Y98499D01*
X234489D01*
X383500Y129000D02*
Y134998D01*
X386499D01*
X387499Y133998D01*
Y131999D01*
X386499Y130999D01*
X383500D01*
X392497Y129000D02*
Y134998D01*
X389498Y131999D01*
X393497D01*
X395496Y128000D02*
X399495D01*
X401494Y134998D02*
Y130999D01*
X403493Y129000D01*
X405493Y130999D01*
Y134998D01*
X407492D02*
Y129000D01*
X410491D01*
X411491Y130000D01*
Y133998D01*
X410491Y134998D01*
X407492D01*
X413490Y133998D02*
X414490Y134998D01*
X416489D01*
X417489Y133998D01*
Y132999D01*
X416489Y131999D01*
X415490D01*
X416489D01*
X417489Y130999D01*
Y130000D01*
X416489Y129000D01*
X414490D01*
X413490Y130000D01*
X263000Y506500D02*
Y512498D01*
X265999D01*
X266999Y511498D01*
Y509499D01*
X265999Y508499D01*
X263000D01*
X271997Y506500D02*
Y512498D01*
X268998Y509499D01*
X272997D01*
X274996Y505500D02*
X278995D01*
X280994Y512498D02*
Y508499D01*
X282994Y506500D01*
X284993Y508499D01*
Y512498D01*
X286992D02*
Y506500D01*
X289991D01*
X290991Y507500D01*
Y511498D01*
X289991Y512498D01*
X286992D01*
X296989Y506500D02*
X292990D01*
X296989Y510499D01*
Y511498D01*
X295989Y512498D01*
X293990D01*
X292990Y511498D01*
X129500Y505000D02*
Y510998D01*
X132499D01*
X133499Y509998D01*
Y507999D01*
X132499Y506999D01*
X129500D01*
X138497Y505000D02*
Y510998D01*
X135498Y507999D01*
X139497D01*
X141496Y504000D02*
X145495D01*
X147494Y510998D02*
Y506999D01*
X149494Y505000D01*
X151493Y506999D01*
Y510998D01*
X153492D02*
Y505000D01*
X156491D01*
X157491Y506000D01*
Y509998D01*
X156491Y510998D01*
X153492D01*
X159490Y505000D02*
X161490D01*
X160490D01*
Y510998D01*
X159490Y509998D01*
X371647Y400140D02*
Y406138D01*
X374646D01*
X375646Y405138D01*
Y403139D01*
X374646Y402140D01*
X371647D01*
X377645Y405138D02*
X378645Y406138D01*
X380644D01*
X381644Y405138D01*
Y404139D01*
X380644Y403139D01*
X379645D01*
X380644D01*
X381644Y402140D01*
Y401140D01*
X380644Y400140D01*
X378645D01*
X377645Y401140D01*
X376000Y277500D02*
Y283498D01*
X378999D01*
X379999Y282498D01*
Y280499D01*
X378999Y279499D01*
X376000D01*
X385997Y277500D02*
X381998D01*
X385997Y281499D01*
Y282498D01*
X384997Y283498D01*
X382998D01*
X381998Y282498D01*
X367143Y251900D02*
Y257898D01*
X370142D01*
X371142Y256898D01*
Y254899D01*
X370142Y253899D01*
X367143D01*
X373141Y251900D02*
X375141D01*
X374141D01*
Y257898D01*
X373141Y256898D01*
X393999Y343498D02*
X390000D01*
Y340499D01*
X391999D01*
X390000D01*
Y337500D01*
X395998Y343498D02*
Y337500D01*
X398997D01*
X399997Y338500D01*
Y339499D01*
X398997Y340499D01*
X395998D01*
X398997D01*
X399997Y341499D01*
Y342498D01*
X398997Y343498D01*
X395998D01*
X405995Y337500D02*
X401996D01*
X405995Y341499D01*
Y342498D01*
X404995Y343498D01*
X402996D01*
X401996Y342498D01*
X390002Y322499D02*
Y318500D01*
X393001D01*
Y320499D01*
Y318500D01*
X396000D01*
X390002Y324498D02*
X396000D01*
Y327497D01*
X395000Y328497D01*
X394001D01*
X393001Y327497D01*
Y324498D01*
Y327497D01*
X392001Y328497D01*
X391002D01*
X390002Y327497D01*
Y324498D01*
X396000Y330496D02*
Y332495D01*
Y331496D01*
X390002D01*
X391002Y330496D01*
X367499Y303998D02*
X366499Y304998D01*
X364500D01*
X363500Y303998D01*
Y300000D01*
X364500Y299000D01*
X366499D01*
X367499Y300000D01*
X373497Y299000D02*
X369498D01*
X373497Y302999D01*
Y303998D01*
X372497Y304998D01*
X370498D01*
X369498Y303998D01*
X375496D02*
X376496Y304998D01*
X378495D01*
X379495Y303998D01*
Y302999D01*
X378495Y301999D01*
X377496D01*
X378495D01*
X379495Y300999D01*
Y300000D01*
X378495Y299000D01*
X376496D01*
X375496Y300000D01*
X352502Y230999D02*
X351502Y229999D01*
Y228000D01*
X352502Y227000D01*
X356500D01*
X357500Y228000D01*
Y229999D01*
X356500Y230999D01*
X357500Y236997D02*
Y232998D01*
X353501Y236997D01*
X352502D01*
X351502Y235997D01*
Y233998D01*
X352502Y232998D01*
X357500Y242995D02*
Y238996D01*
X353501Y242995D01*
X352502D01*
X351502Y241995D01*
Y239996D01*
X352502Y238996D01*
X228502Y257499D02*
X227502Y256499D01*
Y254500D01*
X228502Y253500D01*
X232500D01*
X233500Y254500D01*
Y256499D01*
X232500Y257499D01*
X233500Y263497D02*
Y259498D01*
X229501Y263497D01*
X228502D01*
X227502Y262497D01*
Y260498D01*
X228502Y259498D01*
X233500Y265496D02*
Y267495D01*
Y266496D01*
X227502D01*
X228502Y265496D01*
X234500Y270495D02*
Y274493D01*
X227502Y276493D02*
X231501D01*
X233500Y278492D01*
X231501Y280491D01*
X227502D01*
Y282491D02*
X233500D01*
Y285490D01*
X232500Y286489D01*
X228502D01*
X227502Y285490D01*
Y282491D01*
Y292487D02*
Y288489D01*
X230501D01*
X229501Y290488D01*
Y291488D01*
X230501Y292487D01*
X232500D01*
X233500Y291488D01*
Y289488D01*
X232500Y288489D01*
X234899Y199998D02*
X233899Y200998D01*
X231900D01*
X230900Y199998D01*
Y196000D01*
X231900Y195000D01*
X233899D01*
X234899Y196000D01*
X240897Y195000D02*
X236898D01*
X240897Y198999D01*
Y199998D01*
X239897Y200998D01*
X237898D01*
X236898Y199998D01*
X242896Y195000D02*
X244896D01*
X243896D01*
Y200998D01*
X242896Y199998D01*
X247895Y194000D02*
X251893D01*
X253893Y200998D02*
Y196999D01*
X255892Y195000D01*
X257891Y196999D01*
Y200998D01*
X259891D02*
Y195000D01*
X262890D01*
X263889Y196000D01*
Y199998D01*
X262890Y200998D01*
X259891D01*
X268888Y195000D02*
Y200998D01*
X265889Y197999D01*
X269887D01*
X378502Y168499D02*
X377502Y167499D01*
Y165500D01*
X378502Y164500D01*
X382500D01*
X383500Y165500D01*
Y167499D01*
X382500Y168499D01*
X383500Y174497D02*
Y170498D01*
X379501Y174497D01*
X378502D01*
X377502Y173497D01*
Y171498D01*
X378502Y170498D01*
X383500Y176496D02*
Y178496D01*
Y177496D01*
X377502D01*
X378502Y176496D01*
X384500Y181494D02*
Y185493D01*
X377502Y187493D02*
X381501D01*
X383500Y189492D01*
X381501Y191491D01*
X377502D01*
Y193491D02*
X383500D01*
Y196490D01*
X382500Y197489D01*
X378502D01*
X377502Y196490D01*
Y193491D01*
X378502Y199489D02*
X377502Y200488D01*
Y202488D01*
X378502Y203487D01*
X379501D01*
X380501Y202488D01*
Y201488D01*
Y202488D01*
X381501Y203487D01*
X382500D01*
X383500Y202488D01*
Y200488D01*
X382500Y199489D01*
X243999Y406498D02*
X242999Y407498D01*
X241000D01*
X240000Y406498D01*
Y402500D01*
X241000Y401500D01*
X242999D01*
X243999Y402500D01*
X249997Y401500D02*
X245998D01*
X249997Y405499D01*
Y406498D01*
X248997Y407498D01*
X246998D01*
X245998Y406498D01*
X251996Y401500D02*
X253995D01*
X252996D01*
Y407498D01*
X251996Y406498D01*
X256995Y400500D02*
X260993D01*
X262993Y407498D02*
Y403499D01*
X264992Y401500D01*
X266991Y403499D01*
Y407498D01*
X268991D02*
Y401500D01*
X271990D01*
X272989Y402500D01*
Y406498D01*
X271990Y407498D01*
X268991D01*
X278987Y401500D02*
X274989D01*
X278987Y405499D01*
Y406498D01*
X277988Y407498D01*
X275988D01*
X274989Y406498D01*
X165499Y419998D02*
X164499Y420998D01*
X162500D01*
X161500Y419998D01*
Y416000D01*
X162500Y415000D01*
X164499D01*
X165499Y416000D01*
X171497Y415000D02*
X167498D01*
X171497Y418999D01*
Y419998D01*
X170497Y420998D01*
X168498D01*
X167498Y419998D01*
X173496Y415000D02*
X175496D01*
X174496D01*
Y420998D01*
X173496Y419998D01*
X178495Y414000D02*
X182493D01*
X184493Y420998D02*
Y416999D01*
X186492Y415000D01*
X188491Y416999D01*
Y420998D01*
X190491D02*
Y415000D01*
X193490D01*
X194489Y416000D01*
Y419998D01*
X193490Y420998D01*
X190491D01*
X196489Y415000D02*
X198488D01*
X197488D01*
Y420998D01*
X196489Y419998D01*
X166999Y229998D02*
X165999Y230998D01*
X164000D01*
X163000Y229998D01*
Y226000D01*
X164000Y225000D01*
X165999D01*
X166999Y226000D01*
X172997Y225000D02*
X168998D01*
X172997Y228999D01*
Y229998D01*
X171997Y230998D01*
X169998D01*
X168998Y229998D01*
X174996D02*
X175996Y230998D01*
X177995D01*
X178995Y229998D01*
Y226000D01*
X177995Y225000D01*
X175996D01*
X174996Y226000D01*
Y229998D01*
X180994Y224000D02*
X184993D01*
X186992Y230998D02*
Y226999D01*
X188992Y225000D01*
X190991Y226999D01*
Y230998D01*
X192990D02*
Y225000D01*
X195989D01*
X196989Y226000D01*
Y229998D01*
X195989Y230998D01*
X192990D01*
X202987D02*
X198988D01*
Y227999D01*
X200988Y228999D01*
X201987D01*
X202987Y227999D01*
Y226000D01*
X201987Y225000D01*
X199988D01*
X198988Y226000D01*
X267002Y144999D02*
X266002Y143999D01*
Y142000D01*
X267002Y141000D01*
X271000D01*
X272000Y142000D01*
Y143999D01*
X271000Y144999D01*
X272000Y150997D02*
Y146998D01*
X268001Y150997D01*
X267002D01*
X266002Y149997D01*
Y147998D01*
X267002Y146998D01*
Y152996D02*
X266002Y153996D01*
Y155995D01*
X267002Y156995D01*
X271000D01*
X272000Y155995D01*
Y153996D01*
X271000Y152996D01*
X267002D01*
X273000Y158994D02*
Y162993D01*
X266002Y164992D02*
X270001D01*
X272000Y166992D01*
X270001Y168991D01*
X266002D01*
Y170990D02*
X272000D01*
Y173989D01*
X271000Y174989D01*
X267002D01*
X266002Y173989D01*
Y170990D01*
X272000Y179987D02*
X266002D01*
X269001Y176988D01*
Y180987D01*
X391002Y142499D02*
X390002Y141499D01*
Y139500D01*
X391002Y138500D01*
X395000D01*
X396000Y139500D01*
Y141499D01*
X395000Y142499D01*
X396000Y148497D02*
Y144498D01*
X392001Y148497D01*
X391002D01*
X390002Y147497D01*
Y145498D01*
X391002Y144498D01*
Y150496D02*
X390002Y151496D01*
Y153495D01*
X391002Y154495D01*
X395000D01*
X396000Y153495D01*
Y151496D01*
X395000Y150496D01*
X391002D01*
X397000Y156494D02*
Y160493D01*
X390002Y162492D02*
X394001D01*
X396000Y164492D01*
X394001Y166491D01*
X390002D01*
Y168490D02*
X396000D01*
Y171489D01*
X395000Y172489D01*
X391002D01*
X390002Y171489D01*
Y168490D01*
X391002Y174488D02*
X390002Y175488D01*
Y177487D01*
X391002Y178487D01*
X392001D01*
X393001Y177487D01*
Y176488D01*
Y177487D01*
X394001Y178487D01*
X395000D01*
X396000Y177487D01*
Y175488D01*
X395000Y174488D01*
X259502Y435999D02*
X258502Y434999D01*
Y433000D01*
X259502Y432000D01*
X263500D01*
X264500Y433000D01*
Y434999D01*
X263500Y435999D01*
X264500Y441997D02*
Y437998D01*
X260501Y441997D01*
X259502D01*
X258502Y440997D01*
Y438998D01*
X259502Y437998D01*
Y443996D02*
X258502Y444996D01*
Y446995D01*
X259502Y447995D01*
X263500D01*
X264500Y446995D01*
Y444996D01*
X263500Y443996D01*
X259502D01*
X265500Y449994D02*
Y453993D01*
X258502Y455992D02*
X262501D01*
X264500Y457992D01*
X262501Y459991D01*
X258502D01*
Y461990D02*
X264500D01*
Y464989D01*
X263500Y465989D01*
X259502D01*
X258502Y464989D01*
Y461990D01*
X264500Y471987D02*
Y467988D01*
X260501Y471987D01*
X259502D01*
X258502Y470987D01*
Y468988D01*
X259502Y467988D01*
X128002Y427499D02*
X127002Y426499D01*
Y424500D01*
X128002Y423500D01*
X132000D01*
X133000Y424500D01*
Y426499D01*
X132000Y427499D01*
X133000Y433497D02*
Y429498D01*
X129001Y433497D01*
X128002D01*
X127002Y432497D01*
Y430498D01*
X128002Y429498D01*
Y435496D02*
X127002Y436496D01*
Y438495D01*
X128002Y439495D01*
X132000D01*
X133000Y438495D01*
Y436496D01*
X132000Y435496D01*
X128002D01*
X134000Y441494D02*
Y445493D01*
X127002Y447492D02*
X131001D01*
X133000Y449492D01*
X131001Y451491D01*
X127002D01*
Y453490D02*
X133000D01*
Y456489D01*
X132000Y457489D01*
X128002D01*
X127002Y456489D01*
Y453490D01*
X133000Y459488D02*
Y461488D01*
Y460488D01*
X127002D01*
X128002Y459488D01*
X265454Y317109D02*
X264455Y316109D01*
Y314110D01*
X265454Y313110D01*
X269453D01*
X270453Y314110D01*
Y316109D01*
X269453Y317109D01*
X270453Y322107D02*
X264455D01*
X267454Y319108D01*
Y323107D01*
X276454Y317908D02*
X275455Y316909D01*
Y314909D01*
X276454Y313910D01*
X280453D01*
X281453Y314909D01*
Y316909D01*
X280453Y317908D01*
X276454Y319907D02*
X275455Y320907D01*
Y322907D01*
X276454Y323906D01*
X277454D01*
X278454Y322907D01*
Y321907D01*
Y322907D01*
X279453Y323906D01*
X280453D01*
X281453Y322907D01*
Y320907D01*
X280453Y319907D01*
X377999Y342998D02*
X376999Y343998D01*
X375000D01*
X374000Y342998D01*
Y339000D01*
X375000Y338000D01*
X376999D01*
X377999Y339000D01*
X383997Y338000D02*
X379998D01*
X383997Y341999D01*
Y342998D01*
X382997Y343998D01*
X380998D01*
X379998Y342998D01*
X406002Y325999D02*
X405002Y324999D01*
Y323000D01*
X406002Y322000D01*
X410000D01*
X411000Y323000D01*
Y324999D01*
X410000Y325999D01*
X411000Y327998D02*
Y329997D01*
Y328998D01*
X405002D01*
X406002Y327998D01*
X414000Y377998D02*
Y372000D01*
X416999D01*
X417999Y373000D01*
Y376998D01*
X416999Y377998D01*
X414000D01*
X419998Y376998D02*
X420998Y377998D01*
X422997D01*
X423997Y376998D01*
Y375999D01*
X422997Y374999D01*
X421997D01*
X422997D01*
X423997Y373999D01*
Y373000D01*
X422997Y372000D01*
X420998D01*
X419998Y373000D01*
X412000Y402000D02*
Y407998D01*
X414999D01*
X415999Y406998D01*
Y404999D01*
X414999Y403999D01*
X412000D01*
X413999D02*
X415999Y402000D01*
X417998Y407998D02*
X421997D01*
Y406998D01*
X417998Y403000D01*
Y402000D01*
D39*
X304287Y374823D02*
G03*
X304287Y374823I-1181J0D01*
G01*
D40*
X440000Y62000D02*
Y99000D01*
X463000D01*
Y59000D02*
Y99000D01*
X459000Y59000D02*
Y99000D01*
X440000Y59000D02*
X463000D01*
X440000D02*
Y62000D01*
Y106000D02*
Y143000D01*
X463000D01*
Y103000D02*
Y143000D01*
X459000Y103000D02*
Y143000D01*
X440000Y103000D02*
X463000D01*
X440000D02*
Y106000D01*
Y156000D02*
Y193000D01*
X463000D01*
Y153000D02*
Y193000D01*
X459000Y153000D02*
Y193000D01*
X440000Y153000D02*
X463000D01*
X440000D02*
Y156000D01*
X442000Y202000D02*
Y239000D01*
X465000D01*
Y199000D02*
Y239000D01*
X461000Y199000D02*
Y239000D01*
X442000Y199000D02*
X465000D01*
X442000D02*
Y202000D01*
X440000Y250000D02*
Y287000D01*
X463000D01*
Y247000D02*
Y287000D01*
X459000Y247000D02*
Y287000D01*
X440000Y247000D02*
X463000D01*
X440000D02*
Y250000D01*
X438000Y302000D02*
Y339000D01*
X461000D01*
Y299000D02*
Y339000D01*
X457000Y299000D02*
Y339000D01*
X438000Y299000D02*
X461000D01*
X438000D02*
Y302000D01*
X440000Y348000D02*
Y385000D01*
X463000D01*
Y345000D02*
Y385000D01*
X459000Y345000D02*
Y385000D01*
X440000Y345000D02*
X463000D01*
X440000D02*
Y348000D01*
X438000Y402000D02*
Y439000D01*
X461000D01*
Y399000D02*
Y439000D01*
X457000Y399000D02*
Y439000D01*
X438000Y399000D02*
X461000D01*
X438000D02*
Y402000D01*
Y448000D02*
Y485000D01*
X461000D01*
Y445000D02*
Y485000D01*
X457000Y445000D02*
Y485000D01*
X438000Y445000D02*
X461000D01*
X438000D02*
Y448000D01*
Y494000D02*
Y531000D01*
X461000D01*
Y491000D02*
Y531000D01*
X457000Y491000D02*
Y531000D01*
X438000Y491000D02*
X461000D01*
X438000D02*
Y494000D01*
X234575Y184803D02*
Y185197D01*
X231425Y184803D02*
Y185197D01*
X366500Y228500D02*
X368500D01*
X366500D02*
Y232500D01*
Y248500D01*
X367500Y228500D02*
X390500D01*
X386500D02*
Y248500D01*
X390500Y228500D02*
Y248500D01*
X366500D02*
X390500D01*
X318685Y205532D02*
Y231516D01*
X317110D02*
X318685D01*
X317110Y205532D02*
X318685D01*
X366500Y206500D02*
X368500D01*
X366500D02*
Y210500D01*
Y226500D01*
X367500Y206500D02*
X390500D01*
X386500D02*
Y226500D01*
X390500Y206500D02*
Y226500D01*
X366500D02*
X390500D01*
X299169Y329547D02*
Y378760D01*
X348382Y329547D02*
Y378760D01*
X299169D02*
X348382D01*
X299169Y329547D02*
X348382D01*
X371047Y359740D02*
Y396740D01*
X394047D01*
Y356740D02*
Y396740D01*
X390047Y356740D02*
Y396740D01*
X371047Y356740D02*
X394047D01*
X371047D02*
Y359740D01*
X151500Y360600D02*
X153500D01*
Y356600D02*
Y360600D01*
Y340600D02*
Y356600D01*
X129500Y360600D02*
X152500D01*
X133500Y340600D02*
Y360600D01*
X129500Y340600D02*
Y360600D01*
Y340600D02*
X153500D01*
X151500Y255100D02*
X153500D01*
Y251100D02*
Y255100D01*
Y235100D02*
Y251100D01*
X129500Y255100D02*
X152500D01*
X133500Y235100D02*
Y255100D01*
X129500Y235100D02*
Y255100D01*
Y235100D02*
X153500D01*
X153225Y413303D02*
Y413697D01*
X156375Y413303D02*
Y413697D01*
X137725Y452803D02*
Y453197D01*
X140875Y452803D02*
Y453197D01*
X255400Y471000D02*
Y473000D01*
X251400Y471000D02*
X255400D01*
X235400D02*
X251400D01*
X255400Y472000D02*
Y495000D01*
X235400Y491000D02*
X255400D01*
X235400Y495000D02*
X255400D01*
X235400Y471000D02*
Y495000D01*
X275325Y453803D02*
Y454197D01*
X278475Y453803D02*
Y454197D01*
X290825Y414303D02*
Y414697D01*
X293975Y414303D02*
Y414697D01*
X270425Y331803D02*
Y332197D01*
X273575Y331803D02*
Y332197D01*
X262425Y332653D02*
Y333047D01*
X265575Y332653D02*
Y333047D01*
X366500Y250500D02*
X368500D01*
X366500D02*
Y254500D01*
Y270500D01*
X367500Y250500D02*
X390500D01*
X386500D02*
Y270500D01*
X390500Y250500D02*
Y270500D01*
X366500D02*
X390500D01*
X343303Y229039D02*
X343697D01*
X343303Y233961D02*
X343697D01*
X343347Y222862D02*
X343740D01*
X343347Y218138D02*
X343740D01*
X343106Y207138D02*
X343500D01*
X343106Y211862D02*
X343500D01*
X334390Y244961D02*
X334784D01*
X334390Y240039D02*
X334784D01*
X342846Y252138D02*
X343240D01*
X342846Y256862D02*
X343240D01*
X355346Y278638D02*
X355740D01*
X355346Y283362D02*
X355740D01*
X339846Y283461D02*
X340240D01*
X339846Y278539D02*
X340240D01*
X346681Y268303D02*
Y268697D01*
X351406Y268303D02*
Y268697D01*
X361004Y268303D02*
Y268697D01*
X356083Y268303D02*
Y268697D01*
X337681Y268303D02*
Y268697D01*
X342406Y268303D02*
Y268697D01*
X267900Y124850D02*
Y126850D01*
X271900D01*
X287900D01*
X267900Y102850D02*
Y125850D01*
Y106850D02*
X287900D01*
X267900Y102850D02*
X287900D01*
Y126850D01*
X237900Y125500D02*
Y127500D01*
X241900D01*
X257900D01*
X237900Y103500D02*
Y126500D01*
Y107500D02*
X257900D01*
X237900Y103500D02*
X257900D01*
Y127500D01*
X250075Y145303D02*
Y145697D01*
X246925Y145303D02*
Y145697D01*
X132400Y125500D02*
Y127500D01*
X136400D01*
X152400D01*
X132400Y103500D02*
Y126500D01*
Y107500D02*
X152400D01*
X132400Y103500D02*
X152400D01*
Y127500D01*
X373400Y124850D02*
Y126850D01*
X377400D01*
X393400D01*
X373400Y102850D02*
Y125850D01*
Y106850D02*
X393400D01*
X373400Y102850D02*
X393400D01*
Y126850D01*
X171303Y242925D02*
X171697D01*
X171303Y246075D02*
X171697D01*
X210803Y258425D02*
X211197D01*
X210803Y261575D02*
X211197D01*
X370075Y184153D02*
Y184547D01*
X366925Y184153D02*
Y184547D01*
X385575Y144653D02*
Y145047D01*
X382425Y144653D02*
Y145047D01*
X287500Y472000D02*
Y474000D01*
X283500Y472000D02*
X287500D01*
X267500D02*
X283500D01*
X287500Y473000D02*
Y496000D01*
X267500Y492000D02*
X287500D01*
X267500Y496000D02*
X287500D01*
X267500Y472000D02*
Y496000D01*
X393000Y472000D02*
Y474000D01*
X389000Y472000D02*
X393000D01*
X373000D02*
X389000D01*
X393000Y473000D02*
Y496000D01*
X373000Y492000D02*
X393000D01*
X373000Y496000D02*
X393000D01*
X373000Y472000D02*
Y496000D01*
X149900Y471000D02*
Y473000D01*
X145900Y471000D02*
X149900D01*
X129900D02*
X145900D01*
X149900Y472000D02*
Y495000D01*
X129900Y491000D02*
X149900D01*
X129900Y495000D02*
X149900D01*
X129900Y471000D02*
Y495000D01*
X320185Y247532D02*
Y273516D01*
X318610D02*
X320185D01*
X318610Y247532D02*
X320185D01*
X408362Y393803D02*
Y394197D01*
X403638Y393803D02*
Y394197D01*
D41*
X352850Y479556D02*
Y486500D01*
X308150Y422500D02*
Y429444D01*
Y479556D02*
Y486500D01*
X343911D02*
X352850D01*
Y422500D02*
Y429444D01*
X308150Y422500D02*
X317089D01*
X343911D02*
X352850D01*
X308150Y486500D02*
X317089D01*
X215250Y478556D02*
Y485500D01*
X170550Y421500D02*
Y428444D01*
Y478556D02*
Y485500D01*
X206311D02*
X215250D01*
Y421500D02*
Y428444D01*
X170550Y421500D02*
X179489D01*
X206311D02*
X215250D01*
X170550Y485500D02*
X179489D01*
X139000Y320450D02*
X145944D01*
X196056Y275750D02*
X203000D01*
X139000D02*
X145944D01*
X139000Y311511D02*
Y320450D01*
X196056D02*
X203000D01*
Y275750D02*
Y284689D01*
Y311511D02*
Y320450D01*
X139000Y275750D02*
Y284689D01*
X308050Y112350D02*
Y119294D01*
X352750Y169407D02*
Y176350D01*
Y112350D02*
Y119294D01*
X308050Y112350D02*
X316989D01*
X308050Y169407D02*
Y176350D01*
X343811D02*
X352750D01*
X308050D02*
X316989D01*
X343811Y112350D02*
X352750D01*
X172550Y113000D02*
Y119944D01*
X217250Y170056D02*
Y177000D01*
Y113000D02*
Y119944D01*
X172550Y113000D02*
X181489D01*
X172550Y170056D02*
Y177000D01*
X208311D02*
X217250D01*
X172550D02*
X181489D01*
X208311Y113000D02*
X217250D01*
D42*
X274697Y350654D02*
Y364827D01*
X282571D01*
Y350654D02*
Y364827D01*
X274697Y350654D02*
X282571D01*
D43*
X409543Y384150D02*
Y386000D01*
X408756Y384937D02*
X410331D01*
X409543Y368008D02*
Y369189D01*
X404425Y377063D02*
X406000Y375488D01*
X404425Y377063D02*
X407575D01*
X406000Y375488D02*
X407575Y377063D01*
X404425Y375488D02*
X407575D01*
X401500Y367000D02*
Y386000D01*
X410500D02*
X410500Y367000D01*
X401500Y386000D02*
X410500D01*
X401500Y367000D02*
X410500Y367000D01*
M02*
