G04 Layer_Color=16711935*
%FSLAX25Y25*%
%MOIN*%
G70*
G01*
G75*
%ADD43R,0.06312X0.04934*%
%ADD48R,0.04737X0.04343*%
%ADD50R,0.04343X0.04737*%
%ADD51R,0.06509X0.05328*%
%ADD52R,0.05328X0.06509*%
%ADD53R,0.04934X0.06312*%
%ADD56C,0.00800*%
%ADD57R,0.06800X0.06800*%
%ADD58C,0.06800*%
%ADD59R,0.06800X0.06800*%
%ADD60C,0.03162*%
%ADD61R,0.08674X0.10642*%
%ADD62R,0.10642X0.08674*%
D43*
X290547Y342260D02*
D03*
Y349740D02*
D03*
D48*
X356047Y378039D02*
D03*
Y371740D02*
D03*
D50*
X347346Y322740D02*
D03*
X341047D02*
D03*
D51*
X318547Y340240D02*
D03*
Y333154D02*
D03*
X313047Y367653D02*
D03*
Y374740D02*
D03*
X321547Y367653D02*
D03*
Y374740D02*
D03*
X330047Y367653D02*
D03*
Y374740D02*
D03*
X328047Y340240D02*
D03*
Y333154D02*
D03*
D52*
X310047Y335240D02*
D03*
X302961D02*
D03*
X310134Y343240D02*
D03*
X303047D02*
D03*
X310134Y351740D02*
D03*
X303047D02*
D03*
X310134Y360240D02*
D03*
X303047D02*
D03*
X337547Y367740D02*
D03*
X344634D02*
D03*
X337547Y359740D02*
D03*
X344634D02*
D03*
X337547Y351240D02*
D03*
X344634D02*
D03*
X337547Y342740D02*
D03*
X344634D02*
D03*
D53*
X302067Y386240D02*
D03*
X309547D02*
D03*
D56*
X114000Y528000D02*
D03*
X116000Y70000D02*
D03*
X416000D02*
D03*
X412000Y526000D02*
D03*
D57*
X134900Y484000D02*
D03*
X378000Y485000D02*
D03*
X272500D02*
D03*
X388400Y113850D02*
D03*
X147400Y114500D02*
D03*
X252900D02*
D03*
X282900Y113850D02*
D03*
X240400Y484000D02*
D03*
D58*
X144900D02*
D03*
X388000Y485000D02*
D03*
X282500D02*
D03*
X378400Y113850D02*
D03*
X137400Y114500D02*
D03*
X242900D02*
D03*
X272900Y113850D02*
D03*
X379500Y255500D02*
D03*
X250400Y484000D02*
D03*
X140500Y250100D02*
D03*
Y355600D02*
D03*
X383047Y361740D02*
D03*
Y371740D02*
D03*
Y381740D02*
D03*
X379500Y211500D02*
D03*
Y233500D02*
D03*
D59*
Y265500D02*
D03*
X140500Y240100D02*
D03*
Y345600D02*
D03*
X383047Y391740D02*
D03*
X379500Y221500D02*
D03*
Y243500D02*
D03*
D60*
X154000Y300000D02*
D03*
X184000D02*
D03*
X176000Y296000D02*
D03*
X168000D02*
D03*
X158000D02*
D03*
X150000D02*
D03*
X144000D02*
D03*
Y288000D02*
D03*
X150000D02*
D03*
X156000D02*
D03*
X164000D02*
D03*
X172000D02*
D03*
X192000D02*
D03*
X198000Y296000D02*
D03*
X192000Y306000D02*
D03*
X182000D02*
D03*
X172000D02*
D03*
X162000D02*
D03*
X152000D02*
D03*
X144000D02*
D03*
X202000Y132000D02*
D03*
X194000D02*
D03*
X186000D02*
D03*
X194000Y120000D02*
D03*
X186000D02*
D03*
X194000Y138000D02*
D03*
Y148000D02*
D03*
Y156000D02*
D03*
Y164000D02*
D03*
X202000Y138000D02*
D03*
X186000D02*
D03*
Y148000D02*
D03*
Y156000D02*
D03*
Y164000D02*
D03*
X202000Y120000D02*
D03*
Y148000D02*
D03*
Y156000D02*
D03*
Y164000D02*
D03*
Y172000D02*
D03*
X194000D02*
D03*
X186000D02*
D03*
X338000Y118000D02*
D03*
X330000D02*
D03*
X322000D02*
D03*
Y128000D02*
D03*
X330000D02*
D03*
X338000D02*
D03*
Y138000D02*
D03*
X330000D02*
D03*
X322000D02*
D03*
Y148000D02*
D03*
X330000D02*
D03*
X338000D02*
D03*
Y156000D02*
D03*
X330000D02*
D03*
X322000D02*
D03*
Y164000D02*
D03*
X330000D02*
D03*
X338000D02*
D03*
Y172000D02*
D03*
X330000D02*
D03*
X322000D02*
D03*
X326000Y428000D02*
D03*
Y438000D02*
D03*
X322000Y448000D02*
D03*
Y458000D02*
D03*
Y466000D02*
D03*
Y474000D02*
D03*
X332000D02*
D03*
Y466000D02*
D03*
Y458000D02*
D03*
Y448000D02*
D03*
Y438000D02*
D03*
Y428000D02*
D03*
X338000D02*
D03*
Y438000D02*
D03*
Y448000D02*
D03*
Y458000D02*
D03*
Y466000D02*
D03*
Y474000D02*
D03*
Y482000D02*
D03*
X330000D02*
D03*
X322000D02*
D03*
X186000Y452000D02*
D03*
X194000D02*
D03*
X200000D02*
D03*
Y460000D02*
D03*
X194000Y480000D02*
D03*
Y470000D02*
D03*
X186000D02*
D03*
X194000Y460000D02*
D03*
Y444000D02*
D03*
X192000Y430000D02*
D03*
X194000Y436000D02*
D03*
X186000D02*
D03*
Y444000D02*
D03*
Y460000D02*
D03*
X200000Y428000D02*
D03*
Y436000D02*
D03*
Y444000D02*
D03*
Y470000D02*
D03*
Y480000D02*
D03*
X186000D02*
D03*
X283000Y90500D02*
D03*
X269500Y92000D02*
D03*
X161000Y397500D02*
D03*
X234000Y175000D02*
D03*
X226000Y188500D02*
D03*
X217000Y193000D02*
D03*
X208500Y217500D02*
D03*
X188500Y279000D02*
D03*
X198500Y357000D02*
D03*
X174500Y325500D02*
D03*
X292500Y417500D02*
D03*
X300000Y408000D02*
D03*
X319000Y407000D02*
D03*
X322500D02*
D03*
X183500Y325500D02*
D03*
X278000Y366500D02*
D03*
X178500Y325000D02*
D03*
X277500Y370000D02*
D03*
X277000Y373500D02*
D03*
X304000Y437000D02*
D03*
X304500Y447000D02*
D03*
X305500Y442000D02*
D03*
X363500Y446500D02*
D03*
X342500Y406000D02*
D03*
X327000Y276000D02*
D03*
X347500Y220500D02*
D03*
X355000Y221500D02*
D03*
X331500Y242500D02*
D03*
X288500Y350468D02*
D03*
X286000Y342469D02*
D03*
X271000Y349969D02*
D03*
X360500Y377969D02*
D03*
X338000Y367469D02*
D03*
X344500Y368468D02*
D03*
X310000Y334968D02*
D03*
X318500Y332968D02*
D03*
X354500Y387968D02*
D03*
X366000Y382469D02*
D03*
X161000Y351100D02*
D03*
Y339600D02*
D03*
X152500Y260000D02*
D03*
X150000Y244000D02*
D03*
X148000Y264000D02*
D03*
X166500Y252000D02*
D03*
X141900Y135000D02*
D03*
X153400D02*
D03*
X233000Y126500D02*
D03*
X249000Y124000D02*
D03*
X229000Y122000D02*
D03*
X241000Y140500D02*
D03*
X277400Y134350D02*
D03*
X288900D02*
D03*
X384500Y123350D02*
D03*
X376500Y139850D02*
D03*
X383500Y464500D02*
D03*
X372000D02*
D03*
X292400Y473000D02*
D03*
X276400Y475500D02*
D03*
X296400Y477500D02*
D03*
X284400Y459000D02*
D03*
X158800Y476500D02*
D03*
X146800Y458000D02*
D03*
X154800Y472000D02*
D03*
X138800Y474500D02*
D03*
X234400Y463500D02*
D03*
X245900D02*
D03*
X285500Y367500D02*
D03*
X288000Y365000D02*
D03*
X160500Y446000D02*
D03*
X159500Y441000D02*
D03*
X160500Y436500D02*
D03*
X304500Y401500D02*
D03*
X225500Y441000D02*
D03*
X312500Y407500D02*
D03*
X308500Y408500D02*
D03*
Y392000D02*
D03*
X312000Y394500D02*
D03*
X314000Y397000D02*
D03*
X321500Y397500D02*
D03*
X358500Y385000D02*
D03*
X360000Y357500D02*
D03*
X365500Y397500D02*
D03*
X365000Y472000D02*
D03*
X363000Y433000D02*
D03*
X373000Y438000D02*
D03*
X359500Y354500D02*
D03*
X183500Y279000D02*
D03*
X178500Y278500D02*
D03*
X361000Y371969D02*
D03*
X364500Y350500D02*
D03*
X359500Y348500D02*
D03*
X302000Y317500D02*
D03*
X273500Y345500D02*
D03*
X254000Y466000D02*
D03*
X227000Y471000D02*
D03*
X219000Y422500D02*
D03*
X226000Y446000D02*
D03*
X225500Y451000D02*
D03*
X272000Y442500D02*
D03*
X248000Y446000D02*
D03*
X236000Y442000D02*
D03*
X245000Y429500D02*
D03*
X139500Y445000D02*
D03*
X147500Y443000D02*
D03*
X158500Y430500D02*
D03*
X147000Y373500D02*
D03*
X147500Y334500D02*
D03*
X198000Y331000D02*
D03*
X205500Y341000D02*
D03*
X183000Y345000D02*
D03*
X178000Y338500D02*
D03*
X156500Y350500D02*
D03*
X154000Y332000D02*
D03*
X285634Y361740D02*
D03*
Y354240D02*
D03*
X182500Y194000D02*
D03*
X160500Y157500D02*
D03*
X196500Y195000D02*
D03*
X174500Y153500D02*
D03*
X213500Y192500D02*
D03*
X230500Y162000D02*
D03*
X228000Y157500D02*
D03*
X204000Y270000D02*
D03*
X216000Y233000D02*
D03*
X174500Y262000D02*
D03*
X231500Y149000D02*
D03*
X162000Y127500D02*
D03*
X162500Y168500D02*
D03*
X243000Y178500D02*
D03*
Y188000D02*
D03*
X251500Y159000D02*
D03*
X267000Y135500D02*
D03*
X297000Y127500D02*
D03*
Y169000D02*
D03*
X308000Y316000D02*
D03*
X268000Y276000D02*
D03*
X298600Y155100D02*
D03*
X363500Y167000D02*
D03*
X302500Y190000D02*
D03*
X294000Y179500D02*
D03*
X350500Y316500D02*
D03*
X341000Y316000D02*
D03*
X336500Y314500D02*
D03*
X358500Y343938D02*
D03*
X343500Y319500D02*
D03*
X346500Y318969D02*
D03*
X353500Y315500D02*
D03*
X277500Y261000D02*
D03*
X293000Y151500D02*
D03*
X343500Y308500D02*
D03*
X277500Y252500D02*
D03*
X293000Y147500D02*
D03*
X350500Y383498D02*
D03*
X365000Y341500D02*
D03*
X364500Y163000D02*
D03*
X289000Y358000D02*
D03*
X363500Y337000D02*
D03*
X367000Y325500D02*
D03*
X369500Y167000D02*
D03*
X296500Y386000D02*
D03*
X335000Y269500D02*
D03*
X367500Y272500D02*
D03*
X365500Y277000D02*
D03*
X347500Y260000D02*
D03*
X272500Y308000D02*
D03*
X270000Y294000D02*
D03*
X314000Y286000D02*
D03*
X279500Y291000D02*
D03*
X305500Y391500D02*
D03*
X288596Y361000D02*
D03*
X367500Y321500D02*
D03*
X373500Y170000D02*
D03*
X368500Y125850D02*
D03*
X364500Y121350D02*
D03*
X378500Y148000D02*
D03*
D61*
X240500Y91500D02*
D03*
X254476D02*
D03*
X135024Y92000D02*
D03*
X149000D02*
D03*
X269079Y90500D02*
D03*
X283055D02*
D03*
X377524D02*
D03*
X391500D02*
D03*
X146921Y508000D02*
D03*
X132945D02*
D03*
X286000Y509500D02*
D03*
X272024D02*
D03*
X389500Y513500D02*
D03*
X375524D02*
D03*
X254476Y514000D02*
D03*
X240500D02*
D03*
D62*
X116000Y251500D02*
D03*
Y237524D02*
D03*
X116500Y357500D02*
D03*
Y343524D02*
D03*
M02*
