G04 Layer_Physical_Order=1*
G04 Layer_Color=255*
%FSLAX25Y25*%
%MOIN*%
G70*
G01*
G75*
%ADD10R,0.05512X0.04134*%
%ADD11R,0.05000X0.06000*%
%ADD12R,0.05512X0.08268*%
%ADD13R,0.08268X0.03740*%
%ADD14R,0.25590X0.21654*%
%ADD15R,0.03937X0.03543*%
%ADD16R,0.04724X0.01575*%
%ADD17R,0.03543X0.03937*%
%ADD18R,0.08300X0.02500*%
%ADD19R,0.24400X0.63000*%
%ADD20R,0.05709X0.04528*%
%ADD21R,0.04528X0.05709*%
%ADD22R,0.04134X0.05512*%
%ADD23R,0.02500X0.08300*%
%ADD24R,0.63000X0.24400*%
%ADD25O,0.01181X0.07087*%
%ADD26O,0.07087X0.01181*%
%ADD27C,0.00984*%
%ADD28C,0.01000*%
%ADD29C,0.03000*%
%ADD30C,0.05000*%
%ADD31R,0.06000X0.06000*%
%ADD32C,0.06000*%
%ADD33R,0.06000X0.06000*%
%ADD34C,0.02362*%
D10*
X406000Y390260D02*
D03*
Y397740D02*
D03*
X340043Y272240D02*
D03*
Y264760D02*
D03*
X349043Y272240D02*
D03*
Y264760D02*
D03*
D11*
X406000Y372000D02*
D03*
Y381000D02*
D03*
D12*
X252189Y393653D02*
D03*
Y357827D02*
D03*
X269905D02*
D03*
Y393653D02*
D03*
D13*
X329043Y251547D02*
D03*
Y269500D02*
D03*
X327543Y209547D02*
D03*
Y227500D02*
D03*
D14*
X304240Y260524D02*
D03*
X302740Y218524D02*
D03*
D15*
X384000Y141701D02*
D03*
Y148000D02*
D03*
X368500Y181201D02*
D03*
Y187500D02*
D03*
X248500Y142350D02*
D03*
Y148650D02*
D03*
X277547Y336890D02*
D03*
Y330591D02*
D03*
X285047Y336740D02*
D03*
Y330441D02*
D03*
X292400Y417650D02*
D03*
Y411350D02*
D03*
X276900Y457150D02*
D03*
Y450850D02*
D03*
X139300Y456150D02*
D03*
Y449850D02*
D03*
X154800Y416650D02*
D03*
Y410350D02*
D03*
X233000Y181850D02*
D03*
Y188150D02*
D03*
D16*
X278634Y362465D02*
D03*
Y357740D02*
D03*
Y353016D02*
D03*
D17*
X207850Y260000D02*
D03*
X214150D02*
D03*
X168350Y244500D02*
D03*
X174650D02*
D03*
D18*
X221500Y122500D02*
D03*
Y127500D02*
D03*
Y132500D02*
D03*
Y137500D02*
D03*
Y142500D02*
D03*
Y147500D02*
D03*
Y152500D02*
D03*
Y157500D02*
D03*
Y162500D02*
D03*
Y167500D02*
D03*
X168300D02*
D03*
Y162500D02*
D03*
Y157500D02*
D03*
Y152500D02*
D03*
Y147500D02*
D03*
Y142500D02*
D03*
Y137500D02*
D03*
Y132500D02*
D03*
Y127500D02*
D03*
Y122500D02*
D03*
X357000Y121850D02*
D03*
Y126850D02*
D03*
Y131850D02*
D03*
Y136850D02*
D03*
Y141850D02*
D03*
Y146850D02*
D03*
Y151850D02*
D03*
Y156850D02*
D03*
Y161850D02*
D03*
Y166850D02*
D03*
X303800D02*
D03*
Y161850D02*
D03*
Y156850D02*
D03*
Y151850D02*
D03*
Y146850D02*
D03*
Y141850D02*
D03*
Y136850D02*
D03*
Y131850D02*
D03*
Y126850D02*
D03*
Y121850D02*
D03*
X166300Y476000D02*
D03*
Y471000D02*
D03*
Y466000D02*
D03*
Y461000D02*
D03*
Y456000D02*
D03*
Y451000D02*
D03*
Y446000D02*
D03*
Y441000D02*
D03*
Y436000D02*
D03*
Y431000D02*
D03*
X219500D02*
D03*
Y436000D02*
D03*
Y441000D02*
D03*
Y446000D02*
D03*
Y451000D02*
D03*
Y456000D02*
D03*
Y461000D02*
D03*
Y466000D02*
D03*
Y471000D02*
D03*
Y476000D02*
D03*
X303900Y477000D02*
D03*
Y472000D02*
D03*
Y467000D02*
D03*
Y462000D02*
D03*
Y457000D02*
D03*
Y452000D02*
D03*
Y447000D02*
D03*
Y442000D02*
D03*
Y437000D02*
D03*
Y432000D02*
D03*
X357100D02*
D03*
Y437000D02*
D03*
Y442000D02*
D03*
Y447000D02*
D03*
Y452000D02*
D03*
Y457000D02*
D03*
Y462000D02*
D03*
Y467000D02*
D03*
Y472000D02*
D03*
Y477000D02*
D03*
D19*
X194900Y145000D02*
D03*
X330400Y144350D02*
D03*
X192900Y453500D02*
D03*
X330500Y454500D02*
D03*
D20*
X358543Y264957D02*
D03*
Y272043D02*
D03*
D21*
X343587Y281000D02*
D03*
X336500D02*
D03*
X338130Y242500D02*
D03*
X331043D02*
D03*
X339957Y231500D02*
D03*
X347043D02*
D03*
D22*
X351803Y281000D02*
D03*
X359283D02*
D03*
X339303Y254500D02*
D03*
X346783D02*
D03*
X339563Y209500D02*
D03*
X347043D02*
D03*
X347284Y220500D02*
D03*
X339803D02*
D03*
D23*
X148500Y271500D02*
D03*
X153500D02*
D03*
X158500D02*
D03*
X163500D02*
D03*
X168500D02*
D03*
X173500D02*
D03*
X178500D02*
D03*
X183500D02*
D03*
X188500D02*
D03*
X193500D02*
D03*
Y324700D02*
D03*
X188500D02*
D03*
X183500D02*
D03*
X178500D02*
D03*
X173500D02*
D03*
X168500D02*
D03*
X163500D02*
D03*
X158500D02*
D03*
X153500D02*
D03*
X148500D02*
D03*
D24*
X171000Y298100D02*
D03*
D25*
X300153Y383878D02*
D03*
X302122D02*
D03*
X304090D02*
D03*
X306059D02*
D03*
X308028D02*
D03*
X309996D02*
D03*
X311965D02*
D03*
X313933D02*
D03*
X315902D02*
D03*
X317870D02*
D03*
X319839D02*
D03*
X321807D02*
D03*
X323776D02*
D03*
X325744D02*
D03*
X327713D02*
D03*
X329681D02*
D03*
X331650D02*
D03*
X333618D02*
D03*
X335587D02*
D03*
X337555D02*
D03*
X339524D02*
D03*
X341492D02*
D03*
X343461D02*
D03*
X345429D02*
D03*
X347398D02*
D03*
Y324429D02*
D03*
X345429D02*
D03*
X343461D02*
D03*
X341492D02*
D03*
X339524D02*
D03*
X337555D02*
D03*
X335587D02*
D03*
X333618D02*
D03*
X331650D02*
D03*
X329681D02*
D03*
X327713D02*
D03*
X325744D02*
D03*
X323776D02*
D03*
X321807D02*
D03*
X319839D02*
D03*
X317870D02*
D03*
X315902D02*
D03*
X313933D02*
D03*
X311965D02*
D03*
X309996D02*
D03*
X308028D02*
D03*
X306059D02*
D03*
X304090D02*
D03*
X302122D02*
D03*
X300153D02*
D03*
D26*
X353500Y377776D02*
D03*
Y375807D02*
D03*
Y373839D02*
D03*
Y371870D02*
D03*
Y369902D02*
D03*
Y367933D02*
D03*
Y365965D02*
D03*
Y363996D02*
D03*
Y362028D02*
D03*
Y360059D02*
D03*
Y358090D02*
D03*
Y356122D02*
D03*
Y354153D02*
D03*
Y352185D02*
D03*
Y350217D02*
D03*
Y348248D02*
D03*
Y346280D02*
D03*
Y344311D02*
D03*
Y342342D02*
D03*
Y340374D02*
D03*
Y338405D02*
D03*
Y336437D02*
D03*
Y334469D02*
D03*
Y332500D02*
D03*
Y330532D02*
D03*
X294051D02*
D03*
Y332500D02*
D03*
Y334469D02*
D03*
Y336437D02*
D03*
Y338405D02*
D03*
Y340374D02*
D03*
Y342342D02*
D03*
Y344311D02*
D03*
Y346280D02*
D03*
Y348248D02*
D03*
Y350217D02*
D03*
Y352185D02*
D03*
Y354153D02*
D03*
Y356122D02*
D03*
Y358090D02*
D03*
Y360059D02*
D03*
Y362028D02*
D03*
Y363996D02*
D03*
Y365965D02*
D03*
Y367933D02*
D03*
Y369902D02*
D03*
Y371870D02*
D03*
Y373839D02*
D03*
Y375807D02*
D03*
Y377776D02*
D03*
D27*
X292500Y417500D02*
Y420600D01*
X359087Y271500D02*
X365142Y277555D01*
X288910Y358090D02*
X294051D01*
X383047Y391740D02*
X389047Y397740D01*
X406000D01*
X383047Y371740D02*
X383307Y372000D01*
X406000D01*
X188500Y271500D02*
Y279000D01*
X357100Y432000D02*
X361000Y428100D01*
Y427500D02*
Y428100D01*
X351500Y418000D02*
X361000Y427500D01*
X317900Y418000D02*
X351500D01*
X303900Y432000D02*
X317900Y418000D01*
X292500Y420600D02*
X303900Y432000D01*
X300000Y408000D02*
X302000Y406000D01*
Y390968D02*
Y406000D01*
X319717Y276000D02*
X327000D01*
X304240Y260524D02*
X319717Y276000D01*
X375500Y265500D02*
X379500D01*
X338000Y367469D02*
X340500Y364968D01*
X353214Y375521D02*
X353500Y375807D01*
X349850Y375521D02*
X353214D01*
X347500Y373171D02*
X349850Y375521D01*
X340500Y364968D02*
X347500D01*
X288500Y350468D02*
X289000D01*
X289416Y350884D01*
Y350914D01*
X293765Y351899D02*
X294051Y352185D01*
X293925Y342469D02*
X294051Y342342D01*
X286000Y342469D02*
X293925D01*
X271000Y349969D02*
Y356732D01*
X269905Y357827D02*
X271000Y356732D01*
X278634Y353016D02*
X279681Y351969D01*
X284691D01*
X284692Y351967D01*
X286576D01*
X302000Y390968D02*
X302122Y390846D01*
Y383878D02*
Y390846D01*
X353500Y373839D02*
X359130D01*
X358339Y375807D02*
X360500Y377969D01*
X353500Y375807D02*
X358339D01*
X343461Y320929D02*
Y324429D01*
X307500Y334968D02*
X310000D01*
X302122Y329591D02*
X307500Y334968D01*
X302122Y324429D02*
Y329591D01*
X312630Y332968D02*
X318500D01*
X308726Y329065D02*
X312630Y332968D01*
X304376Y329065D02*
X308726D01*
X304376Y324715D02*
Y329065D01*
X304090Y324429D02*
X304376Y324715D01*
X365228Y371740D02*
X383047D01*
X289933Y367933D02*
X294051D01*
X285500Y367500D02*
X287902Y369902D01*
X294051D01*
X288000Y366000D02*
X289933Y367933D01*
X288000Y365000D02*
Y366000D01*
X311965Y383878D02*
X312250Y384164D01*
X317870Y383878D02*
X318156Y384164D01*
X160500Y446000D02*
X166300D01*
X159500Y441000D02*
X166300D01*
X160500Y436500D02*
X165800D01*
X166300Y436000D01*
X219500Y441000D02*
X225500D01*
X313933Y383878D02*
Y390777D01*
X312907Y391803D02*
X313933Y390777D01*
X307273Y389727D02*
X309442D01*
X308500Y392000D02*
X308697Y391803D01*
X312250Y384164D02*
Y390219D01*
X309934D02*
X312250D01*
X309442Y389727D02*
X309934Y390219D01*
X308697Y391803D02*
X312907D01*
X315902Y383878D02*
Y391049D01*
X313563Y393387D02*
X315902Y391049D01*
X313113Y393387D02*
X313563D01*
X312000Y394500D02*
X313113Y393387D01*
X317870Y383878D02*
Y393130D01*
X314000Y397000D02*
X317870Y393130D01*
X319839Y383878D02*
Y394684D01*
X313011Y401511D02*
X319839Y394684D01*
X304511Y401511D02*
X313011D01*
X304500Y401500D02*
X304511Y401511D01*
X321807Y383878D02*
Y397193D01*
X321500Y397500D02*
X321807Y397193D01*
X365500Y397500D02*
X377287D01*
X383047Y391740D01*
X357100Y472000D02*
Y477000D01*
Y472000D02*
X365000D01*
X362000Y432000D02*
X363000Y433000D01*
X357100Y432000D02*
X362000D01*
X357100Y442000D02*
X369000D01*
X373000Y438000D01*
X363227Y357500D02*
X363727Y357000D01*
X360000Y357500D02*
X363227D01*
X353500Y352185D02*
X353786Y352471D01*
X357150D01*
X358135Y353457D01*
Y353635D01*
X360643Y350642D02*
Y352428D01*
X363727Y355512D01*
Y357000D01*
X358135Y353635D02*
X359000Y354500D01*
X359500D01*
X353500Y348248D02*
X359248D01*
X353500Y350217D02*
X358002D01*
X358558Y350773D01*
X360442D01*
X360572Y350642D01*
X360643D01*
X183500Y271500D02*
Y279000D01*
X178500Y271500D02*
Y278500D01*
X358339Y375807D02*
X361161D01*
X365228Y371740D01*
X359130Y373839D02*
X361000Y371969D01*
X359248Y348248D02*
X359500Y348500D01*
X360000Y357500D02*
X362000Y359500D01*
X302000Y317500D02*
Y324307D01*
X302122Y324429D01*
X273500Y345500D02*
X274000Y346000D01*
Y357500D01*
X274240Y357740D01*
X278634D01*
X219500Y446000D02*
X226000D01*
X289416Y350914D02*
X290401Y351899D01*
X293765D01*
X342824Y319786D02*
X343110Y319500D01*
X345429Y320786D02*
Y324429D01*
Y320786D02*
X346500Y319715D01*
X342824Y319786D02*
Y320293D01*
X343461Y320929D01*
X343110Y319500D02*
X343500D01*
X346500Y318969D02*
Y319715D01*
X286576Y351967D02*
X288735Y354127D01*
X294024D02*
X294051Y354153D01*
X288735Y354127D02*
X294024D01*
X288910Y358090D02*
X289000Y358000D01*
X347398Y324429D02*
X347786D01*
X362000Y359500D02*
X369500D01*
X298622Y383878D02*
X300153D01*
X296500Y386000D02*
X298622Y383878D01*
X335000Y269500D02*
X337303D01*
X340043Y272240D01*
X358543Y272043D02*
X359087Y271500D01*
X368500Y272500D02*
X375500Y265500D01*
X367500Y272500D02*
X368500D01*
X365142Y277555D02*
X365500Y277197D01*
Y277000D02*
Y277197D01*
X347500Y364968D02*
Y373171D01*
X304090Y324429D02*
X304273Y324247D01*
Y318227D02*
Y324247D01*
Y318227D02*
X305000Y317500D01*
Y317285D02*
Y317500D01*
X279500Y291785D02*
X305000Y317285D01*
X279500Y291000D02*
Y291785D01*
X305500Y391500D02*
X307273Y389727D01*
X166300Y471000D02*
Y476000D01*
X303900Y472000D02*
Y477000D01*
X274000Y382000D02*
X300000Y408000D01*
X274000Y357500D02*
Y382000D01*
X347786Y324429D02*
X354715Y317500D01*
X369500D01*
X353500Y330532D02*
X362531Y321500D01*
X369500Y317500D02*
Y320285D01*
X369773Y320558D01*
Y322442D01*
X369500Y322715D02*
X369773Y322442D01*
X369500Y322715D02*
Y359500D01*
X362531Y321500D02*
X367500D01*
X373500Y163500D02*
Y170000D01*
X361850Y151850D02*
X373500Y163500D01*
X357000Y151850D02*
X361850D01*
D28*
X156000Y350000D02*
X158423D01*
X233000Y175000D02*
Y179000D01*
X350500Y383498D02*
X355500Y378498D01*
X347284Y220500D02*
Y226000D01*
X196555Y194945D02*
X319609Y318000D01*
X233000Y175000D02*
X234000D01*
X217000Y193000D02*
Y206000D01*
X278000Y366500D02*
X283370Y371870D01*
X294051D01*
X277500Y370000D02*
X281339Y373839D01*
X294051D01*
X277000Y373500D02*
X279307Y375807D01*
X294051D01*
X357100Y447000D02*
X357600Y446500D01*
X363500D01*
X333618Y397118D02*
X342500Y406000D01*
X269905Y357827D02*
Y393653D01*
X347043Y209500D02*
X348000Y208543D01*
Y204500D02*
Y208543D01*
Y204500D02*
X352000D01*
X359000Y211500D01*
X379500D01*
X355000Y221500D02*
X379500D01*
X339957Y236913D02*
X341543Y238500D01*
X339957Y236913D02*
Y240673D01*
Y231500D02*
Y236913D01*
X338130Y242500D02*
X339957Y240673D01*
X358543Y264957D02*
X368000Y255500D01*
X379500D01*
X367995Y361740D02*
X383047D01*
X284898Y336890D02*
X285047Y336740D01*
X277547Y336890D02*
X284898D01*
X294051Y336437D02*
Y338405D01*
X288681Y340374D02*
X294051D01*
X285047Y336740D02*
X288681Y340374D01*
X285047Y330441D02*
X289408Y334802D01*
X366000Y382469D02*
X366728Y381740D01*
X383047D01*
X355500Y378498D02*
X368742Y391740D01*
X383047D01*
X353500Y371870D02*
X353778Y371592D01*
X153500Y269500D02*
Y271500D01*
X148000Y264000D02*
X153500Y269500D01*
X166500Y252000D02*
X168350Y250150D01*
Y244500D02*
Y250150D01*
Y240538D02*
Y244500D01*
Y240538D02*
X172257Y236631D01*
X201819D01*
X207850Y242663D01*
Y260000D01*
X221500Y127500D02*
X223500D01*
X229000Y122000D01*
X241000Y140500D02*
X242850Y142350D01*
X248500D01*
X252462D02*
X256368Y146257D01*
Y175819D01*
X250337Y181850D02*
X256368Y175819D01*
X233000Y181850D02*
X250337D01*
X357000Y126850D02*
X359000D01*
X378350Y141701D02*
X384000D01*
X387962D01*
X376500Y139850D02*
X378350Y141701D01*
X385837Y181201D02*
X391868Y175169D01*
X387962Y141701D02*
X391868Y145607D01*
Y175169D01*
X301900Y472000D02*
X303900D01*
X296400Y477500D02*
X301900Y472000D01*
X282550Y457150D02*
X284400Y459000D01*
X276900Y457150D02*
X282550D01*
X275063Y417650D02*
X292400D01*
X269032Y453243D02*
X272938Y457150D01*
X269032Y423681D02*
X275063Y417650D01*
X269032Y423681D02*
Y453243D01*
X137463Y416650D02*
X154800D01*
X131431Y422681D02*
X137463Y416650D01*
X164300Y471000D02*
X166300D01*
X158800Y476500D02*
X164300Y471000D01*
X135338Y456150D02*
X139300D01*
X131431Y452243D02*
X135338Y456150D01*
X139300D02*
X144950D01*
X146800Y458000D01*
X131431Y422681D02*
Y452243D01*
X368500Y181201D02*
X385837D01*
X338043Y254500D02*
X339303D01*
X335043Y251500D02*
X338043Y254500D01*
X329090Y251500D02*
X335043D01*
X329043Y251547D02*
X329090Y251500D01*
X346783Y251153D02*
Y254500D01*
X338130Y242500D02*
X346783Y251153D01*
X339303Y254500D02*
Y264020D01*
X340043Y264760D01*
X346783Y254500D02*
X348087D01*
X358543Y264957D01*
X343587Y281000D02*
X351803D01*
X351803Y281000D01*
X353043Y279760D01*
Y276500D02*
Y279760D01*
X358543Y264957D02*
X363000D01*
X327590Y209500D02*
X339563D01*
X327543Y209547D02*
X327590Y209500D01*
X339563D02*
Y220260D01*
X339803Y220500D01*
X347043Y209500D02*
X351543D01*
Y237500D01*
X350543Y238500D02*
X351543Y237500D01*
X341543Y238500D02*
X350543D01*
X347043Y231500D02*
X347284Y231260D01*
X302740Y218524D02*
X328067D01*
X335543Y226000D01*
X347284D01*
Y231260D01*
X333618Y383878D02*
Y397118D01*
X331650Y383878D02*
Y408650D01*
X329681Y383878D02*
Y406319D01*
X331650Y408650D02*
X331750Y408750D01*
X324250D02*
X331750D01*
X322500Y407000D02*
X324250Y408750D01*
X329000Y407000D02*
X329681Y406319D01*
X325726Y407000D02*
X329000D01*
X323445Y404719D02*
X325726Y407000D01*
X321555Y404719D02*
X323445D01*
X319274Y407000D02*
X321555Y404719D01*
X319000Y407000D02*
X319274D01*
X327713Y383878D02*
Y402287D01*
X327500Y402500D02*
X327713Y402287D01*
X317500Y402500D02*
X327500D01*
X312500Y407500D02*
X317500Y402500D01*
X325744Y383878D02*
Y391707D01*
X326113Y392076D01*
Y400500D01*
X316274D02*
X326113D01*
X310219Y406555D02*
X316274Y400500D01*
X310219Y406555D02*
Y406781D01*
X308500Y408500D02*
X310219Y406781D01*
X364280Y346280D02*
Y350279D01*
X358500Y385000D02*
Y412500D01*
X377500Y431500D01*
Y439000D01*
X364500Y452000D02*
X377500Y439000D01*
X357100Y452000D02*
X364500D01*
X360506Y346280D02*
X364280D01*
X353500D02*
X353561Y346219D01*
X353778Y371592D02*
X358143D01*
X367995Y361740D01*
X364280Y350279D02*
X364500Y350500D01*
X360445Y346219D02*
X360506Y346280D01*
X254000Y466000D02*
X262850Y457150D01*
X219500Y471000D02*
X227000D01*
X262850Y457150D02*
X272938D01*
X276900D01*
X219500Y471000D02*
Y476000D01*
X219000Y422500D02*
Y430500D01*
X219500Y431000D01*
Y451000D02*
X225500D01*
X158500Y430500D02*
X165800D01*
X166300Y431000D01*
Y428150D02*
Y431000D01*
X154800Y416650D02*
X166300Y428150D01*
X147000Y408850D02*
X154800Y416650D01*
X147000Y373500D02*
Y408850D01*
X147500Y325700D02*
Y334500D01*
Y325700D02*
X148500Y324700D01*
X153500D01*
X135300D02*
X148500D01*
X135300Y267700D02*
Y324700D01*
Y267700D02*
X144800D01*
X148500Y271400D01*
Y271500D01*
X153500D01*
X193500Y324700D02*
X198000Y329200D01*
Y331000D01*
X201500Y345000D02*
X205500Y341000D01*
X183000Y345000D02*
X201500D01*
X166500Y350000D02*
X178000Y338500D01*
X163577Y350000D02*
X166500D01*
X162077Y348500D02*
X163577Y350000D01*
X159923Y348500D02*
X162077D01*
X158423Y350000D02*
X159923Y348500D01*
X156000Y350000D02*
X156500Y350500D01*
X154000Y325200D02*
Y332000D01*
X153500Y324700D02*
X154000Y325200D01*
X278634Y362465D02*
X284910D01*
X285634Y361740D01*
Y354240D02*
X287516Y356122D01*
X323498Y324151D02*
X323776Y324429D01*
X160500Y157500D02*
X168300D01*
X331372Y324151D02*
X331650Y324429D01*
X196500Y195000D02*
X196555Y194945D01*
X169300Y153500D02*
X174500D01*
X168300Y152500D02*
X169300Y153500D01*
X333340Y324151D02*
X333618Y324429D01*
X182500Y194000D02*
X193347D01*
X194219Y194872D01*
X198781Y194055D02*
Y194581D01*
X159500Y148500D02*
Y155274D01*
Y148500D02*
X160500Y147500D01*
X168300D01*
X194219Y194872D02*
Y195945D01*
X150400Y164374D02*
X159500Y155274D01*
X150400Y164374D02*
Y170400D01*
X171500Y191500D01*
X196226D01*
X198781Y194055D01*
X222000Y162000D02*
X230500D01*
X221500Y162500D02*
X222000Y162000D01*
X221500Y157500D02*
X228000D01*
X202500Y271500D02*
X204000Y270000D01*
X193500Y271500D02*
X196350D01*
X207850Y260000D01*
X196350Y271500D02*
X202500D01*
X168300Y122500D02*
Y127500D01*
X162000D02*
X168300D01*
X162500Y168500D02*
X167300D01*
X168300Y167500D01*
X221500Y152500D02*
X243000D01*
Y178500D01*
X353561Y346219D02*
X356993D01*
X357430Y346656D01*
X358118D01*
X358555Y346219D01*
X360445D01*
X353778Y344033D02*
X358405D01*
X353500Y344311D02*
X353778Y344033D01*
X221500Y122500D02*
Y127500D01*
Y167500D02*
X233000Y179000D01*
Y181850D01*
X260150Y142350D02*
X267000Y135500D01*
X297000Y127500D02*
X303150D01*
X303800Y126850D01*
X248500Y142350D02*
X252462D01*
X260150D01*
X303800Y121850D02*
Y126850D01*
X299150Y166850D02*
X303800D01*
X297000Y169000D02*
X299150Y166850D01*
X290500Y206283D02*
X302740Y218524D01*
X290500Y169850D02*
Y170000D01*
Y206283D01*
X268000Y276000D02*
X308000Y316000D01*
X198781Y194581D02*
X320600Y316400D01*
X194219Y195945D02*
X318060Y319786D01*
X298600Y155100D02*
X302050D01*
X303800Y156850D01*
X357000Y121850D02*
Y126850D01*
X368500Y178350D02*
Y181201D01*
X357000Y166850D02*
X368500Y178350D01*
X357000Y166850D02*
X363350D01*
X363500Y167000D01*
X294000Y181500D02*
X302500Y190000D01*
X294000Y179500D02*
Y181500D01*
X318060Y319786D02*
X323498D01*
Y324151D01*
X319609Y318000D02*
X325220D01*
X327006Y319786D01*
X320600Y316400D02*
X321000Y316000D01*
X337555Y318055D02*
Y324429D01*
X339379Y324284D02*
X339524Y324429D01*
X341214Y324151D02*
X341492Y324429D01*
X341214Y320776D02*
Y324151D01*
X340979Y320541D02*
X341214Y320776D01*
X340979Y318331D02*
Y320541D01*
Y318331D02*
X341124Y318186D01*
Y316861D02*
Y318186D01*
X343281Y315055D02*
Y315181D01*
X336500Y314726D02*
X339379Y317605D01*
Y324284D01*
X341000Y316737D02*
X341124Y316861D01*
X341000Y316000D02*
Y316737D01*
X338626Y310400D02*
X343281Y315055D01*
X336500Y314500D02*
Y314726D01*
X327006Y319786D02*
X331372D01*
Y324151D01*
X321000Y316000D02*
X329849D01*
X333340Y319492D01*
Y324151D01*
X331000Y314000D02*
X332619Y315619D01*
Y316108D01*
X334892Y318381D01*
X335381D01*
X335587Y318587D01*
Y324429D01*
X331500Y312000D02*
X334219Y314719D01*
Y315445D01*
X335555Y316781D01*
X336281D01*
X337555Y318055D01*
X358405Y344033D02*
X358500Y343938D01*
X343281Y315181D02*
X344600Y316500D01*
X350500D01*
X352726Y315500D02*
X353500D01*
X351445Y314219D02*
X352726Y315500D01*
X349555Y314219D02*
X351445D01*
X348874Y314900D02*
X349555Y314219D01*
X345900Y314900D02*
X348874D01*
X340243Y309243D02*
X345900Y314900D01*
X339783Y309243D02*
X340243D01*
X339757Y309269D02*
X339783Y309243D01*
X338489Y308000D02*
X339757Y309269D01*
X324000Y308000D02*
X338489D01*
X277500Y261500D02*
X324000Y308000D01*
X277500Y261000D02*
Y261500D01*
X293000Y151500D02*
X303450D01*
X303800Y151850D01*
X353500Y336437D02*
X362937D01*
X341500Y306500D02*
X343500Y308500D01*
X339989Y306500D02*
X341500D01*
X338989Y305500D02*
X339989Y306500D01*
X321500Y314000D02*
X331000D01*
X213500Y192500D02*
Y206000D01*
X323000Y312000D02*
X331500D01*
X323663Y310400D02*
X338626D01*
X213500Y206000D02*
X321500Y314000D01*
X217000Y206000D02*
X323000Y312000D01*
X324039Y305500D02*
X338989D01*
X243000Y229737D02*
X323663Y310400D01*
X243000Y188000D02*
Y229737D01*
X279781Y261242D02*
X324039Y305500D01*
X279781Y260055D02*
Y261242D01*
X278445Y258719D02*
X279781Y260055D01*
X278219Y258719D02*
X278445D01*
X277500Y258000D02*
X278219Y258719D01*
X277500Y252500D02*
Y258000D01*
X293000Y147500D02*
X303150D01*
X303800Y146850D01*
X351000Y387968D02*
X354500D01*
X347398Y383878D02*
Y384366D01*
X351000Y387968D01*
X365000Y341500D02*
X366408Y340092D01*
X357000Y161850D02*
X363350D01*
X364500Y163000D01*
X278634Y357740D02*
X280894Y360000D01*
X284148D01*
X284689Y359459D01*
X293992Y360000D02*
X294051Y360059D01*
X289445Y360781D02*
X290226Y360000D01*
X293992D01*
X286579Y359459D02*
X287901Y360781D01*
X287516Y356122D02*
X287652D01*
X288055Y355719D01*
X289945D01*
X290348Y356122D01*
X294051D01*
X284689Y359459D02*
X286579D01*
X362937Y336437D02*
X363500Y337000D01*
X366408Y336682D02*
Y340092D01*
X364194Y334469D02*
X366408Y336682D01*
X353500Y334469D02*
X364194D01*
X353500Y332500D02*
X360000D01*
X367000Y325500D01*
X363000Y264957D02*
X363543Y265500D01*
X353043Y276500D02*
X361835D01*
X363543Y265500D02*
Y271769D01*
X367048Y275274D01*
X369726D01*
X371062Y276610D01*
Y278500D01*
X369726Y279836D02*
X371062Y278500D01*
X361835Y276500D02*
X363219Y277884D01*
Y277945D01*
X365110Y279836D01*
X369726D01*
X349043Y261543D02*
Y264760D01*
X347500Y260000D02*
X349043Y261543D01*
X272500Y308000D02*
Y325543D01*
X277547Y330591D01*
X289408Y334802D02*
Y336159D01*
X293773D01*
X294051Y336437D01*
X277547Y330591D02*
X284898D01*
X285047Y330441D01*
X270000Y329343D02*
X277547Y336890D01*
X270000Y294000D02*
Y329343D01*
X314000Y286000D02*
X323000D01*
X327000Y290000D01*
X359000D01*
Y281283D02*
Y290000D01*
Y281283D02*
X359283Y281000D01*
X369500Y164500D02*
Y167000D01*
X357000Y156850D02*
X361850D01*
X369500Y164500D01*
X359000Y126850D02*
X364500Y121350D01*
D29*
X406000Y381000D02*
X406000Y381000D01*
X406000Y381000D02*
Y390260D01*
X329043Y240500D02*
Y247577D01*
X147500Y443000D02*
X155500Y451000D01*
X139300Y449850D02*
X165150D01*
X222650Y148650D02*
X248500D01*
X174650Y244500D02*
Y270350D01*
X172650Y188150D02*
X233000D01*
X282900Y90600D02*
X283000Y90500D01*
X282900Y90600D02*
Y113850D01*
X269500Y92000D02*
X272900Y95400D01*
Y113850D01*
X240400Y457500D02*
Y484000D01*
X250400Y468000D02*
Y484000D01*
X154800Y367700D02*
Y410350D01*
Y367700D02*
X188500Y334000D01*
X166741Y410350D02*
X213736D01*
X165491Y411600D02*
X166741Y410350D01*
X162509Y411600D02*
X165491D01*
X161259Y410350D02*
X162509Y411600D01*
X154800Y410350D02*
X161259D01*
X216400Y411600D02*
X227150Y422350D01*
X214986Y411600D02*
X216400D01*
X213736Y410350D02*
X214986Y411600D01*
X208500Y217500D02*
Y218000D01*
X248500Y148650D02*
X251500Y151650D01*
X302750Y450850D02*
X303900Y452000D01*
X276900Y450850D02*
X302750D01*
X327543Y227500D02*
Y239000D01*
X168000Y325200D02*
X168500Y324700D01*
X140500Y345600D02*
X167000D01*
X168500Y344100D01*
Y324700D02*
Y344100D01*
X140500Y355600D02*
X156500D01*
X161000Y351100D01*
Y339600D02*
X163500Y337100D01*
Y324700D02*
Y337100D01*
X157750Y265250D02*
X161850D01*
Y269350D01*
X152500Y260000D02*
X157750Y265250D01*
X163500Y271000D02*
Y271500D01*
X161850Y269350D02*
X163500Y271000D01*
X140500Y240100D02*
X146100D01*
X150000Y244000D01*
X164595Y256600D02*
X165600D01*
X161900Y253905D02*
X164595Y256600D01*
X168500Y259500D02*
Y271500D01*
X165600Y256600D02*
X168500Y259500D01*
X140500Y250100D02*
X159100D01*
X161900Y252900D02*
Y253905D01*
X159100Y250100D02*
X161900Y252900D01*
X188500Y334000D02*
X194500Y340000D01*
X188500Y324700D02*
Y334000D01*
X194500Y340000D02*
X214150Y320350D01*
Y260000D02*
Y320350D01*
X173500Y271500D02*
X174650Y270350D01*
X167800Y142000D02*
X168300Y142500D01*
X147400Y114500D02*
Y141000D01*
X148900Y142500D01*
X168300D01*
X137400Y114500D02*
Y130500D01*
X141900Y135000D01*
X153400D02*
X155900Y137500D01*
X168300D01*
X227750Y131750D02*
Y135850D01*
X223650D02*
X227750D01*
Y131750D02*
X233000Y126500D01*
X221500Y137500D02*
X222000D01*
X223650Y135850D01*
X252900Y114500D02*
Y120100D01*
X249000Y124000D02*
X252900Y120100D01*
X221500Y142500D02*
X233500D01*
X242900Y114500D02*
Y133100D01*
X153000Y168500D02*
X159000Y162500D01*
X168300D01*
X153000Y168500D02*
X172650Y188150D01*
X221500Y147500D02*
X222650Y148650D01*
X303300Y141350D02*
X303800Y141850D01*
X282900Y113850D02*
Y140350D01*
X284400Y141850D01*
X303800D01*
X272900Y113850D02*
Y129850D01*
X277400Y134350D01*
X288900D02*
X291400Y136850D01*
X303800D01*
X359150Y135200D02*
X363250D01*
X357000Y136850D02*
X357500D01*
X359150Y135200D01*
X388400Y113850D02*
Y119450D01*
X384500Y123350D02*
X388400Y119450D01*
X371900Y137945D02*
Y138950D01*
Y137945D02*
X374595Y135250D01*
X357000Y141850D02*
X369000D01*
X371900Y138950D01*
X378400Y113850D02*
Y132450D01*
X374595Y135250D02*
X375600D01*
X378400Y132450D01*
X294500Y161850D02*
X303800D01*
X308150Y187500D02*
X368500D01*
X357000Y146850D02*
X358150Y148000D01*
X357100Y457000D02*
X357600Y457500D01*
X378000Y458500D02*
Y485000D01*
X376500Y457000D02*
X378000Y458500D01*
X357100Y457000D02*
X376500D01*
X388000Y469000D02*
Y485000D01*
X383500Y464500D02*
X388000Y469000D01*
X369500Y462000D02*
X372000Y464500D01*
X357100Y462000D02*
X369500D01*
X297650Y463650D02*
Y467750D01*
Y463650D02*
X301750D01*
X292400Y473000D02*
X297650Y467750D01*
X303400Y462000D02*
X303900D01*
X301750Y463650D02*
X303400Y462000D01*
X272500Y479400D02*
Y485000D01*
Y479400D02*
X276400Y475500D01*
X289000Y459900D02*
Y460905D01*
X286305Y463600D02*
X289000Y460905D01*
X291900Y457000D02*
X303900D01*
X289000Y459900D02*
X291900Y457000D01*
X282500Y466400D02*
Y485000D01*
X285300Y463600D02*
X286305D01*
X282500Y466400D02*
X285300Y463600D01*
X357100Y437000D02*
X366400D01*
X372400Y431000D01*
X352750Y411350D02*
X372400Y431000D01*
X165150Y449850D02*
X166300Y451000D01*
X151400Y458900D02*
X154300Y456000D01*
X151400Y458900D02*
Y459905D01*
X148705Y462600D02*
X151400Y459905D01*
X147700Y462600D02*
X148705D01*
X144900Y465400D02*
X147700Y462600D01*
X154300Y456000D02*
X166300D01*
X165800Y461000D02*
X166300D01*
X164150Y462650D02*
X165800Y461000D01*
X160050Y462650D02*
X164150D01*
X160050D02*
Y466750D01*
X154800Y472000D02*
X160050Y466750D01*
X134900Y478400D02*
X138800Y474500D01*
X134900Y478400D02*
Y484000D01*
X144900Y465400D02*
Y484000D01*
X219500Y461000D02*
X231900D01*
X234400Y463500D01*
X245900D02*
X250400Y468000D01*
X238900Y456000D02*
X240400Y457500D01*
X219500Y456000D02*
X220000Y456500D01*
X358347Y272240D02*
X358543Y272043D01*
X349043Y272240D02*
X358347D01*
X309859Y411781D02*
X310290Y411350D01*
X352750D01*
X292400D02*
X292831Y411781D01*
X309859D01*
X275150Y411350D02*
X292400D01*
X250500Y436000D02*
X275150Y411350D01*
X226500Y436000D02*
X227150Y435350D01*
X219500Y436000D02*
X226500D01*
X250500D01*
X219500Y456000D02*
X238900D01*
X155500Y451000D02*
X166300D01*
X272000Y445950D02*
X276900Y450850D01*
X272000Y442500D02*
Y445950D01*
X139500Y445000D02*
Y449650D01*
X139300Y449850D02*
X139500Y449650D01*
X227150Y422350D02*
Y435350D01*
X214150Y234850D02*
Y260000D01*
Y234850D02*
X216000Y233000D01*
X233500Y142500D02*
X236400Y139600D01*
Y138595D02*
Y139600D01*
Y138595D02*
X239095Y135900D01*
X240100D01*
X242900Y133100D01*
X251500Y151650D02*
Y159000D01*
X233000Y188150D02*
X238210D01*
X241641Y184719D01*
X275781D01*
X290500Y170000D01*
X288500Y167850D02*
X290500Y169850D01*
X308150Y187500D01*
X288500Y167850D02*
X294500Y161850D01*
X336500Y276957D02*
Y281000D01*
X340500Y272240D02*
X349043D01*
X329043Y269500D02*
X336500Y276957D01*
X329043Y260521D02*
Y269500D01*
X322809Y254287D02*
X329043Y260521D01*
X322809Y248807D02*
Y254287D01*
Y248807D02*
X324040Y247577D01*
X329043D01*
X327543Y239000D02*
X329043Y240500D01*
X331043Y242500D01*
X363250Y131100D02*
Y135200D01*
Y131100D02*
X368500Y125850D01*
X358150Y148000D02*
X378500D01*
X384000D01*
D30*
X161000Y397500D02*
X170500D01*
X172500Y399500D01*
X215000D01*
X245000Y429500D01*
X208500Y217500D02*
X221500Y230500D01*
Y334000D01*
X198500Y357000D02*
X221500Y334000D01*
X244000Y442000D02*
X248000Y446000D01*
X236000Y442000D02*
X244000D01*
D31*
X134900Y484000D02*
D03*
X378000Y485000D02*
D03*
X272500D02*
D03*
X388400Y113850D02*
D03*
X147400Y114500D02*
D03*
X252900D02*
D03*
X282900Y113850D02*
D03*
X240400Y484000D02*
D03*
D32*
X144900D02*
D03*
X388000Y485000D02*
D03*
X282500D02*
D03*
X378400Y113850D02*
D03*
X137400Y114500D02*
D03*
X242900D02*
D03*
X272900Y113850D02*
D03*
X379500Y255500D02*
D03*
X250400Y484000D02*
D03*
X140500Y250100D02*
D03*
Y355600D02*
D03*
X383047Y361740D02*
D03*
Y371740D02*
D03*
Y381740D02*
D03*
X379500Y211500D02*
D03*
Y233500D02*
D03*
D33*
Y265500D02*
D03*
X140500Y240100D02*
D03*
Y345600D02*
D03*
X383047Y391740D02*
D03*
X379500Y221500D02*
D03*
Y243500D02*
D03*
D34*
X154000Y300000D02*
D03*
X184000D02*
D03*
X176000Y296000D02*
D03*
X168000D02*
D03*
X158000D02*
D03*
X150000D02*
D03*
X144000D02*
D03*
Y288000D02*
D03*
X150000D02*
D03*
X156000D02*
D03*
X164000D02*
D03*
X172000D02*
D03*
X192000D02*
D03*
X198000Y296000D02*
D03*
X192000Y306000D02*
D03*
X182000D02*
D03*
X172000D02*
D03*
X162000D02*
D03*
X152000D02*
D03*
X144000D02*
D03*
X202000Y132000D02*
D03*
X194000D02*
D03*
X186000D02*
D03*
X194000Y120000D02*
D03*
X186000D02*
D03*
X194000Y138000D02*
D03*
Y148000D02*
D03*
Y156000D02*
D03*
Y164000D02*
D03*
X202000Y138000D02*
D03*
X186000D02*
D03*
Y148000D02*
D03*
Y156000D02*
D03*
Y164000D02*
D03*
X202000Y120000D02*
D03*
Y148000D02*
D03*
Y156000D02*
D03*
Y164000D02*
D03*
Y172000D02*
D03*
X194000D02*
D03*
X186000D02*
D03*
X338000Y118000D02*
D03*
X330000D02*
D03*
X322000D02*
D03*
Y128000D02*
D03*
X330000D02*
D03*
X338000D02*
D03*
Y138000D02*
D03*
X330000D02*
D03*
X322000D02*
D03*
Y148000D02*
D03*
X330000D02*
D03*
X338000D02*
D03*
Y156000D02*
D03*
X330000D02*
D03*
X322000D02*
D03*
Y164000D02*
D03*
X330000D02*
D03*
X338000D02*
D03*
Y172000D02*
D03*
X330000D02*
D03*
X322000D02*
D03*
X326000Y428000D02*
D03*
Y438000D02*
D03*
X322000Y448000D02*
D03*
Y458000D02*
D03*
Y466000D02*
D03*
Y474000D02*
D03*
X332000D02*
D03*
Y466000D02*
D03*
Y458000D02*
D03*
Y448000D02*
D03*
Y438000D02*
D03*
Y428000D02*
D03*
X338000D02*
D03*
Y438000D02*
D03*
Y448000D02*
D03*
Y458000D02*
D03*
Y466000D02*
D03*
Y474000D02*
D03*
Y482000D02*
D03*
X330000D02*
D03*
X322000D02*
D03*
X186000Y452000D02*
D03*
X194000D02*
D03*
X200000D02*
D03*
Y460000D02*
D03*
X194000Y480000D02*
D03*
Y470000D02*
D03*
X186000D02*
D03*
X194000Y460000D02*
D03*
Y444000D02*
D03*
X192000Y430000D02*
D03*
X194000Y436000D02*
D03*
X186000D02*
D03*
Y444000D02*
D03*
Y460000D02*
D03*
X200000Y428000D02*
D03*
Y436000D02*
D03*
Y444000D02*
D03*
Y470000D02*
D03*
Y480000D02*
D03*
X186000D02*
D03*
X283000Y90500D02*
D03*
X269500Y92000D02*
D03*
X161000Y397500D02*
D03*
X234000Y175000D02*
D03*
X226000Y188500D02*
D03*
X217000Y193000D02*
D03*
X208500Y217500D02*
D03*
X188500Y279000D02*
D03*
X198500Y357000D02*
D03*
X174500Y325500D02*
D03*
X292500Y417500D02*
D03*
X300000Y408000D02*
D03*
X319000Y407000D02*
D03*
X322500D02*
D03*
X183500Y325500D02*
D03*
X278000Y366500D02*
D03*
X178500Y325000D02*
D03*
X277500Y370000D02*
D03*
X277000Y373500D02*
D03*
X304000Y437000D02*
D03*
X304500Y447000D02*
D03*
X305500Y442000D02*
D03*
X363500Y446500D02*
D03*
X342500Y406000D02*
D03*
X327000Y276000D02*
D03*
X347500Y220500D02*
D03*
X355000Y221500D02*
D03*
X331500Y242500D02*
D03*
X288500Y350468D02*
D03*
X286000Y342469D02*
D03*
X271000Y349969D02*
D03*
X360500Y377969D02*
D03*
X338000Y367469D02*
D03*
X344500Y368468D02*
D03*
X310000Y334968D02*
D03*
X318500Y332968D02*
D03*
X354500Y387968D02*
D03*
X366000Y382469D02*
D03*
X161000Y351100D02*
D03*
Y339600D02*
D03*
X152500Y260000D02*
D03*
X150000Y244000D02*
D03*
X148000Y264000D02*
D03*
X166500Y252000D02*
D03*
X141900Y135000D02*
D03*
X153400D02*
D03*
X233000Y126500D02*
D03*
X249000Y124000D02*
D03*
X229000Y122000D02*
D03*
X241000Y140500D02*
D03*
X277400Y134350D02*
D03*
X288900D02*
D03*
X384500Y123350D02*
D03*
X376500Y139850D02*
D03*
X383500Y464500D02*
D03*
X372000D02*
D03*
X292400Y473000D02*
D03*
X276400Y475500D02*
D03*
X296400Y477500D02*
D03*
X284400Y459000D02*
D03*
X158800Y476500D02*
D03*
X146800Y458000D02*
D03*
X154800Y472000D02*
D03*
X138800Y474500D02*
D03*
X234400Y463500D02*
D03*
X245900D02*
D03*
X285500Y367500D02*
D03*
X288000Y365000D02*
D03*
X160500Y446000D02*
D03*
X159500Y441000D02*
D03*
X160500Y436500D02*
D03*
X304500Y401500D02*
D03*
X225500Y441000D02*
D03*
X312500Y407500D02*
D03*
X308500Y408500D02*
D03*
Y392000D02*
D03*
X312000Y394500D02*
D03*
X314000Y397000D02*
D03*
X321500Y397500D02*
D03*
X358500Y385000D02*
D03*
X360000Y357500D02*
D03*
X365500Y397500D02*
D03*
X365000Y472000D02*
D03*
X363000Y433000D02*
D03*
X373000Y438000D02*
D03*
X359500Y354500D02*
D03*
X183500Y279000D02*
D03*
X178500Y278500D02*
D03*
X361000Y371969D02*
D03*
X364500Y350500D02*
D03*
X359500Y348500D02*
D03*
X302000Y317500D02*
D03*
X273500Y345500D02*
D03*
X254000Y466000D02*
D03*
X227000Y471000D02*
D03*
X219000Y422500D02*
D03*
X226000Y446000D02*
D03*
X225500Y451000D02*
D03*
X272000Y442500D02*
D03*
X248000Y446000D02*
D03*
X236000Y442000D02*
D03*
X245000Y429500D02*
D03*
X139500Y445000D02*
D03*
X147500Y443000D02*
D03*
X158500Y430500D02*
D03*
X147000Y373500D02*
D03*
X147500Y334500D02*
D03*
X198000Y331000D02*
D03*
X205500Y341000D02*
D03*
X183000Y345000D02*
D03*
X178000Y338500D02*
D03*
X156500Y350500D02*
D03*
X154000Y332000D02*
D03*
X285634Y361740D02*
D03*
Y354240D02*
D03*
X182500Y194000D02*
D03*
X160500Y157500D02*
D03*
X196500Y195000D02*
D03*
X174500Y153500D02*
D03*
X213500Y192500D02*
D03*
X230500Y162000D02*
D03*
X228000Y157500D02*
D03*
X204000Y270000D02*
D03*
X216000Y233000D02*
D03*
X174500Y262000D02*
D03*
X231500Y149000D02*
D03*
X162000Y127500D02*
D03*
X162500Y168500D02*
D03*
X243000Y178500D02*
D03*
Y188000D02*
D03*
X251500Y159000D02*
D03*
X267000Y135500D02*
D03*
X297000Y127500D02*
D03*
Y169000D02*
D03*
X308000Y316000D02*
D03*
X268000Y276000D02*
D03*
X298600Y155100D02*
D03*
X363500Y167000D02*
D03*
X302500Y190000D02*
D03*
X294000Y179500D02*
D03*
X350500Y316500D02*
D03*
X341000Y316000D02*
D03*
X336500Y314500D02*
D03*
X358500Y343938D02*
D03*
X343500Y319500D02*
D03*
X346500Y318969D02*
D03*
X353500Y315500D02*
D03*
X277500Y261000D02*
D03*
X293000Y151500D02*
D03*
X343500Y308500D02*
D03*
X277500Y252500D02*
D03*
X293000Y147500D02*
D03*
X350500Y383498D02*
D03*
X365000Y341500D02*
D03*
X364500Y163000D02*
D03*
X289000Y358000D02*
D03*
X363500Y337000D02*
D03*
X367000Y325500D02*
D03*
X369500Y167000D02*
D03*
X296500Y386000D02*
D03*
X335000Y269500D02*
D03*
X367500Y272500D02*
D03*
X365500Y277000D02*
D03*
X347500Y260000D02*
D03*
X272500Y308000D02*
D03*
X270000Y294000D02*
D03*
X314000Y286000D02*
D03*
X279500Y291000D02*
D03*
X305500Y391500D02*
D03*
X288596Y361000D02*
D03*
X367500Y321500D02*
D03*
X373500Y170000D02*
D03*
X368500Y125850D02*
D03*
X364500Y121350D02*
D03*
X378500Y148000D02*
D03*
M02*
