G04*
G04 #@! TF.GenerationSoftware,Altium Limited,Altium Designer,21.3.1 (25)*
G04*
G04 Layer_Color=65535*
%FSLAX25Y25*%
%MOIN*%
G70*
G04*
G04 #@! TF.SameCoordinates,86926C0A-6BB2-4832-AFE7-C0EB4A5C3721*
G04*
G04*
G04 #@! TF.FilePolarity,Positive*
G04*
G01*
G75*
%ADD10C,0.00787*%
%ADD11C,0.01000*%
%ADD12C,0.00984*%
%ADD13C,0.02362*%
%ADD14C,0.00600*%
%ADD15C,0.00591*%
%ADD16C,0.00100*%
%ADD17C,0.00500*%
%ADD18C,0.00750*%
%ADD19C,0.01575*%
%ADD20C,0.00300*%
%ADD21C,0.01200*%
%ADD22C,0.00800*%
G36*
X167006Y163805D02*
X165506D01*
Y162805D01*
X167006D01*
Y163805D01*
D02*
G37*
G36*
X170156Y204006D02*
X168656D01*
Y205006D01*
X170156D01*
Y204006D01*
D02*
G37*
G36*
X194230Y183081D02*
X195230D01*
Y181581D01*
X194230D01*
Y183081D01*
D02*
G37*
D10*
X353268Y244153D02*
X352480D01*
X353268D01*
Y77153D02*
X352480D01*
X353268D01*
X103130Y253906D02*
X140130D01*
X103130D02*
Y276905D01*
X143130D01*
X103130Y272905D02*
X143130D01*
Y253906D02*
Y276905D01*
X140130Y253906D02*
X143130D01*
X149130D02*
X186130D01*
X149130D02*
Y276905D01*
X189130D01*
X149130Y272905D02*
X189130D01*
Y253906D02*
Y276905D01*
X186130Y253906D02*
X189130D01*
X36638Y56803D02*
Y57197D01*
X41362Y56803D02*
Y57197D01*
X70203Y38438D02*
X70597D01*
X70203Y43162D02*
X70597D01*
X50205Y112449D02*
X75795D01*
X50205Y93551D02*
X75795D01*
Y112449D01*
X50205Y93551D02*
Y112449D01*
X35638Y146803D02*
Y147197D01*
X40362Y146803D02*
Y147197D01*
X37638Y101803D02*
Y102197D01*
X42362Y101803D02*
Y102197D01*
X79638Y150803D02*
Y151197D01*
X84362Y150803D02*
Y151197D01*
X79768Y163709D02*
Y164102D01*
X84492Y163709D02*
Y164102D01*
X80638Y209303D02*
Y209697D01*
X85362Y209303D02*
Y209697D01*
X289130Y61405D02*
Y67405D01*
X275130Y39406D02*
X306130D01*
Y89406D01*
X231130D02*
X306130D01*
X231130Y39406D02*
Y89406D01*
Y39406D02*
X275130D01*
X313500Y49000D02*
X330500D01*
X313500D02*
Y62000D01*
X330500D01*
Y49000D02*
Y62000D01*
X330500Y216000D02*
Y229000D01*
X313500D02*
X330500D01*
X313500Y216000D02*
Y229000D01*
Y216000D02*
X330500D01*
X289130Y228405D02*
Y234405D01*
X275130Y206405D02*
X306130D01*
Y256405D01*
X231130D02*
X306130D01*
X231130Y206405D02*
Y256405D01*
Y206405D02*
X275130D01*
X99638Y67779D02*
X125622D01*
X99638Y66205D02*
Y67779D01*
X125622Y66205D02*
Y67779D01*
X131768Y73209D02*
Y73602D01*
X136492Y73209D02*
Y73602D01*
X152803Y45638D02*
X153197D01*
X152803Y50362D02*
X153197D01*
X131768Y57709D02*
Y58102D01*
X136492Y57709D02*
Y58102D01*
X88138Y170961D02*
X114122D01*
Y172535D01*
X88138Y170961D02*
Y172535D01*
X156768Y238968D02*
Y239362D01*
X161492Y238968D02*
Y239362D01*
X163768Y211949D02*
Y212343D01*
X168492Y211949D02*
Y212343D01*
X335079Y220728D02*
Y224272D01*
X344921Y220728D02*
Y224272D01*
X335079Y53728D02*
Y57272D01*
X344921Y53728D02*
Y57272D01*
X201130Y216905D02*
X211130D01*
Y176906D02*
Y216905D01*
X201130Y176906D02*
Y216905D01*
Y176906D02*
X211130D01*
D11*
X27305Y53000D02*
X27245Y54001D01*
X27064Y54988D01*
X26765Y55945D01*
X26354Y56860D01*
X25835Y57718D01*
X25216Y58507D01*
X24507Y59216D01*
X23718Y59835D01*
X22860Y60354D01*
X21945Y60765D01*
X20988Y61064D01*
X20001Y61245D01*
X19000Y61305D01*
X17999Y61245D01*
X17012Y61064D01*
X16055Y60765D01*
X15140Y60354D01*
X14282Y59835D01*
X13493Y59216D01*
X12784Y58507D01*
X12165Y57718D01*
X11646Y56860D01*
X11235Y55945D01*
X10936Y54988D01*
X10755Y54001D01*
X10695Y53000D01*
X10755Y51999D01*
X10936Y51012D01*
X11235Y50055D01*
X11646Y49140D01*
X12165Y48282D01*
X12784Y47493D01*
X13493Y46784D01*
X14282Y46165D01*
X15140Y45646D01*
X16055Y45235D01*
X17012Y44936D01*
X17999Y44755D01*
X19000Y44695D01*
X20001Y44755D01*
X20988Y44936D01*
X21945Y45235D01*
X22860Y45646D01*
X23718Y46165D01*
X24507Y46784D01*
X25216Y47493D01*
X25835Y48282D01*
X26354Y49140D01*
X26765Y50055D01*
X27064Y51012D01*
X27245Y51999D01*
X27305Y53000D01*
Y102000D02*
X27245Y103001D01*
X27064Y103988D01*
X26765Y104945D01*
X26354Y105860D01*
X25835Y106718D01*
X25216Y107507D01*
X24507Y108217D01*
X23718Y108835D01*
X22860Y109354D01*
X21945Y109765D01*
X20988Y110064D01*
X20001Y110245D01*
X19000Y110305D01*
X17999Y110245D01*
X17012Y110064D01*
X16055Y109765D01*
X15140Y109354D01*
X14282Y108835D01*
X13493Y108217D01*
X12784Y107507D01*
X12165Y106718D01*
X11646Y105860D01*
X11235Y104945D01*
X10936Y103988D01*
X10755Y103001D01*
X10695Y102000D01*
X10755Y100999D01*
X10936Y100012D01*
X11235Y99055D01*
X11646Y98140D01*
X12165Y97282D01*
X12784Y96493D01*
X13493Y95784D01*
X14282Y95165D01*
X15140Y94646D01*
X16055Y94235D01*
X17012Y93936D01*
X17999Y93755D01*
X19000Y93695D01*
X20001Y93755D01*
X20988Y93936D01*
X21945Y94235D01*
X22860Y94646D01*
X23718Y95165D01*
X24507Y95784D01*
X25216Y96493D01*
X25835Y97282D01*
X26354Y98140D01*
X26765Y99055D01*
X27064Y100012D01*
X27245Y100999D01*
X27305Y102000D01*
X71305Y22000D02*
X71245Y23001D01*
X71064Y23988D01*
X70765Y24945D01*
X70354Y25860D01*
X69835Y26718D01*
X69217Y27507D01*
X68507Y28216D01*
X67718Y28835D01*
X66860Y29354D01*
X65945Y29765D01*
X64987Y30064D01*
X64001Y30245D01*
X63000Y30305D01*
X61999Y30245D01*
X61013Y30064D01*
X60055Y29765D01*
X59140Y29354D01*
X58282Y28835D01*
X57493Y28216D01*
X56783Y27507D01*
X56165Y26718D01*
X55646Y25860D01*
X55235Y24945D01*
X54936Y23988D01*
X54755Y23001D01*
X54695Y22000D01*
X54755Y20999D01*
X54936Y20012D01*
X55235Y19055D01*
X55646Y18140D01*
X56165Y17282D01*
X56783Y16493D01*
X57493Y15784D01*
X58282Y15165D01*
X59140Y14646D01*
X60055Y14235D01*
X61013Y13936D01*
X61999Y13755D01*
X63000Y13695D01*
X64001Y13755D01*
X64987Y13936D01*
X65945Y14235D01*
X66860Y14646D01*
X67718Y15165D01*
X68507Y15784D01*
X69217Y16493D01*
X69835Y17282D01*
X70354Y18140D01*
X70765Y19055D01*
X71064Y20012D01*
X71245Y20999D01*
X71305Y22000D01*
X27305Y150000D02*
X27245Y151001D01*
X27064Y151988D01*
X26765Y152945D01*
X26354Y153860D01*
X25835Y154718D01*
X25216Y155507D01*
X24507Y156217D01*
X23718Y156835D01*
X22860Y157354D01*
X21945Y157765D01*
X20988Y158064D01*
X20001Y158245D01*
X19000Y158305D01*
X17999Y158245D01*
X17012Y158064D01*
X16055Y157765D01*
X15140Y157354D01*
X14282Y156835D01*
X13493Y156217D01*
X12784Y155507D01*
X12165Y154718D01*
X11646Y153860D01*
X11235Y152945D01*
X10936Y151988D01*
X10755Y151001D01*
X10695Y150000D01*
X10755Y148999D01*
X10936Y148012D01*
X11235Y147055D01*
X11646Y146140D01*
X12165Y145282D01*
X12784Y144493D01*
X13493Y143783D01*
X14282Y143165D01*
X15140Y142646D01*
X16055Y142235D01*
X17012Y141936D01*
X17999Y141755D01*
X19000Y141695D01*
X20001Y141755D01*
X20988Y141936D01*
X21945Y142235D01*
X22860Y142646D01*
X23718Y143165D01*
X24507Y143783D01*
X25216Y144493D01*
X25835Y145282D01*
X26354Y146140D01*
X26765Y147055D01*
X27064Y148012D01*
X27245Y148999D01*
X27305Y150000D01*
X41305Y189000D02*
X41245Y190001D01*
X41064Y190988D01*
X40765Y191945D01*
X40354Y192860D01*
X39835Y193718D01*
X39217Y194507D01*
X38507Y195217D01*
X37718Y195835D01*
X36860Y196354D01*
X35945Y196765D01*
X34988Y197064D01*
X34001Y197245D01*
X33000Y197305D01*
X31999Y197245D01*
X31012Y197064D01*
X30055Y196765D01*
X29140Y196354D01*
X28282Y195835D01*
X27493Y195217D01*
X26783Y194507D01*
X26165Y193718D01*
X25646Y192860D01*
X25235Y191945D01*
X24936Y190988D01*
X24755Y190001D01*
X24695Y189000D01*
X24755Y187999D01*
X24936Y187012D01*
X25235Y186055D01*
X25646Y185140D01*
X26165Y184282D01*
X26783Y183493D01*
X27493Y182783D01*
X28282Y182165D01*
X29140Y181646D01*
X30055Y181235D01*
X31012Y180936D01*
X31999Y180755D01*
X33000Y180695D01*
X34001Y180755D01*
X34988Y180936D01*
X35945Y181235D01*
X36860Y181646D01*
X37718Y182165D01*
X38507Y182783D01*
X39217Y183493D01*
X39835Y184282D01*
X40354Y185140D01*
X40765Y186055D01*
X41064Y187012D01*
X41245Y187999D01*
X41305Y189000D01*
X328800Y60000D02*
X328200D01*
X328800D01*
X328800Y227000D02*
X328200D01*
X328800D01*
X264000Y21500D02*
X272500D01*
X309500D02*
X318000D01*
X272500Y10500D02*
X309500D01*
X272500Y32500D02*
X309500D01*
X272500Y10500D02*
Y32500D01*
X270000Y10500D02*
Y32500D01*
X309500Y21500D02*
Y32500D01*
Y10500D02*
Y21500D01*
X343630Y177406D02*
Y188406D01*
Y199406D01*
X304130Y177406D02*
Y199406D01*
X306630Y177406D02*
Y199406D01*
X343630D01*
X306630Y177406D02*
X343630D01*
Y188406D02*
X352130D01*
X298130D02*
X306630D01*
X7189Y64811D02*
X30811D01*
X7189Y41189D02*
Y64811D01*
Y41189D02*
X30811D01*
Y64811D01*
Y90189D02*
Y113811D01*
X7189Y90189D02*
X30811D01*
X7189D02*
Y113811D01*
X30811D01*
X51189Y33811D02*
X74811D01*
Y10189D02*
Y33811D01*
X51189Y10189D02*
X74811D01*
X51189D02*
Y33811D01*
X7189Y161811D02*
X30811D01*
X7189Y138189D02*
Y161811D01*
Y138189D02*
X30811D01*
Y161811D01*
X21189Y200811D02*
X44811D01*
Y177189D02*
Y200811D01*
X21189Y177189D02*
X44811D01*
X21189D02*
Y200811D01*
X104591Y141700D02*
X108589D01*
X120181D02*
X124180D01*
X135772Y141999D02*
X139770D01*
X137771Y143999D02*
Y140000D01*
X89000Y141999D02*
X92999D01*
X90999Y143999D02*
Y140000D01*
X20000Y203000D02*
Y208998D01*
X22999D01*
X23999Y207998D01*
Y205999D01*
X22999Y204999D01*
X20000D01*
X21999D02*
X23999Y203000D01*
X28997D02*
X26998D01*
X25998Y204000D01*
Y205999D01*
X26998Y206999D01*
X28997D01*
X29997Y205999D01*
Y204999D01*
X25998D01*
X31996Y203000D02*
X34995D01*
X35995Y204000D01*
X34995Y204999D01*
X32996D01*
X31996Y205999D01*
X32996Y206999D01*
X35995D01*
X40993Y203000D02*
X38994D01*
X37994Y204000D01*
Y205999D01*
X38994Y206999D01*
X40993D01*
X41993Y205999D01*
Y204999D01*
X37994D01*
X44992Y207998D02*
Y206999D01*
X43992D01*
X45992D01*
X44992D01*
Y204000D01*
X45992Y203000D01*
D12*
X74417Y117665D02*
X73679Y118092D01*
Y117239D01*
X74417Y117665D01*
X126134Y76638D02*
X125396Y77064D01*
Y76212D01*
X126134Y76638D01*
X88610Y162102D02*
X87872Y162529D01*
Y161676D01*
X88610Y162102D01*
D13*
X73039Y108512D02*
X72595Y109435D01*
X71596Y109663D01*
X70794Y109024D01*
Y107999D01*
X71596Y107360D01*
X72595Y107588D01*
X73039Y108512D01*
D14*
X141036Y245950D02*
X140436D01*
X141036D01*
X148309Y107692D02*
Y138162D01*
X75521Y113300D02*
X81521Y115800D01*
X75521Y113300D02*
Y118300D01*
X81521Y115800D01*
X82521Y138162D02*
X148309D01*
X82521Y92493D02*
Y138162D01*
Y92493D02*
X148309D01*
Y104223D01*
X159830Y198205D02*
X160796D01*
X159830Y169606D02*
X160796D01*
X188430D02*
Y170572D01*
X187463Y198205D02*
X188430D01*
X159830Y197239D02*
Y198205D01*
Y169606D02*
Y170572D01*
X187463Y169606D02*
X188430D01*
Y197239D02*
Y198205D01*
X196480Y158215D02*
Y162005D01*
X189780Y154475D02*
Y157136D01*
Y149606D02*
X196480D01*
Y153395D01*
X189780Y162005D02*
X196480D01*
X165850Y151910D02*
Y155700D01*
X159150Y148170D02*
Y150830D01*
Y143300D02*
X165850D01*
Y147090D01*
X159150Y155700D02*
X165850D01*
X212000Y147000D02*
X256000D01*
X233000Y193000D02*
X277000D01*
X160000Y24000D02*
X164000D01*
X158000Y28000D02*
Y42000D01*
X166000Y28000D02*
Y42000D01*
X184000Y250100D02*
Y251600D01*
X182000Y250100D02*
X186000D01*
X183000Y249100D02*
X184900D01*
X183800Y248100D02*
X184200D01*
X154000Y250100D02*
Y251600D01*
X152000Y250100D02*
X156000D01*
X153000Y249100D02*
X154900D01*
X153800Y248100D02*
X154200D01*
X138000Y250100D02*
Y251600D01*
X136000Y250100D02*
X140000D01*
X137000Y249100D02*
X138900D01*
X137800Y248100D02*
X138200D01*
X107800D02*
X108200D01*
X107000Y249100D02*
X108900D01*
X106000Y250100D02*
X110000D01*
X108000D02*
Y251600D01*
X79000Y216500D02*
Y230500D01*
X87000Y216500D02*
Y230500D01*
X81000Y234500D02*
X85000D01*
X50425Y216920D02*
Y217080D01*
X53575Y216920D02*
Y217080D01*
X48000Y222000D02*
Y236000D01*
X56000Y222000D02*
Y236000D01*
X50000Y240000D02*
X54000D01*
X36425Y215920D02*
Y216080D01*
X39575Y215920D02*
Y216080D01*
X144900Y170425D02*
X145100D01*
X144900Y173575D02*
X145100D01*
X147900Y180675D02*
X148100D01*
X147900Y177525D02*
X148100D01*
X151925Y203400D02*
Y203600D01*
X155075Y203400D02*
Y203600D01*
X197875Y167800D02*
Y168000D01*
X194725Y167800D02*
Y168000D01*
X180400Y214925D02*
X180600D01*
X180400Y218075D02*
X180600D01*
X36000Y240000D02*
X40000D01*
X42000Y222000D02*
Y236000D01*
X34000Y222000D02*
Y236000D01*
X212555Y168875D02*
Y169035D01*
X215705Y168875D02*
Y169035D01*
X204555Y157875D02*
Y158035D01*
X207705Y157875D02*
Y158035D01*
X179050Y154331D02*
X179210D01*
X179050Y157480D02*
X179210D01*
X151425Y159420D02*
Y159580D01*
X154575Y159420D02*
Y159580D01*
X149920Y147075D02*
X150080D01*
X149920Y143925D02*
X150080D01*
X177920Y146925D02*
X178080D01*
X177920Y150075D02*
X178080D01*
X360600Y34199D02*
Y30600D01*
X362999D01*
X364799D02*
X365998D01*
X366598Y31200D01*
Y32399D01*
X365998Y32999D01*
X364799D01*
X364199Y32399D01*
Y31200D01*
X364799Y30600D01*
X367798Y32999D02*
Y31200D01*
X368397Y30600D01*
X368997Y31200D01*
X369597Y30600D01*
X370197Y31200D01*
Y32999D01*
X374995Y30600D02*
X376795D01*
X377395Y31200D01*
X376795Y31800D01*
X375595D01*
X374995Y32399D01*
X375595Y32999D01*
X377395D01*
X378594Y30600D02*
X379794D01*
X379194D01*
Y32999D01*
X378594D01*
X383993Y34199D02*
Y30600D01*
X382193D01*
X381593Y31200D01*
Y32399D01*
X382193Y32999D01*
X383993D01*
X386992Y30600D02*
X385792D01*
X385192Y31200D01*
Y32399D01*
X385792Y32999D01*
X386992D01*
X387591Y32399D01*
Y31800D01*
X385192D01*
X153903Y16359D02*
Y19958D01*
X155702D01*
X156302Y19358D01*
Y18158D01*
X155702Y17558D01*
X153903D01*
X158101Y16359D02*
X159301D01*
X159901Y16958D01*
Y18158D01*
X159301Y18758D01*
X158101D01*
X157501Y18158D01*
Y16958D01*
X158101Y16359D01*
X161100Y18758D02*
Y16958D01*
X161700Y16359D01*
X162300Y16958D01*
X162900Y16359D01*
X163499Y16958D01*
Y18758D01*
X166499Y16359D02*
X165299D01*
X164699Y16958D01*
Y18158D01*
X165299Y18758D01*
X166499D01*
X167098Y18158D01*
Y17558D01*
X164699D01*
X168298Y18758D02*
Y16359D01*
Y17558D01*
X168898Y18158D01*
X169498Y18758D01*
X170097D01*
X157202Y14199D02*
Y10600D01*
X159601D01*
X163200Y14199D02*
X160800D01*
Y10600D01*
X163200D01*
X160800Y12399D02*
X162000D01*
X164399Y14199D02*
Y10600D01*
X166199D01*
X166798Y11200D01*
Y13599D01*
X166199Y14199D01*
X164399D01*
X104103Y21758D02*
Y24157D01*
X105303Y25357D01*
X106502Y24157D01*
Y21758D01*
Y23557D01*
X104103D01*
X107702Y21758D02*
Y24157D01*
X109502D01*
X110101Y23557D01*
Y21758D01*
X111901Y24157D02*
X113100D01*
X113700Y23557D01*
Y21758D01*
X111901D01*
X111301Y22358D01*
X111901Y22957D01*
X113700D01*
X114900Y21758D02*
X116099D01*
X115499D01*
Y25357D01*
X114900D01*
X118499Y21758D02*
X119698D01*
X120298Y22358D01*
Y23557D01*
X119698Y24157D01*
X118499D01*
X117899Y23557D01*
Y22358D01*
X118499Y21758D01*
X122697Y20558D02*
X123297D01*
X123897Y21158D01*
Y24157D01*
X122097D01*
X121498Y23557D01*
Y22358D01*
X122097Y21758D01*
X123897D01*
X99305Y14800D02*
Y18398D01*
X101104D01*
X101704Y17799D01*
Y16599D01*
X101104Y15999D01*
X99305D01*
X100504D02*
X101704Y14800D01*
X104703D02*
X103503D01*
X102904Y15399D01*
Y16599D01*
X103503Y17199D01*
X104703D01*
X105303Y16599D01*
Y15999D01*
X102904D01*
X107702Y13600D02*
X108302D01*
X108902Y14200D01*
Y17199D01*
X107102D01*
X106502Y16599D01*
Y15399D01*
X107102Y14800D01*
X108902D01*
X110101Y17199D02*
Y15399D01*
X110701Y14800D01*
X112501D01*
Y17199D01*
X113700Y14800D02*
X114900D01*
X114300D01*
Y18398D01*
X113700D01*
X117299Y17199D02*
X118499D01*
X119098Y16599D01*
Y14800D01*
X117299D01*
X116699Y15399D01*
X117299Y15999D01*
X119098D01*
X120898Y17799D02*
Y17199D01*
X120298D01*
X121498D01*
X120898D01*
Y15399D01*
X121498Y14800D01*
X123897D02*
X125096D01*
X125696Y15399D01*
Y16599D01*
X125096Y17199D01*
X123897D01*
X123297Y16599D01*
Y15399D01*
X123897Y14800D01*
X126896Y17199D02*
Y14800D01*
Y15999D01*
X127496Y16599D01*
X128095Y17199D01*
X128695D01*
X349600Y201199D02*
Y197600D01*
X351999D01*
X353799D02*
X354998D01*
X355598Y198200D01*
Y199399D01*
X354998Y199999D01*
X353799D01*
X353199Y199399D01*
Y198200D01*
X353799Y197600D01*
X356798Y199999D02*
Y198200D01*
X357398Y197600D01*
X357997Y198200D01*
X358597Y197600D01*
X359197Y198200D01*
Y199999D01*
X363995Y197600D02*
X365795D01*
X366395Y198200D01*
X365795Y198800D01*
X364595D01*
X363995Y199399D01*
X364595Y199999D01*
X366395D01*
X367594Y197600D02*
X368794D01*
X368194D01*
Y199999D01*
X367594D01*
X372992Y201199D02*
Y197600D01*
X371193D01*
X370593Y198200D01*
Y199399D01*
X371193Y199999D01*
X372992D01*
X375992Y197600D02*
X374792D01*
X374192Y198200D01*
Y199399D01*
X374792Y199999D01*
X375992D01*
X376591Y199399D01*
Y198800D01*
X374192D01*
X103503Y228357D02*
Y224758D01*
X105303D01*
X105903Y225358D01*
Y227757D01*
X105303Y228357D01*
X103503D01*
X107102Y224758D02*
X108302D01*
X107702D01*
Y227157D01*
X107102D01*
X111301Y223558D02*
X111901D01*
X112501Y224158D01*
Y227157D01*
X110701D01*
X110101Y226557D01*
Y225358D01*
X110701Y224758D01*
X112501D01*
X113700D02*
X114900D01*
X114300D01*
Y227157D01*
X113700D01*
X117299Y227757D02*
Y227157D01*
X116699D01*
X117899D01*
X117299D01*
Y225358D01*
X117899Y224758D01*
X120298Y227157D02*
X121498D01*
X122097Y226557D01*
Y224758D01*
X120298D01*
X119698Y225358D01*
X120298Y225957D01*
X122097D01*
X123297Y224758D02*
X124497D01*
X123897D01*
Y228357D01*
X123297D01*
X99305Y217800D02*
Y221398D01*
X101104D01*
X101704Y220799D01*
Y219599D01*
X101104Y218999D01*
X99305D01*
X100504D02*
X101704Y217800D01*
X104703D02*
X103503D01*
X102904Y218399D01*
Y219599D01*
X103503Y220199D01*
X104703D01*
X105303Y219599D01*
Y218999D01*
X102904D01*
X107702Y216600D02*
X108302D01*
X108902Y217200D01*
Y220199D01*
X107102D01*
X106502Y219599D01*
Y218399D01*
X107102Y217800D01*
X108902D01*
X110101Y220199D02*
Y218399D01*
X110701Y217800D01*
X112501D01*
Y220199D01*
X113700Y217800D02*
X114900D01*
X114300D01*
Y221398D01*
X113700D01*
X117299Y220199D02*
X118499D01*
X119098Y219599D01*
Y217800D01*
X117299D01*
X116699Y218399D01*
X117299Y218999D01*
X119098D01*
X120898Y220799D02*
Y220199D01*
X120298D01*
X121498D01*
X120898D01*
Y218399D01*
X121498Y217800D01*
X123897D02*
X125096D01*
X125696Y218399D01*
Y219599D01*
X125096Y220199D01*
X123897D01*
X123297Y219599D01*
Y218399D01*
X123897Y217800D01*
X126896Y220199D02*
Y217800D01*
Y218999D01*
X127496Y219599D01*
X128095Y220199D01*
X128695D01*
X50601Y243300D02*
X53600D01*
X54200Y243900D01*
Y245099D01*
X53600Y245699D01*
X50601D01*
X54200Y246899D02*
Y248698D01*
X53600Y249298D01*
X53000Y248698D01*
Y247499D01*
X52401Y246899D01*
X51801Y247499D01*
Y249298D01*
X54200Y252297D02*
Y251097D01*
X53600Y250498D01*
X52401D01*
X51801Y251097D01*
Y252297D01*
X52401Y252897D01*
X53000D01*
Y250498D01*
X51801Y254097D02*
X54200D01*
X53000D01*
X52401Y254696D01*
X51801Y255296D01*
Y255896D01*
X50601Y261294D02*
X54200D01*
Y263693D01*
X50601Y267292D02*
Y264893D01*
X54200D01*
Y267292D01*
X52401Y264893D02*
Y266093D01*
X50601Y268492D02*
X54200D01*
Y270291D01*
X53600Y270891D01*
X51201D01*
X50601Y270291D01*
Y268492D01*
X54200Y278089D02*
Y275690D01*
X51801Y278089D01*
X51201D01*
X50601Y277489D01*
Y276289D01*
X51201Y275690D01*
X85000Y237100D02*
X81401D01*
Y238899D01*
X82001Y239499D01*
X83201D01*
X83800Y238899D01*
Y237100D01*
X85000Y241299D02*
Y242498D01*
X84400Y243098D01*
X83201D01*
X82601Y242498D01*
Y241299D01*
X83201Y240699D01*
X84400D01*
X85000Y241299D01*
X82601Y244298D02*
X84400D01*
X85000Y244898D01*
X84400Y245497D01*
X85000Y246097D01*
X84400Y246697D01*
X82601D01*
X85000Y249696D02*
Y248496D01*
X84400Y247897D01*
X83201D01*
X82601Y248496D01*
Y249696D01*
X83201Y250296D01*
X83800D01*
Y247897D01*
X82601Y251495D02*
X85000D01*
X83800D01*
X83201Y252095D01*
X82601Y252695D01*
Y253295D01*
X81401Y258693D02*
X85000D01*
Y261092D01*
X81401Y264691D02*
Y262292D01*
X85000D01*
Y264691D01*
X83201Y262292D02*
Y263492D01*
X81401Y265891D02*
X85000D01*
Y267690D01*
X84400Y268290D01*
X82001D01*
X81401Y267690D01*
Y265891D01*
X36301Y243200D02*
X39300D01*
X39900Y243800D01*
Y244999D01*
X39300Y245599D01*
X36301D01*
X39900Y246799D02*
Y248598D01*
X39300Y249198D01*
X38700Y248598D01*
Y247399D01*
X38101Y246799D01*
X37501Y247399D01*
Y249198D01*
X39900Y252197D02*
Y250997D01*
X39300Y250398D01*
X38101D01*
X37501Y250997D01*
Y252197D01*
X38101Y252797D01*
X38700D01*
Y250398D01*
X37501Y253996D02*
X39900D01*
X38700D01*
X38101Y254596D01*
X37501Y255196D01*
Y255796D01*
X36301Y261194D02*
X39900D01*
Y263593D01*
X36301Y267192D02*
Y264793D01*
X39900D01*
Y267192D01*
X38101Y264793D02*
Y265993D01*
X36301Y268392D02*
X39900D01*
Y270191D01*
X39300Y270791D01*
X36901D01*
X36301Y270191D01*
Y268392D01*
X39900Y275590D02*
Y276789D01*
Y276189D01*
X36301D01*
X36901Y275590D01*
X173000Y251699D02*
Y248100D01*
X175399D01*
X127000Y251699D02*
Y248100D01*
X129399D01*
X163000Y251699D02*
Y248100D01*
Y249899D01*
X165399D01*
Y251699D01*
Y248100D01*
X117000Y251699D02*
Y248100D01*
Y249899D01*
X119399D01*
Y251699D01*
Y248100D01*
X357600Y83398D02*
Y79800D01*
Y81599D01*
X359999D01*
Y83398D01*
Y79800D01*
X361199D02*
X362399D01*
X361799D01*
Y82199D01*
X361199D01*
X365398Y78600D02*
X365997D01*
X366597Y79200D01*
Y82199D01*
X364798D01*
X364198Y81599D01*
Y80399D01*
X364798Y79800D01*
X366597D01*
X367797Y83398D02*
Y79800D01*
Y81599D01*
X368396Y82199D01*
X369596D01*
X370196Y81599D01*
Y79800D01*
X374994D02*
X376794D01*
X377394Y80399D01*
X376794Y80999D01*
X375594D01*
X374994Y81599D01*
X375594Y82199D01*
X377394D01*
X378593Y79800D02*
X379793D01*
X379193D01*
Y82199D01*
X378593D01*
X383992Y83398D02*
Y79800D01*
X382192D01*
X381592Y80399D01*
Y81599D01*
X382192Y82199D01*
X383992D01*
X386990Y79800D02*
X385791D01*
X385191Y80399D01*
Y81599D01*
X385791Y82199D01*
X386990D01*
X387590Y81599D01*
Y80999D01*
X385191D01*
X348600Y251398D02*
Y247800D01*
Y249599D01*
X350999D01*
Y251398D01*
Y247800D01*
X352199D02*
X353398D01*
X352799D01*
Y250199D01*
X352199D01*
X356398Y246600D02*
X356997D01*
X357597Y247200D01*
Y250199D01*
X355798D01*
X355198Y249599D01*
Y248399D01*
X355798Y247800D01*
X357597D01*
X358797Y251398D02*
Y247800D01*
Y249599D01*
X359397Y250199D01*
X360596D01*
X361196Y249599D01*
Y247800D01*
X365994D02*
X367794D01*
X368394Y248399D01*
X367794Y248999D01*
X366594D01*
X365994Y249599D01*
X366594Y250199D01*
X368394D01*
X369593Y247800D02*
X370793D01*
X370193D01*
Y250199D01*
X369593D01*
X374991Y251398D02*
Y247800D01*
X373192D01*
X372592Y248399D01*
Y249599D01*
X373192Y250199D01*
X374991D01*
X377991Y247800D02*
X376791D01*
X376191Y248399D01*
Y249599D01*
X376791Y250199D01*
X377991D01*
X378590Y249599D01*
Y248999D01*
X376191D01*
X215999Y182599D02*
X215399Y183199D01*
X214200D01*
X213600Y182599D01*
Y181999D01*
X214200Y181399D01*
X215399D01*
X215999Y180800D01*
Y180200D01*
X215399Y179600D01*
X214200D01*
X213600Y180200D01*
X217199Y183199D02*
Y179600D01*
X218398Y180800D01*
X219598Y179600D01*
Y183199D01*
X220798D02*
Y179600D01*
X222597D01*
X223197Y180200D01*
Y182599D01*
X222597Y183199D01*
X220798D01*
X224396D02*
X225596D01*
X224996D01*
Y179600D01*
X224396D01*
X225596D01*
X229195Y183199D02*
X227995D01*
X227396Y182599D01*
Y180200D01*
X227995Y179600D01*
X229195D01*
X229795Y180200D01*
Y182599D01*
X229195Y183199D01*
X213600Y194199D02*
Y190600D01*
X215399D01*
X215999Y191200D01*
Y193599D01*
X215399Y194199D01*
X213600D01*
X219598Y193599D02*
X218998Y194199D01*
X217799D01*
X217199Y193599D01*
Y191200D01*
X217799Y190600D01*
X218998D01*
X219598Y191200D01*
Y192399D01*
X218398D01*
X220798Y190600D02*
Y194199D01*
X223197Y190600D01*
Y194199D01*
X224396D02*
Y190600D01*
X226196D01*
X226796Y191200D01*
Y193599D01*
X226196Y194199D01*
X224396D01*
X215999Y203599D02*
X215399Y204199D01*
X214200D01*
X213600Y203599D01*
Y202999D01*
X214200Y202399D01*
X215399D01*
X215999Y201800D01*
Y201200D01*
X215399Y200600D01*
X214200D01*
X213600Y201200D01*
X217199Y204199D02*
Y200600D01*
X218398Y201800D01*
X219598Y200600D01*
Y204199D01*
X223197Y203599D02*
X222597Y204199D01*
X221397D01*
X220798Y203599D01*
Y201200D01*
X221397Y200600D01*
X222597D01*
X223197Y201200D01*
X224396Y204199D02*
Y200600D01*
X226796D01*
X227995Y204199D02*
Y200600D01*
Y201800D01*
X230395Y204199D01*
X228595Y202399D01*
X230395Y200600D01*
X213600Y213599D02*
X214200Y214199D01*
X215399D01*
X215999Y213599D01*
Y212999D01*
X215399Y212399D01*
X214800D01*
X215399D01*
X215999Y211800D01*
Y211200D01*
X215399Y210600D01*
X214200D01*
X213600Y211200D01*
X217199Y214199D02*
Y211800D01*
X218398Y210600D01*
X219598Y211800D01*
Y214199D01*
X220798Y213599D02*
X221397Y214199D01*
X222597D01*
X223197Y213599D01*
Y212999D01*
X222597Y212399D01*
X221997D01*
X222597D01*
X223197Y211800D01*
Y211200D01*
X222597Y210600D01*
X221397D01*
X220798Y211200D01*
X224396Y214199D02*
Y210600D01*
X226196D01*
X226796Y211200D01*
Y213599D01*
X226196Y214199D01*
X224396D01*
X147001Y40201D02*
Y43799D01*
X148800D01*
X149400Y43200D01*
Y42000D01*
X148800Y41400D01*
X147001D01*
X148201D02*
X149400Y40201D01*
X150600Y40800D02*
X151200Y40201D01*
X152399D01*
X152999Y40800D01*
Y43200D01*
X152399Y43799D01*
X151200D01*
X150600Y43200D01*
Y42600D01*
X151200Y42000D01*
X152999D01*
X170001Y35799D02*
Y32201D01*
X171800D01*
X172400Y32800D01*
Y35200D01*
X171800Y35799D01*
X170001D01*
X175999D02*
X173600D01*
Y34000D01*
X174799Y34600D01*
X175399D01*
X175999Y34000D01*
Y32800D01*
X175399Y32201D01*
X174200D01*
X173600Y32800D01*
X130901Y173200D02*
X130301Y173799D01*
X129101D01*
X128501Y173200D01*
Y170800D01*
X129101Y170201D01*
X130301D01*
X130901Y170800D01*
X132100Y170201D02*
X133300D01*
X132700D01*
Y173799D01*
X132100Y173200D01*
X135099Y173799D02*
X137499D01*
Y173200D01*
X135099Y170800D01*
Y170201D01*
X49001Y82799D02*
Y79800D01*
X49601Y79201D01*
X50800D01*
X51400Y79800D01*
Y82799D01*
X54999D02*
X53799Y82200D01*
X52600Y81000D01*
Y79800D01*
X53200Y79201D01*
X54399D01*
X54999Y79800D01*
Y80400D01*
X54399Y81000D01*
X52600D01*
X50601Y190200D02*
X50001Y190799D01*
X48801D01*
X48202Y190200D01*
Y189600D01*
X48801Y189000D01*
X50001D01*
X50601Y188400D01*
Y187800D01*
X50001Y187201D01*
X48801D01*
X48202Y187800D01*
X51800Y190799D02*
Y187201D01*
X53000Y188400D01*
X54200Y187201D01*
Y190799D01*
X57798D02*
X55399D01*
Y189000D01*
X56599Y189600D01*
X57199D01*
X57798Y189000D01*
Y187800D01*
X57199Y187201D01*
X55999D01*
X55399Y187800D01*
X20200Y171399D02*
X20799Y171999D01*
Y173199D01*
X20200Y173798D01*
X19600D01*
X19000Y173199D01*
Y171999D01*
X18400Y171399D01*
X17800D01*
X17201Y171999D01*
Y173199D01*
X17800Y173798D01*
X20799Y170200D02*
X17201D01*
X18400Y169000D01*
X17201Y167800D01*
X20799D01*
X17201Y164801D02*
X20799D01*
X19000Y166601D01*
Y164201D01*
X20200Y123399D02*
X20799Y123999D01*
Y125199D01*
X20200Y125798D01*
X19600D01*
X19000Y125199D01*
Y123999D01*
X18400Y123399D01*
X17800D01*
X17201Y123999D01*
Y125199D01*
X17800Y125798D01*
X20799Y122200D02*
X17201D01*
X18400Y121000D01*
X17201Y119800D01*
X20799D01*
X20200Y118601D02*
X20799Y118001D01*
Y116801D01*
X20200Y116201D01*
X19600D01*
X19000Y116801D01*
Y117401D01*
Y116801D01*
X18400Y116201D01*
X17800D01*
X17201Y116801D01*
Y118001D01*
X17800Y118601D01*
X20200Y75399D02*
X20799Y75999D01*
Y77199D01*
X20200Y77798D01*
X19600D01*
X19000Y77199D01*
Y75999D01*
X18400Y75399D01*
X17800D01*
X17201Y75999D01*
Y77199D01*
X17800Y77798D01*
X20799Y74200D02*
X17201D01*
X18400Y73000D01*
X17201Y71800D01*
X20799D01*
X17201Y68202D02*
Y70601D01*
X19600Y68202D01*
X20200D01*
X20799Y68801D01*
Y70001D01*
X20200Y70601D01*
X43201Y23200D02*
X42601Y23799D01*
X41401D01*
X40801Y23200D01*
Y22600D01*
X41401Y22000D01*
X42601D01*
X43201Y21400D01*
Y20800D01*
X42601Y20201D01*
X41401D01*
X40801Y20800D01*
X44400Y23799D02*
Y20201D01*
X45600Y21400D01*
X46799Y20201D01*
Y23799D01*
X47999Y20201D02*
X49199D01*
X48599D01*
Y23799D01*
X47999Y23200D01*
X43501Y145201D02*
Y148799D01*
X45301D01*
X45901Y148200D01*
Y147000D01*
X45301Y146400D01*
X43501D01*
X44701D02*
X45901Y145201D01*
X47100D02*
X48300D01*
X47700D01*
Y148799D01*
X47100Y148200D01*
X50099Y145800D02*
X50699Y145201D01*
X51899D01*
X52499Y145800D01*
Y148200D01*
X51899Y148799D01*
X50699D01*
X50099Y148200D01*
Y147600D01*
X50699Y147000D01*
X52499D01*
X44201Y106499D02*
X47799D01*
Y104699D01*
X47200Y104099D01*
X46000D01*
X45400Y104699D01*
Y106499D01*
Y105299D02*
X44201Y104099D01*
Y102900D02*
Y101700D01*
Y102300D01*
X47799D01*
X47200Y102900D01*
Y99901D02*
X47799Y99301D01*
Y98101D01*
X47200Y97501D01*
X46600D01*
X46000Y98101D01*
X45400Y97501D01*
X44800D01*
X44201Y98101D01*
Y99301D01*
X44800Y99901D01*
X45400D01*
X46000Y99301D01*
X46600Y99901D01*
X47200D01*
X46000Y99301D02*
Y98101D01*
X43201Y60498D02*
X46799D01*
Y58699D01*
X46200Y58099D01*
X45000D01*
X44400Y58699D01*
Y60498D01*
Y59299D02*
X43201Y58099D01*
Y56900D02*
Y55700D01*
Y56300D01*
X46799D01*
X46200Y56900D01*
X46799Y53901D02*
Y51501D01*
X46200D01*
X43800Y53901D01*
X43201D01*
X71199Y46301D02*
X67601D01*
Y48101D01*
X68200Y48701D01*
X69400D01*
X70000Y48101D01*
Y46301D01*
Y47501D02*
X71199Y48701D01*
Y49900D02*
Y51100D01*
Y50500D01*
X67601D01*
X68200Y49900D01*
X67601Y55299D02*
X68200Y54099D01*
X69400Y52899D01*
X70600D01*
X71199Y53499D01*
Y54699D01*
X70600Y55299D01*
X70000D01*
X69400Y54699D01*
Y52899D01*
X87502Y208201D02*
Y211799D01*
X89301D01*
X89901Y211200D01*
Y210000D01*
X89301Y209400D01*
X87502D01*
X88701D02*
X89901Y208201D01*
X91100D02*
X92300D01*
X91700D01*
Y211799D01*
X91100Y211200D01*
X96499Y211799D02*
X94099D01*
Y210000D01*
X95299Y210600D01*
X95899D01*
X96499Y210000D01*
Y208800D01*
X95899Y208201D01*
X94699D01*
X94099Y208800D01*
X23502Y215201D02*
Y218799D01*
X25301D01*
X25901Y218200D01*
Y217000D01*
X25301Y216400D01*
X23502D01*
X24701D02*
X25901Y215201D01*
X27100D02*
X28300D01*
X27700D01*
Y218799D01*
X27100Y218200D01*
X31899Y215201D02*
Y218799D01*
X30099Y217000D01*
X32499D01*
X56502Y215201D02*
Y218799D01*
X58301D01*
X58901Y218200D01*
Y217000D01*
X58301Y216400D01*
X56502D01*
X57701D02*
X58901Y215201D01*
X60100D02*
X61300D01*
X60700D01*
Y218799D01*
X60100Y218200D01*
X63099D02*
X63699Y218799D01*
X64899D01*
X65499Y218200D01*
Y217600D01*
X64899Y217000D01*
X64299D01*
X64899D01*
X65499Y216400D01*
Y215800D01*
X64899Y215201D01*
X63699D01*
X63099Y215800D01*
X90001Y226799D02*
Y223201D01*
X91800D01*
X92400Y223800D01*
Y226200D01*
X91800Y226799D01*
X90001D01*
X95399Y223201D02*
Y226799D01*
X93600Y225000D01*
X95999D01*
X58001Y230799D02*
Y227201D01*
X59800D01*
X60400Y227800D01*
Y230200D01*
X59800Y230799D01*
X58001D01*
X61600Y230200D02*
X62200Y230799D01*
X63399D01*
X63999Y230200D01*
Y229600D01*
X63399Y229000D01*
X62799D01*
X63399D01*
X63999Y228400D01*
Y227800D01*
X63399Y227201D01*
X62200D01*
X61600Y227800D01*
X24001Y231799D02*
Y228201D01*
X25800D01*
X26400Y228800D01*
Y231200D01*
X25800Y231799D01*
X24001D01*
X29999Y228201D02*
X27600D01*
X29999Y230600D01*
Y231200D01*
X29399Y231799D01*
X28200D01*
X27600Y231200D01*
X63901Y71200D02*
X63301Y71799D01*
X62101D01*
X61501Y71200D01*
Y68800D01*
X62101Y68201D01*
X63301D01*
X63901Y68800D01*
X65100Y68201D02*
X66300D01*
X65700D01*
Y71799D01*
X65100Y71200D01*
X70499Y71799D02*
X68099D01*
Y70000D01*
X69299Y70600D01*
X69899D01*
X70499Y70000D01*
Y68800D01*
X69899Y68201D01*
X68699D01*
X68099Y68800D01*
X45901Y162200D02*
X45301Y162799D01*
X44101D01*
X43501Y162200D01*
Y159800D01*
X44101Y159201D01*
X45301D01*
X45901Y159800D01*
X47100Y159201D02*
X48300D01*
X47700D01*
Y162799D01*
X47100Y162200D01*
X51899Y159201D02*
Y162799D01*
X50099Y161000D01*
X52499D01*
X47200Y118099D02*
X47799Y118699D01*
Y119899D01*
X47200Y120499D01*
X44800D01*
X44201Y119899D01*
Y118699D01*
X44800Y118099D01*
X44201Y116900D02*
Y115700D01*
Y116300D01*
X47799D01*
X47200Y116900D01*
Y113901D02*
X47799Y113301D01*
Y112101D01*
X47200Y111501D01*
X46600D01*
X46000Y112101D01*
Y112701D01*
Y112101D01*
X45400Y111501D01*
X44800D01*
X44201Y112101D01*
Y113301D01*
X44800Y113901D01*
X46200Y74099D02*
X46799Y74699D01*
Y75899D01*
X46200Y76499D01*
X43800D01*
X43201Y75899D01*
Y74699D01*
X43800Y74099D01*
X43201Y72900D02*
Y71700D01*
Y72300D01*
X46799D01*
X46200Y72900D01*
X43201Y67501D02*
Y69901D01*
X45600Y67501D01*
X46200D01*
X46799Y68101D01*
Y69301D01*
X46200Y69901D01*
X54200Y48300D02*
X53601Y47701D01*
Y46501D01*
X54200Y45901D01*
X56600D01*
X57199Y46501D01*
Y47701D01*
X56600Y48300D01*
X57199Y49500D02*
Y50700D01*
Y50100D01*
X53601D01*
X54200Y49500D01*
X57199Y52499D02*
Y53699D01*
Y53099D01*
X53601D01*
X54200Y52499D01*
X319001Y76799D02*
Y73800D01*
X319601Y73201D01*
X320800D01*
X321400Y73800D01*
Y76799D01*
X322600Y76200D02*
X323200Y76799D01*
X324399D01*
X324999Y76200D01*
Y75600D01*
X324399Y75000D01*
X323799D01*
X324399D01*
X324999Y74400D01*
Y73800D01*
X324399Y73201D01*
X323200D01*
X322600Y73800D01*
X143001Y161201D02*
Y164799D01*
X144800D01*
X145400Y164200D01*
Y163000D01*
X144800Y162400D01*
X143001D01*
X144201D02*
X145400Y161201D01*
X148999Y164799D02*
X147799Y164200D01*
X146600Y163000D01*
Y161800D01*
X147200Y161201D01*
X148399D01*
X148999Y161800D01*
Y162400D01*
X148399Y163000D01*
X146600D01*
X142001Y149201D02*
Y152799D01*
X143800D01*
X144400Y152200D01*
Y151000D01*
X143800Y150400D01*
X142001D01*
X143201D02*
X144400Y149201D01*
X147999Y152799D02*
X145600D01*
Y151000D01*
X146799Y151600D01*
X147399D01*
X147999Y151000D01*
Y149800D01*
X147399Y149201D01*
X146200D01*
X145600Y149800D01*
X175001Y141201D02*
Y144799D01*
X176800D01*
X177400Y144200D01*
Y143000D01*
X176800Y142400D01*
X175001D01*
X176201D02*
X177400Y141201D01*
X180399D02*
Y144799D01*
X178600Y143000D01*
X180999D01*
X337001Y67201D02*
Y70799D01*
X338800D01*
X339400Y70200D01*
Y69000D01*
X338800Y68400D01*
X337001D01*
X338201D02*
X339400Y67201D01*
X340600Y70200D02*
X341200Y70799D01*
X342399D01*
X342999Y70200D01*
Y69600D01*
X342399Y69000D01*
X341799D01*
X342399D01*
X342999Y68400D01*
Y67800D01*
X342399Y67201D01*
X341200D01*
X340600Y67800D01*
X162400Y137800D02*
Y140200D01*
X161800Y140799D01*
X160601D01*
X160001Y140200D01*
Y137800D01*
X160601Y137201D01*
X161800D01*
X161201Y138400D02*
X162400Y137201D01*
X161800D02*
X162400Y137800D01*
X165999Y137201D02*
X163600D01*
X165999Y139600D01*
Y140200D01*
X165399Y140799D01*
X164200D01*
X163600Y140200D01*
X233699Y93000D02*
Y95399D01*
X233099Y95999D01*
X231900D01*
X231300Y95399D01*
Y93000D01*
X231900Y92400D01*
X233099D01*
X232500Y93600D02*
X233699Y92400D01*
X233099D02*
X233699Y93000D01*
X234899Y92400D02*
X236099D01*
X235499D01*
Y95999D01*
X234899Y95399D01*
X342400Y80799D02*
X341201D01*
X341800D01*
Y77800D01*
X341201Y77201D01*
X340601D01*
X340001Y77800D01*
X345999Y80799D02*
X343600D01*
Y79000D01*
X344799Y79600D01*
X345399D01*
X345999Y79000D01*
Y77800D01*
X345399Y77201D01*
X344200D01*
X343600Y77800D01*
X253601Y11299D02*
Y7701D01*
X255400D01*
X256000Y8300D01*
Y10700D01*
X255400Y11299D01*
X253601D01*
X257200Y7701D02*
X258399D01*
X257799D01*
Y11299D01*
X257200Y10700D01*
X136601Y191799D02*
Y191200D01*
X137800Y190000D01*
X139000Y191200D01*
Y191799D01*
X137800Y190000D02*
Y188201D01*
X140200D02*
X141399D01*
X140799D01*
Y191799D01*
X140200Y191200D01*
X98131Y34705D02*
Y31706D01*
X98731Y31106D01*
X99930D01*
X100530Y31706D01*
Y34705D01*
X104129D02*
X101730D01*
Y32906D01*
X102929Y33505D01*
X103529D01*
X104129Y32906D01*
Y31706D01*
X103529Y31106D01*
X102330D01*
X101730Y31706D01*
X80001Y197799D02*
Y194800D01*
X80601Y194201D01*
X81800D01*
X82400Y194800D01*
Y197799D01*
X85399Y194201D02*
Y197799D01*
X83600Y196000D01*
X85999D01*
X319001Y242799D02*
Y239800D01*
X319601Y239201D01*
X320800D01*
X321400Y239800D01*
Y242799D01*
X322600Y242200D02*
X323200Y242799D01*
X324399D01*
X324999Y242200D01*
Y241600D01*
X324399Y241000D01*
X323799D01*
X324399D01*
X324999Y240400D01*
Y239800D01*
X324399Y239201D01*
X323200D01*
X322600Y239800D01*
X188001Y207799D02*
Y204800D01*
X188601Y204201D01*
X189800D01*
X190400Y204800D01*
Y207799D01*
X193999Y204201D02*
X191600D01*
X193999Y206600D01*
Y207200D01*
X193399Y207799D01*
X192200D01*
X191600Y207200D01*
X143601Y230799D02*
Y227800D01*
X144201Y227201D01*
X145400D01*
X146000Y227800D01*
Y230799D01*
X147200Y227201D02*
X148399D01*
X147799D01*
Y230799D01*
X147200Y230200D01*
X139502Y71201D02*
Y74799D01*
X141301D01*
X141901Y74200D01*
Y73000D01*
X141301Y72400D01*
X139502D01*
X140701D02*
X141901Y71201D01*
X143100D02*
X144300D01*
X143700D01*
Y74799D01*
X143100Y74200D01*
X148499Y71201D02*
X146099D01*
X148499Y73600D01*
Y74200D01*
X147899Y74799D01*
X146699D01*
X146099Y74200D01*
X140101Y55201D02*
Y58799D01*
X141901D01*
X142500Y58200D01*
Y57000D01*
X141901Y56400D01*
X140101D01*
X141301D02*
X142500Y55201D01*
X143700D02*
X144900D01*
X144300D01*
Y58799D01*
X143700Y58200D01*
X146699Y55201D02*
X147899D01*
X147299D01*
Y58799D01*
X146699Y58200D01*
X71001Y149201D02*
Y152799D01*
X72800D01*
X73400Y152200D01*
Y151000D01*
X72800Y150400D01*
X71001D01*
X72201D02*
X73400Y149201D01*
X74600Y152200D02*
X75200Y152799D01*
X76399D01*
X76999Y152200D01*
Y151600D01*
X76399Y151000D01*
X76999Y150400D01*
Y149800D01*
X76399Y149201D01*
X75200D01*
X74600Y149800D01*
Y150400D01*
X75200Y151000D01*
X74600Y151600D01*
Y152200D01*
X75200Y151000D02*
X76399D01*
X71001Y162201D02*
Y165799D01*
X72800D01*
X73400Y165200D01*
Y164000D01*
X72800Y163400D01*
X71001D01*
X72201D02*
X73400Y162201D01*
X74600Y165799D02*
X76999D01*
Y165200D01*
X74600Y162800D01*
Y162201D01*
X176001Y159201D02*
Y162799D01*
X177800D01*
X178400Y162200D01*
Y161000D01*
X177800Y160400D01*
X176001D01*
X177201D02*
X178400Y159201D01*
X181999Y162799D02*
X180799Y162200D01*
X179600Y161000D01*
Y159800D01*
X180200Y159201D01*
X181399D01*
X181999Y159800D01*
Y160400D01*
X181399Y161000D01*
X179600D01*
X203001Y146201D02*
Y149799D01*
X204800D01*
X205400Y149200D01*
Y148000D01*
X204800Y147400D01*
X203001D01*
X204201D02*
X205400Y146201D01*
X208999Y149799D02*
X206600D01*
Y148000D01*
X207799Y148600D01*
X208399D01*
X208999Y148000D01*
Y146800D01*
X208399Y146201D01*
X207200D01*
X206600Y146800D01*
X218001Y167201D02*
Y170799D01*
X219800D01*
X220400Y170200D01*
Y169000D01*
X219800Y168400D01*
X218001D01*
X219201D02*
X220400Y167201D01*
X223399D02*
Y170799D01*
X221600Y169000D01*
X223999D01*
X337001Y234201D02*
Y237799D01*
X338800D01*
X339400Y237200D01*
Y236000D01*
X338800Y235400D01*
X337001D01*
X338201D02*
X339400Y234201D01*
X340600Y237200D02*
X341200Y237799D01*
X342399D01*
X342999Y237200D01*
Y236600D01*
X342399Y236000D01*
X341799D01*
X342399D01*
X342999Y235400D01*
Y234800D01*
X342399Y234201D01*
X341200D01*
X340600Y234800D01*
X162900Y221700D02*
Y225299D01*
X164699D01*
X165299Y224699D01*
Y223499D01*
X164699Y222900D01*
X162900D01*
X164100D02*
X165299Y221700D01*
X168898D02*
X166499D01*
X168898Y224099D01*
Y224699D01*
X168298Y225299D01*
X167099D01*
X166499Y224699D01*
X164601Y237201D02*
Y240799D01*
X166400D01*
X167000Y240200D01*
Y239000D01*
X166400Y238400D01*
X164601D01*
X165800D02*
X167000Y237201D01*
X168200D02*
X169399D01*
X168799D01*
Y240799D01*
X168200Y240200D01*
X192400Y144800D02*
Y147200D01*
X191800Y147799D01*
X190601D01*
X190001Y147200D01*
Y144800D01*
X190601Y144201D01*
X191800D01*
X191201Y145400D02*
X192400Y144201D01*
X191800D02*
X192400Y144800D01*
X195999Y144201D02*
X193600D01*
X195999Y146600D01*
Y147200D01*
X195399Y147799D01*
X194200D01*
X193600Y147200D01*
X233699Y260000D02*
Y262399D01*
X233099Y262999D01*
X231900D01*
X231300Y262399D01*
Y260000D01*
X231900Y259400D01*
X233099D01*
X232500Y260600D02*
X233699Y259400D01*
X233099D02*
X233699Y260000D01*
X234899Y259400D02*
X236099D01*
X235499D01*
Y262999D01*
X234899Y262399D01*
X339400Y247799D02*
X338201D01*
X338800D01*
Y244800D01*
X338201Y244201D01*
X337601D01*
X337001Y244800D01*
X342999Y247799D02*
X340600D01*
Y246000D01*
X341799Y246600D01*
X342399D01*
X342999Y246000D01*
Y244800D01*
X342399Y244201D01*
X341200D01*
X340600Y244800D01*
X203699Y223499D02*
X202500D01*
X203099D01*
Y220500D01*
X202500Y219900D01*
X201900D01*
X201300Y220500D01*
X206698Y219900D02*
Y223499D01*
X204899Y221699D01*
X207298D01*
X194400Y276799D02*
X193201D01*
X193800D01*
Y273800D01*
X193201Y273201D01*
X192601D01*
X192001Y273800D01*
X195600Y276200D02*
X196200Y276799D01*
X197399D01*
X197999Y276200D01*
Y275600D01*
X197399Y275000D01*
X196799D01*
X197399D01*
X197999Y274400D01*
Y273800D01*
X197399Y273201D01*
X196200D01*
X195600Y273800D01*
X75591Y137599D02*
X74391D01*
X74991D01*
Y134600D01*
X74391Y134001D01*
X73791D01*
X73191Y134600D01*
X79190Y134001D02*
X76790D01*
X79190Y136400D01*
Y137000D01*
X78590Y137599D01*
X77390D01*
X76790Y137000D01*
X97000Y276799D02*
X95800D01*
X96400D01*
Y273800D01*
X95800Y273201D01*
X95201D01*
X94601Y273800D01*
X98200Y273201D02*
X99399D01*
X98799D01*
Y276799D01*
X98200Y276200D01*
X287731Y178205D02*
Y174606D01*
X289530D01*
X290130Y175206D01*
Y177605D01*
X289530Y178205D01*
X287731D01*
X291330Y174606D02*
X292529D01*
X291929D01*
Y178205D01*
X291330Y177605D01*
X137400Y180200D02*
X136800Y180799D01*
X135601D01*
X135001Y180200D01*
Y177800D01*
X135601Y177201D01*
X136800D01*
X137400Y177800D01*
X138600D02*
X139200Y177201D01*
X140399D01*
X140999Y177800D01*
Y180200D01*
X140399Y180799D01*
X139200D01*
X138600Y180200D01*
Y179600D01*
X139200Y179000D01*
X140999D01*
X152400Y213200D02*
X151800Y213799D01*
X150601D01*
X150001Y213200D01*
Y210800D01*
X150601Y210201D01*
X151800D01*
X152400Y210800D01*
X153600Y213200D02*
X154200Y213799D01*
X155399D01*
X155999Y213200D01*
Y212600D01*
X155399Y212000D01*
X155999Y211400D01*
Y210800D01*
X155399Y210201D01*
X154200D01*
X153600Y210800D01*
Y211400D01*
X154200Y212000D01*
X153600Y212600D01*
Y213200D01*
X154200Y212000D02*
X155399D01*
X203400Y172200D02*
X202800Y172799D01*
X201601D01*
X201001Y172200D01*
Y169800D01*
X201601Y169201D01*
X202800D01*
X203400Y169800D01*
X204600Y172799D02*
X206999D01*
Y172200D01*
X204600Y169800D01*
Y169201D01*
X179400Y226200D02*
X178800Y226799D01*
X177601D01*
X177001Y226200D01*
Y223800D01*
X177601Y223201D01*
X178800D01*
X179400Y223800D01*
X182999Y226799D02*
X181799Y226200D01*
X180600Y225000D01*
Y223800D01*
X181200Y223201D01*
X182399D01*
X182999Y223800D01*
Y224400D01*
X182399Y225000D01*
X180600D01*
X139400Y35200D02*
X138800Y35799D01*
X137601D01*
X137001Y35200D01*
Y32800D01*
X137601Y32201D01*
X138800D01*
X139400Y32800D01*
X142999Y35799D02*
X140600D01*
Y34000D01*
X141799Y34600D01*
X142399D01*
X142999Y34000D01*
Y32800D01*
X142399Y32201D01*
X141200D01*
X140600Y32800D01*
X91400Y80200D02*
X90800Y80799D01*
X89601D01*
X89001Y80200D01*
Y77800D01*
X89601Y77201D01*
X90800D01*
X91400Y77800D01*
X94399Y77201D02*
Y80799D01*
X92600Y79000D01*
X94999D01*
X126400Y205200D02*
X125800Y205799D01*
X124601D01*
X124001Y205200D01*
Y202800D01*
X124601Y202201D01*
X125800D01*
X126400Y202800D01*
X127600Y205200D02*
X128200Y205799D01*
X129399D01*
X129999Y205200D01*
Y204600D01*
X129399Y204000D01*
X128799D01*
X129399D01*
X129999Y203400D01*
Y202800D01*
X129399Y202201D01*
X128200D01*
X127600Y202800D01*
X119400Y151200D02*
X118800Y151799D01*
X117601D01*
X117001Y151200D01*
Y148800D01*
X117601Y148201D01*
X118800D01*
X119400Y148800D01*
X122999Y148201D02*
X120600D01*
X122999Y150600D01*
Y151200D01*
X122399Y151799D01*
X121200D01*
X120600Y151200D01*
X135000Y231200D02*
X134400Y231799D01*
X133201D01*
X132601Y231200D01*
Y228800D01*
X133201Y228201D01*
X134400D01*
X135000Y228800D01*
X136200Y228201D02*
X137399D01*
X136799D01*
Y231799D01*
X136200Y231200D01*
D15*
X152300Y194406D02*
Y197087D01*
X142900D02*
X152300D01*
Y182913D02*
Y187320D01*
Y194406D01*
X142900Y182913D02*
X152300D01*
X142900D02*
Y197087D01*
D16*
X203200Y55500D02*
X203800D01*
X201300Y55400D02*
X204600D01*
X200600Y55300D02*
X204900D01*
X200200Y55200D02*
X205200D01*
X199800Y55100D02*
X205400D01*
X199500Y55000D02*
X205600D01*
X199300Y54900D02*
X205800D01*
X199000Y54800D02*
X206000D01*
X198800Y54700D02*
X206100D01*
X198600Y54600D02*
X206300D01*
X198400Y54500D02*
X203000D01*
X203600D02*
X206400D01*
X198200Y54400D02*
X201000D01*
X204300D02*
X206500D01*
X198000Y54300D02*
X200500D01*
X204600D02*
X206600D01*
X197800Y54200D02*
X200100D01*
X204800D02*
X206700D01*
X197600Y54100D02*
X199900D01*
X205000D02*
X206800D01*
X197400Y54000D02*
X199600D01*
X205200D02*
X206800D01*
X197200Y53900D02*
X199400D01*
X205300D02*
X206900D01*
X197100Y53800D02*
X199200D01*
X205500D02*
X207000D01*
X197000Y53700D02*
X199000D01*
X205600D02*
X207100D01*
X196900Y53600D02*
X198800D01*
X205700D02*
X207200D01*
X196800Y53500D02*
X198600D01*
X205800D02*
X207300D01*
X196700Y53400D02*
X198400D01*
X205900D02*
X207300D01*
X196600Y53300D02*
X198200D01*
X206000D02*
X207400D01*
X196500Y53200D02*
X198000D01*
X206100D02*
X207500D01*
X196400Y53100D02*
X197800D01*
X206200D02*
X207600D01*
X196300Y53000D02*
X197700D01*
X206200D02*
X207600D01*
X196200Y52900D02*
X197600D01*
X206300D02*
X207700D01*
X196100Y52800D02*
X197400D01*
X206400D02*
X207800D01*
X196000Y52700D02*
X197400D01*
X206500D02*
X207800D01*
X195900Y52600D02*
X197300D01*
X206600D02*
X207900D01*
X195800Y52500D02*
X197200D01*
X206600D02*
X207900D01*
X195800Y52400D02*
X197100D01*
X206700D02*
X208000D01*
X195700Y52300D02*
X197000D01*
X206800D02*
X208000D01*
X195600Y52200D02*
X196900D01*
X206800D02*
X208100D01*
X195600Y52100D02*
X196800D01*
X206900D02*
X208100D01*
X195500Y52000D02*
X196700D01*
X206900D02*
X208200D01*
X195400Y51900D02*
X196600D01*
X199000D02*
X199500D01*
X204300D02*
X204900D01*
X207000D02*
X208200D01*
X195400Y51800D02*
X196500D01*
X198900D02*
X199600D01*
X204200D02*
X205000D01*
X207000D02*
X208300D01*
X195300Y51700D02*
X196400D01*
X198800D02*
X199700D01*
X204100D02*
X205100D01*
X207100D02*
X208300D01*
X195300Y51600D02*
X196400D01*
X198700D02*
X199800D01*
X204000D02*
X205100D01*
X207100D02*
X208400D01*
X195200Y51500D02*
X196300D01*
X198700D02*
X199800D01*
X204000D02*
X205100D01*
X207200D02*
X208400D01*
X195200Y51400D02*
X196200D01*
X198600D02*
X199900D01*
X203900D02*
X205100D01*
X207200D02*
X208400D01*
X195200Y51300D02*
X196200D01*
X198500D02*
X199900D01*
X203900D02*
X205100D01*
X207300D02*
X208500D01*
X195100Y51200D02*
X196200D01*
X198500D02*
X199900D01*
X203900D02*
X205000D01*
X207300D02*
X208500D01*
X195100Y51100D02*
X196100D01*
X198500D02*
X200000D01*
X203900D02*
X205000D01*
X207400D02*
X208600D01*
X195100Y51000D02*
X196100D01*
X198400D02*
X200000D01*
X203900D02*
X204900D01*
X207400D02*
X208600D01*
X195000Y50900D02*
X196000D01*
X198400D02*
X199900D01*
X203900D02*
X204800D01*
X207400D02*
X208600D01*
X195000Y50800D02*
X196000D01*
X198400D02*
X199900D01*
X203900D02*
X204700D01*
X207500D02*
X208700D01*
X195000Y50700D02*
X196000D01*
X198400D02*
X199900D01*
X204000D02*
X204700D01*
X207500D02*
X208700D01*
X195000Y50600D02*
X196000D01*
X198400D02*
X199800D01*
X204100D02*
X204500D01*
X207600D02*
X208700D01*
X195000Y50500D02*
X195900D01*
X198400D02*
X199800D01*
X207600D02*
X208800D01*
X194900Y50400D02*
X195900D01*
X198500D02*
X199700D01*
X207600D02*
X208800D01*
X194900Y50300D02*
X195900D01*
X198600D02*
X199600D01*
X207600D02*
X208800D01*
X194900Y50200D02*
X195900D01*
X198700D02*
X199500D01*
X207700D02*
X208800D01*
X194900Y50100D02*
X195900D01*
X199000D02*
X199200D01*
X207700D02*
X208800D01*
X194900Y50000D02*
X195900D01*
X207700D02*
X208800D01*
X194900Y49900D02*
X195800D01*
X207700D02*
X208900D01*
X194900Y49800D02*
X195800D01*
X207700D02*
X208900D01*
X194900Y49700D02*
X195800D01*
X207800D02*
X208900D01*
X194900Y49600D02*
X195800D01*
X207800D02*
X208900D01*
X194900Y49500D02*
X195800D01*
X207800D02*
X208900D01*
X194900Y49400D02*
X195800D01*
X207800D02*
X208900D01*
X194900Y49300D02*
X195800D01*
X207800D02*
X208900D01*
X194900Y49200D02*
X195800D01*
X207800D02*
X208900D01*
X194900Y49100D02*
X195800D01*
X207800D02*
X208900D01*
X194900Y49000D02*
X195800D01*
X207800D02*
X208900D01*
X194900Y48900D02*
X195800D01*
X207800D02*
X208900D01*
X194900Y48800D02*
X195800D01*
X207800D02*
X208900D01*
X194900Y48700D02*
X195800D01*
X207800D02*
X208900D01*
X194900Y48600D02*
X195800D01*
X207800D02*
X208900D01*
X194900Y48500D02*
X195800D01*
X199800D02*
X200100D01*
X207800D02*
X208900D01*
X194900Y48400D02*
X195800D01*
X199700D02*
X200200D01*
X207800D02*
X208900D01*
X194900Y48300D02*
X195800D01*
X199600D02*
X200200D01*
X202500D02*
X203200D01*
X207700D02*
X208900D01*
X194900Y48200D02*
X195800D01*
X199600D02*
X200300D01*
X202400D02*
X203200D01*
X207700D02*
X208900D01*
X194900Y48100D02*
X195900D01*
X199600D02*
X200400D01*
X202300D02*
X203300D01*
X207700D02*
X208900D01*
X194900Y48000D02*
X195900D01*
X199600D02*
X200600D01*
X202200D02*
X203300D01*
X207600D02*
X208800D01*
X194900Y47900D02*
X195900D01*
X199600D02*
X200800D01*
X201700D02*
X203400D01*
X207600D02*
X208800D01*
X194900Y47800D02*
X195900D01*
X199600D02*
X203400D01*
X207500D02*
X208800D01*
X195000Y47700D02*
X195900D01*
X199600D02*
X203400D01*
X207500D02*
X208700D01*
X195000Y47600D02*
X196000D01*
X199600D02*
X203300D01*
X207400D02*
X208700D01*
X195000Y47500D02*
X196000D01*
X199600D02*
X203300D01*
X207300D02*
X208600D01*
X195000Y47400D02*
X196000D01*
X199600D02*
X203300D01*
X207300D02*
X208600D01*
X195100Y47300D02*
X196000D01*
X199700D02*
X203200D01*
X207200D02*
X208500D01*
X195100Y47200D02*
X196100D01*
X199700D02*
X203200D01*
X207100D02*
X208500D01*
X195100Y47100D02*
X196100D01*
X199700D02*
X203200D01*
X207000D02*
X208400D01*
X195200Y47000D02*
X196200D01*
X199800D02*
X203100D01*
X207000D02*
X208400D01*
X195200Y46900D02*
X196200D01*
X199800D02*
X201000D01*
X202000D02*
X203100D01*
X206900D02*
X208300D01*
X195200Y46800D02*
X196200D01*
X199800D02*
X201000D01*
X202000D02*
X203000D01*
X206800D02*
X208200D01*
X195300Y46700D02*
X196300D01*
X199900D02*
X201100D01*
X201900D02*
X203000D01*
X206700D02*
X208200D01*
X195300Y46600D02*
X196300D01*
X200000D02*
X201200D01*
X201800D02*
X202900D01*
X206600D02*
X208100D01*
X195300Y46500D02*
X196400D01*
X200000D02*
X201200D01*
X201700D02*
X202900D01*
X206600D02*
X208000D01*
X195400Y46400D02*
X196400D01*
X200100D02*
X201300D01*
X201700D02*
X202800D01*
X206500D02*
X207900D01*
X195400Y46300D02*
X196500D01*
X200200D02*
X201300D01*
X201600D02*
X202700D01*
X206400D02*
X207900D01*
X195500Y46200D02*
X196500D01*
X200300D02*
X201400D01*
X201500D02*
X202700D01*
X206300D02*
X207800D01*
X195500Y46100D02*
X196600D01*
X200300D02*
X202600D01*
X206200D02*
X207700D01*
X195600Y46000D02*
X196700D01*
X200400D02*
X202500D01*
X206100D02*
X207600D01*
X195600Y45900D02*
X196700D01*
X200500D02*
X202400D01*
X206000D02*
X207500D01*
X195700Y45800D02*
X196800D01*
X200500D02*
X202400D01*
X205900D02*
X207500D01*
X195700Y45700D02*
X196800D01*
X200600D02*
X202300D01*
X205700D02*
X207400D01*
X195800Y45600D02*
X196900D01*
X200700D02*
X202200D01*
X205600D02*
X207300D01*
X195800Y45500D02*
X196900D01*
X200700D02*
X202100D01*
X205500D02*
X207200D01*
X195900Y45400D02*
X197000D01*
X200800D02*
X202100D01*
X205300D02*
X207100D01*
X196000Y45300D02*
X197100D01*
X200900D02*
X201900D01*
X205100D02*
X207000D01*
X196000Y45200D02*
X197200D01*
X201000D02*
X201800D01*
X205000D02*
X206900D01*
X196100Y45100D02*
X197300D01*
X201300D02*
X201600D01*
X204800D02*
X206800D01*
X196100Y45000D02*
X197300D01*
X204700D02*
X206700D01*
X196200Y44900D02*
X197400D01*
X204500D02*
X206500D01*
X196300Y44800D02*
X197500D01*
X204300D02*
X206400D01*
X196400Y44700D02*
X197600D01*
X204200D02*
X206200D01*
X196500Y44600D02*
X197700D01*
X204000D02*
X206100D01*
X196500Y44500D02*
X197800D01*
X203800D02*
X206200D01*
X196600Y44400D02*
X197900D01*
X203500D02*
X206300D01*
X196700Y44300D02*
X198000D01*
X203200D02*
X206500D01*
X196800Y44200D02*
X198100D01*
X202800D02*
X206600D01*
X196900Y44100D02*
X198200D01*
X202400D02*
X205300D01*
X205500D02*
X206600D01*
X196800Y44000D02*
X198400D01*
X201900D02*
X205100D01*
X205600D02*
X206700D01*
X196600Y43900D02*
X198600D01*
X201300D02*
X204900D01*
X205700D02*
X206800D01*
X196500Y43800D02*
X198800D01*
X200600D02*
X204800D01*
X205800D02*
X206900D01*
X196400Y43700D02*
X199100D01*
X200000D02*
X204600D01*
X205900D02*
X206900D01*
X196300Y43600D02*
X204400D01*
X206000D02*
X207000D01*
X196300Y43500D02*
X197300D01*
X197500D02*
X204100D01*
X206000D02*
X207100D01*
X196200Y43400D02*
X197300D01*
X197700D02*
X203900D01*
X206100D02*
X207100D01*
X196100Y43300D02*
X197100D01*
X197800D02*
X203500D01*
X206200D02*
X207200D01*
X196100Y43200D02*
X197100D01*
X198000D02*
X203200D01*
X206200D02*
X207300D01*
X196000Y43100D02*
X197000D01*
X198200D02*
X202800D01*
X206300D02*
X207300D01*
X196000Y43000D02*
X196900D01*
X198400D02*
X202400D01*
X206300D02*
X207400D01*
X195900Y42900D02*
X196900D01*
X198800D02*
X201600D01*
X206300D02*
X207400D01*
X195900Y42800D02*
X196800D01*
X206400D02*
X207500D01*
X195800Y42700D02*
X196800D01*
X206400D02*
X207500D01*
X195800Y42600D02*
X196700D01*
X206500D02*
X207600D01*
X195700Y42500D02*
X196700D01*
X206500D02*
X207700D01*
X195700Y42400D02*
X196600D01*
X206600D02*
X207700D01*
X195600Y42300D02*
X196600D01*
X206600D02*
X207800D01*
X195600Y42200D02*
X196500D01*
X206700D02*
X207800D01*
X195500Y42100D02*
X196500D01*
X206700D02*
X207900D01*
X195500Y42000D02*
X196500D01*
X206700D02*
X207900D01*
X195400Y41900D02*
X196400D01*
X206800D02*
X208000D01*
X195400Y41800D02*
X196400D01*
X206800D02*
X208000D01*
X195300Y41700D02*
X196300D01*
X206900D02*
X208100D01*
X195300Y41600D02*
X196300D01*
X206900D02*
X208200D01*
X195300Y41500D02*
X196200D01*
X207000D02*
X208200D01*
X195200Y41400D02*
X196200D01*
X207000D02*
X208300D01*
X195200Y41300D02*
X196200D01*
X207100D02*
X208300D01*
X195100Y41200D02*
X196100D01*
X207100D02*
X208400D01*
X195100Y41100D02*
X196100D01*
X207200D02*
X208400D01*
X195100Y41000D02*
X196000D01*
X207200D02*
X208500D01*
X195000Y40900D02*
X196000D01*
X207200D02*
X208500D01*
X195000Y40800D02*
X196000D01*
X207300D02*
X208600D01*
X195000Y40700D02*
X195900D01*
X207300D02*
X208600D01*
X194900Y40600D02*
X195900D01*
X207400D02*
X208700D01*
X194900Y40500D02*
X195900D01*
X207400D02*
X208700D01*
X194800Y40400D02*
X195800D01*
X207500D02*
X208800D01*
X194800Y40300D02*
X195800D01*
X207500D02*
X208800D01*
X194800Y40200D02*
X195800D01*
X207600D02*
X208900D01*
X194700Y40100D02*
X195700D01*
X207600D02*
X208900D01*
X194700Y40000D02*
X195700D01*
X207600D02*
X208900D01*
X194700Y39900D02*
X195700D01*
X207700D02*
X209000D01*
X194600Y39800D02*
X195600D01*
X207700D02*
X209000D01*
X194600Y39700D02*
X195600D01*
X207800D02*
X209100D01*
X194600Y39600D02*
X195600D01*
X207800D02*
X209100D01*
X194500Y39500D02*
X195500D01*
X207800D02*
X209100D01*
X194500Y39400D02*
X195500D01*
X207900D02*
X209200D01*
X194500Y39300D02*
X195500D01*
X207900D02*
X209200D01*
X194500Y39200D02*
X195500D01*
X208000D02*
X209300D01*
X194400Y39100D02*
X195400D01*
X208000D02*
X209300D01*
X194400Y39000D02*
X195400D01*
X208000D02*
X209300D01*
X194400Y38900D02*
X195400D01*
X208100D02*
X209400D01*
X194200Y38800D02*
X195300D01*
X208100D02*
X209400D01*
X194000Y38700D02*
X195300D01*
X208100D02*
X209400D01*
X193900Y38600D02*
X195300D01*
X208200D02*
X209500D01*
X193700Y38500D02*
X195300D01*
X208200D02*
X209600D01*
X193500Y38400D02*
X195300D01*
X208200D02*
X209800D01*
X193300Y38300D02*
X195300D01*
X208300D02*
X210000D01*
X193100Y38200D02*
X195300D01*
X208300D02*
X210100D01*
X193000Y38100D02*
X195200D01*
X208300D02*
X210400D01*
X192800Y38000D02*
X195200D01*
X208400D02*
X210600D01*
X192700Y37900D02*
X195200D01*
X208400D02*
X210900D01*
X192500Y37800D02*
X195200D01*
X208400D02*
X211000D01*
X192400Y37700D02*
X195200D01*
X208500D02*
X211200D01*
X192300Y37600D02*
X195200D01*
X208500D02*
X211400D01*
X192200Y37500D02*
X195200D01*
X208500D02*
X211500D01*
X192100Y37400D02*
X195100D01*
X208500D02*
X211600D01*
X192000Y37300D02*
X195100D01*
X208600D02*
X211800D01*
X191900Y37200D02*
X194000D01*
X194100D02*
X195100D01*
X208600D02*
X209900D01*
X210100D02*
X211900D01*
X191800Y37100D02*
X193900D01*
X194100D02*
X195100D01*
X208600D02*
X209900D01*
X210200D02*
X212000D01*
X191700Y37000D02*
X193800D01*
X194100D02*
X195100D01*
X208700D02*
X210000D01*
X210300D02*
X212100D01*
X191600Y36900D02*
X193700D01*
X194100D02*
X195100D01*
X208700D02*
X210000D01*
X210400D02*
X212200D01*
X191500Y36800D02*
X193500D01*
X194100D02*
X195100D01*
X208700D02*
X210000D01*
X210500D02*
X212200D01*
X191400Y36700D02*
X193400D01*
X194000D02*
X195000D01*
X208700D02*
X210000D01*
X210600D02*
X212300D01*
X191400Y36600D02*
X193300D01*
X194000D02*
X195000D01*
X208800D02*
X210100D01*
X210700D02*
X212400D01*
X191300Y36500D02*
X193100D01*
X194000D02*
X195000D01*
X208800D02*
X210100D01*
X210800D02*
X212600D01*
X191200Y36400D02*
X193000D01*
X194000D02*
X195000D01*
X208800D02*
X210100D01*
X210900D02*
X212700D01*
X191100Y36300D02*
X192900D01*
X194000D02*
X195000D01*
X208800D02*
X210100D01*
X211000D02*
X212900D01*
X191000Y36200D02*
X192800D01*
X194000D02*
X195000D01*
X208900D02*
X210200D01*
X211000D02*
X213000D01*
X190900Y36100D02*
X192700D01*
X193900D02*
X195000D01*
X208900D02*
X210200D01*
X211100D02*
X213100D01*
X190800Y36000D02*
X192600D01*
X193900D02*
X194900D01*
X208900D02*
X210200D01*
X211200D02*
X213300D01*
X190700Y35900D02*
X192500D01*
X193900D02*
X194900D01*
X208900D02*
X210200D01*
X211300D02*
X213400D01*
X190600Y35800D02*
X192400D01*
X193900D02*
X194900D01*
X209000D02*
X210300D01*
X211400D02*
X213500D01*
X190500Y35700D02*
X192300D01*
X193900D02*
X194900D01*
X209000D02*
X210300D01*
X211500D02*
X213600D01*
X190400Y35600D02*
X192200D01*
X193800D02*
X194900D01*
X209000D02*
X210300D01*
X211600D02*
X213700D01*
X190300Y35500D02*
X192100D01*
X193800D02*
X194900D01*
X209000D02*
X210300D01*
X211700D02*
X213800D01*
X190300Y35400D02*
X192000D01*
X193800D02*
X194800D01*
X209000D02*
X210400D01*
X211800D02*
X213900D01*
X190200Y35300D02*
X191900D01*
X193800D02*
X194800D01*
X209100D02*
X210400D01*
X211900D02*
X213900D01*
X190100Y35200D02*
X191800D01*
X193800D02*
X194800D01*
X209100D02*
X210400D01*
X212000D02*
X214000D01*
X190100Y35100D02*
X191700D01*
X193800D02*
X194800D01*
X209100D02*
X210400D01*
X212200D02*
X214100D01*
X190000Y35000D02*
X191600D01*
X193700D02*
X194800D01*
X209100D02*
X210400D01*
X212300D02*
X214200D01*
X189900Y34900D02*
X191600D01*
X193700D02*
X194800D01*
X209200D02*
X210500D01*
X212400D02*
X214200D01*
X189900Y34800D02*
X191500D01*
X193700D02*
X194700D01*
X209200D02*
X210500D01*
X212400D02*
X214300D01*
X189800Y34700D02*
X191400D01*
X193700D02*
X194700D01*
X209200D02*
X210500D01*
X212500D02*
X214400D01*
X189700Y34600D02*
X191300D01*
X193700D02*
X194700D01*
X209200D02*
X210500D01*
X212600D02*
X214400D01*
X189700Y34500D02*
X191300D01*
X193600D02*
X194700D01*
X209200D02*
X210500D01*
X212700D02*
X214500D01*
X189600Y34400D02*
X191200D01*
X193600D02*
X194700D01*
X209200D02*
X210600D01*
X212800D02*
X214600D01*
X189600Y34300D02*
X191100D01*
X193600D02*
X194700D01*
X209300D02*
X210600D01*
X212900D02*
X214700D01*
X189500Y34200D02*
X191000D01*
X193600D02*
X194600D01*
X209300D02*
X210600D01*
X213000D02*
X214700D01*
X189500Y34100D02*
X190900D01*
X193600D02*
X194600D01*
X209300D02*
X210600D01*
X213100D02*
X214800D01*
X189400Y34000D02*
X190900D01*
X193600D02*
X194600D01*
X209300D02*
X210600D01*
X213200D02*
X214800D01*
X189400Y33900D02*
X190800D01*
X193500D02*
X194600D01*
X209300D02*
X210700D01*
X213200D02*
X214900D01*
X189400Y33800D02*
X190700D01*
X193500D02*
X194600D01*
X209400D02*
X210700D01*
X213300D02*
X214900D01*
X189300Y33700D02*
X190700D01*
X193500D02*
X194500D01*
X209400D02*
X210700D01*
X213400D02*
X215000D01*
X189300Y33600D02*
X190600D01*
X193500D02*
X194500D01*
X209400D02*
X210700D01*
X213500D02*
X215000D01*
X189200Y33500D02*
X190600D01*
X193500D02*
X194500D01*
X209400D02*
X210700D01*
X213600D02*
X215000D01*
X189200Y33400D02*
X190500D01*
X193400D02*
X194500D01*
X209400D02*
X210800D01*
X213600D02*
X215100D01*
X189100Y33300D02*
X190400D01*
X193200D02*
X194500D01*
X209400D02*
X210800D01*
X213700D02*
X215100D01*
X189100Y33200D02*
X190400D01*
X193100D02*
X194500D01*
X209500D02*
X210800D01*
X213700D02*
X215100D01*
X189000Y33100D02*
X190300D01*
X192900D02*
X194400D01*
X209500D02*
X210800D01*
X213800D02*
X215200D01*
X189000Y33000D02*
X190300D01*
X192800D02*
X194400D01*
X209500D02*
X210800D01*
X213800D02*
X215200D01*
X188900Y32900D02*
X190200D01*
X192700D02*
X194400D01*
X209500D02*
X210800D01*
X213900D02*
X215300D01*
X188900Y32800D02*
X190100D01*
X192500D02*
X194400D01*
X209500D02*
X210800D01*
X214000D02*
X215300D01*
X188800Y32700D02*
X190100D01*
X192400D02*
X194400D01*
X209500D02*
X210800D01*
X214100D02*
X215400D01*
X188800Y32600D02*
X190000D01*
X192200D02*
X194300D01*
X209500D02*
X210800D01*
X214100D02*
X215400D01*
X188700Y32500D02*
X190000D01*
X192100D02*
X194300D01*
X209500D02*
X210900D01*
X214100D02*
X215500D01*
X188700Y32400D02*
X189900D01*
X192000D02*
X194300D01*
X209500D02*
X210900D01*
X214200D02*
X215600D01*
X188700Y32300D02*
X189900D01*
X191900D02*
X194300D01*
X209500D02*
X210900D01*
X214200D02*
X215600D01*
X188600Y32200D02*
X189800D01*
X191800D02*
X193000D01*
X193200D02*
X194300D01*
X209600D02*
X210900D01*
X214300D02*
X215600D01*
X188600Y32100D02*
X189800D01*
X191700D02*
X192900D01*
X193200D02*
X194200D01*
X209600D02*
X210900D01*
X214300D02*
X215700D01*
X188500Y32000D02*
X189800D01*
X191700D02*
X192700D01*
X193100D02*
X194200D01*
X209600D02*
X210900D01*
X214400D02*
X215700D01*
X188500Y31900D02*
X189700D01*
X191600D02*
X192600D01*
X193100D02*
X194200D01*
X209600D02*
X211200D01*
X214400D02*
X215800D01*
X188500Y31800D02*
X189700D01*
X191500D02*
X192500D01*
X193100D02*
X194200D01*
X209600D02*
X211400D01*
X214400D02*
X215800D01*
X188400Y31700D02*
X189700D01*
X191400D02*
X192400D01*
X193100D02*
X194200D01*
X209600D02*
X211700D01*
X214500D02*
X215900D01*
X188400Y31600D02*
X189600D01*
X191400D02*
X192300D01*
X193100D02*
X194200D01*
X209600D02*
X211900D01*
X214500D02*
X215900D01*
X188400Y31500D02*
X189600D01*
X191300D02*
X192200D01*
X193100D02*
X194100D01*
X209600D02*
X212100D01*
X214600D02*
X216000D01*
X188300Y31400D02*
X189500D01*
X191200D02*
X192100D01*
X193100D02*
X194100D01*
X209600D02*
X212200D01*
X214600D02*
X216000D01*
X188300Y31300D02*
X189500D01*
X191200D02*
X192100D01*
X193000D02*
X194100D01*
X209600D02*
X210900D01*
X211100D02*
X212300D01*
X214600D02*
X216100D01*
X188300Y31200D02*
X189400D01*
X191100D02*
X192000D01*
X193000D02*
X194100D01*
X209600D02*
X210900D01*
X211400D02*
X212400D01*
X214700D02*
X216100D01*
X188300Y31100D02*
X189400D01*
X191000D02*
X191900D01*
X193000D02*
X194100D01*
X209600D02*
X210900D01*
X211500D02*
X212500D01*
X214700D02*
X216200D01*
X188300Y31000D02*
X189300D01*
X191000D02*
X191900D01*
X193000D02*
X194100D01*
X209600D02*
X210900D01*
X211700D02*
X212600D01*
X214800D02*
X216200D01*
X188300Y30900D02*
X189300D01*
X190900D02*
X191800D01*
X193000D02*
X194100D01*
X209600D02*
X210900D01*
X211800D02*
X212700D01*
X214800D02*
X216200D01*
X188200Y30800D02*
X189200D01*
X190900D02*
X191700D01*
X193000D02*
X194100D01*
X209600D02*
X210900D01*
X211900D02*
X212800D01*
X214900D02*
X216300D01*
X188200Y30700D02*
X189200D01*
X190800D02*
X191700D01*
X193000D02*
X194100D01*
X209600D02*
X210900D01*
X212000D02*
X212900D01*
X214900D02*
X216300D01*
X188200Y30600D02*
X189100D01*
X190800D02*
X191600D01*
X193000D02*
X194000D01*
X209600D02*
X210900D01*
X212100D02*
X213000D01*
X215000D02*
X216300D01*
X188200Y30500D02*
X189100D01*
X190700D02*
X191600D01*
X192900D02*
X194000D01*
X209600D02*
X210900D01*
X212200D02*
X213000D01*
X215000D02*
X216400D01*
X188200Y30400D02*
X189100D01*
X190700D02*
X191500D01*
X192900D02*
X194000D01*
X209600D02*
X210900D01*
X212300D02*
X213100D01*
X215100D02*
X216400D01*
X188100Y30300D02*
X189000D01*
X190600D02*
X191500D01*
X192900D02*
X194000D01*
X209600D02*
X210900D01*
X212300D02*
X213200D01*
X215100D02*
X216500D01*
X188100Y30200D02*
X189000D01*
X190600D02*
X191400D01*
X192900D02*
X194000D01*
X209600D02*
X210900D01*
X212400D02*
X213300D01*
X215200D02*
X216500D01*
X188100Y30100D02*
X189000D01*
X190500D02*
X191400D01*
X192900D02*
X194000D01*
X209600D02*
X210900D01*
X212500D02*
X213300D01*
X215200D02*
X216500D01*
X188100Y30000D02*
X188900D01*
X190500D02*
X191300D01*
X192900D02*
X194000D01*
X209600D02*
X210900D01*
X212600D02*
X213400D01*
X215200D02*
X216600D01*
X188100Y29900D02*
X188900D01*
X190400D02*
X191300D01*
X192900D02*
X194000D01*
X209600D02*
X210900D01*
X212600D02*
X213500D01*
X215300D02*
X216600D01*
X188000Y29800D02*
X188900D01*
X190400D02*
X191200D01*
X192900D02*
X194000D01*
X209600D02*
X210900D01*
X212700D02*
X213600D01*
X215300D02*
X216600D01*
X188000Y29700D02*
X188900D01*
X190300D02*
X191200D01*
X192900D02*
X194000D01*
X209600D02*
X210900D01*
X212800D02*
X213700D01*
X215400D02*
X216700D01*
X188000Y29600D02*
X188800D01*
X190300D02*
X191100D01*
X192900D02*
X194000D01*
X209500D02*
X210900D01*
X212900D02*
X213800D01*
X215400D02*
X216700D01*
X188000Y29500D02*
X188800D01*
X190200D02*
X191100D01*
X192900D02*
X194000D01*
X209500D02*
X210900D01*
X212900D02*
X213900D01*
X215500D02*
X216700D01*
X188000Y29400D02*
X188700D01*
X190200D02*
X191000D01*
X192900D02*
X194000D01*
X209500D02*
X210900D01*
X213000D02*
X213900D01*
X215500D02*
X216800D01*
X188000Y29300D02*
X188700D01*
X190100D02*
X191000D01*
X192900D02*
X194000D01*
X209500D02*
X210900D01*
X213100D02*
X214000D01*
X215600D02*
X216800D01*
X187900Y29200D02*
X188700D01*
X190100D02*
X190900D01*
X192800D02*
X194000D01*
X209500D02*
X210800D01*
X213200D02*
X214100D01*
X215600D02*
X216800D01*
X187900Y29100D02*
X188600D01*
X190000D02*
X190900D01*
X192800D02*
X194000D01*
X209500D02*
X210800D01*
X213300D02*
X214100D01*
X215700D02*
X216800D01*
X187900Y29000D02*
X188600D01*
X190000D02*
X190800D01*
X192800D02*
X193900D01*
X209400D02*
X210800D01*
X213400D02*
X214200D01*
X215800D02*
X216900D01*
X187900Y28900D02*
X188600D01*
X189900D02*
X190800D01*
X192800D02*
X193900D01*
X209400D02*
X210800D01*
X213400D02*
X214200D01*
X215800D02*
X216900D01*
X187900Y28800D02*
X188600D01*
X189900D02*
X190700D01*
X192800D02*
X193900D01*
X209400D02*
X210800D01*
X213500D02*
X214300D01*
X215800D02*
X217000D01*
X187900Y28700D02*
X188600D01*
X189900D02*
X190700D01*
X192800D02*
X193900D01*
X209300D02*
X210700D01*
X213500D02*
X214300D01*
X215900D02*
X217000D01*
X187900Y28600D02*
X188600D01*
X189800D02*
X190600D01*
X192800D02*
X193900D01*
X209300D02*
X210700D01*
X213600D02*
X214400D01*
X215900D02*
X217000D01*
X187900Y28500D02*
X188600D01*
X189800D02*
X190600D01*
X192800D02*
X193900D01*
X209300D02*
X210700D01*
X213600D02*
X214400D01*
X215900D02*
X217000D01*
X187900Y28400D02*
X188600D01*
X189700D02*
X190500D01*
X192800D02*
X193900D01*
X209300D02*
X210700D01*
X213700D02*
X214500D01*
X215900D02*
X217000D01*
X187900Y28300D02*
X188600D01*
X189700D02*
X190500D01*
X192800D02*
X193900D01*
X209200D02*
X210600D01*
X213700D02*
X214600D01*
X215900D02*
X217000D01*
X187800Y28200D02*
X188600D01*
X189600D02*
X190500D01*
X192800D02*
X193900D01*
X209200D02*
X210600D01*
X213800D02*
X214600D01*
X216000D02*
X217000D01*
X187800Y28100D02*
X188600D01*
X189600D02*
X190400D01*
X192800D02*
X193900D01*
X209200D02*
X210600D01*
X213800D02*
X214700D01*
X216000D02*
X217100D01*
X187800Y28000D02*
X188500D01*
X189600D02*
X190400D01*
X192800D02*
X193900D01*
X209200D02*
X210500D01*
X213900D02*
X214800D01*
X216000D02*
X217100D01*
X187800Y27900D02*
X188500D01*
X189500D02*
X190300D01*
X192800D02*
X193900D01*
X209100D02*
X210500D01*
X213900D02*
X214800D01*
X216000D02*
X217100D01*
X187800Y27800D02*
X188500D01*
X189500D02*
X190300D01*
X192800D02*
X193900D01*
X209100D02*
X210500D01*
X214000D02*
X214900D01*
X216000D02*
X217100D01*
X187800Y27700D02*
X188500D01*
X189400D02*
X190300D01*
X192700D02*
X193900D01*
X209100D02*
X210500D01*
X214000D02*
X214900D01*
X216100D02*
X217100D01*
X187800Y27600D02*
X188500D01*
X189400D02*
X190200D01*
X192700D02*
X193900D01*
X209000D02*
X210400D01*
X214100D02*
X215000D01*
X216100D02*
X217100D01*
X187800Y27500D02*
X188500D01*
X189400D02*
X190200D01*
X192700D02*
X193900D01*
X209000D02*
X210400D01*
X214200D02*
X215100D01*
X216100D02*
X217200D01*
X187800Y27400D02*
X188500D01*
X189300D02*
X190100D01*
X192700D02*
X193900D01*
X209000D02*
X210400D01*
X214200D02*
X215100D01*
X216100D02*
X217200D01*
X187800Y27300D02*
X188500D01*
X189300D02*
X190100D01*
X192700D02*
X193900D01*
X209000D02*
X210300D01*
X214300D02*
X215200D01*
X216100D02*
X217200D01*
X187800Y27200D02*
X188500D01*
X189200D02*
X190000D01*
X192800D02*
X193900D01*
X208900D02*
X210300D01*
X214300D02*
X215300D01*
X216200D02*
X217200D01*
X187800Y27100D02*
X188500D01*
X189200D02*
X190000D01*
X192800D02*
X193900D01*
X208900D02*
X210300D01*
X214400D02*
X215300D01*
X216200D02*
X217200D01*
X187800Y27000D02*
X188500D01*
X189200D02*
X190000D01*
X192800D02*
X193900D01*
X208900D02*
X210300D01*
X214500D02*
X215400D01*
X216200D02*
X217200D01*
X187800Y26900D02*
X188500D01*
X189100D02*
X189900D01*
X192800D02*
X193900D01*
X208800D02*
X210200D01*
X214500D02*
X215500D01*
X216200D02*
X217200D01*
X187800Y26800D02*
X188500D01*
X189100D02*
X189900D01*
X192800D02*
X193900D01*
X208800D02*
X210200D01*
X214600D02*
X215500D01*
X216200D02*
X217200D01*
X187800Y26700D02*
X188500D01*
X189000D02*
X189800D01*
X192800D02*
X193900D01*
X208800D02*
X210200D01*
X214700D02*
X215600D01*
X216300D02*
X217200D01*
X187800Y26600D02*
X188500D01*
X189000D02*
X189800D01*
X192800D02*
X193900D01*
X208700D02*
X210100D01*
X214700D02*
X215700D01*
X216300D02*
X217200D01*
X187800Y26500D02*
X188500D01*
X188900D02*
X189700D01*
X192800D02*
X194000D01*
X208700D02*
X210100D01*
X214800D02*
X215700D01*
X216300D02*
X217200D01*
X187800Y26400D02*
X188500D01*
X188900D02*
X189700D01*
X192800D02*
X194000D01*
X208700D02*
X210100D01*
X214900D02*
X215800D01*
X216400D02*
X217200D01*
X187800Y26300D02*
X188500D01*
X188800D02*
X189600D01*
X192800D02*
X194000D01*
X208700D02*
X210000D01*
X214900D02*
X215900D01*
X216400D02*
X217200D01*
X187800Y26200D02*
X188500D01*
X188800D02*
X189600D01*
X192900D02*
X194000D01*
X208600D02*
X210000D01*
X215000D02*
X215900D01*
X216400D02*
X217200D01*
X187800Y26100D02*
X188500D01*
X188700D02*
X189500D01*
X192900D02*
X194100D01*
X208600D02*
X210000D01*
X215100D02*
X216000D01*
X216500D02*
X217200D01*
X187800Y26000D02*
X188500D01*
X188700D02*
X189500D01*
X192900D02*
X194100D01*
X208600D02*
X210000D01*
X215100D02*
X216000D01*
X216500D02*
X217200D01*
X187800Y25900D02*
X188500D01*
X188600D02*
X189400D01*
X192900D02*
X194100D01*
X208500D02*
X209900D01*
X215200D02*
X216100D01*
X216500D02*
X217200D01*
X187800Y25800D02*
X189400D01*
X192900D02*
X194100D01*
X208500D02*
X209900D01*
X215200D02*
X216100D01*
X216500D02*
X217200D01*
X187900Y25700D02*
X189300D01*
X193000D02*
X194200D01*
X208500D02*
X209900D01*
X215300D02*
X216200D01*
X216500D02*
X217200D01*
X187900Y25600D02*
X189200D01*
X193000D02*
X194200D01*
X208400D02*
X209800D01*
X215300D02*
X216300D01*
X216400D02*
X217200D01*
X187900Y25500D02*
X189200D01*
X193000D02*
X194300D01*
X208400D02*
X209800D01*
X215400D02*
X216300D01*
X216400D02*
X217200D01*
X188000Y25400D02*
X189100D01*
X193100D02*
X194300D01*
X208400D02*
X209800D01*
X215500D02*
X217200D01*
X188000Y25300D02*
X189000D01*
X193100D02*
X194300D01*
X208300D02*
X209700D01*
X215500D02*
X217200D01*
X188200Y25200D02*
X188800D01*
X193100D02*
X194400D01*
X208300D02*
X209700D01*
X215600D02*
X217200D01*
X193200Y25100D02*
X194400D01*
X208300D02*
X209700D01*
X215600D02*
X217100D01*
X193200Y25000D02*
X194500D01*
X208200D02*
X209600D01*
X215700D02*
X217000D01*
X193200Y24900D02*
X194500D01*
X208200D02*
X209600D01*
X215800D02*
X216900D01*
X193300Y24800D02*
X194500D01*
X208200D02*
X209600D01*
X215800D02*
X216800D01*
X193300Y24700D02*
X194600D01*
X208100D02*
X209500D01*
X215900D02*
X216800D01*
X193400Y24600D02*
X194600D01*
X208100D02*
X209500D01*
X216000D02*
X216600D01*
X193400Y24500D02*
X194700D01*
X208000D02*
X209400D01*
X193400Y24400D02*
X194700D01*
X208000D02*
X209400D01*
X193500Y24300D02*
X194800D01*
X207900D02*
X209400D01*
X193500Y24200D02*
X194800D01*
X207900D02*
X209300D01*
X193600Y24100D02*
X194900D01*
X207800D02*
X209300D01*
X193600Y24000D02*
X194900D01*
X207800D02*
X209200D01*
X193700Y23900D02*
X195000D01*
X207700D02*
X209200D01*
X193700Y23800D02*
X195000D01*
X207700D02*
X209100D01*
X193700Y23700D02*
X195100D01*
X207600D02*
X209100D01*
X193800Y23600D02*
X195100D01*
X207600D02*
X209000D01*
X193800Y23500D02*
X195200D01*
X207500D02*
X209000D01*
X193900Y23400D02*
X195200D01*
X207500D02*
X208900D01*
X193900Y23300D02*
X195300D01*
X207400D02*
X208900D01*
X194000Y23200D02*
X195400D01*
X207400D02*
X208800D01*
X194000Y23100D02*
X195400D01*
X207300D02*
X208800D01*
X194100Y23000D02*
X195500D01*
X207300D02*
X208800D01*
X194200Y22900D02*
X195500D01*
X207200D02*
X208700D01*
X194200Y22800D02*
X195600D01*
X207200D02*
X208700D01*
X194300Y22700D02*
X195600D01*
X207100D02*
X208600D01*
X194300Y22600D02*
X195700D01*
X207100D02*
X208600D01*
X194400Y22500D02*
X195700D01*
X207000D02*
X208500D01*
X194400Y22400D02*
X195800D01*
X207000D02*
X208500D01*
X194500Y22300D02*
X195900D01*
X206900D02*
X208400D01*
X194500Y22200D02*
X196000D01*
X206800D02*
X208400D01*
X194600Y22100D02*
X196100D01*
X206800D02*
X208300D01*
X194600Y22000D02*
X196200D01*
X206700D02*
X208200D01*
X194700Y21900D02*
X196200D01*
X206600D02*
X208200D01*
X194700Y21800D02*
X196400D01*
X206500D02*
X208100D01*
X194800Y21700D02*
X196500D01*
X206500D02*
X208100D01*
X194900Y21600D02*
X196600D01*
X206400D02*
X208000D01*
X195000Y21500D02*
X196800D01*
X198400D02*
X199800D01*
X206300D02*
X207900D01*
X195000Y21400D02*
X200500D01*
X205200D02*
X205900D01*
X206200D02*
X207900D01*
X195100Y21300D02*
X201000D01*
X205000D02*
X207800D01*
X195200Y21200D02*
X201500D01*
X204800D02*
X207700D01*
X195300Y21100D02*
X202100D01*
X204500D02*
X207600D01*
X195400Y21000D02*
X202300D01*
X204000D02*
X207500D01*
X195400Y20900D02*
X207500D01*
X195200Y20800D02*
X196700D01*
X196800D02*
X207400D01*
X195100Y20700D02*
X196700D01*
X196900D02*
X207300D01*
X194900Y20600D02*
X196700D01*
X196900D02*
X197900D01*
X198400D02*
X207200D01*
X194700Y20500D02*
X196400D01*
X196800D02*
X197900D01*
X200000D02*
X207100D01*
X194600Y20400D02*
X196100D01*
X196700D02*
X197800D01*
X200500D02*
X206900D01*
X194500Y20300D02*
X195900D01*
X196700D02*
X197700D01*
X200900D02*
X206800D01*
X194400Y20200D02*
X195800D01*
X196700D02*
X197700D01*
X201700D02*
X204900D01*
X205000D02*
X206600D01*
X194300Y20100D02*
X195700D01*
X196600D02*
X197600D01*
X201900D02*
X204600D01*
X205000D02*
X206200D01*
X194300Y20000D02*
X195500D01*
X196600D02*
X197500D01*
X202500D02*
X203200D01*
X203800D02*
X204600D01*
X205000D02*
X206100D01*
X194200Y19900D02*
X195400D01*
X196600D02*
X197600D01*
X203700D02*
X204500D01*
X205000D02*
X206100D01*
X194100Y19800D02*
X195200D01*
X196600D02*
X197700D01*
X203700D02*
X204500D01*
X205000D02*
X206100D01*
X194000Y19700D02*
X195100D01*
X196700D02*
X197800D01*
X203600D02*
X204400D01*
X205000D02*
X206100D01*
X194000Y19600D02*
X195000D01*
X196700D02*
X197800D01*
X203600D02*
X204400D01*
X205000D02*
X206100D01*
X193900Y19500D02*
X194900D01*
X196700D02*
X198000D01*
X203600D02*
X204400D01*
X205100D02*
X206100D01*
X193900Y19400D02*
X194800D01*
X196800D02*
X198100D01*
X203500D02*
X204400D01*
X205100D02*
X206100D01*
X193800Y19300D02*
X194800D01*
X196900D02*
X198200D01*
X203500D02*
X204400D01*
X205100D02*
X206100D01*
X193700Y19200D02*
X194700D01*
X196900D02*
X198300D01*
X203500D02*
X204300D01*
X205100D02*
X206100D01*
X193700Y19100D02*
X194600D01*
X195000D02*
X195400D01*
X197000D02*
X198400D01*
X203500D02*
X204300D01*
X205100D02*
X206100D01*
X193600Y19000D02*
X194600D01*
X194700D02*
X195500D01*
X197100D02*
X198400D01*
X203500D02*
X204300D01*
X205100D02*
X206100D01*
X193600Y18900D02*
X195700D01*
X197200D02*
X198500D01*
X203400D02*
X204300D01*
X205100D02*
X206200D01*
X193500Y18800D02*
X195700D01*
X197400D02*
X198500D01*
X203400D02*
X204300D01*
X205100D02*
X206300D01*
X193500Y18700D02*
X195700D01*
X197500D02*
X198600D01*
X203200D02*
X204300D01*
X205200D02*
X206400D01*
X193500Y18600D02*
X195700D01*
X196500D02*
X196900D01*
X197600D02*
X198600D01*
X203100D02*
X204300D01*
X205200D02*
X206500D01*
X193500Y18500D02*
X195700D01*
X196300D02*
X197000D01*
X197700D02*
X198600D01*
X203000D02*
X204200D01*
X205200D02*
X206600D01*
X193500Y18400D02*
X195700D01*
X196300D02*
X197100D01*
X197600D02*
X198600D01*
X202900D02*
X204200D01*
X205300D02*
X206800D01*
X193600Y18300D02*
X195700D01*
X196200D02*
X197100D01*
X197500D02*
X198600D01*
X202800D02*
X204100D01*
X205400D02*
X206900D01*
X193700Y18200D02*
X195700D01*
X196200D02*
X198500D01*
X202700D02*
X204100D01*
X205400D02*
X207000D01*
X193800Y18100D02*
X195700D01*
X196200D02*
X198500D01*
X202700D02*
X203900D01*
X205500D02*
X207100D01*
X194900Y18000D02*
X195700D01*
X196200D02*
X198500D01*
X202600D02*
X203700D01*
X205600D02*
X207100D01*
X194900Y17900D02*
X195700D01*
X196100D02*
X198400D01*
X202600D02*
X203600D01*
X205700D02*
X207200D01*
X194900Y17800D02*
X195700D01*
X196100D02*
X198300D01*
X202500D02*
X203500D01*
X205800D02*
X207300D01*
X194900Y17700D02*
X195700D01*
X196100D02*
X198200D01*
X202500D02*
X203500D01*
X206000D02*
X207300D01*
X194900Y17600D02*
X195700D01*
X196000D02*
X198000D01*
X202400D02*
X203400D01*
X203500D02*
X204200D01*
X206100D02*
X207300D01*
X194900Y17500D02*
X195700D01*
X196000D02*
X197700D01*
X202400D02*
X204400D01*
X206200D02*
X207400D01*
X194900Y17400D02*
X195700D01*
X195900D02*
X196800D01*
X202400D02*
X204500D01*
X205400D02*
X205700D01*
X206300D02*
X207400D01*
X194900Y17300D02*
X196800D01*
X202400D02*
X204500D01*
X205100D02*
X206000D01*
X206400D02*
X207400D01*
X194900Y17200D02*
X196800D01*
X202400D02*
X204500D01*
X205000D02*
X206200D01*
X206500D02*
X207400D01*
X194900Y17100D02*
X196700D01*
X202400D02*
X204600D01*
X204900D02*
X206300D01*
X206400D02*
X207400D01*
X194900Y17000D02*
X196700D01*
X202400D02*
X204600D01*
X204800D02*
X207400D01*
X194900Y16900D02*
X196600D01*
X202500D02*
X204600D01*
X204800D02*
X207300D01*
X194900Y16800D02*
X196500D01*
X202600D02*
X204600D01*
X204700D02*
X207300D01*
X195000Y16700D02*
X196400D01*
X202800D02*
X204600D01*
X204700D02*
X207300D01*
X195000Y16600D02*
X196200D01*
X203000D02*
X203500D01*
X203700D02*
X207200D01*
X195200Y16500D02*
X196000D01*
X203700D02*
X207100D01*
X203800Y16400D02*
X205600D01*
X205700D02*
X207000D01*
X203800Y16300D02*
X205600D01*
X205900D02*
X206900D01*
X203900Y16200D02*
X205500D01*
X206100D02*
X206600D01*
X203900Y16100D02*
X205500D01*
X203900Y16000D02*
X205400D01*
X204000Y15900D02*
X205400D01*
X204100Y15800D02*
X205300D01*
X204200Y15700D02*
X205300D01*
X204300Y15600D02*
X205200D01*
X204400Y15500D02*
X205100D01*
D17*
X349134Y203504D02*
X382598D01*
X388110Y209016D01*
Y235984D01*
X382598Y241496D02*
X388110Y235984D01*
X349134Y241496D02*
X382598D01*
X349134Y203504D02*
Y212185D01*
Y232815D02*
Y241496D01*
Y36504D02*
X382598D01*
X388110Y42016D01*
Y68984D01*
X382598Y74496D02*
X388110Y68984D01*
X349134Y74496D02*
X382598D01*
X349134Y36504D02*
Y45185D01*
Y65815D02*
Y74496D01*
X161450Y33250D02*
X162550D01*
X161450D02*
X162000Y32700D01*
X162550Y33250D01*
X82450Y225250D02*
X83000Y225800D01*
X83550Y225250D01*
X82450D02*
X83550D01*
X51450Y230750D02*
X52000Y231300D01*
X52550Y230750D01*
X51450D02*
X52550D01*
X37450D02*
X38550D01*
X38000Y231300D02*
X38550Y230750D01*
X37450D02*
X38000Y231300D01*
D18*
X142902Y234075D02*
X148807D01*
X142902Y245492D02*
X148807D01*
D19*
X113811Y146457D02*
Y153543D01*
X115457Y192689D02*
X122543D01*
X103811Y83457D02*
Y90543D01*
X127457Y46811D02*
X134543D01*
D20*
X158300Y207965D02*
X161632Y204633D01*
X158300D02*
X161632Y207965D01*
X158300Y206299D02*
X161632D01*
X159966Y204633D02*
Y207965D01*
D21*
X246999Y268198D02*
X245799Y269398D01*
X243400D01*
X242200Y268198D01*
Y263400D01*
X243400Y262200D01*
X245799D01*
X246999Y263400D01*
X249398Y269398D02*
Y262200D01*
Y265799D01*
X250597Y266999D01*
X252996D01*
X254196Y265799D01*
Y262200D01*
X257795Y266999D02*
X260194D01*
X261394Y265799D01*
Y262200D01*
X257795D01*
X256595Y263400D01*
X257795Y264599D01*
X261394D01*
X263793Y262200D02*
Y266999D01*
X267392D01*
X268591Y265799D01*
Y262200D01*
X270991D02*
Y266999D01*
X274589D01*
X275789Y265799D01*
Y262200D01*
X281787D02*
X279388D01*
X278188Y263400D01*
Y265799D01*
X279388Y266999D01*
X281787D01*
X282987Y265799D01*
Y264599D01*
X278188D01*
X285386Y262200D02*
X287785D01*
X286586D01*
Y269398D01*
X285386D01*
X298582Y262200D02*
Y266999D01*
X300981Y269398D01*
X303380Y266999D01*
Y262200D01*
Y265799D01*
X298582D01*
X246999Y101198D02*
X245799Y102398D01*
X243400D01*
X242200Y101198D01*
Y96400D01*
X243400Y95200D01*
X245799D01*
X246999Y96400D01*
X249398Y102398D02*
Y95200D01*
Y98799D01*
X250597Y99998D01*
X252996D01*
X254196Y98799D01*
Y95200D01*
X257795Y99998D02*
X260194D01*
X261394Y98799D01*
Y95200D01*
X257795D01*
X256595Y96400D01*
X257795Y97599D01*
X261394D01*
X263793Y95200D02*
Y99998D01*
X267392D01*
X268591Y98799D01*
Y95200D01*
X270991D02*
Y99998D01*
X274589D01*
X275789Y98799D01*
Y95200D01*
X281787D02*
X279388D01*
X278188Y96400D01*
Y98799D01*
X279388Y99998D01*
X281787D01*
X282987Y98799D01*
Y97599D01*
X278188D01*
X285386Y95200D02*
X287785D01*
X286586D01*
Y102398D01*
X285386D01*
X298582D02*
Y95200D01*
X302181D01*
X303380Y96400D01*
Y97599D01*
X302181Y98799D01*
X298582D01*
X302181D01*
X303380Y99998D01*
Y101198D01*
X302181Y102398D01*
X298582D01*
D22*
X226999Y155799D02*
X226199Y156598D01*
X224600D01*
X223800Y155799D01*
Y154999D01*
X224600Y154199D01*
X226199D01*
X226999Y153400D01*
Y152600D01*
X226199Y151800D01*
X224600D01*
X223800Y152600D01*
X230998Y151800D02*
X229398D01*
X228598Y152600D01*
Y154199D01*
X229398Y154999D01*
X230998D01*
X231797Y154199D01*
Y153400D01*
X228598D01*
X233397Y151800D02*
Y154999D01*
X235796D01*
X236596Y154199D01*
Y151800D01*
X238195D02*
X240595D01*
X241394Y152600D01*
X240595Y153400D01*
X238995D01*
X238195Y154199D01*
X238995Y154999D01*
X241394D01*
X245393Y151800D02*
X243794D01*
X242994Y152600D01*
Y154199D01*
X243794Y154999D01*
X245393D01*
X246193Y154199D01*
Y153400D01*
X242994D01*
X252591Y156598D02*
Y151800D01*
X254990D01*
X255790Y152600D01*
Y153400D01*
X254990Y154199D01*
X252591D01*
X254990D01*
X255790Y154999D01*
Y155799D01*
X254990Y156598D01*
X252591D01*
X247999Y201799D02*
X247199Y202599D01*
X245600D01*
X244800Y201799D01*
Y200999D01*
X245600Y200199D01*
X247199D01*
X247999Y199399D01*
Y198600D01*
X247199Y197800D01*
X245600D01*
X244800Y198600D01*
X251998Y197800D02*
X250398D01*
X249599Y198600D01*
Y200199D01*
X250398Y200999D01*
X251998D01*
X252797Y200199D01*
Y199399D01*
X249599D01*
X254397Y197800D02*
Y200999D01*
X256796D01*
X257596Y200199D01*
Y197800D01*
X259195D02*
X261595D01*
X262394Y198600D01*
X261595Y199399D01*
X259995D01*
X259195Y200199D01*
X259995Y200999D01*
X262394D01*
X266393Y197800D02*
X264793D01*
X263994Y198600D01*
Y200199D01*
X264793Y200999D01*
X266393D01*
X267193Y200199D01*
Y199399D01*
X263994D01*
X273591Y197800D02*
Y200999D01*
X275190Y202599D01*
X276790Y200999D01*
Y197800D01*
Y200199D01*
X273591D01*
X356200Y103800D02*
Y108598D01*
X357800Y106999D01*
X359399Y108598D01*
Y103800D01*
X364197Y107799D02*
X363398Y108598D01*
X361798D01*
X360999Y107799D01*
Y104600D01*
X361798Y103800D01*
X363398D01*
X364197Y104600D01*
Y106199D01*
X362598D01*
X365797Y103800D02*
Y108598D01*
X368996Y103800D01*
Y108598D01*
X370595D02*
Y103800D01*
X372995D01*
X373794Y104600D01*
Y107799D01*
X372995Y108598D01*
X370595D01*
X356200Y168800D02*
Y173599D01*
X357800Y171999D01*
X359399Y173599D01*
Y168800D01*
X364197Y172799D02*
X363398Y173599D01*
X361798D01*
X360999Y172799D01*
Y169600D01*
X361798Y168800D01*
X363398D01*
X364197Y169600D01*
Y171199D01*
X362598D01*
X365797Y168800D02*
Y173599D01*
X368996Y168800D01*
Y173599D01*
X370595D02*
Y168800D01*
X372995D01*
X373794Y169600D01*
Y172799D01*
X372995Y173599D01*
X370595D01*
X356200Y143598D02*
Y140400D01*
X357800Y138800D01*
X359399Y140400D01*
Y143598D01*
X360999D02*
Y138800D01*
X363398D01*
X364197Y139600D01*
Y140400D01*
Y141199D01*
X363398Y141999D01*
X360999D01*
X366597D02*
X368196D01*
X368996Y141199D01*
Y138800D01*
X366597D01*
X365797Y139600D01*
X366597Y140400D01*
X368996D01*
X371395Y142799D02*
Y141999D01*
X370595D01*
X372195D01*
X371395D01*
Y139600D01*
X372195Y138800D01*
X326200Y142799D02*
X327000Y143598D01*
X328599D01*
X329399Y142799D01*
Y141999D01*
X328599Y141199D01*
X327800D01*
X328599D01*
X329399Y140400D01*
Y139600D01*
X328599Y138800D01*
X327000D01*
X326200Y139600D01*
X330998Y143598D02*
Y140400D01*
X332598Y138800D01*
X334197Y140400D01*
Y143598D01*
X335797Y142799D02*
X336597Y143598D01*
X338196D01*
X338996Y142799D01*
Y141999D01*
X338196Y141199D01*
X337396D01*
X338196D01*
X338996Y140400D01*
Y139600D01*
X338196Y138800D01*
X336597D01*
X335797Y139600D01*
X340595Y138800D02*
Y141999D01*
X342195Y143598D01*
X343794Y141999D01*
Y138800D01*
Y141199D01*
X340595D01*
X326200Y108598D02*
Y103800D01*
X328599D01*
X329399Y104600D01*
Y107799D01*
X328599Y108598D01*
X326200D01*
X334197Y107799D02*
X333398Y108598D01*
X331798D01*
X330998Y107799D01*
Y104600D01*
X331798Y103800D01*
X333398D01*
X334197Y104600D01*
Y106199D01*
X332598D01*
X335797Y103800D02*
Y108598D01*
X338996Y103800D01*
Y108598D01*
X340595D02*
Y103800D01*
X342995D01*
X343794Y104600D01*
Y107799D01*
X342995Y108598D01*
X340595D01*
X75800Y72598D02*
Y67800D01*
X78199D01*
X78999Y68600D01*
Y71799D01*
X78199Y72598D01*
X75800D01*
X83797Y71799D02*
X82998Y72598D01*
X81398D01*
X80598Y71799D01*
Y68600D01*
X81398Y67800D01*
X82998D01*
X83797Y68600D01*
Y70199D01*
X82198D01*
X85397Y67800D02*
Y72598D01*
X88596Y67800D01*
Y72598D01*
X90195D02*
Y67800D01*
X92595D01*
X93394Y68600D01*
Y71799D01*
X92595Y72598D01*
X90195D01*
X326200Y173599D02*
Y168800D01*
X328599D01*
X329399Y169600D01*
Y172799D01*
X328599Y173599D01*
X326200D01*
X334197Y172799D02*
X333398Y173599D01*
X331798D01*
X330998Y172799D01*
Y169600D01*
X331798Y168800D01*
X333398D01*
X334197Y169600D01*
Y171199D01*
X332598D01*
X335797Y168800D02*
Y173599D01*
X338996Y168800D01*
Y173599D01*
X340595D02*
Y168800D01*
X342995D01*
X343794Y169600D01*
Y172799D01*
X342995Y173599D01*
X340595D01*
X196400Y251998D02*
Y247200D01*
X198799D01*
X199599Y248000D01*
Y251199D01*
X198799Y251998D01*
X196400D01*
X204397Y251199D02*
X203598Y251998D01*
X201998D01*
X201199Y251199D01*
Y248000D01*
X201998Y247200D01*
X203598D01*
X204397Y248000D01*
Y249599D01*
X202798D01*
X205997Y247200D02*
Y251998D01*
X209196Y247200D01*
Y251998D01*
X210795D02*
Y247200D01*
X213195D01*
X213994Y248000D01*
Y251199D01*
X213195Y251998D01*
X210795D01*
X67602Y257700D02*
X72400D01*
Y260099D01*
X71600Y260899D01*
X68401D01*
X67602Y260099D01*
Y257700D01*
X68401Y265697D02*
X67602Y264898D01*
Y263298D01*
X68401Y262498D01*
X71600D01*
X72400Y263298D01*
Y264898D01*
X71600Y265697D01*
X70001D01*
Y264098D01*
X72400Y267297D02*
X67602D01*
X72400Y270496D01*
X67602D01*
Y272095D02*
X72400D01*
Y274495D01*
X71600Y275294D01*
X68401D01*
X67602Y274495D01*
Y272095D01*
M02*
