M48
;Layer_Color=9474304
;FILE_FORMAT=2:4
INCH,TZ
;TYPE=PLATED
T1F00S00C0.0120
T2F00S00C0.0280
T3F00S00C0.0354
T4F00S00C0.0400
T5F00S00C0.0421
T6F00S00C0.0600
T7F00S00C0.0630
T8F00S00C0.0650
T9F00S00C0.1150
;TYPE=NON_PLATED
T10F00S00C0.0550
T11F00S00C0.1201
%
T01
X8600Y1500
X16187Y2220
X4000Y1500
X3900Y5050
X4950Y4400
X3950Y7850
X4000Y9550
X5550Y9600
X6300Y9450
X6800
Y8150
X6400
Y7450
X6800
Y12450
X6450Y12800
X5650Y12750
X5450Y11350
X4000Y12150
X3800Y14050
Y16700
X1300Y17000
Y13100
Y12100
Y8300
Y7400
Y3200
X7650Y4400
X9400Y8350
Y9050
X10250Y8700
X14200Y7700
X13430Y3310
X12770
X13100Y2450
X13500Y14300
X14000
X14800Y14800
X16050Y15400
X16350Y16140
X17282Y17410
X18520Y16400
X19380Y16590
Y16990
X19880
Y16590
X19100Y15850
X18370Y14850
X20220Y14277
X20800Y14300
X20620Y15240
X21420Y16330
X22800Y17000
X22578Y11722
X14300Y16950
X14600Y17660
X11250Y15000
X10400Y15350
Y14650
X8210Y14490
X23210Y12090
X25100Y10200
X24700Y8600
X28800Y10200
X30900Y9700
X31450Y7300
X31680Y5500
X32050Y5750
X32450
Y5250
X32050
X32820Y5500
X33600Y4600
X34000
X34400
Y21300
X34000
X33600
X32820Y22200
X32450Y21950
X32050
Y22450
X32450
X31680Y22200
X31000Y21100
X31450Y24000
X27100Y20600
X25800Y20000
X24800Y19000
X23800Y18000
X18200Y18800
X18500Y19100
X17550
X17900Y19450
X16950Y19350
X17050Y18850
X15400Y18550
X14330Y19000
X13350Y19250
X12250Y20700
X11550
X15100Y20550
Y20150
X15600
Y20550
X16600Y21850
X17500Y21650
X17850Y21400
X18250
Y21900
X17850
X18600Y21650
X18509Y21037
X18200Y20750
X18900Y20600
X19100Y20100
X13150Y23800
Y24200
X8550Y23250
X5500Y23800
X4100
X4500Y21700
X5900Y20800
X5100Y19500
X6400Y18400
X1500Y19500
T02
X10450Y3750
X11250
X12050
X10926Y20124
X10126
X9326
T03
X20613Y18191
Y19191
Y20191
Y21191
T04
X10813Y26591
X11813
X12813
X13813
X15413
X16413
X17413
X18413
T05
X35299Y4959
Y6141
Y21659
Y22841
T06
X25600Y2150
X32600
X36013Y18841
X29013
T07
X8500Y6000
X21600Y15400
X33500Y16000
Y13000
X36500
Y16000
Y9500
X33500
X23700Y20000
X20500Y24000
X7000Y25000
T08
X9201Y11580
X10760
X12319
X13878
T09
X35413Y1791
X1600Y1600
X35413Y26591
X1600Y26400
T10
X14469Y10596
T11
X37000Y5550
Y22250
M30
