G04*
G04 #@! TF.GenerationSoftware,Altium Limited,Altium Designer,19.1.5 (86)*
G04*
G04 Layer_Color=65535*
%FSLAX25Y25*%
%MOIN*%
G70*
G01*
G75*
%ADD10C,0.00984*%
%ADD11C,0.00600*%
%ADD12C,0.01000*%
%ADD13C,0.00787*%
%ADD14C,0.00750*%
%ADD15C,0.01200*%
D10*
X70965Y60453D02*
X70226Y60879D01*
Y60027D01*
X70965Y60453D01*
D11*
X159505Y50012D02*
X158905D01*
X159505D01*
X111505D02*
X110906D01*
X111505D01*
D12*
X31400Y28600D02*
X31800D01*
X30500Y30000D02*
X32500D01*
X29500Y31500D02*
X33500D01*
X9400Y28600D02*
X9800D01*
X8500Y30000D02*
X10500D01*
X7500Y31500D02*
X11500D01*
Y115673D02*
X15500D01*
X12500Y114173D02*
X14500D01*
X13400Y112773D02*
X13800D01*
X59614Y115673D02*
X63614D01*
X60614Y114173D02*
X62614D01*
X61514Y112773D02*
X61914D01*
X216700Y31700D02*
X220700D01*
X217700Y30200D02*
X219700D01*
X218600Y28800D02*
X219000D01*
X194900Y31700D02*
X198900D01*
X195900Y30200D02*
X197900D01*
X196800Y28800D02*
X197200D01*
X28322Y56441D02*
X32322D01*
X29322Y54941D02*
X31322D01*
X30222Y53541D02*
X30622D01*
X27600Y77600D02*
X31600D01*
X28600Y76100D02*
X30600D01*
X29500Y74700D02*
X29900D01*
X28422Y99200D02*
X32422D01*
X29422Y97700D02*
X31422D01*
X30322Y96300D02*
X30722D01*
X141747Y83100D02*
X142147D01*
X140847Y84500D02*
X142847D01*
X139847Y86000D02*
X143847D01*
X56201Y106102D02*
Y143898D01*
X18799D02*
X56201D01*
X18799Y106102D02*
Y143898D01*
Y106102D02*
X56201D01*
X191937Y54605D02*
Y57754D01*
X190559Y54605D02*
X191937D01*
X184063D02*
Y57754D01*
Y54605D02*
X185441D01*
X98000Y85298D02*
X99999D01*
X99000D01*
Y91296D01*
X98000Y90296D01*
X106997Y85298D02*
X102998D01*
X106997Y89296D01*
Y90296D01*
X105997Y91296D01*
X103998D01*
X102998Y90296D01*
X108996Y91296D02*
Y87297D01*
X110996Y85298D01*
X112995Y87297D01*
Y91296D01*
X98000Y81698D02*
X99999D01*
X99000D01*
Y75700D01*
X98000D01*
X99999D01*
X102998D02*
Y79699D01*
X105997D01*
X106997Y78699D01*
Y75700D01*
X73000Y137098D02*
X74999D01*
X74000D01*
Y143096D01*
X73000Y142096D01*
X81997Y137098D02*
X77998D01*
X81997Y141096D01*
Y142096D01*
X80997Y143096D01*
X78998D01*
X77998Y142096D01*
X83996Y143096D02*
Y139097D01*
X85996Y137098D01*
X87995Y139097D01*
Y143096D01*
X73000Y133498D02*
X74999D01*
X74000D01*
Y127500D01*
X73000D01*
X74999D01*
X77998D02*
Y131499D01*
X80997D01*
X81997Y130499D01*
Y127500D01*
X28600Y43960D02*
X30599D01*
X29600D01*
Y49958D01*
X28600Y48958D01*
X37597Y43960D02*
X33598D01*
X37597Y47959D01*
Y48958D01*
X36597Y49958D01*
X34598D01*
X33598Y48958D01*
X39596Y49958D02*
Y45959D01*
X41596Y43960D01*
X43595Y45959D01*
Y49958D01*
X31599Y40360D02*
X29600D01*
X28600Y39361D01*
Y35362D01*
X29600Y34362D01*
X31599D01*
X32599Y35362D01*
Y39361D01*
X31599Y40360D01*
X34598Y38361D02*
Y35362D01*
X35598Y34362D01*
X38597D01*
Y38361D01*
X41596Y39361D02*
Y38361D01*
X40596D01*
X42595D01*
X41596D01*
Y35362D01*
X42595Y34362D01*
X137845Y92998D02*
X136846Y93998D01*
X134846D01*
X133847Y92998D01*
Y89000D01*
X134846Y88000D01*
X136846D01*
X137845Y89000D01*
Y90999D01*
X135846D01*
X139845Y88000D02*
Y93998D01*
X143843Y88000D01*
Y93998D01*
X145843D02*
Y88000D01*
X148842D01*
X149841Y89000D01*
Y92998D01*
X148842Y93998D01*
X145843D01*
X140002Y28500D02*
X146000D01*
Y32499D01*
X141002Y38497D02*
X140002Y37497D01*
Y35498D01*
X141002Y34498D01*
X142001D01*
X143001Y35498D01*
Y37497D01*
X144001Y38497D01*
X145000D01*
X146000Y37497D01*
Y35498D01*
X145000Y34498D01*
X141002Y50493D02*
X140002Y49493D01*
Y47494D01*
X141002Y46494D01*
X145000D01*
X146000Y47494D01*
Y49493D01*
X145000Y50493D01*
X146000Y52492D02*
X142001D01*
X140002Y54492D01*
X142001Y56491D01*
X146000D01*
X143001D01*
Y52492D01*
X146000Y58490D02*
X140002D01*
X146000Y62489D01*
X140002D01*
X128002Y28638D02*
X134000D01*
Y32636D01*
X129002Y38635D02*
X128002Y37635D01*
Y35636D01*
X129002Y34636D01*
X130001D01*
X131001Y35636D01*
Y37635D01*
X132001Y38635D01*
X133000D01*
X134000Y37635D01*
Y35636D01*
X133000Y34636D01*
X134000Y46632D02*
X128002D01*
Y49631D01*
X129002Y50631D01*
X131001D01*
X132001Y49631D01*
Y46632D01*
Y48631D02*
X134000Y50631D01*
X128002Y52630D02*
Y56629D01*
Y54629D01*
X134000D01*
X128002Y58628D02*
X134000Y62627D01*
X128002D02*
X134000Y58628D01*
X96000Y29000D02*
X90002D01*
Y31999D01*
X91002Y32999D01*
X93001D01*
X94001Y31999D01*
Y29000D01*
Y30999D02*
X96000Y32999D01*
Y34998D02*
X90002D01*
X94001D02*
X92001Y37997D01*
X94001Y34998D02*
X96000Y37997D01*
X91002Y41996D02*
X92001D01*
Y40996D01*
Y42996D01*
Y41996D01*
X95000D01*
X96000Y42996D01*
X91002Y55991D02*
X90002Y54992D01*
Y52992D01*
X91002Y51993D01*
X95000D01*
X96000Y52992D01*
Y54992D01*
X95000Y55991D01*
X96000Y57991D02*
X92001D01*
X90002Y59990D01*
X92001Y61989D01*
X96000D01*
X93001D01*
Y57991D01*
X96000Y63989D02*
X90002D01*
X96000Y67987D01*
X90002D01*
X84000Y28000D02*
X78002D01*
Y30999D01*
X79002Y31999D01*
X81001D01*
X82001Y30999D01*
Y28000D01*
Y29999D02*
X84000Y31999D01*
Y33998D02*
X78002D01*
X82001D02*
X80001Y36997D01*
X82001Y33998D02*
X84000Y36997D01*
X79002Y40996D02*
X80001D01*
Y39996D01*
Y41995D01*
Y40996D01*
X83000D01*
X84000Y41995D01*
Y50993D02*
X78002D01*
Y53992D01*
X79002Y54991D01*
X81001D01*
X82001Y53992D01*
Y50993D01*
Y52992D02*
X84000Y54991D01*
X78002Y56991D02*
Y60989D01*
Y58990D01*
X84000D01*
X78002Y62989D02*
X84000Y66987D01*
X78002D02*
X84000Y62989D01*
X172002Y6500D02*
Y8499D01*
Y7500D01*
X178000D01*
Y6500D01*
Y8499D01*
X179999Y13498D02*
Y14497D01*
X179000Y15497D01*
X174001D01*
Y12498D01*
X175001Y11498D01*
X177000D01*
X178000Y12498D01*
Y15497D01*
Y17496D02*
X174001D01*
Y20495D01*
X175001Y21495D01*
X178000D01*
X173002Y33491D02*
X172002Y32492D01*
Y30492D01*
X173002Y29493D01*
X177000D01*
X178000Y30492D01*
Y32492D01*
X177000Y33491D01*
X173002Y36490D02*
X174001D01*
Y35491D01*
Y37490D01*
Y36490D01*
X177000D01*
X178000Y37490D01*
X174001Y40489D02*
X178000D01*
X176001D01*
X175001Y41489D01*
X174001Y42488D01*
Y43488D01*
X178000Y46487D02*
Y48486D01*
Y47487D01*
X172002D01*
Y46487D01*
X229602Y3800D02*
Y5799D01*
Y4800D01*
X235600D01*
Y3800D01*
Y5799D01*
X237599Y10798D02*
Y11797D01*
X236600Y12797D01*
X231601D01*
Y9798D01*
X232601Y8798D01*
X234600D01*
X235600Y9798D01*
Y12797D01*
Y14796D02*
X231601D01*
Y17796D01*
X232601Y18795D01*
X235600D01*
Y26793D02*
X229602D01*
Y29792D01*
X230602Y30791D01*
X232601D01*
X233601Y29792D01*
Y26793D01*
X231601Y32791D02*
X234600D01*
X235600Y33790D01*
X234600Y34790D01*
X235600Y35790D01*
X234600Y36789D01*
X231601D01*
Y38789D02*
X235600D01*
X233601D01*
X232601Y39788D01*
X231601Y40788D01*
Y41788D01*
X188558Y67511D02*
Y71509D01*
X187558Y72509D01*
X185559D01*
X184559Y71509D01*
Y67511D01*
X185559Y66511D01*
X187558D01*
X186558Y68510D02*
X188558Y66511D01*
X187558D02*
X188558Y67511D01*
X190557Y66511D02*
X192557D01*
X191557D01*
Y72509D01*
X190557Y71509D01*
X113002Y44000D02*
X118000D01*
X119000Y45000D01*
Y46999D01*
X118000Y47999D01*
X113002D01*
X114002Y49998D02*
X113002Y50998D01*
Y52997D01*
X114002Y53997D01*
X115001D01*
X116001Y52997D01*
Y51997D01*
Y52997D01*
X117001Y53997D01*
X118000D01*
X119000Y52997D01*
Y50998D01*
X118000Y49998D01*
X40500Y93998D02*
Y89000D01*
X41500Y88000D01*
X43499D01*
X44499Y89000D01*
Y93998D01*
X50497Y88000D02*
X46498D01*
X50497Y91999D01*
Y92998D01*
X49497Y93998D01*
X47498D01*
X46498Y92998D01*
X161000Y47498D02*
Y42500D01*
X162000Y41500D01*
X163999D01*
X164999Y42500D01*
Y47498D01*
X166998Y41500D02*
X168997D01*
X167998D01*
Y47498D01*
X166998Y46498D01*
X114000Y28500D02*
Y34498D01*
X116999D01*
X117999Y33498D01*
Y31499D01*
X116999Y30499D01*
X114000D01*
X115999D02*
X117999Y28500D01*
X122997D02*
Y34498D01*
X119998Y31499D01*
X123997D01*
X63614Y51500D02*
Y57498D01*
X66613D01*
X67613Y56498D01*
Y54499D01*
X66613Y53499D01*
X63614D01*
X65614D02*
X67613Y51500D01*
X69612Y56498D02*
X70612Y57498D01*
X72611D01*
X73611Y56498D01*
Y55499D01*
X72611Y54499D01*
X71612D01*
X72611D01*
X73611Y53499D01*
Y52500D01*
X72611Y51500D01*
X70612D01*
X69612Y52500D01*
X50000Y39000D02*
Y44998D01*
X52999D01*
X53999Y43998D01*
Y41999D01*
X52999Y40999D01*
X50000D01*
X51999D02*
X53999Y39000D01*
X59997D02*
X55998D01*
X59997Y42999D01*
Y43998D01*
X58997Y44998D01*
X56998D01*
X55998Y43998D01*
X160000Y29000D02*
Y34998D01*
X162999D01*
X163999Y33998D01*
Y31999D01*
X162999Y30999D01*
X160000D01*
X161999D02*
X163999Y29000D01*
X165998D02*
X167997D01*
X166998D01*
Y34998D01*
X165998Y33998D01*
X102999Y65498D02*
X101999Y66498D01*
X100000D01*
X99000Y65498D01*
Y61500D01*
X100000Y60500D01*
X101999D01*
X102999Y61500D01*
X108997Y60500D02*
X104998D01*
X108997Y64499D01*
Y65498D01*
X107997Y66498D01*
X105998D01*
X104998Y65498D01*
X152999D02*
X151999Y66498D01*
X150000D01*
X149000Y65498D01*
Y61500D01*
X150000Y60500D01*
X151999D01*
X152999Y61500D01*
X154998Y60500D02*
X156997D01*
X155998D01*
Y66498D01*
X154998Y65498D01*
D13*
X46500Y3000D02*
Y5000D01*
X42500Y3000D02*
X46500D01*
X26500D02*
X42500D01*
X46500Y4000D02*
Y27000D01*
X26500Y23000D02*
X46500D01*
X26500Y27000D02*
X46500D01*
X26500Y3000D02*
Y27000D01*
X24500Y3000D02*
Y5000D01*
X20500Y3000D02*
X24500D01*
X4500D02*
X20500D01*
X24500Y4000D02*
Y27000D01*
X4500Y23000D02*
X24500D01*
X4500Y27000D02*
X24500D01*
X4500Y3000D02*
Y27000D01*
X2500Y82500D02*
X4500D01*
X2500D02*
Y86500D01*
Y102500D01*
X3500Y82500D02*
X26500D01*
X22500D02*
Y102500D01*
X26500Y82500D02*
Y102500D01*
X2500D02*
X26500D01*
X92000Y2500D02*
Y26500D01*
X72000Y2500D02*
X92000D01*
X72000Y6500D02*
X92000D01*
X72000Y2500D02*
Y25500D01*
X76000Y26500D02*
X92000D01*
X72000D02*
X76000D01*
X72000Y24500D02*
Y26500D01*
X223700Y3500D02*
Y27500D01*
X203700Y3500D02*
X223700D01*
X203700Y7500D02*
X223700D01*
X203700Y3500D02*
Y26500D01*
X207700Y27500D02*
X223700D01*
X203700D02*
X207700D01*
X203700Y25500D02*
Y27500D01*
X2500Y81000D02*
X26500D01*
Y61000D02*
Y81000D01*
X22500Y61000D02*
Y81000D01*
X3500Y61000D02*
X26500D01*
X2500Y65000D02*
Y81000D01*
Y61000D02*
Y65000D01*
Y61000D02*
X4500D01*
X2500Y59618D02*
X26500D01*
Y39618D02*
Y59618D01*
X22500Y39618D02*
Y59618D01*
X3500Y39618D02*
X26500D01*
X2500Y43618D02*
Y59618D01*
Y39618D02*
Y43618D01*
Y39618D02*
X4500D01*
X57254Y52185D02*
Y52579D01*
X52530Y52185D02*
Y52579D01*
X67803Y49362D02*
X68197D01*
X67803Y44638D02*
X68197D01*
X60039Y60472D02*
X61614D01*
X60039Y86457D02*
X61614D01*
Y60472D02*
Y86457D01*
X152803Y58961D02*
X153197D01*
X152803Y54039D02*
X153197D01*
X104803Y58961D02*
X105197D01*
X104803Y54039D02*
X105197D01*
X140000Y2500D02*
Y26500D01*
X120000Y2500D02*
X140000D01*
X120000Y6500D02*
X140000D01*
X120000Y2500D02*
Y25500D01*
X124000Y26500D02*
X140000D01*
X120000D02*
X124000D01*
X120000Y24500D02*
Y26500D01*
X104803Y28638D02*
X105197D01*
X104803Y33362D02*
X105197D01*
X115000Y2500D02*
Y26500D01*
X95000Y2500D02*
X115000D01*
X95000Y6500D02*
X115000D01*
X95000Y2500D02*
Y25500D01*
X99000Y26500D02*
X115000D01*
X95000D02*
X99000D01*
X95000Y24500D02*
Y26500D01*
X152803Y28638D02*
X153197D01*
X152803Y33362D02*
X153197D01*
X163000Y2500D02*
Y26500D01*
X143000Y2500D02*
X163000D01*
X143000Y6500D02*
X163000D01*
X143000Y2500D02*
Y25500D01*
X147000Y26500D02*
X163000D01*
X143000D02*
X147000D01*
X143000Y24500D02*
Y26500D01*
X181900Y25500D02*
Y27500D01*
X185900D01*
X201900D01*
X181900Y3500D02*
Y26500D01*
Y7500D02*
X201900D01*
X181900Y3500D02*
X201900D01*
Y27500D01*
D14*
X158748Y41941D02*
Y47846D01*
X147331Y41941D02*
Y47846D01*
X110748Y41941D02*
Y47846D01*
X99331Y41941D02*
Y47846D01*
D15*
X232475Y142800D02*
X225477D01*
Y138135D01*
X230142Y134636D02*
Y132303D01*
X228976Y131137D01*
X225477D01*
Y134636D01*
X226644Y135802D01*
X227810Y134636D01*
Y131137D01*
X230142Y128805D02*
X226644D01*
X225477Y127638D01*
Y124139D01*
X230142D01*
X225477Y121807D02*
X230142D01*
Y118308D01*
X228976Y117142D01*
X225477D01*
X230142Y110144D02*
Y113643D01*
X228976Y114809D01*
X226644D01*
X225477Y113643D01*
Y110144D01*
X232475Y107811D02*
X225477D01*
X228976D01*
X230142Y106645D01*
Y104312D01*
X228976Y103146D01*
X225477D01*
X231309Y89151D02*
X232475Y90317D01*
Y92650D01*
X231309Y93816D01*
X230142D01*
X228976Y92650D01*
Y90317D01*
X227810Y89151D01*
X226644D01*
X225477Y90317D01*
Y92650D01*
X226644Y93816D01*
X231309Y85652D02*
X230142D01*
Y86818D01*
Y84486D01*
Y85652D01*
X226644D01*
X225477Y84486D01*
X230142Y79820D02*
Y77488D01*
X228976Y76322D01*
X225477D01*
Y79820D01*
X226644Y80987D01*
X227810Y79820D01*
Y76322D01*
X225477Y73989D02*
X230142D01*
Y70490D01*
X228976Y69324D01*
X225477D01*
X232475Y62326D02*
X225477D01*
Y65825D01*
X226644Y66991D01*
X228976D01*
X230142Y65825D01*
Y62326D01*
X221198Y142800D02*
Y140467D01*
Y141634D01*
X214200D01*
Y142800D01*
Y140467D01*
Y136969D02*
X218865D01*
Y133470D01*
X217699Y132303D01*
X214200D01*
X220031Y128805D02*
X218865D01*
Y129971D01*
Y127638D01*
Y128805D01*
X215366D01*
X214200Y127638D01*
Y120641D02*
Y122973D01*
X215366Y124139D01*
X217699D01*
X218865Y122973D01*
Y120641D01*
X217699Y119474D01*
X216533D01*
Y124139D01*
X218865Y117142D02*
X214200D01*
X216533D01*
X217699Y115975D01*
X218865Y114809D01*
Y113643D01*
X214200Y108978D02*
X220031D01*
X217699D01*
Y110144D01*
Y107811D01*
Y108978D01*
X220031D01*
X221198Y107811D01*
X218865Y103146D02*
Y100814D01*
X217699Y99647D01*
X214200D01*
Y103146D01*
X215366Y104312D01*
X216533Y103146D01*
Y99647D01*
X218865Y92650D02*
Y96148D01*
X217699Y97315D01*
X215366D01*
X214200Y96148D01*
Y92650D01*
Y86818D02*
Y89151D01*
X215366Y90317D01*
X217699D01*
X218865Y89151D01*
Y86818D01*
X217699Y85652D01*
X216533D01*
Y90317D01*
M02*
