G04*
G04 #@! TF.GenerationSoftware,Altium Limited,Altium Designer,19.1.5 (86)*
G04*
G04 Layer_Color=32768*
%FSLAX25Y25*%
%MOIN*%
G70*
G01*
G75*
%ADD42C,0.00394*%
%ADD43C,0.00197*%
D42*
X52923Y52382D02*
X56860D01*
X54892Y50413D02*
Y54350D01*
X68000Y45031D02*
Y48968D01*
X66031Y47000D02*
X69968D01*
X51772Y73465D02*
X55709D01*
X53740Y71496D02*
Y75433D01*
X151031Y56500D02*
X154969D01*
X153000Y54532D02*
Y58469D01*
X103032Y56500D02*
X106968D01*
X105000Y54532D02*
Y58469D01*
Y29032D02*
Y32969D01*
X103032Y31000D02*
X106968D01*
X153000Y29032D02*
Y32969D01*
X151031Y31000D02*
X154969D01*
D43*
X58632Y45492D02*
Y59272D01*
X51152Y45492D02*
Y59272D01*
X58632D01*
X51152Y45492D02*
X58632D01*
X61110Y50740D02*
X74890D01*
X61110Y43260D02*
X74890D01*
X61110D02*
Y50740D01*
X74890Y43260D02*
Y50740D01*
X75590Y59488D02*
Y87441D01*
X31890Y59488D02*
Y87441D01*
Y59488D02*
X75590D01*
X31890Y87441D02*
X75590D01*
X146110Y52563D02*
Y60437D01*
X159890Y52563D02*
Y60437D01*
X146110D02*
X159890D01*
X146110Y52563D02*
X159890D01*
X98110D02*
Y60437D01*
X111890Y52563D02*
Y60437D01*
X98110D02*
X111890D01*
X98110Y52563D02*
X111890D01*
X98110Y27260D02*
X111890D01*
X98110Y34740D02*
X111890D01*
Y27260D02*
Y34740D01*
X98110Y27260D02*
Y34740D01*
X146110Y27260D02*
X159890D01*
X146110Y34740D02*
X159890D01*
Y27260D02*
Y34740D01*
X146110Y27260D02*
Y34740D01*
M02*
