G04*
G04 #@! TF.GenerationSoftware,Altium Limited,Altium Designer,19.1.5 (86)*
G04*
G04 Layer_Color=8388736*
%FSLAX25Y25*%
%MOIN*%
G70*
G01*
G75*
%ADD16R,0.06312X0.04934*%
%ADD17R,0.04934X0.06312*%
%ADD18R,0.09068X0.04540*%
%ADD19R,0.26391X0.22453*%
%ADD20R,0.05328X0.06509*%
%ADD21R,0.02375X0.05131*%
%ADD22R,0.02375X0.03162*%
%ADD23C,0.06800*%
%ADD24R,0.06800X0.06800*%
%ADD25R,0.06800X0.06800*%
%ADD26C,0.08674*%
%ADD27C,0.04000*%
G36*
X100175Y144088D02*
X111847Y144088D01*
Y144088D01*
X112410Y144049D01*
X113501Y143754D01*
X114514Y143252D01*
X115408Y142561D01*
X116150Y141709D01*
X116712Y140728D01*
X117071Y139656D01*
X117215Y138535D01*
X117175Y137972D01*
X117175Y101175D01*
X117175Y101175D01*
Y100665D01*
X116976Y99666D01*
X116586Y98724D01*
X116020Y97876D01*
X115299Y97155D01*
X114451Y96589D01*
X113510Y96199D01*
X112510Y96000D01*
X100175D01*
X99665Y96000D01*
X98666Y96199D01*
X97724Y96589D01*
X96876Y97155D01*
X96155Y97876D01*
X95589Y98724D01*
X95199Y99666D01*
X95000Y100665D01*
X95000Y101175D01*
Y138912D01*
X95000Y138912D01*
X95000Y139422D01*
X95199Y140422D01*
X95589Y141364D01*
X96155Y142211D01*
X96876Y142932D01*
X97724Y143499D01*
X98666Y143889D01*
X99665Y144088D01*
X100175Y144088D01*
D02*
G37*
G36*
X136088D02*
X147759Y144088D01*
Y144088D01*
X148323Y144049D01*
X149414Y143754D01*
X150426Y143252D01*
X151321Y142561D01*
X152063Y141709D01*
X152624Y140728D01*
X152984Y139656D01*
X153127Y138535D01*
X153088Y137972D01*
X153088Y101175D01*
X153087Y101175D01*
Y100665D01*
X152889Y99666D01*
X152498Y98724D01*
X151932Y97876D01*
X151211Y97155D01*
X150364Y96589D01*
X149422Y96199D01*
X148422Y96000D01*
X136088D01*
X135578Y96000D01*
X134578Y96199D01*
X133636Y96589D01*
X132789Y97155D01*
X132068Y97876D01*
X131501Y98724D01*
X131111Y99666D01*
X130912Y100665D01*
X130912Y101175D01*
Y138912D01*
X130912Y138912D01*
X130912Y139422D01*
X131111Y140422D01*
X131501Y141364D01*
X132068Y142211D01*
X132789Y142932D01*
X133636Y143499D01*
X134578Y143889D01*
X135578Y144088D01*
X136088Y144088D01*
D02*
G37*
D16*
X54892Y56122D02*
D03*
Y48642D02*
D03*
D17*
X64260Y47000D02*
D03*
X71740D02*
D03*
X108740Y31000D02*
D03*
X101260D02*
D03*
X156740D02*
D03*
X149260D02*
D03*
D18*
X70472Y64488D02*
D03*
Y82441D02*
D03*
D19*
X45669Y73465D02*
D03*
D20*
X149457Y56500D02*
D03*
X156543D02*
D03*
X101457D02*
D03*
X108543D02*
D03*
D21*
X156839Y49618D02*
D03*
X154279D02*
D03*
X151720D02*
D03*
X149161D02*
D03*
X156839Y39382D02*
D03*
X154279D02*
D03*
X151720D02*
D03*
X149161D02*
D03*
X108839Y49618D02*
D03*
X106280D02*
D03*
X103720D02*
D03*
X101161D02*
D03*
X108839Y39382D02*
D03*
X106280D02*
D03*
X103720D02*
D03*
X101161D02*
D03*
D22*
X188000Y53620D02*
D03*
X185441Y61888D02*
D03*
X190559D02*
D03*
D23*
X41500Y16000D02*
D03*
X19500D02*
D03*
X15500Y87500D02*
D03*
X77000Y13500D02*
D03*
X208700Y14500D02*
D03*
X15500Y66000D02*
D03*
Y44618D02*
D03*
X125000Y13500D02*
D03*
X100000D02*
D03*
X148000D02*
D03*
X186900Y14500D02*
D03*
D24*
X31500Y16000D02*
D03*
X9500D02*
D03*
X87000Y13500D02*
D03*
X218700Y14500D02*
D03*
X135000Y13500D02*
D03*
X110000D02*
D03*
X158000D02*
D03*
X196900Y14500D02*
D03*
D25*
X15500Y97500D02*
D03*
Y76000D02*
D03*
Y54618D02*
D03*
D26*
X64272Y134016D02*
D03*
X10728D02*
D03*
X45768Y135827D02*
D03*
X29232D02*
D03*
Y114173D02*
D03*
X45768D02*
D03*
D27*
X138000Y104000D02*
D03*
X146000D02*
D03*
X138000Y120000D02*
D03*
X146000D02*
D03*
X138000Y112000D02*
D03*
X146000D02*
D03*
Y128000D02*
D03*
X138000D02*
D03*
X146000Y136000D02*
D03*
X138000D02*
D03*
X162500Y56500D02*
D03*
X114000D02*
D03*
X76000Y47000D02*
D03*
M02*
