G04*
G04 #@! TF.GenerationSoftware,Altium Limited,Altium Designer,19.1.5 (86)*
G04*
G04 Layer_Physical_Order=2*
G04 Layer_Color=16711680*
%FSLAX25Y25*%
%MOIN*%
G70*
G01*
G75*
%ADD36C,0.06000*%
%ADD37R,0.06000X0.06000*%
%ADD38R,0.06000X0.06000*%
%ADD39C,0.07874*%
%ADD40C,0.03200*%
G36*
X236470Y3530D02*
X3530D01*
Y132234D01*
X4030Y132308D01*
X4318Y131360D01*
X4959Y130161D01*
X5822Y129109D01*
X6873Y128246D01*
X8073Y127605D01*
X9375Y127210D01*
X10728Y127077D01*
X12082Y127210D01*
X13384Y127605D01*
X14583Y128246D01*
X15635Y129109D01*
X16498Y130161D01*
X17139Y131360D01*
X17534Y132662D01*
X17667Y134016D01*
X17534Y135370D01*
X17139Y136671D01*
X16498Y137871D01*
X15635Y138922D01*
X14583Y139785D01*
X13384Y140427D01*
X12082Y140821D01*
X10728Y140955D01*
X9375Y140821D01*
X8073Y140427D01*
X6873Y139785D01*
X5822Y138922D01*
X4959Y137871D01*
X4318Y136671D01*
X4030Y135724D01*
X3530Y135798D01*
Y146470D01*
X236470Y146470D01*
X236470Y3530D01*
D02*
G37*
%LPC*%
G36*
X45768Y140806D02*
X44479Y140637D01*
X43278Y140139D01*
X42247Y139348D01*
X41455Y138317D01*
X40958Y137116D01*
X40788Y135827D01*
X40958Y134538D01*
X41455Y133337D01*
X42247Y132306D01*
X43278Y131514D01*
X44479Y131017D01*
X45768Y130847D01*
X47056Y131017D01*
X48257Y131514D01*
X49289Y132306D01*
X50080Y133337D01*
X50578Y134538D01*
X50747Y135827D01*
X50578Y137116D01*
X50080Y138317D01*
X49289Y139348D01*
X48257Y140139D01*
X47056Y140637D01*
X45768Y140806D01*
D02*
G37*
G36*
X29232D02*
X27944Y140637D01*
X26743Y140139D01*
X25711Y139348D01*
X24920Y138317D01*
X24422Y137116D01*
X24253Y135827D01*
X24422Y134538D01*
X24920Y133337D01*
X25711Y132306D01*
X26743Y131514D01*
X27944Y131017D01*
X29232Y130847D01*
X30521Y131017D01*
X31722Y131514D01*
X32753Y132306D01*
X33545Y133337D01*
X34042Y134538D01*
X34212Y135827D01*
X34042Y137116D01*
X33545Y138317D01*
X32753Y139348D01*
X31722Y140139D01*
X30521Y140637D01*
X29232Y140806D01*
D02*
G37*
G36*
X64272Y140955D02*
X62918Y140821D01*
X61616Y140427D01*
X60417Y139785D01*
X59365Y138922D01*
X58502Y137871D01*
X57861Y136671D01*
X57466Y135370D01*
X57333Y134016D01*
X57466Y132662D01*
X57861Y131360D01*
X58502Y130161D01*
X59365Y129109D01*
X60417Y128246D01*
X61616Y127605D01*
X62918Y127210D01*
X64272Y127077D01*
X65625Y127210D01*
X66927Y127605D01*
X68127Y128246D01*
X69178Y129109D01*
X70041Y130161D01*
X70682Y131360D01*
X71077Y132662D01*
X71211Y134016D01*
X71077Y135370D01*
X70682Y136671D01*
X70041Y137871D01*
X69178Y138922D01*
X68127Y139785D01*
X66927Y140427D01*
X65625Y140821D01*
X64272Y140955D01*
D02*
G37*
G36*
X15500Y91535D02*
X14456Y91397D01*
X13483Y90994D01*
X12647Y90353D01*
X12006Y89517D01*
X11603Y88544D01*
X11466Y87500D01*
X11603Y86456D01*
X12006Y85483D01*
X12647Y84647D01*
X13483Y84006D01*
X14456Y83603D01*
X15500Y83465D01*
X16544Y83603D01*
X17517Y84006D01*
X18353Y84647D01*
X18994Y85483D01*
X19397Y86456D01*
X19534Y87500D01*
X19397Y88544D01*
X18994Y89517D01*
X18353Y90353D01*
X17517Y90994D01*
X16544Y91397D01*
X15500Y91535D01*
D02*
G37*
G36*
Y70034D02*
X14456Y69897D01*
X13483Y69494D01*
X12647Y68853D01*
X12006Y68017D01*
X11603Y67044D01*
X11466Y66000D01*
X11603Y64956D01*
X12006Y63983D01*
X12647Y63147D01*
X13483Y62506D01*
X14456Y62103D01*
X15500Y61966D01*
X16544Y62103D01*
X17517Y62506D01*
X18353Y63147D01*
X18994Y63983D01*
X19397Y64956D01*
X19534Y66000D01*
X19397Y67044D01*
X18994Y68017D01*
X18353Y68853D01*
X17517Y69494D01*
X16544Y69897D01*
X15500Y70034D01*
D02*
G37*
G36*
Y48653D02*
X14456Y48515D01*
X13483Y48112D01*
X12647Y47471D01*
X12006Y46635D01*
X11603Y45662D01*
X11466Y44618D01*
X11603Y43574D01*
X12006Y42601D01*
X12647Y41765D01*
X13483Y41124D01*
X14456Y40721D01*
X15500Y40584D01*
X16544Y40721D01*
X17517Y41124D01*
X18353Y41765D01*
X18994Y42601D01*
X19397Y43574D01*
X19534Y44618D01*
X19397Y45662D01*
X18994Y46635D01*
X18353Y47471D01*
X17517Y48112D01*
X16544Y48515D01*
X15500Y48653D01*
D02*
G37*
G36*
X41500Y20034D02*
X40456Y19897D01*
X39483Y19494D01*
X38647Y18853D01*
X38006Y18017D01*
X37603Y17044D01*
X37466Y16000D01*
X37603Y14956D01*
X38006Y13983D01*
X38647Y13147D01*
X39483Y12506D01*
X40456Y12103D01*
X41500Y11965D01*
X42544Y12103D01*
X43517Y12506D01*
X44353Y13147D01*
X44994Y13983D01*
X45397Y14956D01*
X45535Y16000D01*
X45397Y17044D01*
X44994Y18017D01*
X44353Y18853D01*
X43517Y19494D01*
X42544Y19897D01*
X41500Y20034D01*
D02*
G37*
G36*
X19500D02*
X18456Y19897D01*
X17483Y19494D01*
X16647Y18853D01*
X16006Y18017D01*
X15603Y17044D01*
X15465Y16000D01*
X15603Y14956D01*
X16006Y13983D01*
X16647Y13147D01*
X17483Y12506D01*
X18456Y12103D01*
X19500Y11965D01*
X20544Y12103D01*
X21517Y12506D01*
X22353Y13147D01*
X22994Y13983D01*
X23397Y14956D01*
X23535Y16000D01*
X23397Y17044D01*
X22994Y18017D01*
X22353Y18853D01*
X21517Y19494D01*
X20544Y19897D01*
X19500Y20034D01*
D02*
G37*
G36*
X208700Y18534D02*
X207656Y18397D01*
X206683Y17994D01*
X205847Y17353D01*
X205206Y16517D01*
X204803Y15544D01*
X204665Y14500D01*
X204803Y13456D01*
X205206Y12483D01*
X205847Y11647D01*
X206683Y11006D01*
X207656Y10603D01*
X208700Y10465D01*
X209744Y10603D01*
X210717Y11006D01*
X211553Y11647D01*
X212194Y12483D01*
X212597Y13456D01*
X212735Y14500D01*
X212597Y15544D01*
X212194Y16517D01*
X211553Y17353D01*
X210717Y17994D01*
X209744Y18397D01*
X208700Y18534D01*
D02*
G37*
G36*
X186900D02*
X185856Y18397D01*
X184883Y17994D01*
X184047Y17353D01*
X183406Y16517D01*
X183003Y15544D01*
X182866Y14500D01*
X183003Y13456D01*
X183406Y12483D01*
X184047Y11647D01*
X184883Y11006D01*
X185856Y10603D01*
X186900Y10465D01*
X187944Y10603D01*
X188917Y11006D01*
X189753Y11647D01*
X190394Y12483D01*
X190797Y13456D01*
X190935Y14500D01*
X190797Y15544D01*
X190394Y16517D01*
X189753Y17353D01*
X188917Y17994D01*
X187944Y18397D01*
X186900Y18534D01*
D02*
G37*
G36*
X162000Y17500D02*
X154000D01*
Y9500D01*
X162000D01*
Y17500D01*
D02*
G37*
G36*
X139000D02*
X131000D01*
Y9500D01*
X139000D01*
Y17500D01*
D02*
G37*
G36*
X114000D02*
X106000D01*
Y9500D01*
X114000D01*
Y17500D01*
D02*
G37*
G36*
X91000D02*
X83000D01*
Y9500D01*
X91000D01*
Y17500D01*
D02*
G37*
G36*
X148000Y17535D02*
X146956Y17397D01*
X145983Y16994D01*
X145147Y16353D01*
X144506Y15517D01*
X144103Y14544D01*
X143965Y13500D01*
X144103Y12456D01*
X144506Y11483D01*
X145147Y10647D01*
X145983Y10006D01*
X146956Y9603D01*
X148000Y9465D01*
X149044Y9603D01*
X150017Y10006D01*
X150853Y10647D01*
X151494Y11483D01*
X151897Y12456D01*
X152034Y13500D01*
X151897Y14544D01*
X151494Y15517D01*
X150853Y16353D01*
X150017Y16994D01*
X149044Y17397D01*
X148000Y17535D01*
D02*
G37*
G36*
X125000D02*
X123956Y17397D01*
X122983Y16994D01*
X122147Y16353D01*
X121506Y15517D01*
X121103Y14544D01*
X120966Y13500D01*
X121103Y12456D01*
X121506Y11483D01*
X122147Y10647D01*
X122983Y10006D01*
X123956Y9603D01*
X125000Y9465D01*
X126044Y9603D01*
X127017Y10006D01*
X127853Y10647D01*
X128494Y11483D01*
X128897Y12456D01*
X129034Y13500D01*
X128897Y14544D01*
X128494Y15517D01*
X127853Y16353D01*
X127017Y16994D01*
X126044Y17397D01*
X125000Y17535D01*
D02*
G37*
G36*
X100000D02*
X98956Y17397D01*
X97983Y16994D01*
X97147Y16353D01*
X96506Y15517D01*
X96103Y14544D01*
X95965Y13500D01*
X96103Y12456D01*
X96506Y11483D01*
X97147Y10647D01*
X97983Y10006D01*
X98956Y9603D01*
X100000Y9465D01*
X101044Y9603D01*
X102017Y10006D01*
X102853Y10647D01*
X103494Y11483D01*
X103897Y12456D01*
X104034Y13500D01*
X103897Y14544D01*
X103494Y15517D01*
X102853Y16353D01*
X102017Y16994D01*
X101044Y17397D01*
X100000Y17535D01*
D02*
G37*
G36*
X77000D02*
X75956Y17397D01*
X74983Y16994D01*
X74147Y16353D01*
X73506Y15517D01*
X73103Y14544D01*
X72966Y13500D01*
X73103Y12456D01*
X73506Y11483D01*
X74147Y10647D01*
X74983Y10006D01*
X75956Y9603D01*
X77000Y9465D01*
X78044Y9603D01*
X79017Y10006D01*
X79853Y10647D01*
X80494Y11483D01*
X80897Y12456D01*
X81034Y13500D01*
X80897Y14544D01*
X80494Y15517D01*
X79853Y16353D01*
X79017Y16994D01*
X78044Y17397D01*
X77000Y17535D01*
D02*
G37*
%LPD*%
D36*
X41500Y16000D02*
D03*
X19500D02*
D03*
X15500Y87500D02*
D03*
X77000Y13500D02*
D03*
X208700Y14500D02*
D03*
X15500Y66000D02*
D03*
Y44618D02*
D03*
X125000Y13500D02*
D03*
X100000D02*
D03*
X148000D02*
D03*
X186900Y14500D02*
D03*
D37*
X31500Y16000D02*
D03*
X9500D02*
D03*
X87000Y13500D02*
D03*
X218700Y14500D02*
D03*
X135000Y13500D02*
D03*
X110000D02*
D03*
X158000D02*
D03*
X196900Y14500D02*
D03*
D38*
X15500Y97500D02*
D03*
Y76000D02*
D03*
Y54618D02*
D03*
D39*
X64272Y134016D02*
D03*
X10728D02*
D03*
X45768Y135827D02*
D03*
X29232D02*
D03*
Y114173D02*
D03*
X45768D02*
D03*
D40*
X138000Y104000D02*
D03*
X146000D02*
D03*
X138000Y120000D02*
D03*
X146000D02*
D03*
X138000Y112000D02*
D03*
X146000D02*
D03*
Y128000D02*
D03*
X138000D02*
D03*
X146000Y136000D02*
D03*
X138000D02*
D03*
X162500Y56500D02*
D03*
X114000D02*
D03*
X76000Y47000D02*
D03*
M02*
