M48
;Layer_Color=9474304
;FILE_FORMAT=2:5
INCH,TZ
;TYPE=PLATED
T1F00S00C0.02000
T2F00S00C0.04000
T3F00S00C0.05512
T4F00S00C0.11811
%
T01
X76000Y47000
X114000Y56500
X138000Y104000
X146000
Y112000
Y120000
X138000
Y112000
Y128000
X146000
Y136000
X138000
X162500Y56500
T02
X9500Y16000
X19500
X31500
X41500
X77000Y13500
X87000
X100000
X110000
X125000
X135000
X148000
X15500Y44618
Y54618
Y66000
Y76000
Y87500
Y97500
X158000Y13500
X186900Y14500
X196900
X208700
X218700
T03
X29232Y114173
X45768
Y135827
X29232
T04
X10728Y134016
X64272
M30
