G04 Layer_Physical_Order=2*
G04 Layer_Color=16711680*
%FSLAX25Y25*%
%MOIN*%
G70*
G01*
G75*
%ADD12R,0.04528X0.05709*%
%ADD13R,0.05709X0.04528*%
%ADD15R,0.05512X0.04134*%
%ADD25C,0.01000*%
%ADD26C,0.03000*%
%ADD27C,0.15000*%
%ADD28C,0.06000*%
%ADD29R,0.06000X0.06000*%
%ADD30R,0.06000X0.06000*%
%ADD31C,0.05905*%
%ADD32R,0.05905X0.05905*%
%ADD33C,0.02362*%
G36*
X388500Y176522D02*
X101122D01*
Y499978D01*
X388500D01*
Y176522D01*
D02*
G37*
%LPC*%
G36*
X248413Y261000D02*
X245630D01*
Y258646D01*
X245708Y258256D01*
X245929Y257925D01*
X246259Y257704D01*
X246650Y257626D01*
X248413D01*
Y261000D01*
D02*
G37*
G36*
X252197D02*
X249413D01*
Y257626D01*
X251177D01*
X251567Y257704D01*
X251898Y257925D01*
X252119Y258256D01*
X252197Y258646D01*
Y261000D01*
D02*
G37*
G36*
X275500Y259500D02*
X272126D01*
Y257736D01*
X272204Y257346D01*
X272425Y257015D01*
X272756Y256794D01*
X273146Y256717D01*
X275500D01*
Y259500D01*
D02*
G37*
G36*
X264000D02*
X260626D01*
Y257736D01*
X260704Y257346D01*
X260925Y257015D01*
X261256Y256794D01*
X261646Y256717D01*
X264000D01*
Y259500D01*
D02*
G37*
G36*
X268374D02*
X265000D01*
Y256717D01*
X267354D01*
X267744Y256794D01*
X268075Y257015D01*
X268296Y257346D01*
X268374Y257736D01*
Y259500D01*
D02*
G37*
G36*
X267354Y263283D02*
X265000D01*
Y260500D01*
X268374D01*
Y262264D01*
X268296Y262654D01*
X268075Y262985D01*
X267744Y263206D01*
X267354Y263283D01*
D02*
G37*
G36*
X275500D02*
X273146D01*
X272756Y263206D01*
X272425Y262985D01*
X272204Y262654D01*
X272126Y262264D01*
Y260500D01*
X275500D01*
Y263283D01*
D02*
G37*
G36*
X264000D02*
X261646D01*
X261256Y263206D01*
X260925Y262985D01*
X260704Y262654D01*
X260626Y262264D01*
Y260500D01*
X264000D01*
Y263283D01*
D02*
G37*
G36*
X289543Y261500D02*
X286760D01*
Y259146D01*
X286838Y258755D01*
X287059Y258425D01*
X287389Y258204D01*
X287779Y258126D01*
X289543D01*
Y261500D01*
D02*
G37*
G36*
X293327D02*
X290543D01*
Y258126D01*
X292307D01*
X292697Y258204D01*
X293028Y258425D01*
X293249Y258755D01*
X293327Y259146D01*
Y261500D01*
D02*
G37*
G36*
X322000Y256816D02*
X321305Y256678D01*
X320716Y256284D01*
X320607Y256121D01*
X316500D01*
X316071Y256036D01*
X315707Y255793D01*
X315707Y255793D01*
X315692Y255778D01*
X315500Y255816D01*
X314805Y255678D01*
X314216Y255284D01*
X313822Y254695D01*
X313684Y254000D01*
X313822Y253305D01*
X314216Y252716D01*
X314805Y252322D01*
X315500Y252184D01*
X316195Y252322D01*
X316784Y252716D01*
X317178Y253305D01*
X317292Y253878D01*
X320607D01*
X320716Y253716D01*
X321305Y253322D01*
X322000Y253184D01*
X322695Y253322D01*
X323284Y253716D01*
X323678Y254305D01*
X323816Y255000D01*
X323678Y255695D01*
X323284Y256284D01*
X322695Y256678D01*
X322000Y256816D01*
D02*
G37*
G36*
X218500Y244124D02*
X218149Y244055D01*
X217427Y243572D01*
X216945Y242851D01*
X216876Y242500D01*
X218500D01*
Y244124D01*
D02*
G37*
G36*
X219500D02*
Y242500D01*
X221124D01*
X221055Y242851D01*
X220572Y243572D01*
X219851Y244055D01*
X219500Y244124D01*
D02*
G37*
G36*
X117000Y249131D02*
X116060Y249007D01*
X115184Y248645D01*
X114432Y248067D01*
X113855Y247316D01*
X113493Y246440D01*
X113369Y245500D01*
X113493Y244560D01*
X113855Y243685D01*
X114432Y242933D01*
X115184Y242355D01*
X116060Y241993D01*
X117000Y241869D01*
X117940Y241993D01*
X118816Y242355D01*
X119568Y242933D01*
X120145Y243685D01*
X120507Y244560D01*
X120631Y245500D01*
X120507Y246440D01*
X120145Y247316D01*
X119568Y248067D01*
X118816Y248645D01*
X117940Y249007D01*
X117000Y249131D01*
D02*
G37*
G36*
X218500Y241500D02*
X216876D01*
X216945Y241149D01*
X217427Y240427D01*
X218149Y239945D01*
X218500Y239876D01*
Y241500D01*
D02*
G37*
G36*
X221124D02*
X219500D01*
Y239876D01*
X219851Y239945D01*
X220572Y240427D01*
X221055Y241149D01*
X221124Y241500D01*
D02*
G37*
G36*
X292307Y257374D02*
X290543D01*
Y254000D01*
X293327D01*
Y256354D01*
X293249Y256745D01*
X293028Y257075D01*
X292697Y257296D01*
X292307Y257374D01*
D02*
G37*
G36*
X157480Y257721D02*
X156785Y257583D01*
X156196Y257190D01*
X155803Y256600D01*
X155664Y255906D01*
X155702Y255714D01*
X147829Y247841D01*
X147638Y247879D01*
X146943Y247741D01*
X146354Y247347D01*
X145960Y246758D01*
X145822Y246063D01*
X145960Y245368D01*
X146354Y244779D01*
X146943Y244385D01*
X147638Y244247D01*
X148333Y244385D01*
X148922Y244779D01*
X149316Y245368D01*
X149454Y246063D01*
X149416Y246255D01*
X157289Y254128D01*
X157480Y254089D01*
X158175Y254228D01*
X158764Y254621D01*
X159158Y255211D01*
X159296Y255906D01*
X159158Y256600D01*
X158764Y257190D01*
X158175Y257583D01*
X157480Y257721D01*
D02*
G37*
G36*
X289543Y257374D02*
X287779D01*
X287389Y257296D01*
X287059Y257075D01*
X286838Y256745D01*
X286760Y256354D01*
Y254000D01*
X289543D01*
Y257374D01*
D02*
G37*
G36*
X117000Y259131D02*
X116060Y259007D01*
X115184Y258645D01*
X114432Y258067D01*
X113855Y257315D01*
X113493Y256440D01*
X113369Y255500D01*
X113493Y254560D01*
X113855Y253684D01*
X114432Y252933D01*
X115184Y252355D01*
X116060Y251993D01*
X117000Y251869D01*
X117940Y251993D01*
X118816Y252355D01*
X119568Y252933D01*
X120145Y253684D01*
X120507Y254560D01*
X120631Y255500D01*
X120507Y256440D01*
X120145Y257315D01*
X119568Y258067D01*
X118816Y258645D01*
X117940Y259007D01*
X117000Y259131D01*
D02*
G37*
G36*
X248457Y256874D02*
X246693D01*
X246303Y256796D01*
X245972Y256575D01*
X245751Y256244D01*
X245673Y255854D01*
Y253500D01*
X248457D01*
Y256874D01*
D02*
G37*
G36*
X116500Y265000D02*
X112980D01*
Y262500D01*
X113058Y262110D01*
X113279Y261779D01*
X113610Y261558D01*
X114000Y261480D01*
X116500D01*
Y265000D01*
D02*
G37*
G36*
X291764Y274374D02*
X290000D01*
Y271000D01*
X292783D01*
Y273354D01*
X292706Y273745D01*
X292485Y274075D01*
X292154Y274296D01*
X291764Y274374D01*
D02*
G37*
G36*
X116000Y279000D02*
X112531D01*
X112603Y278456D01*
X113006Y277483D01*
X113647Y276647D01*
X114483Y276006D01*
X115456Y275603D01*
X116000Y275531D01*
Y279000D01*
D02*
G37*
G36*
X289000Y274374D02*
X287236D01*
X286846Y274296D01*
X286515Y274075D01*
X286294Y273745D01*
X286217Y273354D01*
Y271000D01*
X289000D01*
Y274374D01*
D02*
G37*
G36*
X248500Y273874D02*
X246736D01*
X246346Y273796D01*
X246015Y273575D01*
X245794Y273245D01*
X245717Y272854D01*
Y270500D01*
X248500D01*
Y273874D01*
D02*
G37*
G36*
X251264D02*
X249500D01*
Y270500D01*
X252283D01*
Y272854D01*
X252206Y273245D01*
X251985Y273575D01*
X251654Y273796D01*
X251264Y273874D01*
D02*
G37*
G36*
X253256Y280236D02*
X247744D01*
X247285Y280046D01*
X247095Y279587D01*
Y278641D01*
X233380D01*
X233284Y278784D01*
X232695Y279178D01*
X232000Y279316D01*
X231305Y279178D01*
X230716Y278784D01*
X230322Y278195D01*
X230184Y277500D01*
X230322Y276805D01*
X230716Y276216D01*
X231305Y275822D01*
X232000Y275684D01*
X232695Y275822D01*
X233284Y276216D01*
X233406Y276398D01*
X247095D01*
Y275453D01*
X247285Y274993D01*
X247744Y274803D01*
X253256D01*
X253715Y274993D01*
X253905Y275453D01*
Y279587D01*
X253715Y280046D01*
X253256Y280236D01*
D02*
G37*
G36*
X116000Y283469D02*
X115456Y283397D01*
X114483Y282994D01*
X113647Y282353D01*
X113006Y281517D01*
X112603Y280544D01*
X112531Y280000D01*
X116000D01*
Y283469D01*
D02*
G37*
G36*
X292783Y279500D02*
X290000D01*
Y276126D01*
X291764D01*
X292154Y276204D01*
X292485Y276425D01*
X292706Y276755D01*
X292783Y277146D01*
Y279500D01*
D02*
G37*
G36*
X120469Y279000D02*
X117000D01*
Y275531D01*
X117544Y275603D01*
X118517Y276006D01*
X119353Y276647D01*
X119994Y277483D01*
X120397Y278456D01*
X120469Y279000D01*
D02*
G37*
G36*
X289000Y279500D02*
X286217D01*
Y277146D01*
X286294Y276755D01*
X286515Y276425D01*
X286846Y276204D01*
X287236Y276126D01*
X289000D01*
Y279500D01*
D02*
G37*
G36*
X292783Y270000D02*
X290000D01*
Y266626D01*
X291764D01*
X292154Y266704D01*
X292485Y266925D01*
X292706Y267255D01*
X292783Y267646D01*
Y270000D01*
D02*
G37*
G36*
X289543Y265874D02*
X287779D01*
X287389Y265796D01*
X287059Y265575D01*
X286838Y265245D01*
X286760Y264854D01*
Y262500D01*
X289543D01*
Y265874D01*
D02*
G37*
G36*
X292307D02*
X290543D01*
Y262500D01*
X293327D01*
Y264854D01*
X293249Y265245D01*
X293028Y265575D01*
X292697Y265796D01*
X292307Y265874D01*
D02*
G37*
G36*
X251177Y265374D02*
X249413D01*
Y262000D01*
X252197D01*
Y264354D01*
X252119Y264744D01*
X251898Y265075D01*
X251567Y265296D01*
X251177Y265374D01*
D02*
G37*
G36*
X121020Y265000D02*
X117500D01*
Y261480D01*
X120000D01*
X120390Y261558D01*
X120721Y261779D01*
X120942Y262110D01*
X121020Y262500D01*
Y265000D01*
D02*
G37*
G36*
X248413Y265374D02*
X246650D01*
X246259Y265296D01*
X245929Y265075D01*
X245708Y264744D01*
X245630Y264354D01*
Y262000D01*
X248413D01*
Y265374D01*
D02*
G37*
G36*
X252283Y269500D02*
X249500D01*
Y266126D01*
X251264D01*
X251654Y266204D01*
X251985Y266425D01*
X252206Y266756D01*
X252283Y267146D01*
Y269500D01*
D02*
G37*
G36*
X289000Y270000D02*
X286217D01*
Y267646D01*
X286294Y267255D01*
X286515Y266925D01*
X286846Y266704D01*
X287236Y266626D01*
X289000D01*
Y270000D01*
D02*
G37*
G36*
X248500Y269500D02*
X245717D01*
Y267146D01*
X245794Y266756D01*
X246015Y266425D01*
X246346Y266204D01*
X246736Y266126D01*
X248500D01*
Y269500D01*
D02*
G37*
G36*
X116500Y269520D02*
X114000D01*
X113610Y269442D01*
X113279Y269221D01*
X113058Y268890D01*
X112980Y268500D01*
Y266000D01*
X116500D01*
Y269520D01*
D02*
G37*
G36*
X120000D02*
X117500D01*
Y266000D01*
X121020D01*
Y268500D01*
X120942Y268890D01*
X120721Y269221D01*
X120390Y269442D01*
X120000Y269520D01*
D02*
G37*
G36*
X259500Y238124D02*
Y236500D01*
X261124D01*
X261055Y236851D01*
X260573Y237573D01*
X259851Y238055D01*
X259500Y238124D01*
D02*
G37*
G36*
X363673Y205342D02*
X362507Y205227D01*
X360905Y204741D01*
X359428Y203952D01*
X358134Y202890D01*
X357071Y201596D01*
X356282Y200119D01*
X355796Y198517D01*
X355681Y197350D01*
X363673D01*
Y205342D01*
D02*
G37*
G36*
X364673D02*
Y197350D01*
X372665D01*
X372550Y198517D01*
X372064Y200119D01*
X371275Y201596D01*
X370213Y202890D01*
X368918Y203952D01*
X367442Y204741D01*
X365840Y205227D01*
X364673Y205342D01*
D02*
G37*
G36*
X118610D02*
Y197350D01*
X126602D01*
X126487Y198517D01*
X126001Y200119D01*
X125212Y201596D01*
X124150Y202890D01*
X122855Y203952D01*
X121379Y204741D01*
X119776Y205227D01*
X118610Y205342D01*
D02*
G37*
G36*
X287000Y192624D02*
Y191000D01*
X288624D01*
X288555Y191351D01*
X288072Y192072D01*
X287351Y192554D01*
X287000Y192624D01*
D02*
G37*
G36*
X117610Y205342D02*
X116444Y205227D01*
X114842Y204741D01*
X113365Y203952D01*
X112071Y202890D01*
X111009Y201596D01*
X110219Y200119D01*
X109733Y198517D01*
X109618Y197350D01*
X117610D01*
Y205342D01*
D02*
G37*
G36*
X257500Y224124D02*
Y222500D01*
X259124D01*
X259055Y222851D01*
X258573Y223572D01*
X257851Y224055D01*
X257500Y224124D01*
D02*
G37*
G36*
X227000Y257816D02*
X226305Y257678D01*
X225716Y257284D01*
X225322Y256695D01*
X225184Y256000D01*
X225322Y255305D01*
X225716Y254716D01*
X225879Y254607D01*
Y228000D01*
X225964Y227571D01*
X226207Y227207D01*
X226571Y226964D01*
X227000Y226878D01*
X249607D01*
X249716Y226716D01*
X250305Y226322D01*
X251000Y226184D01*
X251695Y226322D01*
X252284Y226716D01*
X252678Y227305D01*
X252816Y228000D01*
X252678Y228695D01*
X252284Y229284D01*
X251695Y229678D01*
X251000Y229816D01*
X250305Y229678D01*
X249716Y229284D01*
X249607Y229121D01*
X228121D01*
Y254607D01*
X228284Y254716D01*
X228678Y255305D01*
X228816Y256000D01*
X228678Y256695D01*
X228284Y257284D01*
X227695Y257678D01*
X227000Y257816D01*
D02*
G37*
G36*
X256500Y224124D02*
X256149Y224055D01*
X255428Y223572D01*
X254945Y222851D01*
X254876Y222500D01*
X256500D01*
Y224124D01*
D02*
G37*
G36*
Y221500D02*
X254876D01*
X254945Y221149D01*
X255428Y220427D01*
X256149Y219945D01*
X256500Y219876D01*
Y221500D01*
D02*
G37*
G36*
X259124D02*
X257500D01*
Y219876D01*
X257851Y219945D01*
X258573Y220427D01*
X259055Y221149D01*
X259124Y221500D01*
D02*
G37*
G36*
X286000Y192624D02*
X285649Y192554D01*
X284928Y192072D01*
X284445Y191351D01*
X284376Y191000D01*
X286000D01*
Y192624D01*
D02*
G37*
G36*
X372665Y196350D02*
X364673D01*
Y188358D01*
X365840Y188473D01*
X367442Y188959D01*
X368918Y189749D01*
X370213Y190811D01*
X371275Y192105D01*
X372064Y193582D01*
X372550Y195184D01*
X372665Y196350D01*
D02*
G37*
G36*
X240500Y190000D02*
X238876D01*
X238945Y189649D01*
X239427Y188927D01*
X240149Y188445D01*
X240500Y188376D01*
Y190000D01*
D02*
G37*
G36*
X363673Y196350D02*
X355681D01*
X355796Y195184D01*
X356282Y193582D01*
X357071Y192105D01*
X358134Y190811D01*
X359428Y189749D01*
X360905Y188959D01*
X362507Y188473D01*
X363673Y188358D01*
Y196350D01*
D02*
G37*
G36*
X117610D02*
X109618D01*
X109733Y195184D01*
X110219Y193582D01*
X111009Y192105D01*
X112071Y190811D01*
X113365Y189749D01*
X114842Y188959D01*
X116444Y188473D01*
X117610Y188358D01*
Y196350D01*
D02*
G37*
G36*
X126602D02*
X118610D01*
Y188358D01*
X119776Y188473D01*
X121379Y188959D01*
X122855Y189749D01*
X124150Y190811D01*
X125212Y192105D01*
X126001Y193582D01*
X126487Y195184D01*
X126602Y196350D01*
D02*
G37*
G36*
X240500Y192624D02*
X240149Y192554D01*
X239427Y192072D01*
X238945Y191351D01*
X238876Y191000D01*
X240500D01*
Y192624D01*
D02*
G37*
G36*
X241500D02*
Y191000D01*
X243124D01*
X243055Y191351D01*
X242572Y192072D01*
X241851Y192554D01*
X241500Y192624D01*
D02*
G37*
G36*
X288624Y190000D02*
X287000D01*
Y188376D01*
X287351Y188445D01*
X288072Y188927D01*
X288555Y189649D01*
X288624Y190000D01*
D02*
G37*
G36*
X243124D02*
X241500D01*
Y188376D01*
X241851Y188445D01*
X242572Y188927D01*
X243055Y189649D01*
X243124Y190000D01*
D02*
G37*
G36*
X286000D02*
X284376D01*
X284445Y189649D01*
X284928Y188927D01*
X285649Y188445D01*
X286000Y188376D01*
Y190000D01*
D02*
G37*
G36*
X278000Y232124D02*
Y230000D01*
Y227876D01*
X278351Y227945D01*
X279072Y228428D01*
X279386Y228897D01*
X279917Y228792D01*
X279945Y228649D01*
X280428Y227927D01*
X281149Y227445D01*
X281500Y227376D01*
Y229500D01*
Y231624D01*
X281149Y231555D01*
X280428Y231072D01*
X280114Y230603D01*
X279583Y230708D01*
X279555Y230851D01*
X279072Y231573D01*
X278351Y232055D01*
X278000Y232124D01*
D02*
G37*
G36*
X258500Y235500D02*
X256876D01*
X256945Y235149D01*
X257428Y234427D01*
X258149Y233945D01*
X258500Y233876D01*
Y235500D01*
D02*
G37*
G36*
X261124D02*
X259500D01*
Y233876D01*
X259851Y233945D01*
X260573Y234427D01*
X261055Y235149D01*
X261124Y235500D01*
D02*
G37*
G36*
X311500Y237816D02*
X310805Y237678D01*
X310216Y237284D01*
X309822Y236695D01*
X309684Y236000D01*
X309822Y235305D01*
X310216Y234716D01*
X310805Y234322D01*
X311500Y234184D01*
X312195Y234322D01*
X312784Y234716D01*
X312893Y234878D01*
X315808D01*
X315822Y234805D01*
X316216Y234216D01*
X316805Y233822D01*
X317500Y233684D01*
X318195Y233822D01*
X318784Y234216D01*
X319178Y234805D01*
X319316Y235500D01*
X319178Y236195D01*
X318784Y236784D01*
X318195Y237178D01*
X317500Y237316D01*
X316805Y237178D01*
X316721Y237122D01*
X312893D01*
X312784Y237284D01*
X312195Y237678D01*
X311500Y237816D01*
D02*
G37*
G36*
X245000Y234500D02*
X243376D01*
X243445Y234149D01*
X243928Y233428D01*
X244649Y232945D01*
X245000Y232876D01*
Y234500D01*
D02*
G37*
G36*
X247624D02*
X246000D01*
Y232876D01*
X246351Y232945D01*
X247073Y233428D01*
X247555Y234149D01*
X247624Y234500D01*
D02*
G37*
G36*
X117500Y239469D02*
Y236000D01*
X120969D01*
X120897Y236544D01*
X120494Y237517D01*
X119853Y238353D01*
X119017Y238994D01*
X118044Y239397D01*
X117500Y239469D01*
D02*
G37*
G36*
X258500Y238124D02*
X258149Y238055D01*
X257428Y237573D01*
X256945Y236851D01*
X256876Y236500D01*
X258500D01*
Y238124D01*
D02*
G37*
G36*
X116500Y239469D02*
X115956Y239397D01*
X114983Y238994D01*
X114147Y238353D01*
X113506Y237517D01*
X113103Y236544D01*
X113031Y236000D01*
X116500D01*
Y239469D01*
D02*
G37*
G36*
X245000Y237124D02*
X244649Y237055D01*
X243928Y236573D01*
X243445Y235851D01*
X243376Y235500D01*
X245000D01*
Y237124D01*
D02*
G37*
G36*
X246000D02*
Y235500D01*
X247624D01*
X247555Y235851D01*
X247073Y236573D01*
X246351Y237055D01*
X246000Y237124D01*
D02*
G37*
G36*
X254000Y234124D02*
X253649Y234055D01*
X252927Y233573D01*
X252445Y232851D01*
X252376Y232500D01*
X254000D01*
Y234124D01*
D02*
G37*
G36*
X293500Y233316D02*
X292805Y233178D01*
X292216Y232784D01*
X291822Y232195D01*
X291684Y231500D01*
X291722Y231308D01*
X280035Y219621D01*
X271393D01*
X271284Y219784D01*
X270695Y220178D01*
X270000Y220316D01*
X269305Y220178D01*
X268716Y219784D01*
X268322Y219195D01*
X268184Y218500D01*
X268322Y217805D01*
X268716Y217216D01*
X269305Y216822D01*
X270000Y216684D01*
X270695Y216822D01*
X271284Y217216D01*
X271393Y217378D01*
X280500D01*
X280500Y217378D01*
X280929Y217464D01*
X281293Y217707D01*
X293308Y229722D01*
X293500Y229684D01*
X294195Y229822D01*
X294784Y230216D01*
X295178Y230805D01*
X295316Y231500D01*
X295178Y232195D01*
X294784Y232784D01*
X294195Y233178D01*
X293500Y233316D01*
D02*
G37*
G36*
X254000Y231500D02*
X252376D01*
X252445Y231149D01*
X252927Y230428D01*
X253649Y229945D01*
X254000Y229876D01*
Y231500D01*
D02*
G37*
G36*
X255000Y234124D02*
Y232000D01*
Y229876D01*
X255351Y229945D01*
X256072Y230428D01*
X256073Y230429D01*
X256574Y230429D01*
X256716Y230216D01*
X257305Y229822D01*
X258000Y229684D01*
X258695Y229822D01*
X259284Y230216D01*
X259678Y230805D01*
X259816Y231500D01*
X259678Y232195D01*
X259284Y232784D01*
X258695Y233178D01*
X258000Y233316D01*
X257305Y233178D01*
X257019Y232987D01*
X256988Y232978D01*
X256381Y233112D01*
X256379Y233114D01*
X256072Y233573D01*
X255351Y234055D01*
X255000Y234124D01*
D02*
G37*
G36*
X284124Y229000D02*
X282500D01*
Y227376D01*
X282851Y227445D01*
X283573Y227927D01*
X284055Y228649D01*
X284124Y229000D01*
D02*
G37*
G36*
X277000Y229500D02*
X275376D01*
X275445Y229149D01*
X275927Y228428D01*
X276649Y227945D01*
X277000Y227876D01*
Y229500D01*
D02*
G37*
G36*
X116500Y235000D02*
X113031D01*
X113103Y234456D01*
X113506Y233483D01*
X114147Y232647D01*
X114983Y232006D01*
X115956Y231603D01*
X116500Y231531D01*
Y235000D01*
D02*
G37*
G36*
X120969D02*
X117500D01*
Y231531D01*
X118044Y231603D01*
X119017Y232006D01*
X119853Y232647D01*
X120494Y233483D01*
X120897Y234456D01*
X120969Y235000D01*
D02*
G37*
G36*
X263000Y231622D02*
X262571Y231536D01*
X262207Y231293D01*
X261692Y230778D01*
X261500Y230816D01*
X260805Y230678D01*
X260216Y230284D01*
X259822Y229695D01*
X259684Y229000D01*
X259822Y228305D01*
X260216Y227716D01*
X260805Y227322D01*
X261500Y227184D01*
X262195Y227322D01*
X262784Y227716D01*
X263178Y228305D01*
X263567Y228466D01*
X263571Y228464D01*
X264000Y228379D01*
X268107D01*
X268216Y228216D01*
X268805Y227822D01*
X269500Y227684D01*
X270195Y227822D01*
X270784Y228216D01*
X271178Y228805D01*
X271316Y229500D01*
X271178Y230195D01*
X270784Y230784D01*
X270195Y231178D01*
X269500Y231316D01*
X268805Y231178D01*
X268216Y230784D01*
X268107Y230622D01*
X264465D01*
X263793Y231293D01*
X263429Y231536D01*
X263000Y231622D01*
D02*
G37*
G36*
X282500Y231624D02*
Y230000D01*
X284124D01*
X284055Y230351D01*
X283573Y231072D01*
X282851Y231555D01*
X282500Y231624D01*
D02*
G37*
G36*
X277000Y232124D02*
X276649Y232055D01*
X275927Y231573D01*
X275445Y230851D01*
X275376Y230500D01*
X277000D01*
Y232124D01*
D02*
G37*
G36*
X182000Y454316D02*
X181305Y454178D01*
X180716Y453784D01*
X180322Y453195D01*
X180184Y452500D01*
X180322Y451805D01*
X180716Y451216D01*
X180878Y451107D01*
Y411878D01*
X145235Y376235D01*
X145043Y376273D01*
X144348Y376134D01*
X143759Y375741D01*
X143366Y375152D01*
X143227Y374457D01*
X143366Y373762D01*
X143759Y373173D01*
X144348Y372779D01*
X145043Y372641D01*
X145738Y372779D01*
X146327Y373173D01*
X146721Y373762D01*
X146859Y374457D01*
X146821Y374648D01*
X182793Y410620D01*
X182793Y410620D01*
X183036Y410984D01*
X183122Y411413D01*
Y451107D01*
X183284Y451216D01*
X183678Y451805D01*
X183816Y452500D01*
X183678Y453195D01*
X183284Y453784D01*
X182695Y454178D01*
X182000Y454316D01*
D02*
G37*
G36*
X122500Y385141D02*
X121681Y384978D01*
X120986Y384514D01*
X120522Y383819D01*
X120359Y383000D01*
X120522Y382181D01*
X120986Y381486D01*
X121859Y380613D01*
Y377711D01*
X121691Y377576D01*
X121359Y377401D01*
X121059Y377461D01*
X118559D01*
Y373441D01*
Y369421D01*
X121059D01*
X121359Y369481D01*
X121691Y369306D01*
X121859Y369171D01*
Y364981D01*
X121359Y364882D01*
X121204Y365257D01*
X120627Y366008D01*
X119875Y366585D01*
X118999Y366948D01*
X118059Y367072D01*
X117119Y366948D01*
X116244Y366585D01*
X115491Y366008D01*
X114915Y365257D01*
X114552Y364381D01*
X114428Y363441D01*
X114552Y362501D01*
X114915Y361625D01*
X115491Y360873D01*
X116244Y360296D01*
X117119Y359934D01*
X118059Y359810D01*
X118999Y359934D01*
X119875Y360296D01*
X120627Y360873D01*
X121204Y361625D01*
X121359Y362000D01*
X121859Y361901D01*
Y360887D01*
X116986Y356014D01*
X116522Y355319D01*
X116359Y354500D01*
X116522Y353681D01*
X116986Y352986D01*
X117681Y352522D01*
X118500Y352359D01*
X119319Y352522D01*
X120014Y352986D01*
X120163Y353135D01*
X120284Y353216D01*
X120365Y353337D01*
X125514Y358486D01*
X125978Y359181D01*
X126141Y360000D01*
Y381500D01*
X125978Y382319D01*
X125514Y383014D01*
X124014Y384514D01*
X123319Y384978D01*
X122500Y385141D01*
D02*
G37*
G36*
X117559Y377461D02*
X115059D01*
X114669Y377383D01*
X114338Y377162D01*
X114117Y376831D01*
X114040Y376441D01*
Y373941D01*
X117559D01*
Y377461D01*
D02*
G37*
G36*
X186500Y363816D02*
X185805Y363678D01*
X185216Y363284D01*
X184822Y362695D01*
X184684Y362000D01*
X184822Y361305D01*
X185216Y360716D01*
X185805Y360322D01*
X186500Y360184D01*
X187195Y360322D01*
X187279Y360379D01*
X196107D01*
X196216Y360216D01*
X196805Y359822D01*
X197500Y359684D01*
X198195Y359822D01*
X198784Y360216D01*
X199178Y360805D01*
X199316Y361500D01*
X199178Y362195D01*
X198784Y362784D01*
X198195Y363178D01*
X197500Y363316D01*
X196805Y363178D01*
X196216Y362784D01*
X196107Y362621D01*
X188192D01*
X188178Y362695D01*
X187784Y363284D01*
X187195Y363678D01*
X186500Y363816D01*
D02*
G37*
G36*
X117559Y372941D02*
X114040D01*
Y370441D01*
X114117Y370051D01*
X114338Y369720D01*
X114669Y369499D01*
X115059Y369421D01*
X117559D01*
Y372941D01*
D02*
G37*
G36*
X117610Y393201D02*
X109618D01*
X109733Y392035D01*
X110219Y390432D01*
X111009Y388956D01*
X112071Y387661D01*
X113365Y386599D01*
X114842Y385810D01*
X116444Y385324D01*
X117610Y385209D01*
Y393201D01*
D02*
G37*
G36*
Y402193D02*
X116444Y402078D01*
X114842Y401592D01*
X113365Y400803D01*
X112071Y399740D01*
X111009Y398446D01*
X110219Y396969D01*
X109733Y395367D01*
X109618Y394201D01*
X117610D01*
Y402193D01*
D02*
G37*
G36*
X118610D02*
Y394201D01*
X126602D01*
X126487Y395367D01*
X126001Y396969D01*
X125212Y398446D01*
X124150Y399740D01*
X122855Y400803D01*
X121379Y401592D01*
X119776Y402078D01*
X118610Y402193D01*
D02*
G37*
G36*
X372665Y393201D02*
X364673D01*
Y385209D01*
X365840Y385324D01*
X367442Y385810D01*
X368918Y386599D01*
X370213Y387661D01*
X371275Y388956D01*
X372064Y390432D01*
X372550Y392035D01*
X372665Y393201D01*
D02*
G37*
G36*
X126602D02*
X118610D01*
Y385209D01*
X119776Y385324D01*
X121379Y385810D01*
X122855Y386599D01*
X124150Y387661D01*
X125212Y388956D01*
X126001Y390432D01*
X126487Y392035D01*
X126602Y393201D01*
D02*
G37*
G36*
X363673D02*
X355681D01*
X355796Y392035D01*
X356282Y390432D01*
X357071Y388956D01*
X358134Y387661D01*
X359428Y386599D01*
X360905Y385810D01*
X362507Y385324D01*
X363673Y385209D01*
Y393201D01*
D02*
G37*
G36*
X121969Y335000D02*
X118500D01*
Y331531D01*
X119044Y331603D01*
X120017Y332006D01*
X120853Y332647D01*
X121494Y333483D01*
X121897Y334456D01*
X121969Y335000D01*
D02*
G37*
G36*
X117500Y339469D02*
X116956Y339397D01*
X115983Y338994D01*
X115147Y338353D01*
X114506Y337517D01*
X114103Y336544D01*
X114031Y336000D01*
X117500D01*
Y339469D01*
D02*
G37*
G36*
Y335000D02*
X114031D01*
X114103Y334456D01*
X114506Y333483D01*
X115147Y332647D01*
X115983Y332006D01*
X116956Y331603D01*
X117500Y331531D01*
Y335000D01*
D02*
G37*
G36*
X249000Y321816D02*
X248305Y321678D01*
X247716Y321284D01*
X247322Y320695D01*
X247184Y320000D01*
X247185Y319997D01*
X238426Y311238D01*
X238183Y310874D01*
X238157Y310743D01*
X237635Y310222D01*
X233423D01*
X233423Y310222D01*
X232994Y310136D01*
X232630Y309893D01*
X232630Y309893D01*
X231107Y308370D01*
X230864Y308006D01*
X230778Y307577D01*
X230779Y307577D01*
Y303365D01*
X194035Y266621D01*
X151393D01*
X151284Y266784D01*
X150695Y267178D01*
X150000Y267316D01*
X149305Y267178D01*
X148716Y266784D01*
X148322Y266195D01*
X148184Y265500D01*
X148322Y264805D01*
X148716Y264216D01*
X149305Y263822D01*
X150000Y263684D01*
X150695Y263822D01*
X151284Y264216D01*
X151393Y264378D01*
X194500D01*
X194500Y264378D01*
X194929Y264464D01*
X195293Y264707D01*
X232693Y302107D01*
X232693Y302107D01*
X232936Y302471D01*
X233022Y302900D01*
X233021Y302900D01*
Y304432D01*
X233463Y304668D01*
X233681Y304522D01*
X234500Y304359D01*
X236613D01*
X238298Y302674D01*
X238051Y302214D01*
X238000Y302224D01*
X237149Y302055D01*
X236427Y301572D01*
X235945Y300851D01*
X235876Y300500D01*
X240124D01*
X240055Y300851D01*
X239679Y301413D01*
X239965Y301866D01*
X240000Y301859D01*
X254656D01*
X260636Y295879D01*
X260445Y295417D01*
X259500D01*
Y292043D01*
X262283D01*
Y293579D01*
X262745Y293770D01*
X263173Y293342D01*
Y288689D01*
X263364Y288230D01*
X263823Y288040D01*
X268350D01*
X268810Y288230D01*
X269368Y288272D01*
X269402Y288216D01*
X269359Y288000D01*
X269522Y287181D01*
X269986Y286486D01*
X270681Y286022D01*
X271500Y285859D01*
X272319Y286022D01*
X273014Y286486D01*
X275524Y288996D01*
X277764D01*
X278223Y289187D01*
X278413Y289646D01*
Y295354D01*
X278223Y295813D01*
X277764Y296004D01*
X277641D01*
Y296613D01*
X281887Y300859D01*
X298000D01*
X298819Y301022D01*
X299514Y301486D01*
X299978Y302181D01*
X300141Y303000D01*
X299978Y303819D01*
X299514Y304514D01*
X298819Y304978D01*
X298000Y305141D01*
X281000D01*
X280181Y304978D01*
X279486Y304514D01*
X273986Y299014D01*
X273522Y298319D01*
X273359Y297500D01*
Y296004D01*
X273236D01*
X272777Y295813D01*
X272587Y295354D01*
Y294641D01*
X268899D01*
X268810Y294857D01*
X268350Y295047D01*
X267524D01*
X257057Y305514D01*
X256363Y305978D01*
X255543Y306141D01*
X240887D01*
X239151Y307878D01*
X239028Y308081D01*
X239095Y308392D01*
X239459Y308652D01*
X239995Y308546D01*
X240216Y308216D01*
X240805Y307822D01*
X241500Y307684D01*
X242195Y307822D01*
X242784Y308216D01*
X242893Y308379D01*
X245274D01*
X245274Y308378D01*
X245703Y308464D01*
X246067Y308707D01*
X246838Y309478D01*
X247259Y309350D01*
X247342Y309275D01*
X247716Y308716D01*
X248305Y308322D01*
X249000Y308184D01*
X249192Y308222D01*
X249207Y308207D01*
X249207Y308207D01*
X249571Y307964D01*
X250000Y307878D01*
X259107D01*
X259216Y307716D01*
X259805Y307322D01*
X260500Y307184D01*
X261195Y307322D01*
X261784Y307716D01*
X262178Y308305D01*
X262316Y309000D01*
X262178Y309695D01*
X261784Y310284D01*
X261195Y310678D01*
X260500Y310816D01*
X259805Y310678D01*
X259216Y310284D01*
X259107Y310121D01*
X251281D01*
X251221Y310218D01*
X251462Y310776D01*
X251695Y310822D01*
X252284Y311216D01*
X252678Y311805D01*
X252816Y312500D01*
X252678Y313195D01*
X252284Y313784D01*
X251695Y314178D01*
X251000Y314316D01*
X250305Y314178D01*
X249716Y313784D01*
X249461Y313403D01*
X248055D01*
X248055Y313403D01*
X247626Y313317D01*
X247262Y313074D01*
X244810Y310622D01*
X242893D01*
X242784Y310784D01*
X242225Y311158D01*
X242149Y311241D01*
X242022Y311662D01*
X248620Y318260D01*
X249000Y318184D01*
X249695Y318322D01*
X250284Y318716D01*
X250678Y319305D01*
X250816Y320000D01*
X250678Y320695D01*
X250284Y321284D01*
X249695Y321678D01*
X249000Y321816D01*
D02*
G37*
G36*
X137795Y336462D02*
X137100Y336323D01*
X136511Y335930D01*
X136117Y335341D01*
X135979Y334646D01*
X136117Y333951D01*
X136511Y333362D01*
X137100Y332968D01*
X137795Y332830D01*
X137987Y332868D01*
X145860Y324995D01*
X145822Y324803D01*
X145960Y324108D01*
X146354Y323519D01*
X146943Y323125D01*
X147638Y322987D01*
X148333Y323125D01*
X148922Y323519D01*
X149316Y324108D01*
X149454Y324803D01*
X149316Y325498D01*
X148922Y326087D01*
X148333Y326481D01*
X147638Y326619D01*
X147446Y326581D01*
X139573Y334454D01*
X139611Y334646D01*
X139473Y335341D01*
X139079Y335930D01*
X138490Y336323D01*
X137795Y336462D01*
D02*
G37*
G36*
X118500Y339469D02*
Y336000D01*
X121969D01*
X121897Y336544D01*
X121494Y337517D01*
X120853Y338353D01*
X120017Y338994D01*
X119044Y339397D01*
X118500Y339469D01*
D02*
G37*
G36*
X262000Y351316D02*
X261305Y351178D01*
X260716Y350784D01*
X260322Y350195D01*
X260184Y349500D01*
X260222Y349308D01*
X251181Y340267D01*
X250638Y340431D01*
X250555Y340851D01*
X250073Y341572D01*
X249351Y342055D01*
X249000Y342124D01*
Y340000D01*
X248500D01*
Y339500D01*
X246376D01*
X246445Y339149D01*
X246927Y338427D01*
X247649Y337945D01*
X248069Y337862D01*
X248233Y337319D01*
X201035Y290122D01*
X132692D01*
X132678Y290195D01*
X132284Y290784D01*
X131695Y291178D01*
X131000Y291316D01*
X130305Y291178D01*
X129716Y290784D01*
X129574Y290572D01*
X129074Y290724D01*
Y293883D01*
X129237Y293991D01*
X129630Y294581D01*
X129769Y295276D01*
X129630Y295971D01*
X129237Y296560D01*
X128648Y296953D01*
X127953Y297092D01*
X127258Y296953D01*
X126669Y296560D01*
X126275Y295971D01*
X126137Y295276D01*
X126275Y294581D01*
X126669Y293991D01*
X126831Y293883D01*
Y265748D01*
X126917Y265319D01*
X127160Y264955D01*
X127524Y264712D01*
X127953Y264627D01*
X136674D01*
Y257298D01*
X136511Y257190D01*
X136117Y256600D01*
X135979Y255906D01*
X136117Y255211D01*
X136511Y254621D01*
X137100Y254228D01*
X137795Y254089D01*
X138490Y254228D01*
X139079Y254621D01*
X139473Y255211D01*
X139611Y255906D01*
X139473Y256600D01*
X139079Y257190D01*
X138917Y257298D01*
Y265748D01*
X138831Y266177D01*
X138588Y266541D01*
X138224Y266784D01*
X137795Y266870D01*
X129074D01*
Y288276D01*
X129574Y288428D01*
X129716Y288216D01*
X130305Y287822D01*
X131000Y287684D01*
X131695Y287822D01*
X131779Y287878D01*
X201500D01*
X201500Y287878D01*
X201929Y287964D01*
X202293Y288207D01*
X261808Y347722D01*
X262000Y347684D01*
X262695Y347822D01*
X263284Y348216D01*
X263678Y348805D01*
X263816Y349500D01*
X263678Y350195D01*
X263284Y350784D01*
X262695Y351178D01*
X262000Y351316D01*
D02*
G37*
G36*
X239900Y358716D02*
X239205Y358578D01*
X238616Y358184D01*
X238222Y357595D01*
X238084Y356900D01*
X238122Y356708D01*
X224135Y342722D01*
X213837D01*
X213408Y342636D01*
X213044Y342393D01*
X213044Y342393D01*
X199695Y329044D01*
X199223Y329155D01*
X199162Y329218D01*
X198784Y329784D01*
X198195Y330178D01*
X197500Y330316D01*
X196805Y330178D01*
X196216Y329784D01*
X196107Y329622D01*
X192500D01*
X192500Y329622D01*
X192071Y329536D01*
X191707Y329293D01*
X191707Y329293D01*
X186707Y324293D01*
X186464Y323929D01*
X186378Y323500D01*
X186378Y323500D01*
Y322893D01*
X186216Y322784D01*
X185822Y322195D01*
X185684Y321500D01*
X185822Y320805D01*
X186216Y320216D01*
X186805Y319822D01*
X187500Y319684D01*
X188195Y319822D01*
X188784Y320216D01*
X189178Y320805D01*
X189316Y321500D01*
X189178Y322195D01*
X188784Y322784D01*
X188895Y323309D01*
X192965Y327379D01*
X196107D01*
X196216Y327216D01*
X196782Y326838D01*
X196845Y326778D01*
X196956Y326305D01*
X176054Y305403D01*
X175555D01*
X175555Y305403D01*
X175126Y305317D01*
X174762Y305074D01*
X172310Y302622D01*
X151266D01*
X151115Y303121D01*
X151573Y303428D01*
X152055Y304149D01*
X152124Y304500D01*
X147876D01*
X147945Y304149D01*
X148427Y303428D01*
X148885Y303121D01*
X148734Y302622D01*
X146266D01*
X146115Y303121D01*
X146572Y303428D01*
X147055Y304149D01*
X147124Y304500D01*
X142876D01*
X142946Y304149D01*
X143428Y303428D01*
X143885Y303121D01*
X143734Y302622D01*
X133692D01*
X133678Y302695D01*
X133284Y303284D01*
X132695Y303678D01*
X132000Y303816D01*
X131305Y303678D01*
X130716Y303284D01*
X130322Y302695D01*
X130184Y302000D01*
X130322Y301305D01*
X130716Y300716D01*
X131305Y300322D01*
X132000Y300184D01*
X132695Y300322D01*
X132779Y300378D01*
X172774D01*
X172774Y300378D01*
X173203Y300464D01*
X173567Y300707D01*
X173980Y301120D01*
X174554Y300987D01*
X174927Y300428D01*
X175649Y299945D01*
X176000Y299876D01*
Y302000D01*
X176500D01*
Y302500D01*
X178624D01*
X178554Y302851D01*
X178073Y303573D01*
X177995Y303625D01*
X177945Y304122D01*
X214302Y340478D01*
X224600D01*
X224600Y340478D01*
X225029Y340564D01*
X225393Y340807D01*
X239708Y355122D01*
X239900Y355084D01*
X240595Y355222D01*
X241184Y355616D01*
X241578Y356205D01*
X241716Y356900D01*
X241578Y357595D01*
X241184Y358184D01*
X240595Y358578D01*
X239900Y358716D01*
D02*
G37*
G36*
X121000Y349149D02*
X115000D01*
X114541Y348959D01*
X114351Y348500D01*
Y342500D01*
X114541Y342041D01*
X115000Y341851D01*
X121000D01*
X121459Y342041D01*
X121649Y342500D01*
Y348500D01*
X121459Y348959D01*
X121000Y349149D01*
D02*
G37*
G36*
X150980Y374816D02*
X150285Y374678D01*
X149696Y374284D01*
X149302Y373695D01*
X149164Y373000D01*
X149302Y372305D01*
X149696Y371716D01*
X150285Y371322D01*
X150980Y371184D01*
X151675Y371322D01*
X152264Y371716D01*
X152373Y371879D01*
X168976D01*
X198663Y342192D01*
X198625Y342000D01*
X198763Y341305D01*
X199157Y340716D01*
X199746Y340322D01*
X200441Y340184D01*
X201136Y340322D01*
X201725Y340716D01*
X202119Y341305D01*
X202257Y342000D01*
X202119Y342695D01*
X201725Y343284D01*
X201136Y343678D01*
X200441Y343816D01*
X200249Y343778D01*
X170234Y373793D01*
X169870Y374036D01*
X169441Y374122D01*
X169441Y374121D01*
X152373D01*
X152264Y374284D01*
X151675Y374678D01*
X150980Y374816D01*
D02*
G37*
G36*
X248000Y342124D02*
X247649Y342055D01*
X246927Y341572D01*
X246445Y340851D01*
X246376Y340500D01*
X248000D01*
Y342124D01*
D02*
G37*
G36*
X254437Y480390D02*
X248437D01*
X247978Y480199D01*
X247788Y479740D01*
Y473740D01*
X247978Y473281D01*
X248437Y473091D01*
X254437D01*
X254896Y473281D01*
X255086Y473740D01*
Y479740D01*
X254896Y480199D01*
X254437Y480390D01*
D02*
G37*
G36*
X221437Y480371D02*
X220497Y480247D01*
X219621Y479885D01*
X218869Y479308D01*
X218292Y478556D01*
X217930Y477680D01*
X217806Y476740D01*
X217930Y475800D01*
X218292Y474925D01*
X218869Y474173D01*
X219621Y473596D01*
X220497Y473233D01*
X221437Y473109D01*
X222377Y473233D01*
X223253Y473596D01*
X224005Y474173D01*
X224582Y474925D01*
X224944Y475800D01*
X225068Y476740D01*
X224944Y477680D01*
X224582Y478556D01*
X224005Y479308D01*
X223253Y479885D01*
X222377Y480247D01*
X221437Y480371D01*
D02*
G37*
G36*
X148000Y480131D02*
X147060Y480007D01*
X146185Y479645D01*
X145432Y479068D01*
X144855Y478315D01*
X144493Y477440D01*
X144369Y476500D01*
X144493Y475560D01*
X144855Y474684D01*
X145432Y473932D01*
X146185Y473355D01*
X147060Y472993D01*
X148000Y472869D01*
X148940Y472993D01*
X149815Y473355D01*
X150568Y473932D01*
X151145Y474684D01*
X151507Y475560D01*
X151631Y476500D01*
X151507Y477440D01*
X151145Y478315D01*
X150568Y479068D01*
X149815Y479645D01*
X148940Y480007D01*
X148000Y480131D01*
D02*
G37*
G36*
X128000D02*
X127060Y480007D01*
X126184Y479645D01*
X125432Y479068D01*
X124855Y478315D01*
X124493Y477440D01*
X124369Y476500D01*
X124493Y475560D01*
X124855Y474684D01*
X125432Y473932D01*
X126184Y473355D01*
X127060Y472993D01*
X128000Y472869D01*
X128940Y472993D01*
X129815Y473355D01*
X130568Y473932D01*
X131145Y474684D01*
X131507Y475560D01*
X131631Y476500D01*
X131507Y477440D01*
X131145Y478315D01*
X130568Y479068D01*
X129815Y479645D01*
X128940Y480007D01*
X128000Y480131D01*
D02*
G37*
G36*
X138000D02*
X137060Y480007D01*
X136185Y479645D01*
X135432Y479068D01*
X134855Y478315D01*
X134493Y477440D01*
X134369Y476500D01*
X134493Y475560D01*
X134855Y474684D01*
X135432Y473932D01*
X136185Y473355D01*
X137060Y472993D01*
X138000Y472869D01*
X138940Y472993D01*
X139815Y473355D01*
X140568Y473932D01*
X141145Y474684D01*
X141507Y475560D01*
X141631Y476500D01*
X141507Y477440D01*
X141145Y478315D01*
X140568Y479068D01*
X139815Y479645D01*
X138940Y480007D01*
X138000Y480131D01*
D02*
G37*
G36*
X231437Y480371D02*
X230497Y480247D01*
X229622Y479885D01*
X228870Y479308D01*
X228292Y478556D01*
X227930Y477680D01*
X227806Y476740D01*
X227930Y475800D01*
X228292Y474925D01*
X228870Y474173D01*
X229622Y473596D01*
X230497Y473233D01*
X231437Y473109D01*
X232377Y473233D01*
X233253Y473596D01*
X234005Y474173D01*
X234582Y474925D01*
X234944Y475800D01*
X235068Y476740D01*
X234944Y477680D01*
X234582Y478556D01*
X234005Y479308D01*
X233253Y479885D01*
X232377Y480247D01*
X231437Y480371D01*
D02*
G37*
G36*
X325000Y480631D02*
X324060Y480507D01*
X323184Y480145D01*
X322432Y479568D01*
X321855Y478816D01*
X321493Y477940D01*
X321369Y477000D01*
X321493Y476060D01*
X321855Y475184D01*
X322432Y474432D01*
X323184Y473855D01*
X324060Y473493D01*
X325000Y473369D01*
X325940Y473493D01*
X326816Y473855D01*
X327568Y474432D01*
X328145Y475184D01*
X328507Y476060D01*
X328631Y477000D01*
X328507Y477940D01*
X328145Y478816D01*
X327568Y479568D01*
X326816Y480145D01*
X325940Y480507D01*
X325000Y480631D01*
D02*
G37*
G36*
X335000D02*
X334060Y480507D01*
X333185Y480145D01*
X332433Y479568D01*
X331855Y478816D01*
X331493Y477940D01*
X331369Y477000D01*
X331493Y476060D01*
X331855Y475184D01*
X332433Y474432D01*
X333185Y473855D01*
X334060Y473493D01*
X335000Y473369D01*
X335940Y473493D01*
X336816Y473855D01*
X337567Y474432D01*
X338145Y475184D01*
X338507Y476060D01*
X338631Y477000D01*
X338507Y477940D01*
X338145Y478816D01*
X337567Y479568D01*
X336816Y480145D01*
X335940Y480507D01*
X335000Y480631D01*
D02*
G37*
G36*
X315000D02*
X314060Y480507D01*
X313184Y480145D01*
X312433Y479568D01*
X311855Y478816D01*
X311493Y477940D01*
X311369Y477000D01*
X311493Y476060D01*
X311855Y475184D01*
X312433Y474432D01*
X313184Y473855D01*
X314060Y473493D01*
X315000Y473369D01*
X315940Y473493D01*
X316815Y473855D01*
X317567Y474432D01*
X318145Y475184D01*
X318507Y476060D01*
X318631Y477000D01*
X318507Y477940D01*
X318145Y478816D01*
X317567Y479568D01*
X316815Y480145D01*
X315940Y480507D01*
X315000Y480631D01*
D02*
G37*
G36*
X241437Y480371D02*
X240497Y480247D01*
X239621Y479885D01*
X238870Y479308D01*
X238292Y478556D01*
X237930Y477680D01*
X237806Y476740D01*
X237930Y475800D01*
X238292Y474925D01*
X238870Y474173D01*
X239621Y473596D01*
X240497Y473233D01*
X241437Y473109D01*
X242377Y473233D01*
X243253Y473596D01*
X244005Y474173D01*
X244582Y474925D01*
X244944Y475800D01*
X245068Y476740D01*
X244944Y477680D01*
X244582Y478556D01*
X244005Y479308D01*
X243253Y479885D01*
X242377Y480247D01*
X241437Y480371D01*
D02*
G37*
G36*
X348000Y480649D02*
X342000D01*
X341541Y480459D01*
X341351Y480000D01*
Y474000D01*
X341541Y473541D01*
X342000Y473351D01*
X348000D01*
X348459Y473541D01*
X348649Y474000D01*
Y480000D01*
X348459Y480459D01*
X348000Y480649D01*
D02*
G37*
G36*
X165000Y418816D02*
X164305Y418678D01*
X163716Y418284D01*
X163322Y417695D01*
X163184Y417000D01*
X163222Y416808D01*
X159207Y412793D01*
X158964Y412429D01*
X158878Y412000D01*
X158964Y411571D01*
X159207Y411207D01*
X159378Y411035D01*
Y410393D01*
X159216Y410284D01*
X158822Y409695D01*
X158684Y409000D01*
X158822Y408305D01*
X159216Y407716D01*
X159805Y407322D01*
X160500Y407184D01*
X161195Y407322D01*
X161784Y407716D01*
X162178Y408305D01*
X162316Y409000D01*
X162178Y409695D01*
X161784Y410284D01*
X161622Y410393D01*
Y411500D01*
X161622Y411500D01*
X161536Y411929D01*
X161528Y411942D01*
X164808Y415222D01*
X165000Y415184D01*
X165695Y415322D01*
X166284Y415716D01*
X166678Y416305D01*
X166816Y417000D01*
X166678Y417695D01*
X166284Y418284D01*
X165695Y418678D01*
X165000Y418816D01*
D02*
G37*
G36*
X170063Y459076D02*
X169368Y458938D01*
X168779Y458544D01*
X168385Y457955D01*
X168247Y457260D01*
X168385Y456565D01*
X168779Y455976D01*
X168941Y455867D01*
Y445652D01*
X168779Y445544D01*
X168385Y444955D01*
X168247Y444260D01*
X168385Y443565D01*
X168779Y442976D01*
X169368Y442582D01*
X170063Y442444D01*
X170758Y442582D01*
X171347Y442976D01*
X171741Y443565D01*
X171879Y444260D01*
X171741Y444955D01*
X171347Y445544D01*
X171185Y445652D01*
Y455867D01*
X171347Y455976D01*
X171741Y456565D01*
X171879Y457260D01*
X171741Y457955D01*
X171347Y458544D01*
X170758Y458938D01*
X170063Y459076D01*
D02*
G37*
G36*
X261500Y419316D02*
X260805Y419178D01*
X260216Y418784D01*
X259822Y418195D01*
X259684Y417500D01*
X259822Y416805D01*
X260216Y416216D01*
X260805Y415822D01*
X260878Y415808D01*
Y408893D01*
X260716Y408784D01*
X260322Y408195D01*
X260184Y407500D01*
X260322Y406805D01*
X260716Y406216D01*
X261305Y405822D01*
X262000Y405684D01*
X262695Y405822D01*
X263284Y406216D01*
X263678Y406805D01*
X263816Y407500D01*
X263678Y408195D01*
X263284Y408784D01*
X263122Y408893D01*
Y415535D01*
X263293Y415707D01*
X263536Y416071D01*
X263622Y416500D01*
X263536Y416929D01*
X263293Y417293D01*
X263293Y417293D01*
X263278Y417308D01*
X263316Y417500D01*
X263178Y418195D01*
X262784Y418784D01*
X262195Y419178D01*
X261500Y419316D01*
D02*
G37*
G36*
X363673Y402193D02*
X362507Y402078D01*
X360905Y401592D01*
X359428Y400803D01*
X358134Y399740D01*
X357071Y398446D01*
X356282Y396969D01*
X355796Y395367D01*
X355681Y394201D01*
X363673D01*
Y402193D01*
D02*
G37*
G36*
X364673D02*
Y394201D01*
X372665D01*
X372550Y395367D01*
X372064Y396969D01*
X371275Y398446D01*
X370213Y399740D01*
X368918Y400803D01*
X367442Y401592D01*
X365840Y402078D01*
X364673Y402193D01*
D02*
G37*
G36*
X263500Y459316D02*
X262805Y459178D01*
X262216Y458784D01*
X261822Y458195D01*
X261684Y457500D01*
X261822Y456805D01*
X262216Y456216D01*
X262379Y456107D01*
Y445893D01*
X262216Y445784D01*
X261822Y445195D01*
X261684Y444500D01*
X261822Y443805D01*
X262216Y443216D01*
X262805Y442822D01*
X263500Y442684D01*
X264195Y442822D01*
X264784Y443216D01*
X265178Y443805D01*
X265316Y444500D01*
X265178Y445195D01*
X264784Y445784D01*
X264621Y445893D01*
Y456107D01*
X264784Y456216D01*
X265178Y456805D01*
X265316Y457500D01*
X265178Y458195D01*
X264784Y458784D01*
X264195Y459178D01*
X263500Y459316D01*
D02*
G37*
G36*
X352500Y470316D02*
X351805Y470178D01*
X351216Y469784D01*
X350822Y469195D01*
X350684Y468500D01*
X350722Y468308D01*
X348317Y465903D01*
X340781D01*
X340352Y465817D01*
X339988Y465574D01*
X339988Y465574D01*
X338714Y464300D01*
X338604Y464136D01*
X338055Y463983D01*
X337972Y463993D01*
X337695Y464178D01*
X337000Y464316D01*
X336305Y464178D01*
X335716Y463784D01*
X335607Y463622D01*
X323629D01*
X323347Y464044D01*
X322758Y464438D01*
X322063Y464576D01*
X321368Y464438D01*
X320779Y464044D01*
X320385Y463455D01*
X320247Y462760D01*
X320291Y462540D01*
X320063Y462076D01*
X319368Y461938D01*
X318779Y461544D01*
X318385Y460955D01*
X318247Y460260D01*
X318385Y459565D01*
X318779Y458976D01*
X319368Y458582D01*
X320063Y458444D01*
X320758Y458582D01*
X321347Y458976D01*
X321456Y459138D01*
X326871D01*
X326885Y459065D01*
X327279Y458476D01*
X327868Y458082D01*
X328563Y457944D01*
X329258Y458082D01*
X329847Y458476D01*
X330241Y459065D01*
X330379Y459760D01*
X330241Y460455D01*
X329958Y460878D01*
X330178Y461378D01*
X331678D01*
X331945Y460878D01*
X331822Y460695D01*
X331684Y460000D01*
X331822Y459305D01*
X332216Y458716D01*
X332805Y458322D01*
X333500Y458184D01*
X334195Y458322D01*
X334784Y458716D01*
X334893Y458878D01*
X336913D01*
X337104Y458417D01*
X333809Y455122D01*
X308393D01*
X308284Y455284D01*
X307695Y455678D01*
X307000Y455816D01*
X306305Y455678D01*
X305716Y455284D01*
X305322Y454695D01*
X305184Y454000D01*
X305322Y453305D01*
X305716Y452716D01*
X306305Y452322D01*
X307000Y452184D01*
X307695Y452322D01*
X308284Y452716D01*
X308393Y452878D01*
X334274D01*
X334274Y452878D01*
X334703Y452964D01*
X335067Y453207D01*
X340838Y458978D01*
X341259Y458850D01*
X341342Y458775D01*
X341716Y458216D01*
X341879Y458107D01*
Y442161D01*
X328051Y428334D01*
X327808Y427970D01*
X327790Y427881D01*
X327235Y427651D01*
X327195Y427678D01*
X326500Y427816D01*
X325805Y427678D01*
X325216Y427284D01*
X325107Y427122D01*
X320493D01*
X320379Y427260D01*
X320241Y427955D01*
X319847Y428544D01*
X319258Y428938D01*
X318563Y429076D01*
X317868Y428938D01*
X317279Y428544D01*
X316885Y427955D01*
X316747Y427260D01*
X316885Y426565D01*
X317279Y425976D01*
X317868Y425582D01*
X318563Y425444D01*
X318755Y425482D01*
X319030Y425207D01*
X319030Y425207D01*
X319394Y424964D01*
X319823Y424878D01*
X325107D01*
X325216Y424716D01*
X325463Y424551D01*
Y423949D01*
X325216Y423784D01*
X324822Y423195D01*
X324684Y422500D01*
X324822Y421805D01*
X325216Y421216D01*
X325378Y421107D01*
Y289465D01*
X305757Y269843D01*
X305626Y269817D01*
X305262Y269574D01*
X305019Y269210D01*
X304934Y268781D01*
X305019Y268352D01*
X305262Y267988D01*
X308379Y264872D01*
Y256239D01*
X307480Y255341D01*
X306445D01*
X306445Y255341D01*
X306016Y255255D01*
X305652Y255012D01*
X305652Y255012D01*
X301542Y250903D01*
X296117D01*
X295925Y251365D01*
X300939Y256379D01*
X302808D01*
X302822Y256305D01*
X303216Y255716D01*
X303805Y255322D01*
X304500Y255184D01*
X305195Y255322D01*
X305784Y255716D01*
X306178Y256305D01*
X306316Y257000D01*
X306178Y257695D01*
X305784Y258284D01*
X305195Y258678D01*
X304500Y258816D01*
X303805Y258678D01*
X303721Y258622D01*
X300475D01*
X300475Y258622D01*
X300045Y258536D01*
X299681Y258293D01*
X299681Y258293D01*
X293789Y252400D01*
X293327Y252592D01*
Y253000D01*
X290043D01*
X286760D01*
Y251936D01*
X286298Y251745D01*
X285870Y252173D01*
Y256354D01*
X285680Y256814D01*
X285221Y257004D01*
X285098D01*
Y258496D01*
X285221D01*
X285680Y258686D01*
X285870Y259146D01*
Y264854D01*
X285680Y265314D01*
X285221Y265504D01*
X285098D01*
Y267171D01*
X285136Y267186D01*
X285327Y267646D01*
Y273354D01*
X285136Y273814D01*
X284677Y274004D01*
X284555D01*
Y276496D01*
X284677D01*
X285136Y276687D01*
X285327Y277146D01*
Y282854D01*
X285136Y283313D01*
X284677Y283504D01*
X284641D01*
Y285000D01*
X284478Y285819D01*
X284014Y286514D01*
X283319Y286978D01*
X282500Y287141D01*
X281681Y286978D01*
X280986Y286514D01*
X280522Y285819D01*
X280359Y285000D01*
Y283504D01*
X280150D01*
X279690Y283313D01*
X279500Y282854D01*
Y277146D01*
X279690Y276687D01*
X280150Y276496D01*
X280272D01*
Y274004D01*
X280150D01*
X279690Y273814D01*
X279500Y273354D01*
Y267646D01*
X279690Y267186D01*
X280150Y266996D01*
X280816D01*
Y265504D01*
X280693D01*
X280234Y265314D01*
X280044Y264854D01*
Y263184D01*
X279712Y263043D01*
X279543Y263006D01*
X279244Y263206D01*
X278854Y263283D01*
X276500D01*
Y260000D01*
Y256717D01*
X278854D01*
X279244Y256794D01*
X279575Y257015D01*
X279796Y257346D01*
X279874Y257736D01*
Y258393D01*
X280369Y258626D01*
X280816Y258427D01*
Y257004D01*
X280693D01*
X280234Y256814D01*
X280044Y256354D01*
Y255641D01*
X279302D01*
X278854Y255827D01*
X273146D01*
X272687Y255636D01*
X272496Y255177D01*
Y255054D01*
X268004D01*
Y255177D01*
X267813Y255636D01*
X267354Y255827D01*
X261646D01*
X261187Y255636D01*
X260996Y255177D01*
Y255054D01*
X258957D01*
Y255854D01*
X258766Y256314D01*
X258307Y256504D01*
X257165D01*
Y257996D01*
X258264D01*
X258723Y258187D01*
X258913Y258646D01*
Y264354D01*
X258723Y264813D01*
X258264Y265004D01*
X257121D01*
Y266496D01*
X258350D01*
X258810Y266687D01*
X259000Y267146D01*
Y272854D01*
X258810Y273313D01*
X258350Y273504D01*
X253823D01*
X253364Y273313D01*
X253173Y272854D01*
Y267146D01*
X253364Y266687D01*
X253823Y266496D01*
X254878D01*
Y265004D01*
X253736D01*
X253277Y264813D01*
X253087Y264354D01*
Y258646D01*
X253277Y258187D01*
X253736Y257996D01*
X254922D01*
Y256504D01*
X253780D01*
X253320Y256314D01*
X253130Y255854D01*
Y254122D01*
X252321D01*
X252240Y254188D01*
Y255854D01*
X252162Y256244D01*
X251941Y256575D01*
X251611Y256796D01*
X251220Y256874D01*
X249457D01*
Y253000D01*
X248957D01*
Y252500D01*
X245673D01*
Y250167D01*
X243046D01*
X243046Y250167D01*
X242617Y250082D01*
X242253Y249839D01*
X242253Y249839D01*
X240733Y248319D01*
X240195Y248678D01*
X239500Y248816D01*
X238805Y248678D01*
X238216Y248284D01*
X237822Y247695D01*
X237805Y247606D01*
X237295D01*
X237178Y248195D01*
X236784Y248784D01*
X236195Y249178D01*
X235500Y249316D01*
X234805Y249178D01*
X234216Y248784D01*
X234107Y248622D01*
X231893D01*
X231784Y248784D01*
X231195Y249178D01*
X230500Y249316D01*
X229805Y249178D01*
X229216Y248784D01*
X228822Y248195D01*
X228684Y247500D01*
X228822Y246805D01*
X229216Y246216D01*
X229805Y245822D01*
X230500Y245684D01*
X231195Y245822D01*
X231784Y246216D01*
X231893Y246378D01*
X234107D01*
X234216Y246216D01*
X234805Y245822D01*
X235500Y245684D01*
X235988Y245781D01*
X236234Y245320D01*
X233535Y242621D01*
X232893D01*
X232784Y242784D01*
X232195Y243178D01*
X231500Y243316D01*
X230805Y243178D01*
X230216Y242784D01*
X229822Y242195D01*
X229684Y241500D01*
X229822Y240805D01*
X230216Y240216D01*
X230805Y239822D01*
X231500Y239684D01*
X232195Y239822D01*
X232784Y240216D01*
X232893Y240378D01*
X234000D01*
X234000Y240378D01*
X234429Y240464D01*
X234793Y240707D01*
X239308Y245222D01*
X239500Y245184D01*
X240195Y245322D01*
X240784Y245716D01*
X240893Y245879D01*
X241000D01*
X241000Y245878D01*
X241429Y245964D01*
X241793Y246207D01*
X243510Y247924D01*
X251676D01*
X251676Y247924D01*
X251878Y247964D01*
X252379Y247636D01*
Y239393D01*
X252216Y239284D01*
X251822Y238695D01*
X251684Y238000D01*
X251822Y237305D01*
X252216Y236716D01*
X252805Y236322D01*
X253500Y236184D01*
X254195Y236322D01*
X254784Y236716D01*
X255178Y237305D01*
X255316Y238000D01*
X255178Y238695D01*
X254784Y239284D01*
X254622Y239393D01*
Y249496D01*
X258307D01*
X258766Y249687D01*
X258957Y250146D01*
Y250772D01*
X260996D01*
Y250650D01*
X261187Y250190D01*
X261646Y250000D01*
X262878D01*
Y238393D01*
X262716Y238284D01*
X262322Y237695D01*
X262184Y237000D01*
X262322Y236305D01*
X262716Y235716D01*
X263305Y235322D01*
X264000Y235184D01*
X264695Y235322D01*
X265284Y235716D01*
X265378Y235857D01*
X265879Y235705D01*
Y234000D01*
X265964Y233571D01*
X266207Y233207D01*
X266571Y232964D01*
X267000Y232878D01*
X271308D01*
X271322Y232805D01*
X271716Y232216D01*
X272305Y231822D01*
X273000Y231684D01*
X273695Y231822D01*
X274284Y232216D01*
X274678Y232805D01*
X274816Y233500D01*
X274778Y233689D01*
X275130Y234129D01*
X275161Y234135D01*
X275825Y234267D01*
X276414Y234661D01*
X276808Y235250D01*
X276946Y235945D01*
X276808Y236640D01*
X276414Y237229D01*
X275825Y237623D01*
X275130Y237761D01*
X274435Y237623D01*
X273846Y237229D01*
X273737Y237066D01*
X272020D01*
X271682Y237404D01*
X271778Y237887D01*
X271640Y238582D01*
X271246Y239171D01*
X270657Y239564D01*
X269962Y239703D01*
X269267Y239564D01*
X268678Y239171D01*
X268420Y238784D01*
X268284D01*
X267695Y239178D01*
X267000Y239316D01*
X266305Y239178D01*
X265716Y238784D01*
X265621Y238643D01*
X265122Y238795D01*
Y250000D01*
X267354D01*
X267813Y250190D01*
X268004Y250650D01*
Y250772D01*
X272496D01*
Y250650D01*
X272687Y250190D01*
X273146Y250000D01*
X274879D01*
Y241000D01*
X274878Y241000D01*
X274964Y240571D01*
X275207Y240207D01*
X277521Y237893D01*
X277586Y237568D01*
X277979Y236979D01*
X278568Y236586D01*
X279263Y236447D01*
X279423Y236479D01*
X279669Y236018D01*
X279335Y235684D01*
X279305Y235678D01*
X278716Y235284D01*
X278322Y234695D01*
X278184Y234000D01*
X278322Y233305D01*
X278716Y232716D01*
X279305Y232322D01*
X280000Y232184D01*
X280695Y232322D01*
X281284Y232716D01*
X281678Y233305D01*
X281816Y234000D01*
X281678Y234695D01*
X281614Y234790D01*
X293703Y246879D01*
X293855Y246909D01*
X294218Y247153D01*
X295440Y248374D01*
X295901Y248128D01*
X295876Y248000D01*
X298000D01*
Y247000D01*
X295876D01*
X295927Y246741D01*
X295736Y246451D01*
X295577Y246301D01*
X295500Y246316D01*
X294805Y246178D01*
X294216Y245784D01*
X293822Y245195D01*
X293684Y244500D01*
X293822Y243805D01*
X294216Y243216D01*
X294805Y242822D01*
X295500Y242684D01*
X296195Y242822D01*
X296784Y243216D01*
X296893Y243378D01*
X299000D01*
X299000Y243378D01*
X299429Y243464D01*
X299793Y243707D01*
X305067Y248981D01*
X305305Y248822D01*
X306000Y248684D01*
X306695Y248822D01*
X307284Y249216D01*
X307678Y249805D01*
X307816Y250500D01*
X307678Y251195D01*
X307284Y251784D01*
X306695Y252178D01*
X306627Y252191D01*
X306482Y252670D01*
X306909Y253097D01*
X307945D01*
X307945Y253097D01*
X308374Y253183D01*
X308738Y253426D01*
X310293Y254981D01*
X310536Y255345D01*
X310622Y255774D01*
X310622Y255774D01*
Y265336D01*
X310622Y265336D01*
X310536Y265765D01*
X310293Y266129D01*
X310293Y266129D01*
X307754Y268668D01*
X327293Y288207D01*
X327293Y288207D01*
X327536Y288571D01*
X327622Y289000D01*
Y421107D01*
X327784Y421216D01*
X328178Y421805D01*
X328316Y422500D01*
X328178Y423195D01*
X327784Y423784D01*
X327537Y423949D01*
Y424551D01*
X327784Y424716D01*
X328178Y425305D01*
X328680Y425270D01*
X328868Y425144D01*
X329563Y425006D01*
X330258Y425144D01*
X330847Y425538D01*
X331241Y426127D01*
X331379Y426822D01*
X331241Y427517D01*
X330907Y428017D01*
X343793Y440904D01*
X343793Y440904D01*
X344036Y441268D01*
X344122Y441697D01*
Y458107D01*
X344284Y458216D01*
X344657Y458775D01*
X345155Y458923D01*
X345305Y458822D01*
X346000Y458684D01*
X346695Y458822D01*
X347284Y459216D01*
X347678Y459805D01*
X347816Y460500D01*
X347678Y461195D01*
X347284Y461784D01*
X346695Y462178D01*
X346000Y462316D01*
X345305Y462178D01*
X345203Y462109D01*
X344738Y462574D01*
X344374Y462817D01*
X343945Y462903D01*
X343945Y462903D01*
X342055D01*
X342055Y462903D01*
X341626Y462817D01*
X341262Y462574D01*
X341262Y462574D01*
X341137Y462450D01*
X340685Y462630D01*
X340642Y463056D01*
X341246Y463660D01*
X348781D01*
X348781Y463659D01*
X349210Y463745D01*
X349574Y463988D01*
X352308Y466722D01*
X352500Y466684D01*
X353195Y466822D01*
X353784Y467216D01*
X354178Y467805D01*
X354316Y468500D01*
X354178Y469195D01*
X353784Y469784D01*
X353195Y470178D01*
X352500Y470316D01*
D02*
G37*
G36*
X161000Y480149D02*
X155000D01*
X154541Y479959D01*
X154351Y479500D01*
Y473500D01*
X154541Y473041D01*
X155000Y472851D01*
X161000D01*
X161459Y473041D01*
X161649Y473500D01*
Y479500D01*
X161459Y479959D01*
X161000Y480149D01*
D02*
G37*
G36*
X259437Y470056D02*
X258742Y469918D01*
X258153Y469524D01*
X257759Y468935D01*
X257621Y468240D01*
X257659Y468048D01*
X254497Y464886D01*
X248265D01*
X248265Y464886D01*
X247835Y464801D01*
X247471Y464558D01*
X247471Y464558D01*
X246046Y463133D01*
X245425Y463219D01*
X245221Y463524D01*
X244632Y463918D01*
X243937Y464056D01*
X243242Y463918D01*
X242653Y463524D01*
X242544Y463362D01*
X230566D01*
X230284Y463784D01*
X229695Y464178D01*
X229000Y464316D01*
X228305Y464178D01*
X227716Y463784D01*
X227322Y463195D01*
X227184Y462500D01*
X227228Y462281D01*
X227000Y461816D01*
X226305Y461678D01*
X225716Y461284D01*
X225322Y460695D01*
X225184Y460000D01*
X225322Y459305D01*
X225716Y458716D01*
X226305Y458322D01*
X227000Y458184D01*
X227695Y458322D01*
X228284Y458716D01*
X228393Y458878D01*
X233808D01*
X233822Y458805D01*
X234216Y458216D01*
X234805Y457822D01*
X235500Y457684D01*
X236195Y457822D01*
X236784Y458216D01*
X237178Y458805D01*
X237316Y459500D01*
X237178Y460195D01*
X236895Y460619D01*
X237115Y461119D01*
X238615D01*
X238882Y460619D01*
X238759Y460435D01*
X238621Y459740D01*
X238759Y459045D01*
X239153Y458456D01*
X239742Y458062D01*
X240437Y457924D01*
X241132Y458062D01*
X241721Y458456D01*
X241830Y458619D01*
X243850D01*
X244041Y458157D01*
X241006Y455122D01*
X214393D01*
X214284Y455284D01*
X213695Y455678D01*
X213000Y455816D01*
X212305Y455678D01*
X211716Y455284D01*
X211322Y454695D01*
X211184Y454000D01*
X211322Y453305D01*
X211716Y452716D01*
X212305Y452322D01*
X213000Y452184D01*
X213695Y452322D01*
X214284Y452716D01*
X214393Y452878D01*
X241471D01*
X241471Y452878D01*
X241900Y452964D01*
X242264Y453207D01*
X247775Y458718D01*
X248196Y458591D01*
X248279Y458515D01*
X248653Y457956D01*
X248815Y457847D01*
Y441902D01*
X234988Y428074D01*
X234745Y427710D01*
X234727Y427622D01*
X234172Y427391D01*
X234132Y427418D01*
X233437Y427556D01*
X232742Y427418D01*
X232153Y427024D01*
X232044Y426862D01*
X227430D01*
X227316Y427000D01*
X227178Y427695D01*
X226784Y428284D01*
X226195Y428678D01*
X225500Y428816D01*
X224805Y428678D01*
X224216Y428284D01*
X223822Y427695D01*
X223684Y427000D01*
X223822Y426305D01*
X224216Y425716D01*
X224805Y425322D01*
X225500Y425184D01*
X225692Y425222D01*
X225967Y424947D01*
X225967Y424947D01*
X226331Y424704D01*
X226760Y424619D01*
X232044D01*
X232153Y424456D01*
X232742Y424062D01*
X233437Y423924D01*
X234132Y424062D01*
X234721Y424456D01*
X235115Y425045D01*
X235617Y425010D01*
X235805Y424884D01*
X236500Y424746D01*
X237195Y424884D01*
X237784Y425278D01*
X238178Y425867D01*
X238316Y426562D01*
X238178Y427257D01*
X237843Y427757D01*
X250730Y440644D01*
X250730Y440644D01*
X250973Y441008D01*
X251059Y441437D01*
Y457847D01*
X251221Y457956D01*
X251615Y458545D01*
X251681Y458876D01*
X251782Y459240D01*
X252224Y459239D01*
X252500Y459184D01*
X253195Y459322D01*
X253784Y459716D01*
X254178Y460305D01*
X254316Y461000D01*
X254178Y461695D01*
X253878Y462143D01*
X254078Y462643D01*
X254961D01*
X254961Y462643D01*
X255391Y462728D01*
X255754Y462971D01*
X259245Y466462D01*
X259437Y466424D01*
X260132Y466562D01*
X260721Y466956D01*
X261115Y467545D01*
X261253Y468240D01*
X261115Y468935D01*
X260721Y469524D01*
X260132Y469918D01*
X259437Y470056D01*
D02*
G37*
G36*
X356563Y459576D02*
X355868Y459438D01*
X355279Y459044D01*
X354885Y458455D01*
X354747Y457760D01*
X354885Y457065D01*
X355279Y456476D01*
X355441Y456367D01*
Y446152D01*
X355279Y446044D01*
X354885Y445455D01*
X354747Y444760D01*
X354885Y444065D01*
X355279Y443476D01*
X355868Y443082D01*
X356563Y442944D01*
X357258Y443082D01*
X357847Y443476D01*
X358241Y444065D01*
X358379Y444760D01*
X358241Y445455D01*
X357847Y446044D01*
X357684Y446152D01*
Y456367D01*
X357847Y456476D01*
X358241Y457065D01*
X358379Y457760D01*
X358241Y458455D01*
X357847Y459044D01*
X357258Y459438D01*
X356563Y459576D01*
D02*
G37*
G36*
X166000Y469816D02*
X165305Y469678D01*
X164716Y469284D01*
X164322Y468695D01*
X164184Y468000D01*
X164222Y467808D01*
X158817Y462403D01*
X155555D01*
X155555Y462403D01*
X155126Y462317D01*
X154762Y462074D01*
X154762Y462074D01*
X153310Y460622D01*
X152322D01*
X152055Y461122D01*
X152178Y461305D01*
X152316Y462000D01*
X152178Y462695D01*
X151784Y463284D01*
X151195Y463678D01*
X150500Y463816D01*
X149805Y463678D01*
X149216Y463284D01*
X149107Y463122D01*
X137129D01*
X136847Y463544D01*
X136258Y463938D01*
X135563Y464076D01*
X134868Y463938D01*
X134279Y463544D01*
X133885Y462955D01*
X133747Y462260D01*
X133791Y462040D01*
X133563Y461576D01*
X132868Y461438D01*
X132279Y461044D01*
X131885Y460455D01*
X131747Y459760D01*
X131885Y459065D01*
X132279Y458476D01*
X132868Y458082D01*
X133563Y457944D01*
X134258Y458082D01*
X134847Y458476D01*
X134956Y458638D01*
X140371D01*
X140385Y458565D01*
X140779Y457976D01*
X141368Y457582D01*
X142063Y457444D01*
X142758Y457582D01*
X143347Y457976D01*
X143741Y458565D01*
X143879Y459260D01*
X143741Y459955D01*
X143458Y460378D01*
X143678Y460878D01*
X145178D01*
X145445Y460378D01*
X145322Y460195D01*
X145184Y459500D01*
X145322Y458805D01*
X145716Y458216D01*
X146305Y457822D01*
X147000Y457684D01*
X147695Y457822D01*
X148284Y458216D01*
X148393Y458378D01*
X153774D01*
X153774Y458378D01*
X154203Y458464D01*
X154272Y458510D01*
X154822Y458305D01*
X155216Y457716D01*
X155378Y457607D01*
Y441661D01*
X141551Y427834D01*
X141308Y427470D01*
X141290Y427381D01*
X140735Y427151D01*
X140695Y427178D01*
X140000Y427316D01*
X139305Y427178D01*
X138716Y426784D01*
X138607Y426622D01*
X133993D01*
X133879Y426760D01*
X133741Y427455D01*
X133347Y428044D01*
X132758Y428438D01*
X132063Y428576D01*
X131368Y428438D01*
X130779Y428044D01*
X130385Y427455D01*
X130247Y426760D01*
X130385Y426065D01*
X130779Y425476D01*
X131368Y425082D01*
X132063Y424944D01*
X132255Y424982D01*
X132530Y424707D01*
X132530Y424707D01*
X132894Y424464D01*
X133323Y424378D01*
X138607D01*
X138716Y424216D01*
X139305Y423822D01*
X140000Y423684D01*
X140695Y423822D01*
X141284Y424216D01*
X141678Y424805D01*
X142181Y424770D01*
X142368Y424644D01*
X143063Y424506D01*
X143758Y424644D01*
X144347Y425038D01*
X144741Y425627D01*
X144879Y426322D01*
X144741Y427017D01*
X144406Y427517D01*
X157293Y440404D01*
X157293Y440404D01*
X157536Y440768D01*
X157622Y441197D01*
Y457607D01*
X157784Y457716D01*
X158178Y458305D01*
X158316Y459000D01*
X158185Y459660D01*
X158190Y459772D01*
X158398Y460160D01*
X159281D01*
X159281Y460159D01*
X159710Y460245D01*
X160074Y460488D01*
X165808Y466222D01*
X166000Y466184D01*
X166695Y466322D01*
X167284Y466716D01*
X167678Y467305D01*
X167816Y468000D01*
X167678Y468695D01*
X167284Y469284D01*
X166695Y469678D01*
X166000Y469816D01*
D02*
G37*
G36*
X282087Y296374D02*
X280323D01*
X279933Y296296D01*
X279602Y296075D01*
X279381Y295744D01*
X279303Y295354D01*
Y293000D01*
X282087D01*
Y296374D01*
D02*
G37*
G36*
X249543Y296874D02*
X247779D01*
X247389Y296796D01*
X247059Y296575D01*
X246838Y296245D01*
X246760Y295854D01*
Y293500D01*
X249543D01*
Y296874D01*
D02*
G37*
G36*
X293374Y295087D02*
X290000D01*
Y292303D01*
X292354D01*
X292744Y292381D01*
X293075Y292602D01*
X293296Y292933D01*
X293374Y293323D01*
Y295087D01*
D02*
G37*
G36*
X253327Y292500D02*
X250543D01*
Y289126D01*
X252307D01*
X252697Y289204D01*
X253028Y289425D01*
X253249Y289756D01*
X253327Y290146D01*
Y292500D01*
D02*
G37*
G36*
X258500Y295417D02*
X256736D01*
X256346Y295340D01*
X256015Y295119D01*
X255794Y294788D01*
X255717Y294398D01*
Y292043D01*
X258500D01*
Y295417D01*
D02*
G37*
G36*
X252307Y296874D02*
X250543D01*
Y293500D01*
X253327D01*
Y295854D01*
X253249Y296245D01*
X253028Y296575D01*
X252697Y296796D01*
X252307Y296874D01*
D02*
G37*
G36*
X237500Y299500D02*
X235876D01*
X235945Y299149D01*
X236427Y298428D01*
X237149Y297945D01*
X237500Y297876D01*
Y299500D01*
D02*
G37*
G36*
X240124D02*
X238500D01*
Y297876D01*
X238851Y297945D01*
X239573Y298428D01*
X240055Y299149D01*
X240124Y299500D01*
D02*
G37*
G36*
X289000Y298870D02*
X286646D01*
X286256Y298792D01*
X285925Y298571D01*
X285704Y298241D01*
X285626Y297850D01*
Y296640D01*
X285492Y296520D01*
X285126Y296319D01*
X284850Y296374D01*
X283087D01*
Y292500D01*
Y288626D01*
X284850D01*
X285241Y288704D01*
X285496Y288875D01*
X285789Y288789D01*
X285996Y288661D01*
Y286236D01*
X286187Y285777D01*
X286646Y285587D01*
X292354D01*
X292813Y285777D01*
X293004Y286236D01*
Y286878D01*
X303607D01*
X303716Y286716D01*
X304305Y286322D01*
X305000Y286184D01*
X305695Y286322D01*
X306284Y286716D01*
X306678Y287305D01*
X306816Y288000D01*
X306678Y288695D01*
X306284Y289284D01*
X305695Y289678D01*
X305000Y289816D01*
X304305Y289678D01*
X303716Y289284D01*
X303607Y289122D01*
X293004D01*
Y290764D01*
X292813Y291223D01*
X292354Y291413D01*
X286646D01*
X286370Y291299D01*
X285870Y291560D01*
Y292037D01*
X286004Y292157D01*
X286370Y292358D01*
X286646Y292303D01*
X289000D01*
Y295587D01*
Y298870D01*
D02*
G37*
G36*
X116500Y303131D02*
X115560Y303007D01*
X114684Y302645D01*
X113932Y302067D01*
X113355Y301315D01*
X112993Y300440D01*
X112869Y299500D01*
X112993Y298560D01*
X113355Y297685D01*
X113932Y296933D01*
X114684Y296355D01*
X115560Y295993D01*
X116500Y295869D01*
X117440Y295993D01*
X118315Y296355D01*
X119068Y296933D01*
X119645Y297685D01*
X120007Y298560D01*
X120131Y299500D01*
X120007Y300440D01*
X119645Y301315D01*
X119068Y302067D01*
X118315Y302645D01*
X117440Y303007D01*
X116500Y303131D01*
D02*
G37*
G36*
X292354Y298870D02*
X290000D01*
Y296087D01*
X293374D01*
Y297850D01*
X293296Y298241D01*
X293075Y298571D01*
X292744Y298792D01*
X292354Y298870D01*
D02*
G37*
G36*
X250000Y284500D02*
X246725D01*
Y282933D01*
X246802Y282543D01*
X247023Y282212D01*
X247354Y281991D01*
X247744Y281913D01*
X250000D01*
Y284500D01*
D02*
G37*
G36*
X254275D02*
X251000D01*
Y281913D01*
X253256D01*
X253646Y281991D01*
X253977Y282212D01*
X254198Y282543D01*
X254275Y282933D01*
Y284500D01*
D02*
G37*
G36*
X291764Y283874D02*
X290000D01*
Y280500D01*
X292783D01*
Y282854D01*
X292706Y283244D01*
X292485Y283575D01*
X292154Y283796D01*
X291764Y283874D01*
D02*
G37*
G36*
X117000Y283469D02*
Y280000D01*
X120469D01*
X120397Y280544D01*
X119994Y281517D01*
X119353Y282353D01*
X118517Y282994D01*
X117544Y283397D01*
X117000Y283469D01*
D02*
G37*
G36*
X289000Y283874D02*
X287236D01*
X286846Y283796D01*
X286515Y283575D01*
X286294Y283244D01*
X286217Y282854D01*
Y280500D01*
X289000D01*
Y283874D01*
D02*
G37*
G36*
X245220Y296504D02*
X240693D01*
X240234Y296314D01*
X240043Y295854D01*
Y290146D01*
X240234Y289686D01*
X240693Y289496D01*
X243918D01*
X244722Y288692D01*
X244684Y288500D01*
X244822Y287805D01*
X245216Y287216D01*
X245805Y286822D01*
X246500Y286684D01*
X246725Y286500D01*
Y285500D01*
X250000D01*
Y288087D01*
X248628D01*
X248311Y288473D01*
X248316Y288500D01*
X248268Y288740D01*
X248586Y289126D01*
X249543D01*
Y292500D01*
X246760D01*
Y290529D01*
X246563Y290368D01*
X246260Y290326D01*
X245870Y290716D01*
Y295854D01*
X245680Y296314D01*
X245220Y296504D01*
D02*
G37*
G36*
X262283Y291043D02*
X259500D01*
Y287669D01*
X261264D01*
X261654Y287747D01*
X261985Y287968D01*
X262206Y288299D01*
X262283Y288689D01*
Y291043D01*
D02*
G37*
G36*
X282087Y292000D02*
X279303D01*
Y289646D01*
X279381Y289255D01*
X279602Y288925D01*
X279933Y288704D01*
X280323Y288626D01*
X282087D01*
Y292000D01*
D02*
G37*
G36*
X258500Y291043D02*
X255717D01*
Y288689D01*
X255794Y288299D01*
X256015Y287968D01*
X256346Y287747D01*
X256736Y287669D01*
X258500D01*
Y291043D01*
D02*
G37*
G36*
X253256Y288087D02*
X251000D01*
Y285500D01*
X254275D01*
Y287067D01*
X254198Y287457D01*
X253977Y287788D01*
X253646Y288009D01*
X253256Y288087D01*
D02*
G37*
G36*
X116500Y293131D02*
X115560Y293007D01*
X114684Y292645D01*
X113932Y292068D01*
X113355Y291316D01*
X112993Y290440D01*
X112869Y289500D01*
X112993Y288560D01*
X113355Y287684D01*
X113932Y286932D01*
X114684Y286355D01*
X115560Y285993D01*
X116500Y285869D01*
X117440Y285993D01*
X118315Y286355D01*
X119068Y286932D01*
X119645Y287684D01*
X120007Y288560D01*
X120131Y289500D01*
X120007Y290440D01*
X119645Y291316D01*
X119068Y292068D01*
X118315Y292645D01*
X117440Y293007D01*
X116500Y293131D01*
D02*
G37*
G36*
X116000Y313520D02*
X113500D01*
X113110Y313442D01*
X112779Y313221D01*
X112558Y312890D01*
X112480Y312500D01*
Y310000D01*
X116000D01*
Y313520D01*
D02*
G37*
G36*
X119500D02*
X117000D01*
Y310000D01*
X120520D01*
Y312500D01*
X120442Y312890D01*
X120221Y313221D01*
X119890Y313442D01*
X119500Y313520D01*
D02*
G37*
G36*
X168000Y316583D02*
X167073Y316461D01*
X166208Y316103D01*
X165466Y315534D01*
X164897Y314792D01*
X164539Y313927D01*
X164417Y313000D01*
X164539Y312073D01*
X164897Y311208D01*
X165466Y310466D01*
X166208Y309897D01*
X167073Y309539D01*
X168000Y309417D01*
X168927Y309539D01*
X169792Y309897D01*
X170534Y310466D01*
X171103Y311208D01*
X171461Y312073D01*
X171583Y313000D01*
X171461Y313927D01*
X171103Y314792D01*
X170534Y315534D01*
X169792Y316103D01*
X168927Y316461D01*
X168000Y316583D01*
D02*
G37*
G36*
X140953Y316602D02*
X135047D01*
X134588Y316412D01*
X134398Y315953D01*
Y310047D01*
X134588Y309588D01*
X135047Y309398D01*
X140953D01*
X141412Y309588D01*
X141602Y310047D01*
Y315953D01*
X141412Y316412D01*
X140953Y316602D01*
D02*
G37*
G36*
X148000Y316583D02*
X147073Y316461D01*
X146208Y316103D01*
X145466Y315534D01*
X144897Y314792D01*
X144539Y313927D01*
X144417Y313000D01*
X144539Y312073D01*
X144897Y311208D01*
X145466Y310466D01*
X146208Y309897D01*
X147073Y309539D01*
X148000Y309417D01*
X148927Y309539D01*
X149792Y309897D01*
X150534Y310466D01*
X151103Y311208D01*
X151461Y312073D01*
X151583Y313000D01*
X151461Y313927D01*
X151103Y314792D01*
X150534Y315534D01*
X149792Y316103D01*
X148927Y316461D01*
X148000Y316583D01*
D02*
G37*
G36*
X276500Y315000D02*
X274876D01*
X274945Y314649D01*
X275428Y313928D01*
X276149Y313445D01*
X276500Y313376D01*
Y315000D01*
D02*
G37*
G36*
Y317624D02*
X276149Y317555D01*
X275428Y317073D01*
X274945Y316351D01*
X274876Y316000D01*
X276500D01*
Y317624D01*
D02*
G37*
G36*
X277500D02*
Y316000D01*
X279124D01*
X279055Y316351D01*
X278573Y317073D01*
X277851Y317555D01*
X277500Y317624D01*
D02*
G37*
G36*
X158500Y316921D02*
Y313500D01*
X161921D01*
X161851Y314032D01*
X161453Y314993D01*
X160819Y315819D01*
X159993Y316453D01*
X159032Y316851D01*
X158500Y316921D01*
D02*
G37*
G36*
X279124Y315000D02*
X277500D01*
Y313376D01*
X277851Y313445D01*
X278573Y313928D01*
X279055Y314649D01*
X279124Y315000D01*
D02*
G37*
G36*
X157500Y316921D02*
X156968Y316851D01*
X156007Y316453D01*
X155181Y315819D01*
X154547Y314993D01*
X154149Y314032D01*
X154079Y313500D01*
X157500D01*
Y316921D01*
D02*
G37*
G36*
X120520Y309000D02*
X117000D01*
Y305480D01*
X119500D01*
X119890Y305558D01*
X120221Y305779D01*
X120442Y306110D01*
X120520Y306500D01*
Y309000D01*
D02*
G37*
G36*
X144500Y307124D02*
X144149Y307055D01*
X143428Y306573D01*
X142946Y305851D01*
X142876Y305500D01*
X144500D01*
Y307124D01*
D02*
G37*
G36*
X116000Y309000D02*
X112480D01*
Y306500D01*
X112558Y306110D01*
X112779Y305779D01*
X113110Y305558D01*
X113500Y305480D01*
X116000D01*
Y309000D01*
D02*
G37*
G36*
X214500Y315316D02*
X213805Y315178D01*
X213216Y314784D01*
X212822Y314195D01*
X212684Y313500D01*
X212822Y312805D01*
X213216Y312216D01*
X213379Y312107D01*
Y309965D01*
X202035Y298622D01*
X150393D01*
X150284Y298784D01*
X149695Y299178D01*
X149000Y299316D01*
X148305Y299178D01*
X147716Y298784D01*
X147322Y298195D01*
X147184Y297500D01*
X147322Y296805D01*
X147716Y296216D01*
X148305Y295822D01*
X149000Y295684D01*
X149695Y295822D01*
X150284Y296216D01*
X150393Y296378D01*
X202500D01*
X202500Y296378D01*
X202929Y296464D01*
X203293Y296707D01*
X215293Y308707D01*
X215293Y308707D01*
X215536Y309071D01*
X215621Y309500D01*
Y312107D01*
X215784Y312216D01*
X216178Y312805D01*
X216316Y313500D01*
X216178Y314195D01*
X215784Y314784D01*
X215195Y315178D01*
X214500Y315316D01*
D02*
G37*
G36*
X178624Y301500D02*
X177000D01*
Y299876D01*
X177351Y299945D01*
X178073Y300428D01*
X178554Y301149D01*
X178624Y301500D01*
D02*
G37*
G36*
X145500Y307124D02*
Y305500D01*
X147124D01*
X147055Y305851D01*
X146572Y306573D01*
X145851Y307055D01*
X145500Y307124D01*
D02*
G37*
G36*
X157500Y312500D02*
X154079D01*
X154149Y311968D01*
X154547Y311007D01*
X155181Y310181D01*
X156007Y309547D01*
X156968Y309149D01*
X157500Y309079D01*
Y312500D01*
D02*
G37*
G36*
X161921D02*
X158500D01*
Y309079D01*
X159032Y309149D01*
X159993Y309547D01*
X160819Y310181D01*
X161453Y311007D01*
X161851Y311968D01*
X161921Y312500D01*
D02*
G37*
G36*
X190000Y309816D02*
X189305Y309678D01*
X188716Y309284D01*
X188322Y308695D01*
X188184Y308000D01*
X188322Y307305D01*
X188716Y306716D01*
X189305Y306322D01*
X190000Y306184D01*
X190695Y306322D01*
X190779Y306379D01*
X194607D01*
X194716Y306216D01*
X195305Y305822D01*
X196000Y305684D01*
X196695Y305822D01*
X197284Y306216D01*
X197678Y306805D01*
X197816Y307500D01*
X197678Y308195D01*
X197284Y308784D01*
X196695Y309178D01*
X196000Y309316D01*
X195305Y309178D01*
X194716Y308784D01*
X194607Y308622D01*
X191692D01*
X191678Y308695D01*
X191284Y309284D01*
X190695Y309678D01*
X190000Y309816D01*
D02*
G37*
G36*
X149500Y307124D02*
X149149Y307055D01*
X148427Y306573D01*
X147945Y305851D01*
X147876Y305500D01*
X149500D01*
Y307124D01*
D02*
G37*
G36*
X150500D02*
Y305500D01*
X152124D01*
X152055Y305851D01*
X151573Y306573D01*
X150851Y307055D01*
X150500Y307124D01*
D02*
G37*
%LPD*%
D12*
X256087Y270000D02*
D03*
X249000D02*
D03*
X256043Y253000D02*
D03*
X248957D02*
D03*
X256000Y261500D02*
D03*
X248913D02*
D03*
X282413Y280000D02*
D03*
X289500D02*
D03*
X282413Y270500D02*
D03*
X289500D02*
D03*
X282957Y262000D02*
D03*
X290043D02*
D03*
X242957Y293000D02*
D03*
X250043D02*
D03*
X266087Y291543D02*
D03*
X259000D02*
D03*
X275500Y292500D02*
D03*
X282587D02*
D03*
X282957Y253500D02*
D03*
X290043D02*
D03*
D13*
X264500Y252913D02*
D03*
Y260000D02*
D03*
X276000Y252913D02*
D03*
Y260000D02*
D03*
X289500Y288500D02*
D03*
Y295587D02*
D03*
D15*
X250500Y277520D02*
D03*
Y285000D02*
D03*
D25*
X275413Y260500D02*
X276000Y261087D01*
X250543Y292500D02*
X259957D01*
X277500Y231000D02*
X279000Y229500D01*
X272726D02*
X279000D01*
X245500Y235500D02*
X249000Y232000D01*
X132000Y301500D02*
X172774D01*
X137795Y255906D02*
Y265748D01*
X147638Y246063D02*
Y246063D01*
X157480Y255906D01*
X127953Y265748D02*
X137795D01*
X127953D02*
Y295276D01*
X264000Y252287D02*
X264563Y252850D01*
X137795Y334646D02*
X147638Y324803D01*
X262000Y416000D02*
X262500Y416500D01*
X269613Y237887D02*
X271555Y235945D01*
X289500Y288500D02*
X290000Y288000D01*
X305000D01*
X270000Y218500D02*
X280500D01*
X293500Y231500D01*
X262000Y407500D02*
Y416000D01*
X160500Y409000D02*
Y411500D01*
X160000Y412000D02*
X160500Y411500D01*
X160000Y412000D02*
X165000Y417000D01*
X266500Y284000D02*
X277000D01*
X259000Y291500D02*
X266500Y284000D01*
X259000Y291543D02*
X259957Y292500D01*
X259000Y291500D02*
Y291543D01*
X277000Y284000D02*
X282587Y292500D01*
X275500Y292000D02*
Y292500D01*
X269613Y237887D02*
X269962D01*
X271555Y235945D02*
X275130D01*
X267000Y234000D02*
X272500D01*
X273000Y233500D01*
X278737Y238263D02*
X279263D01*
X276000Y241000D02*
X278737Y238263D01*
X280000Y234763D02*
X293183Y247946D01*
X282281Y234781D02*
X293846Y246346D01*
X282281Y229781D02*
Y234781D01*
X277500Y230000D02*
Y231000D01*
X280000Y234000D02*
Y234763D01*
X267000Y234000D02*
Y237500D01*
X264000Y237000D02*
Y252287D01*
X261274Y236000D02*
X265493Y231781D01*
X259000Y236000D02*
X261274D01*
X270445Y231781D02*
X272726Y229500D01*
X265493Y231781D02*
X270445D01*
X264000Y229500D02*
X269500D01*
X263000Y230500D02*
X264000Y229500D01*
X261500Y229000D02*
X263000Y230500D01*
X234000Y241500D02*
X239500Y247000D01*
X231500Y241500D02*
X234000D01*
X282413Y280000D02*
X282500Y280087D01*
X239500Y247000D02*
X241000D01*
X243046Y249046D01*
X251676D01*
X252321Y249690D01*
Y253000D01*
X256043D01*
X230500Y247500D02*
X235500D01*
X232000Y277500D02*
X232020Y277520D01*
X250500D01*
X290043Y253500D02*
Y262000D01*
X295018Y249781D02*
X302007D01*
X306445Y254219D01*
X305800Y250500D02*
X306000D01*
X305400Y250900D02*
X305800Y250500D01*
X299000Y244500D02*
X305400Y250900D01*
X304000Y257500D02*
X304500Y257000D01*
X295007Y249770D02*
X295018Y249781D01*
X295007Y249527D02*
Y249770D01*
X293425Y247946D02*
X295007Y249527D01*
X293183Y247946D02*
X293425D01*
X295500Y244500D02*
X299000D01*
X295243Y247500D02*
X298000D01*
X294088Y246346D02*
X295243Y247500D01*
X293846Y246346D02*
X294088D01*
X306445Y254219D02*
X307945D01*
X309500Y255774D02*
Y265336D01*
X307945Y254219D02*
X309500Y255774D01*
X315500Y254000D02*
X316500Y255000D01*
X322000D01*
X300475Y257500D02*
X304000D01*
X293407Y250433D02*
X300475Y257500D01*
X293407Y250190D02*
Y250433D01*
X292763Y249546D02*
X293407Y250190D01*
X286911Y249546D02*
X292763D01*
X282957Y253500D02*
X286911Y249546D01*
X306055Y268781D02*
X309500Y265336D01*
X276000Y241000D02*
Y252913D01*
X282000Y229500D02*
X282281Y229781D01*
X264500Y252913D02*
X264563Y252850D01*
X253500Y250457D02*
X256043Y253000D01*
X253500Y238000D02*
Y250457D01*
X245500Y235000D02*
Y235500D01*
X249000Y232000D02*
X254500D01*
X242957Y292043D02*
Y293000D01*
Y292043D02*
X246500Y288500D01*
X227000Y228000D02*
X251000D01*
X227000D02*
Y256000D01*
X248913Y269913D02*
X249000Y270000D01*
X248913Y261500D02*
Y269913D01*
Y253043D02*
X248957Y253000D01*
X248913Y253043D02*
Y261500D01*
X289500Y280000D02*
Y285136D01*
X286190D02*
X289500D01*
X285546Y285781D02*
X286190Y285136D01*
X285546Y285781D02*
Y289541D01*
X282587Y292500D02*
X285546Y289541D01*
X276000Y261087D02*
X277000Y284000D01*
X256000Y269913D02*
X256087Y270000D01*
X256000Y261500D02*
Y269913D01*
Y261500D02*
X256043Y261457D01*
Y253000D02*
Y261457D01*
Y253000D02*
X256130Y252913D01*
X276000D02*
X276587Y253500D01*
X265000Y260500D02*
X275413D01*
X282413Y270500D02*
X282957Y269957D01*
X289500Y262543D02*
X290043Y262000D01*
X289500Y262543D02*
Y270500D01*
Y280000D01*
X286413Y292500D02*
X289500Y295587D01*
X282587Y292500D02*
X286413D01*
X250500Y292543D02*
X250543Y292500D01*
X250043Y293000D02*
X250500Y292543D01*
Y285000D02*
Y292543D01*
X238000Y300000D02*
X241046Y296954D01*
X245676D01*
X246321Y296310D01*
Y293000D02*
Y296310D01*
Y293000D02*
X250043D01*
X233423Y309100D02*
X238100D01*
X239219Y310219D01*
X231900Y307577D02*
X233423Y309100D01*
X231900Y302900D02*
Y307577D01*
X194500Y265500D02*
X231900Y302900D01*
X214500Y309500D02*
Y313500D01*
X202500Y297500D02*
X214500Y309500D01*
X187500Y323500D02*
X192500Y328500D01*
X187500Y321500D02*
Y323500D01*
X192500Y328500D02*
X197500D01*
X190000Y308000D02*
X190500Y307500D01*
X150980Y373000D02*
X169441D01*
X200441Y342000D01*
X328844Y427541D02*
X343000Y441697D01*
X356563Y444760D02*
Y457760D01*
X318563Y427260D02*
X319823Y426000D01*
X326500D01*
X328063Y460260D02*
X328563Y459760D01*
X320063Y460260D02*
X328063D01*
X343000Y441697D02*
Y459500D01*
X322323Y462500D02*
X337000D01*
X322063Y462760D02*
X322323Y462500D01*
X328844Y427541D02*
X329563Y426822D01*
X235781Y427281D02*
X249937Y441437D01*
X263500Y444500D02*
Y457500D01*
X225500Y427000D02*
X226760Y425740D01*
X233437D01*
X249937Y441437D02*
Y459240D01*
X235781Y427281D02*
X236500Y426562D01*
X142344Y427041D02*
X156500Y441197D01*
X135823Y462000D02*
X150500D01*
X147000Y459500D02*
X153774D01*
X155555Y461281D01*
X159281D01*
X166000Y468000D01*
X135563Y462260D02*
X135823Y462000D01*
X156500Y441197D02*
Y459000D01*
X133323Y425500D02*
X140000D01*
X132063Y426760D02*
X133323Y425500D01*
X170063Y444260D02*
Y457260D01*
X133563Y459760D02*
X141563D01*
X142063Y459260D01*
X142344Y427041D02*
X143063Y426322D01*
X254961Y463764D02*
X259437Y468240D01*
X246218Y461295D02*
Y461718D01*
X244663Y459740D02*
X246218Y461295D01*
X240437Y459740D02*
X244663D01*
X229260Y462240D02*
X243937D01*
X145043Y374457D02*
X182000Y411413D01*
Y452500D01*
X229000Y462500D02*
X229260Y462240D01*
X235000Y460000D02*
X235500Y459500D01*
X227000Y460000D02*
X235000D01*
X213000Y454000D02*
X241471D01*
X248992Y461521D01*
X250882D01*
X251403Y461000D01*
X246218Y461718D02*
X248265Y463764D01*
X254961D01*
X251403Y461000D02*
X252500D01*
X118500Y354500D02*
X119000D01*
X337726Y460000D02*
X339507Y461781D01*
X333500Y460000D02*
X337726D01*
X348781Y464781D02*
X352500Y468500D01*
X339507Y461781D02*
Y463507D01*
X340781Y464781D01*
X348781D01*
X307000Y454000D02*
X334274D01*
X342055Y461781D01*
X343945D01*
X345281Y460445D01*
X345945D01*
X346000Y460500D01*
X326500Y289000D02*
Y422500D01*
X306055Y268781D02*
X306281D01*
X326500Y289000D01*
X187000Y361500D02*
X197500D01*
X186500Y362000D02*
X187000Y361500D01*
X261500Y417500D02*
X262500Y416500D01*
X311500Y236000D02*
X317000D01*
X317500Y235500D01*
X221000Y340000D02*
X248500D01*
X217500Y336500D02*
X221000Y340000D01*
X211000Y336500D02*
X217500D01*
X176500Y302000D02*
X211000Y336500D01*
X224600Y341600D02*
X239900Y356900D01*
X213837Y341600D02*
X224600D01*
X176518Y304281D02*
X213837Y341600D01*
X175555Y304281D02*
X176518D01*
X172774Y301500D02*
X175555Y304281D01*
X132000Y301500D02*
Y302000D01*
X201500Y289000D02*
X262000Y349500D01*
X131500Y289000D02*
X201500D01*
X131000Y289500D02*
X131500Y289000D01*
X150000Y265500D02*
X194500D01*
X250000Y309000D02*
X260500D01*
X249000Y310000D02*
X250000Y309000D01*
X250781Y312281D02*
X251000Y312500D01*
X248055Y312281D02*
X250781D01*
X245274Y309500D02*
X248055Y312281D01*
X241500Y309500D02*
X245274D01*
X239219Y310219D02*
Y310445D01*
X248774Y320000D02*
X249000D01*
X239219Y310445D02*
X248774Y320000D01*
X149000Y297500D02*
X202500D01*
X145000Y305000D02*
X150000D01*
X190500Y307500D02*
X196000D01*
D26*
X255543Y304000D02*
X267043Y292500D01*
X118500Y354500D02*
X124000Y360000D01*
X122500Y383000D02*
X124000Y381500D01*
Y360000D02*
Y381500D01*
X281000Y303000D02*
X298000D01*
X275500Y297500D02*
X281000Y303000D01*
X275500Y292500D02*
Y297500D01*
X267043Y292500D02*
X275500D01*
X243687Y304000D02*
X255543D01*
X271500Y288000D02*
X275500Y292000D01*
X275500Y292500D02*
X275500Y292500D01*
X282500Y280087D02*
Y285000D01*
X256130Y252913D02*
X264500D01*
X276587Y253500D02*
X282957D01*
X264500Y252913D02*
X276000D01*
X282413Y270500D02*
Y280000D01*
X282957Y262000D02*
Y269957D01*
Y253500D02*
Y262000D01*
X234500Y306500D02*
X237500D01*
X240000Y304000D01*
X243687D01*
D27*
X118110Y393701D02*
D03*
X364173D02*
D03*
X118110Y196850D02*
D03*
X364173D02*
D03*
D28*
X128000Y476500D02*
D03*
X138000D02*
D03*
X148000D02*
D03*
X116500Y279500D02*
D03*
Y289500D02*
D03*
Y299500D02*
D03*
X315000Y477000D02*
D03*
X325000D02*
D03*
X335000D02*
D03*
X221437Y476740D02*
D03*
X231437D02*
D03*
X241437D02*
D03*
X118000Y335500D02*
D03*
X118059Y363441D02*
D03*
X117000Y235500D02*
D03*
Y245500D02*
D03*
Y255500D02*
D03*
D29*
X158000Y476500D02*
D03*
X345000Y477000D02*
D03*
X251437Y476740D02*
D03*
D30*
X116500Y309500D02*
D03*
X118000Y345500D02*
D03*
X118059Y373441D02*
D03*
X117000Y265500D02*
D03*
D31*
X158000Y313000D02*
D03*
X168000D02*
D03*
X148000D02*
D03*
D32*
X138000D02*
D03*
D33*
X137795Y255906D02*
D03*
X147638Y246063D02*
D03*
X157480Y255906D02*
D03*
X127953Y295276D02*
D03*
X147638Y324803D02*
D03*
X137795Y334646D02*
D03*
X305000Y288000D02*
D03*
X219000Y242000D02*
D03*
X257000Y222000D02*
D03*
X270000Y218500D02*
D03*
X286500Y190500D02*
D03*
X241000D02*
D03*
X262000Y407500D02*
D03*
X160500Y409000D02*
D03*
X277000Y315500D02*
D03*
X269962Y237887D02*
D03*
X279263Y238263D02*
D03*
X273000Y233500D02*
D03*
X275130Y235945D02*
D03*
X277500Y230000D02*
D03*
X280000Y234000D02*
D03*
X267000Y237500D02*
D03*
X264000Y237000D02*
D03*
X269500Y229500D02*
D03*
X261500Y229000D02*
D03*
X258000Y231500D02*
D03*
X259000Y236000D02*
D03*
X231500Y241500D02*
D03*
X282500Y285000D02*
D03*
X271500Y288000D02*
D03*
X239500Y247000D02*
D03*
X235500Y247500D02*
D03*
X230500D02*
D03*
X232000Y277500D02*
D03*
X306000Y250500D02*
D03*
X304500Y257000D02*
D03*
X295500Y244500D02*
D03*
X315500Y254000D02*
D03*
X322000Y255000D02*
D03*
X282000Y229500D02*
D03*
X253500Y238000D02*
D03*
X254500Y232000D02*
D03*
X245500Y235000D02*
D03*
X246500Y288500D02*
D03*
X298000Y303000D02*
D03*
X238000Y300000D02*
D03*
X234500Y306500D02*
D03*
X214500Y313500D02*
D03*
X187500Y321500D02*
D03*
X197500Y328500D02*
D03*
X298000Y247500D02*
D03*
X251000Y228000D02*
D03*
X293500Y231500D02*
D03*
X190000Y308000D02*
D03*
X200441Y342000D02*
D03*
X356563Y444760D02*
D03*
Y457760D02*
D03*
X326500Y426000D02*
D03*
X318563Y427260D02*
D03*
X320063Y460260D02*
D03*
X328563Y459760D02*
D03*
X352500Y468500D02*
D03*
X333500Y460000D02*
D03*
X343000Y459500D02*
D03*
X337000Y462500D02*
D03*
X329563Y426822D02*
D03*
X322063Y462760D02*
D03*
X263500Y444500D02*
D03*
Y457500D02*
D03*
X233437Y425740D02*
D03*
X225500Y427000D02*
D03*
X235500Y459500D02*
D03*
X259437Y468240D02*
D03*
X240437Y459740D02*
D03*
X249937Y459240D02*
D03*
X243937Y462240D02*
D03*
X236500Y426562D02*
D03*
X147000Y459500D02*
D03*
X166000Y468000D02*
D03*
X135563Y462260D02*
D03*
X150500Y462000D02*
D03*
X156500Y459000D02*
D03*
X140000Y425500D02*
D03*
X170063Y457260D02*
D03*
Y444260D02*
D03*
X142063Y459260D02*
D03*
X133563Y459760D02*
D03*
X143063Y426322D02*
D03*
X132063Y426760D02*
D03*
X150980Y373000D02*
D03*
X145043Y374457D02*
D03*
X182000Y452500D02*
D03*
X229000Y462500D02*
D03*
X227000Y460000D02*
D03*
X213000Y454000D02*
D03*
X252500Y461000D02*
D03*
X122500Y383000D02*
D03*
X119000Y354500D02*
D03*
X307000Y454000D02*
D03*
X346000Y460500D02*
D03*
X326500Y422500D02*
D03*
X243687Y304000D02*
D03*
X249000Y310000D02*
D03*
X227000Y256000D02*
D03*
X197500Y361500D02*
D03*
X186500Y362000D02*
D03*
X261500Y417500D02*
D03*
X311500Y236000D02*
D03*
X317500Y235500D02*
D03*
X165000Y417000D02*
D03*
X248500Y340000D02*
D03*
X176500Y302000D02*
D03*
X239900Y356900D02*
D03*
X132000Y302000D02*
D03*
X262000Y349500D02*
D03*
X131000Y289500D02*
D03*
X249000Y320000D02*
D03*
X150000Y265500D02*
D03*
X260500Y309000D02*
D03*
X251000Y312500D02*
D03*
X241500Y309500D02*
D03*
X149000Y297500D02*
D03*
X145000Y305000D02*
D03*
X150000D02*
D03*
X196000Y307500D02*
D03*
M02*
