M48
;Layer_Color=9474304
;FILE_FORMAT=2:5
INCH,LZ
;TYPE=PLATED
T1F00S00C0.01181
T2F00S00C0.03543
T3F00S00C0.04000
T4F00S00C0.12000
%
T01
X03175Y02355
X03155Y0254
X0322Y0255
X03045Y0257
X0306Y02505
X0298Y02475
X02955Y02445
X02935Y02315
X0282Y02295
X02775Y023
X028Y0234
X0279263Y0238263
X027513Y0235945
X0273Y02335
X0269962Y0237887
X0267Y02375
X0264Y0237
X0259Y0236
X0258Y02315
X02545Y0232
X02535Y0238
X02455Y0235
X0251Y0228
X02615Y0229
X02695Y02295
X027Y02185
X0257Y0222
X02395Y0247
X02355Y02475
X02305
X02315Y02415
X0219Y0242
X0227Y0256
X0232Y02775
X02465Y02885
X0243687Y0304
X02415Y03095
X0249Y031
X02605Y0309
X02345Y03065
X0238Y03
X02715Y0288
X02825Y0285
X0305Y0288
X0298Y0303
X03115Y0236
X02865Y01905
X0241
X015748Y0255906
X01765Y0302
X019Y0308
X0196Y03075
X015Y0305
X0145
X0149Y02975
X0132Y0302
X0127953Y0295276
X0131Y02895
X0137795Y0255906
X0147638Y0246063
X015Y02655
X0147638Y0324803
X0137795Y0334646
X0119Y03545
X01225Y0383
X0145043Y0374457
X015098Y0373
X0143063Y0426322
X014Y04255
X0132063Y042676
X0133563Y045976
X0135563Y046226
X0142063Y045926
X0147Y04595
X01505Y0462
X01565Y0459
X0170063Y045726
Y044426
X0182Y04525
X0166Y0468
X0165Y0417
X01605Y0409
X01865Y0362
X01975Y03615
X0200441Y0342
X01975Y03285
X01875Y03215
X02145Y03135
X0251Y03125
X0249Y032
X02485Y034
X0262Y03495
X02399Y03569
X0262Y04075
X02615Y04175
X02635Y04445
Y04575
X02525Y0461
X0249937Y045924
X0243937Y046224
X0240437Y045974
X02355Y04595
X0227Y046
X0229Y04625
X0213Y0454
X02255Y0427
X0233437Y042574
X02365Y0426562
X0259437Y046824
X0307Y0454
X0277Y03155
X0318563Y042726
X03265Y0426
Y04225
X0329563Y0426822
X0328563Y045976
X03335Y046
X0337Y04625
X0343Y04595
X0346Y04605
X0356563Y045776
Y044476
X03525Y04685
X0322063Y046276
X0320063Y046026
T02
X0138Y0313
X0148
X0158
X0168
T03
X0117Y02355
Y02455
Y02555
Y02655
X01165Y02795
Y02895
Y02995
Y03095
X0118Y03355
Y03455
X0118059Y0363441
Y0373441
X0315Y0477
X0325
X0335
X0345
X0251437Y047674
X0241437
X0231437
X0221437
X0158Y04765
X0148
X0138
X0128
T04
X0364173Y019685
X011811
Y0393701
X0364173
M30
