G04 Layer_Color=32896*
%FSLAX25Y25*%
%MOIN*%
G70*
G01*
G75*
%ADD35C,0.00600*%
%ADD38C,0.00787*%
D35*
X243001Y270999D02*
X243500Y271499D01*
X244500D01*
X245000Y270999D01*
Y269000D01*
X244500Y268500D01*
X243500D01*
X243001Y269000D01*
X242001Y268500D02*
X241001D01*
X241501D01*
Y271499D01*
X242001Y270999D01*
X239502D02*
X239002Y271499D01*
X238002D01*
X237502Y270999D01*
Y270499D01*
X238002Y270000D01*
X238502D01*
X238002D01*
X237502Y269500D01*
Y269000D01*
X238002Y268500D01*
X239002D01*
X239502Y269000D01*
X243001Y253999D02*
X243500Y254499D01*
X244500D01*
X245000Y253999D01*
Y252000D01*
X244500Y251500D01*
X243500D01*
X243001Y252000D01*
X242001Y251500D02*
X241001D01*
X241501D01*
Y254499D01*
X242001Y253999D01*
X239502D02*
X239002Y254499D01*
X238002D01*
X237502Y253999D01*
Y252000D01*
X238002Y251500D01*
X239002D01*
X239502Y252000D01*
Y253999D01*
X242001Y262499D02*
X242500Y262999D01*
X243500D01*
X244000Y262499D01*
Y260500D01*
X243500Y260000D01*
X242500D01*
X242001Y260500D01*
X241001Y262999D02*
X239002D01*
Y262499D01*
X241001Y260500D01*
Y260000D01*
X299001Y280999D02*
X299500Y281499D01*
X300500D01*
X301000Y280999D01*
Y279000D01*
X300500Y278500D01*
X299500D01*
X299001Y279000D01*
X298001Y278500D02*
X297001D01*
X297501D01*
Y281499D01*
X298001Y280999D01*
X294002Y278500D02*
Y281499D01*
X295502Y279999D01*
X293502D01*
X297501Y271499D02*
X298001Y271999D01*
X299000D01*
X299500Y271499D01*
Y269500D01*
X299000Y269000D01*
X298001D01*
X297501Y269500D01*
X294502Y271999D02*
X295501Y271499D01*
X296501Y270499D01*
Y269500D01*
X296001Y269000D01*
X295002D01*
X294502Y269500D01*
Y270000D01*
X295002Y270499D01*
X296501D01*
X265001Y247999D02*
X265500Y248499D01*
X266500D01*
X267000Y247999D01*
Y246000D01*
X266500Y245500D01*
X265500D01*
X265001Y246000D01*
X264001Y245500D02*
X263001D01*
X263501D01*
Y248499D01*
X264001Y247999D01*
X261502Y245500D02*
X260502D01*
X261002D01*
Y248499D01*
X261502Y247999D01*
X278001D02*
X278501Y248499D01*
X279500D01*
X280000Y247999D01*
Y246000D01*
X279500Y245500D01*
X278501D01*
X278001Y246000D01*
X277001Y245500D02*
X276001D01*
X276501D01*
Y248499D01*
X277001Y247999D01*
X272502Y248499D02*
X273502Y247999D01*
X274502Y247000D01*
Y246000D01*
X274002Y245500D01*
X273002D01*
X272502Y246000D01*
Y246500D01*
X273002Y247000D01*
X274502D01*
X297501Y263499D02*
X298001Y263999D01*
X299000D01*
X299500Y263499D01*
Y261500D01*
X299000Y261000D01*
X298001D01*
X297501Y261500D01*
X296501Y263499D02*
X296001Y263999D01*
X295002D01*
X294502Y263499D01*
Y262999D01*
X295002Y262499D01*
X294502Y262000D01*
Y261500D01*
X295002Y261000D01*
X296001D01*
X296501Y261500D01*
Y262000D01*
X296001Y262499D01*
X296501Y262999D01*
Y263499D01*
X296001Y262499D02*
X295002D01*
X250501Y299999D02*
X251000Y300499D01*
X252000D01*
X252500Y299999D01*
Y298000D01*
X252000Y297500D01*
X251000D01*
X250501Y298000D01*
X249501Y297500D02*
X248501D01*
X249001D01*
Y300499D01*
X249501Y299999D01*
X245002Y300499D02*
X247002D01*
Y299000D01*
X246002Y299499D01*
X245502D01*
X245002Y299000D01*
Y298000D01*
X245502Y297500D01*
X246502D01*
X247002Y298000D01*
X266438Y298499D02*
X266937Y298999D01*
X267937D01*
X268437Y298499D01*
Y296500D01*
X267937Y296000D01*
X266937D01*
X266438Y296500D01*
X265438Y296000D02*
X264438D01*
X264938D01*
Y298999D01*
X265438Y298499D01*
X262939Y298999D02*
X260939D01*
Y298499D01*
X262939Y296500D01*
Y296000D01*
X281001Y298999D02*
X281501Y299499D01*
X282500D01*
X283000Y298999D01*
Y297000D01*
X282500Y296500D01*
X281501D01*
X281001Y297000D01*
X280001Y296500D02*
X279001D01*
X279501D01*
Y299499D01*
X280001Y298999D01*
X275502Y296500D02*
X277502D01*
X275502Y298499D01*
Y298999D01*
X276002Y299499D01*
X277002D01*
X277502Y298999D01*
X261000Y280500D02*
Y283499D01*
X259501D01*
X259001Y282999D01*
Y281999D01*
X259501Y281500D01*
X261000D01*
X260000D02*
X259001Y280500D01*
X256502D02*
Y283499D01*
X258001Y281999D01*
X256002D01*
X297501Y253999D02*
X298001Y254499D01*
X299000D01*
X299500Y253999D01*
Y252000D01*
X299000Y251500D01*
X298001D01*
X297501Y252000D01*
X296501D02*
X296001Y251500D01*
X295002D01*
X294502Y252000D01*
Y253999D01*
X295002Y254499D01*
X296001D01*
X296501Y253999D01*
Y253499D01*
X296001Y252999D01*
X294502D01*
X291501Y301999D02*
X292001Y302499D01*
X293000D01*
X293500Y301999D01*
Y300000D01*
X293000Y299500D01*
X292001D01*
X291501Y300000D01*
X290501Y299500D02*
X289501D01*
X290001D01*
Y302499D01*
X290501Y301999D01*
X288002Y300000D02*
X287502Y299500D01*
X286502D01*
X286002Y300000D01*
Y301999D01*
X286502Y302499D01*
X287502D01*
X288002Y301999D01*
Y301499D01*
X287502Y300999D01*
X286002D01*
D38*
X252346Y267539D02*
X252740D01*
X252346Y272461D02*
X252740D01*
X252303Y250539D02*
X252697D01*
X252303Y255461D02*
X252697D01*
X252260Y259039D02*
X252654D01*
X252260Y263961D02*
X252654D01*
X285760Y282461D02*
X286154D01*
X285760Y277539D02*
X286154D01*
X285760Y272961D02*
X286154D01*
X285760Y268039D02*
X286154D01*
X262039Y256260D02*
Y256653D01*
X266961Y256260D02*
Y256653D01*
X273539Y256260D02*
Y256653D01*
X278461Y256260D02*
Y256653D01*
X286303Y264461D02*
X286697D01*
X286303Y259539D02*
X286697D01*
X246303Y295461D02*
X246697D01*
X246303Y290539D02*
X246697D01*
X262347Y289083D02*
X262740D01*
X262347Y294004D02*
X262740D01*
X278847Y294961D02*
X279240D01*
X278847Y290039D02*
X279240D01*
X248138Y281063D02*
Y281457D01*
X252862Y281063D02*
Y281457D01*
X286303Y255961D02*
X286697D01*
X286303Y251039D02*
X286697D01*
X287039Y291846D02*
Y292240D01*
X291961Y291846D02*
Y292240D01*
M02*
