G04*
G04 #@! TF.GenerationSoftware,Altium Limited,Altium Designer,19.0.15 (446)*
G04*
G04 Layer_Physical_Order=2*
G04 Layer_Color=1265191*
%FSLAX25Y25*%
%MOIN*%
G70*
G01*
G75*
%ADD61R,0.06000X0.06000*%
%ADD62C,0.06000*%
%ADD64C,0.30000*%
%ADD65C,0.09843*%
%ADD66C,0.03200*%
%ADD67C,0.02500*%
G36*
X346609Y3391D02*
X3391D01*
Y861609D01*
X346609D01*
Y3391D01*
D02*
G37*
%LPC*%
G36*
X281500Y854969D02*
Y851500D01*
X284969D01*
X284897Y852044D01*
X284494Y853017D01*
X283853Y853853D01*
X283017Y854494D01*
X282044Y854897D01*
X281500Y854969D01*
D02*
G37*
G36*
X249500D02*
Y851500D01*
X252969D01*
X252897Y852044D01*
X252494Y853017D01*
X251853Y853853D01*
X251017Y854494D01*
X250044Y854897D01*
X249500Y854969D01*
D02*
G37*
G36*
X217500D02*
Y851500D01*
X220969D01*
X220897Y852044D01*
X220494Y853017D01*
X219853Y853853D01*
X219017Y854494D01*
X218044Y854897D01*
X217500Y854969D01*
D02*
G37*
G36*
X185500D02*
Y851500D01*
X188969D01*
X188897Y852044D01*
X188494Y853017D01*
X187853Y853853D01*
X187017Y854494D01*
X186044Y854897D01*
X185500Y854969D01*
D02*
G37*
G36*
X153500D02*
Y851500D01*
X156969D01*
X156897Y852044D01*
X156494Y853017D01*
X155853Y853853D01*
X155017Y854494D01*
X154044Y854897D01*
X153500Y854969D01*
D02*
G37*
G36*
X121500D02*
Y851500D01*
X124969D01*
X124897Y852044D01*
X124494Y853017D01*
X123853Y853853D01*
X123017Y854494D01*
X122044Y854897D01*
X121500Y854969D01*
D02*
G37*
G36*
X280500D02*
X279956Y854897D01*
X278983Y854494D01*
X278147Y853853D01*
X277506Y853017D01*
X277103Y852044D01*
X277031Y851500D01*
X280500D01*
Y854969D01*
D02*
G37*
G36*
X248500D02*
X247956Y854897D01*
X246983Y854494D01*
X246147Y853853D01*
X245506Y853017D01*
X245103Y852044D01*
X245031Y851500D01*
X248500D01*
Y854969D01*
D02*
G37*
G36*
X216500D02*
X215956Y854897D01*
X214983Y854494D01*
X214147Y853853D01*
X213506Y853017D01*
X213103Y852044D01*
X213031Y851500D01*
X216500D01*
Y854969D01*
D02*
G37*
G36*
X184500D02*
X183956Y854897D01*
X182983Y854494D01*
X182147Y853853D01*
X181506Y853017D01*
X181103Y852044D01*
X181031Y851500D01*
X184500D01*
Y854969D01*
D02*
G37*
G36*
X152500D02*
X151956Y854897D01*
X150983Y854494D01*
X150147Y853853D01*
X149506Y853017D01*
X149103Y852044D01*
X149031Y851500D01*
X152500D01*
Y854969D01*
D02*
G37*
G36*
X120500D02*
X119956Y854897D01*
X118983Y854494D01*
X118147Y853853D01*
X117506Y853017D01*
X117103Y852044D01*
X117031Y851500D01*
X120500D01*
Y854969D01*
D02*
G37*
G36*
X89500Y854969D02*
Y851500D01*
X92969D01*
X92897Y852044D01*
X92494Y853017D01*
X91853Y853853D01*
X91017Y854494D01*
X90044Y854897D01*
X89500Y854969D01*
D02*
G37*
G36*
X88500Y854969D02*
X87956Y854897D01*
X86983Y854494D01*
X86147Y853853D01*
X85506Y853017D01*
X85103Y852044D01*
X85031Y851500D01*
X88500D01*
Y854969D01*
D02*
G37*
G36*
X92969Y850500D02*
X89500D01*
Y847031D01*
X90044Y847103D01*
X91017Y847506D01*
X91853Y848147D01*
X92494Y848983D01*
X92897Y849956D01*
X92969Y850500D01*
D02*
G37*
G36*
X220969Y850500D02*
X217500D01*
Y847031D01*
X218044Y847103D01*
X219017Y847506D01*
X219853Y848147D01*
X220494Y848983D01*
X220897Y849956D01*
X220969Y850500D01*
D02*
G37*
G36*
X188969D02*
X185500D01*
Y847031D01*
X186044Y847103D01*
X187017Y847506D01*
X187853Y848147D01*
X188494Y848983D01*
X188897Y849956D01*
X188969Y850500D01*
D02*
G37*
G36*
X156969D02*
X153500D01*
Y847031D01*
X154044Y847103D01*
X155017Y847506D01*
X155853Y848147D01*
X156494Y848983D01*
X156897Y849956D01*
X156969Y850500D01*
D02*
G37*
G36*
X124969D02*
X121500D01*
Y847031D01*
X122044Y847103D01*
X123017Y847506D01*
X123853Y848147D01*
X124494Y848983D01*
X124897Y849956D01*
X124969Y850500D01*
D02*
G37*
G36*
X252969D02*
X249500D01*
Y847031D01*
X250044Y847103D01*
X251017Y847506D01*
X251853Y848147D01*
X252494Y848983D01*
X252897Y849956D01*
X252969Y850500D01*
D02*
G37*
G36*
X284969D02*
X281500D01*
Y847031D01*
X282044Y847103D01*
X283017Y847506D01*
X283853Y848147D01*
X284494Y848983D01*
X284897Y849956D01*
X284969Y850500D01*
D02*
G37*
G36*
X280500D02*
X277031D01*
X277103Y849956D01*
X277506Y848983D01*
X278147Y848147D01*
X278983Y847506D01*
X279956Y847103D01*
X280500Y847031D01*
Y850500D01*
D02*
G37*
G36*
X216500D02*
X213031D01*
X213103Y849956D01*
X213506Y848983D01*
X214147Y848147D01*
X214983Y847506D01*
X215956Y847103D01*
X216500Y847031D01*
Y850500D01*
D02*
G37*
G36*
X184500D02*
X181031D01*
X181103Y849956D01*
X181506Y848983D01*
X182147Y848147D01*
X182983Y847506D01*
X183956Y847103D01*
X184500Y847031D01*
Y850500D01*
D02*
G37*
G36*
X152500D02*
X149031D01*
X149103Y849956D01*
X149506Y848983D01*
X150147Y848147D01*
X150983Y847506D01*
X151956Y847103D01*
X152500Y847031D01*
Y850500D01*
D02*
G37*
G36*
X120500D02*
X117031D01*
X117103Y849956D01*
X117506Y848983D01*
X118147Y848147D01*
X118983Y847506D01*
X119956Y847103D01*
X120500Y847031D01*
Y850500D01*
D02*
G37*
G36*
X248500D02*
X245031D01*
X245103Y849956D01*
X245506Y848983D01*
X246147Y848147D01*
X246983Y847506D01*
X247956Y847103D01*
X248500Y847031D01*
Y850500D01*
D02*
G37*
G36*
X88500Y850500D02*
X85031D01*
X85103Y849956D01*
X85506Y848983D01*
X86147Y848147D01*
X86983Y847506D01*
X87956Y847103D01*
X88500Y847031D01*
Y850500D01*
D02*
G37*
G36*
X265000Y855000D02*
X257000D01*
Y847000D01*
X265000D01*
Y855000D01*
D02*
G37*
G36*
X233000D02*
X225000D01*
Y847000D01*
X233000D01*
Y855000D01*
D02*
G37*
G36*
X201000D02*
X193000D01*
Y847000D01*
X201000D01*
Y855000D01*
D02*
G37*
G36*
X169000D02*
X161000D01*
Y847000D01*
X169000D01*
Y855000D01*
D02*
G37*
G36*
X137000D02*
X129000D01*
Y847000D01*
X137000D01*
Y855000D01*
D02*
G37*
G36*
X105000D02*
X97000D01*
Y847000D01*
X105000D01*
Y855000D01*
D02*
G37*
G36*
X73000D02*
X65000D01*
Y847000D01*
X73000D01*
Y855000D01*
D02*
G37*
G36*
X271000Y855035D02*
X269956Y854897D01*
X268983Y854494D01*
X268147Y853853D01*
X267506Y853017D01*
X267103Y852044D01*
X266966Y851000D01*
X267103Y849956D01*
X267506Y848983D01*
X268147Y848147D01*
X268983Y847506D01*
X269956Y847103D01*
X271000Y846966D01*
X272044Y847103D01*
X273017Y847506D01*
X273853Y848147D01*
X274494Y848983D01*
X274897Y849956D01*
X275034Y851000D01*
X274897Y852044D01*
X274494Y853017D01*
X273853Y853853D01*
X273017Y854494D01*
X272044Y854897D01*
X271000Y855035D01*
D02*
G37*
G36*
X239000D02*
X237956Y854897D01*
X236983Y854494D01*
X236147Y853853D01*
X235506Y853017D01*
X235103Y852044D01*
X234965Y851000D01*
X235103Y849956D01*
X235506Y848983D01*
X236147Y848147D01*
X236983Y847506D01*
X237956Y847103D01*
X239000Y846966D01*
X240044Y847103D01*
X241017Y847506D01*
X241853Y848147D01*
X242494Y848983D01*
X242897Y849956D01*
X243035Y851000D01*
X242897Y852044D01*
X242494Y853017D01*
X241853Y853853D01*
X241017Y854494D01*
X240044Y854897D01*
X239000Y855035D01*
D02*
G37*
G36*
X207000D02*
X205956Y854897D01*
X204983Y854494D01*
X204147Y853853D01*
X203506Y853017D01*
X203103Y852044D01*
X202965Y851000D01*
X203103Y849956D01*
X203506Y848983D01*
X204147Y848147D01*
X204983Y847506D01*
X205956Y847103D01*
X207000Y846966D01*
X208044Y847103D01*
X209017Y847506D01*
X209853Y848147D01*
X210494Y848983D01*
X210897Y849956D01*
X211034Y851000D01*
X210897Y852044D01*
X210494Y853017D01*
X209853Y853853D01*
X209017Y854494D01*
X208044Y854897D01*
X207000Y855035D01*
D02*
G37*
G36*
X175000D02*
X173956Y854897D01*
X172983Y854494D01*
X172147Y853853D01*
X171506Y853017D01*
X171103Y852044D01*
X170966Y851000D01*
X171103Y849956D01*
X171506Y848983D01*
X172147Y848147D01*
X172983Y847506D01*
X173956Y847103D01*
X175000Y846966D01*
X176044Y847103D01*
X177017Y847506D01*
X177853Y848147D01*
X178494Y848983D01*
X178897Y849956D01*
X179034Y851000D01*
X178897Y852044D01*
X178494Y853017D01*
X177853Y853853D01*
X177017Y854494D01*
X176044Y854897D01*
X175000Y855035D01*
D02*
G37*
G36*
X143000D02*
X141956Y854897D01*
X140983Y854494D01*
X140147Y853853D01*
X139506Y853017D01*
X139103Y852044D01*
X138965Y851000D01*
X139103Y849956D01*
X139506Y848983D01*
X140147Y848147D01*
X140983Y847506D01*
X141956Y847103D01*
X143000Y846966D01*
X144044Y847103D01*
X145017Y847506D01*
X145853Y848147D01*
X146494Y848983D01*
X146897Y849956D01*
X147035Y851000D01*
X146897Y852044D01*
X146494Y853017D01*
X145853Y853853D01*
X145017Y854494D01*
X144044Y854897D01*
X143000Y855035D01*
D02*
G37*
G36*
X111000D02*
X109956Y854897D01*
X108983Y854494D01*
X108147Y853853D01*
X107506Y853017D01*
X107103Y852044D01*
X106965Y851000D01*
X107103Y849956D01*
X107506Y848983D01*
X108147Y848147D01*
X108983Y847506D01*
X109956Y847103D01*
X111000Y846966D01*
X112044Y847103D01*
X113017Y847506D01*
X113853Y848147D01*
X114494Y848983D01*
X114897Y849956D01*
X115034Y851000D01*
X114897Y852044D01*
X114494Y853017D01*
X113853Y853853D01*
X113017Y854494D01*
X112044Y854897D01*
X111000Y855035D01*
D02*
G37*
G36*
X79000D02*
X77956Y854897D01*
X76983Y854494D01*
X76147Y853853D01*
X75506Y853017D01*
X75103Y852044D01*
X74966Y851000D01*
X75103Y849956D01*
X75506Y848983D01*
X76147Y848147D01*
X76983Y847506D01*
X77956Y847103D01*
X79000Y846966D01*
X80044Y847103D01*
X81017Y847506D01*
X81853Y848147D01*
X82494Y848983D01*
X82897Y849956D01*
X83034Y851000D01*
X82897Y852044D01*
X82494Y853017D01*
X81853Y853853D01*
X81017Y854494D01*
X80044Y854897D01*
X79000Y855035D01*
D02*
G37*
G36*
X329500Y860010D02*
Y844500D01*
X345010D01*
X344852Y846511D01*
X344264Y848960D01*
X343300Y851286D01*
X341984Y853434D01*
X340349Y855349D01*
X338434Y856984D01*
X336286Y858300D01*
X333960Y859264D01*
X331511Y859852D01*
X329500Y860010D01*
D02*
G37*
G36*
X328500D02*
X326489Y859852D01*
X324040Y859264D01*
X321714Y858300D01*
X319566Y856984D01*
X317651Y855349D01*
X316016Y853434D01*
X314700Y851286D01*
X313736Y848960D01*
X313148Y846511D01*
X312990Y844500D01*
X328500D01*
Y860010D01*
D02*
G37*
G36*
X21500D02*
Y844500D01*
X37010D01*
X36852Y846511D01*
X36264Y848960D01*
X35300Y851286D01*
X33984Y853434D01*
X32349Y855349D01*
X30434Y856984D01*
X28286Y858300D01*
X25960Y859264D01*
X23511Y859852D01*
X21500Y860010D01*
D02*
G37*
G36*
X20500D02*
X18489Y859852D01*
X16040Y859264D01*
X13714Y858300D01*
X11566Y856984D01*
X9651Y855349D01*
X8016Y853434D01*
X6700Y851286D01*
X5736Y848960D01*
X5148Y846511D01*
X4990Y844500D01*
X20500D01*
Y860010D01*
D02*
G37*
G36*
X345010Y843500D02*
X329500D01*
Y827990D01*
X331511Y828148D01*
X333960Y828736D01*
X336286Y829700D01*
X338434Y831016D01*
X340349Y832651D01*
X341984Y834566D01*
X343300Y836714D01*
X344264Y839040D01*
X344852Y841489D01*
X345010Y843500D01*
D02*
G37*
G36*
X328500D02*
X312990D01*
X313148Y841489D01*
X313736Y839040D01*
X314700Y836714D01*
X316016Y834566D01*
X317651Y832651D01*
X319566Y831016D01*
X321714Y829700D01*
X324040Y828736D01*
X326489Y828148D01*
X328500Y827990D01*
Y843500D01*
D02*
G37*
G36*
X37010D02*
X21500D01*
Y827990D01*
X23511Y828148D01*
X25960Y828736D01*
X28286Y829700D01*
X30434Y831016D01*
X32349Y832651D01*
X33984Y834566D01*
X35300Y836714D01*
X36264Y839040D01*
X36852Y841489D01*
X37010Y843500D01*
D02*
G37*
G36*
X20500D02*
X4990D01*
X5148Y841489D01*
X5736Y839040D01*
X6700Y836714D01*
X8016Y834566D01*
X9651Y832651D01*
X11566Y831016D01*
X13714Y829700D01*
X16040Y828736D01*
X18489Y828148D01*
X20500Y827990D01*
Y843500D01*
D02*
G37*
G36*
X316150Y823824D02*
X314989Y823710D01*
X313873Y823371D01*
X312844Y822821D01*
X311942Y822081D01*
X311202Y821180D01*
X310653Y820151D01*
X310314Y819035D01*
X310200Y817874D01*
X310314Y816713D01*
X310653Y815597D01*
X311202Y814568D01*
X311942Y813667D01*
X312844Y812927D01*
X313873Y812377D01*
X314989Y812038D01*
X316150Y811924D01*
X317310Y812038D01*
X318426Y812377D01*
X319455Y812927D01*
X320357Y813667D01*
X321097Y814568D01*
X321647Y815597D01*
X321985Y816713D01*
X322099Y817874D01*
X321985Y819035D01*
X321647Y820151D01*
X321097Y821180D01*
X320357Y822081D01*
X319455Y822821D01*
X318426Y823371D01*
X317310Y823710D01*
X316150Y823824D01*
D02*
G37*
G36*
X263000Y819493D02*
X261839Y819379D01*
X260723Y819040D01*
X259694Y818491D01*
X258793Y817750D01*
X258053Y816849D01*
X257503Y815820D01*
X257164Y814704D01*
X257050Y813543D01*
X257164Y812383D01*
X257503Y811266D01*
X258053Y810238D01*
X258793Y809336D01*
X259694Y808596D01*
X260723Y808046D01*
X261839Y807708D01*
X263000Y807593D01*
X264161Y807708D01*
X265277Y808046D01*
X266306Y808596D01*
X267207Y809336D01*
X267947Y810238D01*
X268497Y811266D01*
X268836Y812383D01*
X268950Y813543D01*
X268836Y814704D01*
X268497Y815820D01*
X267947Y816849D01*
X267207Y817750D01*
X266306Y818491D01*
X265277Y819040D01*
X264161Y819379D01*
X263000Y819493D01*
D02*
G37*
G36*
X34350Y803105D02*
Y797705D01*
X39751D01*
X39686Y798365D01*
X39347Y799482D01*
X38798Y800510D01*
X38058Y801412D01*
X37156Y802152D01*
X36127Y802702D01*
X35011Y803040D01*
X34350Y803105D01*
D02*
G37*
G36*
X33350D02*
X32690Y803040D01*
X31574Y802702D01*
X30545Y802152D01*
X29643Y801412D01*
X28903Y800510D01*
X28353Y799482D01*
X28015Y798365D01*
X27950Y797705D01*
X33350D01*
Y803105D01*
D02*
G37*
G36*
X39751Y796705D02*
X34350D01*
Y791304D01*
X35011Y791369D01*
X36127Y791708D01*
X37156Y792257D01*
X38058Y792998D01*
X38798Y793899D01*
X39347Y794928D01*
X39686Y796044D01*
X39751Y796705D01*
D02*
G37*
G36*
X33350D02*
X27950D01*
X28015Y796044D01*
X28353Y794928D01*
X28903Y793899D01*
X29643Y792998D01*
X30545Y792257D01*
X31574Y791708D01*
X32690Y791369D01*
X33350Y791304D01*
Y796705D01*
D02*
G37*
G36*
X87000Y798824D02*
X85839Y798710D01*
X84723Y798371D01*
X83694Y797821D01*
X82793Y797081D01*
X82053Y796180D01*
X81503Y795151D01*
X81164Y794035D01*
X81050Y792874D01*
X81164Y791713D01*
X81503Y790597D01*
X82053Y789568D01*
X82793Y788667D01*
X83694Y787927D01*
X84723Y787377D01*
X85839Y787038D01*
X87000Y786924D01*
X88161Y787038D01*
X89277Y787377D01*
X90306Y787927D01*
X91207Y788667D01*
X91947Y789568D01*
X92497Y790597D01*
X92836Y791713D01*
X92950Y792874D01*
X92836Y794035D01*
X92497Y795151D01*
X91947Y796180D01*
X91207Y797081D01*
X90306Y797821D01*
X89277Y798371D01*
X88161Y798710D01*
X87000Y798824D01*
D02*
G37*
G36*
X112500Y770122D02*
X111821Y770033D01*
X111189Y769771D01*
X110646Y769354D01*
X110229Y768811D01*
X109967Y768179D01*
X109878Y767500D01*
X109967Y766821D01*
X110229Y766189D01*
X110646Y765646D01*
X111189Y765229D01*
X111821Y764967D01*
X112500Y764878D01*
X113179Y764967D01*
X113811Y765229D01*
X114354Y765646D01*
X114771Y766189D01*
X115033Y766821D01*
X115122Y767500D01*
X115033Y768179D01*
X114771Y768811D01*
X114354Y769354D01*
X113811Y769771D01*
X113179Y770033D01*
X112500Y770122D01*
D02*
G37*
G36*
X263000Y765950D02*
X261839Y765836D01*
X260723Y765497D01*
X259694Y764947D01*
X258793Y764207D01*
X258053Y763306D01*
X257503Y762277D01*
X257164Y761161D01*
X257050Y760000D01*
X257164Y758839D01*
X257503Y757723D01*
X258053Y756694D01*
X258793Y755793D01*
X259694Y755053D01*
X260723Y754503D01*
X261839Y754164D01*
X263000Y754050D01*
X264161Y754164D01*
X265277Y754503D01*
X266306Y755053D01*
X267207Y755793D01*
X267947Y756694D01*
X268497Y757723D01*
X268836Y758839D01*
X268950Y760000D01*
X268836Y761161D01*
X268497Y762277D01*
X267947Y763306D01*
X267207Y764207D01*
X266306Y764947D01*
X265277Y765497D01*
X264161Y765836D01*
X263000Y765950D01*
D02*
G37*
G36*
X316150Y761619D02*
X314989Y761505D01*
X313873Y761166D01*
X312844Y760616D01*
X311942Y759876D01*
X311202Y758975D01*
X310653Y757946D01*
X310314Y756830D01*
X310200Y755669D01*
X310314Y754508D01*
X310653Y753392D01*
X311202Y752364D01*
X311942Y751462D01*
X312844Y750722D01*
X313873Y750172D01*
X314989Y749834D01*
X316150Y749719D01*
X317310Y749834D01*
X318426Y750172D01*
X319455Y750722D01*
X320357Y751462D01*
X321097Y752364D01*
X321647Y753392D01*
X321985Y754508D01*
X322099Y755669D01*
X321985Y756830D01*
X321647Y757946D01*
X321097Y758975D01*
X320357Y759876D01*
X319455Y760616D01*
X318426Y761166D01*
X317310Y761505D01*
X316150Y761619D01*
D02*
G37*
G36*
X316650Y742003D02*
Y736602D01*
X322050D01*
X321985Y737263D01*
X321647Y738379D01*
X321097Y739408D01*
X320357Y740310D01*
X319455Y741049D01*
X318426Y741599D01*
X317310Y741938D01*
X316650Y742003D01*
D02*
G37*
G36*
X315650Y742003D02*
X314989Y741938D01*
X313873Y741599D01*
X312844Y741049D01*
X311942Y740310D01*
X311202Y739408D01*
X310653Y738379D01*
X310314Y737263D01*
X310249Y736602D01*
X315650D01*
Y742003D01*
D02*
G37*
G36*
X87000Y745281D02*
X85839Y745166D01*
X84723Y744828D01*
X83694Y744278D01*
X82793Y743538D01*
X82053Y742636D01*
X81503Y741608D01*
X81164Y740491D01*
X81050Y739331D01*
X81164Y738170D01*
X81503Y737054D01*
X82053Y736025D01*
X82793Y735123D01*
X83694Y734383D01*
X84723Y733834D01*
X85839Y733495D01*
X87000Y733381D01*
X88161Y733495D01*
X89277Y733834D01*
X90306Y734383D01*
X91207Y735123D01*
X91947Y736025D01*
X92497Y737054D01*
X92836Y738170D01*
X92950Y739331D01*
X92836Y740491D01*
X92497Y741608D01*
X91947Y742636D01*
X91207Y743538D01*
X90306Y744278D01*
X89277Y744828D01*
X88161Y745166D01*
X87000Y745281D01*
D02*
G37*
G36*
X322050Y735602D02*
X316650D01*
Y730202D01*
X317310Y730267D01*
X318426Y730605D01*
X319455Y731155D01*
X320357Y731895D01*
X321097Y732797D01*
X321647Y733825D01*
X321985Y734942D01*
X322050Y735602D01*
D02*
G37*
G36*
X315650D02*
X310249D01*
X310314Y734942D01*
X310653Y733825D01*
X311202Y732797D01*
X311942Y731895D01*
X312844Y731155D01*
X313873Y730605D01*
X314989Y730267D01*
X315650Y730202D01*
Y735602D01*
D02*
G37*
G36*
X33850Y740950D02*
X32690Y740836D01*
X31574Y740497D01*
X30545Y739947D01*
X29643Y739207D01*
X28903Y738306D01*
X28353Y737277D01*
X28015Y736161D01*
X27900Y735000D01*
X28015Y733839D01*
X28353Y732723D01*
X28903Y731694D01*
X29643Y730793D01*
X30545Y730053D01*
X31574Y729503D01*
X32690Y729164D01*
X33850Y729050D01*
X35011Y729164D01*
X36127Y729503D01*
X37156Y730053D01*
X38058Y730793D01*
X38798Y731694D01*
X39347Y732723D01*
X39686Y733839D01*
X39800Y735000D01*
X39686Y736161D01*
X39347Y737277D01*
X38798Y738306D01*
X38058Y739207D01*
X37156Y739947D01*
X36127Y740497D01*
X35011Y740836D01*
X33850Y740950D01*
D02*
G37*
G36*
X263000Y737722D02*
X261839Y737607D01*
X260723Y737269D01*
X259694Y736719D01*
X258793Y735979D01*
X258053Y735077D01*
X257503Y734049D01*
X257164Y732932D01*
X257050Y731772D01*
X257164Y730611D01*
X257503Y729495D01*
X258053Y728466D01*
X258793Y727564D01*
X259694Y726825D01*
X260723Y726275D01*
X261839Y725936D01*
X263000Y725822D01*
X264161Y725936D01*
X265277Y726275D01*
X266306Y726825D01*
X267207Y727564D01*
X267947Y728466D01*
X268497Y729495D01*
X268836Y730611D01*
X268950Y731772D01*
X268836Y732932D01*
X268497Y734049D01*
X267947Y735077D01*
X267207Y735979D01*
X266306Y736719D01*
X265277Y737269D01*
X264161Y737607D01*
X263000Y737722D01*
D02*
G37*
G36*
X34350Y719105D02*
Y713705D01*
X39751D01*
X39686Y714365D01*
X39347Y715482D01*
X38798Y716510D01*
X38058Y717412D01*
X37156Y718152D01*
X36127Y718702D01*
X35011Y719040D01*
X34350Y719105D01*
D02*
G37*
G36*
X33350D02*
X32690Y719040D01*
X31574Y718702D01*
X30545Y718152D01*
X29643Y717412D01*
X28903Y716510D01*
X28353Y715482D01*
X28015Y714365D01*
X27950Y713705D01*
X33350D01*
Y719105D01*
D02*
G37*
G36*
X39751Y712705D02*
X34350D01*
Y707304D01*
X35011Y707369D01*
X36127Y707708D01*
X37156Y708257D01*
X38058Y708997D01*
X38798Y709899D01*
X39347Y710928D01*
X39686Y712044D01*
X39751Y712705D01*
D02*
G37*
G36*
X33350D02*
X27950D01*
X28015Y712044D01*
X28353Y710928D01*
X28903Y709899D01*
X29643Y708997D01*
X30545Y708257D01*
X31574Y707708D01*
X32690Y707369D01*
X33350Y707304D01*
Y712705D01*
D02*
G37*
G36*
X87000Y714824D02*
X85839Y714710D01*
X84723Y714371D01*
X83694Y713821D01*
X82793Y713081D01*
X82053Y712180D01*
X81503Y711151D01*
X81164Y710035D01*
X81050Y708874D01*
X81164Y707713D01*
X81503Y706597D01*
X82053Y705568D01*
X82793Y704667D01*
X83694Y703927D01*
X84723Y703377D01*
X85839Y703038D01*
X87000Y702924D01*
X88161Y703038D01*
X89277Y703377D01*
X90306Y703927D01*
X91207Y704667D01*
X91947Y705568D01*
X92497Y706597D01*
X92836Y707713D01*
X92950Y708874D01*
X92836Y710035D01*
X92497Y711151D01*
X91947Y712180D01*
X91207Y713081D01*
X90306Y713821D01*
X89277Y714371D01*
X88161Y714710D01*
X87000Y714824D01*
D02*
G37*
G36*
X263000Y684178D02*
X261839Y684064D01*
X260723Y683725D01*
X259694Y683176D01*
X258793Y682436D01*
X258053Y681534D01*
X257503Y680505D01*
X257164Y679389D01*
X257050Y678228D01*
X257164Y677068D01*
X257503Y675951D01*
X258053Y674923D01*
X258793Y674021D01*
X259694Y673281D01*
X260723Y672731D01*
X261839Y672393D01*
X263000Y672278D01*
X264161Y672393D01*
X265277Y672731D01*
X266306Y673281D01*
X267207Y674021D01*
X267947Y674923D01*
X268497Y675951D01*
X268836Y677068D01*
X268950Y678228D01*
X268836Y679389D01*
X268497Y680505D01*
X267947Y681534D01*
X267207Y682436D01*
X266306Y683176D01*
X265277Y683725D01*
X264161Y684064D01*
X263000Y684178D01*
D02*
G37*
G36*
X316150Y679847D02*
X314989Y679733D01*
X313873Y679395D01*
X312844Y678845D01*
X311942Y678105D01*
X311202Y677203D01*
X310653Y676175D01*
X310314Y675058D01*
X310200Y673898D01*
X310314Y672737D01*
X310653Y671621D01*
X311202Y670592D01*
X311942Y669690D01*
X312844Y668951D01*
X313873Y668401D01*
X314989Y668062D01*
X316150Y667948D01*
X317310Y668062D01*
X318426Y668401D01*
X319455Y668951D01*
X320357Y669690D01*
X321097Y670592D01*
X321647Y671621D01*
X321985Y672737D01*
X322099Y673898D01*
X321985Y675058D01*
X321647Y676175D01*
X321097Y677203D01*
X320357Y678105D01*
X319455Y678845D01*
X318426Y679395D01*
X317310Y679733D01*
X316150Y679847D01*
D02*
G37*
G36*
X316650Y660460D02*
Y655059D01*
X322050D01*
X321985Y655720D01*
X321647Y656836D01*
X321097Y657865D01*
X320357Y658766D01*
X319455Y659506D01*
X318426Y660056D01*
X317310Y660395D01*
X316650Y660460D01*
D02*
G37*
G36*
X315650Y660460D02*
X314989Y660395D01*
X313873Y660056D01*
X312844Y659506D01*
X311942Y658766D01*
X311202Y657865D01*
X310653Y656836D01*
X310314Y655720D01*
X310249Y655059D01*
X315650D01*
Y660460D01*
D02*
G37*
G36*
X164520Y658074D02*
X163642Y657899D01*
X162898Y657402D01*
X162400Y656657D01*
X162226Y655780D01*
X162400Y654902D01*
X162898Y654157D01*
X163642Y653660D01*
X164520Y653485D01*
X164915Y653564D01*
X165340Y653139D01*
X165269Y652779D01*
X165444Y651902D01*
X165941Y651157D01*
X166685Y650660D01*
X167563Y650486D01*
X168441Y650660D01*
X169185Y651157D01*
X169682Y651902D01*
X169857Y652779D01*
X169682Y653657D01*
X169185Y654402D01*
X168441Y654899D01*
X167563Y655074D01*
X167167Y654995D01*
X166742Y655420D01*
X166814Y655780D01*
X166639Y656657D01*
X166142Y657402D01*
X165398Y657899D01*
X164520Y658074D01*
D02*
G37*
G36*
X87000Y661281D02*
X85839Y661166D01*
X84723Y660828D01*
X83694Y660278D01*
X82793Y659538D01*
X82053Y658636D01*
X81503Y657608D01*
X81164Y656492D01*
X81050Y655331D01*
X81164Y654170D01*
X81503Y653054D01*
X82053Y652025D01*
X82793Y651124D01*
X83694Y650384D01*
X84723Y649834D01*
X85839Y649495D01*
X87000Y649381D01*
X88161Y649495D01*
X89277Y649834D01*
X90306Y650384D01*
X91207Y651124D01*
X91947Y652025D01*
X92497Y653054D01*
X92836Y654170D01*
X92950Y655331D01*
X92836Y656492D01*
X92497Y657608D01*
X91947Y658636D01*
X91207Y659538D01*
X90306Y660278D01*
X89277Y660828D01*
X88161Y661166D01*
X87000Y661281D01*
D02*
G37*
G36*
X315650Y654059D02*
X310249D01*
X310314Y653398D01*
X310653Y652282D01*
X311202Y651254D01*
X311942Y650352D01*
X312844Y649612D01*
X313873Y649062D01*
X314989Y648724D01*
X315650Y648658D01*
Y654059D01*
D02*
G37*
G36*
X322050D02*
X316650D01*
Y648658D01*
X317310Y648724D01*
X318426Y649062D01*
X319455Y649612D01*
X320357Y650352D01*
X321097Y651254D01*
X321647Y652282D01*
X321985Y653398D01*
X322050Y654059D01*
D02*
G37*
G36*
X213886Y648079D02*
X213207Y647990D01*
X212575Y647728D01*
X212032Y647311D01*
X211669Y646839D01*
X211386Y646800D01*
X211103Y646839D01*
X210740Y647311D01*
X210197Y647728D01*
X209565Y647990D01*
X208886Y648079D01*
X208207Y647990D01*
X207575Y647728D01*
X207031Y647311D01*
X206615Y646768D01*
X206353Y646135D01*
X206263Y645457D01*
X206353Y644778D01*
X206615Y644145D01*
X207031Y643602D01*
X207575Y643186D01*
X208207Y642924D01*
X208886Y642834D01*
X209565Y642924D01*
X210197Y643186D01*
X210740Y643602D01*
X211103Y644075D01*
X211386Y644114D01*
X211669Y644075D01*
X212032Y643602D01*
X212575Y643186D01*
X213207Y642924D01*
X213886Y642834D01*
X214565Y642924D01*
X215197Y643186D01*
X215740Y643602D01*
X216157Y644145D01*
X216419Y644778D01*
X216508Y645457D01*
X216419Y646135D01*
X216157Y646768D01*
X215740Y647311D01*
X215197Y647728D01*
X214565Y647990D01*
X213886Y648079D01*
D02*
G37*
G36*
X33850Y656950D02*
X32690Y656836D01*
X31574Y656497D01*
X30545Y655947D01*
X29643Y655207D01*
X28903Y654306D01*
X28353Y653277D01*
X28015Y652161D01*
X27900Y651000D01*
X28015Y649839D01*
X28353Y648723D01*
X28903Y647694D01*
X29643Y646793D01*
X30545Y646053D01*
X31574Y645503D01*
X32690Y645164D01*
X33850Y645050D01*
X35011Y645164D01*
X36127Y645503D01*
X37156Y646053D01*
X38058Y646793D01*
X38798Y647694D01*
X39347Y648723D01*
X39686Y649839D01*
X39800Y651000D01*
X39686Y652161D01*
X39347Y653277D01*
X38798Y654306D01*
X38058Y655207D01*
X37156Y655947D01*
X36127Y656497D01*
X35011Y656836D01*
X33850Y656950D01*
D02*
G37*
G36*
X136492Y649554D02*
X135614Y649379D01*
X134870Y648882D01*
X134373Y648138D01*
X134198Y647260D01*
X134373Y646382D01*
X134870Y645638D01*
X135614Y645140D01*
X136492Y644966D01*
X137370Y645140D01*
X138114Y645638D01*
X138612Y646382D01*
X138786Y647260D01*
X138612Y648138D01*
X138114Y648882D01*
X137370Y649379D01*
X136492Y649554D01*
D02*
G37*
G36*
X157500Y649440D02*
X156622Y649265D01*
X155878Y648768D01*
X155380Y648024D01*
X155206Y647146D01*
X155380Y646268D01*
X155878Y645524D01*
X156622Y645026D01*
X157500Y644852D01*
X158378Y645026D01*
X159122Y645524D01*
X159619Y646268D01*
X159794Y647146D01*
X159619Y648024D01*
X159122Y648768D01*
X158378Y649265D01*
X157500Y649440D01*
D02*
G37*
G36*
X263000Y656178D02*
X261839Y656064D01*
X260723Y655725D01*
X259694Y655175D01*
X258793Y654436D01*
X258053Y653534D01*
X257503Y652505D01*
X257164Y651389D01*
X257050Y650228D01*
X257164Y649068D01*
X257503Y647951D01*
X258053Y646923D01*
X258793Y646021D01*
X259694Y645281D01*
X260723Y644731D01*
X261839Y644393D01*
X263000Y644278D01*
X264161Y644393D01*
X265277Y644731D01*
X266306Y645281D01*
X267207Y646021D01*
X267947Y646923D01*
X268497Y647951D01*
X268836Y649068D01*
X268950Y650228D01*
X268836Y651389D01*
X268497Y652505D01*
X267947Y653534D01*
X267207Y654436D01*
X266306Y655175D01*
X265277Y655725D01*
X264161Y656064D01*
X263000Y656178D01*
D02*
G37*
G36*
X141492Y637882D02*
X140813Y637793D01*
X140181Y637531D01*
X139638Y637114D01*
X139275Y636642D01*
X138992Y636603D01*
X138709Y636642D01*
X138347Y637114D01*
X137803Y637531D01*
X137171Y637793D01*
X136492Y637882D01*
X135813Y637793D01*
X135181Y637531D01*
X134638Y637114D01*
X134221Y636571D01*
X133959Y635939D01*
X133870Y635260D01*
X133959Y634581D01*
X134221Y633949D01*
X134638Y633405D01*
X135181Y632989D01*
X135813Y632727D01*
X136492Y632637D01*
X137171Y632727D01*
X137803Y632989D01*
X138347Y633405D01*
X138709Y633878D01*
X138992Y633917D01*
X139275Y633878D01*
X139638Y633405D01*
X140181Y632989D01*
X140813Y632727D01*
X141492Y632637D01*
X142171Y632727D01*
X142803Y632989D01*
X143347Y633405D01*
X143763Y633949D01*
X144025Y634581D01*
X144115Y635260D01*
X144025Y635939D01*
X143763Y636571D01*
X143347Y637114D01*
X142803Y637531D01*
X142171Y637793D01*
X141492Y637882D01*
D02*
G37*
G36*
X192500Y635987D02*
X191622Y635812D01*
X190878Y635315D01*
X190381Y634571D01*
X190206Y633693D01*
X190381Y632815D01*
X190878Y632071D01*
X191622Y631573D01*
X192500Y631399D01*
X193378Y631573D01*
X194122Y632071D01*
X194620Y632815D01*
X194794Y633693D01*
X194620Y634571D01*
X194122Y635315D01*
X193378Y635812D01*
X192500Y635987D01*
D02*
G37*
G36*
X213886Y635751D02*
X213008Y635576D01*
X212264Y635079D01*
X211766Y634335D01*
X211592Y633457D01*
X211766Y632579D01*
X212264Y631835D01*
X213008Y631337D01*
X213886Y631163D01*
X214764Y631337D01*
X215508Y631835D01*
X216005Y632579D01*
X216180Y633457D01*
X216005Y634335D01*
X215508Y635079D01*
X214764Y635576D01*
X213886Y635751D01*
D02*
G37*
G36*
X34350Y635105D02*
Y629705D01*
X39751D01*
X39686Y630366D01*
X39347Y631482D01*
X38798Y632510D01*
X38058Y633412D01*
X37156Y634152D01*
X36127Y634702D01*
X35011Y635040D01*
X34350Y635105D01*
D02*
G37*
G36*
X33350D02*
X32690Y635040D01*
X31574Y634702D01*
X30545Y634152D01*
X29643Y633412D01*
X28903Y632510D01*
X28353Y631482D01*
X28015Y630366D01*
X27950Y629705D01*
X33350D01*
Y635105D01*
D02*
G37*
G36*
X183000Y631060D02*
X182122Y630885D01*
X181378Y630388D01*
X180880Y629644D01*
X180706Y628766D01*
X180880Y627888D01*
X181378Y627144D01*
X182122Y626646D01*
X183000Y626472D01*
X183388Y626549D01*
X183742Y626195D01*
X183706Y626016D01*
X183880Y625138D01*
X184378Y624394D01*
X185122Y623896D01*
X186000Y623722D01*
X186878Y623896D01*
X187622Y624394D01*
X188119Y625138D01*
X188294Y626016D01*
X188119Y626894D01*
X187622Y627638D01*
X186878Y628135D01*
X186000Y628310D01*
X185612Y628233D01*
X185258Y628586D01*
X185294Y628766D01*
X185119Y629644D01*
X184622Y630388D01*
X183878Y630885D01*
X183000Y631060D01*
D02*
G37*
G36*
X39751Y628705D02*
X34350D01*
Y623304D01*
X35011Y623369D01*
X36127Y623708D01*
X37156Y624258D01*
X38058Y624998D01*
X38798Y625899D01*
X39347Y626928D01*
X39686Y628044D01*
X39751Y628705D01*
D02*
G37*
G36*
X33350D02*
X27950D01*
X28015Y628044D01*
X28353Y626928D01*
X28903Y625899D01*
X29643Y624998D01*
X30545Y624258D01*
X31574Y623708D01*
X32690Y623369D01*
X33350Y623304D01*
Y628705D01*
D02*
G37*
G36*
X87000Y630824D02*
X85839Y630710D01*
X84723Y630371D01*
X83694Y629821D01*
X82793Y629081D01*
X82053Y628180D01*
X81503Y627151D01*
X81164Y626035D01*
X81050Y624874D01*
X81164Y623713D01*
X81503Y622597D01*
X82053Y621568D01*
X82793Y620667D01*
X83694Y619927D01*
X84723Y619377D01*
X85839Y619038D01*
X87000Y618924D01*
X88161Y619038D01*
X89277Y619377D01*
X90306Y619927D01*
X91207Y620667D01*
X91947Y621568D01*
X92497Y622597D01*
X92836Y623713D01*
X92950Y624874D01*
X92836Y626035D01*
X92497Y627151D01*
X91947Y628180D01*
X91207Y629081D01*
X90306Y629821D01*
X89277Y630371D01*
X88161Y630710D01*
X87000Y630824D01*
D02*
G37*
G36*
X164520Y618074D02*
X163642Y617899D01*
X162898Y617402D01*
X162400Y616657D01*
X162226Y615779D01*
X162400Y614902D01*
X162898Y614157D01*
X163642Y613660D01*
X164520Y613485D01*
X164915Y613564D01*
X165340Y613139D01*
X165269Y612780D01*
X165444Y611902D01*
X165941Y611157D01*
X166685Y610660D01*
X167563Y610486D01*
X168441Y610660D01*
X169185Y611157D01*
X169682Y611902D01*
X169857Y612780D01*
X169682Y613657D01*
X169185Y614402D01*
X168441Y614899D01*
X167563Y615074D01*
X167167Y614995D01*
X166742Y615420D01*
X166814Y615779D01*
X166639Y616657D01*
X166142Y617402D01*
X165398Y617899D01*
X164520Y618074D01*
D02*
G37*
G36*
X213886Y608079D02*
X213207Y607990D01*
X212575Y607728D01*
X212032Y607311D01*
X211669Y606839D01*
X211386Y606800D01*
X211103Y606839D01*
X210740Y607311D01*
X210197Y607728D01*
X209565Y607990D01*
X208886Y608079D01*
X208207Y607990D01*
X207575Y607728D01*
X207031Y607311D01*
X206615Y606768D01*
X206353Y606135D01*
X206263Y605457D01*
X206353Y604778D01*
X206615Y604145D01*
X207031Y603602D01*
X207575Y603186D01*
X208207Y602924D01*
X208886Y602834D01*
X209565Y602924D01*
X210197Y603186D01*
X210740Y603602D01*
X211103Y604075D01*
X211386Y604114D01*
X211669Y604075D01*
X212032Y603602D01*
X212575Y603186D01*
X213207Y602924D01*
X213886Y602834D01*
X214565Y602924D01*
X215197Y603186D01*
X215740Y603602D01*
X216157Y604145D01*
X216419Y604778D01*
X216508Y605457D01*
X216419Y606135D01*
X216157Y606768D01*
X215740Y607311D01*
X215197Y607728D01*
X214565Y607990D01*
X213886Y608079D01*
D02*
G37*
G36*
X136492Y609554D02*
X135614Y609379D01*
X134870Y608882D01*
X134373Y608138D01*
X134198Y607260D01*
X134373Y606382D01*
X134870Y605638D01*
X135614Y605140D01*
X136492Y604966D01*
X137370Y605140D01*
X138114Y605638D01*
X138612Y606382D01*
X138786Y607260D01*
X138612Y608138D01*
X138114Y608882D01*
X137370Y609379D01*
X136492Y609554D01*
D02*
G37*
G36*
X157500Y609318D02*
X156622Y609143D01*
X155878Y608646D01*
X155380Y607902D01*
X155206Y607024D01*
X155380Y606146D01*
X155878Y605402D01*
X156622Y604904D01*
X157500Y604730D01*
X158378Y604904D01*
X159122Y605402D01*
X159619Y606146D01*
X159794Y607024D01*
X159619Y607902D01*
X159122Y608646D01*
X158378Y609143D01*
X157500Y609318D01*
D02*
G37*
G36*
X141492Y597882D02*
X140813Y597793D01*
X140181Y597531D01*
X139638Y597114D01*
X139275Y596642D01*
X138992Y596603D01*
X138709Y596642D01*
X138347Y597114D01*
X137803Y597531D01*
X137171Y597793D01*
X136492Y597882D01*
X135813Y597793D01*
X135181Y597531D01*
X134638Y597114D01*
X134221Y596571D01*
X133959Y595939D01*
X133870Y595260D01*
X133959Y594581D01*
X134221Y593949D01*
X134638Y593405D01*
X135181Y592989D01*
X135813Y592727D01*
X136492Y592637D01*
X137171Y592727D01*
X137803Y592989D01*
X138347Y593405D01*
X138709Y593878D01*
X138992Y593917D01*
X139275Y593878D01*
X139638Y593405D01*
X140181Y592989D01*
X140813Y592727D01*
X141492Y592637D01*
X142171Y592727D01*
X142803Y592989D01*
X143347Y593405D01*
X143763Y593949D01*
X144025Y594581D01*
X144115Y595260D01*
X144025Y595939D01*
X143763Y596571D01*
X143347Y597114D01*
X142803Y597531D01*
X142171Y597793D01*
X141492Y597882D01*
D02*
G37*
G36*
X192500Y595987D02*
X191622Y595812D01*
X190878Y595315D01*
X190381Y594571D01*
X190206Y593693D01*
X190381Y592815D01*
X190878Y592071D01*
X191622Y591573D01*
X192500Y591399D01*
X193378Y591573D01*
X194122Y592071D01*
X194620Y592815D01*
X194794Y593693D01*
X194620Y594571D01*
X194122Y595315D01*
X193378Y595812D01*
X192500Y595987D01*
D02*
G37*
G36*
X213886Y595751D02*
X213008Y595576D01*
X212264Y595079D01*
X211766Y594335D01*
X211592Y593457D01*
X211766Y592579D01*
X212264Y591834D01*
X213008Y591337D01*
X213886Y591163D01*
X214764Y591337D01*
X215508Y591834D01*
X216005Y592579D01*
X216180Y593457D01*
X216005Y594335D01*
X215508Y595079D01*
X214764Y595576D01*
X213886Y595751D01*
D02*
G37*
G36*
X263000Y602635D02*
X261839Y602521D01*
X260723Y602182D01*
X259694Y601632D01*
X258793Y600892D01*
X258053Y599991D01*
X257503Y598962D01*
X257164Y597846D01*
X257050Y596685D01*
X257164Y595524D01*
X257503Y594408D01*
X258053Y593379D01*
X258793Y592478D01*
X259694Y591738D01*
X260723Y591188D01*
X261839Y590849D01*
X263000Y590735D01*
X264161Y590849D01*
X265277Y591188D01*
X266306Y591738D01*
X267207Y592478D01*
X267947Y593379D01*
X268497Y594408D01*
X268836Y595524D01*
X268950Y596685D01*
X268836Y597846D01*
X268497Y598962D01*
X267947Y599991D01*
X267207Y600892D01*
X266306Y601632D01*
X265277Y602182D01*
X264161Y602521D01*
X263000Y602635D01*
D02*
G37*
G36*
X316150Y598304D02*
X314989Y598190D01*
X313873Y597851D01*
X312844Y597301D01*
X311942Y596562D01*
X311202Y595660D01*
X310653Y594631D01*
X310314Y593515D01*
X310200Y592354D01*
X310314Y591194D01*
X310653Y590077D01*
X311202Y589049D01*
X311942Y588147D01*
X312844Y587407D01*
X313873Y586857D01*
X314989Y586519D01*
X316150Y586404D01*
X317310Y586519D01*
X318426Y586857D01*
X319455Y587407D01*
X320357Y588147D01*
X321097Y589049D01*
X321647Y590077D01*
X321985Y591194D01*
X322099Y592354D01*
X321985Y593515D01*
X321647Y594631D01*
X321097Y595660D01*
X320357Y596562D01*
X319455Y597301D01*
X318426Y597851D01*
X317310Y598190D01*
X316150Y598304D01*
D02*
G37*
G36*
X183000Y590751D02*
X182122Y590576D01*
X181378Y590079D01*
X180880Y589335D01*
X180706Y588457D01*
X180880Y587579D01*
X181378Y586834D01*
X182122Y586337D01*
X183000Y586163D01*
X183350Y586232D01*
X183776Y585807D01*
X183706Y585457D01*
X183880Y584579D01*
X184378Y583835D01*
X185122Y583337D01*
X186000Y583163D01*
X186878Y583337D01*
X187622Y583835D01*
X188119Y584579D01*
X188294Y585457D01*
X188119Y586335D01*
X187622Y587079D01*
X186878Y587576D01*
X186000Y587751D01*
X185650Y587681D01*
X185224Y588106D01*
X185294Y588457D01*
X185119Y589335D01*
X184622Y590079D01*
X183878Y590576D01*
X183000Y590751D01*
D02*
G37*
G36*
X316650Y578775D02*
Y573374D01*
X322050D01*
X321985Y574035D01*
X321647Y575151D01*
X321097Y576180D01*
X320357Y577081D01*
X319455Y577821D01*
X318426Y578371D01*
X317310Y578710D01*
X316650Y578775D01*
D02*
G37*
G36*
X315650D02*
X314989Y578710D01*
X313873Y578371D01*
X312844Y577821D01*
X311942Y577081D01*
X311202Y576180D01*
X310653Y575151D01*
X310314Y574035D01*
X310249Y573374D01*
X315650D01*
Y578775D01*
D02*
G37*
G36*
X164563Y578074D02*
X163685Y577899D01*
X162941Y577402D01*
X162443Y576657D01*
X162269Y575779D01*
X162443Y574902D01*
X162941Y574157D01*
X163685Y573660D01*
X164563Y573486D01*
X164913Y573555D01*
X165339Y573130D01*
X165269Y572780D01*
X165444Y571902D01*
X165941Y571157D01*
X166685Y570660D01*
X167563Y570485D01*
X168441Y570660D01*
X169185Y571157D01*
X169682Y571902D01*
X169857Y572780D01*
X169682Y573657D01*
X169185Y574402D01*
X168441Y574899D01*
X167563Y575074D01*
X167213Y575004D01*
X166787Y575429D01*
X166857Y575779D01*
X166682Y576657D01*
X166185Y577402D01*
X165441Y577899D01*
X164563Y578074D01*
D02*
G37*
G36*
X315650Y572374D02*
X310249D01*
X310314Y571713D01*
X310653Y570597D01*
X311202Y569568D01*
X311942Y568667D01*
X312844Y567927D01*
X313873Y567377D01*
X314989Y567038D01*
X315650Y566973D01*
Y572374D01*
D02*
G37*
G36*
X322050D02*
X316650D01*
Y566973D01*
X317310Y567038D01*
X318426Y567377D01*
X319455Y567927D01*
X320357Y568667D01*
X321097Y569568D01*
X321647Y570597D01*
X321985Y571713D01*
X322050Y572374D01*
D02*
G37*
G36*
X213886Y568079D02*
X213207Y567990D01*
X212575Y567728D01*
X212032Y567311D01*
X211669Y566839D01*
X211386Y566799D01*
X211103Y566839D01*
X210740Y567311D01*
X210197Y567728D01*
X209565Y567990D01*
X208886Y568079D01*
X208207Y567990D01*
X207575Y567728D01*
X207031Y567311D01*
X206615Y566768D01*
X206353Y566135D01*
X206263Y565457D01*
X206353Y564778D01*
X206615Y564146D01*
X207031Y563602D01*
X207575Y563186D01*
X208207Y562924D01*
X208886Y562834D01*
X209565Y562924D01*
X210197Y563186D01*
X210740Y563602D01*
X211103Y564075D01*
X211386Y564114D01*
X211669Y564075D01*
X212032Y563602D01*
X212575Y563186D01*
X213207Y562924D01*
X213886Y562834D01*
X214565Y562924D01*
X215197Y563186D01*
X215740Y563602D01*
X216157Y564146D01*
X216419Y564778D01*
X216508Y565457D01*
X216419Y566135D01*
X216157Y566768D01*
X215740Y567311D01*
X215197Y567728D01*
X214565Y567990D01*
X213886Y568079D01*
D02*
G37*
G36*
X87000Y577281D02*
X85839Y577166D01*
X84723Y576828D01*
X83694Y576278D01*
X82793Y575538D01*
X82053Y574636D01*
X81503Y573608D01*
X81164Y572492D01*
X81050Y571331D01*
X81164Y570170D01*
X81503Y569054D01*
X82053Y568025D01*
X82793Y567124D01*
X83694Y566384D01*
X84723Y565834D01*
X85839Y565495D01*
X87000Y565381D01*
X88161Y565495D01*
X89277Y565834D01*
X90306Y566384D01*
X91207Y567124D01*
X91947Y568025D01*
X92497Y569054D01*
X92836Y570170D01*
X92950Y571331D01*
X92836Y572492D01*
X92497Y573608D01*
X91947Y574636D01*
X91207Y575538D01*
X90306Y576278D01*
X89277Y576828D01*
X88161Y577166D01*
X87000Y577281D01*
D02*
G37*
G36*
X136492Y569554D02*
X135614Y569379D01*
X134870Y568882D01*
X134373Y568138D01*
X134198Y567260D01*
X134373Y566382D01*
X134870Y565638D01*
X135614Y565140D01*
X136492Y564966D01*
X137370Y565140D01*
X138114Y565638D01*
X138612Y566382D01*
X138786Y567260D01*
X138612Y568138D01*
X138114Y568882D01*
X137370Y569379D01*
X136492Y569554D01*
D02*
G37*
G36*
X157500Y569318D02*
X156622Y569143D01*
X155878Y568646D01*
X155380Y567902D01*
X155206Y567024D01*
X155380Y566146D01*
X155878Y565402D01*
X156622Y564904D01*
X157500Y564730D01*
X158378Y564904D01*
X159122Y565402D01*
X159619Y566146D01*
X159794Y567024D01*
X159619Y567902D01*
X159122Y568646D01*
X158378Y569143D01*
X157500Y569318D01*
D02*
G37*
G36*
X263000Y574493D02*
X261839Y574379D01*
X260723Y574040D01*
X259694Y573490D01*
X258793Y572751D01*
X258053Y571849D01*
X257503Y570820D01*
X257164Y569704D01*
X257050Y568543D01*
X257164Y567382D01*
X257503Y566266D01*
X258053Y565238D01*
X258793Y564336D01*
X259694Y563596D01*
X260723Y563046D01*
X261839Y562708D01*
X263000Y562593D01*
X264161Y562708D01*
X265277Y563046D01*
X266306Y563596D01*
X267207Y564336D01*
X267947Y565238D01*
X268497Y566266D01*
X268836Y567382D01*
X268950Y568543D01*
X268836Y569704D01*
X268497Y570820D01*
X267947Y571849D01*
X267207Y572751D01*
X266306Y573490D01*
X265277Y574040D01*
X264161Y574379D01*
X263000Y574493D01*
D02*
G37*
G36*
X33850Y572950D02*
X32690Y572836D01*
X31574Y572497D01*
X30545Y571947D01*
X29643Y571207D01*
X28903Y570306D01*
X28353Y569277D01*
X28015Y568161D01*
X27900Y567000D01*
X28015Y565839D01*
X28353Y564723D01*
X28903Y563694D01*
X29643Y562793D01*
X30545Y562053D01*
X31574Y561503D01*
X32690Y561164D01*
X33850Y561050D01*
X35011Y561164D01*
X36127Y561503D01*
X37156Y562053D01*
X38058Y562793D01*
X38798Y563694D01*
X39347Y564723D01*
X39686Y565839D01*
X39800Y567000D01*
X39686Y568161D01*
X39347Y569277D01*
X38798Y570306D01*
X38058Y571207D01*
X37156Y571947D01*
X36127Y572497D01*
X35011Y572836D01*
X33850Y572950D01*
D02*
G37*
G36*
X141492Y557882D02*
X140813Y557793D01*
X140181Y557531D01*
X139638Y557114D01*
X139275Y556642D01*
X138992Y556603D01*
X138709Y556642D01*
X138347Y557114D01*
X137803Y557531D01*
X137171Y557793D01*
X136492Y557882D01*
X135813Y557793D01*
X135181Y557531D01*
X134638Y557114D01*
X134221Y556571D01*
X133959Y555939D01*
X133870Y555260D01*
X133959Y554581D01*
X134221Y553949D01*
X134638Y553406D01*
X135181Y552989D01*
X135813Y552727D01*
X136492Y552637D01*
X137171Y552727D01*
X137803Y552989D01*
X138347Y553406D01*
X138709Y553878D01*
X138992Y553917D01*
X139275Y553878D01*
X139638Y553406D01*
X140181Y552989D01*
X140813Y552727D01*
X141492Y552637D01*
X142171Y552727D01*
X142803Y552989D01*
X143347Y553406D01*
X143763Y553949D01*
X144025Y554581D01*
X144115Y555260D01*
X144025Y555939D01*
X143763Y556571D01*
X143347Y557114D01*
X142803Y557531D01*
X142171Y557793D01*
X141492Y557882D01*
D02*
G37*
G36*
X192500Y555987D02*
X191622Y555812D01*
X190878Y555315D01*
X190381Y554571D01*
X190206Y553693D01*
X190381Y552815D01*
X190878Y552071D01*
X191622Y551574D01*
X192500Y551399D01*
X193378Y551574D01*
X194122Y552071D01*
X194620Y552815D01*
X194794Y553693D01*
X194620Y554571D01*
X194122Y555315D01*
X193378Y555812D01*
X192500Y555987D01*
D02*
G37*
G36*
X213886Y555751D02*
X213008Y555576D01*
X212264Y555079D01*
X211766Y554335D01*
X211592Y553457D01*
X211766Y552579D01*
X212264Y551834D01*
X213008Y551337D01*
X213886Y551163D01*
X214764Y551337D01*
X215508Y551834D01*
X216005Y552579D01*
X216180Y553457D01*
X216005Y554335D01*
X215508Y555079D01*
X214764Y555576D01*
X213886Y555751D01*
D02*
G37*
G36*
X34350Y551105D02*
Y545705D01*
X39751D01*
X39686Y546365D01*
X39347Y547482D01*
X38798Y548510D01*
X38058Y549412D01*
X37156Y550152D01*
X36127Y550702D01*
X35011Y551040D01*
X34350Y551105D01*
D02*
G37*
G36*
X33350D02*
X32690Y551040D01*
X31574Y550702D01*
X30545Y550152D01*
X29643Y549412D01*
X28903Y548510D01*
X28353Y547482D01*
X28015Y546365D01*
X27950Y545705D01*
X33350D01*
Y551105D01*
D02*
G37*
G36*
X183000Y550751D02*
X182122Y550576D01*
X181378Y550079D01*
X180880Y549335D01*
X180706Y548457D01*
X180880Y547579D01*
X181378Y546835D01*
X182122Y546337D01*
X183000Y546163D01*
X183350Y546232D01*
X183776Y545807D01*
X183706Y545457D01*
X183880Y544579D01*
X184378Y543834D01*
X185122Y543337D01*
X186000Y543163D01*
X186878Y543337D01*
X187622Y543834D01*
X188119Y544579D01*
X188294Y545457D01*
X188119Y546335D01*
X187622Y547079D01*
X186878Y547576D01*
X186000Y547751D01*
X185650Y547681D01*
X185224Y548106D01*
X185294Y548457D01*
X185119Y549335D01*
X184622Y550079D01*
X183878Y550576D01*
X183000Y550751D01*
D02*
G37*
G36*
X39751Y544705D02*
X34350D01*
Y539304D01*
X35011Y539369D01*
X36127Y539708D01*
X37156Y540258D01*
X38058Y540998D01*
X38798Y541899D01*
X39347Y542928D01*
X39686Y544044D01*
X39751Y544705D01*
D02*
G37*
G36*
X33350D02*
X27950D01*
X28015Y544044D01*
X28353Y542928D01*
X28903Y541899D01*
X29643Y540998D01*
X30545Y540258D01*
X31574Y539708D01*
X32690Y539369D01*
X33350Y539304D01*
Y544705D01*
D02*
G37*
G36*
X87000Y546824D02*
X85839Y546710D01*
X84723Y546371D01*
X83694Y545821D01*
X82793Y545081D01*
X82053Y544180D01*
X81503Y543151D01*
X81164Y542035D01*
X81050Y540874D01*
X81164Y539713D01*
X81503Y538597D01*
X82053Y537568D01*
X82793Y536667D01*
X83694Y535927D01*
X84723Y535377D01*
X85839Y535038D01*
X87000Y534924D01*
X88161Y535038D01*
X89277Y535377D01*
X90306Y535927D01*
X91207Y536667D01*
X91947Y537568D01*
X92497Y538597D01*
X92836Y539713D01*
X92950Y540874D01*
X92836Y542035D01*
X92497Y543151D01*
X91947Y544180D01*
X91207Y545081D01*
X90306Y545821D01*
X89277Y546371D01*
X88161Y546710D01*
X87000Y546824D01*
D02*
G37*
G36*
X164563Y541294D02*
X163685Y541119D01*
X162941Y540622D01*
X162443Y539878D01*
X162269Y539000D01*
X162443Y538122D01*
X162941Y537378D01*
X163685Y536881D01*
X164563Y536706D01*
X164799Y536470D01*
X164706Y536000D01*
X164881Y535122D01*
X165378Y534378D01*
X166122Y533881D01*
X167000Y533706D01*
X167878Y533881D01*
X168622Y534378D01*
X169120Y535122D01*
X169294Y536000D01*
X169120Y536878D01*
X168622Y537622D01*
X167878Y538119D01*
X167000Y538294D01*
X166764Y538530D01*
X166857Y539000D01*
X166682Y539878D01*
X166185Y540622D01*
X165441Y541119D01*
X164563Y541294D01*
D02*
G37*
G36*
X213886Y528079D02*
X213207Y527990D01*
X212575Y527728D01*
X212032Y527311D01*
X211669Y526838D01*
X211386Y526799D01*
X211103Y526838D01*
X210740Y527311D01*
X210197Y527728D01*
X209565Y527990D01*
X208886Y528079D01*
X208207Y527990D01*
X207575Y527728D01*
X207031Y527311D01*
X206615Y526768D01*
X206353Y526135D01*
X206263Y525457D01*
X206353Y524778D01*
X206615Y524146D01*
X207031Y523602D01*
X207575Y523186D01*
X208207Y522924D01*
X208886Y522834D01*
X209565Y522924D01*
X210197Y523186D01*
X210740Y523602D01*
X211103Y524075D01*
X211386Y524114D01*
X211669Y524075D01*
X212032Y523602D01*
X212575Y523186D01*
X213207Y522924D01*
X213886Y522834D01*
X214565Y522924D01*
X215197Y523186D01*
X215740Y523602D01*
X216157Y524146D01*
X216419Y524778D01*
X216508Y525457D01*
X216419Y526135D01*
X216157Y526768D01*
X215740Y527311D01*
X215197Y527728D01*
X214565Y527990D01*
X213886Y528079D01*
D02*
G37*
G36*
X136492Y529554D02*
X135614Y529379D01*
X134870Y528882D01*
X134373Y528138D01*
X134198Y527260D01*
X134373Y526382D01*
X134870Y525638D01*
X135614Y525140D01*
X136492Y524966D01*
X137370Y525140D01*
X138114Y525638D01*
X138612Y526382D01*
X138786Y527260D01*
X138612Y528138D01*
X138114Y528882D01*
X137370Y529379D01*
X136492Y529554D01*
D02*
G37*
G36*
X157000Y529318D02*
X156122Y529143D01*
X155378Y528646D01*
X154880Y527902D01*
X154706Y527024D01*
X154880Y526146D01*
X155378Y525401D01*
X156122Y524904D01*
X157000Y524730D01*
X157878Y524904D01*
X158622Y525401D01*
X159119Y526146D01*
X159294Y527024D01*
X159119Y527902D01*
X158622Y528646D01*
X157878Y529143D01*
X157000Y529318D01*
D02*
G37*
G36*
X141121Y524074D02*
X140442Y523985D01*
X139809Y523723D01*
X139266Y523306D01*
X138849Y522763D01*
X138587Y522131D01*
X138498Y521452D01*
X138587Y520773D01*
X138849Y520141D01*
X139266Y519598D01*
X139809Y519181D01*
X140442Y518919D01*
X141121Y518830D01*
X141799Y518919D01*
X142432Y519181D01*
X142975Y519598D01*
X143392Y520141D01*
X143654Y520773D01*
X143743Y521452D01*
X143654Y522131D01*
X143392Y522763D01*
X142975Y523306D01*
X142432Y523723D01*
X141799Y523985D01*
X141121Y524074D01*
D02*
G37*
G36*
X131000Y518154D02*
X130321Y518065D01*
X129689Y517803D01*
X129146Y517386D01*
X128729Y516843D01*
X128467Y516210D01*
X128378Y515531D01*
X128467Y514853D01*
X128729Y514220D01*
X129146Y513677D01*
X129689Y513260D01*
X130321Y512998D01*
X131000Y512909D01*
X131679Y512998D01*
X132311Y513260D01*
X132854Y513677D01*
X133271Y514220D01*
X133533Y514853D01*
X133622Y515531D01*
X133533Y516210D01*
X133271Y516843D01*
X132854Y517386D01*
X132311Y517803D01*
X131679Y518065D01*
X131000Y518154D01*
D02*
G37*
G36*
X192500Y515987D02*
X191622Y515812D01*
X190878Y515315D01*
X190381Y514571D01*
X190206Y513693D01*
X190381Y512815D01*
X190878Y512071D01*
X191622Y511574D01*
X192500Y511399D01*
X193378Y511574D01*
X194122Y512071D01*
X194620Y512815D01*
X194794Y513693D01*
X194620Y514571D01*
X194122Y515315D01*
X193378Y515812D01*
X192500Y515987D01*
D02*
G37*
G36*
X213886Y515751D02*
X213008Y515576D01*
X212264Y515079D01*
X211766Y514335D01*
X211592Y513457D01*
X211766Y512579D01*
X212264Y511834D01*
X213008Y511337D01*
X213886Y511163D01*
X214764Y511337D01*
X215508Y511834D01*
X216005Y512579D01*
X216180Y513457D01*
X216005Y514335D01*
X215508Y515079D01*
X214764Y515576D01*
X213886Y515751D01*
D02*
G37*
G36*
X263000Y520950D02*
X261839Y520836D01*
X260723Y520497D01*
X259694Y519947D01*
X258793Y519207D01*
X258053Y518306D01*
X257503Y517277D01*
X257164Y516161D01*
X257050Y515000D01*
X257164Y513839D01*
X257503Y512723D01*
X258053Y511694D01*
X258793Y510793D01*
X259694Y510053D01*
X260723Y509503D01*
X261839Y509164D01*
X263000Y509050D01*
X264161Y509164D01*
X265277Y509503D01*
X266306Y510053D01*
X267207Y510793D01*
X267947Y511694D01*
X268497Y512723D01*
X268836Y513839D01*
X268950Y515000D01*
X268836Y516161D01*
X268497Y517277D01*
X267947Y518306D01*
X267207Y519207D01*
X266306Y519947D01*
X265277Y520497D01*
X264161Y520836D01*
X263000Y520950D01*
D02*
G37*
G36*
X316150Y516619D02*
X314989Y516505D01*
X313873Y516166D01*
X312844Y515617D01*
X311942Y514877D01*
X311202Y513975D01*
X310653Y512946D01*
X310314Y511830D01*
X310200Y510669D01*
X310314Y509509D01*
X310653Y508392D01*
X311202Y507364D01*
X311942Y506462D01*
X312844Y505722D01*
X313873Y505172D01*
X314989Y504834D01*
X316150Y504719D01*
X317310Y504834D01*
X318426Y505172D01*
X319455Y505722D01*
X320357Y506462D01*
X321097Y507364D01*
X321647Y508392D01*
X321985Y509509D01*
X322099Y510669D01*
X321985Y511830D01*
X321647Y512946D01*
X321097Y513975D01*
X320357Y514877D01*
X319455Y515617D01*
X318426Y516166D01*
X317310Y516505D01*
X316150Y516619D01*
D02*
G37*
G36*
X137000Y509294D02*
X136122Y509119D01*
X135378Y508622D01*
X134880Y507878D01*
X134706Y507000D01*
X134880Y506122D01*
X135378Y505378D01*
X136122Y504881D01*
X137000Y504706D01*
X137878Y504881D01*
X138622Y505378D01*
X139120Y506122D01*
X139294Y507000D01*
X139120Y507878D01*
X138622Y508622D01*
X137878Y509119D01*
X137000Y509294D01*
D02*
G37*
G36*
X183000Y510751D02*
X182122Y510576D01*
X181378Y510079D01*
X180880Y509335D01*
X180706Y508457D01*
X180880Y507579D01*
X181378Y506835D01*
X182122Y506337D01*
X183000Y506163D01*
X183350Y506232D01*
X183776Y505807D01*
X183706Y505457D01*
X183880Y504579D01*
X184378Y503834D01*
X185122Y503337D01*
X186000Y503163D01*
X186878Y503337D01*
X187622Y503834D01*
X188119Y504579D01*
X188294Y505457D01*
X188119Y506335D01*
X187622Y507079D01*
X186878Y507576D01*
X186000Y507751D01*
X185650Y507681D01*
X185224Y508106D01*
X185294Y508457D01*
X185119Y509335D01*
X184622Y510079D01*
X183878Y510576D01*
X183000Y510751D01*
D02*
G37*
G36*
X345500Y507500D02*
X337500D01*
Y499500D01*
X345500D01*
Y507500D01*
D02*
G37*
G36*
X190000Y498969D02*
Y495500D01*
X193469D01*
X193397Y496044D01*
X192994Y497017D01*
X192353Y497853D01*
X191517Y498494D01*
X190544Y498897D01*
X190000Y498969D01*
D02*
G37*
G36*
X189000D02*
X188456Y498897D01*
X187483Y498494D01*
X186647Y497853D01*
X186006Y497017D01*
X185603Y496044D01*
X185531Y495500D01*
X189000D01*
Y498969D01*
D02*
G37*
G36*
X193469Y494500D02*
X190000D01*
Y491031D01*
X190544Y491103D01*
X191517Y491506D01*
X192353Y492147D01*
X192994Y492983D01*
X193397Y493956D01*
X193469Y494500D01*
D02*
G37*
G36*
X189000D02*
X185531D01*
X185603Y493956D01*
X186006Y492983D01*
X186647Y492147D01*
X187483Y491506D01*
X188456Y491103D01*
X189000Y491031D01*
Y494500D01*
D02*
G37*
G36*
X341500Y497535D02*
X340456Y497397D01*
X339483Y496994D01*
X338647Y496353D01*
X338006Y495517D01*
X337603Y494544D01*
X337466Y493500D01*
X337603Y492456D01*
X338006Y491483D01*
X338647Y490647D01*
X339483Y490006D01*
X340456Y489603D01*
X341500Y489466D01*
X342544Y489603D01*
X343517Y490006D01*
X344353Y490647D01*
X344994Y491483D01*
X345397Y492456D01*
X345534Y493500D01*
X345397Y494544D01*
X344994Y495517D01*
X344353Y496353D01*
X343517Y496994D01*
X342544Y497397D01*
X341500Y497535D01*
D02*
G37*
G36*
X342000Y487469D02*
Y484000D01*
X345469D01*
X345397Y484544D01*
X344994Y485517D01*
X344353Y486353D01*
X343517Y486994D01*
X342544Y487397D01*
X342000Y487469D01*
D02*
G37*
G36*
X341000D02*
X340456Y487397D01*
X339483Y486994D01*
X338647Y486353D01*
X338006Y485517D01*
X337603Y484544D01*
X337531Y484000D01*
X341000D01*
Y487469D01*
D02*
G37*
G36*
X87000Y493281D02*
X85839Y493166D01*
X84723Y492828D01*
X83694Y492278D01*
X82793Y491538D01*
X82053Y490636D01*
X81503Y489608D01*
X81164Y488491D01*
X81050Y487331D01*
X81164Y486170D01*
X81503Y485054D01*
X82053Y484025D01*
X82793Y483123D01*
X83694Y482383D01*
X84723Y481834D01*
X85839Y481495D01*
X87000Y481381D01*
X88161Y481495D01*
X89277Y481834D01*
X90306Y482383D01*
X91207Y483123D01*
X91947Y484025D01*
X92497Y485054D01*
X92836Y486170D01*
X92950Y487331D01*
X92836Y488491D01*
X92497Y489608D01*
X91947Y490636D01*
X91207Y491538D01*
X90306Y492278D01*
X89277Y492828D01*
X88161Y493166D01*
X87000Y493281D01*
D02*
G37*
G36*
X189500Y489035D02*
X188456Y488897D01*
X187483Y488494D01*
X186647Y487853D01*
X186006Y487017D01*
X185603Y486044D01*
X185466Y485000D01*
X185603Y483956D01*
X186006Y482983D01*
X186647Y482147D01*
X187483Y481506D01*
X188456Y481103D01*
X189500Y480966D01*
X190544Y481103D01*
X191517Y481506D01*
X192353Y482147D01*
X192994Y482983D01*
X193397Y483956D01*
X193535Y485000D01*
X193397Y486044D01*
X192994Y487017D01*
X192353Y487853D01*
X191517Y488494D01*
X190544Y488897D01*
X189500Y489035D01*
D02*
G37*
G36*
X156000Y483512D02*
X155122Y483337D01*
X154378Y482840D01*
X153881Y482095D01*
X153706Y481217D01*
X153755Y480969D01*
X153558Y480786D01*
X153313Y480632D01*
X152500Y480794D01*
X151622Y480619D01*
X150878Y480122D01*
X150381Y479378D01*
X150206Y478500D01*
X150381Y477622D01*
X150878Y476878D01*
X151622Y476381D01*
X152500Y476206D01*
X153378Y476381D01*
X154122Y476878D01*
X154620Y477622D01*
X154794Y478500D01*
X154745Y478749D01*
X154943Y478932D01*
X155187Y479085D01*
X156000Y478923D01*
X156878Y479098D01*
X157622Y479595D01*
X158119Y480340D01*
X158294Y481217D01*
X158119Y482095D01*
X157622Y482840D01*
X156878Y483337D01*
X156000Y483512D01*
D02*
G37*
G36*
X345469Y483000D02*
X342000D01*
Y479531D01*
X342544Y479603D01*
X343517Y480006D01*
X344353Y480647D01*
X344994Y481483D01*
X345397Y482456D01*
X345469Y483000D01*
D02*
G37*
G36*
X341000D02*
X337531D01*
X337603Y482456D01*
X338006Y481483D01*
X338647Y480647D01*
X339483Y480006D01*
X340456Y479603D01*
X341000Y479531D01*
Y483000D01*
D02*
G37*
G36*
X33850Y488950D02*
X32690Y488836D01*
X31574Y488497D01*
X30545Y487947D01*
X29643Y487207D01*
X28903Y486306D01*
X28353Y485277D01*
X28015Y484161D01*
X27900Y483000D01*
X28015Y481839D01*
X28353Y480723D01*
X28903Y479694D01*
X29643Y478793D01*
X30545Y478053D01*
X31574Y477503D01*
X32690Y477164D01*
X33850Y477050D01*
X35011Y477164D01*
X36127Y477503D01*
X37156Y478053D01*
X38058Y478793D01*
X38798Y479694D01*
X39347Y480723D01*
X39686Y481839D01*
X39800Y483000D01*
X39686Y484161D01*
X39347Y485277D01*
X38798Y486306D01*
X38058Y487207D01*
X37156Y487947D01*
X36127Y488497D01*
X35011Y488836D01*
X33850Y488950D01*
D02*
G37*
G36*
X193500Y479000D02*
X185500D01*
Y471000D01*
X193500D01*
Y479000D01*
D02*
G37*
G36*
X341500Y477534D02*
X340456Y477397D01*
X339483Y476994D01*
X338647Y476353D01*
X338006Y475517D01*
X337603Y474544D01*
X337466Y473500D01*
X337603Y472456D01*
X338006Y471483D01*
X338647Y470647D01*
X339483Y470006D01*
X340456Y469603D01*
X341500Y469465D01*
X342544Y469603D01*
X343517Y470006D01*
X344353Y470647D01*
X344994Y471483D01*
X345397Y472456D01*
X345534Y473500D01*
X345397Y474544D01*
X344994Y475517D01*
X344353Y476353D01*
X343517Y476994D01*
X342544Y477397D01*
X341500Y477534D01*
D02*
G37*
G36*
X213886Y473922D02*
X213207Y473833D01*
X212575Y473571D01*
X212032Y473154D01*
X211615Y472611D01*
X211353Y471979D01*
X211263Y471300D01*
X211353Y470621D01*
X211615Y469989D01*
X212032Y469446D01*
X212575Y469029D01*
X213207Y468767D01*
X213886Y468678D01*
X214565Y468767D01*
X215197Y469029D01*
X215740Y469446D01*
X216157Y469989D01*
X216419Y470621D01*
X216508Y471300D01*
X216419Y471979D01*
X216157Y472611D01*
X215740Y473154D01*
X215197Y473571D01*
X214565Y473833D01*
X213886Y473922D01*
D02*
G37*
G36*
X318000Y469622D02*
X317321Y469533D01*
X316689Y469271D01*
X316146Y468854D01*
X315729Y468311D01*
X315467Y467679D01*
X315378Y467000D01*
X315467Y466321D01*
X315729Y465689D01*
X316146Y465146D01*
X316689Y464729D01*
X317321Y464467D01*
X318000Y464378D01*
X318679Y464467D01*
X319311Y464729D01*
X319854Y465146D01*
X320271Y465689D01*
X320533Y466321D01*
X320622Y467000D01*
X320533Y467679D01*
X320271Y468311D01*
X319854Y468854D01*
X319311Y469271D01*
X318679Y469533D01*
X318000Y469622D01*
D02*
G37*
G36*
X308457D02*
X307778Y469533D01*
X307146Y469271D01*
X306602Y468854D01*
X306186Y468311D01*
X305924Y467679D01*
X305834Y467000D01*
X305924Y466321D01*
X306186Y465689D01*
X306602Y465146D01*
X307146Y464729D01*
X307778Y464467D01*
X308457Y464378D01*
X309135Y464467D01*
X309768Y464729D01*
X310311Y465146D01*
X310728Y465689D01*
X310990Y466321D01*
X311079Y467000D01*
X310990Y467679D01*
X310728Y468311D01*
X310311Y468854D01*
X309768Y469271D01*
X309135Y469533D01*
X308457Y469622D01*
D02*
G37*
G36*
X299000D02*
X298321Y469533D01*
X297689Y469271D01*
X297146Y468854D01*
X296729Y468311D01*
X296467Y467679D01*
X296378Y467000D01*
X296467Y466321D01*
X296729Y465689D01*
X297146Y465146D01*
X297689Y464729D01*
X298321Y464467D01*
X299000Y464378D01*
X299679Y464467D01*
X300311Y464729D01*
X300854Y465146D01*
X301271Y465689D01*
X301533Y466321D01*
X301622Y467000D01*
X301533Y467679D01*
X301271Y468311D01*
X300854Y468854D01*
X300311Y469271D01*
X299679Y469533D01*
X299000Y469622D01*
D02*
G37*
G36*
X318000Y461622D02*
X317321Y461533D01*
X316689Y461271D01*
X316146Y460854D01*
X315729Y460311D01*
X315467Y459679D01*
X315378Y459000D01*
X315467Y458321D01*
X315729Y457689D01*
X316146Y457146D01*
X316689Y456729D01*
X317321Y456467D01*
X318000Y456378D01*
X318679Y456467D01*
X319311Y456729D01*
X319854Y457146D01*
X320271Y457689D01*
X320533Y458321D01*
X320622Y459000D01*
X320533Y459679D01*
X320271Y460311D01*
X319854Y460854D01*
X319311Y461271D01*
X318679Y461533D01*
X318000Y461622D01*
D02*
G37*
G36*
X308457D02*
X307778Y461533D01*
X307146Y461271D01*
X306602Y460854D01*
X306186Y460311D01*
X305924Y459679D01*
X305834Y459000D01*
X305924Y458321D01*
X306186Y457689D01*
X306602Y457146D01*
X307146Y456729D01*
X307778Y456467D01*
X308457Y456378D01*
X309135Y456467D01*
X309768Y456729D01*
X310311Y457146D01*
X310728Y457689D01*
X310990Y458321D01*
X311079Y459000D01*
X310990Y459679D01*
X310728Y460311D01*
X310311Y460854D01*
X309768Y461271D01*
X309135Y461533D01*
X308457Y461622D01*
D02*
G37*
G36*
X298871D02*
X298192Y461533D01*
X297560Y461271D01*
X297017Y460854D01*
X296600Y460311D01*
X296338Y459679D01*
X296249Y459000D01*
X296338Y458321D01*
X296600Y457689D01*
X297017Y457146D01*
X297560Y456729D01*
X298192Y456467D01*
X298871Y456378D01*
X299550Y456467D01*
X300182Y456729D01*
X300725Y457146D01*
X301142Y457689D01*
X301404Y458321D01*
X301494Y459000D01*
X301404Y459679D01*
X301142Y460311D01*
X300725Y460854D01*
X300182Y461271D01*
X299550Y461533D01*
X298871Y461622D01*
D02*
G37*
G36*
X139000Y460294D02*
X138122Y460119D01*
X137378Y459622D01*
X136881Y458878D01*
X136706Y458000D01*
X136881Y457122D01*
X137378Y456378D01*
X138122Y455881D01*
X139000Y455706D01*
X139878Y455881D01*
X140622Y456378D01*
X141120Y457122D01*
X141294Y458000D01*
X141120Y458878D01*
X140622Y459622D01*
X139878Y460119D01*
X139000Y460294D01*
D02*
G37*
G36*
X105000Y460089D02*
X104122Y459915D01*
X103378Y459417D01*
X102881Y458673D01*
X102706Y457795D01*
X102881Y456917D01*
X103378Y456173D01*
X104122Y455676D01*
X105000Y455501D01*
X105878Y455676D01*
X106622Y456173D01*
X107120Y456917D01*
X107294Y457795D01*
X107120Y458673D01*
X106622Y459417D01*
X105878Y459915D01*
X105000Y460089D01*
D02*
G37*
G36*
X341000Y463000D02*
X333000D01*
Y455000D01*
X341000D01*
Y463000D01*
D02*
G37*
G36*
X57000Y474294D02*
X56122Y474119D01*
X55378Y473622D01*
X54881Y472878D01*
X54706Y472000D01*
X54852Y471265D01*
X54122Y471119D01*
X53378Y470622D01*
X52881Y469878D01*
X52706Y469000D01*
X52852Y468265D01*
X52122Y468119D01*
X51378Y467622D01*
X50880Y466878D01*
X50706Y466000D01*
X50852Y465265D01*
X50122Y465119D01*
X49378Y464622D01*
X48880Y463878D01*
X48706Y463000D01*
X48852Y462265D01*
X48122Y462119D01*
X47378Y461622D01*
X46880Y460878D01*
X46706Y460000D01*
X46852Y459265D01*
X46122Y459119D01*
X45378Y458622D01*
X44881Y457878D01*
X44706Y457000D01*
X44852Y456265D01*
X44122Y456119D01*
X43378Y455622D01*
X42880Y454878D01*
X42706Y454000D01*
X42880Y453122D01*
X43378Y452378D01*
X44122Y451881D01*
X45000Y451706D01*
X45878Y451881D01*
X46622Y452378D01*
X47120Y453122D01*
X47294Y454000D01*
X47148Y454735D01*
X47878Y454881D01*
X48622Y455378D01*
X49119Y456122D01*
X49294Y457000D01*
X49148Y457735D01*
X49878Y457881D01*
X50622Y458378D01*
X51120Y459122D01*
X51294Y460000D01*
X51148Y460735D01*
X51878Y460881D01*
X52622Y461378D01*
X53119Y462122D01*
X53294Y463000D01*
X53148Y463735D01*
X53878Y463881D01*
X54622Y464378D01*
X55119Y465122D01*
X55294Y466000D01*
X55148Y466735D01*
X55878Y466881D01*
X56622Y467378D01*
X57119Y468122D01*
X57294Y469000D01*
X57148Y469735D01*
X57878Y469881D01*
X58622Y470378D01*
X59119Y471122D01*
X59294Y472000D01*
X59119Y472878D01*
X58622Y473622D01*
X57878Y474119D01*
X57000Y474294D01*
D02*
G37*
G36*
X144000Y455294D02*
X143122Y455119D01*
X142378Y454622D01*
X141881Y453878D01*
X141706Y453000D01*
X141881Y452122D01*
X142378Y451378D01*
X143122Y450881D01*
X144000Y450706D01*
X144878Y450881D01*
X145622Y451378D01*
X146119Y452122D01*
X146294Y453000D01*
X146119Y453878D01*
X145622Y454622D01*
X144878Y455119D01*
X144000Y455294D01*
D02*
G37*
G36*
X100000Y454294D02*
X99122Y454119D01*
X98378Y453622D01*
X97881Y452878D01*
X97706Y452000D01*
X97881Y451122D01*
X98378Y450378D01*
X99122Y449881D01*
X100000Y449706D01*
X100878Y449881D01*
X101622Y450378D01*
X102119Y451122D01*
X102294Y452000D01*
X102119Y452878D01*
X101622Y453622D01*
X100878Y454119D01*
X100000Y454294D01*
D02*
G37*
G36*
X337500Y452969D02*
Y449500D01*
X340969D01*
X340897Y450044D01*
X340494Y451017D01*
X339853Y451853D01*
X339017Y452494D01*
X338044Y452897D01*
X337500Y452969D01*
D02*
G37*
G36*
X336500D02*
X335956Y452897D01*
X334983Y452494D01*
X334147Y451853D01*
X333506Y451017D01*
X333103Y450044D01*
X333031Y449500D01*
X336500D01*
Y452969D01*
D02*
G37*
G36*
X318000Y453622D02*
X317321Y453533D01*
X316689Y453271D01*
X316146Y452854D01*
X315729Y452311D01*
X315467Y451679D01*
X315378Y451000D01*
X315467Y450321D01*
X315729Y449689D01*
X316146Y449146D01*
X316689Y448729D01*
X317321Y448467D01*
X318000Y448378D01*
X318679Y448467D01*
X319311Y448729D01*
X319854Y449146D01*
X320271Y449689D01*
X320533Y450321D01*
X320622Y451000D01*
X320533Y451679D01*
X320271Y452311D01*
X319854Y452854D01*
X319311Y453271D01*
X318679Y453533D01*
X318000Y453622D01*
D02*
G37*
G36*
X308500D02*
X307821Y453533D01*
X307189Y453271D01*
X306646Y452854D01*
X306229Y452311D01*
X305967Y451679D01*
X305878Y451000D01*
X305967Y450321D01*
X306229Y449689D01*
X306646Y449146D01*
X307189Y448729D01*
X307821Y448467D01*
X308500Y448378D01*
X309179Y448467D01*
X309811Y448729D01*
X310354Y449146D01*
X310771Y449689D01*
X311033Y450321D01*
X311122Y451000D01*
X311033Y451679D01*
X310771Y452311D01*
X310354Y452854D01*
X309811Y453271D01*
X309179Y453533D01*
X308500Y453622D01*
D02*
G37*
G36*
X298871D02*
X298192Y453533D01*
X297560Y453271D01*
X297017Y452854D01*
X296600Y452311D01*
X296338Y451679D01*
X296249Y451000D01*
X296338Y450321D01*
X296600Y449689D01*
X297017Y449146D01*
X297560Y448729D01*
X298192Y448467D01*
X298871Y448378D01*
X299550Y448467D01*
X300182Y448729D01*
X300725Y449146D01*
X301142Y449689D01*
X301404Y450321D01*
X301494Y451000D01*
X301404Y451679D01*
X301142Y452311D01*
X300725Y452854D01*
X300182Y453271D01*
X299550Y453533D01*
X298871Y453622D01*
D02*
G37*
G36*
X340969Y448500D02*
X337500D01*
Y445031D01*
X338044Y445103D01*
X339017Y445506D01*
X339853Y446147D01*
X340494Y446983D01*
X340897Y447956D01*
X340969Y448500D01*
D02*
G37*
G36*
X336500D02*
X333031D01*
X333103Y447956D01*
X333506Y446983D01*
X334147Y446147D01*
X334983Y445506D01*
X335956Y445103D01*
X336500Y445031D01*
Y448500D01*
D02*
G37*
G36*
X100000Y440294D02*
X99122Y440119D01*
X98378Y439622D01*
X97881Y438878D01*
X97706Y438000D01*
X97881Y437122D01*
X98378Y436378D01*
X99122Y435881D01*
X100000Y435706D01*
X100878Y435881D01*
X101622Y436378D01*
X102119Y437122D01*
X102294Y438000D01*
X102119Y438878D01*
X101622Y439622D01*
X100878Y440119D01*
X100000Y440294D01*
D02*
G37*
G36*
X341000Y441000D02*
X333000D01*
Y433000D01*
X341000D01*
Y441000D01*
D02*
G37*
G36*
X319000Y437622D02*
X318321Y437533D01*
X317689Y437271D01*
X317146Y436854D01*
X316729Y436311D01*
X316467Y435679D01*
X316378Y435000D01*
X316467Y434321D01*
X316729Y433689D01*
X317146Y433146D01*
X317689Y432729D01*
X318321Y432467D01*
X319000Y432378D01*
X319679Y432467D01*
X320311Y432729D01*
X320854Y433146D01*
X321271Y433689D01*
X321533Y434321D01*
X321622Y435000D01*
X321533Y435679D01*
X321271Y436311D01*
X320854Y436854D01*
X320311Y437271D01*
X319679Y437533D01*
X319000Y437622D01*
D02*
G37*
G36*
X308000D02*
X307321Y437533D01*
X306689Y437271D01*
X306146Y436854D01*
X305729Y436311D01*
X305467Y435679D01*
X305378Y435000D01*
X305467Y434321D01*
X305729Y433689D01*
X306146Y433146D01*
X306689Y432729D01*
X307321Y432467D01*
X308000Y432378D01*
X308679Y432467D01*
X309311Y432729D01*
X309854Y433146D01*
X310271Y433689D01*
X310533Y434321D01*
X310622Y435000D01*
X310533Y435679D01*
X310271Y436311D01*
X309854Y436854D01*
X309311Y437271D01*
X308679Y437533D01*
X308000Y437622D01*
D02*
G37*
G36*
X298000D02*
X297321Y437533D01*
X296689Y437271D01*
X296146Y436854D01*
X295729Y436311D01*
X295467Y435679D01*
X295378Y435000D01*
X295467Y434321D01*
X295729Y433689D01*
X296146Y433146D01*
X296689Y432729D01*
X297321Y432467D01*
X298000Y432378D01*
X298679Y432467D01*
X299311Y432729D01*
X299854Y433146D01*
X300271Y433689D01*
X300533Y434321D01*
X300622Y435000D01*
X300533Y435679D01*
X300271Y436311D01*
X299854Y436854D01*
X299311Y437271D01*
X298679Y437533D01*
X298000Y437622D01*
D02*
G37*
G36*
X193000Y436294D02*
X192122Y436119D01*
X191378Y435622D01*
X190881Y434878D01*
X190706Y434000D01*
X190881Y433122D01*
X191378Y432378D01*
X192122Y431881D01*
X193000Y431706D01*
X193878Y431881D01*
X194622Y432378D01*
X195120Y433122D01*
X195294Y434000D01*
X195120Y434878D01*
X194622Y435622D01*
X193878Y436119D01*
X193000Y436294D01*
D02*
G37*
G36*
X197500Y432794D02*
X196622Y432619D01*
X195878Y432122D01*
X195380Y431378D01*
X195206Y430500D01*
X195380Y429622D01*
X195878Y428878D01*
X196622Y428381D01*
X197500Y428206D01*
X198378Y428381D01*
X199122Y428878D01*
X199619Y429622D01*
X199794Y430500D01*
X199619Y431378D01*
X199122Y432122D01*
X198378Y432619D01*
X197500Y432794D01*
D02*
G37*
G36*
X337500Y430969D02*
Y427500D01*
X340969D01*
X340897Y428044D01*
X340494Y429017D01*
X339853Y429853D01*
X339017Y430494D01*
X338044Y430897D01*
X337500Y430969D01*
D02*
G37*
G36*
X336500D02*
X335956Y430897D01*
X334983Y430494D01*
X334147Y429853D01*
X333506Y429017D01*
X333103Y428044D01*
X333031Y427500D01*
X336500D01*
Y430969D01*
D02*
G37*
G36*
X99000Y430294D02*
X98122Y430119D01*
X97378Y429622D01*
X96881Y428878D01*
X96706Y428000D01*
X96881Y427122D01*
X97378Y426378D01*
X98122Y425881D01*
X99000Y425706D01*
X99878Y425881D01*
X100622Y426378D01*
X101119Y427122D01*
X101294Y428000D01*
X101119Y428878D01*
X100622Y429622D01*
X99878Y430119D01*
X99000Y430294D01*
D02*
G37*
G36*
X308373Y429811D02*
X307694Y429722D01*
X307062Y429460D01*
X306519Y429043D01*
X306102Y428500D01*
X305840Y427868D01*
X305751Y427189D01*
X305840Y426510D01*
X306102Y425878D01*
X306519Y425335D01*
X307062Y424918D01*
X307694Y424656D01*
X308373Y424567D01*
X309052Y424656D01*
X309684Y424918D01*
X310227Y425335D01*
X310644Y425878D01*
X310906Y426510D01*
X310996Y427189D01*
X310906Y427868D01*
X310644Y428500D01*
X310227Y429043D01*
X309684Y429460D01*
X309052Y429722D01*
X308373Y429811D01*
D02*
G37*
G36*
X319000Y429622D02*
X318321Y429533D01*
X317689Y429271D01*
X317146Y428854D01*
X316729Y428311D01*
X316467Y427679D01*
X316378Y427000D01*
X316467Y426321D01*
X316729Y425689D01*
X317146Y425146D01*
X317689Y424729D01*
X318321Y424467D01*
X319000Y424378D01*
X319679Y424467D01*
X320311Y424729D01*
X320854Y425146D01*
X321271Y425689D01*
X321533Y426321D01*
X321622Y427000D01*
X321533Y427679D01*
X321271Y428311D01*
X320854Y428854D01*
X320311Y429271D01*
X319679Y429533D01*
X319000Y429622D01*
D02*
G37*
G36*
X298000D02*
X297321Y429533D01*
X296689Y429271D01*
X296146Y428854D01*
X295729Y428311D01*
X295467Y427679D01*
X295378Y427000D01*
X295467Y426321D01*
X295729Y425689D01*
X296146Y425146D01*
X296689Y424729D01*
X297321Y424467D01*
X298000Y424378D01*
X298679Y424467D01*
X299311Y424729D01*
X299854Y425146D01*
X300271Y425689D01*
X300533Y426321D01*
X300622Y427000D01*
X300533Y427679D01*
X300271Y428311D01*
X299854Y428854D01*
X299311Y429271D01*
X298679Y429533D01*
X298000Y429622D01*
D02*
G37*
G36*
X340969Y426500D02*
X337500D01*
Y423031D01*
X338044Y423103D01*
X339017Y423506D01*
X339853Y424147D01*
X340494Y424983D01*
X340897Y425956D01*
X340969Y426500D01*
D02*
G37*
G36*
X336500D02*
X333031D01*
X333103Y425956D01*
X333506Y424983D01*
X334147Y424147D01*
X334983Y423506D01*
X335956Y423103D01*
X336500Y423031D01*
Y426500D01*
D02*
G37*
G36*
X86000Y427294D02*
X85122Y427119D01*
X84378Y426622D01*
X83881Y425878D01*
X83706Y425000D01*
X83881Y424122D01*
X84378Y423378D01*
X85122Y422881D01*
X86000Y422706D01*
X86878Y422881D01*
X87622Y423378D01*
X88119Y424122D01*
X88294Y425000D01*
X88119Y425878D01*
X87622Y426622D01*
X86878Y427119D01*
X86000Y427294D01*
D02*
G37*
G36*
X215500Y427294D02*
X214622Y427119D01*
X213878Y426622D01*
X213381Y425878D01*
X213206Y425000D01*
X213381Y424122D01*
X213878Y423378D01*
X214622Y422881D01*
X215500Y422706D01*
X216378Y422881D01*
X217122Y423378D01*
X217619Y424122D01*
X217794Y425000D01*
X217619Y425878D01*
X217122Y426622D01*
X216378Y427119D01*
X215500Y427294D01*
D02*
G37*
G36*
X100000Y424294D02*
X99122Y424119D01*
X98378Y423622D01*
X97881Y422878D01*
X97706Y422000D01*
X97881Y421122D01*
X98378Y420378D01*
X99122Y419880D01*
X100000Y419706D01*
X100878Y419880D01*
X101622Y420378D01*
X102119Y421122D01*
X102294Y422000D01*
X102119Y422878D01*
X101622Y423622D01*
X100878Y424119D01*
X100000Y424294D01*
D02*
G37*
G36*
X319000Y421622D02*
X318321Y421533D01*
X317689Y421271D01*
X317146Y420854D01*
X316729Y420311D01*
X316467Y419679D01*
X316378Y419000D01*
X316467Y418321D01*
X316729Y417689D01*
X317146Y417146D01*
X317689Y416729D01*
X318321Y416467D01*
X319000Y416378D01*
X319679Y416467D01*
X320311Y416729D01*
X320854Y417146D01*
X321271Y417689D01*
X321533Y418321D01*
X321622Y419000D01*
X321533Y419679D01*
X321271Y420311D01*
X320854Y420854D01*
X320311Y421271D01*
X319679Y421533D01*
X319000Y421622D01*
D02*
G37*
G36*
X308457D02*
X307778Y421533D01*
X307146Y421271D01*
X306602Y420854D01*
X306186Y420311D01*
X305924Y419679D01*
X305834Y419000D01*
X305924Y418321D01*
X306186Y417689D01*
X306602Y417146D01*
X307146Y416729D01*
X307778Y416467D01*
X308457Y416378D01*
X309135Y416467D01*
X309768Y416729D01*
X310311Y417146D01*
X310728Y417689D01*
X310990Y418321D01*
X311079Y419000D01*
X310990Y419679D01*
X310728Y420311D01*
X310311Y420854D01*
X309768Y421271D01*
X309135Y421533D01*
X308457Y421622D01*
D02*
G37*
G36*
X298000D02*
X297321Y421533D01*
X296689Y421271D01*
X296146Y420854D01*
X295729Y420311D01*
X295467Y419679D01*
X295378Y419000D01*
X295467Y418321D01*
X295729Y417689D01*
X296146Y417146D01*
X296689Y416729D01*
X297321Y416467D01*
X298000Y416378D01*
X298679Y416467D01*
X299311Y416729D01*
X299854Y417146D01*
X300271Y417689D01*
X300533Y418321D01*
X300622Y419000D01*
X300533Y419679D01*
X300271Y420311D01*
X299854Y420854D01*
X299311Y421271D01*
X298679Y421533D01*
X298000Y421622D01*
D02*
G37*
G36*
X341000Y418913D02*
X337500D01*
Y415413D01*
X341000D01*
Y418913D01*
D02*
G37*
G36*
X336500D02*
X333000D01*
Y415413D01*
X336500D01*
Y418913D01*
D02*
G37*
G36*
X100000Y416294D02*
X99122Y416119D01*
X98378Y415622D01*
X97881Y414878D01*
X97706Y414000D01*
X97881Y413122D01*
X98378Y412378D01*
X99122Y411880D01*
X100000Y411706D01*
X100878Y411880D01*
X101622Y412378D01*
X102119Y413122D01*
X102294Y414000D01*
X102119Y414878D01*
X101622Y415622D01*
X100878Y416119D01*
X100000Y416294D01*
D02*
G37*
G36*
X145000Y416622D02*
X144321Y416533D01*
X143689Y416271D01*
X143146Y415854D01*
X142729Y415311D01*
X142467Y414679D01*
X142378Y414000D01*
X142467Y413321D01*
X142729Y412689D01*
X143146Y412146D01*
X143689Y411729D01*
X144321Y411467D01*
X145000Y411378D01*
X145679Y411467D01*
X146311Y411729D01*
X146854Y412146D01*
X147271Y412689D01*
X147533Y413321D01*
X147622Y414000D01*
X147533Y414679D01*
X147271Y415311D01*
X146854Y415854D01*
X146311Y416271D01*
X145679Y416533D01*
X145000Y416622D01*
D02*
G37*
G36*
X341000Y414413D02*
X337500D01*
Y410913D01*
X341000D01*
Y414413D01*
D02*
G37*
G36*
X336500D02*
X333000D01*
Y410913D01*
X336500D01*
Y414413D01*
D02*
G37*
G36*
X80000Y410398D02*
X79321Y410309D01*
X78689Y410047D01*
X78146Y409630D01*
X77729Y409087D01*
X77467Y408454D01*
X77377Y407776D01*
X77467Y407097D01*
X77729Y406464D01*
X78146Y405921D01*
X78689Y405505D01*
X79321Y405242D01*
X80000Y405153D01*
X80679Y405242D01*
X81311Y405505D01*
X81854Y405921D01*
X82271Y406464D01*
X82533Y407097D01*
X82622Y407776D01*
X82533Y408454D01*
X82271Y409087D01*
X81854Y409630D01*
X81311Y410047D01*
X80679Y410309D01*
X80000Y410398D01*
D02*
G37*
G36*
X337000Y408948D02*
X335956Y408811D01*
X334983Y408407D01*
X334147Y407766D01*
X333506Y406931D01*
X333103Y405958D01*
X332965Y404913D01*
X333103Y403869D01*
X333506Y402896D01*
X334147Y402061D01*
X334983Y401419D01*
X335956Y401016D01*
X337000Y400879D01*
X338044Y401016D01*
X339017Y401419D01*
X339853Y402061D01*
X340494Y402896D01*
X340897Y403869D01*
X341035Y404913D01*
X340897Y405958D01*
X340494Y406931D01*
X339853Y407766D01*
X339017Y408407D01*
X338044Y408811D01*
X337000Y408948D01*
D02*
G37*
G36*
X186000Y404294D02*
X185122Y404119D01*
X184378Y403622D01*
X183880Y402878D01*
X183706Y402000D01*
X183880Y401122D01*
X184378Y400378D01*
X185122Y399881D01*
X186000Y399706D01*
X186878Y399881D01*
X187622Y400378D01*
X188119Y401122D01*
X188294Y402000D01*
X188119Y402878D01*
X187622Y403622D01*
X186878Y404119D01*
X186000Y404294D01*
D02*
G37*
G36*
X123000Y401294D02*
X122122Y401120D01*
X121378Y400622D01*
X120880Y399878D01*
X120706Y399000D01*
X120880Y398122D01*
X121378Y397378D01*
X122122Y396881D01*
X123000Y396706D01*
X123878Y396881D01*
X124622Y397378D01*
X125119Y398122D01*
X125294Y399000D01*
X125119Y399878D01*
X124622Y400622D01*
X123878Y401120D01*
X123000Y401294D01*
D02*
G37*
G36*
X99000Y395294D02*
X98122Y395120D01*
X97378Y394622D01*
X96881Y393878D01*
X96706Y393000D01*
X96881Y392122D01*
X97378Y391378D01*
X98122Y390880D01*
X99000Y390706D01*
X99735Y390852D01*
X99881Y390122D01*
X100378Y389378D01*
X101122Y388880D01*
X102000Y388706D01*
X102350Y388776D01*
X102776Y388350D01*
X102706Y388000D01*
X102881Y387122D01*
X103378Y386378D01*
X104122Y385880D01*
X105000Y385706D01*
X105878Y385880D01*
X106622Y386378D01*
X107120Y387122D01*
X107294Y388000D01*
X107120Y388878D01*
X106622Y389622D01*
X105878Y390120D01*
X105000Y390294D01*
X104650Y390224D01*
X104224Y390650D01*
X104294Y391000D01*
X104120Y391878D01*
X103622Y392622D01*
X102878Y393120D01*
X102000Y393294D01*
X101265Y393148D01*
X101119Y393878D01*
X100622Y394622D01*
X99878Y395120D01*
X99000Y395294D01*
D02*
G37*
G36*
X219750Y389544D02*
X218872Y389370D01*
X218128Y388872D01*
X217631Y388128D01*
X217456Y387250D01*
X217631Y386372D01*
X218128Y385628D01*
X218872Y385131D01*
X219750Y384956D01*
X220628Y385131D01*
X221372Y385628D01*
X221869Y386372D01*
X222044Y387250D01*
X221869Y388128D01*
X221372Y388872D01*
X220628Y389370D01*
X219750Y389544D01*
D02*
G37*
G36*
X210500Y388794D02*
X209622Y388619D01*
X208878Y388122D01*
X208381Y387378D01*
X208206Y386500D01*
X208381Y385622D01*
X208878Y384878D01*
X209622Y384381D01*
X210500Y384206D01*
X211378Y384381D01*
X212122Y384878D01*
X212619Y385622D01*
X212794Y386500D01*
X212619Y387378D01*
X212122Y388122D01*
X211378Y388619D01*
X210500Y388794D01*
D02*
G37*
G36*
X114000Y393294D02*
X113122Y393120D01*
X112378Y392622D01*
X111881Y391878D01*
X111706Y391000D01*
X111881Y390122D01*
X112378Y389378D01*
X113122Y388880D01*
X114000Y388706D01*
X114350Y388776D01*
X114776Y388350D01*
X114706Y388000D01*
X114881Y387122D01*
X115378Y386378D01*
X116122Y385880D01*
X117000Y385706D01*
X117387Y385783D01*
X117740Y385429D01*
X117655Y385000D01*
X117829Y384122D01*
X118327Y383378D01*
X119071Y382880D01*
X119949Y382706D01*
X120827Y382880D01*
X121571Y383378D01*
X122068Y384122D01*
X122243Y385000D01*
X122068Y385878D01*
X121571Y386622D01*
X120827Y387120D01*
X119949Y387294D01*
X119562Y387217D01*
X119209Y387571D01*
X119294Y388000D01*
X119120Y388878D01*
X118622Y389622D01*
X117878Y390120D01*
X117000Y390294D01*
X116650Y390224D01*
X116224Y390650D01*
X116294Y391000D01*
X116120Y391878D01*
X115622Y392622D01*
X114878Y393120D01*
X114000Y393294D01*
D02*
G37*
G36*
X17000Y383469D02*
Y380000D01*
X20469D01*
X20397Y380544D01*
X19994Y381517D01*
X19353Y382353D01*
X18517Y382994D01*
X17544Y383397D01*
X17000Y383469D01*
D02*
G37*
G36*
X16000D02*
X15456Y383397D01*
X14483Y382994D01*
X13647Y382353D01*
X13006Y381517D01*
X12603Y380544D01*
X12531Y380000D01*
X16000D01*
Y383469D01*
D02*
G37*
G36*
X20469Y379000D02*
X17000D01*
Y375531D01*
X17544Y375603D01*
X18517Y376006D01*
X19353Y376647D01*
X19994Y377483D01*
X20397Y378456D01*
X20469Y379000D01*
D02*
G37*
G36*
X16000D02*
X12531D01*
X12603Y378456D01*
X13006Y377483D01*
X13647Y376647D01*
X14483Y376006D01*
X15456Y375603D01*
X16000Y375531D01*
Y379000D01*
D02*
G37*
G36*
X277000Y380622D02*
X276321Y380533D01*
X275689Y380271D01*
X275146Y379854D01*
X274729Y379311D01*
X274467Y378679D01*
X274378Y378000D01*
X274467Y377321D01*
X274729Y376689D01*
X275146Y376146D01*
X275689Y375729D01*
X276321Y375467D01*
X277000Y375378D01*
X277679Y375467D01*
X278311Y375729D01*
X278854Y376146D01*
X279271Y376689D01*
X279533Y377321D01*
X279622Y378000D01*
X279533Y378679D01*
X279271Y379311D01*
X278854Y379854D01*
X278311Y380271D01*
X277679Y380533D01*
X277000Y380622D01*
D02*
G37*
G36*
X175000Y387510D02*
Y372000D01*
X190510D01*
X190352Y374011D01*
X189764Y376460D01*
X188800Y378786D01*
X187484Y380934D01*
X185849Y382849D01*
X183934Y384484D01*
X181786Y385800D01*
X179460Y386764D01*
X177011Y387352D01*
X175000Y387510D01*
D02*
G37*
G36*
X174000D02*
X171989Y387352D01*
X169540Y386764D01*
X167214Y385800D01*
X165066Y384484D01*
X163151Y382849D01*
X161516Y380934D01*
X160200Y378786D01*
X159236Y376460D01*
X158648Y374011D01*
X158490Y372000D01*
X174000D01*
Y387510D01*
D02*
G37*
G36*
X113000Y372294D02*
X112122Y372119D01*
X111378Y371622D01*
X110880Y370878D01*
X110706Y370000D01*
X110880Y369122D01*
X111378Y368378D01*
X112122Y367881D01*
X113000Y367706D01*
X113878Y367881D01*
X114622Y368378D01*
X115120Y369122D01*
X115294Y370000D01*
X115120Y370878D01*
X114622Y371622D01*
X113878Y372119D01*
X113000Y372294D01*
D02*
G37*
G36*
X16500Y373534D02*
X15456Y373397D01*
X14483Y372994D01*
X13647Y372353D01*
X13006Y371517D01*
X12603Y370544D01*
X12466Y369500D01*
X12603Y368456D01*
X13006Y367483D01*
X13647Y366647D01*
X14483Y366006D01*
X15456Y365603D01*
X16500Y365465D01*
X17544Y365603D01*
X18517Y366006D01*
X19353Y366647D01*
X19994Y367483D01*
X20397Y368456D01*
X20535Y369500D01*
X20397Y370544D01*
X19994Y371517D01*
X19353Y372353D01*
X18517Y372994D01*
X17544Y373397D01*
X16500Y373534D01*
D02*
G37*
G36*
X141000Y367794D02*
X140122Y367619D01*
X139378Y367122D01*
X138881Y366378D01*
X138706Y365500D01*
X138881Y364622D01*
X139378Y363878D01*
X140122Y363381D01*
X141000Y363206D01*
X141878Y363381D01*
X142622Y363878D01*
X143120Y364622D01*
X143294Y365500D01*
X143120Y366378D01*
X142622Y367122D01*
X141878Y367619D01*
X141000Y367794D01*
D02*
G37*
G36*
X108003Y367294D02*
X107125Y367120D01*
X106380Y366622D01*
X105883Y365878D01*
X105709Y365000D01*
X105883Y364122D01*
X106380Y363378D01*
X107125Y362880D01*
X108003Y362706D01*
X108880Y362880D01*
X109625Y363378D01*
X110122Y364122D01*
X110297Y365000D01*
X110122Y365878D01*
X109625Y366622D01*
X108880Y367120D01*
X108003Y367294D01*
D02*
G37*
G36*
X17000Y363469D02*
Y360000D01*
X20469D01*
X20397Y360544D01*
X19994Y361517D01*
X19353Y362353D01*
X18517Y362994D01*
X17544Y363397D01*
X17000Y363469D01*
D02*
G37*
G36*
X16000D02*
X15456Y363397D01*
X14483Y362994D01*
X13647Y362353D01*
X13006Y361517D01*
X12603Y360544D01*
X12531Y360000D01*
X16000D01*
Y363469D01*
D02*
G37*
G36*
X20469Y359000D02*
X17000D01*
Y355531D01*
X17544Y355603D01*
X18517Y356006D01*
X19353Y356647D01*
X19994Y357483D01*
X20397Y358456D01*
X20469Y359000D01*
D02*
G37*
G36*
X16000D02*
X12531D01*
X12603Y358456D01*
X13006Y357483D01*
X13647Y356647D01*
X14483Y356006D01*
X15456Y355603D01*
X16000Y355531D01*
Y359000D01*
D02*
G37*
G36*
X190510Y371000D02*
X175000D01*
Y355490D01*
X177011Y355648D01*
X179460Y356236D01*
X181786Y357200D01*
X183934Y358516D01*
X185849Y360151D01*
X187484Y362066D01*
X188800Y364214D01*
X189764Y366540D01*
X190352Y368989D01*
X190510Y371000D01*
D02*
G37*
G36*
X174000D02*
X158490D01*
X158648Y368989D01*
X159236Y366540D01*
X160200Y364214D01*
X161516Y362066D01*
X163151Y360151D01*
X165066Y358516D01*
X167214Y357200D01*
X169540Y356236D01*
X171989Y355648D01*
X174000Y355490D01*
Y371000D01*
D02*
G37*
G36*
X141000Y358794D02*
X140122Y358619D01*
X139378Y358122D01*
X138881Y357378D01*
X138706Y356500D01*
X138881Y355622D01*
X139378Y354878D01*
X140122Y354380D01*
X141000Y354206D01*
X141878Y354380D01*
X142622Y354878D01*
X143120Y355622D01*
X143294Y356500D01*
X143120Y357378D01*
X142622Y358122D01*
X141878Y358619D01*
X141000Y358794D01*
D02*
G37*
G36*
X340100Y358000D02*
X332100D01*
Y350000D01*
X340100D01*
Y358000D01*
D02*
G37*
G36*
X20500Y353500D02*
X12500D01*
Y345500D01*
X20500D01*
Y353500D01*
D02*
G37*
G36*
X336100Y348035D02*
X335056Y347897D01*
X334083Y347494D01*
X333247Y346853D01*
X332606Y346017D01*
X332203Y345044D01*
X332066Y344000D01*
X332203Y342956D01*
X332606Y341983D01*
X333247Y341147D01*
X334083Y340506D01*
X335056Y340103D01*
X336100Y339966D01*
X337144Y340103D01*
X338117Y340506D01*
X338953Y341147D01*
X339594Y341983D01*
X339997Y342956D01*
X340135Y344000D01*
X339997Y345044D01*
X339594Y346017D01*
X338953Y346853D01*
X338117Y347494D01*
X337144Y347897D01*
X336100Y348035D01*
D02*
G37*
G36*
X17000Y340969D02*
Y337500D01*
X20469D01*
X20397Y338044D01*
X19994Y339017D01*
X19353Y339853D01*
X18517Y340494D01*
X17544Y340897D01*
X17000Y340969D01*
D02*
G37*
G36*
X16000D02*
X15456Y340897D01*
X14483Y340494D01*
X13647Y339853D01*
X13006Y339017D01*
X12603Y338044D01*
X12531Y337500D01*
X16000D01*
Y340969D01*
D02*
G37*
G36*
X20469Y336500D02*
X17000D01*
Y333031D01*
X17544Y333103D01*
X18517Y333506D01*
X19353Y334147D01*
X19994Y334983D01*
X20397Y335956D01*
X20469Y336500D01*
D02*
G37*
G36*
X16000D02*
X12531D01*
X12603Y335956D01*
X13006Y334983D01*
X13647Y334147D01*
X14483Y333506D01*
X15456Y333103D01*
X16000Y333031D01*
Y336500D01*
D02*
G37*
G36*
X340100Y336000D02*
X332100D01*
Y328000D01*
X340100D01*
Y336000D01*
D02*
G37*
G36*
X16500Y331034D02*
X15456Y330897D01*
X14483Y330494D01*
X13647Y329853D01*
X13006Y329017D01*
X12603Y328044D01*
X12466Y327000D01*
X12603Y325956D01*
X13006Y324983D01*
X13647Y324147D01*
X14483Y323506D01*
X15456Y323103D01*
X16500Y322966D01*
X17544Y323103D01*
X18517Y323506D01*
X19353Y324147D01*
X19994Y324983D01*
X20397Y325956D01*
X20535Y327000D01*
X20397Y328044D01*
X19994Y329017D01*
X19353Y329853D01*
X18517Y330494D01*
X17544Y330897D01*
X16500Y331034D01*
D02*
G37*
G36*
X336100Y326034D02*
X335056Y325897D01*
X334083Y325494D01*
X333247Y324853D01*
X332606Y324017D01*
X332203Y323044D01*
X332066Y322000D01*
X332203Y320956D01*
X332606Y319983D01*
X333247Y319147D01*
X334083Y318506D01*
X335056Y318103D01*
X336100Y317966D01*
X337144Y318103D01*
X338117Y318506D01*
X338953Y319147D01*
X339594Y319983D01*
X339997Y320956D01*
X340135Y322000D01*
X339997Y323044D01*
X339594Y324017D01*
X338953Y324853D01*
X338117Y325494D01*
X337144Y325897D01*
X336100Y326034D01*
D02*
G37*
G36*
X17000Y320969D02*
Y317500D01*
X20469D01*
X20397Y318044D01*
X19994Y319017D01*
X19353Y319853D01*
X18517Y320494D01*
X17544Y320897D01*
X17000Y320969D01*
D02*
G37*
G36*
X16000D02*
X15456Y320897D01*
X14483Y320494D01*
X13647Y319853D01*
X13006Y319017D01*
X12603Y318044D01*
X12531Y317500D01*
X16000D01*
Y320969D01*
D02*
G37*
G36*
X20469Y316500D02*
X17000D01*
Y313031D01*
X17544Y313103D01*
X18517Y313506D01*
X19353Y314147D01*
X19994Y314983D01*
X20397Y315956D01*
X20469Y316500D01*
D02*
G37*
G36*
X16000D02*
X12531D01*
X12603Y315956D01*
X13006Y314983D01*
X13647Y314147D01*
X14483Y313506D01*
X15456Y313103D01*
X16000Y313031D01*
Y316500D01*
D02*
G37*
G36*
X20500Y311000D02*
X12500D01*
Y303000D01*
X20500D01*
Y311000D01*
D02*
G37*
G36*
X253000Y306622D02*
X252321Y306533D01*
X251689Y306271D01*
X251146Y305854D01*
X250729Y305311D01*
X250467Y304679D01*
X250378Y304000D01*
X250467Y303321D01*
X250729Y302689D01*
X251146Y302146D01*
X251689Y301729D01*
X252321Y301467D01*
X253000Y301378D01*
X253679Y301467D01*
X254311Y301729D01*
X254854Y302146D01*
X255271Y302689D01*
X255533Y303321D01*
X255622Y304000D01*
X255533Y304679D01*
X255271Y305311D01*
X254854Y305854D01*
X254311Y306271D01*
X253679Y306533D01*
X253000Y306622D01*
D02*
G37*
G36*
X17000Y298469D02*
Y295000D01*
X20469D01*
X20397Y295544D01*
X19994Y296517D01*
X19353Y297353D01*
X18517Y297994D01*
X17544Y298397D01*
X17000Y298469D01*
D02*
G37*
G36*
X16000D02*
X15456Y298397D01*
X14483Y297994D01*
X13647Y297353D01*
X13006Y296517D01*
X12603Y295544D01*
X12531Y295000D01*
X16000D01*
Y298469D01*
D02*
G37*
G36*
X20469Y294000D02*
X17000D01*
Y290531D01*
X17544Y290603D01*
X18517Y291006D01*
X19353Y291647D01*
X19994Y292483D01*
X20397Y293456D01*
X20469Y294000D01*
D02*
G37*
G36*
X16000D02*
X12531D01*
X12603Y293456D01*
X13006Y292483D01*
X13647Y291647D01*
X14483Y291006D01*
X15456Y290603D01*
X16000Y290531D01*
Y294000D01*
D02*
G37*
G36*
X277000Y286622D02*
X276321Y286533D01*
X275689Y286271D01*
X275146Y285854D01*
X274729Y285311D01*
X274467Y284679D01*
X274378Y284000D01*
X274467Y283321D01*
X274729Y282689D01*
X275146Y282146D01*
X275689Y281729D01*
X276321Y281467D01*
X277000Y281378D01*
X277679Y281467D01*
X278311Y281729D01*
X278854Y282146D01*
X279271Y282689D01*
X279533Y283321D01*
X279622Y284000D01*
X279533Y284679D01*
X279271Y285311D01*
X278854Y285854D01*
X278311Y286271D01*
X277679Y286533D01*
X277000Y286622D01*
D02*
G37*
G36*
X16500Y288534D02*
X15456Y288397D01*
X14483Y287994D01*
X13647Y287353D01*
X13006Y286517D01*
X12603Y285544D01*
X12466Y284500D01*
X12603Y283456D01*
X13006Y282483D01*
X13647Y281647D01*
X14483Y281006D01*
X15456Y280603D01*
X16500Y280466D01*
X17544Y280603D01*
X18517Y281006D01*
X19353Y281647D01*
X19994Y282483D01*
X20397Y283456D01*
X20535Y284500D01*
X20397Y285544D01*
X19994Y286517D01*
X19353Y287353D01*
X18517Y287994D01*
X17544Y288397D01*
X16500Y288534D01*
D02*
G37*
G36*
X17000Y278469D02*
Y275000D01*
X20469D01*
X20397Y275544D01*
X19994Y276517D01*
X19353Y277353D01*
X18517Y277994D01*
X17544Y278397D01*
X17000Y278469D01*
D02*
G37*
G36*
X16000D02*
X15456Y278397D01*
X14483Y277994D01*
X13647Y277353D01*
X13006Y276517D01*
X12603Y275544D01*
X12531Y275000D01*
X16000D01*
Y278469D01*
D02*
G37*
G36*
X20469Y274000D02*
X17000D01*
Y270531D01*
X17544Y270603D01*
X18517Y271006D01*
X19353Y271647D01*
X19994Y272483D01*
X20397Y273456D01*
X20469Y274000D01*
D02*
G37*
G36*
X16000D02*
X12531D01*
X12603Y273456D01*
X13006Y272483D01*
X13647Y271647D01*
X14483Y271006D01*
X15456Y270603D01*
X16000Y270531D01*
Y274000D01*
D02*
G37*
G36*
X20500Y268500D02*
X12500D01*
Y260500D01*
X20500D01*
Y268500D01*
D02*
G37*
G36*
X340100Y265000D02*
X332100D01*
Y257000D01*
X340100D01*
Y265000D01*
D02*
G37*
G36*
X17000Y255969D02*
Y252500D01*
X20469D01*
X20397Y253044D01*
X19994Y254017D01*
X19353Y254853D01*
X18517Y255494D01*
X17544Y255897D01*
X17000Y255969D01*
D02*
G37*
G36*
X16000D02*
X15456Y255897D01*
X14483Y255494D01*
X13647Y254853D01*
X13006Y254017D01*
X12603Y253044D01*
X12531Y252500D01*
X16000D01*
Y255969D01*
D02*
G37*
G36*
X20469Y251500D02*
X17000D01*
Y248031D01*
X17544Y248103D01*
X18517Y248506D01*
X19353Y249147D01*
X19994Y249983D01*
X20397Y250956D01*
X20469Y251500D01*
D02*
G37*
G36*
X16000D02*
X12531D01*
X12603Y250956D01*
X13006Y249983D01*
X13647Y249147D01*
X14483Y248506D01*
X15456Y248103D01*
X16000Y248031D01*
Y251500D01*
D02*
G37*
G36*
X336100Y255034D02*
X335056Y254897D01*
X334083Y254494D01*
X333247Y253853D01*
X332606Y253017D01*
X332203Y252044D01*
X332066Y251000D01*
X332203Y249956D01*
X332606Y248983D01*
X333247Y248147D01*
X334083Y247506D01*
X335056Y247103D01*
X336100Y246966D01*
X337144Y247103D01*
X338117Y247506D01*
X338953Y248147D01*
X339594Y248983D01*
X339997Y249956D01*
X340135Y251000D01*
X339997Y252044D01*
X339594Y253017D01*
X338953Y253853D01*
X338117Y254494D01*
X337144Y254897D01*
X336100Y255034D01*
D02*
G37*
G36*
X16500Y246035D02*
X15456Y245897D01*
X14483Y245494D01*
X13647Y244853D01*
X13006Y244017D01*
X12603Y243044D01*
X12466Y242000D01*
X12603Y240956D01*
X13006Y239983D01*
X13647Y239147D01*
X14483Y238506D01*
X15456Y238103D01*
X16500Y237965D01*
X17544Y238103D01*
X18517Y238506D01*
X19353Y239147D01*
X19994Y239983D01*
X20397Y240956D01*
X20535Y242000D01*
X20397Y243044D01*
X19994Y244017D01*
X19353Y244853D01*
X18517Y245494D01*
X17544Y245897D01*
X16500Y246035D01*
D02*
G37*
G36*
X340100Y243000D02*
X332100D01*
Y235000D01*
X340100D01*
Y243000D01*
D02*
G37*
G36*
X17000Y235969D02*
Y232500D01*
X20469D01*
X20397Y233044D01*
X19994Y234017D01*
X19353Y234853D01*
X18517Y235494D01*
X17544Y235897D01*
X17000Y235969D01*
D02*
G37*
G36*
X16000D02*
X15456Y235897D01*
X14483Y235494D01*
X13647Y234853D01*
X13006Y234017D01*
X12603Y233044D01*
X12531Y232500D01*
X16000D01*
Y235969D01*
D02*
G37*
G36*
X20469Y231500D02*
X17000D01*
Y228031D01*
X17544Y228103D01*
X18517Y228506D01*
X19353Y229147D01*
X19994Y229983D01*
X20397Y230956D01*
X20469Y231500D01*
D02*
G37*
G36*
X16000D02*
X12531D01*
X12603Y230956D01*
X13006Y229983D01*
X13647Y229147D01*
X14483Y228506D01*
X15456Y228103D01*
X16000Y228031D01*
Y231500D01*
D02*
G37*
G36*
X336100Y233034D02*
X335056Y232897D01*
X334083Y232494D01*
X333247Y231853D01*
X332606Y231017D01*
X332203Y230044D01*
X332066Y229000D01*
X332203Y227956D01*
X332606Y226983D01*
X333247Y226147D01*
X334083Y225506D01*
X335056Y225103D01*
X336100Y224966D01*
X337144Y225103D01*
X338117Y225506D01*
X338953Y226147D01*
X339594Y226983D01*
X339997Y227956D01*
X340135Y229000D01*
X339997Y230044D01*
X339594Y231017D01*
X338953Y231853D01*
X338117Y232494D01*
X337144Y232897D01*
X336100Y233034D01*
D02*
G37*
G36*
X20500Y226000D02*
X12500D01*
Y218000D01*
X20500D01*
Y226000D01*
D02*
G37*
G36*
X17000Y213969D02*
Y210500D01*
X20469D01*
X20397Y211044D01*
X19994Y212017D01*
X19353Y212853D01*
X18517Y213494D01*
X17544Y213897D01*
X17000Y213969D01*
D02*
G37*
G36*
X16000D02*
X15456Y213897D01*
X14483Y213494D01*
X13647Y212853D01*
X13006Y212017D01*
X12603Y211044D01*
X12531Y210500D01*
X16000D01*
Y213969D01*
D02*
G37*
G36*
X253000Y212622D02*
X252321Y212533D01*
X251689Y212271D01*
X251146Y211854D01*
X250729Y211311D01*
X250467Y210679D01*
X250378Y210000D01*
X250467Y209321D01*
X250729Y208689D01*
X251146Y208146D01*
X251689Y207729D01*
X252321Y207467D01*
X253000Y207378D01*
X253679Y207467D01*
X254311Y207729D01*
X254854Y208146D01*
X255271Y208689D01*
X255533Y209321D01*
X255622Y210000D01*
X255533Y210679D01*
X255271Y211311D01*
X254854Y211854D01*
X254311Y212271D01*
X253679Y212533D01*
X253000Y212622D01*
D02*
G37*
G36*
X20469Y209500D02*
X17000D01*
Y206031D01*
X17544Y206103D01*
X18517Y206506D01*
X19353Y207147D01*
X19994Y207983D01*
X20397Y208956D01*
X20469Y209500D01*
D02*
G37*
G36*
X16000D02*
X12531D01*
X12603Y208956D01*
X13006Y207983D01*
X13647Y207147D01*
X14483Y206506D01*
X15456Y206103D01*
X16000Y206031D01*
Y209500D01*
D02*
G37*
G36*
X16500Y204034D02*
X15456Y203897D01*
X14483Y203494D01*
X13647Y202853D01*
X13006Y202017D01*
X12603Y201044D01*
X12466Y200000D01*
X12603Y198956D01*
X13006Y197983D01*
X13647Y197147D01*
X14483Y196506D01*
X15456Y196103D01*
X16500Y195966D01*
X17544Y196103D01*
X18517Y196506D01*
X19353Y197147D01*
X19994Y197983D01*
X20397Y198956D01*
X20535Y200000D01*
X20397Y201044D01*
X19994Y202017D01*
X19353Y202853D01*
X18517Y203494D01*
X17544Y203897D01*
X16500Y204034D01*
D02*
G37*
G36*
X17000Y193969D02*
Y190500D01*
X20469D01*
X20397Y191044D01*
X19994Y192017D01*
X19353Y192853D01*
X18517Y193494D01*
X17544Y193897D01*
X17000Y193969D01*
D02*
G37*
G36*
X16000D02*
X15456Y193897D01*
X14483Y193494D01*
X13647Y192853D01*
X13006Y192017D01*
X12603Y191044D01*
X12531Y190500D01*
X16000D01*
Y193969D01*
D02*
G37*
G36*
X277600Y192473D02*
X276921Y192384D01*
X276289Y192122D01*
X275746Y191705D01*
X275329Y191162D01*
X275067Y190529D01*
X274978Y189850D01*
X275067Y189172D01*
X275329Y188539D01*
X275746Y187996D01*
X276289Y187579D01*
X276921Y187317D01*
X277600Y187228D01*
X278279Y187317D01*
X278911Y187579D01*
X279454Y187996D01*
X279871Y188539D01*
X280133Y189172D01*
X280222Y189850D01*
X280133Y190529D01*
X279871Y191162D01*
X279454Y191705D01*
X278911Y192122D01*
X278279Y192384D01*
X277600Y192473D01*
D02*
G37*
G36*
X20469Y189500D02*
X17000D01*
Y186031D01*
X17544Y186103D01*
X18517Y186506D01*
X19353Y187147D01*
X19994Y187983D01*
X20397Y188956D01*
X20469Y189500D01*
D02*
G37*
G36*
X16000D02*
X12531D01*
X12603Y188956D01*
X13006Y187983D01*
X13647Y187147D01*
X14483Y186506D01*
X15456Y186103D01*
X16000Y186031D01*
Y189500D01*
D02*
G37*
G36*
X20500Y184000D02*
X12500D01*
Y176000D01*
X20500D01*
Y184000D01*
D02*
G37*
G36*
X17000Y170969D02*
Y167500D01*
X20469D01*
X20397Y168044D01*
X19994Y169017D01*
X19353Y169853D01*
X18517Y170494D01*
X17544Y170897D01*
X17000Y170969D01*
D02*
G37*
G36*
X16000D02*
X15456Y170897D01*
X14483Y170494D01*
X13647Y169853D01*
X13006Y169017D01*
X12603Y168044D01*
X12531Y167500D01*
X16000D01*
Y170969D01*
D02*
G37*
G36*
X20469Y166500D02*
X17000D01*
Y163031D01*
X17544Y163103D01*
X18517Y163506D01*
X19353Y164147D01*
X19994Y164983D01*
X20397Y165956D01*
X20469Y166500D01*
D02*
G37*
G36*
X16000D02*
X12531D01*
X12603Y165956D01*
X13006Y164983D01*
X13647Y164147D01*
X14483Y163506D01*
X15456Y163103D01*
X16000Y163031D01*
Y166500D01*
D02*
G37*
G36*
X340100Y170000D02*
X332100D01*
Y162000D01*
X340100D01*
Y170000D01*
D02*
G37*
G36*
X16500Y161035D02*
X15456Y160897D01*
X14483Y160494D01*
X13647Y159853D01*
X13006Y159017D01*
X12603Y158044D01*
X12466Y157000D01*
X12603Y155956D01*
X13006Y154983D01*
X13647Y154147D01*
X14483Y153506D01*
X15456Y153103D01*
X16500Y152965D01*
X17544Y153103D01*
X18517Y153506D01*
X19353Y154147D01*
X19994Y154983D01*
X20397Y155956D01*
X20535Y157000D01*
X20397Y158044D01*
X19994Y159017D01*
X19353Y159853D01*
X18517Y160494D01*
X17544Y160897D01*
X16500Y161035D01*
D02*
G37*
G36*
X336100Y160035D02*
X335056Y159897D01*
X334083Y159494D01*
X333247Y158853D01*
X332606Y158017D01*
X332203Y157044D01*
X332066Y156000D01*
X332203Y154956D01*
X332606Y153983D01*
X333247Y153147D01*
X334083Y152506D01*
X335056Y152103D01*
X336100Y151965D01*
X337144Y152103D01*
X338117Y152506D01*
X338953Y153147D01*
X339594Y153983D01*
X339997Y154956D01*
X340135Y156000D01*
X339997Y157044D01*
X339594Y158017D01*
X338953Y158853D01*
X338117Y159494D01*
X337144Y159897D01*
X336100Y160035D01*
D02*
G37*
G36*
X17000Y150969D02*
Y147500D01*
X20469D01*
X20397Y148044D01*
X19994Y149017D01*
X19353Y149853D01*
X18517Y150494D01*
X17544Y150897D01*
X17000Y150969D01*
D02*
G37*
G36*
X16000D02*
X15456Y150897D01*
X14483Y150494D01*
X13647Y149853D01*
X13006Y149017D01*
X12603Y148044D01*
X12531Y147500D01*
X16000D01*
Y150969D01*
D02*
G37*
G36*
X20469Y146500D02*
X17000D01*
Y143031D01*
X17544Y143103D01*
X18517Y143506D01*
X19353Y144147D01*
X19994Y144983D01*
X20397Y145956D01*
X20469Y146500D01*
D02*
G37*
G36*
X16000D02*
X12531D01*
X12603Y145956D01*
X13006Y144983D01*
X13647Y144147D01*
X14483Y143506D01*
X15456Y143103D01*
X16000Y143031D01*
Y146500D01*
D02*
G37*
G36*
X340100Y148000D02*
X332100D01*
Y140000D01*
X340100D01*
Y148000D01*
D02*
G37*
G36*
X20500Y141000D02*
X12500D01*
Y133000D01*
X20500D01*
Y141000D01*
D02*
G37*
G36*
X336100Y138034D02*
X335056Y137897D01*
X334083Y137494D01*
X333247Y136853D01*
X332606Y136017D01*
X332203Y135044D01*
X332066Y134000D01*
X332203Y132956D01*
X332606Y131983D01*
X333247Y131147D01*
X334083Y130506D01*
X335056Y130103D01*
X336100Y129965D01*
X337144Y130103D01*
X338117Y130506D01*
X338953Y131147D01*
X339594Y131983D01*
X339997Y132956D01*
X340135Y134000D01*
X339997Y135044D01*
X339594Y136017D01*
X338953Y136853D01*
X338117Y137494D01*
X337144Y137897D01*
X336100Y138034D01*
D02*
G37*
G36*
X93000Y133294D02*
X92122Y133119D01*
X91378Y132622D01*
X90881Y131878D01*
X90706Y131000D01*
X90881Y130122D01*
X91378Y129378D01*
X92122Y128881D01*
X93000Y128706D01*
X93878Y128881D01*
X94622Y129378D01*
X95119Y130122D01*
X95294Y131000D01*
X95119Y131878D01*
X94622Y132622D01*
X93878Y133119D01*
X93000Y133294D01*
D02*
G37*
G36*
X17000Y128969D02*
Y125500D01*
X20469D01*
X20397Y126044D01*
X19994Y127017D01*
X19353Y127853D01*
X18517Y128494D01*
X17544Y128897D01*
X17000Y128969D01*
D02*
G37*
G36*
X16000D02*
X15456Y128897D01*
X14483Y128494D01*
X13647Y127853D01*
X13006Y127017D01*
X12603Y126044D01*
X12531Y125500D01*
X16000D01*
Y128969D01*
D02*
G37*
G36*
X20469Y124500D02*
X17000D01*
Y121031D01*
X17544Y121103D01*
X18517Y121506D01*
X19353Y122147D01*
X19994Y122983D01*
X20397Y123956D01*
X20469Y124500D01*
D02*
G37*
G36*
X16000D02*
X12531D01*
X12603Y123956D01*
X13006Y122983D01*
X13647Y122147D01*
X14483Y121506D01*
X15456Y121103D01*
X16000Y121031D01*
Y124500D01*
D02*
G37*
G36*
X93000Y118325D02*
X92122Y118151D01*
X91378Y117654D01*
X90881Y116909D01*
X90706Y116031D01*
X90881Y115153D01*
X91378Y114409D01*
X92122Y113912D01*
X93000Y113737D01*
X93878Y113912D01*
X94622Y114409D01*
X95119Y115153D01*
X95294Y116031D01*
X95119Y116909D01*
X94622Y117654D01*
X93878Y118151D01*
X93000Y118325D01*
D02*
G37*
G36*
X253000Y118622D02*
X252321Y118533D01*
X251689Y118271D01*
X251146Y117854D01*
X250729Y117311D01*
X250467Y116679D01*
X250378Y116000D01*
X250467Y115321D01*
X250729Y114689D01*
X251146Y114146D01*
X251689Y113729D01*
X252321Y113467D01*
X253000Y113378D01*
X253679Y113467D01*
X254311Y113729D01*
X254854Y114146D01*
X255271Y114689D01*
X255533Y115321D01*
X255622Y116000D01*
X255533Y116679D01*
X255271Y117311D01*
X254854Y117854D01*
X254311Y118271D01*
X253679Y118533D01*
X253000Y118622D01*
D02*
G37*
G36*
X16500Y119035D02*
X15456Y118897D01*
X14483Y118494D01*
X13647Y117853D01*
X13006Y117017D01*
X12603Y116044D01*
X12466Y115000D01*
X12603Y113956D01*
X13006Y112983D01*
X13647Y112147D01*
X14483Y111506D01*
X15456Y111103D01*
X16500Y110966D01*
X17544Y111103D01*
X18517Y111506D01*
X19353Y112147D01*
X19994Y112983D01*
X20397Y113956D01*
X20535Y115000D01*
X20397Y116044D01*
X19994Y117017D01*
X19353Y117853D01*
X18517Y118494D01*
X17544Y118897D01*
X16500Y119035D01*
D02*
G37*
G36*
Y109035D02*
X15456Y108897D01*
X14483Y108494D01*
X13647Y107853D01*
X13006Y107017D01*
X12603Y106044D01*
X12466Y105000D01*
X12603Y103956D01*
X13006Y102983D01*
X13647Y102147D01*
X14483Y101506D01*
X15456Y101103D01*
X16500Y100965D01*
X17544Y101103D01*
X18517Y101506D01*
X19353Y102147D01*
X19994Y102983D01*
X20397Y103956D01*
X20535Y105000D01*
X20397Y106044D01*
X19994Y107017D01*
X19353Y107853D01*
X18517Y108494D01*
X17544Y108897D01*
X16500Y109035D01*
D02*
G37*
G36*
X20500Y99000D02*
X17000D01*
Y95500D01*
X20500D01*
Y99000D01*
D02*
G37*
G36*
X16000D02*
X12500D01*
Y95500D01*
X16000D01*
Y99000D01*
D02*
G37*
G36*
X277100Y98622D02*
X276421Y98533D01*
X275789Y98271D01*
X275246Y97854D01*
X274829Y97311D01*
X274567Y96679D01*
X274478Y96000D01*
X274567Y95321D01*
X274829Y94689D01*
X275246Y94146D01*
X275789Y93729D01*
X276421Y93467D01*
X277100Y93378D01*
X277779Y93467D01*
X278411Y93729D01*
X278954Y94146D01*
X279371Y94689D01*
X279633Y95321D01*
X279722Y96000D01*
X279633Y96679D01*
X279371Y97311D01*
X278954Y97854D01*
X278411Y98271D01*
X277779Y98533D01*
X277100Y98622D01*
D02*
G37*
G36*
X20500Y94500D02*
X17000D01*
Y91000D01*
X20500D01*
Y94500D01*
D02*
G37*
G36*
X16000D02*
X12500D01*
Y91000D01*
X16000D01*
Y94500D01*
D02*
G37*
G36*
X17000Y86969D02*
Y83500D01*
X20469D01*
X20397Y84044D01*
X19994Y85017D01*
X19353Y85853D01*
X18517Y86494D01*
X17544Y86897D01*
X17000Y86969D01*
D02*
G37*
G36*
X16000D02*
X15456Y86897D01*
X14483Y86494D01*
X13647Y85853D01*
X13006Y85017D01*
X12603Y84044D01*
X12531Y83500D01*
X16000D01*
Y86969D01*
D02*
G37*
G36*
X20469Y82500D02*
X17000D01*
Y79031D01*
X17544Y79103D01*
X18517Y79506D01*
X19353Y80147D01*
X19994Y80983D01*
X20397Y81956D01*
X20469Y82500D01*
D02*
G37*
G36*
X16000D02*
X12531D01*
X12603Y81956D01*
X13006Y80983D01*
X13647Y80147D01*
X14483Y79506D01*
X15456Y79103D01*
X16000Y79031D01*
Y82500D01*
D02*
G37*
G36*
X340000Y83000D02*
X332000D01*
Y75000D01*
X340000D01*
Y83000D01*
D02*
G37*
G36*
X69000Y74363D02*
X68321Y74273D01*
X67689Y74011D01*
X67146Y73594D01*
X66729Y73051D01*
X66467Y72419D01*
X66378Y71740D01*
X66467Y71061D01*
X66729Y70429D01*
X67146Y69886D01*
X67689Y69469D01*
X68321Y69207D01*
X69000Y69118D01*
X69679Y69207D01*
X70311Y69469D01*
X70854Y69886D01*
X71271Y70429D01*
X71533Y71061D01*
X71622Y71740D01*
X71533Y72419D01*
X71271Y73051D01*
X70854Y73594D01*
X70311Y74011D01*
X69679Y74273D01*
X69000Y74363D01*
D02*
G37*
G36*
X16500Y77034D02*
X15456Y76897D01*
X14483Y76494D01*
X13647Y75853D01*
X13006Y75017D01*
X12603Y74044D01*
X12466Y73000D01*
X12603Y71956D01*
X13006Y70983D01*
X13647Y70147D01*
X14483Y69506D01*
X15456Y69103D01*
X16500Y68966D01*
X17544Y69103D01*
X18517Y69506D01*
X19353Y70147D01*
X19994Y70983D01*
X20397Y71956D01*
X20535Y73000D01*
X20397Y74044D01*
X19994Y75017D01*
X19353Y75853D01*
X18517Y76494D01*
X17544Y76897D01*
X16500Y77034D01*
D02*
G37*
G36*
X336000Y73035D02*
X334956Y72897D01*
X333983Y72494D01*
X333147Y71853D01*
X332506Y71017D01*
X332103Y70044D01*
X331965Y69000D01*
X332103Y67956D01*
X332506Y66983D01*
X333147Y66147D01*
X333983Y65506D01*
X334956Y65103D01*
X336000Y64965D01*
X337044Y65103D01*
X338017Y65506D01*
X338853Y66147D01*
X339494Y66983D01*
X339897Y67956D01*
X340035Y69000D01*
X339897Y70044D01*
X339494Y71017D01*
X338853Y71853D01*
X338017Y72494D01*
X337044Y72897D01*
X336000Y73035D01*
D02*
G37*
G36*
X16500Y67035D02*
X15456Y66897D01*
X14483Y66494D01*
X13647Y65853D01*
X13006Y65017D01*
X12603Y64044D01*
X12466Y63000D01*
X12603Y61956D01*
X13006Y60983D01*
X13647Y60147D01*
X14483Y59506D01*
X15456Y59103D01*
X16500Y58965D01*
X17544Y59103D01*
X18517Y59506D01*
X19353Y60147D01*
X19994Y60983D01*
X20397Y61956D01*
X20535Y63000D01*
X20397Y64044D01*
X19994Y65017D01*
X19353Y65853D01*
X18517Y66494D01*
X17544Y66897D01*
X16500Y67035D01*
D02*
G37*
G36*
X20500Y57000D02*
X17000D01*
Y53500D01*
X20500D01*
Y57000D01*
D02*
G37*
G36*
X340000Y61500D02*
X332000D01*
Y53500D01*
X340000D01*
Y61500D01*
D02*
G37*
G36*
X16000Y57000D02*
X12500D01*
Y53500D01*
X16000D01*
Y57000D01*
D02*
G37*
G36*
X20500Y52500D02*
X17000D01*
Y49000D01*
X20500D01*
Y52500D01*
D02*
G37*
G36*
X16000D02*
X12500D01*
Y49000D01*
X16000D01*
Y52500D01*
D02*
G37*
G36*
X336000Y51534D02*
X334956Y51397D01*
X333983Y50994D01*
X333147Y50353D01*
X332506Y49517D01*
X332103Y48544D01*
X331965Y47500D01*
X332103Y46456D01*
X332506Y45483D01*
X333147Y44647D01*
X333983Y44006D01*
X334956Y43603D01*
X336000Y43466D01*
X337044Y43603D01*
X338017Y44006D01*
X338853Y44647D01*
X339494Y45483D01*
X339897Y46456D01*
X340035Y47500D01*
X339897Y48544D01*
X339494Y49517D01*
X338853Y50353D01*
X338017Y50994D01*
X337044Y51397D01*
X336000Y51534D01*
D02*
G37*
G36*
X149500Y43969D02*
Y40500D01*
X152969D01*
X152897Y41044D01*
X152494Y42017D01*
X151853Y42853D01*
X151017Y43494D01*
X150044Y43897D01*
X149500Y43969D01*
D02*
G37*
G36*
X148500D02*
X147956Y43897D01*
X146983Y43494D01*
X146147Y42853D01*
X145506Y42017D01*
X145103Y41044D01*
X145031Y40500D01*
X148500D01*
Y43969D01*
D02*
G37*
G36*
X152969Y39500D02*
X149500D01*
Y36031D01*
X150044Y36103D01*
X151017Y36506D01*
X151853Y37147D01*
X152494Y37983D01*
X152897Y38956D01*
X152969Y39500D01*
D02*
G37*
G36*
X148500D02*
X145031D01*
X145103Y38956D01*
X145506Y37983D01*
X146147Y37147D01*
X146983Y36506D01*
X147956Y36103D01*
X148500Y36031D01*
Y39500D01*
D02*
G37*
G36*
X203000Y44000D02*
X195000D01*
Y36000D01*
X203000D01*
Y44000D01*
D02*
G37*
G36*
X189000Y44034D02*
X187956Y43897D01*
X186983Y43494D01*
X186147Y42853D01*
X185506Y42017D01*
X185103Y41044D01*
X184966Y40000D01*
X185103Y38956D01*
X185506Y37983D01*
X186147Y37147D01*
X186983Y36506D01*
X187956Y36103D01*
X189000Y35965D01*
X190044Y36103D01*
X191017Y36506D01*
X191853Y37147D01*
X192494Y37983D01*
X192897Y38956D01*
X193035Y40000D01*
X192897Y41044D01*
X192494Y42017D01*
X191853Y42853D01*
X191017Y43494D01*
X190044Y43897D01*
X189000Y44034D01*
D02*
G37*
G36*
X179000D02*
X177956Y43897D01*
X176983Y43494D01*
X176147Y42853D01*
X175506Y42017D01*
X175103Y41044D01*
X174966Y40000D01*
X175103Y38956D01*
X175506Y37983D01*
X176147Y37147D01*
X176983Y36506D01*
X177956Y36103D01*
X179000Y35965D01*
X180044Y36103D01*
X181017Y36506D01*
X181853Y37147D01*
X182494Y37983D01*
X182897Y38956D01*
X183035Y40000D01*
X182897Y41044D01*
X182494Y42017D01*
X181853Y42853D01*
X181017Y43494D01*
X180044Y43897D01*
X179000Y44034D01*
D02*
G37*
G36*
X169000D02*
X167956Y43897D01*
X166983Y43494D01*
X166147Y42853D01*
X165506Y42017D01*
X165103Y41044D01*
X164965Y40000D01*
X165103Y38956D01*
X165506Y37983D01*
X166147Y37147D01*
X166983Y36506D01*
X167956Y36103D01*
X169000Y35965D01*
X170044Y36103D01*
X171017Y36506D01*
X171853Y37147D01*
X172494Y37983D01*
X172897Y38956D01*
X173035Y40000D01*
X172897Y41044D01*
X172494Y42017D01*
X171853Y42853D01*
X171017Y43494D01*
X170044Y43897D01*
X169000Y44034D01*
D02*
G37*
G36*
X159000D02*
X157956Y43897D01*
X156983Y43494D01*
X156147Y42853D01*
X155506Y42017D01*
X155103Y41044D01*
X154965Y40000D01*
X155103Y38956D01*
X155506Y37983D01*
X156147Y37147D01*
X156983Y36506D01*
X157956Y36103D01*
X159000Y35965D01*
X160044Y36103D01*
X161017Y36506D01*
X161853Y37147D01*
X162494Y37983D01*
X162897Y38956D01*
X163034Y40000D01*
X162897Y41044D01*
X162494Y42017D01*
X161853Y42853D01*
X161017Y43494D01*
X160044Y43897D01*
X159000Y44034D01*
D02*
G37*
G36*
X277500Y39622D02*
X276821Y39533D01*
X276189Y39271D01*
X275646Y38854D01*
X275229Y38311D01*
X274967Y37679D01*
X274878Y37000D01*
X274967Y36321D01*
X275229Y35689D01*
X275646Y35146D01*
X276189Y34729D01*
X276821Y34467D01*
X277500Y34378D01*
X278179Y34467D01*
X278811Y34729D01*
X279354Y35146D01*
X279771Y35689D01*
X280033Y36321D01*
X280122Y37000D01*
X280033Y37679D01*
X279771Y38311D01*
X279354Y38854D01*
X278811Y39271D01*
X278179Y39533D01*
X277500Y39622D01*
D02*
G37*
G36*
X242000Y34622D02*
X241321Y34533D01*
X240689Y34271D01*
X240146Y33854D01*
X239729Y33311D01*
X239467Y32679D01*
X239378Y32000D01*
X239467Y31321D01*
X239729Y30689D01*
X240146Y30146D01*
X240689Y29729D01*
X241321Y29467D01*
X242000Y29378D01*
X242679Y29467D01*
X243311Y29729D01*
X243854Y30146D01*
X244271Y30689D01*
X244533Y31321D01*
X244622Y32000D01*
X244533Y32679D01*
X244271Y33311D01*
X243854Y33854D01*
X243311Y34271D01*
X242679Y34533D01*
X242000Y34622D01*
D02*
G37*
G36*
X329500Y37010D02*
Y21500D01*
X345010D01*
X344852Y23511D01*
X344264Y25960D01*
X343300Y28286D01*
X341984Y30434D01*
X340349Y32349D01*
X338434Y33984D01*
X336286Y35300D01*
X333960Y36264D01*
X331511Y36852D01*
X329500Y37010D01*
D02*
G37*
G36*
X328500D02*
X326489Y36852D01*
X324040Y36264D01*
X321714Y35300D01*
X319566Y33984D01*
X317651Y32349D01*
X316016Y30434D01*
X314700Y28286D01*
X313736Y25960D01*
X313148Y23511D01*
X312990Y21500D01*
X328500D01*
Y37010D01*
D02*
G37*
G36*
X21500D02*
Y21500D01*
X37010D01*
X36852Y23511D01*
X36264Y25960D01*
X35300Y28286D01*
X33984Y30434D01*
X32349Y32349D01*
X30434Y33984D01*
X28286Y35300D01*
X25960Y36264D01*
X23511Y36852D01*
X21500Y37010D01*
D02*
G37*
G36*
X20500D02*
X18489Y36852D01*
X16040Y36264D01*
X13714Y35300D01*
X11566Y33984D01*
X9651Y32349D01*
X8016Y30434D01*
X6700Y28286D01*
X5736Y25960D01*
X5148Y23511D01*
X4990Y21500D01*
X20500D01*
Y37010D01*
D02*
G37*
G36*
X345010Y20500D02*
X329500D01*
Y4990D01*
X331511Y5148D01*
X333960Y5736D01*
X336286Y6700D01*
X338434Y8016D01*
X340349Y9651D01*
X341984Y11566D01*
X343300Y13714D01*
X344264Y16040D01*
X344852Y18489D01*
X345010Y20500D01*
D02*
G37*
G36*
X328500D02*
X312990D01*
X313148Y18489D01*
X313736Y16040D01*
X314700Y13714D01*
X316016Y11566D01*
X317651Y9651D01*
X319566Y8016D01*
X321714Y6700D01*
X324040Y5736D01*
X326489Y5148D01*
X328500Y4990D01*
Y20500D01*
D02*
G37*
G36*
X37010D02*
X21500D01*
Y4990D01*
X23511Y5148D01*
X25960Y5736D01*
X28286Y6700D01*
X30434Y8016D01*
X32349Y9651D01*
X33984Y11566D01*
X35300Y13714D01*
X36264Y16040D01*
X36852Y18489D01*
X37010Y20500D01*
D02*
G37*
G36*
X20500D02*
X4990D01*
X5148Y18489D01*
X5736Y16040D01*
X6700Y13714D01*
X8016Y11566D01*
X9651Y9651D01*
X11566Y8016D01*
X13714Y6700D01*
X16040Y5736D01*
X18489Y5148D01*
X20500Y4990D01*
Y20500D01*
D02*
G37*
%LPD*%
D61*
X16500Y53000D02*
D03*
Y95000D02*
D03*
X337000Y414913D02*
D03*
D62*
X189500Y495000D02*
D03*
X341500Y483500D02*
D03*
X281000Y851000D02*
D03*
X249000D02*
D03*
X217000D02*
D03*
X185000D02*
D03*
X153000D02*
D03*
X121000D02*
D03*
X89000D02*
D03*
X16500Y359500D02*
D03*
Y379500D02*
D03*
X337000Y449000D02*
D03*
X149000Y40000D02*
D03*
X16500Y83000D02*
D03*
Y125000D02*
D03*
X337000Y427000D02*
D03*
X16500Y337000D02*
D03*
Y317000D02*
D03*
Y294500D02*
D03*
Y274500D02*
D03*
Y252000D02*
D03*
Y232000D02*
D03*
Y210000D02*
D03*
Y190000D02*
D03*
Y167000D02*
D03*
Y147000D02*
D03*
D64*
X174500Y371500D02*
D03*
X21000Y844000D02*
D03*
X329000D02*
D03*
Y21000D02*
D03*
X21000D02*
D03*
D65*
X316150Y572874D02*
D03*
X33850Y545205D02*
D03*
Y629205D02*
D03*
Y713205D02*
D03*
Y797205D02*
D03*
X316150Y736102D02*
D03*
Y654559D02*
D03*
D66*
X320000Y476000D02*
D03*
X277100Y384000D02*
D03*
X278000Y196150D02*
D03*
X261500Y460000D02*
D03*
Y453500D02*
D03*
X219500Y405130D02*
D03*
X261500Y446000D02*
D03*
X279000Y477500D02*
D03*
X259393Y404500D02*
D03*
Y410500D02*
D03*
X261000Y432000D02*
D03*
X77000Y327000D02*
D03*
X122000Y440000D02*
D03*
X118000Y438000D02*
D03*
Y414000D02*
D03*
X126000Y438000D02*
D03*
Y430000D02*
D03*
Y422000D02*
D03*
Y414000D02*
D03*
X118000Y422000D02*
D03*
Y430000D02*
D03*
X230000Y490000D02*
D03*
X236000Y525000D02*
D03*
Y565000D02*
D03*
Y605000D02*
D03*
X230152Y651000D02*
D03*
X120000Y670000D02*
D03*
X114000Y635000D02*
D03*
Y595260D02*
D03*
Y555000D02*
D03*
X29000Y475000D02*
D03*
X35000Y444858D02*
D03*
X37000Y418000D02*
D03*
X55000Y397000D02*
D03*
X70000Y382000D02*
D03*
X101000Y377000D02*
D03*
X79000Y286000D02*
D03*
X65000Y416000D02*
D03*
X292500Y47000D02*
D03*
X114492Y515260D02*
D03*
X152543Y391000D02*
D03*
X316150Y403500D02*
D03*
X259500Y417130D02*
D03*
X284000Y412000D02*
D03*
X253000Y16000D02*
D03*
X253100Y110000D02*
D03*
Y204000D02*
D03*
Y298000D02*
D03*
X277000Y102000D02*
D03*
X277100Y290000D02*
D03*
X280000Y65000D02*
D03*
Y56000D02*
D03*
Y47000D02*
D03*
X265000D02*
D03*
Y56000D02*
D03*
Y65000D02*
D03*
X252500Y56000D02*
D03*
X292500D02*
D03*
Y65000D02*
D03*
X252500Y47000D02*
D03*
Y65000D02*
D03*
X265100Y159000D02*
D03*
Y150000D02*
D03*
Y141000D02*
D03*
X280100D02*
D03*
Y150000D02*
D03*
Y159000D02*
D03*
X292600Y150000D02*
D03*
Y159000D02*
D03*
Y141000D02*
D03*
X252600D02*
D03*
Y150000D02*
D03*
Y159000D02*
D03*
X280100Y253000D02*
D03*
Y244000D02*
D03*
Y235000D02*
D03*
X265100D02*
D03*
Y244000D02*
D03*
Y253000D02*
D03*
X292600Y235000D02*
D03*
Y244000D02*
D03*
Y253000D02*
D03*
X252600Y244000D02*
D03*
Y235000D02*
D03*
Y253000D02*
D03*
X280100Y347000D02*
D03*
X265100D02*
D03*
X280100Y329000D02*
D03*
X265100D02*
D03*
X280100Y338000D02*
D03*
X265100D02*
D03*
X292600D02*
D03*
Y347000D02*
D03*
Y329000D02*
D03*
X252600Y338000D02*
D03*
Y329000D02*
D03*
Y347000D02*
D03*
X144043Y509000D02*
D03*
D67*
X163100Y461200D02*
D03*
X180100Y457900D02*
D03*
X207800Y347500D02*
D03*
X134500Y343024D02*
D03*
X61000Y58000D02*
D03*
X199000Y498000D02*
D03*
X99600Y471200D02*
D03*
X84900Y442900D02*
D03*
X85000Y455000D02*
D03*
X98000Y397000D02*
D03*
X64000Y444929D02*
D03*
X161492Y595260D02*
D03*
Y635382D02*
D03*
X202886Y540457D02*
D03*
Y580457D02*
D03*
Y620457D02*
D03*
X147492Y660260D02*
D03*
Y620260D02*
D03*
Y580260D02*
D03*
Y540260D02*
D03*
X188886Y525528D02*
D03*
Y565457D02*
D03*
Y605457D02*
D03*
Y645457D02*
D03*
X161492Y555260D02*
D03*
M02*
