G04 Layer_Color=8388736*
%FSLAX25Y25*%
%MOIN*%
G70*
G01*
G75*
%ADD39R,0.06800X0.05800*%
%ADD40R,0.04934X0.06312*%
%ADD41R,0.06509X0.05328*%
%ADD42R,0.06312X0.04934*%
%ADD43R,0.26391X0.22453*%
%ADD44R,0.09068X0.04540*%
%ADD45R,0.02375X0.05524*%
%ADD46R,0.05918X0.06902*%
%ADD47O,0.07887X0.01981*%
%ADD48O,0.01981X0.07887*%
%ADD49R,0.02375X0.05131*%
%ADD50C,0.06706*%
%ADD51R,0.06706X0.06706*%
%ADD52C,0.06800*%
%ADD53R,0.06800X0.06800*%
%ADD54R,0.06800X0.06800*%
%ADD55C,0.05800*%
D39*
X656000Y315000D02*
D03*
X665000D02*
D03*
D40*
X656000Y303500D02*
D03*
X663480D02*
D03*
X481240Y314000D02*
D03*
X473760D02*
D03*
X666240Y356500D02*
D03*
X658760D02*
D03*
D41*
X143500Y301543D02*
D03*
Y294457D02*
D03*
X396000Y282543D02*
D03*
Y275457D02*
D03*
X419000Y343000D02*
D03*
Y350087D02*
D03*
X410500Y342957D02*
D03*
Y350043D02*
D03*
X665500Y366457D02*
D03*
Y373543D02*
D03*
X666000Y340957D02*
D03*
Y348043D02*
D03*
D42*
X454000Y374760D02*
D03*
Y382240D02*
D03*
X665500Y386260D02*
D03*
Y393740D02*
D03*
X643000Y331260D02*
D03*
Y338740D02*
D03*
X656000Y348240D02*
D03*
Y340760D02*
D03*
X148500Y443480D02*
D03*
Y436000D02*
D03*
X158500Y443480D02*
D03*
Y436000D02*
D03*
X196500Y443480D02*
D03*
Y436000D02*
D03*
X206500Y443480D02*
D03*
Y436000D02*
D03*
X265760Y443480D02*
D03*
Y436000D02*
D03*
X275760Y443480D02*
D03*
Y436000D02*
D03*
X333500Y443480D02*
D03*
Y436000D02*
D03*
X343500Y443480D02*
D03*
Y436000D02*
D03*
X399760Y443480D02*
D03*
Y436000D02*
D03*
X409760Y443480D02*
D03*
Y436000D02*
D03*
X464000Y443480D02*
D03*
Y436000D02*
D03*
X474000Y443480D02*
D03*
Y436000D02*
D03*
X528500Y443480D02*
D03*
Y436000D02*
D03*
X538500Y443480D02*
D03*
Y436000D02*
D03*
X584000Y443980D02*
D03*
Y436500D02*
D03*
X594000Y443980D02*
D03*
Y436500D02*
D03*
X643000Y443980D02*
D03*
Y436500D02*
D03*
X633000Y443980D02*
D03*
Y436500D02*
D03*
X156000Y350260D02*
D03*
Y357740D02*
D03*
D43*
X620697Y357524D02*
D03*
D44*
X645500Y366500D02*
D03*
Y348547D02*
D03*
D45*
X448724Y348500D02*
D03*
X444000D02*
D03*
X439276D02*
D03*
D46*
X484358Y374248D02*
D03*
Y342752D02*
D03*
X466642D02*
D03*
Y374248D02*
D03*
D47*
X465724Y325665D02*
D03*
Y323697D02*
D03*
Y321728D02*
D03*
Y319760D02*
D03*
Y317791D02*
D03*
Y315823D02*
D03*
Y313854D02*
D03*
Y311886D02*
D03*
Y309917D02*
D03*
Y307949D02*
D03*
Y305980D02*
D03*
Y304012D02*
D03*
Y302043D02*
D03*
Y300075D02*
D03*
Y298106D02*
D03*
Y296138D02*
D03*
Y294169D02*
D03*
Y292201D02*
D03*
Y290232D02*
D03*
Y288264D02*
D03*
Y286295D02*
D03*
Y284327D02*
D03*
Y282358D02*
D03*
Y280390D02*
D03*
Y278421D02*
D03*
X406276D02*
D03*
Y280390D02*
D03*
Y282358D02*
D03*
Y284327D02*
D03*
Y286295D02*
D03*
Y288264D02*
D03*
Y290232D02*
D03*
Y292201D02*
D03*
Y294169D02*
D03*
Y296138D02*
D03*
Y298106D02*
D03*
Y300075D02*
D03*
Y302043D02*
D03*
Y304012D02*
D03*
Y305980D02*
D03*
Y307949D02*
D03*
Y309917D02*
D03*
Y311886D02*
D03*
Y313854D02*
D03*
Y315823D02*
D03*
Y317791D02*
D03*
Y319760D02*
D03*
Y321728D02*
D03*
Y323697D02*
D03*
Y325665D02*
D03*
D48*
X459622Y272319D02*
D03*
X457654D02*
D03*
X455685D02*
D03*
X453717D02*
D03*
X451748D02*
D03*
X449780D02*
D03*
X447811D02*
D03*
X445843D02*
D03*
X443874D02*
D03*
X441905D02*
D03*
X439937D02*
D03*
X437968D02*
D03*
X436000D02*
D03*
X434031D02*
D03*
X432063D02*
D03*
X430094D02*
D03*
X428126D02*
D03*
X426158D02*
D03*
X424189D02*
D03*
X422221D02*
D03*
X420252D02*
D03*
X418284D02*
D03*
X416315D02*
D03*
X414347D02*
D03*
X412378D02*
D03*
Y331768D02*
D03*
X414347D02*
D03*
X416315D02*
D03*
X418284D02*
D03*
X420252D02*
D03*
X422221D02*
D03*
X424189D02*
D03*
X426158D02*
D03*
X428126D02*
D03*
X430094D02*
D03*
X432063D02*
D03*
X434031D02*
D03*
X436000D02*
D03*
X437968D02*
D03*
X439937D02*
D03*
X441905D02*
D03*
X443874D02*
D03*
X445843D02*
D03*
X447811D02*
D03*
X449780D02*
D03*
X451748D02*
D03*
X453717D02*
D03*
X455685D02*
D03*
X457654D02*
D03*
X459622D02*
D03*
D49*
X162839Y323236D02*
D03*
X160280D02*
D03*
X157720D02*
D03*
X155161D02*
D03*
X162839Y313000D02*
D03*
X160280D02*
D03*
X157720D02*
D03*
X155161D02*
D03*
D50*
X479000Y258500D02*
D03*
Y268500D02*
D03*
Y278500D02*
D03*
D51*
Y288500D02*
D03*
D52*
X681768Y376500D02*
D03*
Y354500D02*
D03*
X643000Y462240D02*
D03*
X633000D02*
D03*
X623000D02*
D03*
X594000D02*
D03*
X584000D02*
D03*
X574000D02*
D03*
X538500Y461740D02*
D03*
X528500D02*
D03*
X518500D02*
D03*
X474000D02*
D03*
X464000D02*
D03*
X454000D02*
D03*
X409760D02*
D03*
X399760D02*
D03*
X389760D02*
D03*
X343500D02*
D03*
X333500D02*
D03*
X323500D02*
D03*
X275760D02*
D03*
X265760D02*
D03*
X255760D02*
D03*
X206500D02*
D03*
X196500D02*
D03*
X186500D02*
D03*
X158500Y461740D02*
D03*
X148500D02*
D03*
X138500D02*
D03*
Y333000D02*
D03*
Y323000D02*
D03*
Y313000D02*
D03*
Y378000D02*
D03*
Y368000D02*
D03*
Y358000D02*
D03*
X120000Y480000D02*
D03*
Y260000D02*
D03*
X680000D02*
D03*
Y480000D02*
D03*
D53*
X681768Y366500D02*
D03*
Y344500D02*
D03*
X138500Y343000D02*
D03*
Y388000D02*
D03*
D54*
X653000Y462240D02*
D03*
X604000D02*
D03*
X548500Y461740D02*
D03*
X484000D02*
D03*
X419760D02*
D03*
X353500D02*
D03*
X285760D02*
D03*
X216500D02*
D03*
X168500Y461740D02*
D03*
D55*
X460252Y342752D02*
D03*
X479000Y297500D02*
D03*
X452500Y342000D02*
D03*
X460500Y264000D02*
D03*
X370500Y357000D02*
D03*
X420500Y373000D02*
D03*
X415500Y377000D02*
D03*
X410500Y381500D02*
D03*
X391887Y345204D02*
D03*
X386500Y349500D02*
D03*
X381500Y353000D02*
D03*
X500000Y325500D02*
D03*
X441000Y342000D02*
D03*
X404043Y342957D02*
D03*
X651500Y386000D02*
D03*
X639000D02*
D03*
X461000Y389000D02*
D03*
X415500Y356000D02*
D03*
X405500Y386000D02*
D03*
X376500Y357000D02*
D03*
X266000Y319000D02*
D03*
X281000Y319500D02*
D03*
X378000D02*
D03*
X399000D02*
D03*
X481303Y323697D02*
D03*
X498500Y359000D02*
D03*
X665500Y379500D02*
D03*
Y401000D02*
D03*
X158500Y306500D02*
D03*
X152500Y306000D02*
D03*
X143500Y285000D02*
D03*
X446000Y280500D02*
D03*
X455500Y281000D02*
D03*
X399000Y326000D02*
D03*
X387043Y275457D02*
D03*
X413000Y281000D02*
D03*
X414772Y321728D02*
D03*
X424043Y325000D02*
D03*
X439000Y324500D02*
D03*
X455685Y324315D02*
D03*
X449780Y324307D02*
D03*
X434000Y354000D02*
D03*
X379000Y384500D02*
D03*
X441000Y257500D02*
D03*
X648000Y303500D02*
D03*
M02*
