G04*
G04 #@! TF.GenerationSoftware,Altium Limited,Altium Designer,19.0.14 (431)*
G04*
G04 Layer_Color=32896*
%FSLAX25Y25*%
%MOIN*%
G70*
G01*
G75*
%ADD10C,0.01000*%
%ADD16C,0.00787*%
D10*
X35001Y443998D02*
X36001Y444998D01*
X38000D01*
X39000Y443998D01*
Y440000D01*
X38000Y439000D01*
X36001D01*
X35001Y440000D01*
X33002Y443998D02*
X32002Y444998D01*
X30003D01*
X29003Y443998D01*
Y442999D01*
X30003Y441999D01*
X31003D01*
X30003D01*
X29003Y440999D01*
Y440000D01*
X30003Y439000D01*
X32002D01*
X33002Y440000D01*
X27004Y443998D02*
X26004Y444998D01*
X24005D01*
X23005Y443998D01*
Y442999D01*
X24005Y441999D01*
X25005D01*
X24005D01*
X23005Y440999D01*
Y440000D01*
X24005Y439000D01*
X26004D01*
X27004Y440000D01*
X24001Y454998D02*
X25001Y455998D01*
X27000D01*
X28000Y454998D01*
Y451000D01*
X27000Y450000D01*
X25001D01*
X24001Y451000D01*
X22002Y454998D02*
X21002Y455998D01*
X19003D01*
X18003Y454998D01*
Y453999D01*
X19003Y452999D01*
X20003D01*
X19003D01*
X18003Y451999D01*
Y451000D01*
X19003Y450000D01*
X21002D01*
X22002Y451000D01*
X12005Y450000D02*
X16004D01*
X12005Y453999D01*
Y454998D01*
X13005Y455998D01*
X15004D01*
X16004Y454998D01*
X24001Y462998D02*
X25001Y463998D01*
X27000D01*
X28000Y462998D01*
Y459000D01*
X27000Y458000D01*
X25001D01*
X24001Y459000D01*
X22002Y462998D02*
X21002Y463998D01*
X19003D01*
X18003Y462998D01*
Y461999D01*
X19003Y460999D01*
X20003D01*
X19003D01*
X18003Y459999D01*
Y459000D01*
X19003Y458000D01*
X21002D01*
X22002Y459000D01*
X16004Y458000D02*
X14005D01*
X15004D01*
Y463998D01*
X16004Y462998D01*
X20001Y470998D02*
X21001Y471998D01*
X23000D01*
X24000Y470998D01*
Y467000D01*
X23000Y466000D01*
X21001D01*
X20001Y467000D01*
X18002Y470998D02*
X17002Y471998D01*
X15003D01*
X14003Y470998D01*
Y469999D01*
X15003Y468999D01*
X16003D01*
X15003D01*
X14003Y467999D01*
Y467000D01*
X15003Y466000D01*
X17002D01*
X18002Y467000D01*
X12004Y470998D02*
X11004Y471998D01*
X9005D01*
X8005Y470998D01*
Y467000D01*
X9005Y466000D01*
X11004D01*
X12004Y467000D01*
Y470998D01*
X56001Y481998D02*
X57001Y482998D01*
X59000D01*
X60000Y481998D01*
Y478000D01*
X59000Y477000D01*
X57001D01*
X56001Y478000D01*
X50003Y477000D02*
X54002D01*
X50003Y480999D01*
Y481998D01*
X51003Y482998D01*
X53002D01*
X54002Y481998D01*
X48004Y478000D02*
X47004Y477000D01*
X45005D01*
X44005Y478000D01*
Y481998D01*
X45005Y482998D01*
X47004D01*
X48004Y481998D01*
Y480999D01*
X47004Y479999D01*
X44005D01*
X69001Y431621D02*
X70001Y432620D01*
X72000D01*
X73000Y431621D01*
Y427622D01*
X72000Y426622D01*
X70001D01*
X69001Y427622D01*
X63003Y426622D02*
X67002D01*
X63003Y430621D01*
Y431621D01*
X64003Y432620D01*
X66002D01*
X67002Y431621D01*
X61004D02*
X60004Y432620D01*
X58005D01*
X57005Y431621D01*
Y430621D01*
X58005Y429621D01*
X57005Y428621D01*
Y427622D01*
X58005Y426622D01*
X60004D01*
X61004Y427622D01*
Y428621D01*
X60004Y429621D01*
X61004Y430621D01*
Y431621D01*
X60004Y429621D02*
X58005D01*
X83411Y449998D02*
X84411Y450998D01*
X86410D01*
X87410Y449998D01*
Y446000D01*
X86410Y445000D01*
X84411D01*
X83411Y446000D01*
X77413Y445000D02*
X81411D01*
X77413Y448999D01*
Y449998D01*
X78412Y450998D01*
X80412D01*
X81411Y449998D01*
X75413Y450998D02*
X71415D01*
Y449998D01*
X75413Y446000D01*
Y445000D01*
X97001Y439998D02*
X98001Y440998D01*
X100000D01*
X101000Y439998D01*
Y436000D01*
X100000Y435000D01*
X98001D01*
X97001Y436000D01*
X95002Y435000D02*
X93003D01*
X94002D01*
Y440998D01*
X95002Y439998D01*
X90004D02*
X89004Y440998D01*
X87005D01*
X86005Y439998D01*
Y438999D01*
X87005Y437999D01*
X86005Y436999D01*
Y436000D01*
X87005Y435000D01*
X89004D01*
X90004Y436000D01*
Y436999D01*
X89004Y437999D01*
X90004Y438999D01*
Y439998D01*
X89004Y437999D02*
X87005D01*
X97001Y431998D02*
X98001Y432998D01*
X100000D01*
X101000Y431998D01*
Y428000D01*
X100000Y427000D01*
X98001D01*
X97001Y428000D01*
X95002Y427000D02*
X93003D01*
X94002D01*
Y432998D01*
X95002Y431998D01*
X90004Y432998D02*
X86005D01*
Y431998D01*
X90004Y428000D01*
Y427000D01*
X97001Y423998D02*
X98001Y424998D01*
X100000D01*
X101000Y423998D01*
Y420000D01*
X100000Y419000D01*
X98001D01*
X97001Y420000D01*
X95002Y419000D02*
X93003D01*
X94002D01*
Y424998D01*
X95002Y423998D01*
X86005Y424998D02*
X88004Y423998D01*
X90004Y421999D01*
Y420000D01*
X89004Y419000D01*
X87005D01*
X86005Y420000D01*
Y420999D01*
X87005Y421999D01*
X90004D01*
X97001Y415998D02*
X98001Y416998D01*
X100000D01*
X101000Y415998D01*
Y412000D01*
X100000Y411000D01*
X98001D01*
X97001Y412000D01*
X95002Y411000D02*
X93003D01*
X94002D01*
Y416998D01*
X95002Y415998D01*
X86005Y416998D02*
X90004D01*
Y413999D01*
X88004Y414999D01*
X87005D01*
X86005Y413999D01*
Y412000D01*
X87005Y411000D01*
X89004D01*
X90004Y412000D01*
X154001Y415998D02*
X155001Y416998D01*
X157000D01*
X158000Y415998D01*
Y412000D01*
X157000Y411000D01*
X155001D01*
X154001Y412000D01*
X152002Y411000D02*
X150003D01*
X151002D01*
Y416998D01*
X152002Y415998D01*
X144004Y411000D02*
Y416998D01*
X147004Y413999D01*
X143005D01*
X154001Y423998D02*
X155001Y424998D01*
X157000D01*
X158000Y423998D01*
Y420000D01*
X157000Y419000D01*
X155001D01*
X154001Y420000D01*
X152002Y419000D02*
X150003D01*
X151002D01*
Y424998D01*
X152002Y423998D01*
X147004D02*
X146004Y424998D01*
X144004D01*
X143005Y423998D01*
Y422999D01*
X144004Y421999D01*
X145004D01*
X144004D01*
X143005Y420999D01*
Y420000D01*
X144004Y419000D01*
X146004D01*
X147004Y420000D01*
X154001Y431998D02*
X155001Y432998D01*
X157000D01*
X158000Y431998D01*
Y428000D01*
X157000Y427000D01*
X155001D01*
X154001Y428000D01*
X152002Y427000D02*
X150003D01*
X151002D01*
Y432998D01*
X152002Y431998D01*
X143005Y427000D02*
X147004D01*
X143005Y430999D01*
Y431998D01*
X144004Y432998D01*
X146004D01*
X147004Y431998D01*
X154001Y439998D02*
X155001Y440998D01*
X157000D01*
X158000Y439998D01*
Y436000D01*
X157000Y435000D01*
X155001D01*
X154001Y436000D01*
X152002Y435000D02*
X150003D01*
X151002D01*
Y440998D01*
X152002Y439998D01*
X147004Y435000D02*
X145004D01*
X146004D01*
Y440998D01*
X147004Y439998D01*
X107998Y460999D02*
X108998Y459999D01*
Y458000D01*
X107998Y457000D01*
X104000D01*
X103000Y458000D01*
Y459999D01*
X104000Y460999D01*
X103000Y462998D02*
Y464997D01*
Y463998D01*
X108998D01*
X107998Y462998D01*
Y467996D02*
X108998Y468996D01*
Y470996D01*
X107998Y471995D01*
X104000D01*
X103000Y470996D01*
Y468996D01*
X104000Y467996D01*
X107998D01*
X115998Y460999D02*
X116998Y459999D01*
Y458000D01*
X115998Y457000D01*
X112000D01*
X111000Y458000D01*
Y459999D01*
X112000Y460999D01*
Y462998D02*
X111000Y463998D01*
Y465997D01*
X112000Y466997D01*
X115998D01*
X116998Y465997D01*
Y463998D01*
X115998Y462998D01*
X114999D01*
X113999Y463998D01*
Y466997D01*
X123998Y460999D02*
X124998Y459999D01*
Y458000D01*
X123998Y457000D01*
X120000D01*
X119000Y458000D01*
Y459999D01*
X120000Y460999D01*
X123998Y462998D02*
X124998Y463998D01*
Y465997D01*
X123998Y466997D01*
X122999D01*
X121999Y465997D01*
X120999Y466997D01*
X120000D01*
X119000Y465997D01*
Y463998D01*
X120000Y462998D01*
X120999D01*
X121999Y463998D01*
X122999Y462998D01*
X123998D01*
X121999Y463998D02*
Y465997D01*
X131998Y460999D02*
X132998Y459999D01*
Y458000D01*
X131998Y457000D01*
X128000D01*
X127000Y458000D01*
Y459999D01*
X128000Y460999D01*
X132998Y462998D02*
Y466997D01*
X131998D01*
X128000Y462998D01*
X127000D01*
X139998Y460999D02*
X140998Y459999D01*
Y458000D01*
X139998Y457000D01*
X136000D01*
X135000Y458000D01*
Y459999D01*
X136000Y460999D01*
X140998Y466997D02*
X139998Y464997D01*
X137999Y462998D01*
X136000D01*
X135000Y463998D01*
Y465997D01*
X136000Y466997D01*
X136999D01*
X137999Y465997D01*
Y462998D01*
D16*
X45803Y474461D02*
X46197D01*
X45803Y469539D02*
X46197D01*
X31803Y471461D02*
X32197D01*
X31803Y466539D02*
X32197D01*
X35803Y463461D02*
X36197D01*
X35803Y458539D02*
X36197D01*
X35803Y455461D02*
X36197D01*
X35803Y450539D02*
X36197D01*
X41539Y441803D02*
Y442197D01*
X46461Y441803D02*
Y442197D01*
X95870Y450803D02*
Y451197D01*
X90949Y450803D02*
Y451197D01*
X76539Y431803D02*
Y432197D01*
X81461Y431803D02*
Y432197D01*
X108803Y435539D02*
X109197D01*
X108803Y440461D02*
X109197D01*
X108803Y427539D02*
X109197D01*
X108803Y432461D02*
X109197D01*
X108803Y419539D02*
X109197D01*
X108803Y424461D02*
X109197D01*
X108803Y411539D02*
X109197D01*
X108803Y416461D02*
X109197D01*
X134803Y416461D02*
X135197D01*
X134803Y411539D02*
X135197D01*
X134803Y424461D02*
X135197D01*
X134803Y419539D02*
X135197D01*
X134803Y432461D02*
X135197D01*
X134803Y427539D02*
X135197D01*
X135539Y448803D02*
Y449197D01*
X140461Y448803D02*
Y449197D01*
X127539Y448803D02*
Y449197D01*
X132461Y448803D02*
Y449197D01*
X119539Y448803D02*
Y449197D01*
X124461Y448803D02*
Y449197D01*
X111539Y448803D02*
Y449197D01*
X116461Y448803D02*
Y449197D01*
X103539Y448803D02*
Y449197D01*
X108461Y448803D02*
Y449197D01*
X134803Y440461D02*
X135197D01*
X134803Y435539D02*
X135197D01*
M02*
