M48
;Layer_Color=9474304
;FILE_FORMAT=2:5
INCH,TZ
;TYPE=PLATED
T1F00S00C0.01500
T2F00S00C0.02000
T3F00S00C0.04000
T4F00S00C0.06968
T5F00S00C0.18750
%
T01
X61000Y58000
X93000Y116031
Y131000
X108003Y365000
X141000Y365500
Y356500
X134500Y343024
X207800Y347500
X219750Y387250
X215500Y425000
X213886Y513457
X192500Y513693
X186000Y505457
X183000Y508457
X199000Y498000
X180100Y457900
X163100Y461200
X156000Y481217
X152500Y478500
X139000Y458000
X144000Y453000
X105000Y457795
X100000Y452000
Y438000
X99000Y428000
X100000Y422000
Y414000
X98000Y397000
X99000Y393000
X102000Y391000
X105000Y388000
X117000
X119949Y385000
X114000Y391000
X123000Y399000
X113000Y370000
X86000Y425000
X84900Y442900
X85000Y455000
X99600Y471200
X57000Y472000
X64000Y444929
X137000Y507000
X193000Y434000
X197500Y430500
X186000Y402000
X210500Y386500
X45000Y454000
X47000Y457000
X49000Y460000
X51000Y463000
X53000Y466000
X55000Y469000
X136492Y527260
X157000Y527024
X167000Y536000
X164563Y539000
X147492Y540260
X161492Y555260
X157500Y567024
X167563Y572780
X164563Y575779
X147492Y580260
X136492Y567260
Y607260
X157500Y607024
X161492Y595260
X164520Y615779
X167563Y612780
X147492Y620260
X161492Y635382
X157500Y647146
X164520Y655780
X167563Y652779
X147492Y660260
X136492Y647260
X188886Y645457
X192500Y633693
X186000Y626016
X183000Y628766
X202886Y620457
X188886Y605457
X192500Y593693
X186000Y585457
X183000Y588457
X202886Y580457
X188886Y565457
X192500Y553693
X186000Y545457
X183000Y548457
X202886Y540457
X188886Y525528
X213886Y553457
Y593457
Y633457
T02
X253000Y16000
X242000Y32000
X252500Y47000
Y56000
X265000
Y47000
X280000
Y56000
X292500
Y47000
X277500Y37000
X280000Y65000
X292500
X265000
X252500
X253100Y110000
X253000Y116000
X252600Y141000
Y150000
Y159000
X265100
Y150000
Y141000
X280100
Y150000
Y159000
X292600
Y150000
Y141000
X277000Y102000
X277100Y96000
X277600Y189850
X278000Y196150
X253100Y204000
X253000Y210000
X69000Y71740
X79000Y286000
X77000Y327000
X252600Y329000
Y338000
Y347000
X265100
Y338000
Y329000
X280100
Y338000
Y347000
X292600
Y338000
Y329000
X277100Y290000
X277000Y284000
X280100Y253000
Y244000
Y235000
X292600
Y244000
Y253000
X265100
Y244000
Y235000
X252600
Y244000
Y253000
X253100Y298000
X253000Y304000
X277000Y378000
X277100Y384000
X284000Y412000
X298000Y419000
Y427000
Y435000
X308000
X308373Y427189
X308457Y419000
X319000
Y427000
Y435000
X318000Y451000
Y459000
Y467000
X308457
Y459000
X308500Y451000
X298871
Y459000
X299000Y467000
X320000Y476000
X279000Y477500
X261500Y460000
Y453500
Y446000
X261000Y432000
X259500Y417130
X259393Y410500
Y404500
X219500Y405130
X213886Y471300
X230000Y490000
X316150Y403500
X152543Y391000
X145000Y414000
X126000
X118000Y414000
Y422000
Y430000
Y438000
X122000Y440000
X126000Y438000
Y430000
Y422000
X80000Y407776
X65000Y416000
X70000Y382000
X101000Y377000
X114492Y515260
X131000Y515531
X141121Y521452
X144043Y509000
X29000Y475000
X35000Y444858
X37000Y418000
X55000Y397000
X114000Y555000
X136492Y555260
X141492Y555260
Y595260
X136492Y595260
X114000
Y635000
X136492Y635260
X141492
X120000Y670000
X208886Y645457
Y605457
Y565457
Y525457
X213886Y525457
X236000Y525000
Y565000
X213886Y565457
Y605457
X236000Y605000
X230152Y651000
X213886Y645457
X112500Y767500
T03
X16500Y53000
X149000Y40000
X159000
X169000
X179000
X189000
X199000
X336000Y47500
Y57500
Y69000
Y79000
X336100Y134000
Y144000
Y156000
Y166000
X16500Y167000
Y157000
Y147000
Y137000
Y125000
Y115000
Y105000
Y95000
Y83000
Y73000
Y63000
Y180000
Y190000
Y200000
Y210000
Y222000
Y232000
Y242000
Y252000
Y264500
Y274500
Y284500
Y294500
Y307000
Y317000
Y327000
Y337000
Y349500
Y359500
X336100Y354000
Y344000
Y332000
Y322000
Y261000
Y251000
Y239000
Y229000
X337000Y404913
Y414913
Y427000
Y437000
Y449000
Y459000
X341500Y473500
Y483500
Y493500
Y503500
X189500Y495000
Y485000
Y475000
X16500Y379500
Y369500
X69000Y851000
X79000
X89000
X101000
X111000
X121000
X133000
X143000
X153000
X165000
X175000
X185000
X197000
X207000
X217000
X229000
X239000
X249000
X261000
X271000
X281000
T04
X263000Y515000
X316150Y510669
X87000Y487331
X33850Y483000
Y545205
Y567000
Y629205
Y651000
X87000Y655331
Y624874
Y571331
Y540874
X263000Y568543
Y596685
Y650228
Y678228
X316150Y673898
Y654559
Y592354
Y572874
Y736102
Y755669
X263000Y760000
Y731772
Y813543
X316150Y817874
X87000Y792874
Y739331
Y708874
X33850Y713205
Y735000
Y797205
T05
X21000Y21000
X329000
X174500Y371500
X21000Y844000
X329000
M30
