G04*
G04 #@! TF.GenerationSoftware,Altium Limited,Altium Designer,19.0.14 (431)*
G04*
G04 Layer_Color=8388736*
%FSLAX25Y25*%
%MOIN*%
G70*
G01*
G75*
%ADD20R,0.06312X0.02178*%
%ADD21R,0.04737X0.04343*%
%ADD22R,0.05328X0.06509*%
%ADD23R,0.06312X0.04934*%
%ADD24R,0.06902X0.05918*%
%ADD25R,0.26391X0.22453*%
%ADD26R,0.09068X0.04540*%
%ADD27R,0.05131X0.02375*%
%ADD28R,0.05524X0.02375*%
%ADD29R,0.10642X0.08674*%
%ADD30R,0.63000X0.24400*%
%ADD31R,0.02500X0.08300*%
%ADD32R,0.06800X0.05800*%
%ADD33R,0.06509X0.05328*%
%ADD34O,0.01981X0.07887*%
%ADD35O,0.07887X0.01981*%
%ADD36R,0.04934X0.06312*%
%ADD37C,0.06800*%
%ADD38R,0.06800X0.06800*%
%ADD39R,0.06800X0.06800*%
%ADD40C,0.30800*%
%ADD41C,0.10642*%
%ADD42C,0.04000*%
%ADD43C,0.03300*%
D20*
X151909Y537260D02*
D03*
Y534701D02*
D03*
Y532142D02*
D03*
Y529583D02*
D03*
Y527024D02*
D03*
Y524465D02*
D03*
Y521906D02*
D03*
X128681Y521906D02*
D03*
Y524465D02*
D03*
Y527024D02*
D03*
Y529583D02*
D03*
Y532142D02*
D03*
Y534701D02*
D03*
Y537260D02*
D03*
Y577260D02*
D03*
Y574701D02*
D03*
Y572142D02*
D03*
Y569583D02*
D03*
Y567024D02*
D03*
Y564465D02*
D03*
Y561905D02*
D03*
X151909Y561905D02*
D03*
Y564465D02*
D03*
Y567024D02*
D03*
Y569583D02*
D03*
Y572142D02*
D03*
Y574701D02*
D03*
Y577260D02*
D03*
Y617260D02*
D03*
Y614701D02*
D03*
Y612142D02*
D03*
Y609583D02*
D03*
Y607024D02*
D03*
Y604465D02*
D03*
Y601905D02*
D03*
X128681Y601905D02*
D03*
Y604465D02*
D03*
Y607024D02*
D03*
Y609583D02*
D03*
Y612142D02*
D03*
Y614701D02*
D03*
Y617260D02*
D03*
Y657382D02*
D03*
Y654823D02*
D03*
Y652264D02*
D03*
Y649705D02*
D03*
Y647146D02*
D03*
Y644587D02*
D03*
Y642028D02*
D03*
X151909Y642028D02*
D03*
Y644587D02*
D03*
Y647146D02*
D03*
Y649705D02*
D03*
Y652264D02*
D03*
Y654823D02*
D03*
Y657382D02*
D03*
X198468Y623457D02*
D03*
Y626016D02*
D03*
Y628575D02*
D03*
Y631134D02*
D03*
Y633693D02*
D03*
Y636252D02*
D03*
Y638811D02*
D03*
X221697Y638811D02*
D03*
Y636252D02*
D03*
Y633693D02*
D03*
Y631134D02*
D03*
Y628575D02*
D03*
Y626016D02*
D03*
Y623457D02*
D03*
Y583457D02*
D03*
Y586016D02*
D03*
Y588575D02*
D03*
Y591134D02*
D03*
Y593693D02*
D03*
Y596252D02*
D03*
Y598811D02*
D03*
X198468Y598811D02*
D03*
Y596252D02*
D03*
Y593693D02*
D03*
Y591134D02*
D03*
Y588575D02*
D03*
Y586016D02*
D03*
Y583457D02*
D03*
Y543457D02*
D03*
Y546016D02*
D03*
Y548575D02*
D03*
Y551134D02*
D03*
Y553693D02*
D03*
Y556252D02*
D03*
Y558811D02*
D03*
X221697Y558811D02*
D03*
Y556252D02*
D03*
Y553693D02*
D03*
Y551134D02*
D03*
Y548575D02*
D03*
Y546016D02*
D03*
Y543457D02*
D03*
Y503457D02*
D03*
Y506016D02*
D03*
Y508575D02*
D03*
Y511134D02*
D03*
Y513693D02*
D03*
Y516252D02*
D03*
Y518811D02*
D03*
X198468Y518811D02*
D03*
Y516252D02*
D03*
Y513693D02*
D03*
Y511134D02*
D03*
Y508575D02*
D03*
Y506016D02*
D03*
Y503457D02*
D03*
D21*
X257500Y22150D02*
D03*
Y15850D02*
D03*
X272600Y377850D02*
D03*
Y384150D02*
D03*
X257600Y297850D02*
D03*
Y304150D02*
D03*
X272600Y290150D02*
D03*
Y283850D02*
D03*
X257600Y203850D02*
D03*
Y210150D02*
D03*
X272600Y196150D02*
D03*
Y189850D02*
D03*
X257600Y109850D02*
D03*
Y116150D02*
D03*
X272500Y102150D02*
D03*
Y95850D02*
D03*
D22*
X162457Y461000D02*
D03*
X169543D02*
D03*
X49543Y418000D02*
D03*
X42457D02*
D03*
X230429Y565457D02*
D03*
X223342D02*
D03*
X230429Y525457D02*
D03*
X223342D02*
D03*
X195343Y565457D02*
D03*
X202429D02*
D03*
X230429Y605457D02*
D03*
X223342D02*
D03*
X195343Y605457D02*
D03*
X202429D02*
D03*
X155035Y595260D02*
D03*
X147949D02*
D03*
X119949Y595260D02*
D03*
X127035D02*
D03*
X155035Y555260D02*
D03*
X147949D02*
D03*
X119949Y555260D02*
D03*
X127035D02*
D03*
X195343Y525528D02*
D03*
X202429D02*
D03*
X155035Y635382D02*
D03*
X147949D02*
D03*
X230429Y645457D02*
D03*
X223342D02*
D03*
X195343Y645457D02*
D03*
X202429D02*
D03*
X119949Y635382D02*
D03*
X127035D02*
D03*
X147043Y515000D02*
D03*
X139957D02*
D03*
X119949Y515260D02*
D03*
X127035D02*
D03*
X152543Y396000D02*
D03*
X145457D02*
D03*
X266457Y448024D02*
D03*
X273543D02*
D03*
X262457Y411957D02*
D03*
X269543D02*
D03*
X315543Y475000D02*
D03*
X308457D02*
D03*
D23*
X5000Y427260D02*
D03*
Y434740D02*
D03*
X303000Y403260D02*
D03*
Y410740D02*
D03*
X274000Y460260D02*
D03*
Y467740D02*
D03*
X266000Y467740D02*
D03*
Y460260D02*
D03*
X274000Y432260D02*
D03*
Y439740D02*
D03*
X266000Y439740D02*
D03*
Y432260D02*
D03*
X30000Y58260D02*
D03*
Y65740D02*
D03*
X53000Y445000D02*
D03*
Y452480D02*
D03*
D24*
X44248Y427142D02*
D03*
X12752D02*
D03*
X44248Y444858D02*
D03*
X12752D02*
D03*
D25*
X308071Y429000D02*
D03*
Y457000D02*
D03*
D26*
X283268Y420024D02*
D03*
Y437976D02*
D03*
Y448024D02*
D03*
Y465976D02*
D03*
D27*
X39882Y65839D02*
D03*
Y63279D02*
D03*
Y60720D02*
D03*
Y58161D02*
D03*
X50118Y65839D02*
D03*
Y63279D02*
D03*
Y60720D02*
D03*
Y58161D02*
D03*
D28*
X66602Y430626D02*
D03*
Y435350D02*
D03*
Y440075D02*
D03*
D29*
X315000Y37024D02*
D03*
Y51000D02*
D03*
X315124Y357000D02*
D03*
Y343024D02*
D03*
Y333000D02*
D03*
Y319024D02*
D03*
X315100Y263976D02*
D03*
Y250000D02*
D03*
Y226024D02*
D03*
Y240000D02*
D03*
Y168976D02*
D03*
Y155000D02*
D03*
Y145000D02*
D03*
Y131024D02*
D03*
X315024Y74976D02*
D03*
Y61000D02*
D03*
D30*
X275000Y56000D02*
D03*
X275100Y338000D02*
D03*
Y244000D02*
D03*
Y150000D02*
D03*
D31*
X297500Y29400D02*
D03*
X292500D02*
D03*
X287500D02*
D03*
X282500D02*
D03*
X277500D02*
D03*
X272500D02*
D03*
X267500D02*
D03*
X262500D02*
D03*
X257500D02*
D03*
X252500D02*
D03*
Y82600D02*
D03*
X257500D02*
D03*
X262500D02*
D03*
X267500D02*
D03*
X272500D02*
D03*
X277500D02*
D03*
X282500D02*
D03*
X287500D02*
D03*
X292500D02*
D03*
X297500D02*
D03*
X297600Y364600D02*
D03*
X292600D02*
D03*
X287600D02*
D03*
X282600D02*
D03*
X277600D02*
D03*
X272600D02*
D03*
X267600D02*
D03*
X262600D02*
D03*
X257600D02*
D03*
X252600D02*
D03*
Y311400D02*
D03*
X257600D02*
D03*
X262600D02*
D03*
X267600D02*
D03*
X272600D02*
D03*
X277600D02*
D03*
X282600D02*
D03*
X287600D02*
D03*
X292600D02*
D03*
X297600D02*
D03*
Y270600D02*
D03*
X292600D02*
D03*
X287600D02*
D03*
X282600D02*
D03*
X277600D02*
D03*
X272600D02*
D03*
X267600D02*
D03*
X262600D02*
D03*
X257600D02*
D03*
X252600D02*
D03*
Y217400D02*
D03*
X257600D02*
D03*
X262600D02*
D03*
X267600D02*
D03*
X272600D02*
D03*
X277600D02*
D03*
X282600D02*
D03*
X287600D02*
D03*
X292600D02*
D03*
X297600D02*
D03*
Y176600D02*
D03*
X292600D02*
D03*
X287600D02*
D03*
X282600D02*
D03*
X277600D02*
D03*
X272600D02*
D03*
X267600D02*
D03*
X262600D02*
D03*
X257600D02*
D03*
X252600D02*
D03*
Y123400D02*
D03*
X257600D02*
D03*
X262600D02*
D03*
X267600D02*
D03*
X272600D02*
D03*
X277600D02*
D03*
X282600D02*
D03*
X287600D02*
D03*
X292600D02*
D03*
X297600D02*
D03*
D32*
X284000Y407000D02*
D03*
X293000D02*
D03*
D33*
X80000Y382457D02*
D03*
Y389543D02*
D03*
X60000Y408543D02*
D03*
Y401457D02*
D03*
X82000Y320457D02*
D03*
Y327543D02*
D03*
X84000Y279457D02*
D03*
Y286543D02*
D03*
X96099Y384543D02*
D03*
Y377457D02*
D03*
X237777Y551000D02*
D03*
Y543913D02*
D03*
X229874Y558000D02*
D03*
Y550913D02*
D03*
X229874Y536913D02*
D03*
Y544000D02*
D03*
X237821Y591000D02*
D03*
Y583913D02*
D03*
X229874Y576913D02*
D03*
Y584000D02*
D03*
X229874Y598000D02*
D03*
Y590913D02*
D03*
X120492Y602717D02*
D03*
Y609803D02*
D03*
X112492Y609717D02*
D03*
Y616803D02*
D03*
X120492Y623803D02*
D03*
Y616717D02*
D03*
Y583803D02*
D03*
Y576717D02*
D03*
X120492Y562717D02*
D03*
Y569803D02*
D03*
X112557Y569717D02*
D03*
Y576803D02*
D03*
X237886Y631000D02*
D03*
Y623913D02*
D03*
X229929Y616913D02*
D03*
Y624000D02*
D03*
X229874Y638000D02*
D03*
Y630913D02*
D03*
X120504Y642839D02*
D03*
Y649925D02*
D03*
X112492Y649839D02*
D03*
Y656925D02*
D03*
X120504Y663925D02*
D03*
Y656839D02*
D03*
X120492Y543563D02*
D03*
Y536476D02*
D03*
X112492Y529260D02*
D03*
Y536346D02*
D03*
X120492Y522717D02*
D03*
Y529803D02*
D03*
X229929Y518000D02*
D03*
Y510913D02*
D03*
X237886Y511000D02*
D03*
Y503913D02*
D03*
X229874Y496913D02*
D03*
Y504000D02*
D03*
X311000Y403457D02*
D03*
Y410543D02*
D03*
X58000Y58457D02*
D03*
Y65543D02*
D03*
X80000Y419043D02*
D03*
Y411957D02*
D03*
X71000Y419043D02*
D03*
Y411957D02*
D03*
D34*
X98878Y464335D02*
D03*
X100847D02*
D03*
X102815D02*
D03*
X104783D02*
D03*
X106752D02*
D03*
X108721D02*
D03*
X110689D02*
D03*
X112657D02*
D03*
X114626D02*
D03*
X116595D02*
D03*
X118563D02*
D03*
X120531D02*
D03*
X122500D02*
D03*
X124469D02*
D03*
X126437D02*
D03*
X128405D02*
D03*
X130374D02*
D03*
X132343D02*
D03*
X134311D02*
D03*
X136279D02*
D03*
X138248D02*
D03*
X140217D02*
D03*
X142185D02*
D03*
X144153D02*
D03*
X146122D02*
D03*
Y404886D02*
D03*
X144153D02*
D03*
X142185D02*
D03*
X140217D02*
D03*
X138248D02*
D03*
X136279D02*
D03*
X134311D02*
D03*
X132343D02*
D03*
X130374D02*
D03*
X128405D02*
D03*
X126437D02*
D03*
X124469D02*
D03*
X122500D02*
D03*
X120531D02*
D03*
X118563D02*
D03*
X116595D02*
D03*
X114626D02*
D03*
X112657D02*
D03*
X110689D02*
D03*
X108721D02*
D03*
X106752D02*
D03*
X104783D02*
D03*
X102815D02*
D03*
X100847D02*
D03*
X98878D02*
D03*
D35*
X152224Y458232D02*
D03*
Y456264D02*
D03*
Y454295D02*
D03*
Y452327D02*
D03*
Y450358D02*
D03*
Y448390D02*
D03*
Y446421D02*
D03*
Y444453D02*
D03*
Y442484D02*
D03*
Y440516D02*
D03*
Y438547D02*
D03*
Y436579D02*
D03*
Y434610D02*
D03*
Y432642D02*
D03*
Y430673D02*
D03*
Y428705D02*
D03*
Y426736D02*
D03*
Y424768D02*
D03*
Y422799D02*
D03*
Y420831D02*
D03*
Y418862D02*
D03*
Y416894D02*
D03*
Y414925D02*
D03*
Y412957D02*
D03*
Y410988D02*
D03*
X92776D02*
D03*
Y412957D02*
D03*
Y414925D02*
D03*
Y416894D02*
D03*
Y418862D02*
D03*
Y420831D02*
D03*
Y422799D02*
D03*
Y424768D02*
D03*
Y426736D02*
D03*
Y428705D02*
D03*
Y430673D02*
D03*
Y432642D02*
D03*
Y434610D02*
D03*
Y436579D02*
D03*
Y438547D02*
D03*
Y440516D02*
D03*
Y442484D02*
D03*
Y444453D02*
D03*
Y446421D02*
D03*
Y448390D02*
D03*
Y450358D02*
D03*
Y452327D02*
D03*
Y454295D02*
D03*
Y456264D02*
D03*
Y458232D02*
D03*
D36*
X273740Y425000D02*
D03*
X266260D02*
D03*
X39740Y380000D02*
D03*
X32260D02*
D03*
X39740Y372000D02*
D03*
X32260D02*
D03*
X39740Y337000D02*
D03*
X32260D02*
D03*
X39740Y329000D02*
D03*
X32260D02*
D03*
X39740Y295000D02*
D03*
X32260D02*
D03*
Y287000D02*
D03*
X39740D02*
D03*
Y252000D02*
D03*
X32260D02*
D03*
X39740Y244000D02*
D03*
X32260D02*
D03*
X39740Y210000D02*
D03*
X32260D02*
D03*
X39740Y202000D02*
D03*
X32260D02*
D03*
X39740Y167000D02*
D03*
X32260D02*
D03*
X39740Y159000D02*
D03*
X32260D02*
D03*
D37*
X89000Y851000D02*
D03*
X79000D02*
D03*
X111000D02*
D03*
X121000D02*
D03*
X153000D02*
D03*
X143000D02*
D03*
X207000D02*
D03*
X217000D02*
D03*
X185000D02*
D03*
X175000D02*
D03*
X239000D02*
D03*
X249000D02*
D03*
X281000D02*
D03*
X271000D02*
D03*
X341500Y473500D02*
D03*
Y483500D02*
D03*
Y493500D02*
D03*
X13500Y359500D02*
D03*
Y369500D02*
D03*
Y379500D02*
D03*
X336100Y344000D02*
D03*
X337000Y449000D02*
D03*
X159000Y13000D02*
D03*
X169000D02*
D03*
X199000D02*
D03*
X189000D02*
D03*
X179000D02*
D03*
X13000Y57000D02*
D03*
Y67000D02*
D03*
Y77000D02*
D03*
Y100000D02*
D03*
Y110000D02*
D03*
Y120000D02*
D03*
X337000Y427000D02*
D03*
Y404913D02*
D03*
X336100Y322000D02*
D03*
Y251000D02*
D03*
Y229000D02*
D03*
Y156000D02*
D03*
Y134000D02*
D03*
X336000Y62000D02*
D03*
Y40000D02*
D03*
X13500Y337000D02*
D03*
Y327000D02*
D03*
Y317000D02*
D03*
Y294500D02*
D03*
Y284500D02*
D03*
Y274500D02*
D03*
Y252000D02*
D03*
Y242000D02*
D03*
Y232000D02*
D03*
Y210000D02*
D03*
Y200000D02*
D03*
Y190000D02*
D03*
Y167000D02*
D03*
Y157000D02*
D03*
Y147000D02*
D03*
D38*
X69000Y851000D02*
D03*
X101000D02*
D03*
X133000D02*
D03*
X197000D02*
D03*
X165000D02*
D03*
X229000D02*
D03*
X261000D02*
D03*
X209000Y13000D02*
D03*
D39*
X341500Y503500D02*
D03*
X13500Y349500D02*
D03*
X336100Y354000D02*
D03*
X337000Y459000D02*
D03*
X13000Y47000D02*
D03*
Y90000D02*
D03*
X337000Y437000D02*
D03*
Y414913D02*
D03*
X336100Y332000D02*
D03*
Y261000D02*
D03*
Y239000D02*
D03*
Y166000D02*
D03*
Y144000D02*
D03*
X336000Y72000D02*
D03*
Y50000D02*
D03*
X13500Y307000D02*
D03*
Y264500D02*
D03*
Y222000D02*
D03*
Y180000D02*
D03*
Y137000D02*
D03*
D40*
X174500Y371500D02*
D03*
X17500Y847500D02*
D03*
X332500D02*
D03*
Y17500D02*
D03*
X17500D02*
D03*
D41*
X316150Y510669D02*
D03*
Y572874D02*
D03*
X263000Y568543D02*
D03*
Y515000D02*
D03*
X33850Y545205D02*
D03*
Y483000D02*
D03*
X87000Y487331D02*
D03*
Y540874D02*
D03*
Y624874D02*
D03*
Y571331D02*
D03*
X33850Y567000D02*
D03*
Y629205D02*
D03*
Y713205D02*
D03*
Y651000D02*
D03*
X87000Y655331D02*
D03*
Y708874D02*
D03*
Y792874D02*
D03*
Y739331D02*
D03*
X33850Y735000D02*
D03*
Y797205D02*
D03*
X316150Y762669D02*
D03*
Y824874D02*
D03*
X263000Y820543D02*
D03*
Y767000D02*
D03*
Y683000D02*
D03*
Y736543D02*
D03*
X316150Y740874D02*
D03*
Y678669D02*
D03*
Y594480D02*
D03*
Y656685D02*
D03*
X263000Y652354D02*
D03*
Y598811D02*
D03*
D42*
X277600Y21000D02*
D03*
X112500Y767500D02*
D03*
X122000Y440000D02*
D03*
X145000Y414000D02*
D03*
X118000Y438000D02*
D03*
Y414000D02*
D03*
X126000Y438000D02*
D03*
Y430000D02*
D03*
Y422000D02*
D03*
Y414000D02*
D03*
X118000Y422000D02*
D03*
Y430000D02*
D03*
X77000Y327000D02*
D03*
X213886Y478000D02*
D03*
X230000Y490000D02*
D03*
X236000Y525000D02*
D03*
Y565000D02*
D03*
Y605000D02*
D03*
X230152Y651000D02*
D03*
X120000Y670000D02*
D03*
X114000Y635000D02*
D03*
Y595260D02*
D03*
Y555000D02*
D03*
X29000Y475000D02*
D03*
X35000Y444858D02*
D03*
X186000Y681000D02*
D03*
Y666000D02*
D03*
X64000Y65000D02*
D03*
X136492Y555260D02*
D03*
Y595260D02*
D03*
X136492Y635260D02*
D03*
X213886Y645457D02*
D03*
Y605457D02*
D03*
Y565457D02*
D03*
X213886Y525457D02*
D03*
X141121Y521452D02*
D03*
X141492Y555260D02*
D03*
Y595260D02*
D03*
Y635260D02*
D03*
X208886Y645457D02*
D03*
Y605457D02*
D03*
Y565457D02*
D03*
Y525457D02*
D03*
X255000Y419000D02*
D03*
X264000D02*
D03*
X37000Y418000D02*
D03*
X55000Y397000D02*
D03*
X70000Y382000D02*
D03*
X101000Y377000D02*
D03*
X79000Y286000D02*
D03*
X65000Y416000D02*
D03*
X80000Y407776D02*
D03*
X253000Y22000D02*
D03*
X292500Y47000D02*
D03*
X114492Y515260D02*
D03*
X131000Y515531D02*
D03*
X170000Y456000D02*
D03*
X253000Y116000D02*
D03*
Y210000D02*
D03*
Y304000D02*
D03*
X274000Y456000D02*
D03*
X277100Y96000D02*
D03*
X277000Y190000D02*
D03*
Y284000D02*
D03*
Y378000D02*
D03*
X152543Y391000D02*
D03*
X316150Y403500D02*
D03*
X320000Y475000D02*
D03*
X261000Y460000D02*
D03*
X262000Y447957D02*
D03*
X258000Y412000D02*
D03*
X261000Y432000D02*
D03*
X284000Y412000D02*
D03*
X253000Y16000D02*
D03*
X253100Y110000D02*
D03*
Y204000D02*
D03*
Y298000D02*
D03*
X277000Y102000D02*
D03*
X277100Y196000D02*
D03*
Y290000D02*
D03*
Y384000D02*
D03*
X280000Y65000D02*
D03*
Y56000D02*
D03*
Y47000D02*
D03*
X265000D02*
D03*
Y56000D02*
D03*
Y65000D02*
D03*
X252500Y56000D02*
D03*
X292500D02*
D03*
Y65000D02*
D03*
X252500Y47000D02*
D03*
Y65000D02*
D03*
X265100Y159000D02*
D03*
Y150000D02*
D03*
Y141000D02*
D03*
X280100D02*
D03*
Y150000D02*
D03*
Y159000D02*
D03*
X292600Y150000D02*
D03*
Y159000D02*
D03*
Y141000D02*
D03*
X252600D02*
D03*
Y150000D02*
D03*
Y159000D02*
D03*
X280100Y253000D02*
D03*
Y244000D02*
D03*
Y235000D02*
D03*
X265100D02*
D03*
Y244000D02*
D03*
Y253000D02*
D03*
X292600Y235000D02*
D03*
Y244000D02*
D03*
Y253000D02*
D03*
X252600Y244000D02*
D03*
Y235000D02*
D03*
Y253000D02*
D03*
X280100Y347000D02*
D03*
X265100D02*
D03*
X280100Y329000D02*
D03*
X265100D02*
D03*
X280100Y338000D02*
D03*
X265100D02*
D03*
X292600D02*
D03*
Y347000D02*
D03*
Y329000D02*
D03*
X252600Y338000D02*
D03*
Y329000D02*
D03*
Y347000D02*
D03*
X144043Y509000D02*
D03*
D43*
X197000Y434000D02*
D03*
X202000Y431000D02*
D03*
X199000Y498000D02*
D03*
X99600Y471200D02*
D03*
X84900Y442900D02*
D03*
X157000Y527024D02*
D03*
X157500Y567024D02*
D03*
Y607024D02*
D03*
Y647146D02*
D03*
X192500Y633693D02*
D03*
Y593693D02*
D03*
Y553693D02*
D03*
Y513693D02*
D03*
X186000Y626016D02*
D03*
X183000Y628766D02*
D03*
X213886Y633457D02*
D03*
Y593457D02*
D03*
X186000Y585457D02*
D03*
X183000Y588457D02*
D03*
X186000Y545457D02*
D03*
X183000Y548457D02*
D03*
X213886Y553457D02*
D03*
Y513457D02*
D03*
X186000Y505457D02*
D03*
X183000Y508457D02*
D03*
X164520Y655780D02*
D03*
X167563Y652779D02*
D03*
X164520Y615779D02*
D03*
X167563Y612780D02*
D03*
Y572780D02*
D03*
X164563Y575779D02*
D03*
Y539000D02*
D03*
X167000Y536000D02*
D03*
X85000Y455000D02*
D03*
X156000Y481457D02*
D03*
X108003Y365000D02*
D03*
X153000Y472000D02*
D03*
X113000Y370000D02*
D03*
X100000Y422000D02*
D03*
X137000Y507000D02*
D03*
X158000Y468000D02*
D03*
X139000Y458000D02*
D03*
X105000Y457000D02*
D03*
X100000Y414000D02*
D03*
Y438000D02*
D03*
Y452000D02*
D03*
X144000Y453000D02*
D03*
X86000Y425000D02*
D03*
X136492Y647260D02*
D03*
Y607260D02*
D03*
Y567260D02*
D03*
Y527260D02*
D03*
X119949Y385000D02*
D03*
X117000Y388000D02*
D03*
X123000Y399000D02*
D03*
X114000Y391000D02*
D03*
X98000Y397000D02*
D03*
X102000Y391000D02*
D03*
X99000Y393000D02*
D03*
X105000Y388000D02*
D03*
X64000Y444929D02*
D03*
X49000Y460000D02*
D03*
X47000Y457000D02*
D03*
X99000Y428000D02*
D03*
X45000Y454000D02*
D03*
X57000Y472000D02*
D03*
X55000Y469000D02*
D03*
X53000Y466000D02*
D03*
X51000Y463000D02*
D03*
X93000Y131000D02*
D03*
Y116031D02*
D03*
X58000Y54513D02*
D03*
X161492Y595260D02*
D03*
Y635382D02*
D03*
X202886Y540457D02*
D03*
Y580457D02*
D03*
Y620457D02*
D03*
X147492Y660260D02*
D03*
Y620260D02*
D03*
Y580260D02*
D03*
Y540260D02*
D03*
X188886Y525528D02*
D03*
Y565457D02*
D03*
Y605457D02*
D03*
Y645457D02*
D03*
X161492Y555260D02*
D03*
M02*
