G04*
G04 #@! TF.GenerationSoftware,Altium Limited,Altium Designer,19.0.14 (431)*
G04*
G04 Layer_Color=32768*
%FSLAX25Y25*%
%MOIN*%
G70*
G01*
G75*
%ADD70C,0.00394*%
%ADD71C,0.00197*%
D70*
X164032Y461000D02*
X167968D01*
X166000Y459031D02*
Y462968D01*
X7032Y419000D02*
X10968D01*
X9000Y417031D02*
Y420968D01*
X300000Y427032D02*
Y430969D01*
X298031Y429000D02*
X301969D01*
X303000Y405031D02*
Y408968D01*
X301031Y407000D02*
X304969D01*
X300000Y455031D02*
Y458968D01*
X298031Y457000D02*
X301969D01*
X78031Y386000D02*
X81968D01*
X80000Y384032D02*
Y387968D01*
X122500Y432642D02*
Y436579D01*
X120531Y434610D02*
X124469D01*
X44032Y472000D02*
X47969D01*
X46000Y470031D02*
Y473969D01*
X30031Y469000D02*
X33968D01*
X32000Y467031D02*
Y470968D01*
X34032Y461000D02*
X37969D01*
X36000Y459031D02*
Y462968D01*
X34032Y453000D02*
X37969D01*
X36000Y451031D02*
Y454969D01*
X44000Y440031D02*
Y443968D01*
X42031Y442000D02*
X45968D01*
X93410Y449031D02*
Y452969D01*
X91441Y451000D02*
X95378D01*
X79000Y430031D02*
Y433968D01*
X77031Y432000D02*
X80968D01*
X44032Y418000D02*
X47969D01*
X46000Y416032D02*
Y419969D01*
X60000Y403031D02*
Y406968D01*
X58031Y405000D02*
X61968D01*
X82000Y322031D02*
Y325969D01*
X80032Y324000D02*
X83969D01*
X84000Y281031D02*
Y284968D01*
X82032Y283000D02*
X85969D01*
X96099Y379031D02*
Y382968D01*
X94130Y381000D02*
X98067D01*
X235809Y547457D02*
X239746D01*
X237777Y545488D02*
Y549425D01*
X227906Y554457D02*
X231842D01*
X229874Y552488D02*
Y556425D01*
X226886Y563488D02*
Y567425D01*
X224917Y565457D02*
X228854D01*
X227906Y540457D02*
X231842D01*
X229874Y538488D02*
Y542425D01*
X226886Y523488D02*
Y527425D01*
X224917Y525457D02*
X228854D01*
X235852Y587457D02*
X239789D01*
X237821Y585488D02*
Y589425D01*
X227906Y580457D02*
X231842D01*
X229874Y578488D02*
Y582425D01*
X227906Y594457D02*
X231842D01*
X229874Y592488D02*
Y596425D01*
X198886Y563488D02*
Y567425D01*
X196917Y565457D02*
X200854D01*
X226886Y603488D02*
Y607425D01*
X224917Y605457D02*
X228854D01*
X198886Y603488D02*
Y607425D01*
X196917Y605457D02*
X200854D01*
X151492Y593291D02*
Y597228D01*
X149524Y595260D02*
X153461D01*
X123492Y593291D02*
Y597228D01*
X121524Y595260D02*
X125461D01*
X118524Y606260D02*
X122461D01*
X120492Y604291D02*
Y608228D01*
X110524Y613260D02*
X114461D01*
X112492Y611291D02*
Y615228D01*
X118524Y620260D02*
X122461D01*
X120492Y618291D02*
Y622228D01*
X118524Y580260D02*
X122461D01*
X120492Y578291D02*
Y582228D01*
X151492Y553291D02*
Y557228D01*
X149524Y555260D02*
X153461D01*
X118524Y566260D02*
X122461D01*
X120492Y564291D02*
Y568228D01*
X110589Y573260D02*
X114526D01*
X112557Y571291D02*
Y575228D01*
X123492Y553291D02*
Y557228D01*
X121524Y555260D02*
X125461D01*
X198886Y523559D02*
Y527496D01*
X196917Y525528D02*
X200854D01*
X235917Y627457D02*
X239854D01*
X237886Y625488D02*
Y629425D01*
X227961Y620457D02*
X231898D01*
X229929Y618488D02*
Y622425D01*
X151492Y633413D02*
Y637350D01*
X149524Y635382D02*
X153461D01*
X227906Y634457D02*
X231842D01*
X229874Y632488D02*
Y636425D01*
X226886Y643488D02*
Y647425D01*
X224917Y645457D02*
X228854D01*
X198886Y643488D02*
Y647425D01*
X196917Y645457D02*
X200854D01*
X123492Y633413D02*
Y637350D01*
X121524Y635382D02*
X125461D01*
X118535Y646382D02*
X122472D01*
X120504Y644413D02*
Y648350D01*
X110524Y653382D02*
X114461D01*
X112492Y651413D02*
Y655350D01*
X118535Y660382D02*
X122472D01*
X120504Y658413D02*
Y662350D01*
X118524Y540020D02*
X122461D01*
X120492Y538051D02*
Y541988D01*
X110524Y532803D02*
X114461D01*
X112492Y530835D02*
Y534772D01*
X118524Y526260D02*
X122461D01*
X120492Y524291D02*
Y528228D01*
X143500Y513031D02*
Y516968D01*
X141532Y515000D02*
X145468D01*
X123492Y513291D02*
Y517228D01*
X121524Y515260D02*
X125461D01*
X227961Y514457D02*
X231898D01*
X229929Y512488D02*
Y516425D01*
X235917Y507457D02*
X239854D01*
X237886Y505488D02*
Y509425D01*
X227906Y500457D02*
X231842D01*
X229874Y498488D02*
Y502425D01*
X149000Y394032D02*
Y397969D01*
X147031Y396000D02*
X150969D01*
X107032Y438000D02*
X110968D01*
X109000Y436031D02*
Y439968D01*
X107032Y430000D02*
X110968D01*
X109000Y428031D02*
Y431968D01*
X107032Y422000D02*
X110968D01*
X109000Y420031D02*
Y423969D01*
X107032Y414000D02*
X110968D01*
X109000Y412032D02*
Y415969D01*
X133031Y414000D02*
X136969D01*
X135000Y412032D02*
Y415969D01*
X133031Y422000D02*
X136969D01*
X135000Y420031D02*
Y423969D01*
X133031Y430000D02*
X136969D01*
X135000Y428031D02*
Y431968D01*
X138000Y447031D02*
Y450969D01*
X136031Y449000D02*
X139969D01*
X130000Y447031D02*
Y450969D01*
X128032Y449000D02*
X131968D01*
X122000Y447031D02*
Y450969D01*
X120031Y449000D02*
X123969D01*
X114000Y447031D02*
Y450969D01*
X112031Y449000D02*
X115969D01*
X106000Y447031D02*
Y450969D01*
X104032Y449000D02*
X107968D01*
X133031Y438000D02*
X136969D01*
X135000Y436031D02*
Y439968D01*
X272031Y464000D02*
X275969D01*
X274000Y462032D02*
Y465969D01*
X264032Y464000D02*
X267969D01*
X266000Y462032D02*
Y465969D01*
X270000Y446055D02*
Y449992D01*
X268032Y448024D02*
X271969D01*
X272031Y436000D02*
X275969D01*
X274000Y434031D02*
Y437968D01*
X264032Y436000D02*
X267969D01*
X266000Y434031D02*
Y437968D01*
X270000Y423032D02*
Y426968D01*
X268032Y425000D02*
X271969D01*
X266000Y409988D02*
Y413925D01*
X264032Y411957D02*
X267969D01*
X312000Y473032D02*
Y476968D01*
X310032Y475000D02*
X313968D01*
X309032Y407000D02*
X312968D01*
X311000Y405031D02*
Y408968D01*
X31032Y68000D02*
X34969D01*
X33000Y66031D02*
Y69968D01*
X59031Y68000D02*
X62968D01*
X61000Y66031D02*
Y69968D01*
X78031Y415500D02*
X81968D01*
X80000Y413531D02*
Y417469D01*
X69032Y415500D02*
X72969D01*
X71000Y413531D02*
Y417469D01*
X51032Y448740D02*
X54969D01*
X53000Y446772D02*
Y450709D01*
X39000Y378031D02*
Y381968D01*
X37031Y380000D02*
X40968D01*
X39000Y370031D02*
Y373969D01*
X37031Y372000D02*
X40968D01*
X39000Y335032D02*
Y338968D01*
X37031Y337000D02*
X40968D01*
X39000Y327031D02*
Y330968D01*
X37031Y329000D02*
X40968D01*
X39000Y293032D02*
Y296969D01*
X37031Y295000D02*
X40968D01*
X37031Y287000D02*
X40968D01*
X39000Y285032D02*
Y288968D01*
Y250031D02*
Y253969D01*
X37031Y252000D02*
X40968D01*
X39000Y242032D02*
Y245969D01*
X37031Y244000D02*
X40968D01*
X39000Y208032D02*
Y211968D01*
X37031Y210000D02*
X40968D01*
X39000Y200031D02*
Y203969D01*
X37031Y202000D02*
X40968D01*
X39000Y165032D02*
Y168968D01*
X37031Y167000D02*
X40968D01*
X39000Y157032D02*
Y160968D01*
X37031Y159000D02*
X40968D01*
D71*
X254547Y24905D02*
X260453D01*
X254547Y13094D02*
X260453D01*
Y24905D01*
X254547Y13094D02*
Y24905D01*
X257500Y17130D02*
Y20870D01*
X255630Y19000D02*
X259370D01*
X159110Y457063D02*
Y464937D01*
X172890Y457063D02*
Y464937D01*
X159110D02*
X172890D01*
X159110Y457063D02*
X172890D01*
X15890Y415260D02*
Y422740D01*
X2110Y415260D02*
Y422740D01*
Y415260D02*
X15890D01*
X2110Y422740D02*
X15890D01*
X278150Y415024D02*
X321850D01*
X278150Y442976D02*
X321850D01*
Y415024D02*
Y442976D01*
X278150Y415024D02*
Y442976D01*
X299260Y400110D02*
X306740D01*
X299260Y413890D02*
X306740D01*
X299260Y400110D02*
Y413890D01*
X306740Y400110D02*
Y413890D01*
X278150Y443024D02*
X321850D01*
X278150Y470976D02*
X321850D01*
Y443024D02*
Y470976D01*
X278150Y443024D02*
Y470976D01*
X76063Y379110D02*
Y392890D01*
X83937Y379110D02*
Y392890D01*
X76063Y379110D02*
X83937D01*
X76063Y392890D02*
X83937D01*
X88248Y400358D02*
X156752D01*
X88248Y468862D02*
X156752D01*
Y400358D02*
Y468862D01*
X88248Y400358D02*
Y468862D01*
X52890Y468063D02*
Y475937D01*
X39110Y468063D02*
Y475937D01*
X52890D01*
X39110Y468063D02*
X52890D01*
X38890Y465063D02*
Y472937D01*
X25110Y465063D02*
Y472937D01*
X38890D01*
X25110Y465063D02*
X38890D01*
X42890Y457063D02*
Y464937D01*
X29110Y457063D02*
Y464937D01*
X42890D01*
X29110Y457063D02*
X42890D01*
Y449063D02*
Y456937D01*
X29110Y449063D02*
Y456937D01*
X42890D01*
X29110Y449063D02*
X42890D01*
X40063Y448890D02*
X47937D01*
X40063Y435110D02*
X47937D01*
X40063D02*
Y448890D01*
X47937Y435110D02*
Y448890D01*
X89473Y444110D02*
X97347D01*
X89473Y457890D02*
X97347D01*
Y444110D02*
Y457890D01*
X89473Y444110D02*
Y457890D01*
X75063Y438890D02*
X82937D01*
X75063Y425110D02*
X82937D01*
X75063D02*
Y438890D01*
X82937Y425110D02*
Y438890D01*
X52890Y414063D02*
Y421937D01*
X39110Y414063D02*
Y421937D01*
Y414063D02*
X52890D01*
X39110Y421937D02*
X52890D01*
X56063Y411890D02*
X63937D01*
X56063Y398110D02*
X63937D01*
Y411890D01*
X56063Y398110D02*
Y411890D01*
X78063Y317110D02*
X85937D01*
X78063Y330890D02*
X85937D01*
X78063Y317110D02*
Y330890D01*
X85937Y317110D02*
Y330890D01*
X80063Y276110D02*
X87937D01*
X80063Y289890D02*
X87937D01*
X80063Y276110D02*
Y289890D01*
X87937Y276110D02*
Y289890D01*
X92161Y387890D02*
X100036D01*
X92161Y374110D02*
X100036D01*
Y387890D01*
X92161Y374110D02*
Y387890D01*
X241715Y540567D02*
Y554347D01*
X233840Y540567D02*
Y554347D01*
X241715D01*
X233840Y540567D02*
X241715D01*
X233811Y547567D02*
Y561346D01*
X225937Y547567D02*
Y561346D01*
X233811D01*
X225937Y547567D02*
X233811D01*
X219996Y561520D02*
X233776D01*
X219996Y569394D02*
X233776D01*
Y561520D02*
Y569394D01*
X219996Y561520D02*
Y569394D01*
X225937Y533567D02*
Y547346D01*
X233811Y533567D02*
Y547346D01*
X225937Y533567D02*
X233811D01*
X225937Y547346D02*
X233811D01*
X219996Y521520D02*
X233776D01*
X219996Y529394D02*
X233776D01*
Y521520D02*
Y529394D01*
X219996Y521520D02*
Y529394D01*
X241758Y580567D02*
Y594347D01*
X233884Y580567D02*
Y594347D01*
X241758D01*
X233884Y580567D02*
X241758D01*
X225937Y573567D02*
Y587347D01*
X233811Y573567D02*
Y587347D01*
X225937Y573567D02*
X233811D01*
X225937Y587347D02*
X233811D01*
X233811Y587567D02*
Y601346D01*
X225937Y587567D02*
Y601346D01*
X233811D01*
X225937Y587567D02*
X233811D01*
X191996Y569394D02*
X205776D01*
X191996Y561520D02*
X205776D01*
X191996D02*
Y569394D01*
X205776Y561520D02*
Y569394D01*
X219996Y601520D02*
X233776D01*
X219996Y609394D02*
X233776D01*
Y601520D02*
Y609394D01*
X219996Y601520D02*
Y609394D01*
X191996Y609394D02*
X205776D01*
X191996Y601520D02*
X205776D01*
X191996D02*
Y609394D01*
X205776Y601520D02*
Y609394D01*
X144602Y591323D02*
X158382D01*
X144602Y599197D02*
X158382D01*
Y591323D02*
Y599197D01*
X144602Y591323D02*
Y599197D01*
X116602Y599197D02*
X130382D01*
X116602Y591323D02*
X130382D01*
X116602D02*
Y599197D01*
X130382Y591323D02*
Y599197D01*
X116555Y599370D02*
Y613150D01*
X124429Y599370D02*
Y613150D01*
X116555Y599370D02*
X124429D01*
X116555Y613150D02*
X124429D01*
X108555Y606370D02*
Y620150D01*
X116429Y606370D02*
Y620150D01*
X108555Y606370D02*
X116429D01*
X108555Y620150D02*
X116429D01*
X124429Y613370D02*
Y627150D01*
X116555Y613370D02*
Y627150D01*
X124429D01*
X116555Y613370D02*
X124429D01*
Y573370D02*
Y587150D01*
X116555Y573370D02*
Y587150D01*
X124429D01*
X116555Y573370D02*
X124429D01*
X144602Y551323D02*
X158382D01*
X144602Y559197D02*
X158382D01*
Y551323D02*
Y559197D01*
X144602Y551323D02*
Y559197D01*
X116555Y559370D02*
Y573150D01*
X124429Y559370D02*
Y573150D01*
X116555Y559370D02*
X124429D01*
X116555Y573150D02*
X124429D01*
X108620Y566370D02*
Y580150D01*
X116494Y566370D02*
Y580150D01*
X108620Y566370D02*
X116494D01*
X108620Y580150D02*
X116494D01*
X116602Y559197D02*
X130382D01*
X116602Y551323D02*
X130382D01*
X116602D02*
Y559197D01*
X130382Y551323D02*
Y559197D01*
X191996Y529465D02*
X205776D01*
X191996Y521591D02*
X205776D01*
X191996D02*
Y529465D01*
X205776Y521591D02*
Y529465D01*
X241823Y620567D02*
Y634346D01*
X233949Y620567D02*
Y634346D01*
X241823D01*
X233949Y620567D02*
X241823D01*
X225992Y613567D02*
Y627347D01*
X233866Y613567D02*
Y627347D01*
X225992Y613567D02*
X233866D01*
X225992Y627347D02*
X233866D01*
X144602Y631445D02*
X158382D01*
X144602Y639319D02*
X158382D01*
Y631445D02*
Y639319D01*
X144602Y631445D02*
Y639319D01*
X233811Y627567D02*
Y641347D01*
X225937Y627567D02*
Y641347D01*
X233811D01*
X225937Y627567D02*
X233811D01*
X219996Y641520D02*
X233776D01*
X219996Y649394D02*
X233776D01*
Y641520D02*
Y649394D01*
X219996Y641520D02*
Y649394D01*
X191996Y649394D02*
X205776D01*
X191996Y641520D02*
X205776D01*
X191996D02*
Y649394D01*
X205776Y641520D02*
Y649394D01*
X116602Y639319D02*
X130382D01*
X116602Y631445D02*
X130382D01*
X116602D02*
Y639319D01*
X130382Y631445D02*
Y639319D01*
X116567Y639492D02*
Y653272D01*
X124441Y639492D02*
Y653272D01*
X116567Y639492D02*
X124441D01*
X116567Y653272D02*
X124441D01*
X108555Y646492D02*
Y660272D01*
X116429Y646492D02*
Y660272D01*
X108555Y646492D02*
X116429D01*
X108555Y660272D02*
X116429D01*
X124441Y653492D02*
Y667272D01*
X116567Y653492D02*
Y667272D01*
X124441D01*
X116567Y653492D02*
X124441D01*
X124429Y533130D02*
Y546910D01*
X116555Y533130D02*
Y546910D01*
X124429D01*
X116555Y533130D02*
X124429D01*
X108555Y525913D02*
Y539693D01*
X116429Y525913D02*
Y539693D01*
X108555Y525913D02*
X116429D01*
X108555Y539693D02*
X116429D01*
X116555Y519370D02*
Y533150D01*
X124429Y519370D02*
Y533150D01*
X116555Y519370D02*
X124429D01*
X116555Y533150D02*
X124429D01*
X136610Y511063D02*
X150390D01*
X136610Y518937D02*
X150390D01*
Y511063D02*
Y518937D01*
X136610Y511063D02*
Y518937D01*
X116602Y519197D02*
X130382D01*
X116602Y511323D02*
X130382D01*
X116602D02*
Y519197D01*
X130382Y511323D02*
Y519197D01*
X233866Y507567D02*
Y521347D01*
X225992Y507567D02*
Y521347D01*
X233866D01*
X225992Y507567D02*
X233866D01*
X241823Y500567D02*
Y514347D01*
X233949Y500567D02*
Y514347D01*
X241823D01*
X233949Y500567D02*
X241823D01*
X225937Y493567D02*
Y507346D01*
X233811Y493567D02*
Y507346D01*
X225937Y493567D02*
X233811D01*
X225937Y507346D02*
X233811D01*
X142110Y392063D02*
X155890D01*
X142110Y399937D02*
X155890D01*
Y392063D02*
Y399937D01*
X142110Y392063D02*
Y399937D01*
X102110Y434063D02*
Y441937D01*
X115890Y434063D02*
Y441937D01*
X102110Y434063D02*
X115890D01*
X102110Y441937D02*
X115890D01*
X102110Y426063D02*
Y433937D01*
X115890Y426063D02*
Y433937D01*
X102110Y426063D02*
X115890D01*
X102110Y433937D02*
X115890D01*
X102110Y418063D02*
Y425937D01*
X115890Y418063D02*
Y425937D01*
X102110Y418063D02*
X115890D01*
X102110Y425937D02*
X115890D01*
X102110Y410063D02*
Y417937D01*
X115890Y410063D02*
Y417937D01*
X102110Y410063D02*
X115890D01*
X102110Y417937D02*
X115890D01*
X141890Y410063D02*
Y417937D01*
X128110Y410063D02*
Y417937D01*
X141890D01*
X128110Y410063D02*
X141890D01*
Y418063D02*
Y425937D01*
X128110Y418063D02*
Y425937D01*
X141890D01*
X128110Y418063D02*
X141890D01*
Y426063D02*
Y433937D01*
X128110Y426063D02*
Y433937D01*
X141890D01*
X128110Y426063D02*
X141890D01*
X134063Y455890D02*
X141937D01*
X134063Y442110D02*
X141937D01*
X134063D02*
Y455890D01*
X141937Y442110D02*
Y455890D01*
X126063D02*
X133937D01*
X126063Y442110D02*
X133937D01*
X126063D02*
Y455890D01*
X133937Y442110D02*
Y455890D01*
X118063D02*
X125937D01*
X118063Y442110D02*
X125937D01*
X118063D02*
Y455890D01*
X125937Y442110D02*
Y455890D01*
X110063D02*
X117937D01*
X110063Y442110D02*
X117937D01*
X110063D02*
Y455890D01*
X117937Y442110D02*
Y455890D01*
X102063D02*
X109937D01*
X102063Y442110D02*
X109937D01*
X102063D02*
Y455890D01*
X109937Y442110D02*
Y455890D01*
X141890Y434063D02*
Y441937D01*
X128110Y434063D02*
Y441937D01*
X141890D01*
X128110Y434063D02*
X141890D01*
X270260Y457110D02*
Y470890D01*
X277740Y457110D02*
Y470890D01*
X270260Y457110D02*
X277740D01*
X270260Y470890D02*
X277740D01*
X269740Y457110D02*
Y470890D01*
X262260Y457110D02*
Y470890D01*
X269740D01*
X262260Y457110D02*
X269740D01*
X263110Y451961D02*
X276890D01*
X263110Y444087D02*
X276890D01*
X263110D02*
Y451961D01*
X276890Y444087D02*
Y451961D01*
X270260Y429110D02*
Y442890D01*
X277740Y429110D02*
Y442890D01*
X270260Y429110D02*
X277740D01*
X270260Y442890D02*
X277740D01*
X269740Y429110D02*
Y442890D01*
X262260Y429110D02*
Y442890D01*
X269740D01*
X262260Y429110D02*
X269740D01*
X263110Y421260D02*
X276890D01*
X263110Y428740D02*
X276890D01*
Y421260D02*
Y428740D01*
X263110Y421260D02*
Y428740D01*
X259110Y415894D02*
X272890D01*
X259110Y408020D02*
X272890D01*
X259110D02*
Y415894D01*
X272890Y408020D02*
Y415894D01*
X305110Y471063D02*
X318890D01*
X305110Y478937D02*
X318890D01*
Y471063D02*
Y478937D01*
X305110Y471063D02*
Y478937D01*
X307063Y400110D02*
Y413890D01*
X314937Y400110D02*
Y413890D01*
X307063Y400110D02*
X314937D01*
X307063Y413890D02*
X314937D01*
X269647Y375095D02*
X275553D01*
X269647Y386906D02*
X275553D01*
X269647Y375095D02*
Y386906D01*
X275553Y375095D02*
Y386906D01*
X272600Y379130D02*
Y382870D01*
X270730Y381000D02*
X274470D01*
X255730Y301000D02*
X259470D01*
X257600Y299130D02*
Y302870D01*
X254647Y295094D02*
Y306906D01*
X260553Y295094D02*
Y306906D01*
X254647Y295094D02*
X260553D01*
X254647Y306906D02*
X260553D01*
X270730Y287000D02*
X274470D01*
X272600Y285130D02*
Y288870D01*
X275553Y281095D02*
Y292905D01*
X269647Y281095D02*
Y292905D01*
X275553D01*
X269647Y281095D02*
X275553D01*
X255730Y207000D02*
X259470D01*
X257600Y205130D02*
Y208870D01*
X254647Y201095D02*
Y212906D01*
X260553Y201095D02*
Y212906D01*
X254647Y201095D02*
X260553D01*
X254647Y212906D02*
X260553D01*
X270730Y193000D02*
X274470D01*
X272600Y191130D02*
Y194870D01*
X275553Y187094D02*
Y198906D01*
X269647Y187094D02*
Y198906D01*
X275553D01*
X269647Y187094D02*
X275553D01*
X255730Y113000D02*
X259470D01*
X257600Y111130D02*
Y114870D01*
X254647Y107095D02*
Y118905D01*
X260553Y107095D02*
Y118905D01*
X254647Y107095D02*
X260553D01*
X254647Y118905D02*
X260553D01*
X270630Y99000D02*
X274370D01*
X272500Y97130D02*
Y100870D01*
X275453Y93094D02*
Y104905D01*
X269547Y93094D02*
Y104905D01*
X275453D01*
X269547Y93094D02*
X275453D01*
X29260Y61110D02*
Y74890D01*
X36740Y61110D02*
Y74890D01*
X29260Y61110D02*
X36740D01*
X29260Y74890D02*
X36740D01*
X57063Y61110D02*
Y74890D01*
X64937Y61110D02*
Y74890D01*
X57063Y61110D02*
X64937D01*
X57063Y74890D02*
X64937D01*
X83937Y408610D02*
Y422390D01*
X76063Y408610D02*
Y422390D01*
X83937D01*
X76063Y408610D02*
X83937D01*
X74937D02*
Y422390D01*
X67063Y408610D02*
Y422390D01*
X74937D01*
X67063Y408610D02*
X74937D01*
X49260Y441850D02*
Y455630D01*
X56740Y441850D02*
Y455630D01*
X49260Y441850D02*
X56740D01*
X49260Y455630D02*
X56740D01*
X32110Y376260D02*
X45890D01*
X32110Y383740D02*
X45890D01*
Y376260D02*
Y383740D01*
X32110Y376260D02*
Y383740D01*
Y368260D02*
X45890D01*
X32110Y375740D02*
X45890D01*
Y368260D02*
Y375740D01*
X32110Y368260D02*
Y375740D01*
Y333260D02*
X45890D01*
X32110Y340740D02*
X45890D01*
Y333260D02*
Y340740D01*
X32110Y333260D02*
Y340740D01*
Y325260D02*
X45890D01*
X32110Y332740D02*
X45890D01*
Y325260D02*
Y332740D01*
X32110Y325260D02*
Y332740D01*
Y291260D02*
X45890D01*
X32110Y298740D02*
X45890D01*
Y291260D02*
Y298740D01*
X32110Y291260D02*
Y298740D01*
Y283260D02*
Y290740D01*
X45890Y283260D02*
Y290740D01*
X32110D02*
X45890D01*
X32110Y283260D02*
X45890D01*
X32110Y248260D02*
X45890D01*
X32110Y255740D02*
X45890D01*
Y248260D02*
Y255740D01*
X32110Y248260D02*
Y255740D01*
Y240260D02*
X45890D01*
X32110Y247740D02*
X45890D01*
Y240260D02*
Y247740D01*
X32110Y240260D02*
Y247740D01*
Y206260D02*
X45890D01*
X32110Y213740D02*
X45890D01*
Y206260D02*
Y213740D01*
X32110Y206260D02*
Y213740D01*
Y198260D02*
X45890D01*
X32110Y205740D02*
X45890D01*
Y198260D02*
Y205740D01*
X32110Y198260D02*
Y205740D01*
Y163260D02*
X45890D01*
X32110Y170740D02*
X45890D01*
Y163260D02*
Y170740D01*
X32110Y163260D02*
Y170740D01*
Y155260D02*
X45890D01*
X32110Y162740D02*
X45890D01*
Y155260D02*
Y162740D01*
X32110Y155260D02*
Y162740D01*
M02*
