G04*
G04 #@! TF.GenerationSoftware,Altium Limited,Altium Designer,19.0.15 (446)*
G04*
G04 Layer_Physical_Order=4*
G04 Layer_Color=16711680*
%FSLAX25Y25*%
%MOIN*%
G70*
G01*
G75*
%ADD11C,0.01000*%
%ADD46R,0.04528X0.05709*%
%ADD47R,0.04134X0.05512*%
%ADD55R,0.05512X0.04134*%
%ADD56R,0.05709X0.04528*%
%ADD59C,0.03200*%
%ADD61R,0.06000X0.06000*%
%ADD62C,0.06000*%
%ADD63R,0.06000X0.06000*%
%ADD64C,0.30000*%
%ADD65C,0.09843*%
%ADD66C,0.03200*%
%ADD67C,0.02500*%
G36*
X346000Y38000D02*
X322000D01*
X321020Y37952D01*
X320792Y37907D01*
X320556Y38348D01*
X332370Y50161D01*
X332747Y49831D01*
X332506Y49517D01*
X332103Y48544D01*
X331965Y47500D01*
X332103Y46456D01*
X332506Y45483D01*
X333147Y44647D01*
X333983Y44006D01*
X334956Y43603D01*
X336000Y43466D01*
X337044Y43603D01*
X338017Y44006D01*
X338853Y44647D01*
X339494Y45483D01*
X339897Y46456D01*
X340035Y47500D01*
X339897Y48544D01*
X339494Y49517D01*
X338853Y50353D01*
X338017Y50994D01*
X337044Y51397D01*
X336000Y51534D01*
X334956Y51397D01*
X333983Y50994D01*
X333669Y50753D01*
X333339Y51130D01*
X335709Y53500D01*
X340000D01*
Y61500D01*
X332000D01*
Y57209D01*
X316914Y42122D01*
X280000D01*
X279321Y42033D01*
X278689Y41771D01*
X278146Y41354D01*
X278146Y41354D01*
X275646Y38854D01*
X275229Y38311D01*
X274967Y37679D01*
X274878Y37000D01*
X274967Y36321D01*
X275229Y35689D01*
X275646Y35146D01*
X276189Y34729D01*
X276821Y34467D01*
X277500Y34378D01*
X278179Y34467D01*
X278811Y34729D01*
X279354Y35146D01*
X281086Y36878D01*
X316473D01*
X316625Y36378D01*
X315656Y35730D01*
X314270Y34344D01*
X313181Y32714D01*
X312431Y30903D01*
X312048Y28980D01*
X312000Y28000D01*
Y19000D01*
X244500D01*
Y31241D01*
X244533Y31321D01*
X244622Y32000D01*
Y99000D01*
X276306D01*
X276421Y98533D01*
X275789Y98271D01*
X275246Y97854D01*
X274829Y97311D01*
X274567Y96679D01*
X274478Y96000D01*
X274567Y95321D01*
X274829Y94689D01*
X275246Y94146D01*
X275789Y93729D01*
X276421Y93467D01*
X277100Y93378D01*
X277779Y93467D01*
X278411Y93729D01*
X278954Y94146D01*
X279371Y94689D01*
X279633Y95321D01*
X279722Y96000D01*
X279633Y96679D01*
X279371Y97311D01*
X278954Y97854D01*
X278411Y98271D01*
X277779Y98533D01*
X277894Y99000D01*
X346000D01*
Y38000D01*
D02*
G37*
G36*
X346609Y185891D02*
Y120500D01*
X245000D01*
X244622Y169960D01*
Y186000D01*
X346500D01*
X346609Y185891D01*
D02*
G37*
G36*
Y207500D02*
X254834D01*
X254664Y208000D01*
X254854Y208146D01*
X255271Y208689D01*
X255533Y209321D01*
X255622Y210000D01*
X255533Y210679D01*
X255271Y211311D01*
X254854Y211854D01*
X254311Y212271D01*
X253679Y212533D01*
X253000Y212622D01*
X244622D01*
Y287000D01*
X276206D01*
X276321Y286533D01*
X275689Y286271D01*
X275146Y285854D01*
X274729Y285311D01*
X274467Y284679D01*
X274378Y284000D01*
X274467Y283321D01*
X274729Y282689D01*
X275146Y282146D01*
X275689Y281729D01*
X276321Y281467D01*
X277000Y281378D01*
X277679Y281467D01*
X278311Y281729D01*
X278854Y282146D01*
X279271Y282689D01*
X279533Y283321D01*
X279622Y284000D01*
X279533Y284679D01*
X279271Y285311D01*
X278854Y285854D01*
X278311Y286271D01*
X277679Y286533D01*
X277794Y287000D01*
X346609D01*
Y207500D01*
D02*
G37*
G36*
Y306500D02*
X253759D01*
X253679Y306533D01*
X253000Y306622D01*
X244622D01*
X244622Y373622D01*
X252500Y381500D01*
X346609D01*
Y306500D01*
D02*
G37*
G36*
X332000Y432000D02*
X331500Y431500D01*
X336705D01*
X336738Y431000D01*
X335956Y430897D01*
X334983Y430494D01*
X334147Y429853D01*
X333506Y429017D01*
X333103Y428044D01*
X332965Y427000D01*
X333103Y425956D01*
X333506Y424983D01*
X334147Y424147D01*
X334983Y423506D01*
X335956Y423103D01*
X337000Y422965D01*
X338044Y423103D01*
X339017Y423506D01*
X339853Y424147D01*
X340494Y424983D01*
X340897Y425956D01*
X341035Y427000D01*
X340897Y428044D01*
X340494Y429017D01*
X339853Y429853D01*
X339017Y430494D01*
X338044Y430897D01*
X337262Y431000D01*
X337295Y431500D01*
X345500D01*
Y395500D01*
X247000D01*
Y442000D01*
X332000D01*
Y432000D01*
D02*
G37*
G36*
X338376Y496000D02*
X338006Y495517D01*
X337603Y494544D01*
X337466Y493500D01*
X337603Y492456D01*
X338006Y491483D01*
X338647Y490647D01*
X339483Y490006D01*
X340456Y489603D01*
X341500Y489466D01*
X342544Y489603D01*
X343517Y490006D01*
X344353Y490647D01*
X344994Y491483D01*
X345397Y492456D01*
X345500Y493238D01*
X346000Y493205D01*
Y483795D01*
X345500Y483762D01*
X345397Y484544D01*
X344994Y485517D01*
X344353Y486353D01*
X343517Y486994D01*
X342544Y487397D01*
X341500Y487535D01*
X340456Y487397D01*
X339483Y486994D01*
X338647Y486353D01*
X338006Y485517D01*
X337603Y484544D01*
X337466Y483500D01*
X337603Y482456D01*
X338006Y481483D01*
X338647Y480647D01*
X339483Y480006D01*
X340456Y479603D01*
X341500Y479465D01*
X342544Y479603D01*
X343517Y480006D01*
X344353Y480647D01*
X344994Y481483D01*
X345397Y482456D01*
X345500Y483238D01*
X346000Y483205D01*
Y473795D01*
X345500Y473762D01*
X345397Y474544D01*
X344994Y475517D01*
X344353Y476353D01*
X343517Y476994D01*
X342544Y477397D01*
X341500Y477534D01*
X340456Y477397D01*
X339483Y476994D01*
X338647Y476353D01*
X338006Y475517D01*
X337603Y474544D01*
X337466Y473500D01*
X337603Y472456D01*
X338006Y471483D01*
X338647Y470647D01*
X339483Y470006D01*
X340456Y469603D01*
X341500Y469465D01*
X342544Y469603D01*
X343517Y470006D01*
X344353Y470647D01*
X344994Y471483D01*
X345397Y472456D01*
X345500Y473238D01*
X346000Y473205D01*
Y444500D01*
X263965Y444120D01*
X263718Y444619D01*
X263771Y444689D01*
X264033Y445321D01*
X264122Y446000D01*
X264033Y446679D01*
X263771Y447311D01*
X263354Y447854D01*
X262811Y448271D01*
X262179Y448533D01*
X261500Y448622D01*
X260821Y448533D01*
X260189Y448271D01*
X259646Y447854D01*
X259229Y447311D01*
X258967Y446679D01*
X258878Y446000D01*
X258967Y445321D01*
X259229Y444689D01*
X259298Y444599D01*
X259052Y444098D01*
X238354Y444002D01*
X238000Y444354D01*
Y496500D01*
X338130D01*
X338376Y496000D01*
D02*
G37*
%LPC*%
G36*
X340000Y83000D02*
X332000D01*
Y75000D01*
X340000D01*
Y83000D01*
D02*
G37*
G36*
X336000Y73035D02*
X334956Y72897D01*
X333983Y72494D01*
X333147Y71853D01*
X332506Y71017D01*
X332103Y70044D01*
X331965Y69000D01*
X332103Y67956D01*
X332506Y66983D01*
X333147Y66147D01*
X333983Y65506D01*
X334956Y65103D01*
X336000Y64965D01*
X337044Y65103D01*
X338017Y65506D01*
X338853Y66147D01*
X339494Y66983D01*
X339897Y67956D01*
X340035Y69000D01*
X339897Y70044D01*
X339494Y71017D01*
X338853Y71853D01*
X338017Y72494D01*
X337044Y72897D01*
X336000Y73035D01*
D02*
G37*
G36*
X340100Y170000D02*
X332100D01*
Y162000D01*
X340100D01*
Y170000D01*
D02*
G37*
G36*
X336100Y160035D02*
X335056Y159897D01*
X334083Y159494D01*
X333247Y158853D01*
X332606Y158017D01*
X332203Y157044D01*
X332066Y156000D01*
X332203Y154956D01*
X332606Y153983D01*
X333247Y153147D01*
X334083Y152506D01*
X335056Y152103D01*
X336100Y151965D01*
X337144Y152103D01*
X338117Y152506D01*
X338953Y153147D01*
X339594Y153983D01*
X339997Y154956D01*
X340135Y156000D01*
X339997Y157044D01*
X339594Y158017D01*
X338953Y158853D01*
X338117Y159494D01*
X337144Y159897D01*
X336100Y160035D01*
D02*
G37*
G36*
X340100Y148000D02*
X332100D01*
Y140000D01*
X340100D01*
Y148000D01*
D02*
G37*
G36*
X336100Y138034D02*
X335056Y137897D01*
X334083Y137494D01*
X333247Y136853D01*
X332606Y136017D01*
X332203Y135044D01*
X332066Y134000D01*
X332203Y132956D01*
X332606Y131983D01*
X333247Y131147D01*
X334083Y130506D01*
X335056Y130103D01*
X336100Y129965D01*
X337144Y130103D01*
X338117Y130506D01*
X338953Y131147D01*
X339594Y131983D01*
X339997Y132956D01*
X340135Y134000D01*
X339997Y135044D01*
X339594Y136017D01*
X338953Y136853D01*
X338117Y137494D01*
X337144Y137897D01*
X336100Y138034D01*
D02*
G37*
G36*
X340100Y265000D02*
X332100D01*
Y257000D01*
X340100D01*
Y265000D01*
D02*
G37*
G36*
X336100Y255034D02*
X335056Y254897D01*
X334083Y254494D01*
X333247Y253853D01*
X332606Y253017D01*
X332203Y252044D01*
X332066Y251000D01*
X332203Y249956D01*
X332606Y248983D01*
X333247Y248147D01*
X334083Y247506D01*
X335056Y247103D01*
X336100Y246966D01*
X337144Y247103D01*
X338117Y247506D01*
X338953Y248147D01*
X339594Y248983D01*
X339997Y249956D01*
X340135Y251000D01*
X339997Y252044D01*
X339594Y253017D01*
X338953Y253853D01*
X338117Y254494D01*
X337144Y254897D01*
X336100Y255034D01*
D02*
G37*
G36*
X340100Y243000D02*
X332100D01*
Y235000D01*
X340100D01*
Y243000D01*
D02*
G37*
G36*
X336100Y233034D02*
X335056Y232897D01*
X334083Y232494D01*
X333247Y231853D01*
X332606Y231017D01*
X332203Y230044D01*
X332066Y229000D01*
X332203Y227956D01*
X332606Y226983D01*
X333247Y226147D01*
X334083Y225506D01*
X335056Y225103D01*
X336100Y224966D01*
X337144Y225103D01*
X338117Y225506D01*
X338953Y226147D01*
X339594Y226983D01*
X339997Y227956D01*
X340135Y229000D01*
X339997Y230044D01*
X339594Y231017D01*
X338953Y231853D01*
X338117Y232494D01*
X337144Y232897D01*
X336100Y233034D01*
D02*
G37*
G36*
X277000Y380622D02*
X276321Y380533D01*
X275689Y380271D01*
X275146Y379854D01*
X274729Y379311D01*
X274467Y378679D01*
X274378Y378000D01*
X274467Y377321D01*
X274729Y376689D01*
X275146Y376146D01*
X275689Y375729D01*
X276321Y375467D01*
X277000Y375378D01*
X277679Y375467D01*
X278311Y375729D01*
X278854Y376146D01*
X279271Y376689D01*
X279533Y377321D01*
X279622Y378000D01*
X279533Y378679D01*
X279271Y379311D01*
X278854Y379854D01*
X278311Y380271D01*
X277679Y380533D01*
X277000Y380622D01*
D02*
G37*
G36*
X340100Y358000D02*
X332100D01*
Y350000D01*
X340100D01*
Y358000D01*
D02*
G37*
G36*
X336100Y348035D02*
X335056Y347897D01*
X334083Y347494D01*
X333247Y346853D01*
X332606Y346017D01*
X332203Y345044D01*
X332066Y344000D01*
X332203Y342956D01*
X332606Y341983D01*
X333247Y341147D01*
X334083Y340506D01*
X335056Y340103D01*
X336100Y339966D01*
X337144Y340103D01*
X338117Y340506D01*
X338953Y341147D01*
X339594Y341983D01*
X339997Y342956D01*
X340135Y344000D01*
X339997Y345044D01*
X339594Y346017D01*
X338953Y346853D01*
X338117Y347494D01*
X337144Y347897D01*
X336100Y348035D01*
D02*
G37*
G36*
X340100Y336000D02*
X332100D01*
Y328000D01*
X340100D01*
Y336000D01*
D02*
G37*
G36*
X336100Y326034D02*
X335056Y325897D01*
X334083Y325494D01*
X333247Y324853D01*
X332606Y324017D01*
X332203Y323044D01*
X332066Y322000D01*
X332203Y320956D01*
X332606Y319983D01*
X333247Y319147D01*
X334083Y318506D01*
X335056Y318103D01*
X336100Y317966D01*
X337144Y318103D01*
X338117Y318506D01*
X338953Y319147D01*
X339594Y319983D01*
X339997Y320956D01*
X340135Y322000D01*
X339997Y323044D01*
X339594Y324017D01*
X338953Y324853D01*
X338117Y325494D01*
X337144Y325897D01*
X336100Y326034D01*
D02*
G37*
G36*
X261000Y434622D02*
X260321Y434533D01*
X259689Y434271D01*
X259146Y433854D01*
X258729Y433311D01*
X258467Y432679D01*
X258378Y432000D01*
X258467Y431321D01*
X258729Y430689D01*
X259146Y430146D01*
X259689Y429729D01*
X260321Y429467D01*
X261000Y429378D01*
X261679Y429467D01*
X262311Y429729D01*
X262854Y430146D01*
X263271Y430689D01*
X263533Y431321D01*
X263622Y432000D01*
X263533Y432679D01*
X263271Y433311D01*
X262854Y433854D01*
X262311Y434271D01*
X261679Y434533D01*
X261000Y434622D01*
D02*
G37*
G36*
X259500Y419752D02*
X258821Y419663D01*
X258189Y419401D01*
X257646Y418984D01*
X257229Y418441D01*
X256967Y417809D01*
X256878Y417130D01*
X256967Y416451D01*
X257229Y415819D01*
X257646Y415276D01*
X258189Y414859D01*
X258821Y414597D01*
X259500Y414507D01*
X260179Y414597D01*
X260811Y414859D01*
X261354Y415276D01*
X261771Y415819D01*
X262033Y416451D01*
X262122Y417130D01*
X262033Y417809D01*
X261771Y418441D01*
X261354Y418984D01*
X260811Y419401D01*
X260179Y419663D01*
X259500Y419752D01*
D02*
G37*
G36*
X341000Y418913D02*
X333000D01*
Y410913D01*
X341000D01*
Y418913D01*
D02*
G37*
G36*
X284000Y414622D02*
X283321Y414533D01*
X282689Y414271D01*
X282146Y413854D01*
X281729Y413311D01*
X281467Y412679D01*
X281378Y412000D01*
X281467Y411321D01*
X281729Y410689D01*
X282146Y410146D01*
X282689Y409729D01*
X283321Y409467D01*
X284000Y409378D01*
X284679Y409467D01*
X285311Y409729D01*
X285854Y410146D01*
X286271Y410689D01*
X286533Y411321D01*
X286622Y412000D01*
X286533Y412679D01*
X286271Y413311D01*
X285854Y413854D01*
X285311Y414271D01*
X284679Y414533D01*
X284000Y414622D01*
D02*
G37*
G36*
X259393Y413122D02*
X258714Y413033D01*
X258082Y412771D01*
X257539Y412354D01*
X257122Y411811D01*
X256860Y411179D01*
X256770Y410500D01*
X256860Y409821D01*
X257122Y409189D01*
X257539Y408646D01*
X258082Y408229D01*
X258714Y407967D01*
X259393Y407878D01*
X260072Y407967D01*
X260704Y408229D01*
X261247Y408646D01*
X261664Y409189D01*
X261926Y409821D01*
X262015Y410500D01*
X261926Y411179D01*
X261664Y411811D01*
X261247Y412354D01*
X260704Y412771D01*
X260072Y413033D01*
X259393Y413122D01*
D02*
G37*
G36*
Y407122D02*
X258714Y407033D01*
X258082Y406771D01*
X257539Y406354D01*
X257122Y405811D01*
X256860Y405179D01*
X256770Y404500D01*
X256860Y403821D01*
X257122Y403189D01*
X257539Y402646D01*
X258082Y402229D01*
X258714Y401967D01*
X259393Y401878D01*
X260072Y401967D01*
X260704Y402229D01*
X261247Y402646D01*
X261664Y403189D01*
X261926Y403821D01*
X262015Y404500D01*
X261926Y405179D01*
X261664Y405811D01*
X261247Y406354D01*
X260704Y406771D01*
X260072Y407033D01*
X259393Y407122D01*
D02*
G37*
G36*
X337000Y408948D02*
X335956Y408811D01*
X334983Y408407D01*
X334147Y407766D01*
X333506Y406931D01*
X333103Y405958D01*
X332965Y404913D01*
X333103Y403869D01*
X333506Y402896D01*
X334147Y402061D01*
X334983Y401419D01*
X335956Y401016D01*
X337000Y400879D01*
X338044Y401016D01*
X339017Y401419D01*
X339853Y402061D01*
X340494Y402896D01*
X340897Y403869D01*
X341035Y404913D01*
X340897Y405958D01*
X340494Y406931D01*
X339853Y407766D01*
X339017Y408407D01*
X338044Y408811D01*
X337000Y408948D01*
D02*
G37*
G36*
X316150Y406122D02*
X315471Y406033D01*
X314838Y405771D01*
X314295Y405354D01*
X313878Y404811D01*
X313616Y404179D01*
X313527Y403500D01*
X313616Y402821D01*
X313878Y402189D01*
X314295Y401646D01*
X314838Y401229D01*
X315471Y400967D01*
X316150Y400878D01*
X316828Y400967D01*
X317461Y401229D01*
X318004Y401646D01*
X318421Y402189D01*
X318683Y402821D01*
X318772Y403500D01*
X318683Y404179D01*
X318421Y404811D01*
X318004Y405354D01*
X317461Y405771D01*
X316828Y406033D01*
X316150Y406122D01*
D02*
G37*
G36*
X279000Y480122D02*
X278321Y480033D01*
X277689Y479771D01*
X277146Y479354D01*
X276729Y478811D01*
X276467Y478179D01*
X276378Y477500D01*
X276467Y476821D01*
X276729Y476189D01*
X277146Y475646D01*
X277689Y475229D01*
X278321Y474967D01*
X279000Y474878D01*
X279679Y474967D01*
X280311Y475229D01*
X280854Y475646D01*
X281271Y476189D01*
X281533Y476821D01*
X281622Y477500D01*
X281533Y478179D01*
X281271Y478811D01*
X280854Y479354D01*
X280311Y479771D01*
X279679Y480033D01*
X279000Y480122D01*
D02*
G37*
G36*
X320000Y478622D02*
X319321Y478533D01*
X318689Y478271D01*
X318146Y477854D01*
X317729Y477311D01*
X317467Y476679D01*
X317378Y476000D01*
X317467Y475321D01*
X317729Y474689D01*
X318146Y474146D01*
X318689Y473729D01*
X319321Y473467D01*
X320000Y473378D01*
X320679Y473467D01*
X321311Y473729D01*
X321854Y474146D01*
X322271Y474689D01*
X322533Y475321D01*
X322622Y476000D01*
X322533Y476679D01*
X322271Y477311D01*
X321854Y477854D01*
X321311Y478271D01*
X320679Y478533D01*
X320000Y478622D01*
D02*
G37*
G36*
X341000Y463000D02*
X337500D01*
Y459500D01*
X341000D01*
Y463000D01*
D02*
G37*
G36*
X336500D02*
X333000D01*
Y459500D01*
X336500D01*
Y463000D01*
D02*
G37*
G36*
X261500Y462622D02*
X260821Y462533D01*
X260189Y462271D01*
X259646Y461854D01*
X259229Y461311D01*
X258967Y460679D01*
X258878Y460000D01*
X258967Y459321D01*
X259229Y458689D01*
X259646Y458146D01*
X260189Y457729D01*
X260821Y457467D01*
X261500Y457378D01*
X262179Y457467D01*
X262811Y457729D01*
X263354Y458146D01*
X263771Y458689D01*
X264033Y459321D01*
X264122Y460000D01*
X264033Y460679D01*
X263771Y461311D01*
X263354Y461854D01*
X262811Y462271D01*
X262179Y462533D01*
X261500Y462622D01*
D02*
G37*
G36*
X341000Y458500D02*
X337500D01*
Y455000D01*
X341000D01*
Y458500D01*
D02*
G37*
G36*
X336500D02*
X333000D01*
Y455000D01*
X336500D01*
Y458500D01*
D02*
G37*
G36*
X261500Y456122D02*
X260821Y456033D01*
X260189Y455771D01*
X259646Y455354D01*
X259229Y454811D01*
X258967Y454179D01*
X258878Y453500D01*
X258967Y452821D01*
X259229Y452189D01*
X259646Y451646D01*
X260189Y451229D01*
X260821Y450967D01*
X261500Y450878D01*
X262179Y450967D01*
X262811Y451229D01*
X263354Y451646D01*
X263771Y452189D01*
X264033Y452821D01*
X264122Y453500D01*
X264033Y454179D01*
X263771Y454811D01*
X263354Y455354D01*
X262811Y455771D01*
X262179Y456033D01*
X261500Y456122D01*
D02*
G37*
G36*
X337000Y453034D02*
X335956Y452897D01*
X334983Y452494D01*
X334147Y451853D01*
X333506Y451017D01*
X333103Y450044D01*
X332965Y449000D01*
X333103Y447956D01*
X333506Y446983D01*
X334147Y446147D01*
X334983Y445506D01*
X335956Y445103D01*
X337000Y444966D01*
X338044Y445103D01*
X339017Y445506D01*
X339853Y446147D01*
X340494Y446983D01*
X340897Y447956D01*
X341035Y449000D01*
X340897Y450044D01*
X340494Y451017D01*
X339853Y451853D01*
X339017Y452494D01*
X338044Y452897D01*
X337000Y453034D01*
D02*
G37*
%LPD*%
D11*
X105000Y452457D02*
Y457795D01*
Y452457D02*
X105457Y452000D01*
X152500Y409807D02*
Y478500D01*
X152347Y409654D02*
X152500Y409807D01*
X152347Y409654D02*
X153000Y409000D01*
X137000Y481810D02*
X150996Y467813D01*
Y409997D02*
Y467813D01*
X136000Y395000D02*
X150996Y409997D01*
X156000Y470000D02*
Y481217D01*
X186000Y505457D02*
Y545457D01*
X183000Y508457D02*
Y548457D01*
X155000Y469000D02*
X156000Y470000D01*
X155000Y408000D02*
Y469000D01*
X112000Y365000D02*
X155000Y408000D01*
X108003Y365000D02*
X112000D01*
X137000Y481810D02*
Y507000D01*
X141000Y350740D02*
Y356500D01*
Y350740D02*
X141000Y350740D01*
X141000Y365500D02*
X145260Y369760D01*
Y377850D01*
X219500Y386500D02*
Y391760D01*
X180740Y402000D02*
X186000D01*
X210500Y386500D02*
Y397535D01*
X197500Y220531D02*
X197500Y430500D01*
X197500Y220500D02*
Y220531D01*
X93000Y116031D02*
X197500Y220531D01*
X193000Y231000D02*
X193000Y434000D01*
X215500Y419740D02*
Y425000D01*
X93000Y131000D02*
X193000Y231000D01*
X192500Y513693D02*
Y593693D01*
X137000Y507000D02*
X157012Y527012D01*
X16500Y104500D02*
X23000Y98000D01*
X16500Y104500D02*
Y105000D01*
X23000Y69500D02*
Y98000D01*
X16500Y63000D02*
X23000Y69500D01*
X167563Y629000D02*
Y652779D01*
Y629000D02*
X167797Y628766D01*
X157500Y607024D02*
X157500Y567024D01*
Y527500D02*
Y567024D01*
X157500Y607024D02*
Y647146D01*
Y653500D01*
X165000Y661000D01*
X192500Y633693D02*
Y636500D01*
Y633693D02*
X192500Y593693D01*
X168000Y661000D02*
X192500Y636500D01*
X164563Y575779D02*
Y595189D01*
Y539000D02*
Y575779D01*
X112374Y767500D02*
X112500D01*
X60000Y472000D02*
X91000Y441000D01*
X93410Y443409D01*
Y447457D01*
X114000Y370000D02*
X153000Y409000D01*
X113000Y370000D02*
X114000D01*
X112000Y395000D02*
X136000D01*
X149000Y411000D02*
Y454000D01*
X137000Y399000D02*
X149000Y411000D01*
X123000Y399000D02*
X137000D01*
X105000Y388000D02*
X112000Y395000D01*
X100000Y422000D02*
X105457D01*
X145000Y458000D02*
X149000Y454000D01*
X139000Y458000D02*
X145000D01*
X100000Y414000D02*
X105457D01*
X91000Y441000D02*
X99000Y433000D01*
X86000Y436000D02*
Y438000D01*
Y425000D02*
Y436000D01*
X85543Y435543D02*
X86000Y436000D01*
X79000Y435543D02*
X85543D01*
X99000Y428000D02*
Y433000D01*
X57000Y472000D02*
X60000D01*
X115949Y381000D02*
X119949Y385000D01*
X49000Y408000D02*
Y446000D01*
X112000Y383000D02*
X117000Y388000D01*
X49000Y446000D02*
Y450000D01*
X48543Y445543D02*
X49000Y446000D01*
X44000Y445543D02*
X48543D01*
X42953Y457000D02*
X47000D01*
X39543Y453591D02*
X42953Y457000D01*
X39543Y453000D02*
Y453591D01*
X40543Y460000D02*
X49000D01*
X39543Y461000D02*
X40543Y460000D01*
X35543Y469000D02*
X36898Y467646D01*
X46354D01*
X51000Y463000D01*
X51056Y467944D02*
Y470488D01*
X49543Y472000D02*
X51056Y470488D01*
Y467944D02*
X53000Y466000D01*
X78409Y435543D02*
X79000D01*
X49000Y408000D02*
X76000Y381000D01*
X51000Y409000D02*
X77000Y383000D01*
X78000Y385000D02*
X108000D01*
X53000Y410000D02*
X78000Y385000D01*
X53000Y410000D02*
Y456000D01*
X51000Y409000D02*
Y453000D01*
X77000Y383000D02*
X112000D01*
X76000Y381000D02*
X115949D01*
X108000Y385000D02*
X114000Y391000D01*
X55000Y411172D02*
X76172Y390000D01*
X100594D01*
X101594Y391000D01*
X102000D01*
X77000Y392000D02*
X97594D01*
X98594Y393000D01*
X99000D01*
X57000Y412000D02*
X77000Y392000D01*
X55000Y411172D02*
Y459000D01*
X57000Y412000D02*
Y462000D01*
X45000Y454000D02*
X49000Y450000D01*
X55000Y469000D02*
X86000Y438000D01*
X53000Y466000D02*
X57000Y462000D01*
X47000Y457000D02*
X51000Y453000D01*
Y463000D02*
X55000Y459000D01*
X49000Y460000D02*
X53000Y456000D01*
X167000Y536000D02*
X167563Y536563D01*
Y572780D01*
X165000Y661000D02*
X168000D01*
X169220Y655780D02*
X186000Y639000D01*
X164520Y655780D02*
X169220D01*
X164520Y615779D02*
Y655780D01*
X186000Y626016D02*
Y639000D01*
X167563Y612780D02*
Y629000D01*
X167797Y628766D02*
X183000D01*
X164520Y595232D02*
Y615779D01*
Y595232D02*
X164563Y595189D01*
X167563Y572780D02*
Y612780D01*
X186000Y585457D02*
Y626016D01*
X183000Y548457D02*
Y588457D01*
X186000Y545457D02*
Y585457D01*
X183000Y588457D02*
Y628766D01*
D46*
X49543Y472000D02*
D03*
X42457D02*
D03*
X35543Y469000D02*
D03*
X28457D02*
D03*
X39543Y461000D02*
D03*
X32457D02*
D03*
X39543Y453000D02*
D03*
X32457D02*
D03*
X105457Y438000D02*
D03*
X112543D02*
D03*
X105457Y430000D02*
D03*
X112543D02*
D03*
X105457Y422000D02*
D03*
X112543D02*
D03*
X105457Y414000D02*
D03*
X112543D02*
D03*
X138543Y414000D02*
D03*
X131457D02*
D03*
X138543Y422000D02*
D03*
X131457D02*
D03*
X138543Y430000D02*
D03*
X131457D02*
D03*
X138543Y438000D02*
D03*
X131457D02*
D03*
D47*
X180740Y402000D02*
D03*
X173260D02*
D03*
X145260Y377850D02*
D03*
X152740D02*
D03*
D55*
X215500Y412260D02*
D03*
Y419740D02*
D03*
X219500Y399240D02*
D03*
Y391760D02*
D03*
X210500Y397535D02*
D03*
Y405016D02*
D03*
X141000Y350740D02*
D03*
Y343260D02*
D03*
D56*
X44000Y445543D02*
D03*
Y438457D02*
D03*
X93410Y447457D02*
D03*
Y454543D02*
D03*
X79000Y435543D02*
D03*
Y428457D02*
D03*
X138000Y452543D02*
D03*
Y445457D02*
D03*
X130000Y452543D02*
D03*
Y445457D02*
D03*
X122000Y452543D02*
D03*
Y445457D02*
D03*
X114000Y452543D02*
D03*
Y445457D02*
D03*
X106000Y452543D02*
D03*
Y445457D02*
D03*
D59*
X213886Y513457D02*
Y553457D01*
X136492Y567260D02*
Y607260D01*
X136378Y647146D02*
Y663318D01*
X136492Y527260D02*
Y567260D01*
X213886Y471300D02*
Y513457D01*
Y553457D02*
Y565457D01*
Y593457D01*
Y605457D01*
Y633457D01*
Y645457D01*
X190000Y671000D02*
X213886Y647114D01*
X144060Y671000D02*
X190000D01*
X136378Y663318D02*
X144060Y671000D01*
X136492Y635260D02*
Y647260D01*
Y607260D02*
Y635260D01*
Y521024D02*
Y527260D01*
X131000Y515531D02*
X136492Y521024D01*
X242000Y447854D02*
X242000Y304000D01*
X134500Y343024D02*
X134736Y343260D01*
X141000D01*
X152740Y377850D02*
Y390803D01*
X152543Y391000D02*
X152740Y390803D01*
X216541Y408089D02*
X219500Y405130D01*
X216541Y408089D02*
Y411793D01*
X216074Y412260D02*
X216541Y411793D01*
X215500Y412260D02*
X216074D01*
X219500Y399240D02*
X220189D01*
X220709Y399760D01*
X152543Y391000D02*
X162260D01*
X172104Y400844D01*
X172793D01*
X173260Y401311D01*
Y402000D01*
X210500Y405016D02*
X219386D01*
X219500Y399740D02*
Y405130D01*
X318000Y39500D02*
X336000Y57500D01*
X280000Y39500D02*
X318000D01*
X242000Y32000D02*
Y116000D01*
X253000D01*
X242000D02*
Y210000D01*
X253000D01*
X242000Y304000D02*
X253000D01*
X242000Y210000D02*
Y304000D01*
X277500Y37000D02*
X280000Y39500D01*
X87000Y792874D02*
X112374Y767500D01*
X85000Y455000D02*
X85457Y454543D01*
X93410D01*
X122000Y440000D02*
Y445457D01*
X122000Y445457D02*
X122000Y445457D01*
X138543Y414000D02*
X145000D01*
X138543Y414000D02*
X138543Y414000D01*
X138457Y453000D02*
X144000D01*
X138000Y452543D02*
X138457Y453000D01*
X142125Y439254D02*
X144000Y441129D01*
Y453000D01*
X139207Y439254D02*
X142125D01*
X138543Y438591D02*
X139207Y439254D01*
X138543Y438000D02*
Y438591D01*
X100000Y452000D02*
X105457D01*
X106000Y452543D01*
X100000Y438000D02*
Y452000D01*
Y438000D02*
X105457D01*
X112543D02*
X118000D01*
X112543D02*
X113207Y438664D01*
X106000Y445457D02*
X113871D01*
X113207Y438664D02*
Y444793D01*
X113871Y445457D01*
X114000D01*
X130129D02*
X138000D01*
X130793Y438664D02*
X131457Y438000D01*
X130793Y438664D02*
Y444793D01*
X130129Y445457D02*
X130793Y444793D01*
X130000Y445457D02*
X130129D01*
X112543Y414000D02*
X118000D01*
X126000Y438000D02*
X131457D01*
X126000Y430000D02*
X131457D01*
X126000Y422000D02*
X131457D01*
X126000Y414000D02*
X131457D01*
X131457Y414000D01*
X112543Y422000D02*
X118000D01*
X112543Y430000D02*
X118000D01*
X131457Y430000D02*
Y438000D01*
Y422000D02*
Y430000D01*
Y414000D02*
Y422000D01*
X112543Y414000D02*
Y422000D01*
Y430000D01*
Y438000D01*
X114000Y445457D02*
X122000D01*
X130000D01*
X138543Y414000D02*
Y422000D01*
Y430000D01*
Y438000D01*
X106000Y452543D02*
X114000D01*
X122000D01*
X130000D01*
X138000D01*
X105457Y430000D02*
Y438000D01*
Y422000D02*
Y430000D01*
Y414000D02*
Y422000D01*
X29000Y475000D02*
X40047D01*
X42457Y472591D01*
Y472000D02*
Y472591D01*
X29000Y469543D02*
Y475000D01*
X28457Y469000D02*
X29000Y469543D01*
X32457Y461000D02*
Y461591D01*
X29120Y464927D02*
X32457Y461591D01*
X29120Y464927D02*
Y468336D01*
X28457Y469000D02*
X29120Y468336D01*
X33121Y446738D02*
X35000Y444858D01*
X33121Y446738D02*
Y452336D01*
X32457Y453000D02*
X33121Y452336D01*
X32457Y453000D02*
Y461000D01*
X35000Y444858D02*
X39179Y440680D01*
X41187D01*
X43409Y438457D01*
X44000D01*
X65000Y416000D02*
X65953D01*
X78409Y428457D01*
X79000D01*
D61*
X189500Y475000D02*
D03*
X341500Y503500D02*
D03*
X16500Y349500D02*
D03*
X336100Y354000D02*
D03*
X337000Y459000D02*
D03*
X16500Y53000D02*
D03*
Y95000D02*
D03*
X337000Y437000D02*
D03*
Y414913D02*
D03*
X336100Y332000D02*
D03*
Y261000D02*
D03*
Y239000D02*
D03*
Y166000D02*
D03*
Y144000D02*
D03*
X336000Y79000D02*
D03*
Y57500D02*
D03*
X16500Y307000D02*
D03*
Y264500D02*
D03*
Y222000D02*
D03*
Y180000D02*
D03*
Y137000D02*
D03*
D62*
X189500Y485000D02*
D03*
Y495000D02*
D03*
X341500Y473500D02*
D03*
Y483500D02*
D03*
Y493500D02*
D03*
X281000Y851000D02*
D03*
X271000D02*
D03*
X239000D02*
D03*
X249000D02*
D03*
X207000D02*
D03*
X217000D02*
D03*
X185000D02*
D03*
X175000D02*
D03*
X153000D02*
D03*
X143000D02*
D03*
X111000D02*
D03*
X121000D02*
D03*
X89000D02*
D03*
X79000D02*
D03*
X16500Y359500D02*
D03*
Y369500D02*
D03*
Y379500D02*
D03*
X336100Y344000D02*
D03*
X337000Y449000D02*
D03*
X149000Y40000D02*
D03*
X159000D02*
D03*
X189000D02*
D03*
X179000D02*
D03*
X169000D02*
D03*
X16500Y63000D02*
D03*
Y73000D02*
D03*
Y83000D02*
D03*
Y105000D02*
D03*
Y115000D02*
D03*
Y125000D02*
D03*
X337000Y427000D02*
D03*
Y404913D02*
D03*
X336100Y322000D02*
D03*
Y251000D02*
D03*
Y229000D02*
D03*
Y156000D02*
D03*
Y134000D02*
D03*
X336000Y69000D02*
D03*
Y47500D02*
D03*
X16500Y337000D02*
D03*
Y327000D02*
D03*
Y317000D02*
D03*
Y294500D02*
D03*
Y284500D02*
D03*
Y274500D02*
D03*
Y252000D02*
D03*
Y242000D02*
D03*
Y232000D02*
D03*
Y210000D02*
D03*
Y200000D02*
D03*
Y190000D02*
D03*
Y167000D02*
D03*
Y157000D02*
D03*
Y147000D02*
D03*
D63*
X261000Y851000D02*
D03*
X229000D02*
D03*
X197000D02*
D03*
X165000D02*
D03*
X133000D02*
D03*
X101000D02*
D03*
X69000D02*
D03*
X199000Y40000D02*
D03*
D64*
X174500Y371500D02*
D03*
X21000Y844000D02*
D03*
X329000D02*
D03*
Y21000D02*
D03*
X21000D02*
D03*
D65*
X316150Y510669D02*
D03*
Y572874D02*
D03*
X263000Y568543D02*
D03*
Y515000D02*
D03*
X33850Y545205D02*
D03*
Y483000D02*
D03*
X87000Y487331D02*
D03*
Y540874D02*
D03*
Y624874D02*
D03*
Y571331D02*
D03*
X33850Y567000D02*
D03*
Y629205D02*
D03*
Y713205D02*
D03*
Y651000D02*
D03*
X87000Y655331D02*
D03*
Y708874D02*
D03*
Y792874D02*
D03*
Y739331D02*
D03*
X33850Y735000D02*
D03*
Y797205D02*
D03*
X316150Y755669D02*
D03*
Y817874D02*
D03*
X263000Y813543D02*
D03*
Y760000D02*
D03*
Y678228D02*
D03*
Y731772D02*
D03*
X316150Y736102D02*
D03*
Y673898D02*
D03*
Y592354D02*
D03*
Y654559D02*
D03*
X263000Y650228D02*
D03*
Y596685D02*
D03*
D66*
X298000Y419000D02*
D03*
X308457D02*
D03*
X319000D02*
D03*
Y427000D02*
D03*
X308373Y427189D02*
D03*
X298000Y427000D02*
D03*
X308000Y435000D02*
D03*
X319000D02*
D03*
X298000D02*
D03*
X308500Y451000D02*
D03*
X298871D02*
D03*
X318000D02*
D03*
Y459000D02*
D03*
X298871D02*
D03*
X308457D02*
D03*
Y467000D02*
D03*
X299000D02*
D03*
X318000D02*
D03*
X320000Y476000D02*
D03*
X277100Y384000D02*
D03*
X277000Y378000D02*
D03*
X278000Y196150D02*
D03*
X277600Y189850D02*
D03*
X213886Y471300D02*
D03*
X261500Y460000D02*
D03*
Y453500D02*
D03*
X219500Y405130D02*
D03*
X261500Y446000D02*
D03*
X279000Y477500D02*
D03*
X259393Y404500D02*
D03*
Y410500D02*
D03*
X242000Y32000D02*
D03*
X261000Y432000D02*
D03*
X77000Y327000D02*
D03*
X277500Y37000D02*
D03*
X69000Y71740D02*
D03*
X112500Y767500D02*
D03*
X122000Y440000D02*
D03*
X145000Y414000D02*
D03*
X118000Y438000D02*
D03*
Y414000D02*
D03*
X126000Y438000D02*
D03*
Y430000D02*
D03*
Y422000D02*
D03*
Y414000D02*
D03*
X118000Y422000D02*
D03*
Y430000D02*
D03*
X230000Y490000D02*
D03*
X236000Y525000D02*
D03*
Y565000D02*
D03*
Y605000D02*
D03*
X230152Y651000D02*
D03*
X120000Y670000D02*
D03*
X114000Y635000D02*
D03*
Y595260D02*
D03*
Y555000D02*
D03*
X29000Y475000D02*
D03*
X35000Y444858D02*
D03*
X136492Y555260D02*
D03*
Y595260D02*
D03*
X136492Y635260D02*
D03*
X213886Y645457D02*
D03*
Y605457D02*
D03*
Y565457D02*
D03*
X213886Y525457D02*
D03*
X141121Y521452D02*
D03*
X141492Y555260D02*
D03*
Y595260D02*
D03*
Y635260D02*
D03*
X208886Y645457D02*
D03*
Y605457D02*
D03*
Y565457D02*
D03*
Y525457D02*
D03*
X37000Y418000D02*
D03*
X55000Y397000D02*
D03*
X70000Y382000D02*
D03*
X101000Y377000D02*
D03*
X79000Y286000D02*
D03*
X65000Y416000D02*
D03*
X80000Y407776D02*
D03*
X292500Y47000D02*
D03*
X114492Y515260D02*
D03*
X131000Y515531D02*
D03*
X253000Y116000D02*
D03*
Y210000D02*
D03*
Y304000D02*
D03*
X277100Y96000D02*
D03*
X277000Y284000D02*
D03*
X152543Y391000D02*
D03*
X316150Y403500D02*
D03*
X259500Y417130D02*
D03*
X284000Y412000D02*
D03*
X253000Y16000D02*
D03*
X253100Y110000D02*
D03*
Y204000D02*
D03*
Y298000D02*
D03*
X277000Y102000D02*
D03*
X277100Y290000D02*
D03*
X280000Y65000D02*
D03*
Y56000D02*
D03*
Y47000D02*
D03*
X265000D02*
D03*
Y56000D02*
D03*
Y65000D02*
D03*
X252500Y56000D02*
D03*
X292500D02*
D03*
Y65000D02*
D03*
X252500Y47000D02*
D03*
Y65000D02*
D03*
X265100Y159000D02*
D03*
Y150000D02*
D03*
Y141000D02*
D03*
X280100D02*
D03*
Y150000D02*
D03*
Y159000D02*
D03*
X292600Y150000D02*
D03*
Y159000D02*
D03*
Y141000D02*
D03*
X252600D02*
D03*
Y150000D02*
D03*
Y159000D02*
D03*
X280100Y253000D02*
D03*
Y244000D02*
D03*
Y235000D02*
D03*
X265100D02*
D03*
Y244000D02*
D03*
Y253000D02*
D03*
X292600Y235000D02*
D03*
Y244000D02*
D03*
Y253000D02*
D03*
X252600Y244000D02*
D03*
Y235000D02*
D03*
Y253000D02*
D03*
X280100Y347000D02*
D03*
X265100D02*
D03*
X280100Y329000D02*
D03*
X265100D02*
D03*
X280100Y338000D02*
D03*
X265100D02*
D03*
X292600D02*
D03*
Y347000D02*
D03*
Y329000D02*
D03*
X252600Y338000D02*
D03*
Y329000D02*
D03*
Y347000D02*
D03*
X144043Y509000D02*
D03*
D67*
X105000Y457795D02*
D03*
X152500Y478500D02*
D03*
X156000Y481217D02*
D03*
X163100Y461200D02*
D03*
X180100Y457900D02*
D03*
X186000Y505457D02*
D03*
X183000Y508457D02*
D03*
X219750Y387250D02*
D03*
X207800Y347500D02*
D03*
X134500Y343024D02*
D03*
X141000Y356500D02*
D03*
Y365500D02*
D03*
X186000Y402000D02*
D03*
X210500Y386500D02*
D03*
X197500Y430500D02*
D03*
X193000Y434000D02*
D03*
X215500Y425000D02*
D03*
X61000Y58000D02*
D03*
X199000Y498000D02*
D03*
X99600Y471200D02*
D03*
X84900Y442900D02*
D03*
X157000Y527024D02*
D03*
X157500Y567024D02*
D03*
Y607024D02*
D03*
Y647146D02*
D03*
X192500Y633693D02*
D03*
Y593693D02*
D03*
Y553693D02*
D03*
Y513693D02*
D03*
X186000Y626016D02*
D03*
X183000Y628766D02*
D03*
X213886Y633457D02*
D03*
Y593457D02*
D03*
X186000Y585457D02*
D03*
X183000Y588457D02*
D03*
X186000Y545457D02*
D03*
X183000Y548457D02*
D03*
X213886Y553457D02*
D03*
Y513457D02*
D03*
X164520Y655780D02*
D03*
X167563Y652779D02*
D03*
X164520Y615779D02*
D03*
X167563Y612780D02*
D03*
Y572780D02*
D03*
X164563Y575779D02*
D03*
Y539000D02*
D03*
X167000Y536000D02*
D03*
X85000Y455000D02*
D03*
X108003Y365000D02*
D03*
X113000Y370000D02*
D03*
X100000Y422000D02*
D03*
X137000Y507000D02*
D03*
X139000Y458000D02*
D03*
X100000Y414000D02*
D03*
Y438000D02*
D03*
Y452000D02*
D03*
X144000Y453000D02*
D03*
X86000Y425000D02*
D03*
X136492Y647260D02*
D03*
Y607260D02*
D03*
Y567260D02*
D03*
Y527260D02*
D03*
X119949Y385000D02*
D03*
X117000Y388000D02*
D03*
X123000Y399000D02*
D03*
X114000Y391000D02*
D03*
X98000Y397000D02*
D03*
X102000Y391000D02*
D03*
X99000Y393000D02*
D03*
X105000Y388000D02*
D03*
X64000Y444929D02*
D03*
X49000Y460000D02*
D03*
X47000Y457000D02*
D03*
X99000Y428000D02*
D03*
X45000Y454000D02*
D03*
X57000Y472000D02*
D03*
X55000Y469000D02*
D03*
X53000Y466000D02*
D03*
X51000Y463000D02*
D03*
X93000Y131000D02*
D03*
Y116031D02*
D03*
X161492Y595260D02*
D03*
Y635382D02*
D03*
X202886Y540457D02*
D03*
Y580457D02*
D03*
Y620457D02*
D03*
X147492Y660260D02*
D03*
Y620260D02*
D03*
Y580260D02*
D03*
Y540260D02*
D03*
X188886Y525528D02*
D03*
Y565457D02*
D03*
Y605457D02*
D03*
Y645457D02*
D03*
X161492Y555260D02*
D03*
M02*
