G04*
G04 #@! TF.GenerationSoftware,Altium Limited,Altium Designer,19.0.15 (446)*
G04*
G04 Layer_Color=16711935*
%FSLAX25Y25*%
%MOIN*%
G70*
G01*
G75*
%ADD16C,0.00100*%
%ADD68C,0.00000*%
%ADD69C,0.00394*%
D16*
X243500Y77850D02*
X306500D01*
Y34150D02*
Y77850D01*
X243500Y34150D02*
X306500D01*
X243500D02*
Y77850D01*
X298550Y27450D02*
Y34150D01*
X296450Y27450D02*
X298550D01*
X296450D02*
Y34150D01*
X298550D01*
X293550Y27450D02*
Y34150D01*
X291450Y27450D02*
X293550D01*
X291450D02*
Y34150D01*
X293550D01*
X288550Y27450D02*
Y34150D01*
X286450Y27450D02*
X288550D01*
X286450D02*
Y34150D01*
X288550D01*
X283550Y27450D02*
Y34150D01*
X281450Y27450D02*
X283550D01*
X281450D02*
Y34150D01*
X283550D01*
X278550Y27450D02*
Y34150D01*
X276450Y27450D02*
X278550D01*
X276450D02*
Y34150D01*
X278550D01*
X273550Y27450D02*
Y34150D01*
X271450Y27450D02*
X273550D01*
X271450D02*
Y34150D01*
X273550D01*
X268550Y27450D02*
Y34150D01*
X266450Y27450D02*
X268550D01*
X266450D02*
Y34150D01*
X268550D01*
X263550Y27450D02*
Y34150D01*
X261450Y27450D02*
X263550D01*
X261450D02*
Y34150D01*
X263550D01*
X258550Y27450D02*
Y34150D01*
X256450Y27450D02*
X258550D01*
X256450D02*
Y34150D01*
X258550D01*
X253550Y27450D02*
Y34150D01*
X251450Y27450D02*
X253550D01*
X251450D02*
Y34150D01*
X253550D01*
X251450Y77850D02*
Y84550D01*
X253550D01*
Y77850D02*
Y84550D01*
X251450Y77850D02*
X253550D01*
X256450D02*
Y84550D01*
X258550D01*
Y77850D02*
Y84550D01*
X256450Y77850D02*
X258550D01*
X261450D02*
Y84550D01*
X263550D01*
Y77850D02*
Y84550D01*
X261450Y77850D02*
X263550D01*
X266450D02*
Y84550D01*
X268550D01*
Y77850D02*
Y84550D01*
X266450Y77850D02*
X268550D01*
X271450D02*
Y84550D01*
X273550D01*
Y77850D02*
Y84550D01*
X271450Y77850D02*
X273550D01*
X276450D02*
Y84550D01*
X278550D01*
Y77850D02*
Y84550D01*
X276450Y77850D02*
X278550D01*
X281450D02*
Y84550D01*
X283550D01*
Y77850D02*
Y84550D01*
X281450Y77850D02*
X283550D01*
X286450D02*
Y84550D01*
X288550D01*
Y77850D02*
Y84550D01*
X286450Y77850D02*
X288550D01*
X291450D02*
Y84550D01*
X293550D01*
Y77850D02*
Y84550D01*
X291450Y77850D02*
X293550D01*
X296450D02*
Y84550D01*
X298550D01*
Y77850D02*
Y84550D01*
X296450Y77850D02*
X298550D01*
X296550Y359850D02*
X298650D01*
Y366550D01*
X296550D02*
X298650D01*
X296550Y359850D02*
Y366550D01*
X291550Y359850D02*
X293650D01*
Y366550D01*
X291550D02*
X293650D01*
X291550Y359850D02*
Y366550D01*
X286550Y359850D02*
X288650D01*
Y366550D01*
X286550D02*
X288650D01*
X286550Y359850D02*
Y366550D01*
X281550Y359850D02*
X283650D01*
Y366550D01*
X281550D02*
X283650D01*
X281550Y359850D02*
Y366550D01*
X276550Y359850D02*
X278650D01*
Y366550D01*
X276550D02*
X278650D01*
X276550Y359850D02*
Y366550D01*
X271550Y359850D02*
X273650D01*
Y366550D01*
X271550D02*
X273650D01*
X271550Y359850D02*
Y366550D01*
X266550Y359850D02*
X268650D01*
Y366550D01*
X266550D02*
X268650D01*
X266550Y359850D02*
Y366550D01*
X261550Y359850D02*
X263650D01*
Y366550D01*
X261550D02*
X263650D01*
X261550Y359850D02*
Y366550D01*
X256550Y359850D02*
X258650D01*
Y366550D01*
X256550D02*
X258650D01*
X256550Y359850D02*
Y366550D01*
X251550Y359850D02*
X253650D01*
Y366550D01*
X251550D02*
X253650D01*
X251550Y359850D02*
Y366550D01*
Y316150D02*
X253650D01*
X251550Y309450D02*
Y316150D01*
Y309450D02*
X253650D01*
Y316150D01*
X256550D02*
X258650D01*
X256550Y309450D02*
Y316150D01*
Y309450D02*
X258650D01*
Y316150D01*
X261550D02*
X263650D01*
X261550Y309450D02*
Y316150D01*
Y309450D02*
X263650D01*
Y316150D01*
X266550D02*
X268650D01*
X266550Y309450D02*
Y316150D01*
Y309450D02*
X268650D01*
Y316150D01*
X271550D02*
X273650D01*
X271550Y309450D02*
Y316150D01*
Y309450D02*
X273650D01*
Y316150D01*
X276550D02*
X278650D01*
X276550Y309450D02*
Y316150D01*
Y309450D02*
X278650D01*
Y316150D01*
X281550D02*
X283650D01*
X281550Y309450D02*
Y316150D01*
Y309450D02*
X283650D01*
Y316150D01*
X286550D02*
X288650D01*
X286550Y309450D02*
Y316150D01*
Y309450D02*
X288650D01*
Y316150D01*
X291550D02*
X293650D01*
X291550Y309450D02*
Y316150D01*
Y309450D02*
X293650D01*
Y316150D01*
X296550D02*
X298650D01*
X296550Y309450D02*
Y316150D01*
Y309450D02*
X298650D01*
Y316150D01*
X243600D02*
Y359850D01*
Y316150D02*
X306600D01*
Y359850D01*
X243600D02*
X306600D01*
X296550Y265850D02*
X298650D01*
Y272550D01*
X296550D02*
X298650D01*
X296550Y265850D02*
Y272550D01*
X291550Y265850D02*
X293650D01*
Y272550D01*
X291550D02*
X293650D01*
X291550Y265850D02*
Y272550D01*
X286550Y265850D02*
X288650D01*
Y272550D01*
X286550D02*
X288650D01*
X286550Y265850D02*
Y272550D01*
X281550Y265850D02*
X283650D01*
Y272550D01*
X281550D02*
X283650D01*
X281550Y265850D02*
Y272550D01*
X276550Y265850D02*
X278650D01*
Y272550D01*
X276550D02*
X278650D01*
X276550Y265850D02*
Y272550D01*
X271550Y265850D02*
X273650D01*
Y272550D01*
X271550D02*
X273650D01*
X271550Y265850D02*
Y272550D01*
X266550Y265850D02*
X268650D01*
Y272550D01*
X266550D02*
X268650D01*
X266550Y265850D02*
Y272550D01*
X261550Y265850D02*
X263650D01*
Y272550D01*
X261550D02*
X263650D01*
X261550Y265850D02*
Y272550D01*
X256550Y265850D02*
X258650D01*
Y272550D01*
X256550D02*
X258650D01*
X256550Y265850D02*
Y272550D01*
X251550Y265850D02*
X253650D01*
Y272550D01*
X251550D02*
X253650D01*
X251550Y265850D02*
Y272550D01*
Y222150D02*
X253650D01*
X251550Y215450D02*
Y222150D01*
Y215450D02*
X253650D01*
Y222150D01*
X256550D02*
X258650D01*
X256550Y215450D02*
Y222150D01*
Y215450D02*
X258650D01*
Y222150D01*
X261550D02*
X263650D01*
X261550Y215450D02*
Y222150D01*
Y215450D02*
X263650D01*
Y222150D01*
X266550D02*
X268650D01*
X266550Y215450D02*
Y222150D01*
Y215450D02*
X268650D01*
Y222150D01*
X271550D02*
X273650D01*
X271550Y215450D02*
Y222150D01*
Y215450D02*
X273650D01*
Y222150D01*
X276550D02*
X278650D01*
X276550Y215450D02*
Y222150D01*
Y215450D02*
X278650D01*
Y222150D01*
X281550D02*
X283650D01*
X281550Y215450D02*
Y222150D01*
Y215450D02*
X283650D01*
Y222150D01*
X286550D02*
X288650D01*
X286550Y215450D02*
Y222150D01*
Y215450D02*
X288650D01*
Y222150D01*
X291550D02*
X293650D01*
X291550Y215450D02*
Y222150D01*
Y215450D02*
X293650D01*
Y222150D01*
X296550D02*
X298650D01*
X296550Y215450D02*
Y222150D01*
Y215450D02*
X298650D01*
Y222150D01*
X243600D02*
Y265850D01*
Y222150D02*
X306600D01*
Y265850D01*
X243600D02*
X306600D01*
X296550Y171850D02*
X298650D01*
Y178550D01*
X296550D02*
X298650D01*
X296550Y171850D02*
Y178550D01*
X291550Y171850D02*
X293650D01*
Y178550D01*
X291550D02*
X293650D01*
X291550Y171850D02*
Y178550D01*
X286550Y171850D02*
X288650D01*
Y178550D01*
X286550D02*
X288650D01*
X286550Y171850D02*
Y178550D01*
X281550Y171850D02*
X283650D01*
Y178550D01*
X281550D02*
X283650D01*
X281550Y171850D02*
Y178550D01*
X276550Y171850D02*
X278650D01*
Y178550D01*
X276550D02*
X278650D01*
X276550Y171850D02*
Y178550D01*
X271550Y171850D02*
X273650D01*
Y178550D01*
X271550D02*
X273650D01*
X271550Y171850D02*
Y178550D01*
X266550Y171850D02*
X268650D01*
Y178550D01*
X266550D02*
X268650D01*
X266550Y171850D02*
Y178550D01*
X261550Y171850D02*
X263650D01*
Y178550D01*
X261550D02*
X263650D01*
X261550Y171850D02*
Y178550D01*
X256550Y171850D02*
X258650D01*
Y178550D01*
X256550D02*
X258650D01*
X256550Y171850D02*
Y178550D01*
X251550Y171850D02*
X253650D01*
Y178550D01*
X251550D02*
X253650D01*
X251550Y171850D02*
Y178550D01*
Y128150D02*
X253650D01*
X251550Y121450D02*
Y128150D01*
Y121450D02*
X253650D01*
Y128150D01*
X256550D02*
X258650D01*
X256550Y121450D02*
Y128150D01*
Y121450D02*
X258650D01*
Y128150D01*
X261550D02*
X263650D01*
X261550Y121450D02*
Y128150D01*
Y121450D02*
X263650D01*
Y128150D01*
X266550D02*
X268650D01*
X266550Y121450D02*
Y128150D01*
Y121450D02*
X268650D01*
Y128150D01*
X271550D02*
X273650D01*
X271550Y121450D02*
Y128150D01*
Y121450D02*
X273650D01*
Y128150D01*
X276550D02*
X278650D01*
X276550Y121450D02*
Y128150D01*
Y121450D02*
X278650D01*
Y128150D01*
X281550D02*
X283650D01*
X281550Y121450D02*
Y128150D01*
Y121450D02*
X283650D01*
Y128150D01*
X286550D02*
X288650D01*
X286550Y121450D02*
Y128150D01*
Y121450D02*
X288650D01*
Y128150D01*
X291550D02*
X293650D01*
X291550Y121450D02*
Y128150D01*
Y121450D02*
X293650D01*
Y128150D01*
X296550D02*
X298650D01*
X296550Y121450D02*
Y128150D01*
Y121450D02*
X298650D01*
Y128150D01*
X243600D02*
Y171850D01*
Y128150D02*
X306600D01*
Y171850D01*
X243600D02*
X306600D01*
D68*
X306500Y57200D02*
X305651Y56849D01*
X305300Y56000D01*
X305651Y55151D01*
X306500Y54800D01*
X306600Y339200D02*
X305751Y338848D01*
X305400Y338000D01*
X305751Y337152D01*
X306600Y336800D01*
Y245200D02*
X305751Y244848D01*
X305400Y244000D01*
X305751Y243151D01*
X306600Y242800D01*
Y151200D02*
X305751Y150848D01*
X305400Y150000D01*
X305751Y149152D01*
X306600Y148800D01*
D69*
X100453Y458626D02*
X100189Y459610D01*
X99468Y460331D01*
X98484Y460595D01*
X97500Y460331D01*
X96780Y459610D01*
X96516Y458626D01*
X96780Y457642D01*
X97500Y456921D01*
X98484Y456658D01*
X99468Y456921D01*
X100189Y457642D01*
X100453Y458626D01*
X292126Y414150D02*
X316535D01*
X292126Y440134D02*
X316535D01*
Y414150D02*
Y440134D01*
X292126Y414150D02*
Y440134D01*
Y446008D02*
Y471992D01*
X316535Y446008D02*
Y471992D01*
X292126D02*
X316535D01*
X292126Y446008D02*
X316535D01*
X265169Y463398D02*
X273831D01*
X265169Y457689D02*
X273831D01*
X265169D02*
Y463398D01*
X273831Y457689D02*
Y463398D01*
X263169Y413354D02*
X271831D01*
X263169Y407646D02*
X271831D01*
X263169D02*
Y413354D01*
X271831Y407646D02*
Y413354D01*
X263169Y406581D02*
X271831D01*
X263169Y400872D02*
X271831D01*
X263169D02*
Y406581D01*
X271831Y400872D02*
Y406581D01*
X172669Y404658D02*
X181331D01*
X172669Y399342D02*
X181331D01*
Y404658D01*
X172669Y399342D02*
Y404658D01*
X212842Y411669D02*
X218158D01*
X212842Y420331D02*
X218158D01*
Y411669D02*
Y420331D01*
X212842Y411669D02*
Y420331D01*
X216843Y399831D02*
X222158D01*
X216843Y391169D02*
X222158D01*
X216843D02*
Y399831D01*
X222158Y391169D02*
Y399831D01*
X213158Y396945D02*
Y405606D01*
X207842Y396945D02*
Y405606D01*
Y396945D02*
X213158D01*
X207842Y405606D02*
X213158D01*
X138342Y342669D02*
Y351331D01*
X143658Y342669D02*
Y351331D01*
X138342D02*
X143658D01*
X138342Y342669D02*
X143658D01*
X144669Y375193D02*
X153331D01*
X144669Y380508D02*
X153331D01*
X144669Y375193D02*
Y380508D01*
X153331Y375193D02*
Y380508D01*
X207169Y350842D02*
Y356157D01*
X215831Y350842D02*
Y356157D01*
X207169D02*
X215831D01*
X207169Y350842D02*
X215831D01*
X273831Y450646D02*
Y456354D01*
X265169Y450646D02*
Y456354D01*
Y450646D02*
X273831D01*
X265169Y456354D02*
X273831D01*
X255630Y22445D02*
X259370D01*
X255630Y15555D02*
X259370D01*
Y22445D01*
X255630Y15555D02*
Y22445D01*
X166869Y455046D02*
Y460754D01*
X175531Y455046D02*
Y460754D01*
X166869D02*
X175531D01*
X166869Y455046D02*
X175531D01*
X13331Y416342D02*
Y421658D01*
X4669Y416342D02*
Y421658D01*
Y416342D02*
X13331D01*
X4669Y421658D02*
X13331D01*
X300342Y402669D02*
X305658D01*
X300342Y411331D02*
X305658D01*
X300342Y402669D02*
Y411331D01*
X305658Y402669D02*
Y411331D01*
X77146Y381669D02*
Y390331D01*
X82854Y381669D02*
Y390331D01*
X77146Y381669D02*
X82854D01*
X77146Y390331D02*
X82854D01*
X94941Y407051D02*
X150059D01*
X94941Y462169D02*
X150059D01*
Y407051D02*
Y462169D01*
X94941Y407051D02*
Y462169D01*
X50331Y469146D02*
Y474854D01*
X41669Y469146D02*
Y474854D01*
X50331D01*
X41669Y469146D02*
X50331D01*
X36331Y466146D02*
Y471854D01*
X27669Y466146D02*
Y471854D01*
X36331D01*
X27669Y466146D02*
X36331D01*
X40331Y458146D02*
Y463854D01*
X31669Y458146D02*
Y463854D01*
X40331D01*
X31669Y458146D02*
X40331D01*
Y450146D02*
Y455854D01*
X31669Y450146D02*
Y455854D01*
X40331D01*
X31669Y450146D02*
X40331D01*
X41146Y446331D02*
X46854D01*
X41146Y437669D02*
X46854D01*
X41146D02*
Y446331D01*
X46854Y437669D02*
Y446331D01*
X90555Y446669D02*
X96264D01*
X90555Y455331D02*
X96264D01*
Y446669D02*
Y455331D01*
X90555Y446669D02*
Y455331D01*
X76146Y436331D02*
X81854D01*
X76146Y427669D02*
X81854D01*
X76146D02*
Y436331D01*
X81854Y427669D02*
Y436331D01*
X50331Y415146D02*
Y420854D01*
X41669Y415146D02*
Y420854D01*
Y415146D02*
X50331D01*
X41669Y420854D02*
X50331D01*
X57146Y409331D02*
X62854D01*
X57146Y400669D02*
X62854D01*
Y409331D01*
X57146Y400669D02*
Y409331D01*
X79146Y319669D02*
X84854D01*
X79146Y328331D02*
X84854D01*
X79146Y319669D02*
Y328331D01*
X84854Y319669D02*
Y328331D01*
X81146Y278669D02*
X86854D01*
X81146Y287331D02*
X86854D01*
X81146Y278669D02*
Y287331D01*
X86854Y278669D02*
Y287331D01*
X93244Y385331D02*
X98953D01*
X93244Y376669D02*
X98953D01*
Y385331D01*
X93244Y376669D02*
Y385331D01*
X240632Y543126D02*
Y551787D01*
X234923Y543126D02*
Y551787D01*
X240632D01*
X234923Y543126D02*
X240632D01*
X232728Y550126D02*
Y558787D01*
X227020Y550126D02*
Y558787D01*
X232728D01*
X227020Y550126D02*
X232728D01*
X222555Y562602D02*
X231217D01*
X222555Y568311D02*
X231217D01*
Y562602D02*
Y568311D01*
X222555Y562602D02*
Y568311D01*
X227020Y536126D02*
Y544787D01*
X232728Y536126D02*
Y544787D01*
X227020Y536126D02*
X232728D01*
X227020Y544787D02*
X232728D01*
X222555Y522602D02*
X231217D01*
X222555Y528311D02*
X231217D01*
Y522602D02*
Y528311D01*
X222555Y522602D02*
Y528311D01*
X240675Y583126D02*
Y591787D01*
X234966Y583126D02*
Y591787D01*
X240675D01*
X234966Y583126D02*
X240675D01*
X227020Y576126D02*
Y584787D01*
X232728Y576126D02*
Y584787D01*
X227020Y576126D02*
X232728D01*
X227020Y584787D02*
X232728D01*
X232728Y590126D02*
Y598787D01*
X227020Y590126D02*
Y598787D01*
X232728D01*
X227020Y590126D02*
X232728D01*
X194555Y568311D02*
X203217D01*
X194555Y562602D02*
X203217D01*
X194555D02*
Y568311D01*
X203217Y562602D02*
Y568311D01*
X222555Y602602D02*
X231217D01*
X222555Y608311D02*
X231217D01*
Y602602D02*
Y608311D01*
X222555Y602602D02*
Y608311D01*
X194555Y608311D02*
X203217D01*
X194555Y602602D02*
X203217D01*
X194555D02*
Y608311D01*
X203217Y602602D02*
Y608311D01*
X147161Y592406D02*
X155823D01*
X147161Y598114D02*
X155823D01*
Y592406D02*
Y598114D01*
X147161Y592406D02*
Y598114D01*
X119161Y598114D02*
X127823D01*
X119161Y592406D02*
X127823D01*
X119161D02*
Y598114D01*
X127823Y592406D02*
Y598114D01*
X117638Y601929D02*
Y610591D01*
X123346Y601929D02*
Y610591D01*
X117638Y601929D02*
X123346D01*
X117638Y610591D02*
X123346D01*
X109638Y608929D02*
Y617591D01*
X115347Y608929D02*
Y617591D01*
X109638Y608929D02*
X115347D01*
X109638Y617591D02*
X115347D01*
X123346Y615929D02*
Y624591D01*
X117638Y615929D02*
Y624591D01*
X123346D01*
X117638Y615929D02*
X123346D01*
Y575929D02*
Y584591D01*
X117638Y575929D02*
Y584591D01*
X123346D01*
X117638Y575929D02*
X123346D01*
X147161Y552406D02*
X155823D01*
X147161Y558114D02*
X155823D01*
Y552406D02*
Y558114D01*
X147161Y552406D02*
Y558114D01*
X117638Y561929D02*
Y570591D01*
X123346Y561929D02*
Y570591D01*
X117638Y561929D02*
X123346D01*
X117638Y570591D02*
X123346D01*
X109703Y568929D02*
Y577591D01*
X115411Y568929D02*
Y577591D01*
X109703Y568929D02*
X115411D01*
X109703Y577591D02*
X115411D01*
X119161Y558114D02*
X127823D01*
X119161Y552406D02*
X127823D01*
X119161D02*
Y558114D01*
X127823Y552406D02*
Y558114D01*
X194555Y528382D02*
X203217D01*
X194555Y522673D02*
X203217D01*
X194555D02*
Y528382D01*
X203217Y522673D02*
Y528382D01*
X240740Y623126D02*
Y631787D01*
X235032Y623126D02*
Y631787D01*
X240740D01*
X235032Y623126D02*
X240740D01*
X227075Y616126D02*
Y624787D01*
X232784Y616126D02*
Y624787D01*
X227075Y616126D02*
X232784D01*
X227075Y624787D02*
X232784D01*
X147161Y632528D02*
X155823D01*
X147161Y638236D02*
X155823D01*
Y632528D02*
Y638236D01*
X147161Y632528D02*
Y638236D01*
X232728Y630126D02*
Y638787D01*
X227020Y630126D02*
Y638787D01*
X232728D01*
X227020Y630126D02*
X232728D01*
X222555Y642602D02*
X231217D01*
X222555Y648311D02*
X231217D01*
Y642602D02*
Y648311D01*
X222555Y642602D02*
Y648311D01*
X194555Y648311D02*
X203217D01*
X194555Y642602D02*
X203217D01*
X194555D02*
Y648311D01*
X203217Y642602D02*
Y648311D01*
X119161Y638236D02*
X127823D01*
X119161Y632528D02*
X127823D01*
X119161D02*
Y638236D01*
X127823Y632528D02*
Y638236D01*
X117650Y642051D02*
Y650713D01*
X123358Y642051D02*
Y650713D01*
X117650Y642051D02*
X123358D01*
X117650Y650713D02*
X123358D01*
X109638Y649051D02*
Y657713D01*
X115347Y649051D02*
Y657713D01*
X109638Y649051D02*
X115347D01*
X109638Y657713D02*
X115347D01*
X123358Y656051D02*
Y664713D01*
X117650Y656051D02*
Y664713D01*
X123358D01*
X117650Y656051D02*
X123358D01*
X123346Y535689D02*
Y544350D01*
X117638Y535689D02*
Y544350D01*
X123346D01*
X117638Y535689D02*
X123346D01*
X109638Y528473D02*
Y537134D01*
X115346Y528473D02*
Y537134D01*
X109638Y528473D02*
X115346D01*
X109638Y537134D02*
X115346D01*
X117638Y521929D02*
Y530591D01*
X123346Y521929D02*
Y530591D01*
X117638Y521929D02*
X123346D01*
X117638Y530591D02*
X123346D01*
X139169Y512146D02*
X147831D01*
X139169Y517854D02*
X147831D01*
Y512146D02*
Y517854D01*
X139169Y512146D02*
Y517854D01*
X119161Y518114D02*
X127823D01*
X119161Y512405D02*
X127823D01*
X119161D02*
Y518114D01*
X127823Y512405D02*
Y518114D01*
X232784Y510126D02*
Y518787D01*
X227075Y510126D02*
Y518787D01*
X232784D01*
X227075Y510126D02*
X232784D01*
X240740Y503126D02*
Y511787D01*
X235032Y503126D02*
Y511787D01*
X240740D01*
X235032Y503126D02*
X240740D01*
X227020Y496126D02*
Y504787D01*
X232728Y496126D02*
Y504787D01*
X227020Y496126D02*
X232728D01*
X227020Y504787D02*
X232728D01*
X144669Y393146D02*
X153331D01*
X144669Y398854D02*
X153331D01*
Y393146D02*
Y398854D01*
X144669Y393146D02*
Y398854D01*
X104669Y435146D02*
Y440854D01*
X113331Y435146D02*
Y440854D01*
X104669Y435146D02*
X113331D01*
X104669Y440854D02*
X113331D01*
X104669Y427146D02*
Y432854D01*
X113331Y427146D02*
Y432854D01*
X104669Y427146D02*
X113331D01*
X104669Y432854D02*
X113331D01*
X104669Y419146D02*
Y424854D01*
X113331Y419146D02*
Y424854D01*
X104669Y419146D02*
X113331D01*
X104669Y424854D02*
X113331D01*
X104669Y411146D02*
Y416854D01*
X113331Y411146D02*
Y416854D01*
X104669Y411146D02*
X113331D01*
X104669Y416854D02*
X113331D01*
X139331Y411146D02*
Y416854D01*
X130669Y411146D02*
Y416854D01*
X139331D01*
X130669Y411146D02*
X139331D01*
Y419146D02*
Y424854D01*
X130669Y419146D02*
Y424854D01*
X139331D01*
X130669Y419146D02*
X139331D01*
Y427146D02*
Y432854D01*
X130669Y427146D02*
Y432854D01*
X139331D01*
X130669Y427146D02*
X139331D01*
X135146Y453331D02*
X140854D01*
X135146Y444669D02*
X140854D01*
X135146D02*
Y453331D01*
X140854Y444669D02*
Y453331D01*
X127146D02*
X132854D01*
X127146Y444669D02*
X132854D01*
X127146D02*
Y453331D01*
X132854Y444669D02*
Y453331D01*
X119146D02*
X124854D01*
X119146Y444669D02*
X124854D01*
X119146D02*
Y453331D01*
X124854Y444669D02*
Y453331D01*
X111146D02*
X116854D01*
X111146Y444669D02*
X116854D01*
X111146D02*
Y453331D01*
X116854Y444669D02*
Y453331D01*
X103146D02*
X108854D01*
X103146Y444669D02*
X108854D01*
X103146D02*
Y453331D01*
X108854Y444669D02*
Y453331D01*
X139331Y435146D02*
Y440854D01*
X130669Y435146D02*
Y440854D01*
X139331D01*
X130669Y435146D02*
X139331D01*
X284669Y473343D02*
X293331D01*
X284669Y478657D02*
X293331D01*
Y473343D02*
Y478657D01*
X284669Y473343D02*
Y478657D01*
X271342Y469669D02*
Y478331D01*
X276658Y469669D02*
Y478331D01*
X271342Y469669D02*
X276658D01*
X271342Y478331D02*
X276658D01*
X265169Y449276D02*
X273831D01*
X265169Y443567D02*
X273831D01*
X265169D02*
Y449276D01*
X273831Y443567D02*
Y449276D01*
X271342Y430279D02*
Y438941D01*
X276658Y430279D02*
Y438941D01*
X271342Y430279D02*
X276658D01*
X271342Y438941D02*
X276658D01*
X268657Y431669D02*
Y440331D01*
X263342Y431669D02*
Y440331D01*
X268657D01*
X263342Y431669D02*
X268657D01*
X265669Y421343D02*
X274331D01*
X265669Y426657D02*
X274331D01*
Y421343D02*
Y426657D01*
X265669Y421343D02*
Y426657D01*
X263169Y419941D02*
X271831D01*
X263169Y414232D02*
X271831D01*
X263169D02*
Y419941D01*
X271831Y414232D02*
Y419941D01*
X307669Y473146D02*
X316331D01*
X307669Y478854D02*
X316331D01*
Y473146D02*
Y478854D01*
X307669Y473146D02*
Y478854D01*
X308146Y402669D02*
Y411331D01*
X313854Y402669D02*
Y411331D01*
X308146Y402669D02*
X313854D01*
X308146Y411331D02*
X313854D01*
X270730Y377555D02*
X274470D01*
X270730Y384445D02*
X274470D01*
X270730Y377555D02*
Y384445D01*
X274470Y377555D02*
Y384445D01*
X255730Y297555D02*
Y304445D01*
X259470Y297555D02*
Y304445D01*
X255730Y297555D02*
X259470D01*
X255730Y304445D02*
X259470D01*
X274470Y283555D02*
Y290445D01*
X270730Y283555D02*
Y290445D01*
X274470D01*
X270730Y283555D02*
X274470D01*
X255730Y203555D02*
Y210445D01*
X259470Y203555D02*
Y210445D01*
X255730Y203555D02*
X259470D01*
X255730Y210445D02*
X259470D01*
X274470Y189555D02*
Y196445D01*
X270730Y189555D02*
Y196445D01*
X274470D01*
X270730Y189555D02*
X274470D01*
X255730Y109555D02*
Y116445D01*
X259470Y109555D02*
Y116445D01*
X255730Y109555D02*
X259470D01*
X255730Y116445D02*
X259470D01*
X274370Y95555D02*
Y102445D01*
X270630Y95555D02*
Y102445D01*
X274370D01*
X270630Y95555D02*
X274370D01*
X30343Y63669D02*
Y72331D01*
X35658Y63669D02*
Y72331D01*
X30343Y63669D02*
X35658D01*
X30343Y72331D02*
X35658D01*
X58146Y63669D02*
Y72331D01*
X63854Y63669D02*
Y72331D01*
X58146Y63669D02*
X63854D01*
X58146Y72331D02*
X63854D01*
X82854Y411169D02*
Y419831D01*
X77146Y411169D02*
Y419831D01*
X82854D01*
X77146Y411169D02*
X82854D01*
X73854D02*
Y419831D01*
X68146Y411169D02*
Y419831D01*
X73854D01*
X68146Y411169D02*
X73854D01*
X50343Y444409D02*
Y453071D01*
X55658Y444409D02*
Y453071D01*
X50343Y444409D02*
X55658D01*
X50343Y453071D02*
X55658D01*
X34669Y377343D02*
X43331D01*
X34669Y382658D02*
X43331D01*
Y377343D02*
Y382658D01*
X34669Y377343D02*
Y382658D01*
Y369342D02*
X43331D01*
X34669Y374658D02*
X43331D01*
Y369342D02*
Y374658D01*
X34669Y369342D02*
Y374658D01*
Y334343D02*
X43331D01*
X34669Y339657D02*
X43331D01*
Y334343D02*
Y339657D01*
X34669Y334343D02*
Y339657D01*
Y326343D02*
X43331D01*
X34669Y331658D02*
X43331D01*
Y326343D02*
Y331658D01*
X34669Y326343D02*
Y331658D01*
Y292342D02*
X43331D01*
X34669Y297657D02*
X43331D01*
Y292342D02*
Y297657D01*
X34669Y292342D02*
Y297657D01*
Y284343D02*
Y289657D01*
X43331Y284343D02*
Y289657D01*
X34669D02*
X43331D01*
X34669Y284343D02*
X43331D01*
X34669Y249342D02*
X43331D01*
X34669Y254658D02*
X43331D01*
Y249342D02*
Y254658D01*
X34669Y249342D02*
Y254658D01*
Y241342D02*
X43331D01*
X34669Y246657D02*
X43331D01*
Y241342D02*
Y246657D01*
X34669Y241342D02*
Y246657D01*
Y207343D02*
X43331D01*
X34669Y212657D02*
X43331D01*
Y207343D02*
Y212657D01*
X34669Y207343D02*
Y212657D01*
Y199343D02*
X43331D01*
X34669Y204658D02*
X43331D01*
Y199343D02*
Y204658D01*
X34669Y199343D02*
Y204658D01*
Y164342D02*
X43331D01*
X34669Y169658D02*
X43331D01*
Y164342D02*
Y169658D01*
X34669Y164342D02*
Y169658D01*
Y156342D02*
X43331D01*
X34669Y161658D02*
X43331D01*
Y156342D02*
Y161658D01*
X34669Y156342D02*
Y161658D01*
M02*
