G04*
G04 #@! TF.GenerationSoftware,Altium Limited,Altium Designer,19.0.15 (446)*
G04*
G04 Layer_Color=16711935*
%FSLAX25Y25*%
%MOIN*%
G70*
G01*
G75*
%ADD22R,0.05328X0.06509*%
%ADD23R,0.04934X0.06312*%
%ADD33R,0.06312X0.04934*%
%ADD34R,0.06509X0.05328*%
%ADD37R,0.06800X0.06800*%
%ADD38C,0.06800*%
%ADD39R,0.06800X0.06800*%
%ADD40C,0.30800*%
%ADD41C,0.10642*%
%ADD42C,0.04000*%
%ADD43C,0.03300*%
D22*
X49543Y472000D02*
D03*
X42457D02*
D03*
X35543Y469000D02*
D03*
X28457D02*
D03*
X39543Y461000D02*
D03*
X32457D02*
D03*
X39543Y453000D02*
D03*
X32457D02*
D03*
X105457Y438000D02*
D03*
X112543D02*
D03*
X105457Y430000D02*
D03*
X112543D02*
D03*
X105457Y422000D02*
D03*
X112543D02*
D03*
X105457Y414000D02*
D03*
X112543D02*
D03*
X138543Y414000D02*
D03*
X131457D02*
D03*
X138543Y422000D02*
D03*
X131457D02*
D03*
X138543Y430000D02*
D03*
X131457D02*
D03*
X138543Y438000D02*
D03*
X131457D02*
D03*
D23*
X180740Y402000D02*
D03*
X173260D02*
D03*
X145260Y377850D02*
D03*
X152740D02*
D03*
D33*
X215500Y412260D02*
D03*
Y419740D02*
D03*
X219500Y399240D02*
D03*
Y391760D02*
D03*
X210500Y397535D02*
D03*
Y405016D02*
D03*
X141000Y350740D02*
D03*
Y343260D02*
D03*
D34*
X44000Y445543D02*
D03*
Y438457D02*
D03*
X93410Y447457D02*
D03*
Y454543D02*
D03*
X79000Y435543D02*
D03*
Y428457D02*
D03*
X138000Y452543D02*
D03*
Y445457D02*
D03*
X130000Y452543D02*
D03*
Y445457D02*
D03*
X122000Y452543D02*
D03*
Y445457D02*
D03*
X114000Y452543D02*
D03*
Y445457D02*
D03*
X106000Y452543D02*
D03*
Y445457D02*
D03*
D37*
X189500Y475000D02*
D03*
X341500Y503500D02*
D03*
X16500Y349500D02*
D03*
X336100Y354000D02*
D03*
X337000Y459000D02*
D03*
X16500Y53000D02*
D03*
Y95000D02*
D03*
X337000Y437000D02*
D03*
Y414913D02*
D03*
X336100Y332000D02*
D03*
Y261000D02*
D03*
Y239000D02*
D03*
Y166000D02*
D03*
Y144000D02*
D03*
X336000Y79000D02*
D03*
Y57500D02*
D03*
X16500Y307000D02*
D03*
Y264500D02*
D03*
Y222000D02*
D03*
Y180000D02*
D03*
Y137000D02*
D03*
D38*
X189500Y485000D02*
D03*
Y495000D02*
D03*
X341500Y473500D02*
D03*
Y483500D02*
D03*
Y493500D02*
D03*
X281000Y851000D02*
D03*
X271000D02*
D03*
X239000D02*
D03*
X249000D02*
D03*
X207000D02*
D03*
X217000D02*
D03*
X185000D02*
D03*
X175000D02*
D03*
X153000D02*
D03*
X143000D02*
D03*
X111000D02*
D03*
X121000D02*
D03*
X89000D02*
D03*
X79000D02*
D03*
X16500Y359500D02*
D03*
Y369500D02*
D03*
Y379500D02*
D03*
X336100Y344000D02*
D03*
X337000Y449000D02*
D03*
X149000Y40000D02*
D03*
X159000D02*
D03*
X189000D02*
D03*
X179000D02*
D03*
X169000D02*
D03*
X16500Y63000D02*
D03*
Y73000D02*
D03*
Y83000D02*
D03*
Y105000D02*
D03*
Y115000D02*
D03*
Y125000D02*
D03*
X337000Y427000D02*
D03*
Y404913D02*
D03*
X336100Y322000D02*
D03*
Y251000D02*
D03*
Y229000D02*
D03*
Y156000D02*
D03*
Y134000D02*
D03*
X336000Y69000D02*
D03*
Y47500D02*
D03*
X16500Y337000D02*
D03*
Y327000D02*
D03*
Y317000D02*
D03*
Y294500D02*
D03*
Y284500D02*
D03*
Y274500D02*
D03*
Y252000D02*
D03*
Y242000D02*
D03*
Y232000D02*
D03*
Y210000D02*
D03*
Y200000D02*
D03*
Y190000D02*
D03*
Y167000D02*
D03*
Y157000D02*
D03*
Y147000D02*
D03*
D39*
X261000Y851000D02*
D03*
X229000D02*
D03*
X197000D02*
D03*
X165000D02*
D03*
X133000D02*
D03*
X101000D02*
D03*
X69000D02*
D03*
X199000Y40000D02*
D03*
D40*
X174500Y371500D02*
D03*
X21000Y844000D02*
D03*
X329000D02*
D03*
Y21000D02*
D03*
X21000D02*
D03*
D41*
X316150Y510669D02*
D03*
Y572874D02*
D03*
X263000Y568543D02*
D03*
Y515000D02*
D03*
X33850Y545205D02*
D03*
Y483000D02*
D03*
X87000Y487331D02*
D03*
Y540874D02*
D03*
Y624874D02*
D03*
Y571331D02*
D03*
X33850Y567000D02*
D03*
Y629205D02*
D03*
Y713205D02*
D03*
Y651000D02*
D03*
X87000Y655331D02*
D03*
Y708874D02*
D03*
Y792874D02*
D03*
Y739331D02*
D03*
X33850Y735000D02*
D03*
Y797205D02*
D03*
X316150Y755669D02*
D03*
Y817874D02*
D03*
X263000Y813543D02*
D03*
Y760000D02*
D03*
Y678228D02*
D03*
Y731772D02*
D03*
X316150Y736102D02*
D03*
Y673898D02*
D03*
Y592354D02*
D03*
Y654559D02*
D03*
X263000Y650228D02*
D03*
Y596685D02*
D03*
D42*
X298000Y419000D02*
D03*
X308457D02*
D03*
X319000D02*
D03*
Y427000D02*
D03*
X308373Y427189D02*
D03*
X298000Y427000D02*
D03*
X308000Y435000D02*
D03*
X319000D02*
D03*
X298000D02*
D03*
X308500Y451000D02*
D03*
X298871D02*
D03*
X318000D02*
D03*
Y459000D02*
D03*
X298871D02*
D03*
X308457D02*
D03*
Y467000D02*
D03*
X299000D02*
D03*
X318000D02*
D03*
X320000Y476000D02*
D03*
X277100Y384000D02*
D03*
X277000Y378000D02*
D03*
X278000Y196150D02*
D03*
X277600Y189850D02*
D03*
X213886Y471300D02*
D03*
X261500Y460000D02*
D03*
Y453500D02*
D03*
X219500Y405130D02*
D03*
X261500Y446000D02*
D03*
X279000Y477500D02*
D03*
X259393Y404500D02*
D03*
Y410500D02*
D03*
X242000Y32000D02*
D03*
X261000Y432000D02*
D03*
X77000Y327000D02*
D03*
X277500Y37000D02*
D03*
X69000Y71740D02*
D03*
X112500Y767500D02*
D03*
X122000Y440000D02*
D03*
X145000Y414000D02*
D03*
X118000Y438000D02*
D03*
Y414000D02*
D03*
X126000Y438000D02*
D03*
Y430000D02*
D03*
Y422000D02*
D03*
Y414000D02*
D03*
X118000Y422000D02*
D03*
Y430000D02*
D03*
X230000Y490000D02*
D03*
X236000Y525000D02*
D03*
Y565000D02*
D03*
Y605000D02*
D03*
X230152Y651000D02*
D03*
X120000Y670000D02*
D03*
X114000Y635000D02*
D03*
Y595260D02*
D03*
Y555000D02*
D03*
X29000Y475000D02*
D03*
X35000Y444858D02*
D03*
X136492Y555260D02*
D03*
Y595260D02*
D03*
X136492Y635260D02*
D03*
X213886Y645457D02*
D03*
Y605457D02*
D03*
Y565457D02*
D03*
X213886Y525457D02*
D03*
X141121Y521452D02*
D03*
X141492Y555260D02*
D03*
Y595260D02*
D03*
Y635260D02*
D03*
X208886Y645457D02*
D03*
Y605457D02*
D03*
Y565457D02*
D03*
Y525457D02*
D03*
X37000Y418000D02*
D03*
X55000Y397000D02*
D03*
X70000Y382000D02*
D03*
X101000Y377000D02*
D03*
X79000Y286000D02*
D03*
X65000Y416000D02*
D03*
X80000Y407776D02*
D03*
X292500Y47000D02*
D03*
X114492Y515260D02*
D03*
X131000Y515531D02*
D03*
X253000Y116000D02*
D03*
Y210000D02*
D03*
Y304000D02*
D03*
X277100Y96000D02*
D03*
X277000Y284000D02*
D03*
X152543Y391000D02*
D03*
X316150Y403500D02*
D03*
X259500Y417130D02*
D03*
X284000Y412000D02*
D03*
X253000Y16000D02*
D03*
X253100Y110000D02*
D03*
Y204000D02*
D03*
Y298000D02*
D03*
X277000Y102000D02*
D03*
X277100Y290000D02*
D03*
X280000Y65000D02*
D03*
Y56000D02*
D03*
Y47000D02*
D03*
X265000D02*
D03*
Y56000D02*
D03*
Y65000D02*
D03*
X252500Y56000D02*
D03*
X292500D02*
D03*
Y65000D02*
D03*
X252500Y47000D02*
D03*
Y65000D02*
D03*
X265100Y159000D02*
D03*
Y150000D02*
D03*
Y141000D02*
D03*
X280100D02*
D03*
Y150000D02*
D03*
Y159000D02*
D03*
X292600Y150000D02*
D03*
Y159000D02*
D03*
Y141000D02*
D03*
X252600D02*
D03*
Y150000D02*
D03*
Y159000D02*
D03*
X280100Y253000D02*
D03*
Y244000D02*
D03*
Y235000D02*
D03*
X265100D02*
D03*
Y244000D02*
D03*
Y253000D02*
D03*
X292600Y235000D02*
D03*
Y244000D02*
D03*
Y253000D02*
D03*
X252600Y244000D02*
D03*
Y235000D02*
D03*
Y253000D02*
D03*
X280100Y347000D02*
D03*
X265100D02*
D03*
X280100Y329000D02*
D03*
X265100D02*
D03*
X280100Y338000D02*
D03*
X265100D02*
D03*
X292600D02*
D03*
Y347000D02*
D03*
Y329000D02*
D03*
X252600Y338000D02*
D03*
Y329000D02*
D03*
Y347000D02*
D03*
X144043Y509000D02*
D03*
D43*
X105000Y457795D02*
D03*
X152500Y478500D02*
D03*
X156000Y481217D02*
D03*
X163100Y461200D02*
D03*
X180100Y457900D02*
D03*
X186000Y505457D02*
D03*
X183000Y508457D02*
D03*
X219750Y387250D02*
D03*
X207800Y347500D02*
D03*
X134500Y343024D02*
D03*
X141000Y356500D02*
D03*
Y365500D02*
D03*
X186000Y402000D02*
D03*
X210500Y386500D02*
D03*
X197500Y430500D02*
D03*
X193000Y434000D02*
D03*
X215500Y425000D02*
D03*
X61000Y58000D02*
D03*
X199000Y498000D02*
D03*
X99600Y471200D02*
D03*
X84900Y442900D02*
D03*
X157000Y527024D02*
D03*
X157500Y567024D02*
D03*
Y607024D02*
D03*
Y647146D02*
D03*
X192500Y633693D02*
D03*
Y593693D02*
D03*
Y553693D02*
D03*
Y513693D02*
D03*
X186000Y626016D02*
D03*
X183000Y628766D02*
D03*
X213886Y633457D02*
D03*
Y593457D02*
D03*
X186000Y585457D02*
D03*
X183000Y588457D02*
D03*
X186000Y545457D02*
D03*
X183000Y548457D02*
D03*
X213886Y553457D02*
D03*
Y513457D02*
D03*
X164520Y655780D02*
D03*
X167563Y652779D02*
D03*
X164520Y615779D02*
D03*
X167563Y612780D02*
D03*
Y572780D02*
D03*
X164563Y575779D02*
D03*
Y539000D02*
D03*
X167000Y536000D02*
D03*
X85000Y455000D02*
D03*
X108003Y365000D02*
D03*
X113000Y370000D02*
D03*
X100000Y422000D02*
D03*
X137000Y507000D02*
D03*
X139000Y458000D02*
D03*
X100000Y414000D02*
D03*
Y438000D02*
D03*
Y452000D02*
D03*
X144000Y453000D02*
D03*
X86000Y425000D02*
D03*
X136492Y647260D02*
D03*
Y607260D02*
D03*
Y567260D02*
D03*
Y527260D02*
D03*
X119949Y385000D02*
D03*
X117000Y388000D02*
D03*
X123000Y399000D02*
D03*
X114000Y391000D02*
D03*
X98000Y397000D02*
D03*
X102000Y391000D02*
D03*
X99000Y393000D02*
D03*
X105000Y388000D02*
D03*
X64000Y444929D02*
D03*
X49000Y460000D02*
D03*
X47000Y457000D02*
D03*
X99000Y428000D02*
D03*
X45000Y454000D02*
D03*
X57000Y472000D02*
D03*
X55000Y469000D02*
D03*
X53000Y466000D02*
D03*
X51000Y463000D02*
D03*
X93000Y131000D02*
D03*
Y116031D02*
D03*
X161492Y595260D02*
D03*
Y635382D02*
D03*
X202886Y540457D02*
D03*
Y580457D02*
D03*
Y620457D02*
D03*
X147492Y660260D02*
D03*
Y620260D02*
D03*
Y580260D02*
D03*
Y540260D02*
D03*
X188886Y525528D02*
D03*
Y565457D02*
D03*
Y605457D02*
D03*
Y645457D02*
D03*
X161492Y555260D02*
D03*
M02*
