G04*
G04 #@! TF.GenerationSoftware,Altium Limited,Altium Designer,19.0.15 (446)*
G04*
G04 Layer_Physical_Order=3*
G04 Layer_Color=36540*
%FSLAX25Y25*%
%MOIN*%
G70*
G01*
G75*
%ADD59C,0.03200*%
%ADD61R,0.06000X0.06000*%
%ADD62C,0.06000*%
%ADD63R,0.06000X0.06000*%
%ADD66C,0.03200*%
%ADD67C,0.02500*%
G36*
X346500Y498109D02*
X346463Y498020D01*
X344331D01*
X344298Y498013D01*
X344264Y498017D01*
X344199Y498000D01*
X338801D01*
X338736Y498017D01*
X338702Y498013D01*
X338669Y498020D01*
X252600D01*
X252502Y498000D01*
X252000D01*
X234020Y480020D01*
X234000D01*
X233610Y479942D01*
X233279Y479721D01*
X233058Y479390D01*
X232980Y479000D01*
Y444000D01*
X233000Y443901D01*
Y443000D01*
X233906Y442999D01*
X234000Y442980D01*
X255235D01*
X346500Y442900D01*
Y411000D01*
X341000D01*
Y418913D01*
X333000D01*
Y411000D01*
X326000D01*
X319145Y404145D01*
X318621Y404328D01*
X318421Y404811D01*
X318004Y405354D01*
X317461Y405771D01*
X316828Y406033D01*
X316150Y406122D01*
X315471Y406033D01*
X314838Y405771D01*
X314295Y405354D01*
X313878Y404811D01*
X313616Y404179D01*
X313527Y403500D01*
X313616Y402821D01*
X313878Y402189D01*
X314295Y401646D01*
X314838Y401229D01*
X315322Y401029D01*
X315505Y400505D01*
X308000Y393000D01*
X306000Y395000D01*
X216500D01*
Y29653D01*
X216038Y29462D01*
X214500Y31000D01*
X63000D01*
Y56943D01*
X63119Y57122D01*
X63294Y58000D01*
X63119Y58878D01*
X63000Y59057D01*
Y381500D01*
X44500Y400000D01*
X3391D01*
Y861609D01*
X346500D01*
Y498109D01*
D02*
G37*
G36*
X346609Y444000D02*
X263873D01*
X263626Y444500D01*
X263771Y444689D01*
X264033Y445321D01*
X264122Y446000D01*
X264033Y446679D01*
X263771Y447311D01*
X263354Y447854D01*
X262811Y448271D01*
X262179Y448533D01*
X261500Y448622D01*
X260821Y448533D01*
X260189Y448271D01*
X259646Y447854D01*
X259229Y447311D01*
X258967Y446679D01*
X258878Y446000D01*
X258967Y445321D01*
X259229Y444689D01*
X259374Y444500D01*
X259127Y444000D01*
X234000D01*
Y479000D01*
X234600D01*
X252600Y497000D01*
X338669D01*
X338839Y496500D01*
X338647Y496353D01*
X338006Y495517D01*
X337603Y494544D01*
X337466Y493500D01*
X337603Y492456D01*
X338006Y491483D01*
X338647Y490647D01*
X339483Y490006D01*
X340456Y489603D01*
X341500Y489466D01*
X342544Y489603D01*
X343517Y490006D01*
X344353Y490647D01*
X344994Y491483D01*
X345397Y492456D01*
X345534Y493500D01*
X345397Y494544D01*
X344994Y495517D01*
X344353Y496353D01*
X344161Y496500D01*
X344331Y497000D01*
X346609D01*
Y444000D01*
D02*
G37*
G36*
X346464Y409468D02*
X346000Y3500D01*
X3500D01*
Y398449D01*
X3622Y398500D01*
X44000D01*
Y398000D01*
X61000Y381000D01*
Y60294D01*
X60122Y60119D01*
X59378Y59622D01*
X58881Y58878D01*
X58706Y58000D01*
X58881Y57122D01*
X59378Y56378D01*
X60122Y55881D01*
X61000Y55706D01*
Y29000D01*
X215058D01*
X215317Y28741D01*
X215648Y28520D01*
X216038Y28442D01*
X216428Y28520D01*
X216890Y28711D01*
X216890Y28711D01*
X217221Y28932D01*
X217221Y28932D01*
X217698Y28802D01*
X218500Y28000D01*
Y384824D01*
X219000Y385105D01*
X219750Y384956D01*
X220628Y385131D01*
X221372Y385628D01*
X221869Y386372D01*
X222044Y387250D01*
X221869Y388128D01*
X221372Y388872D01*
X220628Y389370D01*
X219750Y389544D01*
X219000Y389395D01*
X218500Y389676D01*
Y392854D01*
X306704D01*
X307279Y392279D01*
X307610Y392058D01*
X308000Y391980D01*
X308390Y392058D01*
X308721Y392279D01*
X309296Y392854D01*
X309354D01*
X326321Y409821D01*
X346110D01*
X346464Y409468D01*
D02*
G37*
%LPC*%
G36*
X265000Y855000D02*
X261500D01*
Y851500D01*
X265000D01*
Y855000D01*
D02*
G37*
G36*
X233000D02*
X229500D01*
Y851500D01*
X233000D01*
Y855000D01*
D02*
G37*
G36*
X201000D02*
X197500D01*
Y851500D01*
X201000D01*
Y855000D01*
D02*
G37*
G36*
X134400Y855023D02*
X134230Y855000D01*
X133500D01*
Y851500D01*
X137000D01*
Y852229D01*
X137022Y852400D01*
X137000Y852571D01*
Y855000D01*
X134571D01*
X134400Y855023D01*
D02*
G37*
G36*
X105000Y855000D02*
X101500D01*
Y851500D01*
X105000D01*
Y855000D01*
D02*
G37*
G36*
X260500D02*
X257000D01*
Y851500D01*
X260500D01*
Y855000D01*
D02*
G37*
G36*
X228500D02*
X225000D01*
Y851500D01*
X228500D01*
Y855000D01*
D02*
G37*
G36*
X196500D02*
X193000D01*
Y851500D01*
X196500D01*
Y855000D01*
D02*
G37*
G36*
X164500D02*
X161000D01*
Y851500D01*
X164500D01*
Y855000D01*
D02*
G37*
G36*
X132500D02*
X129000D01*
Y851500D01*
X132500D01*
Y855000D01*
D02*
G37*
G36*
X100500D02*
X97000D01*
Y851500D01*
X100500D01*
Y855000D01*
D02*
G37*
G36*
X73000D02*
X69500D01*
Y851500D01*
X73000D01*
Y855000D01*
D02*
G37*
G36*
X68500D02*
X65000D01*
Y851500D01*
X68500D01*
Y855000D01*
D02*
G37*
G36*
X265000Y850500D02*
X261500D01*
Y847000D01*
X265000D01*
Y850500D01*
D02*
G37*
G36*
X260500D02*
X257000D01*
Y847000D01*
X260500D01*
Y850500D01*
D02*
G37*
G36*
X233000D02*
X229500D01*
Y847000D01*
X233000D01*
Y850500D01*
D02*
G37*
G36*
X228500D02*
X225000D01*
Y847000D01*
X228500D01*
Y850500D01*
D02*
G37*
G36*
X201000D02*
X197500D01*
Y847000D01*
X201000D01*
Y850500D01*
D02*
G37*
G36*
X196500D02*
X193000D01*
Y847000D01*
X196500D01*
Y850500D01*
D02*
G37*
G36*
X164500D02*
X161000D01*
Y847000D01*
X164500D01*
Y850500D01*
D02*
G37*
G36*
X137000D02*
X133500D01*
Y847000D01*
X137000D01*
Y850500D01*
D02*
G37*
G36*
X132500D02*
X129000D01*
Y847000D01*
X132500D01*
Y850500D01*
D02*
G37*
G36*
X105000D02*
X101500D01*
Y847000D01*
X105000D01*
Y850500D01*
D02*
G37*
G36*
X100500D02*
X97000D01*
Y847000D01*
X100500D01*
Y850500D01*
D02*
G37*
G36*
X73000Y850500D02*
X69500D01*
Y847000D01*
X73000D01*
Y850500D01*
D02*
G37*
G36*
X68500D02*
X65000D01*
Y847000D01*
X68500D01*
Y850500D01*
D02*
G37*
G36*
X281000Y855035D02*
X279956Y854897D01*
X278983Y854494D01*
X278147Y853853D01*
X277506Y853017D01*
X277103Y852044D01*
X276965Y851000D01*
X277103Y849956D01*
X277506Y848983D01*
X278147Y848147D01*
X278983Y847506D01*
X279956Y847103D01*
X281000Y846966D01*
X282044Y847103D01*
X283017Y847506D01*
X283853Y848147D01*
X284494Y848983D01*
X284897Y849956D01*
X285034Y851000D01*
X284897Y852044D01*
X284494Y853017D01*
X283853Y853853D01*
X283017Y854494D01*
X282044Y854897D01*
X281000Y855035D01*
D02*
G37*
G36*
X271000D02*
X269956Y854897D01*
X268983Y854494D01*
X268147Y853853D01*
X267506Y853017D01*
X267103Y852044D01*
X266966Y851000D01*
X267103Y849956D01*
X267506Y848983D01*
X268147Y848147D01*
X268983Y847506D01*
X269956Y847103D01*
X271000Y846966D01*
X272044Y847103D01*
X273017Y847506D01*
X273853Y848147D01*
X274494Y848983D01*
X274897Y849956D01*
X275034Y851000D01*
X274897Y852044D01*
X274494Y853017D01*
X273853Y853853D01*
X273017Y854494D01*
X272044Y854897D01*
X271000Y855035D01*
D02*
G37*
G36*
X249000D02*
X247956Y854897D01*
X246983Y854494D01*
X246147Y853853D01*
X245506Y853017D01*
X245103Y852044D01*
X244966Y851000D01*
X245103Y849956D01*
X245506Y848983D01*
X246147Y848147D01*
X246983Y847506D01*
X247956Y847103D01*
X249000Y846966D01*
X250044Y847103D01*
X251017Y847506D01*
X251853Y848147D01*
X252494Y848983D01*
X252897Y849956D01*
X253034Y851000D01*
X252897Y852044D01*
X252494Y853017D01*
X251853Y853853D01*
X251017Y854494D01*
X250044Y854897D01*
X249000Y855035D01*
D02*
G37*
G36*
X239000D02*
X237956Y854897D01*
X236983Y854494D01*
X236147Y853853D01*
X235506Y853017D01*
X235103Y852044D01*
X234965Y851000D01*
X235103Y849956D01*
X235506Y848983D01*
X236147Y848147D01*
X236983Y847506D01*
X237956Y847103D01*
X239000Y846966D01*
X240044Y847103D01*
X241017Y847506D01*
X241853Y848147D01*
X242494Y848983D01*
X242897Y849956D01*
X243035Y851000D01*
X242897Y852044D01*
X242494Y853017D01*
X241853Y853853D01*
X241017Y854494D01*
X240044Y854897D01*
X239000Y855035D01*
D02*
G37*
G36*
X217000D02*
X215956Y854897D01*
X214983Y854494D01*
X214147Y853853D01*
X213506Y853017D01*
X213103Y852044D01*
X212965Y851000D01*
X213103Y849956D01*
X213506Y848983D01*
X214147Y848147D01*
X214983Y847506D01*
X215956Y847103D01*
X217000Y846966D01*
X218044Y847103D01*
X219017Y847506D01*
X219853Y848147D01*
X220494Y848983D01*
X220897Y849956D01*
X221035Y851000D01*
X220897Y852044D01*
X220494Y853017D01*
X219853Y853853D01*
X219017Y854494D01*
X218044Y854897D01*
X217000Y855035D01*
D02*
G37*
G36*
X207000D02*
X205956Y854897D01*
X204983Y854494D01*
X204147Y853853D01*
X203506Y853017D01*
X203103Y852044D01*
X202965Y851000D01*
X203103Y849956D01*
X203506Y848983D01*
X204147Y848147D01*
X204983Y847506D01*
X205956Y847103D01*
X207000Y846966D01*
X208044Y847103D01*
X209017Y847506D01*
X209853Y848147D01*
X210494Y848983D01*
X210897Y849956D01*
X211034Y851000D01*
X210897Y852044D01*
X210494Y853017D01*
X209853Y853853D01*
X209017Y854494D01*
X208044Y854897D01*
X207000Y855035D01*
D02*
G37*
G36*
X185000D02*
X183956Y854897D01*
X182983Y854494D01*
X182147Y853853D01*
X181506Y853017D01*
X181103Y852044D01*
X180965Y851000D01*
X181103Y849956D01*
X181506Y848983D01*
X182147Y848147D01*
X182983Y847506D01*
X183956Y847103D01*
X185000Y846966D01*
X186044Y847103D01*
X187017Y847506D01*
X187853Y848147D01*
X188494Y848983D01*
X188897Y849956D01*
X189034Y851000D01*
X188897Y852044D01*
X188494Y853017D01*
X187853Y853853D01*
X187017Y854494D01*
X186044Y854897D01*
X185000Y855035D01*
D02*
G37*
G36*
X175000D02*
X173956Y854897D01*
X172983Y854494D01*
X172147Y853853D01*
X171506Y853017D01*
X171103Y852044D01*
X170966Y851000D01*
X171103Y849956D01*
X171506Y848983D01*
X172147Y848147D01*
X172983Y847506D01*
X173956Y847103D01*
X175000Y846966D01*
X176044Y847103D01*
X177017Y847506D01*
X177853Y848147D01*
X178494Y848983D01*
X178897Y849956D01*
X179034Y851000D01*
X178897Y852044D01*
X178494Y853017D01*
X177853Y853853D01*
X177017Y854494D01*
X176044Y854897D01*
X175000Y855035D01*
D02*
G37*
G36*
X153000D02*
X151956Y854897D01*
X150983Y854494D01*
X150147Y853853D01*
X149506Y853017D01*
X149103Y852044D01*
X148966Y851000D01*
X149103Y849956D01*
X149506Y848983D01*
X150147Y848147D01*
X150983Y847506D01*
X151956Y847103D01*
X153000Y846966D01*
X154044Y847103D01*
X155017Y847506D01*
X155853Y848147D01*
X156494Y848983D01*
X156897Y849956D01*
X157035Y851000D01*
X156897Y852044D01*
X156494Y853017D01*
X155853Y853853D01*
X155017Y854494D01*
X154044Y854897D01*
X153000Y855035D01*
D02*
G37*
G36*
X143000D02*
X141956Y854897D01*
X140983Y854494D01*
X140147Y853853D01*
X139506Y853017D01*
X139103Y852044D01*
X138965Y851000D01*
X139103Y849956D01*
X139506Y848983D01*
X140147Y848147D01*
X140983Y847506D01*
X141956Y847103D01*
X143000Y846966D01*
X144044Y847103D01*
X145017Y847506D01*
X145853Y848147D01*
X146494Y848983D01*
X146897Y849956D01*
X147035Y851000D01*
X146897Y852044D01*
X146494Y853017D01*
X145853Y853853D01*
X145017Y854494D01*
X144044Y854897D01*
X143000Y855035D01*
D02*
G37*
G36*
X121000D02*
X119956Y854897D01*
X118983Y854494D01*
X118147Y853853D01*
X117506Y853017D01*
X117103Y852044D01*
X116965Y851000D01*
X117103Y849956D01*
X117506Y848983D01*
X118147Y848147D01*
X118983Y847506D01*
X119956Y847103D01*
X121000Y846966D01*
X122044Y847103D01*
X123017Y847506D01*
X123853Y848147D01*
X124494Y848983D01*
X124897Y849956D01*
X125034Y851000D01*
X124897Y852044D01*
X124494Y853017D01*
X123853Y853853D01*
X123017Y854494D01*
X122044Y854897D01*
X121000Y855035D01*
D02*
G37*
G36*
X111000D02*
X109956Y854897D01*
X108983Y854494D01*
X108147Y853853D01*
X107506Y853017D01*
X107103Y852044D01*
X106965Y851000D01*
X107103Y849956D01*
X107506Y848983D01*
X108147Y848147D01*
X108983Y847506D01*
X109956Y847103D01*
X111000Y846966D01*
X112044Y847103D01*
X113017Y847506D01*
X113853Y848147D01*
X114494Y848983D01*
X114897Y849956D01*
X115034Y851000D01*
X114897Y852044D01*
X114494Y853017D01*
X113853Y853853D01*
X113017Y854494D01*
X112044Y854897D01*
X111000Y855035D01*
D02*
G37*
G36*
X89000D02*
X87956Y854897D01*
X86983Y854494D01*
X86147Y853853D01*
X85506Y853017D01*
X85103Y852044D01*
X84965Y851000D01*
X85103Y849956D01*
X85506Y848983D01*
X86147Y848147D01*
X86983Y847506D01*
X87956Y847103D01*
X89000Y846966D01*
X90044Y847103D01*
X91017Y847506D01*
X91853Y848147D01*
X92494Y848983D01*
X92897Y849956D01*
X93034Y851000D01*
X92897Y852044D01*
X92494Y853017D01*
X91853Y853853D01*
X91017Y854494D01*
X90044Y854897D01*
X89000Y855035D01*
D02*
G37*
G36*
X79000D02*
X77956Y854897D01*
X76983Y854494D01*
X76147Y853853D01*
X75506Y853017D01*
X75103Y852044D01*
X74966Y851000D01*
X75103Y849956D01*
X75506Y848983D01*
X76147Y848147D01*
X76983Y847506D01*
X77956Y847103D01*
X79000Y846966D01*
X80044Y847103D01*
X81017Y847506D01*
X81853Y848147D01*
X82494Y848983D01*
X82897Y849956D01*
X83034Y851000D01*
X82897Y852044D01*
X82494Y853017D01*
X81853Y853853D01*
X81017Y854494D01*
X80044Y854897D01*
X79000Y855035D01*
D02*
G37*
G36*
X169000Y855000D02*
X165500D01*
Y851000D01*
Y847000D01*
X165741D01*
X165821Y846967D01*
X166500Y846877D01*
X167179Y846967D01*
X167259Y847000D01*
X169000D01*
Y848741D01*
X169033Y848821D01*
X169123Y849500D01*
X169122Y849500D01*
Y852000D01*
X169033Y852679D01*
X169000Y852759D01*
Y855000D01*
D02*
G37*
G36*
X329000Y860050D02*
X326489Y859852D01*
X324040Y859264D01*
X321714Y858300D01*
X319566Y856984D01*
X317651Y855349D01*
X316016Y853434D01*
X314700Y851286D01*
X313736Y848960D01*
X313148Y846511D01*
X312950Y844000D01*
X313148Y841489D01*
X313736Y839040D01*
X314700Y836714D01*
X316016Y834566D01*
X317651Y832651D01*
X319566Y831016D01*
X321714Y829700D01*
X324040Y828736D01*
X326489Y828148D01*
X329000Y827950D01*
X331511Y828148D01*
X333960Y828736D01*
X336286Y829700D01*
X338434Y831016D01*
X340349Y832651D01*
X341984Y834566D01*
X343300Y836714D01*
X344264Y839040D01*
X344852Y841489D01*
X345050Y844000D01*
X344852Y846511D01*
X344264Y848960D01*
X343300Y851286D01*
X341984Y853434D01*
X340349Y855349D01*
X338434Y856984D01*
X336286Y858300D01*
X333960Y859264D01*
X331511Y859852D01*
X329000Y860050D01*
D02*
G37*
G36*
X21000D02*
X18489Y859852D01*
X16040Y859264D01*
X13714Y858300D01*
X11566Y856984D01*
X9651Y855349D01*
X8016Y853434D01*
X6700Y851286D01*
X5736Y848960D01*
X5148Y846511D01*
X4950Y844000D01*
X5148Y841489D01*
X5736Y839040D01*
X6700Y836714D01*
X8016Y834566D01*
X9651Y832651D01*
X11566Y831016D01*
X13714Y829700D01*
X16040Y828736D01*
X18489Y828148D01*
X21000Y827950D01*
X23511Y828148D01*
X25960Y828736D01*
X28286Y829700D01*
X30434Y831016D01*
X32349Y832651D01*
X33984Y834566D01*
X35300Y836714D01*
X36264Y839040D01*
X36852Y841489D01*
X37049Y844000D01*
X36852Y846511D01*
X36264Y848960D01*
X35300Y851286D01*
X33984Y853434D01*
X32349Y855349D01*
X30434Y856984D01*
X28286Y858300D01*
X25960Y859264D01*
X23511Y859852D01*
X21000Y860050D01*
D02*
G37*
G36*
X316150Y823824D02*
X314989Y823710D01*
X313873Y823371D01*
X312844Y822821D01*
X311942Y822081D01*
X311202Y821180D01*
X310653Y820151D01*
X310314Y819035D01*
X310200Y817874D01*
X310314Y816713D01*
X310653Y815597D01*
X311202Y814568D01*
X311942Y813667D01*
X312844Y812927D01*
X313873Y812377D01*
X314989Y812038D01*
X316150Y811924D01*
X317310Y812038D01*
X318426Y812377D01*
X319455Y812927D01*
X320357Y813667D01*
X321097Y814568D01*
X321647Y815597D01*
X321985Y816713D01*
X322099Y817874D01*
X321985Y819035D01*
X321647Y820151D01*
X321097Y821180D01*
X320357Y822081D01*
X319455Y822821D01*
X318426Y823371D01*
X317310Y823710D01*
X316150Y823824D01*
D02*
G37*
G36*
X263000Y819493D02*
X261839Y819379D01*
X260723Y819040D01*
X259694Y818491D01*
X258793Y817750D01*
X258053Y816849D01*
X257503Y815820D01*
X257164Y814704D01*
X257050Y813543D01*
X257164Y812383D01*
X257503Y811266D01*
X258053Y810238D01*
X258793Y809336D01*
X259694Y808596D01*
X260723Y808046D01*
X261839Y807708D01*
X263000Y807593D01*
X264161Y807708D01*
X265277Y808046D01*
X266306Y808596D01*
X267207Y809336D01*
X267947Y810238D01*
X268497Y811266D01*
X268836Y812383D01*
X268950Y813543D01*
X268836Y814704D01*
X268497Y815820D01*
X267947Y816849D01*
X267207Y817750D01*
X266306Y818491D01*
X265277Y819040D01*
X264161Y819379D01*
X263000Y819493D01*
D02*
G37*
G36*
X33850Y803155D02*
X32690Y803040D01*
X31574Y802702D01*
X30545Y802152D01*
X29643Y801412D01*
X28903Y800510D01*
X28353Y799482D01*
X28015Y798365D01*
X27900Y797205D01*
X28015Y796044D01*
X28353Y794928D01*
X28903Y793899D01*
X29643Y792998D01*
X30545Y792257D01*
X31574Y791708D01*
X32690Y791369D01*
X33850Y791255D01*
X35011Y791369D01*
X36127Y791708D01*
X37156Y792257D01*
X38058Y792998D01*
X38798Y793899D01*
X39347Y794928D01*
X39686Y796044D01*
X39800Y797205D01*
X39686Y798365D01*
X39347Y799482D01*
X38798Y800510D01*
X38058Y801412D01*
X37156Y802152D01*
X36127Y802702D01*
X35011Y803040D01*
X33850Y803155D01*
D02*
G37*
G36*
X87000Y798824D02*
X85839Y798710D01*
X84723Y798371D01*
X83694Y797821D01*
X82793Y797081D01*
X82053Y796180D01*
X81503Y795151D01*
X81164Y794035D01*
X81050Y792874D01*
X81164Y791713D01*
X81503Y790597D01*
X82053Y789568D01*
X82793Y788667D01*
X83694Y787927D01*
X84723Y787377D01*
X85839Y787038D01*
X87000Y786924D01*
X88161Y787038D01*
X89277Y787377D01*
X90306Y787927D01*
X91207Y788667D01*
X91947Y789568D01*
X92497Y790597D01*
X92836Y791713D01*
X92950Y792874D01*
X92836Y794035D01*
X92497Y795151D01*
X91947Y796180D01*
X91207Y797081D01*
X90306Y797821D01*
X89277Y798371D01*
X88161Y798710D01*
X87000Y798824D01*
D02*
G37*
G36*
X112500Y770122D02*
X111821Y770033D01*
X111189Y769771D01*
X110646Y769354D01*
X110229Y768811D01*
X109967Y768179D01*
X109878Y767500D01*
X109967Y766821D01*
X110229Y766189D01*
X110646Y765646D01*
X111189Y765229D01*
X111821Y764967D01*
X112500Y764878D01*
X113179Y764967D01*
X113811Y765229D01*
X114354Y765646D01*
X114771Y766189D01*
X115033Y766821D01*
X115122Y767500D01*
X115033Y768179D01*
X114771Y768811D01*
X114354Y769354D01*
X113811Y769771D01*
X113179Y770033D01*
X112500Y770122D01*
D02*
G37*
G36*
X263000Y765950D02*
X261839Y765836D01*
X260723Y765497D01*
X259694Y764947D01*
X258793Y764207D01*
X258053Y763306D01*
X257503Y762277D01*
X257164Y761161D01*
X257050Y760000D01*
X257164Y758839D01*
X257503Y757723D01*
X258053Y756694D01*
X258793Y755793D01*
X259694Y755053D01*
X260723Y754503D01*
X261839Y754164D01*
X263000Y754050D01*
X264161Y754164D01*
X265277Y754503D01*
X266306Y755053D01*
X267207Y755793D01*
X267947Y756694D01*
X268497Y757723D01*
X268836Y758839D01*
X268950Y760000D01*
X268836Y761161D01*
X268497Y762277D01*
X267947Y763306D01*
X267207Y764207D01*
X266306Y764947D01*
X265277Y765497D01*
X264161Y765836D01*
X263000Y765950D01*
D02*
G37*
G36*
X316150Y761619D02*
X314989Y761505D01*
X313873Y761166D01*
X312844Y760616D01*
X311942Y759876D01*
X311202Y758975D01*
X310653Y757946D01*
X310314Y756830D01*
X310200Y755669D01*
X310314Y754508D01*
X310653Y753392D01*
X311202Y752364D01*
X311942Y751462D01*
X312844Y750722D01*
X313873Y750172D01*
X314989Y749834D01*
X316150Y749719D01*
X317310Y749834D01*
X318426Y750172D01*
X319455Y750722D01*
X320357Y751462D01*
X321097Y752364D01*
X321647Y753392D01*
X321985Y754508D01*
X322099Y755669D01*
X321985Y756830D01*
X321647Y757946D01*
X321097Y758975D01*
X320357Y759876D01*
X319455Y760616D01*
X318426Y761166D01*
X317310Y761505D01*
X316150Y761619D01*
D02*
G37*
G36*
X87000Y745281D02*
X85839Y745166D01*
X84723Y744828D01*
X83694Y744278D01*
X82793Y743538D01*
X82053Y742636D01*
X81503Y741608D01*
X81164Y740491D01*
X81050Y739331D01*
X81164Y738170D01*
X81503Y737054D01*
X82053Y736025D01*
X82793Y735123D01*
X83694Y734383D01*
X84723Y733834D01*
X85839Y733495D01*
X87000Y733381D01*
X88161Y733495D01*
X89277Y733834D01*
X90306Y734383D01*
X91207Y735123D01*
X91947Y736025D01*
X92497Y737054D01*
X92836Y738170D01*
X92950Y739331D01*
X92836Y740491D01*
X92497Y741608D01*
X91947Y742636D01*
X91207Y743538D01*
X90306Y744278D01*
X89277Y744828D01*
X88161Y745166D01*
X87000Y745281D01*
D02*
G37*
G36*
X316150Y742052D02*
X314989Y741938D01*
X313873Y741599D01*
X312844Y741049D01*
X311942Y740310D01*
X311202Y739408D01*
X310653Y738379D01*
X310314Y737263D01*
X310200Y736102D01*
X310314Y734942D01*
X310653Y733825D01*
X311202Y732797D01*
X311942Y731895D01*
X312844Y731155D01*
X313873Y730605D01*
X314989Y730267D01*
X316150Y730153D01*
X317310Y730267D01*
X318426Y730605D01*
X319455Y731155D01*
X320357Y731895D01*
X321097Y732797D01*
X321647Y733825D01*
X321985Y734942D01*
X322099Y736102D01*
X321985Y737263D01*
X321647Y738379D01*
X321097Y739408D01*
X320357Y740310D01*
X319455Y741049D01*
X318426Y741599D01*
X317310Y741938D01*
X316150Y742052D01*
D02*
G37*
G36*
X33850Y740950D02*
X32690Y740836D01*
X31574Y740497D01*
X30545Y739947D01*
X29643Y739207D01*
X28903Y738306D01*
X28353Y737277D01*
X28015Y736161D01*
X27900Y735000D01*
X28015Y733839D01*
X28353Y732723D01*
X28903Y731694D01*
X29643Y730793D01*
X30545Y730053D01*
X31574Y729503D01*
X32690Y729164D01*
X33850Y729050D01*
X35011Y729164D01*
X36127Y729503D01*
X37156Y730053D01*
X38058Y730793D01*
X38798Y731694D01*
X39347Y732723D01*
X39686Y733839D01*
X39800Y735000D01*
X39686Y736161D01*
X39347Y737277D01*
X38798Y738306D01*
X38058Y739207D01*
X37156Y739947D01*
X36127Y740497D01*
X35011Y740836D01*
X33850Y740950D01*
D02*
G37*
G36*
X263000Y737722D02*
X261839Y737607D01*
X260723Y737269D01*
X259694Y736719D01*
X258793Y735979D01*
X258053Y735077D01*
X257503Y734049D01*
X257164Y732932D01*
X257050Y731772D01*
X257164Y730611D01*
X257503Y729495D01*
X258053Y728466D01*
X258793Y727564D01*
X259694Y726825D01*
X260723Y726275D01*
X261839Y725936D01*
X263000Y725822D01*
X264161Y725936D01*
X265277Y726275D01*
X266306Y726825D01*
X267207Y727564D01*
X267947Y728466D01*
X268497Y729495D01*
X268836Y730611D01*
X268950Y731772D01*
X268836Y732932D01*
X268497Y734049D01*
X267947Y735077D01*
X267207Y735979D01*
X266306Y736719D01*
X265277Y737269D01*
X264161Y737607D01*
X263000Y737722D01*
D02*
G37*
G36*
X33850Y719155D02*
X32690Y719040D01*
X31574Y718702D01*
X30545Y718152D01*
X29643Y717412D01*
X28903Y716510D01*
X28353Y715482D01*
X28015Y714365D01*
X27900Y713205D01*
X28015Y712044D01*
X28353Y710928D01*
X28903Y709899D01*
X29643Y708997D01*
X30545Y708257D01*
X31574Y707708D01*
X32690Y707369D01*
X33850Y707255D01*
X35011Y707369D01*
X36127Y707708D01*
X37156Y708257D01*
X38058Y708997D01*
X38798Y709899D01*
X39347Y710928D01*
X39686Y712044D01*
X39800Y713205D01*
X39686Y714365D01*
X39347Y715482D01*
X38798Y716510D01*
X38058Y717412D01*
X37156Y718152D01*
X36127Y718702D01*
X35011Y719040D01*
X33850Y719155D01*
D02*
G37*
G36*
X87000Y714824D02*
X85839Y714710D01*
X84723Y714371D01*
X83694Y713821D01*
X82793Y713081D01*
X82053Y712180D01*
X81503Y711151D01*
X81164Y710035D01*
X81050Y708874D01*
X81164Y707713D01*
X81503Y706597D01*
X82053Y705568D01*
X82793Y704667D01*
X83694Y703927D01*
X84723Y703377D01*
X85839Y703038D01*
X87000Y702924D01*
X88161Y703038D01*
X89277Y703377D01*
X90306Y703927D01*
X91207Y704667D01*
X91947Y705568D01*
X92497Y706597D01*
X92836Y707713D01*
X92950Y708874D01*
X92836Y710035D01*
X92497Y711151D01*
X91947Y712180D01*
X91207Y713081D01*
X90306Y713821D01*
X89277Y714371D01*
X88161Y714710D01*
X87000Y714824D01*
D02*
G37*
G36*
X263000Y684178D02*
X261839Y684064D01*
X260723Y683725D01*
X259694Y683176D01*
X258793Y682436D01*
X258053Y681534D01*
X257503Y680505D01*
X257164Y679389D01*
X257050Y678228D01*
X257164Y677068D01*
X257503Y675951D01*
X258053Y674923D01*
X258793Y674021D01*
X259694Y673281D01*
X260723Y672731D01*
X261839Y672393D01*
X263000Y672278D01*
X264161Y672393D01*
X265277Y672731D01*
X266306Y673281D01*
X267207Y674021D01*
X267947Y674923D01*
X268497Y675951D01*
X268836Y677068D01*
X268950Y678228D01*
X268836Y679389D01*
X268497Y680505D01*
X267947Y681534D01*
X267207Y682436D01*
X266306Y683176D01*
X265277Y683725D01*
X264161Y684064D01*
X263000Y684178D01*
D02*
G37*
G36*
X316150Y679847D02*
X314989Y679733D01*
X313873Y679395D01*
X312844Y678845D01*
X311942Y678105D01*
X311202Y677203D01*
X310653Y676175D01*
X310314Y675058D01*
X310200Y673898D01*
X310314Y672737D01*
X310653Y671621D01*
X311202Y670592D01*
X311942Y669690D01*
X312844Y668951D01*
X313873Y668401D01*
X314989Y668062D01*
X316150Y667948D01*
X317310Y668062D01*
X318426Y668401D01*
X319455Y668951D01*
X320357Y669690D01*
X321097Y670592D01*
X321647Y671621D01*
X321985Y672737D01*
X322099Y673898D01*
X321985Y675058D01*
X321647Y676175D01*
X321097Y677203D01*
X320357Y678105D01*
X319455Y678845D01*
X318426Y679395D01*
X317310Y679733D01*
X316150Y679847D01*
D02*
G37*
G36*
X120000Y672622D02*
X119321Y672533D01*
X118689Y672271D01*
X118146Y671854D01*
X117729Y671311D01*
X117467Y670679D01*
X117378Y670000D01*
X117467Y669321D01*
X117729Y668689D01*
X118146Y668146D01*
X118689Y667729D01*
X119321Y667467D01*
X120000Y667378D01*
X120679Y667467D01*
X121311Y667729D01*
X121854Y668146D01*
X122271Y668689D01*
X122533Y669321D01*
X122622Y670000D01*
X122533Y670679D01*
X122271Y671311D01*
X121854Y671854D01*
X121311Y672271D01*
X120679Y672533D01*
X120000Y672622D01*
D02*
G37*
G36*
X147492Y662554D02*
X146614Y662379D01*
X145870Y661882D01*
X145373Y661138D01*
X145198Y660260D01*
X145373Y659382D01*
X145870Y658638D01*
X146614Y658140D01*
X147492Y657966D01*
X148370Y658140D01*
X149114Y658638D01*
X149612Y659382D01*
X149786Y660260D01*
X149612Y661138D01*
X149114Y661882D01*
X148370Y662379D01*
X147492Y662554D01*
D02*
G37*
G36*
X164520Y658074D02*
X163642Y657899D01*
X162898Y657402D01*
X162400Y656657D01*
X162226Y655780D01*
X162400Y654902D01*
X162898Y654157D01*
X163642Y653660D01*
X164520Y653485D01*
X164915Y653564D01*
X165340Y653139D01*
X165269Y652779D01*
X165444Y651902D01*
X165941Y651157D01*
X166685Y650660D01*
X167563Y650486D01*
X168441Y650660D01*
X169185Y651157D01*
X169682Y651902D01*
X169857Y652779D01*
X169682Y653657D01*
X169185Y654402D01*
X168441Y654899D01*
X167563Y655074D01*
X167167Y654995D01*
X166742Y655420D01*
X166814Y655780D01*
X166639Y656657D01*
X166142Y657402D01*
X165398Y657899D01*
X164520Y658074D01*
D02*
G37*
G36*
X87000Y661281D02*
X85839Y661166D01*
X84723Y660828D01*
X83694Y660278D01*
X82793Y659538D01*
X82053Y658636D01*
X81503Y657608D01*
X81164Y656492D01*
X81050Y655331D01*
X81164Y654170D01*
X81503Y653054D01*
X82053Y652025D01*
X82793Y651124D01*
X83694Y650384D01*
X84723Y649834D01*
X85839Y649495D01*
X87000Y649381D01*
X88161Y649495D01*
X89277Y649834D01*
X90306Y650384D01*
X91207Y651124D01*
X91947Y652025D01*
X92497Y653054D01*
X92836Y654170D01*
X92950Y655331D01*
X92836Y656492D01*
X92497Y657608D01*
X91947Y658636D01*
X91207Y659538D01*
X90306Y660278D01*
X89277Y660828D01*
X88161Y661166D01*
X87000Y661281D01*
D02*
G37*
G36*
X316150Y660509D02*
X314989Y660395D01*
X313873Y660056D01*
X312844Y659506D01*
X311942Y658766D01*
X311202Y657865D01*
X310653Y656836D01*
X310314Y655720D01*
X310200Y654559D01*
X310314Y653398D01*
X310653Y652282D01*
X311202Y651254D01*
X311942Y650352D01*
X312844Y649612D01*
X313873Y649062D01*
X314989Y648724D01*
X316150Y648609D01*
X317310Y648724D01*
X318426Y649062D01*
X319455Y649612D01*
X320357Y650352D01*
X321097Y651254D01*
X321647Y652282D01*
X321985Y653398D01*
X322099Y654559D01*
X321985Y655720D01*
X321647Y656836D01*
X321097Y657865D01*
X320357Y658766D01*
X319455Y659506D01*
X318426Y660056D01*
X317310Y660395D01*
X316150Y660509D01*
D02*
G37*
G36*
X230152Y653622D02*
X229473Y653533D01*
X228840Y653271D01*
X228297Y652854D01*
X227881Y652311D01*
X227619Y651679D01*
X227529Y651000D01*
X227619Y650321D01*
X227881Y649689D01*
X228297Y649146D01*
X228840Y648729D01*
X229473Y648467D01*
X230152Y648378D01*
X230830Y648467D01*
X231463Y648729D01*
X232006Y649146D01*
X232423Y649689D01*
X232685Y650321D01*
X232774Y651000D01*
X232685Y651679D01*
X232423Y652311D01*
X232006Y652854D01*
X231463Y653271D01*
X230830Y653533D01*
X230152Y653622D01*
D02*
G37*
G36*
X33850Y656950D02*
X32690Y656836D01*
X31574Y656497D01*
X30545Y655947D01*
X29643Y655207D01*
X28903Y654306D01*
X28353Y653277D01*
X28015Y652161D01*
X27900Y651000D01*
X28015Y649839D01*
X28353Y648723D01*
X28903Y647694D01*
X29643Y646793D01*
X30545Y646053D01*
X31574Y645503D01*
X32690Y645164D01*
X33850Y645050D01*
X35011Y645164D01*
X36127Y645503D01*
X37156Y646053D01*
X38058Y646793D01*
X38798Y647694D01*
X39347Y648723D01*
X39686Y649839D01*
X39800Y651000D01*
X39686Y652161D01*
X39347Y653277D01*
X38798Y654306D01*
X38058Y655207D01*
X37156Y655947D01*
X36127Y656497D01*
X35011Y656836D01*
X33850Y656950D01*
D02*
G37*
G36*
X136492Y649554D02*
X135614Y649379D01*
X134870Y648882D01*
X134373Y648138D01*
X134198Y647260D01*
X134373Y646382D01*
X134870Y645638D01*
X135614Y645140D01*
X136492Y644966D01*
X137370Y645140D01*
X138114Y645638D01*
X138612Y646382D01*
X138786Y647260D01*
X138612Y648138D01*
X138114Y648882D01*
X137370Y649379D01*
X136492Y649554D01*
D02*
G37*
G36*
X157500Y649440D02*
X156622Y649265D01*
X155878Y648768D01*
X155380Y648024D01*
X155206Y647146D01*
X155380Y646268D01*
X155878Y645524D01*
X156622Y645026D01*
X157500Y644852D01*
X158378Y645026D01*
X159122Y645524D01*
X159619Y646268D01*
X159794Y647146D01*
X159619Y648024D01*
X159122Y648768D01*
X158378Y649265D01*
X157500Y649440D01*
D02*
G37*
G36*
X263000Y656178D02*
X261839Y656064D01*
X260723Y655725D01*
X259694Y655175D01*
X258793Y654436D01*
X258053Y653534D01*
X257503Y652505D01*
X257164Y651389D01*
X257050Y650228D01*
X257164Y649068D01*
X257503Y647951D01*
X258053Y646923D01*
X258793Y646021D01*
X259694Y645281D01*
X260723Y644731D01*
X261839Y644393D01*
X263000Y644278D01*
X264161Y644393D01*
X265277Y644731D01*
X266306Y645281D01*
X267207Y646021D01*
X267947Y646923D01*
X268497Y647951D01*
X268836Y649068D01*
X268950Y650228D01*
X268836Y651389D01*
X268497Y652505D01*
X267947Y653534D01*
X267207Y654436D01*
X266306Y655175D01*
X265277Y655725D01*
X264161Y656064D01*
X263000Y656178D01*
D02*
G37*
G36*
X188886Y647751D02*
X188008Y647576D01*
X187264Y647079D01*
X186766Y646335D01*
X186592Y645457D01*
X186766Y644579D01*
X187264Y643834D01*
X188008Y643337D01*
X188886Y643163D01*
X189764Y643337D01*
X190508Y643834D01*
X191005Y644579D01*
X191180Y645457D01*
X191005Y646335D01*
X190508Y647079D01*
X189764Y647576D01*
X188886Y647751D01*
D02*
G37*
G36*
X213886Y648079D02*
X213207Y647990D01*
X212575Y647728D01*
X212032Y647311D01*
X211615Y646768D01*
X211353Y646135D01*
X211263Y645457D01*
X211353Y644778D01*
X211615Y644145D01*
X212032Y643602D01*
X212575Y643186D01*
X213207Y642924D01*
X213886Y642834D01*
X214565Y642924D01*
X215197Y643186D01*
X215740Y643602D01*
X216157Y644145D01*
X216419Y644778D01*
X216508Y645457D01*
X216419Y646135D01*
X216157Y646768D01*
X215740Y647311D01*
X215197Y647728D01*
X214565Y647990D01*
X213886Y648079D01*
D02*
G37*
G36*
X161492Y637676D02*
X160614Y637501D01*
X159870Y637004D01*
X159373Y636260D01*
X159198Y635382D01*
X159373Y634504D01*
X159870Y633760D01*
X160614Y633262D01*
X161492Y633088D01*
X162370Y633262D01*
X163114Y633760D01*
X163612Y634504D01*
X163786Y635382D01*
X163612Y636260D01*
X163114Y637004D01*
X162370Y637501D01*
X161492Y637676D01*
D02*
G37*
G36*
X136492Y637882D02*
X135813Y637793D01*
X135181Y637531D01*
X134638Y637114D01*
X134221Y636571D01*
X133959Y635939D01*
X133870Y635260D01*
X133959Y634581D01*
X134221Y633949D01*
X134638Y633405D01*
X135181Y632989D01*
X135813Y632727D01*
X136492Y632637D01*
X137171Y632727D01*
X137803Y632989D01*
X138347Y633405D01*
X138763Y633949D01*
X139025Y634581D01*
X139115Y635260D01*
X139025Y635939D01*
X138763Y636571D01*
X138347Y637114D01*
X137803Y637531D01*
X137171Y637793D01*
X136492Y637882D01*
D02*
G37*
G36*
X114000Y637622D02*
X113321Y637533D01*
X112689Y637271D01*
X112146Y636854D01*
X111729Y636311D01*
X111467Y635679D01*
X111378Y635000D01*
X111467Y634321D01*
X111729Y633689D01*
X112146Y633146D01*
X112689Y632729D01*
X113321Y632467D01*
X114000Y632378D01*
X114679Y632467D01*
X115311Y632729D01*
X115854Y633146D01*
X116271Y633689D01*
X116533Y634321D01*
X116622Y635000D01*
X116533Y635679D01*
X116271Y636311D01*
X115854Y636854D01*
X115311Y637271D01*
X114679Y637533D01*
X114000Y637622D01*
D02*
G37*
G36*
X192500Y635987D02*
X191622Y635812D01*
X190878Y635315D01*
X190381Y634571D01*
X190206Y633693D01*
X190381Y632815D01*
X190878Y632071D01*
X191622Y631573D01*
X192500Y631399D01*
X193378Y631573D01*
X194122Y632071D01*
X194620Y632815D01*
X194794Y633693D01*
X194620Y634571D01*
X194122Y635315D01*
X193378Y635812D01*
X192500Y635987D01*
D02*
G37*
G36*
X213886Y635751D02*
X213008Y635576D01*
X212264Y635079D01*
X211766Y634335D01*
X211592Y633457D01*
X211766Y632579D01*
X212264Y631835D01*
X213008Y631337D01*
X213886Y631163D01*
X214764Y631337D01*
X215508Y631835D01*
X216005Y632579D01*
X216180Y633457D01*
X216005Y634335D01*
X215508Y635079D01*
X214764Y635576D01*
X213886Y635751D01*
D02*
G37*
G36*
X183000Y631060D02*
X182122Y630885D01*
X181378Y630388D01*
X180880Y629644D01*
X180706Y628766D01*
X180880Y627888D01*
X181378Y627144D01*
X182122Y626646D01*
X183000Y626472D01*
X183388Y626549D01*
X183742Y626195D01*
X183706Y626016D01*
X183880Y625138D01*
X184378Y624394D01*
X185122Y623896D01*
X186000Y623722D01*
X186878Y623896D01*
X187622Y624394D01*
X188119Y625138D01*
X188294Y626016D01*
X188119Y626894D01*
X187622Y627638D01*
X186878Y628135D01*
X186000Y628310D01*
X185612Y628233D01*
X185258Y628586D01*
X185294Y628766D01*
X185119Y629644D01*
X184622Y630388D01*
X183878Y630885D01*
X183000Y631060D01*
D02*
G37*
G36*
X33850Y635155D02*
X32690Y635040D01*
X31574Y634702D01*
X30545Y634152D01*
X29643Y633412D01*
X28903Y632510D01*
X28353Y631482D01*
X28015Y630366D01*
X27900Y629205D01*
X28015Y628044D01*
X28353Y626928D01*
X28903Y625899D01*
X29643Y624998D01*
X30545Y624258D01*
X31574Y623708D01*
X32690Y623369D01*
X33850Y623255D01*
X35011Y623369D01*
X36127Y623708D01*
X37156Y624258D01*
X38058Y624998D01*
X38798Y625899D01*
X39347Y626928D01*
X39686Y628044D01*
X39800Y629205D01*
X39686Y630366D01*
X39347Y631482D01*
X38798Y632510D01*
X38058Y633412D01*
X37156Y634152D01*
X36127Y634702D01*
X35011Y635040D01*
X33850Y635155D01*
D02*
G37*
G36*
X87000Y630824D02*
X85839Y630710D01*
X84723Y630371D01*
X83694Y629821D01*
X82793Y629081D01*
X82053Y628180D01*
X81503Y627151D01*
X81164Y626035D01*
X81050Y624874D01*
X81164Y623713D01*
X81503Y622597D01*
X82053Y621568D01*
X82793Y620667D01*
X83694Y619927D01*
X84723Y619377D01*
X85839Y619038D01*
X87000Y618924D01*
X88161Y619038D01*
X89277Y619377D01*
X90306Y619927D01*
X91207Y620667D01*
X91947Y621568D01*
X92497Y622597D01*
X92836Y623713D01*
X92950Y624874D01*
X92836Y626035D01*
X92497Y627151D01*
X91947Y628180D01*
X91207Y629081D01*
X90306Y629821D01*
X89277Y630371D01*
X88161Y630710D01*
X87000Y630824D01*
D02*
G37*
G36*
X202886Y622751D02*
X202008Y622576D01*
X201264Y622079D01*
X200766Y621335D01*
X200592Y620457D01*
X200766Y619579D01*
X201264Y618834D01*
X202008Y618337D01*
X202886Y618163D01*
X203764Y618337D01*
X204508Y618834D01*
X205005Y619579D01*
X205180Y620457D01*
X205005Y621335D01*
X204508Y622079D01*
X203764Y622576D01*
X202886Y622751D01*
D02*
G37*
G36*
X147492Y622554D02*
X146614Y622379D01*
X145870Y621882D01*
X145373Y621138D01*
X145198Y620260D01*
X145373Y619382D01*
X145870Y618638D01*
X146614Y618140D01*
X147492Y617966D01*
X148370Y618140D01*
X149114Y618638D01*
X149612Y619382D01*
X149786Y620260D01*
X149612Y621138D01*
X149114Y621882D01*
X148370Y622379D01*
X147492Y622554D01*
D02*
G37*
G36*
X164520Y618074D02*
X163642Y617899D01*
X162898Y617402D01*
X162400Y616657D01*
X162226Y615779D01*
X162400Y614902D01*
X162898Y614157D01*
X163642Y613660D01*
X164520Y613485D01*
X164915Y613564D01*
X165340Y613139D01*
X165269Y612780D01*
X165444Y611902D01*
X165941Y611157D01*
X166685Y610660D01*
X167563Y610486D01*
X168441Y610660D01*
X169185Y611157D01*
X169682Y611902D01*
X169857Y612780D01*
X169682Y613657D01*
X169185Y614402D01*
X168441Y614899D01*
X167563Y615074D01*
X167167Y614995D01*
X166742Y615420D01*
X166814Y615779D01*
X166639Y616657D01*
X166142Y617402D01*
X165398Y617899D01*
X164520Y618074D01*
D02*
G37*
G36*
X136492Y609554D02*
X135614Y609379D01*
X134870Y608882D01*
X134373Y608138D01*
X134198Y607260D01*
X134373Y606382D01*
X134870Y605638D01*
X135614Y605140D01*
X136492Y604966D01*
X137370Y605140D01*
X138114Y605638D01*
X138612Y606382D01*
X138786Y607260D01*
X138612Y608138D01*
X138114Y608882D01*
X137370Y609379D01*
X136492Y609554D01*
D02*
G37*
G36*
X157500Y609318D02*
X156622Y609143D01*
X155878Y608646D01*
X155380Y607902D01*
X155206Y607024D01*
X155380Y606146D01*
X155878Y605402D01*
X156622Y604904D01*
X157500Y604730D01*
X158378Y604904D01*
X159122Y605402D01*
X159619Y606146D01*
X159794Y607024D01*
X159619Y607902D01*
X159122Y608646D01*
X158378Y609143D01*
X157500Y609318D01*
D02*
G37*
G36*
X188886Y607751D02*
X188008Y607576D01*
X187264Y607079D01*
X186766Y606335D01*
X186592Y605457D01*
X186766Y604579D01*
X187264Y603834D01*
X188008Y603337D01*
X188886Y603163D01*
X189764Y603337D01*
X190508Y603834D01*
X191005Y604579D01*
X191180Y605457D01*
X191005Y606335D01*
X190508Y607079D01*
X189764Y607576D01*
X188886Y607751D01*
D02*
G37*
G36*
X213886Y608079D02*
X213207Y607990D01*
X212575Y607728D01*
X212032Y607311D01*
X211615Y606768D01*
X211353Y606135D01*
X211263Y605457D01*
X211353Y604778D01*
X211615Y604145D01*
X212032Y603602D01*
X212575Y603186D01*
X213207Y602924D01*
X213886Y602834D01*
X214565Y602924D01*
X215197Y603186D01*
X215740Y603602D01*
X216157Y604145D01*
X216419Y604778D01*
X216508Y605457D01*
X216419Y606135D01*
X216157Y606768D01*
X215740Y607311D01*
X215197Y607728D01*
X214565Y607990D01*
X213886Y608079D01*
D02*
G37*
G36*
X236000Y607622D02*
X235321Y607533D01*
X234689Y607271D01*
X234146Y606854D01*
X233729Y606311D01*
X233467Y605679D01*
X233378Y605000D01*
X233467Y604321D01*
X233729Y603689D01*
X234146Y603146D01*
X234689Y602729D01*
X235321Y602467D01*
X236000Y602378D01*
X236679Y602467D01*
X237311Y602729D01*
X237854Y603146D01*
X238271Y603689D01*
X238533Y604321D01*
X238622Y605000D01*
X238533Y605679D01*
X238271Y606311D01*
X237854Y606854D01*
X237311Y607271D01*
X236679Y607533D01*
X236000Y607622D01*
D02*
G37*
G36*
X161492Y597554D02*
X160614Y597379D01*
X159870Y596882D01*
X159373Y596138D01*
X159198Y595260D01*
X159373Y594382D01*
X159870Y593638D01*
X160614Y593140D01*
X161492Y592966D01*
X162370Y593140D01*
X163114Y593638D01*
X163612Y594382D01*
X163786Y595260D01*
X163612Y596138D01*
X163114Y596882D01*
X162370Y597379D01*
X161492Y597554D01*
D02*
G37*
G36*
X136492Y597882D02*
X135813Y597793D01*
X135181Y597531D01*
X134638Y597114D01*
X134221Y596571D01*
X133959Y595939D01*
X133870Y595260D01*
X133959Y594581D01*
X134221Y593949D01*
X134638Y593405D01*
X135181Y592989D01*
X135813Y592727D01*
X136492Y592637D01*
X137171Y592727D01*
X137803Y592989D01*
X138347Y593405D01*
X138763Y593949D01*
X139025Y594581D01*
X139114Y595260D01*
X139025Y595939D01*
X138763Y596571D01*
X138347Y597114D01*
X137803Y597531D01*
X137171Y597793D01*
X136492Y597882D01*
D02*
G37*
G36*
X114000D02*
X113321Y597793D01*
X112689Y597531D01*
X112146Y597114D01*
X111729Y596571D01*
X111467Y595939D01*
X111378Y595260D01*
X111467Y594581D01*
X111729Y593949D01*
X112146Y593405D01*
X112689Y592989D01*
X113321Y592727D01*
X114000Y592637D01*
X114679Y592727D01*
X115311Y592989D01*
X115854Y593405D01*
X116271Y593949D01*
X116533Y594581D01*
X116622Y595260D01*
X116533Y595939D01*
X116271Y596571D01*
X115854Y597114D01*
X115311Y597531D01*
X114679Y597793D01*
X114000Y597882D01*
D02*
G37*
G36*
X192500Y595987D02*
X191622Y595812D01*
X190878Y595315D01*
X190381Y594571D01*
X190206Y593693D01*
X190381Y592815D01*
X190878Y592071D01*
X191622Y591573D01*
X192500Y591399D01*
X193378Y591573D01*
X194122Y592071D01*
X194620Y592815D01*
X194794Y593693D01*
X194620Y594571D01*
X194122Y595315D01*
X193378Y595812D01*
X192500Y595987D01*
D02*
G37*
G36*
X213886Y595751D02*
X213008Y595576D01*
X212264Y595079D01*
X211766Y594335D01*
X211592Y593457D01*
X211766Y592579D01*
X212264Y591834D01*
X213008Y591337D01*
X213886Y591163D01*
X214764Y591337D01*
X215508Y591834D01*
X216005Y592579D01*
X216180Y593457D01*
X216005Y594335D01*
X215508Y595079D01*
X214764Y595576D01*
X213886Y595751D01*
D02*
G37*
G36*
X263000Y602635D02*
X261839Y602521D01*
X260723Y602182D01*
X259694Y601632D01*
X258793Y600892D01*
X258053Y599991D01*
X257503Y598962D01*
X257164Y597846D01*
X257050Y596685D01*
X257164Y595524D01*
X257503Y594408D01*
X258053Y593379D01*
X258793Y592478D01*
X259694Y591738D01*
X260723Y591188D01*
X261839Y590849D01*
X263000Y590735D01*
X264161Y590849D01*
X265277Y591188D01*
X266306Y591738D01*
X267207Y592478D01*
X267947Y593379D01*
X268497Y594408D01*
X268836Y595524D01*
X268950Y596685D01*
X268836Y597846D01*
X268497Y598962D01*
X267947Y599991D01*
X267207Y600892D01*
X266306Y601632D01*
X265277Y602182D01*
X264161Y602521D01*
X263000Y602635D01*
D02*
G37*
G36*
X316150Y598304D02*
X314989Y598190D01*
X313873Y597851D01*
X312844Y597301D01*
X311942Y596562D01*
X311202Y595660D01*
X310653Y594631D01*
X310314Y593515D01*
X310200Y592354D01*
X310314Y591194D01*
X310653Y590077D01*
X311202Y589049D01*
X311942Y588147D01*
X312844Y587407D01*
X313873Y586857D01*
X314989Y586519D01*
X316150Y586404D01*
X317310Y586519D01*
X318426Y586857D01*
X319455Y587407D01*
X320357Y588147D01*
X321097Y589049D01*
X321647Y590077D01*
X321985Y591194D01*
X322099Y592354D01*
X321985Y593515D01*
X321647Y594631D01*
X321097Y595660D01*
X320357Y596562D01*
X319455Y597301D01*
X318426Y597851D01*
X317310Y598190D01*
X316150Y598304D01*
D02*
G37*
G36*
X183000Y590751D02*
X182122Y590576D01*
X181378Y590079D01*
X180880Y589335D01*
X180706Y588457D01*
X180880Y587579D01*
X181378Y586834D01*
X182122Y586337D01*
X183000Y586163D01*
X183350Y586232D01*
X183776Y585807D01*
X183706Y585457D01*
X183880Y584579D01*
X184378Y583835D01*
X185122Y583337D01*
X186000Y583163D01*
X186878Y583337D01*
X187622Y583835D01*
X188119Y584579D01*
X188294Y585457D01*
X188119Y586335D01*
X187622Y587079D01*
X186878Y587576D01*
X186000Y587751D01*
X185650Y587681D01*
X185224Y588106D01*
X185294Y588457D01*
X185119Y589335D01*
X184622Y590079D01*
X183878Y590576D01*
X183000Y590751D01*
D02*
G37*
G36*
X202886Y582751D02*
X202008Y582576D01*
X201264Y582079D01*
X200766Y581335D01*
X200592Y580457D01*
X200766Y579579D01*
X201264Y578834D01*
X202008Y578337D01*
X202886Y578163D01*
X203764Y578337D01*
X204508Y578834D01*
X205005Y579579D01*
X205180Y580457D01*
X205005Y581335D01*
X204508Y582079D01*
X203764Y582576D01*
X202886Y582751D01*
D02*
G37*
G36*
X147492Y582554D02*
X146614Y582379D01*
X145870Y581882D01*
X145373Y581138D01*
X145198Y580260D01*
X145373Y579382D01*
X145870Y578638D01*
X146614Y578140D01*
X147492Y577966D01*
X148370Y578140D01*
X149114Y578638D01*
X149612Y579382D01*
X149786Y580260D01*
X149612Y581138D01*
X149114Y581882D01*
X148370Y582379D01*
X147492Y582554D01*
D02*
G37*
G36*
X164563Y578074D02*
X163685Y577899D01*
X162941Y577402D01*
X162443Y576657D01*
X162269Y575779D01*
X162443Y574902D01*
X162941Y574157D01*
X163685Y573660D01*
X164563Y573486D01*
X164913Y573555D01*
X165339Y573130D01*
X165269Y572780D01*
X165444Y571902D01*
X165941Y571157D01*
X166685Y570660D01*
X167563Y570485D01*
X168441Y570660D01*
X169185Y571157D01*
X169682Y571902D01*
X169857Y572780D01*
X169682Y573657D01*
X169185Y574402D01*
X168441Y574899D01*
X167563Y575074D01*
X167213Y575004D01*
X166787Y575429D01*
X166857Y575779D01*
X166682Y576657D01*
X166185Y577402D01*
X165441Y577899D01*
X164563Y578074D01*
D02*
G37*
G36*
X316150Y578824D02*
X314989Y578710D01*
X313873Y578371D01*
X312844Y577821D01*
X311942Y577081D01*
X311202Y576180D01*
X310653Y575151D01*
X310314Y574035D01*
X310200Y572874D01*
X310314Y571713D01*
X310653Y570597D01*
X311202Y569568D01*
X311942Y568667D01*
X312844Y567927D01*
X313873Y567377D01*
X314989Y567038D01*
X316150Y566924D01*
X317310Y567038D01*
X318426Y567377D01*
X319455Y567927D01*
X320357Y568667D01*
X321097Y569568D01*
X321647Y570597D01*
X321985Y571713D01*
X322099Y572874D01*
X321985Y574035D01*
X321647Y575151D01*
X321097Y576180D01*
X320357Y577081D01*
X319455Y577821D01*
X318426Y578371D01*
X317310Y578710D01*
X316150Y578824D01*
D02*
G37*
G36*
X87000Y577281D02*
X85839Y577166D01*
X84723Y576828D01*
X83694Y576278D01*
X82793Y575538D01*
X82053Y574636D01*
X81503Y573608D01*
X81164Y572492D01*
X81050Y571331D01*
X81164Y570170D01*
X81503Y569054D01*
X82053Y568025D01*
X82793Y567124D01*
X83694Y566384D01*
X84723Y565834D01*
X85839Y565495D01*
X87000Y565381D01*
X88161Y565495D01*
X89277Y565834D01*
X90306Y566384D01*
X91207Y567124D01*
X91947Y568025D01*
X92497Y569054D01*
X92836Y570170D01*
X92950Y571331D01*
X92836Y572492D01*
X92497Y573608D01*
X91947Y574636D01*
X91207Y575538D01*
X90306Y576278D01*
X89277Y576828D01*
X88161Y577166D01*
X87000Y577281D01*
D02*
G37*
G36*
X136492Y569554D02*
X135614Y569379D01*
X134870Y568882D01*
X134373Y568138D01*
X134198Y567260D01*
X134373Y566382D01*
X134870Y565638D01*
X135614Y565140D01*
X136492Y564966D01*
X137370Y565140D01*
X138114Y565638D01*
X138612Y566382D01*
X138786Y567260D01*
X138612Y568138D01*
X138114Y568882D01*
X137370Y569379D01*
X136492Y569554D01*
D02*
G37*
G36*
X157500Y569318D02*
X156622Y569143D01*
X155878Y568646D01*
X155380Y567902D01*
X155206Y567024D01*
X155380Y566146D01*
X155878Y565402D01*
X156622Y564904D01*
X157500Y564730D01*
X158378Y564904D01*
X159122Y565402D01*
X159619Y566146D01*
X159794Y567024D01*
X159619Y567902D01*
X159122Y568646D01*
X158378Y569143D01*
X157500Y569318D01*
D02*
G37*
G36*
X188886Y567751D02*
X188008Y567576D01*
X187264Y567079D01*
X186766Y566335D01*
X186592Y565457D01*
X186766Y564579D01*
X187264Y563834D01*
X188008Y563337D01*
X188886Y563163D01*
X189764Y563337D01*
X190508Y563834D01*
X191005Y564579D01*
X191180Y565457D01*
X191005Y566335D01*
X190508Y567079D01*
X189764Y567576D01*
X188886Y567751D01*
D02*
G37*
G36*
X213886Y568079D02*
X213207Y567990D01*
X212575Y567728D01*
X212032Y567311D01*
X211615Y566768D01*
X211353Y566135D01*
X211263Y565457D01*
X211353Y564778D01*
X211615Y564146D01*
X212032Y563602D01*
X212575Y563186D01*
X213207Y562924D01*
X213886Y562834D01*
X214565Y562924D01*
X215197Y563186D01*
X215740Y563602D01*
X216157Y564146D01*
X216419Y564778D01*
X216508Y565457D01*
X216419Y566135D01*
X216157Y566768D01*
X215740Y567311D01*
X215197Y567728D01*
X214565Y567990D01*
X213886Y568079D01*
D02*
G37*
G36*
X263000Y574493D02*
X261839Y574379D01*
X260723Y574040D01*
X259694Y573490D01*
X258793Y572751D01*
X258053Y571849D01*
X257503Y570820D01*
X257164Y569704D01*
X257050Y568543D01*
X257164Y567382D01*
X257503Y566266D01*
X258053Y565238D01*
X258793Y564336D01*
X259694Y563596D01*
X260723Y563046D01*
X261839Y562708D01*
X263000Y562593D01*
X264161Y562708D01*
X265277Y563046D01*
X266306Y563596D01*
X267207Y564336D01*
X267947Y565238D01*
X268497Y566266D01*
X268836Y567382D01*
X268950Y568543D01*
X268836Y569704D01*
X268497Y570820D01*
X267947Y571849D01*
X267207Y572751D01*
X266306Y573490D01*
X265277Y574040D01*
X264161Y574379D01*
X263000Y574493D01*
D02*
G37*
G36*
X236000Y567622D02*
X235321Y567533D01*
X234689Y567271D01*
X234146Y566854D01*
X233729Y566311D01*
X233467Y565679D01*
X233378Y565000D01*
X233467Y564321D01*
X233729Y563689D01*
X234146Y563146D01*
X234689Y562729D01*
X235321Y562467D01*
X236000Y562378D01*
X236679Y562467D01*
X237311Y562729D01*
X237854Y563146D01*
X238271Y563689D01*
X238533Y564321D01*
X238622Y565000D01*
X238533Y565679D01*
X238271Y566311D01*
X237854Y566854D01*
X237311Y567271D01*
X236679Y567533D01*
X236000Y567622D01*
D02*
G37*
G36*
X33850Y572950D02*
X32690Y572836D01*
X31574Y572497D01*
X30545Y571947D01*
X29643Y571207D01*
X28903Y570306D01*
X28353Y569277D01*
X28015Y568161D01*
X27900Y567000D01*
X28015Y565839D01*
X28353Y564723D01*
X28903Y563694D01*
X29643Y562793D01*
X30545Y562053D01*
X31574Y561503D01*
X32690Y561164D01*
X33850Y561050D01*
X35011Y561164D01*
X36127Y561503D01*
X37156Y562053D01*
X38058Y562793D01*
X38798Y563694D01*
X39347Y564723D01*
X39686Y565839D01*
X39800Y567000D01*
X39686Y568161D01*
X39347Y569277D01*
X38798Y570306D01*
X38058Y571207D01*
X37156Y571947D01*
X36127Y572497D01*
X35011Y572836D01*
X33850Y572950D01*
D02*
G37*
G36*
X161492Y557554D02*
X160614Y557379D01*
X159870Y556882D01*
X159373Y556138D01*
X159198Y555260D01*
X159373Y554382D01*
X159870Y553638D01*
X160614Y553140D01*
X161492Y552966D01*
X162370Y553140D01*
X163114Y553638D01*
X163612Y554382D01*
X163786Y555260D01*
X163612Y556138D01*
X163114Y556882D01*
X162370Y557379D01*
X161492Y557554D01*
D02*
G37*
G36*
X136492Y557882D02*
X135813Y557793D01*
X135181Y557531D01*
X134638Y557114D01*
X134221Y556571D01*
X133959Y555939D01*
X133870Y555260D01*
X133959Y554581D01*
X134221Y553949D01*
X134638Y553406D01*
X135181Y552989D01*
X135813Y552727D01*
X136492Y552637D01*
X137171Y552727D01*
X137803Y552989D01*
X138347Y553406D01*
X138763Y553949D01*
X139025Y554581D01*
X139114Y555260D01*
X139025Y555939D01*
X138763Y556571D01*
X138347Y557114D01*
X137803Y557531D01*
X137171Y557793D01*
X136492Y557882D01*
D02*
G37*
G36*
X114000Y557622D02*
X113321Y557533D01*
X112689Y557271D01*
X112146Y556854D01*
X111729Y556311D01*
X111467Y555679D01*
X111378Y555000D01*
X111467Y554321D01*
X111729Y553689D01*
X112146Y553146D01*
X112689Y552729D01*
X113321Y552467D01*
X114000Y552378D01*
X114679Y552467D01*
X115311Y552729D01*
X115854Y553146D01*
X116271Y553689D01*
X116533Y554321D01*
X116622Y555000D01*
X116533Y555679D01*
X116271Y556311D01*
X115854Y556854D01*
X115311Y557271D01*
X114679Y557533D01*
X114000Y557622D01*
D02*
G37*
G36*
X192500Y555987D02*
X191622Y555812D01*
X190878Y555315D01*
X190381Y554571D01*
X190206Y553693D01*
X190381Y552815D01*
X190878Y552071D01*
X191622Y551574D01*
X192500Y551399D01*
X193378Y551574D01*
X194122Y552071D01*
X194620Y552815D01*
X194794Y553693D01*
X194620Y554571D01*
X194122Y555315D01*
X193378Y555812D01*
X192500Y555987D01*
D02*
G37*
G36*
X213886Y555751D02*
X213008Y555576D01*
X212264Y555079D01*
X211766Y554335D01*
X211592Y553457D01*
X211766Y552579D01*
X212264Y551834D01*
X213008Y551337D01*
X213886Y551163D01*
X214764Y551337D01*
X215508Y551834D01*
X216005Y552579D01*
X216180Y553457D01*
X216005Y554335D01*
X215508Y555079D01*
X214764Y555576D01*
X213886Y555751D01*
D02*
G37*
G36*
X183000Y550751D02*
X182122Y550576D01*
X181378Y550079D01*
X180880Y549335D01*
X180706Y548457D01*
X180880Y547579D01*
X181378Y546835D01*
X182122Y546337D01*
X183000Y546163D01*
X183350Y546232D01*
X183776Y545807D01*
X183706Y545457D01*
X183880Y544579D01*
X184378Y543834D01*
X185122Y543337D01*
X186000Y543163D01*
X186878Y543337D01*
X187622Y543834D01*
X188119Y544579D01*
X188294Y545457D01*
X188119Y546335D01*
X187622Y547079D01*
X186878Y547576D01*
X186000Y547751D01*
X185650Y547681D01*
X185224Y548106D01*
X185294Y548457D01*
X185119Y549335D01*
X184622Y550079D01*
X183878Y550576D01*
X183000Y550751D01*
D02*
G37*
G36*
X33850Y551155D02*
X32690Y551040D01*
X31574Y550702D01*
X30545Y550152D01*
X29643Y549412D01*
X28903Y548510D01*
X28353Y547482D01*
X28015Y546365D01*
X27900Y545205D01*
X28015Y544044D01*
X28353Y542928D01*
X28903Y541899D01*
X29643Y540998D01*
X30545Y540258D01*
X31574Y539708D01*
X32690Y539369D01*
X33850Y539255D01*
X35011Y539369D01*
X36127Y539708D01*
X37156Y540258D01*
X38058Y540998D01*
X38798Y541899D01*
X39347Y542928D01*
X39686Y544044D01*
X39800Y545205D01*
X39686Y546365D01*
X39347Y547482D01*
X38798Y548510D01*
X38058Y549412D01*
X37156Y550152D01*
X36127Y550702D01*
X35011Y551040D01*
X33850Y551155D01*
D02*
G37*
G36*
X202886Y542751D02*
X202008Y542576D01*
X201264Y542079D01*
X200766Y541335D01*
X200592Y540457D01*
X200766Y539579D01*
X201264Y538834D01*
X202008Y538337D01*
X202886Y538163D01*
X203764Y538337D01*
X204508Y538834D01*
X205005Y539579D01*
X205180Y540457D01*
X205005Y541335D01*
X204508Y542079D01*
X203764Y542576D01*
X202886Y542751D01*
D02*
G37*
G36*
X147492Y542554D02*
X146614Y542379D01*
X145870Y541882D01*
X145373Y541138D01*
X145198Y540260D01*
X145373Y539382D01*
X145870Y538638D01*
X146614Y538140D01*
X147492Y537966D01*
X148370Y538140D01*
X149114Y538638D01*
X149612Y539382D01*
X149786Y540260D01*
X149612Y541138D01*
X149114Y541882D01*
X148370Y542379D01*
X147492Y542554D01*
D02*
G37*
G36*
X87000Y546824D02*
X85839Y546710D01*
X84723Y546371D01*
X83694Y545821D01*
X82793Y545081D01*
X82053Y544180D01*
X81503Y543151D01*
X81164Y542035D01*
X81050Y540874D01*
X81164Y539713D01*
X81503Y538597D01*
X82053Y537568D01*
X82793Y536667D01*
X83694Y535927D01*
X84723Y535377D01*
X85839Y535038D01*
X87000Y534924D01*
X88161Y535038D01*
X89277Y535377D01*
X90306Y535927D01*
X91207Y536667D01*
X91947Y537568D01*
X92497Y538597D01*
X92836Y539713D01*
X92950Y540874D01*
X92836Y542035D01*
X92497Y543151D01*
X91947Y544180D01*
X91207Y545081D01*
X90306Y545821D01*
X89277Y546371D01*
X88161Y546710D01*
X87000Y546824D01*
D02*
G37*
G36*
X164563Y541294D02*
X163685Y541119D01*
X162941Y540622D01*
X162443Y539878D01*
X162269Y539000D01*
X162443Y538122D01*
X162941Y537378D01*
X163685Y536881D01*
X164563Y536706D01*
X164799Y536470D01*
X164706Y536000D01*
X164881Y535122D01*
X165378Y534378D01*
X166122Y533881D01*
X167000Y533706D01*
X167878Y533881D01*
X168622Y534378D01*
X169120Y535122D01*
X169294Y536000D01*
X169120Y536878D01*
X168622Y537622D01*
X167878Y538119D01*
X167000Y538294D01*
X166764Y538530D01*
X166857Y539000D01*
X166682Y539878D01*
X166185Y540622D01*
X165441Y541119D01*
X164563Y541294D01*
D02*
G37*
G36*
X136492Y529554D02*
X135614Y529379D01*
X134870Y528882D01*
X134373Y528138D01*
X134198Y527260D01*
X134373Y526382D01*
X134870Y525638D01*
X135614Y525140D01*
X136492Y524966D01*
X137370Y525140D01*
X138114Y525638D01*
X138612Y526382D01*
X138786Y527260D01*
X138612Y528138D01*
X138114Y528882D01*
X137370Y529379D01*
X136492Y529554D01*
D02*
G37*
G36*
X157000Y529318D02*
X156122Y529143D01*
X155378Y528646D01*
X154880Y527902D01*
X154706Y527024D01*
X154880Y526146D01*
X155378Y525401D01*
X156122Y524904D01*
X157000Y524730D01*
X157878Y524904D01*
X158622Y525401D01*
X159119Y526146D01*
X159294Y527024D01*
X159119Y527902D01*
X158622Y528646D01*
X157878Y529143D01*
X157000Y529318D01*
D02*
G37*
G36*
X188886Y527822D02*
X188008Y527647D01*
X187264Y527150D01*
X186766Y526405D01*
X186592Y525528D01*
X186766Y524650D01*
X187264Y523905D01*
X188008Y523408D01*
X188886Y523234D01*
X189764Y523408D01*
X190508Y523905D01*
X191005Y524650D01*
X191180Y525528D01*
X191005Y526405D01*
X190508Y527150D01*
X189764Y527647D01*
X188886Y527822D01*
D02*
G37*
G36*
X213886Y528079D02*
X213207Y527990D01*
X212575Y527728D01*
X212032Y527311D01*
X211615Y526768D01*
X211353Y526135D01*
X211263Y525457D01*
X211353Y524778D01*
X211615Y524146D01*
X212032Y523602D01*
X212575Y523186D01*
X213207Y522924D01*
X213886Y522834D01*
X214565Y522924D01*
X215197Y523186D01*
X215740Y523602D01*
X216157Y524146D01*
X216419Y524778D01*
X216508Y525457D01*
X216419Y526135D01*
X216157Y526768D01*
X215740Y527311D01*
X215197Y527728D01*
X214565Y527990D01*
X213886Y528079D01*
D02*
G37*
G36*
X236000Y527622D02*
X235321Y527533D01*
X234689Y527271D01*
X234146Y526854D01*
X233729Y526311D01*
X233467Y525679D01*
X233378Y525000D01*
X233467Y524321D01*
X233729Y523689D01*
X234146Y523146D01*
X234689Y522729D01*
X235321Y522467D01*
X236000Y522378D01*
X236679Y522467D01*
X237311Y522729D01*
X237854Y523146D01*
X238271Y523689D01*
X238533Y524321D01*
X238622Y525000D01*
X238533Y525679D01*
X238271Y526311D01*
X237854Y526854D01*
X237311Y527271D01*
X236679Y527533D01*
X236000Y527622D01*
D02*
G37*
G36*
X114492Y517882D02*
X113813Y517793D01*
X113181Y517531D01*
X112638Y517114D01*
X112221Y516571D01*
X111959Y515939D01*
X111870Y515260D01*
X111959Y514581D01*
X112221Y513949D01*
X112638Y513406D01*
X113181Y512989D01*
X113813Y512727D01*
X114492Y512637D01*
X115171Y512727D01*
X115803Y512989D01*
X116347Y513406D01*
X116763Y513949D01*
X117025Y514581D01*
X117115Y515260D01*
X117025Y515939D01*
X116763Y516571D01*
X116347Y517114D01*
X115803Y517531D01*
X115171Y517793D01*
X114492Y517882D01*
D02*
G37*
G36*
X192500Y515987D02*
X191622Y515812D01*
X190878Y515315D01*
X190381Y514571D01*
X190206Y513693D01*
X190381Y512815D01*
X190878Y512071D01*
X191622Y511574D01*
X192500Y511399D01*
X193378Y511574D01*
X194122Y512071D01*
X194620Y512815D01*
X194794Y513693D01*
X194620Y514571D01*
X194122Y515315D01*
X193378Y515812D01*
X192500Y515987D01*
D02*
G37*
G36*
X213886Y515751D02*
X213008Y515576D01*
X212264Y515079D01*
X211766Y514335D01*
X211592Y513457D01*
X211766Y512579D01*
X212264Y511834D01*
X213008Y511337D01*
X213886Y511163D01*
X214764Y511337D01*
X215508Y511834D01*
X216005Y512579D01*
X216180Y513457D01*
X216005Y514335D01*
X215508Y515079D01*
X214764Y515576D01*
X213886Y515751D01*
D02*
G37*
G36*
X263000Y520950D02*
X261839Y520836D01*
X260723Y520497D01*
X259694Y519947D01*
X258793Y519207D01*
X258053Y518306D01*
X257503Y517277D01*
X257164Y516161D01*
X257050Y515000D01*
X257164Y513839D01*
X257503Y512723D01*
X258053Y511694D01*
X258793Y510793D01*
X259694Y510053D01*
X260723Y509503D01*
X261839Y509164D01*
X263000Y509050D01*
X264161Y509164D01*
X265277Y509503D01*
X266306Y510053D01*
X267207Y510793D01*
X267947Y511694D01*
X268497Y512723D01*
X268836Y513839D01*
X268950Y515000D01*
X268836Y516161D01*
X268497Y517277D01*
X267947Y518306D01*
X267207Y519207D01*
X266306Y519947D01*
X265277Y520497D01*
X264161Y520836D01*
X263000Y520950D01*
D02*
G37*
G36*
X144043Y511622D02*
X143365Y511533D01*
X142732Y511271D01*
X142189Y510854D01*
X141772Y510311D01*
X141510Y509679D01*
X141421Y509000D01*
X141510Y508321D01*
X141772Y507689D01*
X142189Y507146D01*
X142732Y506729D01*
X143365Y506467D01*
X144043Y506378D01*
X144722Y506467D01*
X145354Y506729D01*
X145898Y507146D01*
X146314Y507689D01*
X146576Y508321D01*
X146666Y509000D01*
X146576Y509679D01*
X146314Y510311D01*
X145898Y510854D01*
X145354Y511271D01*
X144722Y511533D01*
X144043Y511622D01*
D02*
G37*
G36*
X316150Y516619D02*
X314989Y516505D01*
X313873Y516166D01*
X312844Y515617D01*
X311942Y514877D01*
X311202Y513975D01*
X310653Y512946D01*
X310314Y511830D01*
X310200Y510669D01*
X310314Y509509D01*
X310653Y508392D01*
X311202Y507364D01*
X311942Y506462D01*
X312844Y505722D01*
X313873Y505172D01*
X314989Y504834D01*
X316150Y504719D01*
X317310Y504834D01*
X318426Y505172D01*
X319455Y505722D01*
X320357Y506462D01*
X321097Y507364D01*
X321647Y508392D01*
X321985Y509509D01*
X322099Y510669D01*
X321985Y511830D01*
X321647Y512946D01*
X321097Y513975D01*
X320357Y514877D01*
X319455Y515617D01*
X318426Y516166D01*
X317310Y516505D01*
X316150Y516619D01*
D02*
G37*
G36*
X137000Y509294D02*
X136122Y509119D01*
X135378Y508622D01*
X134880Y507878D01*
X134706Y507000D01*
X134880Y506122D01*
X135378Y505378D01*
X136122Y504881D01*
X137000Y504706D01*
X137878Y504881D01*
X138622Y505378D01*
X139120Y506122D01*
X139294Y507000D01*
X139120Y507878D01*
X138622Y508622D01*
X137878Y509119D01*
X137000Y509294D01*
D02*
G37*
G36*
X345500Y507500D02*
X342000D01*
Y504000D01*
X345500D01*
Y507500D01*
D02*
G37*
G36*
X341000D02*
X337500D01*
Y504000D01*
X341000D01*
Y507500D01*
D02*
G37*
G36*
X183000Y510751D02*
X182122Y510576D01*
X181378Y510079D01*
X180880Y509335D01*
X180706Y508457D01*
X180880Y507579D01*
X181378Y506835D01*
X182122Y506337D01*
X183000Y506163D01*
X183350Y506232D01*
X183776Y505807D01*
X183706Y505457D01*
X183880Y504579D01*
X184378Y503834D01*
X185122Y503337D01*
X186000Y503163D01*
X186878Y503337D01*
X187622Y503834D01*
X188119Y504579D01*
X188294Y505457D01*
X188119Y506335D01*
X187622Y507079D01*
X186878Y507576D01*
X186000Y507751D01*
X185650Y507681D01*
X185224Y508106D01*
X185294Y508457D01*
X185119Y509335D01*
X184622Y510079D01*
X183878Y510576D01*
X183000Y510751D01*
D02*
G37*
G36*
X345500Y503000D02*
X342000D01*
Y499500D01*
X345500D01*
Y503000D01*
D02*
G37*
G36*
X341000D02*
X337500D01*
Y499500D01*
X341000D01*
Y503000D01*
D02*
G37*
G36*
X199000Y500294D02*
X198122Y500119D01*
X197378Y499622D01*
X196880Y498878D01*
X196706Y498000D01*
X196880Y497122D01*
X197378Y496378D01*
X198122Y495881D01*
X199000Y495706D01*
X199878Y495881D01*
X200622Y496378D01*
X201119Y497122D01*
X201294Y498000D01*
X201119Y498878D01*
X200622Y499622D01*
X199878Y500119D01*
X199000Y500294D01*
D02*
G37*
G36*
X189500Y499035D02*
X188456Y498897D01*
X187483Y498494D01*
X186647Y497853D01*
X186006Y497017D01*
X185603Y496044D01*
X185466Y495000D01*
X185603Y493956D01*
X186006Y492983D01*
X186647Y492147D01*
X187483Y491506D01*
X188456Y491103D01*
X189500Y490966D01*
X190544Y491103D01*
X191517Y491506D01*
X192353Y492147D01*
X192994Y492983D01*
X193397Y493956D01*
X193535Y495000D01*
X193397Y496044D01*
X192994Y497017D01*
X192353Y497853D01*
X191517Y498494D01*
X190544Y498897D01*
X189500Y499035D01*
D02*
G37*
G36*
X230000Y492622D02*
X229321Y492533D01*
X228689Y492271D01*
X228146Y491854D01*
X227729Y491311D01*
X227467Y490679D01*
X227378Y490000D01*
X227467Y489321D01*
X227729Y488689D01*
X228146Y488146D01*
X228689Y487729D01*
X229321Y487467D01*
X230000Y487378D01*
X230679Y487467D01*
X231311Y487729D01*
X231854Y488146D01*
X232271Y488689D01*
X232533Y489321D01*
X232622Y490000D01*
X232533Y490679D01*
X232271Y491311D01*
X231854Y491854D01*
X231311Y492271D01*
X230679Y492533D01*
X230000Y492622D01*
D02*
G37*
G36*
X87000Y493281D02*
X85839Y493166D01*
X84723Y492828D01*
X83694Y492278D01*
X82793Y491538D01*
X82053Y490636D01*
X81503Y489608D01*
X81164Y488491D01*
X81050Y487331D01*
X81164Y486170D01*
X81503Y485054D01*
X82053Y484025D01*
X82793Y483123D01*
X83694Y482383D01*
X84723Y481834D01*
X85839Y481495D01*
X87000Y481381D01*
X88161Y481495D01*
X89277Y481834D01*
X90306Y482383D01*
X91207Y483123D01*
X91947Y484025D01*
X92497Y485054D01*
X92836Y486170D01*
X92950Y487331D01*
X92836Y488491D01*
X92497Y489608D01*
X91947Y490636D01*
X91207Y491538D01*
X90306Y492278D01*
X89277Y492828D01*
X88161Y493166D01*
X87000Y493281D01*
D02*
G37*
G36*
X189500Y489035D02*
X188456Y488897D01*
X187483Y488494D01*
X186647Y487853D01*
X186006Y487017D01*
X185603Y486044D01*
X185466Y485000D01*
X185603Y483956D01*
X186006Y482983D01*
X186647Y482147D01*
X187483Y481506D01*
X188456Y481103D01*
X189500Y480966D01*
X190544Y481103D01*
X191517Y481506D01*
X192353Y482147D01*
X192994Y482983D01*
X193397Y483956D01*
X193535Y485000D01*
X193397Y486044D01*
X192994Y487017D01*
X192353Y487853D01*
X191517Y488494D01*
X190544Y488897D01*
X189500Y489035D01*
D02*
G37*
G36*
X156000Y483512D02*
X155122Y483337D01*
X154378Y482840D01*
X153881Y482095D01*
X153706Y481217D01*
X153755Y480969D01*
X153558Y480786D01*
X153313Y480632D01*
X152500Y480794D01*
X151622Y480619D01*
X150878Y480122D01*
X150381Y479378D01*
X150206Y478500D01*
X150381Y477622D01*
X150878Y476878D01*
X151622Y476381D01*
X152500Y476206D01*
X153378Y476381D01*
X154122Y476878D01*
X154620Y477622D01*
X154794Y478500D01*
X154745Y478749D01*
X154943Y478932D01*
X155187Y479085D01*
X156000Y478923D01*
X156878Y479098D01*
X157622Y479595D01*
X158119Y480340D01*
X158294Y481217D01*
X158119Y482095D01*
X157622Y482840D01*
X156878Y483337D01*
X156000Y483512D01*
D02*
G37*
G36*
X33850Y488950D02*
X32690Y488836D01*
X31574Y488497D01*
X30545Y487947D01*
X29643Y487207D01*
X28903Y486306D01*
X28353Y485277D01*
X28015Y484161D01*
X27900Y483000D01*
X28015Y481839D01*
X28353Y480723D01*
X28903Y479694D01*
X29643Y478793D01*
X30545Y478053D01*
X31574Y477503D01*
X32690Y477164D01*
X33850Y477050D01*
X35011Y477164D01*
X36127Y477503D01*
X37156Y478053D01*
X38058Y478793D01*
X38798Y479694D01*
X39347Y480723D01*
X39686Y481839D01*
X39800Y483000D01*
X39686Y484161D01*
X39347Y485277D01*
X38798Y486306D01*
X38058Y487207D01*
X37156Y487947D01*
X36127Y488497D01*
X35011Y488836D01*
X33850Y488950D01*
D02*
G37*
G36*
X29000Y477622D02*
X28321Y477533D01*
X27689Y477271D01*
X27146Y476854D01*
X26729Y476311D01*
X26467Y475679D01*
X26378Y475000D01*
X26467Y474321D01*
X26729Y473689D01*
X27146Y473146D01*
X27689Y472729D01*
X28321Y472467D01*
X29000Y472378D01*
X29679Y472467D01*
X30311Y472729D01*
X30854Y473146D01*
X31271Y473689D01*
X31533Y474321D01*
X31622Y475000D01*
X31533Y475679D01*
X31271Y476311D01*
X30854Y476854D01*
X30311Y477271D01*
X29679Y477533D01*
X29000Y477622D01*
D02*
G37*
G36*
X193500Y479000D02*
X185500D01*
Y471000D01*
X193500D01*
Y479000D01*
D02*
G37*
G36*
X131000Y518154D02*
X130321Y518065D01*
X129689Y517803D01*
X129146Y517386D01*
X128729Y516843D01*
X128467Y516210D01*
X128378Y515531D01*
Y496086D01*
X101732Y469440D01*
X101343Y469759D01*
X101373Y469803D01*
X101719Y470322D01*
X101894Y471200D01*
X101719Y472078D01*
X101222Y472822D01*
X100478Y473319D01*
X99600Y473494D01*
X98722Y473319D01*
X97978Y472822D01*
X97481Y472078D01*
X97306Y471200D01*
X97481Y470322D01*
X97978Y469578D01*
X98722Y469081D01*
X99600Y468906D01*
X100478Y469081D01*
X100997Y469427D01*
X101041Y469457D01*
X101360Y469068D01*
X87669Y455377D01*
X87190Y455522D01*
X87119Y455878D01*
X86622Y456622D01*
X85878Y457119D01*
X85000Y457294D01*
X84122Y457119D01*
X83378Y456622D01*
X82881Y455878D01*
X82706Y455000D01*
X82881Y454122D01*
X83378Y453378D01*
X84122Y452881D01*
X84478Y452810D01*
X84623Y452331D01*
X78146Y445854D01*
X77729Y445311D01*
X77467Y444679D01*
X77377Y444000D01*
X77377Y444000D01*
Y407776D01*
X77467Y407097D01*
X77729Y406464D01*
X78146Y405921D01*
X78689Y405505D01*
X79321Y405242D01*
X80000Y405153D01*
X80679Y405242D01*
X81311Y405505D01*
X81854Y405921D01*
X82271Y406464D01*
X82533Y407097D01*
X82622Y407776D01*
Y441359D01*
X83122Y441510D01*
X83278Y441278D01*
X84022Y440781D01*
X84900Y440606D01*
X85778Y440781D01*
X86522Y441278D01*
X87019Y442022D01*
X87194Y442900D01*
X87019Y443778D01*
X86522Y444522D01*
X85778Y445019D01*
X85422Y445090D01*
X85277Y445569D01*
X132854Y493146D01*
X132854Y493146D01*
X133271Y493689D01*
X133533Y494321D01*
X133623Y495000D01*
X133622Y495000D01*
Y515531D01*
X133533Y516210D01*
X133271Y516843D01*
X132854Y517386D01*
X132311Y517803D01*
X131679Y518065D01*
X131000Y518154D01*
D02*
G37*
G36*
X213886Y473922D02*
X213207Y473833D01*
X212575Y473571D01*
X212032Y473154D01*
X211615Y472611D01*
X211353Y471979D01*
X211263Y471300D01*
X211353Y470621D01*
X211615Y469989D01*
X212032Y469446D01*
X212575Y469029D01*
X213207Y468767D01*
X213886Y468678D01*
X214565Y468767D01*
X215197Y469029D01*
X215740Y469446D01*
X216157Y469989D01*
X216419Y470621D01*
X216508Y471300D01*
X216419Y471979D01*
X216157Y472611D01*
X215740Y473154D01*
X215197Y473571D01*
X214565Y473833D01*
X213886Y473922D01*
D02*
G37*
G36*
X163100Y463494D02*
X162222Y463319D01*
X161478Y462822D01*
X160980Y462078D01*
X160806Y461200D01*
X160980Y460322D01*
X161478Y459578D01*
X162222Y459081D01*
X163100Y458906D01*
X163978Y459081D01*
X164722Y459578D01*
X165219Y460322D01*
X165394Y461200D01*
X165219Y462078D01*
X164722Y462822D01*
X163978Y463319D01*
X163100Y463494D01*
D02*
G37*
G36*
X139000Y460294D02*
X138122Y460119D01*
X137378Y459622D01*
X136881Y458878D01*
X136706Y458000D01*
X136881Y457122D01*
X137378Y456378D01*
X138122Y455881D01*
X139000Y455706D01*
X139878Y455881D01*
X140622Y456378D01*
X141120Y457122D01*
X141294Y458000D01*
X141120Y458878D01*
X140622Y459622D01*
X139878Y460119D01*
X139000Y460294D01*
D02*
G37*
G36*
X180100Y460194D02*
X179222Y460019D01*
X178478Y459522D01*
X177980Y458778D01*
X177806Y457900D01*
X177980Y457022D01*
X178478Y456278D01*
X179222Y455781D01*
X180100Y455606D01*
X180978Y455781D01*
X181722Y456278D01*
X182220Y457022D01*
X182394Y457900D01*
X182220Y458778D01*
X181722Y459522D01*
X180978Y460019D01*
X180100Y460194D01*
D02*
G37*
G36*
X57000Y474294D02*
X56122Y474119D01*
X55378Y473622D01*
X54881Y472878D01*
X54706Y472000D01*
X54852Y471265D01*
X54122Y471119D01*
X53378Y470622D01*
X52881Y469878D01*
X52706Y469000D01*
X52852Y468265D01*
X52122Y468119D01*
X51378Y467622D01*
X50880Y466878D01*
X50706Y466000D01*
X50852Y465265D01*
X50122Y465119D01*
X49378Y464622D01*
X48880Y463878D01*
X48706Y463000D01*
X48852Y462265D01*
X48122Y462119D01*
X47378Y461622D01*
X46880Y460878D01*
X46706Y460000D01*
X46852Y459265D01*
X46122Y459119D01*
X45378Y458622D01*
X44881Y457878D01*
X44706Y457000D01*
X44852Y456265D01*
X44122Y456119D01*
X43378Y455622D01*
X42880Y454878D01*
X42706Y454000D01*
X42880Y453122D01*
X43378Y452378D01*
X44122Y451881D01*
X45000Y451706D01*
X45878Y451881D01*
X46622Y452378D01*
X47120Y453122D01*
X47294Y454000D01*
X47148Y454735D01*
X47878Y454881D01*
X48622Y455378D01*
X49119Y456122D01*
X49294Y457000D01*
X49148Y457735D01*
X49878Y457881D01*
X50622Y458378D01*
X51120Y459122D01*
X51294Y460000D01*
X51148Y460735D01*
X51878Y460881D01*
X52622Y461378D01*
X53119Y462122D01*
X53294Y463000D01*
X53148Y463735D01*
X53878Y463881D01*
X54622Y464378D01*
X55119Y465122D01*
X55294Y466000D01*
X55148Y466735D01*
X55878Y466881D01*
X56622Y467378D01*
X57119Y468122D01*
X57294Y469000D01*
X57148Y469735D01*
X57878Y469881D01*
X58622Y470378D01*
X59119Y471122D01*
X59294Y472000D01*
X59119Y472878D01*
X58622Y473622D01*
X57878Y474119D01*
X57000Y474294D01*
D02*
G37*
G36*
X64000Y447223D02*
X63122Y447049D01*
X62378Y446551D01*
X61881Y445807D01*
X61706Y444929D01*
X61881Y444051D01*
X62378Y443307D01*
X63122Y442810D01*
X64000Y442635D01*
X64878Y442810D01*
X65622Y443307D01*
X66119Y444051D01*
X66294Y444929D01*
X66119Y445807D01*
X65622Y446551D01*
X64878Y447049D01*
X64000Y447223D01*
D02*
G37*
G36*
X35000Y447481D02*
X34321Y447391D01*
X33689Y447129D01*
X33146Y446713D01*
X32729Y446170D01*
X32467Y445537D01*
X32378Y444858D01*
X32467Y444179D01*
X32729Y443547D01*
X33146Y443004D01*
X33689Y442587D01*
X34321Y442325D01*
X35000Y442236D01*
X35679Y442325D01*
X36311Y442587D01*
X36854Y443004D01*
X37271Y443547D01*
X37533Y444179D01*
X37622Y444858D01*
X37533Y445537D01*
X37271Y446170D01*
X36854Y446713D01*
X36311Y447129D01*
X35679Y447391D01*
X35000Y447481D01*
D02*
G37*
G36*
X122000Y442622D02*
X121321Y442533D01*
X120689Y442271D01*
X120146Y441854D01*
X119729Y441311D01*
X119467Y440679D01*
X118930Y440429D01*
X118679Y440533D01*
X118000Y440622D01*
X117321Y440533D01*
X116689Y440271D01*
X116146Y439854D01*
X115729Y439311D01*
X115467Y438679D01*
X115378Y438000D01*
X115467Y437321D01*
X115729Y436689D01*
X116146Y436146D01*
X116689Y435729D01*
X117321Y435467D01*
X118000Y435378D01*
X118679Y435467D01*
X119311Y435729D01*
X119854Y436146D01*
X120271Y436689D01*
X120533Y437321D01*
X121070Y437571D01*
X121321Y437467D01*
X122000Y437378D01*
X122679Y437467D01*
X122930Y437571D01*
X123467Y437321D01*
X123729Y436689D01*
X124146Y436146D01*
X124689Y435729D01*
X125321Y435467D01*
X126000Y435378D01*
X126679Y435467D01*
X127311Y435729D01*
X127854Y436146D01*
X128271Y436689D01*
X128533Y437321D01*
X128622Y438000D01*
X128533Y438679D01*
X128271Y439311D01*
X127854Y439854D01*
X127311Y440271D01*
X126679Y440533D01*
X126000Y440623D01*
X125321Y440533D01*
X125070Y440429D01*
X124533Y440679D01*
X124271Y441311D01*
X123854Y441854D01*
X123311Y442271D01*
X122679Y442533D01*
X122000Y442622D01*
D02*
G37*
G36*
X341000Y441000D02*
X337500D01*
Y437500D01*
X341000D01*
Y441000D01*
D02*
G37*
G36*
X336500D02*
X333000D01*
Y437500D01*
X336500D01*
Y441000D01*
D02*
G37*
G36*
X341000Y436500D02*
X337500D01*
Y433000D01*
X341000D01*
Y436500D01*
D02*
G37*
G36*
X336500D02*
X333000D01*
Y433000D01*
X336500D01*
Y436500D01*
D02*
G37*
G36*
X193000Y436294D02*
X192122Y436119D01*
X191378Y435622D01*
X190881Y434878D01*
X190706Y434000D01*
X190881Y433122D01*
X191378Y432378D01*
X192122Y431881D01*
X193000Y431706D01*
X193878Y431881D01*
X194622Y432378D01*
X195120Y433122D01*
X195294Y434000D01*
X195120Y434878D01*
X194622Y435622D01*
X193878Y436119D01*
X193000Y436294D01*
D02*
G37*
G36*
X261000Y434622D02*
X260321Y434533D01*
X259689Y434271D01*
X259146Y433854D01*
X258729Y433311D01*
X258467Y432679D01*
X258378Y432000D01*
X258467Y431321D01*
X258729Y430689D01*
X259146Y430146D01*
X259689Y429729D01*
X260321Y429467D01*
X261000Y429378D01*
X261679Y429467D01*
X262311Y429729D01*
X262854Y430146D01*
X263271Y430689D01*
X263533Y431321D01*
X263622Y432000D01*
X263533Y432679D01*
X263271Y433311D01*
X262854Y433854D01*
X262311Y434271D01*
X261679Y434533D01*
X261000Y434622D01*
D02*
G37*
G36*
X197500Y432794D02*
X196622Y432619D01*
X195878Y432122D01*
X195380Y431378D01*
X195206Y430500D01*
X195380Y429622D01*
X195878Y428878D01*
X196622Y428381D01*
X197500Y428206D01*
X198378Y428381D01*
X199122Y428878D01*
X199619Y429622D01*
X199794Y430500D01*
X199619Y431378D01*
X199122Y432122D01*
X198378Y432619D01*
X197500Y432794D01*
D02*
G37*
G36*
X126000Y432622D02*
X125321Y432533D01*
X124689Y432271D01*
X124146Y431854D01*
X123729Y431311D01*
X123467Y430679D01*
X123378Y430000D01*
X123467Y429321D01*
X123729Y428689D01*
X124146Y428146D01*
X124689Y427729D01*
X125321Y427467D01*
X126000Y427378D01*
X126679Y427467D01*
X127311Y427729D01*
X127854Y428146D01*
X128271Y428689D01*
X128533Y429321D01*
X128622Y430000D01*
X128533Y430679D01*
X128271Y431311D01*
X127854Y431854D01*
X127311Y432271D01*
X126679Y432533D01*
X126000Y432622D01*
D02*
G37*
G36*
X118000Y432622D02*
X117321Y432533D01*
X116689Y432271D01*
X116146Y431854D01*
X115729Y431311D01*
X115467Y430679D01*
X115378Y430000D01*
X115467Y429321D01*
X115729Y428689D01*
X116146Y428146D01*
X116689Y427729D01*
X117321Y427467D01*
X118000Y427378D01*
X118679Y427467D01*
X119311Y427729D01*
X119854Y428146D01*
X120271Y428689D01*
X120533Y429321D01*
X120622Y430000D01*
X120533Y430679D01*
X120271Y431311D01*
X119854Y431854D01*
X119311Y432271D01*
X118679Y432533D01*
X118000Y432622D01*
D02*
G37*
G36*
X99000Y430294D02*
X98122Y430119D01*
X97378Y429622D01*
X96881Y428878D01*
X96706Y428000D01*
X96881Y427122D01*
X97378Y426378D01*
X98122Y425881D01*
X99000Y425706D01*
X99878Y425881D01*
X100622Y426378D01*
X101119Y427122D01*
X101294Y428000D01*
X101119Y428878D01*
X100622Y429622D01*
X99878Y430119D01*
X99000Y430294D01*
D02*
G37*
G36*
X337000Y431035D02*
X335956Y430897D01*
X334983Y430494D01*
X334147Y429853D01*
X333506Y429017D01*
X333103Y428044D01*
X332965Y427000D01*
X333103Y425956D01*
X333506Y424983D01*
X334147Y424147D01*
X334983Y423506D01*
X335956Y423103D01*
X337000Y422965D01*
X338044Y423103D01*
X339017Y423506D01*
X339853Y424147D01*
X340494Y424983D01*
X340897Y425956D01*
X341035Y427000D01*
X340897Y428044D01*
X340494Y429017D01*
X339853Y429853D01*
X339017Y430494D01*
X338044Y430897D01*
X337000Y431035D01*
D02*
G37*
G36*
X86000Y427294D02*
X85122Y427119D01*
X84378Y426622D01*
X83881Y425878D01*
X83706Y425000D01*
X83881Y424122D01*
X84378Y423378D01*
X85122Y422881D01*
X86000Y422706D01*
X86878Y422881D01*
X87622Y423378D01*
X88119Y424122D01*
X88294Y425000D01*
X88119Y425878D01*
X87622Y426622D01*
X86878Y427119D01*
X86000Y427294D01*
D02*
G37*
G36*
X215500Y427294D02*
X214622Y427119D01*
X213878Y426622D01*
X213381Y425878D01*
X213206Y425000D01*
X213381Y424122D01*
X213878Y423378D01*
X214622Y422881D01*
X215500Y422706D01*
X216378Y422881D01*
X217122Y423378D01*
X217619Y424122D01*
X217794Y425000D01*
X217619Y425878D01*
X217122Y426622D01*
X216378Y427119D01*
X215500Y427294D01*
D02*
G37*
G36*
X126000Y424622D02*
X125321Y424533D01*
X124689Y424271D01*
X124146Y423854D01*
X123729Y423311D01*
X123467Y422679D01*
X123378Y422000D01*
X123467Y421321D01*
X123729Y420689D01*
X124146Y420146D01*
X124689Y419729D01*
X125321Y419467D01*
X126000Y419378D01*
X126679Y419467D01*
X127311Y419729D01*
X127854Y420146D01*
X128271Y420689D01*
X128533Y421321D01*
X128622Y422000D01*
X128533Y422679D01*
X128271Y423311D01*
X127854Y423854D01*
X127311Y424271D01*
X126679Y424533D01*
X126000Y424622D01*
D02*
G37*
G36*
X118000Y424622D02*
X117321Y424533D01*
X116689Y424271D01*
X116146Y423854D01*
X115729Y423311D01*
X115467Y422679D01*
X115378Y422000D01*
X115467Y421321D01*
X115729Y420689D01*
X116146Y420146D01*
X116689Y419729D01*
X117321Y419467D01*
X118000Y419378D01*
X118679Y419467D01*
X119311Y419729D01*
X119854Y420146D01*
X120271Y420689D01*
X120533Y421321D01*
X120622Y422000D01*
X120533Y422679D01*
X120271Y423311D01*
X119854Y423854D01*
X119311Y424271D01*
X118679Y424533D01*
X118000Y424622D01*
D02*
G37*
G36*
X37000Y420622D02*
X36321Y420533D01*
X35689Y420271D01*
X35146Y419854D01*
X34729Y419311D01*
X34467Y418679D01*
X34378Y418000D01*
X34467Y417321D01*
X34729Y416689D01*
X35146Y416146D01*
X35689Y415729D01*
X36321Y415467D01*
X37000Y415378D01*
X37679Y415467D01*
X38311Y415729D01*
X38854Y416146D01*
X39271Y416689D01*
X39533Y417321D01*
X39622Y418000D01*
X39533Y418679D01*
X39271Y419311D01*
X38854Y419854D01*
X38311Y420271D01*
X37679Y420533D01*
X37000Y420622D01*
D02*
G37*
G36*
X259500Y419752D02*
X258821Y419663D01*
X258189Y419401D01*
X257646Y418984D01*
X257229Y418441D01*
X256967Y417809D01*
X256878Y417130D01*
X256967Y416451D01*
X257229Y415819D01*
X257646Y415276D01*
X258189Y414859D01*
X258821Y414597D01*
X259500Y414507D01*
X260179Y414597D01*
X260811Y414859D01*
X261354Y415276D01*
X261771Y415819D01*
X262033Y416451D01*
X262122Y417130D01*
X262033Y417809D01*
X261771Y418441D01*
X261354Y418984D01*
X260811Y419401D01*
X260179Y419663D01*
X259500Y419752D01*
D02*
G37*
G36*
X65000Y418622D02*
X64321Y418533D01*
X63689Y418271D01*
X63146Y417854D01*
X62729Y417311D01*
X62467Y416679D01*
X62378Y416000D01*
X62467Y415321D01*
X62729Y414689D01*
X63146Y414146D01*
X63689Y413729D01*
X64321Y413467D01*
X65000Y413378D01*
X65679Y413467D01*
X66311Y413729D01*
X66854Y414146D01*
X67271Y414689D01*
X67533Y415321D01*
X67622Y416000D01*
X67533Y416679D01*
X67271Y417311D01*
X66854Y417854D01*
X66311Y418271D01*
X65679Y418533D01*
X65000Y418622D01*
D02*
G37*
G36*
X126000Y416622D02*
X125321Y416533D01*
X124689Y416271D01*
X124146Y415854D01*
X123729Y415311D01*
X123467Y414679D01*
X123378Y414000D01*
X123467Y413321D01*
X123729Y412689D01*
X124146Y412146D01*
X124689Y411729D01*
X125321Y411467D01*
X126000Y411378D01*
X126679Y411467D01*
X127311Y411729D01*
X127854Y412146D01*
X128271Y412689D01*
X128533Y413321D01*
X128622Y414000D01*
X128533Y414679D01*
X128271Y415311D01*
X127854Y415854D01*
X127311Y416271D01*
X126679Y416533D01*
X126000Y416622D01*
D02*
G37*
G36*
X118000Y416622D02*
X117321Y416533D01*
X116689Y416271D01*
X116146Y415854D01*
X115729Y415311D01*
X115467Y414679D01*
X115378Y414000D01*
X115467Y413321D01*
X115729Y412689D01*
X116146Y412146D01*
X116689Y411729D01*
X117321Y411467D01*
X118000Y411377D01*
X118679Y411467D01*
X119311Y411729D01*
X119854Y412146D01*
X120271Y412689D01*
X120533Y413321D01*
X120622Y414000D01*
X120533Y414679D01*
X120271Y415311D01*
X119854Y415854D01*
X119311Y416271D01*
X118679Y416533D01*
X118000Y416622D01*
D02*
G37*
G36*
X284000Y414622D02*
X283321Y414533D01*
X282689Y414271D01*
X282146Y413854D01*
X281729Y413311D01*
X281467Y412679D01*
X281378Y412000D01*
X281467Y411321D01*
X281729Y410689D01*
X282146Y410146D01*
X282689Y409729D01*
X283321Y409467D01*
X284000Y409378D01*
X284679Y409467D01*
X285311Y409729D01*
X285854Y410146D01*
X286271Y410689D01*
X286533Y411321D01*
X286622Y412000D01*
X286533Y412679D01*
X286271Y413311D01*
X285854Y413854D01*
X285311Y414271D01*
X284679Y414533D01*
X284000Y414622D01*
D02*
G37*
G36*
X259393Y413122D02*
X258714Y413033D01*
X258082Y412771D01*
X257539Y412354D01*
X257122Y411811D01*
X256860Y411179D01*
X256770Y410500D01*
X256860Y409821D01*
X257122Y409189D01*
X257539Y408646D01*
X258082Y408229D01*
X258714Y407967D01*
X259393Y407878D01*
X260072Y407967D01*
X260704Y408229D01*
X261247Y408646D01*
X261664Y409189D01*
X261926Y409821D01*
X262015Y410500D01*
X261926Y411179D01*
X261664Y411811D01*
X261247Y412354D01*
X260704Y412771D01*
X260072Y413033D01*
X259393Y413122D01*
D02*
G37*
G36*
X219500Y407752D02*
X218821Y407663D01*
X218189Y407401D01*
X217646Y406984D01*
X217229Y406441D01*
X216967Y405809D01*
X216878Y405130D01*
X216967Y404451D01*
X217229Y403819D01*
X217646Y403276D01*
X218189Y402859D01*
X218821Y402597D01*
X219500Y402507D01*
X220179Y402597D01*
X220811Y402859D01*
X221354Y403276D01*
X221771Y403819D01*
X222033Y404451D01*
X222122Y405130D01*
X222033Y405809D01*
X221771Y406441D01*
X221354Y406984D01*
X220811Y407401D01*
X220179Y407663D01*
X219500Y407752D01*
D02*
G37*
G36*
X259393Y407122D02*
X258714Y407033D01*
X258082Y406771D01*
X257539Y406354D01*
X257122Y405811D01*
X256860Y405179D01*
X256770Y404500D01*
X256860Y403821D01*
X257122Y403189D01*
X257539Y402646D01*
X258082Y402229D01*
X258714Y401967D01*
X259393Y401878D01*
X260072Y401967D01*
X260704Y402229D01*
X261247Y402646D01*
X261664Y403189D01*
X261926Y403821D01*
X262015Y404500D01*
X261926Y405179D01*
X261664Y405811D01*
X261247Y406354D01*
X260704Y406771D01*
X260072Y407033D01*
X259393Y407122D01*
D02*
G37*
G36*
X186000Y404294D02*
X185122Y404119D01*
X184378Y403622D01*
X183880Y402878D01*
X183706Y402000D01*
X183880Y401122D01*
X184378Y400378D01*
X185122Y399881D01*
X186000Y399706D01*
X186878Y399881D01*
X187622Y400378D01*
X188119Y401122D01*
X188294Y402000D01*
X188119Y402878D01*
X187622Y403622D01*
X186878Y404119D01*
X186000Y404294D01*
D02*
G37*
G36*
X123000Y401294D02*
X122122Y401120D01*
X121378Y400622D01*
X120880Y399878D01*
X120706Y399000D01*
X120880Y398122D01*
X121378Y397378D01*
X122122Y396881D01*
X123000Y396706D01*
X123878Y396881D01*
X124622Y397378D01*
X125119Y398122D01*
X125294Y399000D01*
X125119Y399878D01*
X124622Y400622D01*
X123878Y401120D01*
X123000Y401294D01*
D02*
G37*
G36*
X55000Y399622D02*
X54321Y399533D01*
X53689Y399271D01*
X53146Y398854D01*
X52729Y398311D01*
X52467Y397679D01*
X52378Y397000D01*
X52467Y396321D01*
X52729Y395689D01*
X53146Y395146D01*
X53689Y394729D01*
X54321Y394467D01*
X55000Y394378D01*
X55679Y394467D01*
X56311Y394729D01*
X56854Y395146D01*
X57271Y395689D01*
X57533Y396321D01*
X57622Y397000D01*
X57533Y397679D01*
X57271Y398311D01*
X56854Y398854D01*
X56311Y399271D01*
X55679Y399533D01*
X55000Y399622D01*
D02*
G37*
G36*
X152543Y393622D02*
X151865Y393533D01*
X151232Y393271D01*
X150689Y392854D01*
X150272Y392311D01*
X150010Y391679D01*
X149921Y391000D01*
X150010Y390321D01*
X150272Y389689D01*
X150689Y389146D01*
X151232Y388729D01*
X151865Y388467D01*
X152543Y388378D01*
X153222Y388467D01*
X153855Y388729D01*
X154398Y389146D01*
X154814Y389689D01*
X155076Y390321D01*
X155166Y391000D01*
X155076Y391679D01*
X154814Y392311D01*
X154398Y392854D01*
X153855Y393271D01*
X153222Y393533D01*
X152543Y393622D01*
D02*
G37*
G36*
X98000Y399294D02*
X97122Y399119D01*
X96378Y398622D01*
X95881Y397878D01*
X95706Y397000D01*
X95881Y396122D01*
X96378Y395378D01*
X97034Y394939D01*
X97126Y394855D01*
X97200Y394355D01*
X96881Y393878D01*
X96706Y393000D01*
X96881Y392122D01*
X97378Y391378D01*
X98122Y390880D01*
X99000Y390706D01*
X99735Y390852D01*
X99881Y390122D01*
X100378Y389378D01*
X101122Y388880D01*
X102000Y388706D01*
X102350Y388776D01*
X102776Y388350D01*
X102706Y388000D01*
X102881Y387122D01*
X103378Y386378D01*
X104122Y385880D01*
X105000Y385706D01*
X105878Y385880D01*
X106622Y386378D01*
X107120Y387122D01*
X107294Y388000D01*
X107120Y388878D01*
X106622Y389622D01*
X105878Y390120D01*
X105000Y390294D01*
X104650Y390224D01*
X104224Y390650D01*
X104294Y391000D01*
X104120Y391878D01*
X103622Y392622D01*
X102878Y393120D01*
X102000Y393294D01*
X101265Y393148D01*
X101119Y393878D01*
X100622Y394622D01*
X99966Y395061D01*
X99874Y395145D01*
X99800Y395645D01*
X100119Y396122D01*
X100294Y397000D01*
X100119Y397878D01*
X99622Y398622D01*
X98878Y399119D01*
X98000Y399294D01*
D02*
G37*
G36*
X210500Y388794D02*
X209622Y388619D01*
X208878Y388122D01*
X208381Y387378D01*
X208206Y386500D01*
X208381Y385622D01*
X208878Y384878D01*
X209622Y384381D01*
X210500Y384206D01*
X211378Y384381D01*
X212122Y384878D01*
X212619Y385622D01*
X212794Y386500D01*
X212619Y387378D01*
X212122Y388122D01*
X211378Y388619D01*
X210500Y388794D01*
D02*
G37*
G36*
X114000Y393294D02*
X113122Y393120D01*
X112378Y392622D01*
X111881Y391878D01*
X111706Y391000D01*
X111881Y390122D01*
X112378Y389378D01*
X113122Y388880D01*
X114000Y388706D01*
X114350Y388776D01*
X114776Y388350D01*
X114706Y388000D01*
X114881Y387122D01*
X115378Y386378D01*
X116122Y385880D01*
X117000Y385706D01*
X117387Y385783D01*
X117740Y385429D01*
X117655Y385000D01*
X117829Y384122D01*
X118327Y383378D01*
X119071Y382880D01*
X119949Y382706D01*
X120827Y382880D01*
X121571Y383378D01*
X122068Y384122D01*
X122243Y385000D01*
X122068Y385878D01*
X121571Y386622D01*
X120827Y387120D01*
X119949Y387294D01*
X119562Y387217D01*
X119209Y387571D01*
X119294Y388000D01*
X119120Y388878D01*
X118622Y389622D01*
X117878Y390120D01*
X117000Y390294D01*
X116650Y390224D01*
X116224Y390650D01*
X116294Y391000D01*
X116120Y391878D01*
X115622Y392622D01*
X114878Y393120D01*
X114000Y393294D01*
D02*
G37*
G36*
X70000Y384622D02*
X69321Y384533D01*
X68689Y384271D01*
X68146Y383854D01*
X67729Y383311D01*
X67467Y382679D01*
X67378Y382000D01*
X67467Y381321D01*
X67729Y380689D01*
X68146Y380146D01*
X68689Y379729D01*
X69321Y379467D01*
X70000Y379378D01*
X70679Y379467D01*
X71311Y379729D01*
X71854Y380146D01*
X72271Y380689D01*
X72533Y381321D01*
X72622Y382000D01*
X72533Y382679D01*
X72271Y383311D01*
X71854Y383854D01*
X71311Y384271D01*
X70679Y384533D01*
X70000Y384622D01*
D02*
G37*
G36*
X101000Y379622D02*
X100321Y379533D01*
X99689Y379271D01*
X99146Y378854D01*
X98729Y378311D01*
X98467Y377679D01*
X98378Y377000D01*
X98467Y376321D01*
X98729Y375689D01*
X99146Y375146D01*
X99689Y374729D01*
X100321Y374467D01*
X101000Y374378D01*
X101679Y374467D01*
X102311Y374729D01*
X102854Y375146D01*
X103271Y375689D01*
X103533Y376321D01*
X103622Y377000D01*
X103533Y377679D01*
X103271Y378311D01*
X102854Y378854D01*
X102311Y379271D01*
X101679Y379533D01*
X101000Y379622D01*
D02*
G37*
G36*
X113000Y372294D02*
X112122Y372119D01*
X111378Y371622D01*
X110880Y370878D01*
X110706Y370000D01*
X110880Y369122D01*
X111378Y368378D01*
X112122Y367881D01*
X113000Y367706D01*
X113878Y367881D01*
X114622Y368378D01*
X115120Y369122D01*
X115294Y370000D01*
X115120Y370878D01*
X114622Y371622D01*
X113878Y372119D01*
X113000Y372294D01*
D02*
G37*
G36*
X141000Y367794D02*
X140122Y367619D01*
X139378Y367122D01*
X138881Y366378D01*
X138706Y365500D01*
X138881Y364622D01*
X139378Y363878D01*
X140122Y363381D01*
X141000Y363206D01*
X141878Y363381D01*
X142622Y363878D01*
X143120Y364622D01*
X143294Y365500D01*
X143120Y366378D01*
X142622Y367122D01*
X141878Y367619D01*
X141000Y367794D01*
D02*
G37*
G36*
X108003Y367294D02*
X107125Y367120D01*
X106380Y366622D01*
X105883Y365878D01*
X105709Y365000D01*
X105883Y364122D01*
X106380Y363378D01*
X107125Y362880D01*
X108003Y362706D01*
X108880Y362880D01*
X109625Y363378D01*
X110122Y364122D01*
X110297Y365000D01*
X110122Y365878D01*
X109625Y366622D01*
X108880Y367120D01*
X108003Y367294D01*
D02*
G37*
G36*
X174500Y387549D02*
X171989Y387352D01*
X169540Y386764D01*
X167214Y385800D01*
X165066Y384484D01*
X163151Y382849D01*
X161516Y380934D01*
X160200Y378786D01*
X159236Y376460D01*
X158648Y374011D01*
X158450Y371500D01*
X158648Y368989D01*
X159236Y366540D01*
X160200Y364214D01*
X161516Y362066D01*
X163151Y360151D01*
X165066Y358516D01*
X167214Y357200D01*
X169540Y356236D01*
X171989Y355648D01*
X174500Y355451D01*
X177011Y355648D01*
X179460Y356236D01*
X181786Y357200D01*
X183934Y358516D01*
X185849Y360151D01*
X187484Y362066D01*
X188800Y364214D01*
X189764Y366540D01*
X190352Y368989D01*
X190550Y371500D01*
X190352Y374011D01*
X189764Y376460D01*
X188800Y378786D01*
X187484Y380934D01*
X185849Y382849D01*
X183934Y384484D01*
X181786Y385800D01*
X179460Y386764D01*
X177011Y387352D01*
X174500Y387549D01*
D02*
G37*
G36*
X141000Y358794D02*
X140122Y358619D01*
X139378Y358122D01*
X138881Y357378D01*
X138706Y356500D01*
X138881Y355622D01*
X139378Y354878D01*
X140122Y354380D01*
X141000Y354206D01*
X141878Y354380D01*
X142622Y354878D01*
X143120Y355622D01*
X143294Y356500D01*
X143120Y357378D01*
X142622Y358122D01*
X141878Y358619D01*
X141000Y358794D01*
D02*
G37*
G36*
X207800Y349794D02*
X206922Y349620D01*
X206178Y349122D01*
X205680Y348378D01*
X205506Y347500D01*
X205680Y346622D01*
X206178Y345878D01*
X206922Y345380D01*
X207800Y345206D01*
X208678Y345380D01*
X209422Y345878D01*
X209920Y346622D01*
X210094Y347500D01*
X209920Y348378D01*
X209422Y349122D01*
X208678Y349620D01*
X207800Y349794D01*
D02*
G37*
G36*
X134500Y345318D02*
X133622Y345143D01*
X132878Y344646D01*
X132380Y343901D01*
X132206Y343024D01*
X132380Y342146D01*
X132878Y341402D01*
X133622Y340904D01*
X134500Y340729D01*
X135378Y340904D01*
X136122Y341402D01*
X136619Y342146D01*
X136794Y343024D01*
X136619Y343901D01*
X136122Y344646D01*
X135378Y345143D01*
X134500Y345318D01*
D02*
G37*
G36*
X77000Y329622D02*
X76321Y329533D01*
X75689Y329271D01*
X75146Y328854D01*
X74729Y328311D01*
X74467Y327679D01*
X74378Y327000D01*
X74467Y326321D01*
X74729Y325689D01*
X75146Y325146D01*
X75689Y324729D01*
X76321Y324467D01*
X77000Y324378D01*
X77679Y324467D01*
X78311Y324729D01*
X78854Y325146D01*
X79271Y325689D01*
X79533Y326321D01*
X79622Y327000D01*
X79533Y327679D01*
X79271Y328311D01*
X78854Y328854D01*
X78311Y329271D01*
X77679Y329533D01*
X77000Y329622D01*
D02*
G37*
G36*
X79000Y288622D02*
X78321Y288533D01*
X77689Y288271D01*
X77146Y287854D01*
X76729Y287311D01*
X76467Y286679D01*
X76378Y286000D01*
X76467Y285321D01*
X76729Y284689D01*
X77146Y284146D01*
X77689Y283729D01*
X78321Y283467D01*
X79000Y283378D01*
X79679Y283467D01*
X80311Y283729D01*
X80854Y284146D01*
X81271Y284689D01*
X81533Y285321D01*
X81622Y286000D01*
X81533Y286679D01*
X81271Y287311D01*
X80854Y287854D01*
X80311Y288271D01*
X79679Y288533D01*
X79000Y288622D01*
D02*
G37*
G36*
X93000Y133294D02*
X92122Y133119D01*
X91378Y132622D01*
X90881Y131878D01*
X90706Y131000D01*
X90881Y130122D01*
X91378Y129378D01*
X92122Y128881D01*
X93000Y128706D01*
X93878Y128881D01*
X94622Y129378D01*
X95119Y130122D01*
X95294Y131000D01*
X95119Y131878D01*
X94622Y132622D01*
X93878Y133119D01*
X93000Y133294D01*
D02*
G37*
G36*
Y118325D02*
X92122Y118151D01*
X91378Y117654D01*
X90881Y116909D01*
X90706Y116031D01*
X90881Y115153D01*
X91378Y114409D01*
X92122Y113912D01*
X93000Y113737D01*
X93878Y113912D01*
X94622Y114409D01*
X95119Y115153D01*
X95294Y116031D01*
X95119Y116909D01*
X94622Y117654D01*
X93878Y118151D01*
X93000Y118325D01*
D02*
G37*
G36*
X159500Y43969D02*
Y40500D01*
X162969D01*
X162897Y41044D01*
X162494Y42017D01*
X161853Y42853D01*
X161017Y43494D01*
X160044Y43897D01*
X159500Y43969D01*
D02*
G37*
G36*
X158500D02*
X157956Y43897D01*
X156983Y43494D01*
X156147Y42853D01*
X155506Y42017D01*
X155103Y41044D01*
X155031Y40500D01*
X158500D01*
Y43969D01*
D02*
G37*
G36*
X162969Y39500D02*
X159500D01*
Y36031D01*
X160044Y36103D01*
X161017Y36506D01*
X161853Y37147D01*
X162494Y37983D01*
X162897Y38956D01*
X162969Y39500D01*
D02*
G37*
G36*
X158500D02*
X155031D01*
X155103Y38956D01*
X155506Y37983D01*
X156147Y37147D01*
X156983Y36506D01*
X157956Y36103D01*
X158500Y36031D01*
Y39500D01*
D02*
G37*
G36*
X203000Y44000D02*
X195000D01*
Y36000D01*
X203000D01*
Y44000D01*
D02*
G37*
G36*
X189000Y44034D02*
X187956Y43897D01*
X186983Y43494D01*
X186147Y42853D01*
X185506Y42017D01*
X185103Y41044D01*
X184966Y40000D01*
X185103Y38956D01*
X185506Y37983D01*
X186147Y37147D01*
X186983Y36506D01*
X187956Y36103D01*
X189000Y35965D01*
X190044Y36103D01*
X191017Y36506D01*
X191853Y37147D01*
X192494Y37983D01*
X192897Y38956D01*
X193035Y40000D01*
X192897Y41044D01*
X192494Y42017D01*
X191853Y42853D01*
X191017Y43494D01*
X190044Y43897D01*
X189000Y44034D01*
D02*
G37*
G36*
X179000D02*
X177956Y43897D01*
X176983Y43494D01*
X176147Y42853D01*
X175506Y42017D01*
X175103Y41044D01*
X174966Y40000D01*
X175103Y38956D01*
X175506Y37983D01*
X176147Y37147D01*
X176983Y36506D01*
X177956Y36103D01*
X179000Y35965D01*
X180044Y36103D01*
X181017Y36506D01*
X181853Y37147D01*
X182494Y37983D01*
X182897Y38956D01*
X183035Y40000D01*
X182897Y41044D01*
X182494Y42017D01*
X181853Y42853D01*
X181017Y43494D01*
X180044Y43897D01*
X179000Y44034D01*
D02*
G37*
G36*
X169000D02*
X167956Y43897D01*
X166983Y43494D01*
X166147Y42853D01*
X165506Y42017D01*
X165103Y41044D01*
X164965Y40000D01*
X165103Y38956D01*
X165506Y37983D01*
X166147Y37147D01*
X166983Y36506D01*
X167956Y36103D01*
X169000Y35965D01*
X170044Y36103D01*
X171017Y36506D01*
X171853Y37147D01*
X172494Y37983D01*
X172897Y38956D01*
X173035Y40000D01*
X172897Y41044D01*
X172494Y42017D01*
X171853Y42853D01*
X171017Y43494D01*
X170044Y43897D01*
X169000Y44034D01*
D02*
G37*
G36*
X149000D02*
X147956Y43897D01*
X146983Y43494D01*
X146147Y42853D01*
X145506Y42017D01*
X145103Y41044D01*
X144966Y40000D01*
X145103Y38956D01*
X145506Y37983D01*
X146147Y37147D01*
X146983Y36506D01*
X147956Y36103D01*
X149000Y35965D01*
X150044Y36103D01*
X151017Y36506D01*
X151853Y37147D01*
X152494Y37983D01*
X152897Y38956D01*
X153034Y40000D01*
X152897Y41044D01*
X152494Y42017D01*
X151853Y42853D01*
X151017Y43494D01*
X150044Y43897D01*
X149000Y44034D01*
D02*
G37*
G36*
X341500Y487535D02*
X340456Y487397D01*
X339483Y486994D01*
X338647Y486353D01*
X338006Y485517D01*
X337603Y484544D01*
X337466Y483500D01*
X337603Y482456D01*
X338006Y481483D01*
X338647Y480647D01*
X339483Y480006D01*
X340456Y479603D01*
X341500Y479465D01*
X342544Y479603D01*
X343517Y480006D01*
X344353Y480647D01*
X344994Y481483D01*
X345397Y482456D01*
X345534Y483500D01*
X345397Y484544D01*
X344994Y485517D01*
X344353Y486353D01*
X343517Y486994D01*
X342544Y487397D01*
X341500Y487535D01*
D02*
G37*
G36*
X279000Y480122D02*
X278321Y480033D01*
X277689Y479771D01*
X277146Y479354D01*
X276729Y478811D01*
X276467Y478179D01*
X276378Y477500D01*
X276467Y476821D01*
X276729Y476189D01*
X277146Y475646D01*
X277689Y475229D01*
X278321Y474967D01*
X279000Y474878D01*
X279679Y474967D01*
X280311Y475229D01*
X280854Y475646D01*
X281271Y476189D01*
X281533Y476821D01*
X281622Y477500D01*
X281533Y478179D01*
X281271Y478811D01*
X280854Y479354D01*
X280311Y479771D01*
X279679Y480033D01*
X279000Y480122D01*
D02*
G37*
G36*
X320000Y478622D02*
X319321Y478533D01*
X318689Y478271D01*
X318146Y477854D01*
X317729Y477311D01*
X317467Y476679D01*
X317378Y476000D01*
X317467Y475321D01*
X317729Y474689D01*
X318146Y474146D01*
X318689Y473729D01*
X319321Y473467D01*
X320000Y473378D01*
X320679Y473467D01*
X321311Y473729D01*
X321854Y474146D01*
X322271Y474689D01*
X322533Y475321D01*
X322622Y476000D01*
X322533Y476679D01*
X322271Y477311D01*
X321854Y477854D01*
X321311Y478271D01*
X320679Y478533D01*
X320000Y478622D01*
D02*
G37*
G36*
X341500Y477534D02*
X340456Y477397D01*
X339483Y476994D01*
X338647Y476353D01*
X338006Y475517D01*
X337603Y474544D01*
X337466Y473500D01*
X337603Y472456D01*
X338006Y471483D01*
X338647Y470647D01*
X339483Y470006D01*
X340456Y469603D01*
X341500Y469465D01*
X342544Y469603D01*
X343517Y470006D01*
X344353Y470647D01*
X344994Y471483D01*
X345397Y472456D01*
X345534Y473500D01*
X345397Y474544D01*
X344994Y475517D01*
X344353Y476353D01*
X343517Y476994D01*
X342544Y477397D01*
X341500Y477534D01*
D02*
G37*
G36*
X341000Y463000D02*
X337500D01*
Y459500D01*
X341000D01*
Y463000D01*
D02*
G37*
G36*
X336500D02*
X333000D01*
Y459500D01*
X336500D01*
Y463000D01*
D02*
G37*
G36*
X261500Y462622D02*
X260821Y462533D01*
X260189Y462271D01*
X259646Y461854D01*
X259229Y461311D01*
X258967Y460679D01*
X258878Y460000D01*
X258967Y459321D01*
X259229Y458689D01*
X259646Y458146D01*
X260189Y457729D01*
X260821Y457467D01*
X261500Y457378D01*
X262179Y457467D01*
X262811Y457729D01*
X263354Y458146D01*
X263771Y458689D01*
X264033Y459321D01*
X264122Y460000D01*
X264033Y460679D01*
X263771Y461311D01*
X263354Y461854D01*
X262811Y462271D01*
X262179Y462533D01*
X261500Y462622D01*
D02*
G37*
G36*
X341000Y458500D02*
X337500D01*
Y455000D01*
X341000D01*
Y458500D01*
D02*
G37*
G36*
X336500D02*
X333000D01*
Y455000D01*
X336500D01*
Y458500D01*
D02*
G37*
G36*
X261500Y456122D02*
X260821Y456033D01*
X260189Y455771D01*
X259646Y455354D01*
X259229Y454811D01*
X258967Y454179D01*
X258878Y453500D01*
X258967Y452821D01*
X259229Y452189D01*
X259646Y451646D01*
X260189Y451229D01*
X260821Y450967D01*
X261500Y450878D01*
X262179Y450967D01*
X262811Y451229D01*
X263354Y451646D01*
X263771Y452189D01*
X264033Y452821D01*
X264122Y453500D01*
X264033Y454179D01*
X263771Y454811D01*
X263354Y455354D01*
X262811Y455771D01*
X262179Y456033D01*
X261500Y456122D01*
D02*
G37*
G36*
X337000Y453034D02*
X335956Y452897D01*
X334983Y452494D01*
X334147Y451853D01*
X333506Y451017D01*
X333103Y450044D01*
X332965Y449000D01*
X333103Y447956D01*
X333506Y446983D01*
X334147Y446147D01*
X334983Y445506D01*
X335956Y445103D01*
X337000Y444966D01*
X338044Y445103D01*
X339017Y445506D01*
X339853Y446147D01*
X340494Y446983D01*
X340897Y447956D01*
X341035Y449000D01*
X340897Y450044D01*
X340494Y451017D01*
X339853Y451853D01*
X339017Y452494D01*
X338044Y452897D01*
X337000Y453034D01*
D02*
G37*
G36*
X337500Y408882D02*
Y405413D01*
X340969D01*
X340897Y405958D01*
X340494Y406931D01*
X339853Y407766D01*
X339017Y408407D01*
X338044Y408811D01*
X337500Y408882D01*
D02*
G37*
G36*
X336500D02*
X335956Y408811D01*
X334983Y408407D01*
X334147Y407766D01*
X333506Y406931D01*
X333103Y405958D01*
X333031Y405413D01*
X336500D01*
Y408882D01*
D02*
G37*
G36*
X340969Y404413D02*
X337500D01*
Y400945D01*
X338044Y401016D01*
X339017Y401419D01*
X339853Y402061D01*
X340494Y402896D01*
X340897Y403869D01*
X340969Y404413D01*
D02*
G37*
G36*
X336500D02*
X333031D01*
X333103Y403869D01*
X333506Y402896D01*
X334147Y402061D01*
X334983Y401419D01*
X335956Y401016D01*
X336500Y400945D01*
Y404413D01*
D02*
G37*
G36*
X277100Y386622D02*
X276421Y386533D01*
X275789Y386271D01*
X275246Y385854D01*
X274829Y385311D01*
X274567Y384679D01*
X274478Y384000D01*
X274567Y383321D01*
X274829Y382689D01*
X275246Y382146D01*
X275789Y381729D01*
X276421Y381467D01*
X277100Y381378D01*
X277779Y381467D01*
X278411Y381729D01*
X278954Y382146D01*
X279371Y382689D01*
X279633Y383321D01*
X279722Y384000D01*
X279633Y384679D01*
X279371Y385311D01*
X278954Y385854D01*
X278411Y386271D01*
X277779Y386533D01*
X277100Y386622D01*
D02*
G37*
G36*
X16500Y383535D02*
X15456Y383397D01*
X14483Y382994D01*
X13647Y382353D01*
X13006Y381517D01*
X12603Y380544D01*
X12466Y379500D01*
X12603Y378456D01*
X13006Y377483D01*
X13647Y376647D01*
X14483Y376006D01*
X15456Y375603D01*
X16500Y375465D01*
X17544Y375603D01*
X18517Y376006D01*
X19353Y376647D01*
X19994Y377483D01*
X20397Y378456D01*
X20535Y379500D01*
X20397Y380544D01*
X19994Y381517D01*
X19353Y382353D01*
X18517Y382994D01*
X17544Y383397D01*
X16500Y383535D01*
D02*
G37*
G36*
Y373534D02*
X15456Y373397D01*
X14483Y372994D01*
X13647Y372353D01*
X13006Y371517D01*
X12603Y370544D01*
X12466Y369500D01*
X12603Y368456D01*
X13006Y367483D01*
X13647Y366647D01*
X14483Y366006D01*
X15456Y365603D01*
X16500Y365465D01*
X17544Y365603D01*
X18517Y366006D01*
X19353Y366647D01*
X19994Y367483D01*
X20397Y368456D01*
X20535Y369500D01*
X20397Y370544D01*
X19994Y371517D01*
X19353Y372353D01*
X18517Y372994D01*
X17544Y373397D01*
X16500Y373534D01*
D02*
G37*
G36*
Y363534D02*
X15456Y363397D01*
X14483Y362994D01*
X13647Y362353D01*
X13006Y361517D01*
X12603Y360544D01*
X12466Y359500D01*
X12603Y358456D01*
X13006Y357483D01*
X13647Y356647D01*
X14483Y356006D01*
X15456Y355603D01*
X16500Y355466D01*
X17544Y355603D01*
X18517Y356006D01*
X19353Y356647D01*
X19994Y357483D01*
X20397Y358456D01*
X20535Y359500D01*
X20397Y360544D01*
X19994Y361517D01*
X19353Y362353D01*
X18517Y362994D01*
X17544Y363397D01*
X16500Y363534D01*
D02*
G37*
G36*
X20500Y353500D02*
X17000D01*
Y350000D01*
X20500D01*
Y353500D01*
D02*
G37*
G36*
X340100Y358000D02*
X332100D01*
Y350000D01*
X340100D01*
Y358000D01*
D02*
G37*
G36*
X16000Y353500D02*
X12500D01*
Y350000D01*
X16000D01*
Y353500D01*
D02*
G37*
G36*
X20500Y349000D02*
X17000D01*
Y345500D01*
X20500D01*
Y349000D01*
D02*
G37*
G36*
X16000D02*
X12500D01*
Y345500D01*
X16000D01*
Y349000D01*
D02*
G37*
G36*
X292600Y349622D02*
X291921Y349533D01*
X291289Y349271D01*
X290746Y348854D01*
X290329Y348311D01*
X290067Y347679D01*
X289978Y347000D01*
X290067Y346321D01*
X290329Y345689D01*
X290746Y345146D01*
X291289Y344729D01*
X291921Y344467D01*
X292600Y344378D01*
X293279Y344467D01*
X293911Y344729D01*
X294454Y345146D01*
X294871Y345689D01*
X295133Y346321D01*
X295222Y347000D01*
X295133Y347679D01*
X294871Y348311D01*
X294454Y348854D01*
X293911Y349271D01*
X293279Y349533D01*
X292600Y349622D01*
D02*
G37*
G36*
X280100D02*
X279421Y349533D01*
X278789Y349271D01*
X278246Y348854D01*
X277829Y348311D01*
X277567Y347679D01*
X277478Y347000D01*
X277567Y346321D01*
X277829Y345689D01*
X278246Y345146D01*
X278789Y344729D01*
X279421Y344467D01*
X280100Y344378D01*
X280779Y344467D01*
X281411Y344729D01*
X281954Y345146D01*
X282371Y345689D01*
X282633Y346321D01*
X282722Y347000D01*
X282633Y347679D01*
X282371Y348311D01*
X281954Y348854D01*
X281411Y349271D01*
X280779Y349533D01*
X280100Y349622D01*
D02*
G37*
G36*
X265100D02*
X264421Y349533D01*
X263789Y349271D01*
X263246Y348854D01*
X262829Y348311D01*
X262567Y347679D01*
X262478Y347000D01*
X262567Y346321D01*
X262829Y345689D01*
X263246Y345146D01*
X263789Y344729D01*
X264421Y344467D01*
X265100Y344378D01*
X265779Y344467D01*
X266411Y344729D01*
X266954Y345146D01*
X267371Y345689D01*
X267633Y346321D01*
X267722Y347000D01*
X267633Y347679D01*
X267371Y348311D01*
X266954Y348854D01*
X266411Y349271D01*
X265779Y349533D01*
X265100Y349622D01*
D02*
G37*
G36*
X252600D02*
X251921Y349533D01*
X251289Y349271D01*
X250746Y348854D01*
X250329Y348311D01*
X250067Y347679D01*
X249978Y347000D01*
X250067Y346321D01*
X250329Y345689D01*
X250746Y345146D01*
X251289Y344729D01*
X251921Y344467D01*
X252600Y344378D01*
X253279Y344467D01*
X253911Y344729D01*
X254454Y345146D01*
X254871Y345689D01*
X255133Y346321D01*
X255222Y347000D01*
X255133Y347679D01*
X254871Y348311D01*
X254454Y348854D01*
X253911Y349271D01*
X253279Y349533D01*
X252600Y349622D01*
D02*
G37*
G36*
X336100Y348035D02*
X335056Y347897D01*
X334083Y347494D01*
X333247Y346853D01*
X332606Y346017D01*
X332203Y345044D01*
X332066Y344000D01*
X332203Y342956D01*
X332606Y341983D01*
X333247Y341147D01*
X334083Y340506D01*
X335056Y340103D01*
X336100Y339966D01*
X337144Y340103D01*
X338117Y340506D01*
X338953Y341147D01*
X339594Y341983D01*
X339997Y342956D01*
X340135Y344000D01*
X339997Y345044D01*
X339594Y346017D01*
X338953Y346853D01*
X338117Y347494D01*
X337144Y347897D01*
X336100Y348035D01*
D02*
G37*
G36*
X292600Y340622D02*
X291921Y340533D01*
X291289Y340271D01*
X290746Y339854D01*
X290329Y339311D01*
X290067Y338679D01*
X289978Y338000D01*
X290067Y337321D01*
X290329Y336689D01*
X290746Y336146D01*
X291289Y335729D01*
X291921Y335467D01*
X292600Y335378D01*
X293279Y335467D01*
X293911Y335729D01*
X294454Y336146D01*
X294871Y336689D01*
X295133Y337321D01*
X295222Y338000D01*
X295133Y338679D01*
X294871Y339311D01*
X294454Y339854D01*
X293911Y340271D01*
X293279Y340533D01*
X292600Y340622D01*
D02*
G37*
G36*
X280100D02*
X279421Y340533D01*
X278789Y340271D01*
X278246Y339854D01*
X277829Y339311D01*
X277567Y338679D01*
X277478Y338000D01*
X277567Y337321D01*
X277829Y336689D01*
X278246Y336146D01*
X278789Y335729D01*
X279421Y335467D01*
X280100Y335378D01*
X280779Y335467D01*
X281411Y335729D01*
X281954Y336146D01*
X282371Y336689D01*
X282633Y337321D01*
X282722Y338000D01*
X282633Y338679D01*
X282371Y339311D01*
X281954Y339854D01*
X281411Y340271D01*
X280779Y340533D01*
X280100Y340622D01*
D02*
G37*
G36*
X265100D02*
X264421Y340533D01*
X263789Y340271D01*
X263246Y339854D01*
X262829Y339311D01*
X262567Y338679D01*
X262478Y338000D01*
X262567Y337321D01*
X262829Y336689D01*
X263246Y336146D01*
X263789Y335729D01*
X264421Y335467D01*
X265100Y335378D01*
X265779Y335467D01*
X266411Y335729D01*
X266954Y336146D01*
X267371Y336689D01*
X267633Y337321D01*
X267722Y338000D01*
X267633Y338679D01*
X267371Y339311D01*
X266954Y339854D01*
X266411Y340271D01*
X265779Y340533D01*
X265100Y340622D01*
D02*
G37*
G36*
X252600D02*
X251921Y340533D01*
X251289Y340271D01*
X250746Y339854D01*
X250329Y339311D01*
X250067Y338679D01*
X249978Y338000D01*
X250067Y337321D01*
X250329Y336689D01*
X250746Y336146D01*
X251289Y335729D01*
X251921Y335467D01*
X252600Y335378D01*
X253279Y335467D01*
X253911Y335729D01*
X254454Y336146D01*
X254871Y336689D01*
X255133Y337321D01*
X255222Y338000D01*
X255133Y338679D01*
X254871Y339311D01*
X254454Y339854D01*
X253911Y340271D01*
X253279Y340533D01*
X252600Y340622D01*
D02*
G37*
G36*
X16500Y341035D02*
X15456Y340897D01*
X14483Y340494D01*
X13647Y339853D01*
X13006Y339017D01*
X12603Y338044D01*
X12466Y337000D01*
X12603Y335956D01*
X13006Y334983D01*
X13647Y334147D01*
X14483Y333506D01*
X15456Y333103D01*
X16500Y332965D01*
X17544Y333103D01*
X18517Y333506D01*
X19353Y334147D01*
X19994Y334983D01*
X20397Y335956D01*
X20535Y337000D01*
X20397Y338044D01*
X19994Y339017D01*
X19353Y339853D01*
X18517Y340494D01*
X17544Y340897D01*
X16500Y341035D01*
D02*
G37*
G36*
X340100Y336000D02*
X332100D01*
Y328000D01*
X340100D01*
Y336000D01*
D02*
G37*
G36*
X292600Y331622D02*
X291921Y331533D01*
X291289Y331271D01*
X290746Y330854D01*
X290329Y330311D01*
X290067Y329679D01*
X289978Y329000D01*
X290067Y328321D01*
X290329Y327689D01*
X290746Y327146D01*
X291289Y326729D01*
X291921Y326467D01*
X292600Y326378D01*
X293279Y326467D01*
X293911Y326729D01*
X294454Y327146D01*
X294871Y327689D01*
X295133Y328321D01*
X295222Y329000D01*
X295133Y329679D01*
X294871Y330311D01*
X294454Y330854D01*
X293911Y331271D01*
X293279Y331533D01*
X292600Y331622D01*
D02*
G37*
G36*
X280100D02*
X279421Y331533D01*
X278789Y331271D01*
X278246Y330854D01*
X277829Y330311D01*
X277567Y329679D01*
X277478Y329000D01*
X277567Y328321D01*
X277829Y327689D01*
X278246Y327146D01*
X278789Y326729D01*
X279421Y326467D01*
X280100Y326378D01*
X280779Y326467D01*
X281411Y326729D01*
X281954Y327146D01*
X282371Y327689D01*
X282633Y328321D01*
X282722Y329000D01*
X282633Y329679D01*
X282371Y330311D01*
X281954Y330854D01*
X281411Y331271D01*
X280779Y331533D01*
X280100Y331622D01*
D02*
G37*
G36*
X265100D02*
X264421Y331533D01*
X263789Y331271D01*
X263246Y330854D01*
X262829Y330311D01*
X262567Y329679D01*
X262478Y329000D01*
X262567Y328321D01*
X262829Y327689D01*
X263246Y327146D01*
X263789Y326729D01*
X264421Y326467D01*
X265100Y326378D01*
X265779Y326467D01*
X266411Y326729D01*
X266954Y327146D01*
X267371Y327689D01*
X267633Y328321D01*
X267722Y329000D01*
X267633Y329679D01*
X267371Y330311D01*
X266954Y330854D01*
X266411Y331271D01*
X265779Y331533D01*
X265100Y331622D01*
D02*
G37*
G36*
X252600D02*
X251921Y331533D01*
X251289Y331271D01*
X250746Y330854D01*
X250329Y330311D01*
X250067Y329679D01*
X249978Y329000D01*
X250067Y328321D01*
X250329Y327689D01*
X250746Y327146D01*
X251289Y326729D01*
X251921Y326467D01*
X252600Y326378D01*
X253279Y326467D01*
X253911Y326729D01*
X254454Y327146D01*
X254871Y327689D01*
X255133Y328321D01*
X255222Y329000D01*
X255133Y329679D01*
X254871Y330311D01*
X254454Y330854D01*
X253911Y331271D01*
X253279Y331533D01*
X252600Y331622D01*
D02*
G37*
G36*
X16500Y331034D02*
X15456Y330897D01*
X14483Y330494D01*
X13647Y329853D01*
X13006Y329017D01*
X12603Y328044D01*
X12466Y327000D01*
X12603Y325956D01*
X13006Y324983D01*
X13647Y324147D01*
X14483Y323506D01*
X15456Y323103D01*
X16500Y322966D01*
X17544Y323103D01*
X18517Y323506D01*
X19353Y324147D01*
X19994Y324983D01*
X20397Y325956D01*
X20535Y327000D01*
X20397Y328044D01*
X19994Y329017D01*
X19353Y329853D01*
X18517Y330494D01*
X17544Y330897D01*
X16500Y331034D01*
D02*
G37*
G36*
X336100Y326034D02*
X335056Y325897D01*
X334083Y325494D01*
X333247Y324853D01*
X332606Y324017D01*
X332203Y323044D01*
X332066Y322000D01*
X332203Y320956D01*
X332606Y319983D01*
X333247Y319147D01*
X334083Y318506D01*
X335056Y318103D01*
X336100Y317966D01*
X337144Y318103D01*
X338117Y318506D01*
X338953Y319147D01*
X339594Y319983D01*
X339997Y320956D01*
X340135Y322000D01*
X339997Y323044D01*
X339594Y324017D01*
X338953Y324853D01*
X338117Y325494D01*
X337144Y325897D01*
X336100Y326034D01*
D02*
G37*
G36*
X16500Y321035D02*
X15456Y320897D01*
X14483Y320494D01*
X13647Y319853D01*
X13006Y319017D01*
X12603Y318044D01*
X12466Y317000D01*
X12603Y315956D01*
X13006Y314983D01*
X13647Y314147D01*
X14483Y313506D01*
X15456Y313103D01*
X16500Y312965D01*
X17544Y313103D01*
X18517Y313506D01*
X19353Y314147D01*
X19994Y314983D01*
X20397Y315956D01*
X20535Y317000D01*
X20397Y318044D01*
X19994Y319017D01*
X19353Y319853D01*
X18517Y320494D01*
X17544Y320897D01*
X16500Y321035D01*
D02*
G37*
G36*
X20500Y311000D02*
X17000D01*
Y307500D01*
X20500D01*
Y311000D01*
D02*
G37*
G36*
X16000D02*
X12500D01*
Y307500D01*
X16000D01*
Y311000D01*
D02*
G37*
G36*
X20500Y306500D02*
X17000D01*
Y303000D01*
X20500D01*
Y306500D01*
D02*
G37*
G36*
X16000D02*
X12500D01*
Y303000D01*
X16000D01*
Y306500D01*
D02*
G37*
G36*
X253000Y306622D02*
X252321Y306533D01*
X251689Y306271D01*
X251146Y305854D01*
X250729Y305311D01*
X250467Y304679D01*
X250378Y304000D01*
X250467Y303321D01*
X250729Y302689D01*
X251146Y302146D01*
X251689Y301729D01*
X252321Y301467D01*
X253000Y301378D01*
X253679Y301467D01*
X254311Y301729D01*
X254854Y302146D01*
X255271Y302689D01*
X255533Y303321D01*
X255622Y304000D01*
X255533Y304679D01*
X255271Y305311D01*
X254854Y305854D01*
X254311Y306271D01*
X253679Y306533D01*
X253000Y306622D01*
D02*
G37*
G36*
X253100Y300622D02*
X252421Y300533D01*
X251789Y300271D01*
X251246Y299854D01*
X250829Y299311D01*
X250567Y298679D01*
X250478Y298000D01*
X250567Y297321D01*
X250829Y296689D01*
X251246Y296146D01*
X251789Y295729D01*
X252421Y295467D01*
X253100Y295378D01*
X253779Y295467D01*
X254411Y295729D01*
X254954Y296146D01*
X255371Y296689D01*
X255633Y297321D01*
X255722Y298000D01*
X255633Y298679D01*
X255371Y299311D01*
X254954Y299854D01*
X254411Y300271D01*
X253779Y300533D01*
X253100Y300622D01*
D02*
G37*
G36*
X16500Y298534D02*
X15456Y298397D01*
X14483Y297994D01*
X13647Y297353D01*
X13006Y296517D01*
X12603Y295544D01*
X12466Y294500D01*
X12603Y293456D01*
X13006Y292483D01*
X13647Y291647D01*
X14483Y291006D01*
X15456Y290603D01*
X16500Y290465D01*
X17544Y290603D01*
X18517Y291006D01*
X19353Y291647D01*
X19994Y292483D01*
X20397Y293456D01*
X20535Y294500D01*
X20397Y295544D01*
X19994Y296517D01*
X19353Y297353D01*
X18517Y297994D01*
X17544Y298397D01*
X16500Y298534D01*
D02*
G37*
G36*
X277100Y292622D02*
X276421Y292533D01*
X275789Y292271D01*
X275246Y291854D01*
X274829Y291311D01*
X274567Y290679D01*
X274478Y290000D01*
X274567Y289321D01*
X274829Y288689D01*
X275246Y288146D01*
X275789Y287729D01*
X276421Y287467D01*
X277100Y287378D01*
X277779Y287467D01*
X278411Y287729D01*
X278954Y288146D01*
X279371Y288689D01*
X279633Y289321D01*
X279722Y290000D01*
X279633Y290679D01*
X279371Y291311D01*
X278954Y291854D01*
X278411Y292271D01*
X277779Y292533D01*
X277100Y292622D01*
D02*
G37*
G36*
X16500Y288534D02*
X15456Y288397D01*
X14483Y287994D01*
X13647Y287353D01*
X13006Y286517D01*
X12603Y285544D01*
X12466Y284500D01*
X12603Y283456D01*
X13006Y282483D01*
X13647Y281647D01*
X14483Y281006D01*
X15456Y280603D01*
X16500Y280466D01*
X17544Y280603D01*
X18517Y281006D01*
X19353Y281647D01*
X19994Y282483D01*
X20397Y283456D01*
X20535Y284500D01*
X20397Y285544D01*
X19994Y286517D01*
X19353Y287353D01*
X18517Y287994D01*
X17544Y288397D01*
X16500Y288534D01*
D02*
G37*
G36*
Y278535D02*
X15456Y278397D01*
X14483Y277994D01*
X13647Y277353D01*
X13006Y276517D01*
X12603Y275544D01*
X12466Y274500D01*
X12603Y273456D01*
X13006Y272483D01*
X13647Y271647D01*
X14483Y271006D01*
X15456Y270603D01*
X16500Y270465D01*
X17544Y270603D01*
X18517Y271006D01*
X19353Y271647D01*
X19994Y272483D01*
X20397Y273456D01*
X20535Y274500D01*
X20397Y275544D01*
X19994Y276517D01*
X19353Y277353D01*
X18517Y277994D01*
X17544Y278397D01*
X16500Y278535D01*
D02*
G37*
G36*
X20500Y268500D02*
X17000D01*
Y265000D01*
X20500D01*
Y268500D01*
D02*
G37*
G36*
X16000D02*
X12500D01*
Y265000D01*
X16000D01*
Y268500D01*
D02*
G37*
G36*
X20500Y264000D02*
X17000D01*
Y260500D01*
X20500D01*
Y264000D01*
D02*
G37*
G36*
X16000D02*
X12500D01*
Y260500D01*
X16000D01*
Y264000D01*
D02*
G37*
G36*
X340100Y265000D02*
X332100D01*
Y257000D01*
X340100D01*
Y265000D01*
D02*
G37*
G36*
X292600Y255622D02*
X291921Y255533D01*
X291289Y255271D01*
X290746Y254854D01*
X290329Y254311D01*
X290067Y253679D01*
X289978Y253000D01*
X290067Y252321D01*
X290329Y251689D01*
X290746Y251146D01*
X291289Y250729D01*
X291921Y250467D01*
X292600Y250378D01*
X293279Y250467D01*
X293911Y250729D01*
X294454Y251146D01*
X294871Y251689D01*
X295133Y252321D01*
X295222Y253000D01*
X295133Y253679D01*
X294871Y254311D01*
X294454Y254854D01*
X293911Y255271D01*
X293279Y255533D01*
X292600Y255622D01*
D02*
G37*
G36*
X280100D02*
X279421Y255533D01*
X278789Y255271D01*
X278246Y254854D01*
X277829Y254311D01*
X277567Y253679D01*
X277478Y253000D01*
X277567Y252321D01*
X277829Y251689D01*
X278246Y251146D01*
X278789Y250729D01*
X279421Y250467D01*
X280100Y250378D01*
X280779Y250467D01*
X281411Y250729D01*
X281954Y251146D01*
X282371Y251689D01*
X282633Y252321D01*
X282722Y253000D01*
X282633Y253679D01*
X282371Y254311D01*
X281954Y254854D01*
X281411Y255271D01*
X280779Y255533D01*
X280100Y255622D01*
D02*
G37*
G36*
X265100D02*
X264421Y255533D01*
X263789Y255271D01*
X263246Y254854D01*
X262829Y254311D01*
X262567Y253679D01*
X262478Y253000D01*
X262567Y252321D01*
X262829Y251689D01*
X263246Y251146D01*
X263789Y250729D01*
X264421Y250467D01*
X265100Y250378D01*
X265779Y250467D01*
X266411Y250729D01*
X266954Y251146D01*
X267371Y251689D01*
X267633Y252321D01*
X267722Y253000D01*
X267633Y253679D01*
X267371Y254311D01*
X266954Y254854D01*
X266411Y255271D01*
X265779Y255533D01*
X265100Y255622D01*
D02*
G37*
G36*
X252600D02*
X251921Y255533D01*
X251289Y255271D01*
X250746Y254854D01*
X250329Y254311D01*
X250067Y253679D01*
X249978Y253000D01*
X250067Y252321D01*
X250329Y251689D01*
X250746Y251146D01*
X251289Y250729D01*
X251921Y250467D01*
X252600Y250378D01*
X253279Y250467D01*
X253911Y250729D01*
X254454Y251146D01*
X254871Y251689D01*
X255133Y252321D01*
X255222Y253000D01*
X255133Y253679D01*
X254871Y254311D01*
X254454Y254854D01*
X253911Y255271D01*
X253279Y255533D01*
X252600Y255622D01*
D02*
G37*
G36*
X16500Y256034D02*
X15456Y255897D01*
X14483Y255494D01*
X13647Y254853D01*
X13006Y254017D01*
X12603Y253044D01*
X12466Y252000D01*
X12603Y250956D01*
X13006Y249983D01*
X13647Y249147D01*
X14483Y248506D01*
X15456Y248103D01*
X16500Y247966D01*
X17544Y248103D01*
X18517Y248506D01*
X19353Y249147D01*
X19994Y249983D01*
X20397Y250956D01*
X20535Y252000D01*
X20397Y253044D01*
X19994Y254017D01*
X19353Y254853D01*
X18517Y255494D01*
X17544Y255897D01*
X16500Y256034D01*
D02*
G37*
G36*
X336100Y255034D02*
X335056Y254897D01*
X334083Y254494D01*
X333247Y253853D01*
X332606Y253017D01*
X332203Y252044D01*
X332066Y251000D01*
X332203Y249956D01*
X332606Y248983D01*
X333247Y248147D01*
X334083Y247506D01*
X335056Y247103D01*
X336100Y246966D01*
X337144Y247103D01*
X338117Y247506D01*
X338953Y248147D01*
X339594Y248983D01*
X339997Y249956D01*
X340135Y251000D01*
X339997Y252044D01*
X339594Y253017D01*
X338953Y253853D01*
X338117Y254494D01*
X337144Y254897D01*
X336100Y255034D01*
D02*
G37*
G36*
X292600Y246622D02*
X291921Y246533D01*
X291289Y246271D01*
X290746Y245854D01*
X290329Y245311D01*
X290067Y244679D01*
X289978Y244000D01*
X290067Y243321D01*
X290329Y242689D01*
X290746Y242146D01*
X291289Y241729D01*
X291921Y241467D01*
X292600Y241378D01*
X293279Y241467D01*
X293911Y241729D01*
X294454Y242146D01*
X294871Y242689D01*
X295133Y243321D01*
X295222Y244000D01*
X295133Y244679D01*
X294871Y245311D01*
X294454Y245854D01*
X293911Y246271D01*
X293279Y246533D01*
X292600Y246622D01*
D02*
G37*
G36*
X280100D02*
X279421Y246533D01*
X278789Y246271D01*
X278246Y245854D01*
X277829Y245311D01*
X277567Y244679D01*
X277478Y244000D01*
X277567Y243321D01*
X277829Y242689D01*
X278246Y242146D01*
X278789Y241729D01*
X279421Y241467D01*
X280100Y241378D01*
X280779Y241467D01*
X281411Y241729D01*
X281954Y242146D01*
X282371Y242689D01*
X282633Y243321D01*
X282722Y244000D01*
X282633Y244679D01*
X282371Y245311D01*
X281954Y245854D01*
X281411Y246271D01*
X280779Y246533D01*
X280100Y246622D01*
D02*
G37*
G36*
X265100D02*
X264421Y246533D01*
X263789Y246271D01*
X263246Y245854D01*
X262829Y245311D01*
X262567Y244679D01*
X262478Y244000D01*
X262567Y243321D01*
X262829Y242689D01*
X263246Y242146D01*
X263789Y241729D01*
X264421Y241467D01*
X265100Y241378D01*
X265779Y241467D01*
X266411Y241729D01*
X266954Y242146D01*
X267371Y242689D01*
X267633Y243321D01*
X267722Y244000D01*
X267633Y244679D01*
X267371Y245311D01*
X266954Y245854D01*
X266411Y246271D01*
X265779Y246533D01*
X265100Y246622D01*
D02*
G37*
G36*
X252600D02*
X251921Y246533D01*
X251289Y246271D01*
X250746Y245854D01*
X250329Y245311D01*
X250067Y244679D01*
X249978Y244000D01*
X250067Y243321D01*
X250329Y242689D01*
X250746Y242146D01*
X251289Y241729D01*
X251921Y241467D01*
X252600Y241378D01*
X253279Y241467D01*
X253911Y241729D01*
X254454Y242146D01*
X254871Y242689D01*
X255133Y243321D01*
X255222Y244000D01*
X255133Y244679D01*
X254871Y245311D01*
X254454Y245854D01*
X253911Y246271D01*
X253279Y246533D01*
X252600Y246622D01*
D02*
G37*
G36*
X16500Y246035D02*
X15456Y245897D01*
X14483Y245494D01*
X13647Y244853D01*
X13006Y244017D01*
X12603Y243044D01*
X12466Y242000D01*
X12603Y240956D01*
X13006Y239983D01*
X13647Y239147D01*
X14483Y238506D01*
X15456Y238103D01*
X16500Y237965D01*
X17544Y238103D01*
X18517Y238506D01*
X19353Y239147D01*
X19994Y239983D01*
X20397Y240956D01*
X20535Y242000D01*
X20397Y243044D01*
X19994Y244017D01*
X19353Y244853D01*
X18517Y245494D01*
X17544Y245897D01*
X16500Y246035D01*
D02*
G37*
G36*
X340100Y243000D02*
X332100D01*
Y235000D01*
X340100D01*
Y243000D01*
D02*
G37*
G36*
X292600Y237622D02*
X291921Y237533D01*
X291289Y237271D01*
X290746Y236854D01*
X290329Y236311D01*
X290067Y235679D01*
X289978Y235000D01*
X290067Y234321D01*
X290329Y233689D01*
X290746Y233146D01*
X291289Y232729D01*
X291921Y232467D01*
X292600Y232378D01*
X293279Y232467D01*
X293911Y232729D01*
X294454Y233146D01*
X294871Y233689D01*
X295133Y234321D01*
X295222Y235000D01*
X295133Y235679D01*
X294871Y236311D01*
X294454Y236854D01*
X293911Y237271D01*
X293279Y237533D01*
X292600Y237622D01*
D02*
G37*
G36*
X280100D02*
X279421Y237533D01*
X278789Y237271D01*
X278246Y236854D01*
X277829Y236311D01*
X277567Y235679D01*
X277478Y235000D01*
X277567Y234321D01*
X277829Y233689D01*
X278246Y233146D01*
X278789Y232729D01*
X279421Y232467D01*
X280100Y232378D01*
X280779Y232467D01*
X281411Y232729D01*
X281954Y233146D01*
X282371Y233689D01*
X282633Y234321D01*
X282722Y235000D01*
X282633Y235679D01*
X282371Y236311D01*
X281954Y236854D01*
X281411Y237271D01*
X280779Y237533D01*
X280100Y237622D01*
D02*
G37*
G36*
X265100D02*
X264421Y237533D01*
X263789Y237271D01*
X263246Y236854D01*
X262829Y236311D01*
X262567Y235679D01*
X262478Y235000D01*
X262567Y234321D01*
X262829Y233689D01*
X263246Y233146D01*
X263789Y232729D01*
X264421Y232467D01*
X265100Y232378D01*
X265779Y232467D01*
X266411Y232729D01*
X266954Y233146D01*
X267371Y233689D01*
X267633Y234321D01*
X267722Y235000D01*
X267633Y235679D01*
X267371Y236311D01*
X266954Y236854D01*
X266411Y237271D01*
X265779Y237533D01*
X265100Y237622D01*
D02*
G37*
G36*
X252600D02*
X251921Y237533D01*
X251289Y237271D01*
X250746Y236854D01*
X250329Y236311D01*
X250067Y235679D01*
X249978Y235000D01*
X250067Y234321D01*
X250329Y233689D01*
X250746Y233146D01*
X251289Y232729D01*
X251921Y232467D01*
X252600Y232378D01*
X253279Y232467D01*
X253911Y232729D01*
X254454Y233146D01*
X254871Y233689D01*
X255133Y234321D01*
X255222Y235000D01*
X255133Y235679D01*
X254871Y236311D01*
X254454Y236854D01*
X253911Y237271D01*
X253279Y237533D01*
X252600Y237622D01*
D02*
G37*
G36*
X16500Y236034D02*
X15456Y235897D01*
X14483Y235494D01*
X13647Y234853D01*
X13006Y234017D01*
X12603Y233044D01*
X12466Y232000D01*
X12603Y230956D01*
X13006Y229983D01*
X13647Y229147D01*
X14483Y228506D01*
X15456Y228103D01*
X16500Y227965D01*
X17544Y228103D01*
X18517Y228506D01*
X19353Y229147D01*
X19994Y229983D01*
X20397Y230956D01*
X20535Y232000D01*
X20397Y233044D01*
X19994Y234017D01*
X19353Y234853D01*
X18517Y235494D01*
X17544Y235897D01*
X16500Y236034D01*
D02*
G37*
G36*
X336100Y233034D02*
X335056Y232897D01*
X334083Y232494D01*
X333247Y231853D01*
X332606Y231017D01*
X332203Y230044D01*
X332066Y229000D01*
X332203Y227956D01*
X332606Y226983D01*
X333247Y226147D01*
X334083Y225506D01*
X335056Y225103D01*
X336100Y224966D01*
X337144Y225103D01*
X338117Y225506D01*
X338953Y226147D01*
X339594Y226983D01*
X339997Y227956D01*
X340135Y229000D01*
X339997Y230044D01*
X339594Y231017D01*
X338953Y231853D01*
X338117Y232494D01*
X337144Y232897D01*
X336100Y233034D01*
D02*
G37*
G36*
X20500Y226000D02*
X17000D01*
Y222500D01*
X20500D01*
Y226000D01*
D02*
G37*
G36*
X16000D02*
X12500D01*
Y222500D01*
X16000D01*
Y226000D01*
D02*
G37*
G36*
X20500Y221500D02*
X17000D01*
Y218000D01*
X20500D01*
Y221500D01*
D02*
G37*
G36*
X16000D02*
X12500D01*
Y218000D01*
X16000D01*
Y221500D01*
D02*
G37*
G36*
X253000Y212622D02*
X252321Y212533D01*
X251689Y212271D01*
X251146Y211854D01*
X250729Y211311D01*
X250467Y210679D01*
X250378Y210000D01*
X250467Y209321D01*
X250729Y208689D01*
X251146Y208146D01*
X251689Y207729D01*
X252321Y207467D01*
X253000Y207378D01*
X253679Y207467D01*
X254311Y207729D01*
X254854Y208146D01*
X255271Y208689D01*
X255533Y209321D01*
X255622Y210000D01*
X255533Y210679D01*
X255271Y211311D01*
X254854Y211854D01*
X254311Y212271D01*
X253679Y212533D01*
X253000Y212622D01*
D02*
G37*
G36*
X16500Y214035D02*
X15456Y213897D01*
X14483Y213494D01*
X13647Y212853D01*
X13006Y212017D01*
X12603Y211044D01*
X12466Y210000D01*
X12603Y208956D01*
X13006Y207983D01*
X13647Y207147D01*
X14483Y206506D01*
X15456Y206103D01*
X16500Y205965D01*
X17544Y206103D01*
X18517Y206506D01*
X19353Y207147D01*
X19994Y207983D01*
X20397Y208956D01*
X20535Y210000D01*
X20397Y211044D01*
X19994Y212017D01*
X19353Y212853D01*
X18517Y213494D01*
X17544Y213897D01*
X16500Y214035D01*
D02*
G37*
G36*
X253100Y206622D02*
X252421Y206533D01*
X251789Y206271D01*
X251246Y205854D01*
X250829Y205311D01*
X250567Y204679D01*
X250478Y204000D01*
X250567Y203321D01*
X250829Y202689D01*
X251246Y202146D01*
X251789Y201729D01*
X252421Y201467D01*
X253100Y201378D01*
X253779Y201467D01*
X254411Y201729D01*
X254954Y202146D01*
X255371Y202689D01*
X255633Y203321D01*
X255722Y204000D01*
X255633Y204679D01*
X255371Y205311D01*
X254954Y205854D01*
X254411Y206271D01*
X253779Y206533D01*
X253100Y206622D01*
D02*
G37*
G36*
X16500Y204034D02*
X15456Y203897D01*
X14483Y203494D01*
X13647Y202853D01*
X13006Y202017D01*
X12603Y201044D01*
X12466Y200000D01*
X12603Y198956D01*
X13006Y197983D01*
X13647Y197147D01*
X14483Y196506D01*
X15456Y196103D01*
X16500Y195966D01*
X17544Y196103D01*
X18517Y196506D01*
X19353Y197147D01*
X19994Y197983D01*
X20397Y198956D01*
X20535Y200000D01*
X20397Y201044D01*
X19994Y202017D01*
X19353Y202853D01*
X18517Y203494D01*
X17544Y203897D01*
X16500Y204034D01*
D02*
G37*
G36*
X278000Y198772D02*
X277321Y198683D01*
X276689Y198421D01*
X276146Y198004D01*
X275729Y197461D01*
X275467Y196828D01*
X275378Y196150D01*
X275467Y195471D01*
X275729Y194838D01*
X276146Y194295D01*
X276689Y193878D01*
X277321Y193616D01*
X278000Y193527D01*
X278679Y193616D01*
X279311Y193878D01*
X279854Y194295D01*
X280271Y194838D01*
X280533Y195471D01*
X280622Y196150D01*
X280533Y196828D01*
X280271Y197461D01*
X279854Y198004D01*
X279311Y198421D01*
X278679Y198683D01*
X278000Y198772D01*
D02*
G37*
G36*
X16500Y194035D02*
X15456Y193897D01*
X14483Y193494D01*
X13647Y192853D01*
X13006Y192017D01*
X12603Y191044D01*
X12466Y190000D01*
X12603Y188956D01*
X13006Y187983D01*
X13647Y187147D01*
X14483Y186506D01*
X15456Y186103D01*
X16500Y185966D01*
X17544Y186103D01*
X18517Y186506D01*
X19353Y187147D01*
X19994Y187983D01*
X20397Y188956D01*
X20535Y190000D01*
X20397Y191044D01*
X19994Y192017D01*
X19353Y192853D01*
X18517Y193494D01*
X17544Y193897D01*
X16500Y194035D01*
D02*
G37*
G36*
X20500Y184000D02*
X17000D01*
Y180500D01*
X20500D01*
Y184000D01*
D02*
G37*
G36*
X16000D02*
X12500D01*
Y180500D01*
X16000D01*
Y184000D01*
D02*
G37*
G36*
X20500Y179500D02*
X17000D01*
Y176000D01*
X20500D01*
Y179500D01*
D02*
G37*
G36*
X16000D02*
X12500D01*
Y176000D01*
X16000D01*
Y179500D01*
D02*
G37*
G36*
X16500Y171035D02*
X15456Y170897D01*
X14483Y170494D01*
X13647Y169853D01*
X13006Y169017D01*
X12603Y168044D01*
X12466Y167000D01*
X12603Y165956D01*
X13006Y164983D01*
X13647Y164147D01*
X14483Y163506D01*
X15456Y163103D01*
X16500Y162966D01*
X17544Y163103D01*
X18517Y163506D01*
X19353Y164147D01*
X19994Y164983D01*
X20397Y165956D01*
X20535Y167000D01*
X20397Y168044D01*
X19994Y169017D01*
X19353Y169853D01*
X18517Y170494D01*
X17544Y170897D01*
X16500Y171035D01*
D02*
G37*
G36*
X340100Y170000D02*
X332100D01*
Y162000D01*
X340100D01*
Y170000D01*
D02*
G37*
G36*
X292600Y161622D02*
X291921Y161533D01*
X291289Y161271D01*
X290746Y160854D01*
X290329Y160311D01*
X290067Y159679D01*
X289978Y159000D01*
X290067Y158321D01*
X290329Y157689D01*
X290746Y157146D01*
X291289Y156729D01*
X291921Y156467D01*
X292600Y156378D01*
X293279Y156467D01*
X293911Y156729D01*
X294454Y157146D01*
X294871Y157689D01*
X295133Y158321D01*
X295222Y159000D01*
X295133Y159679D01*
X294871Y160311D01*
X294454Y160854D01*
X293911Y161271D01*
X293279Y161533D01*
X292600Y161622D01*
D02*
G37*
G36*
X280100D02*
X279421Y161533D01*
X278789Y161271D01*
X278246Y160854D01*
X277829Y160311D01*
X277567Y159679D01*
X277478Y159000D01*
X277567Y158321D01*
X277829Y157689D01*
X278246Y157146D01*
X278789Y156729D01*
X279421Y156467D01*
X280100Y156378D01*
X280779Y156467D01*
X281411Y156729D01*
X281954Y157146D01*
X282371Y157689D01*
X282633Y158321D01*
X282722Y159000D01*
X282633Y159679D01*
X282371Y160311D01*
X281954Y160854D01*
X281411Y161271D01*
X280779Y161533D01*
X280100Y161622D01*
D02*
G37*
G36*
X265100D02*
X264421Y161533D01*
X263789Y161271D01*
X263246Y160854D01*
X262829Y160311D01*
X262567Y159679D01*
X262478Y159000D01*
X262567Y158321D01*
X262829Y157689D01*
X263246Y157146D01*
X263789Y156729D01*
X264421Y156467D01*
X265100Y156378D01*
X265779Y156467D01*
X266411Y156729D01*
X266954Y157146D01*
X267371Y157689D01*
X267633Y158321D01*
X267722Y159000D01*
X267633Y159679D01*
X267371Y160311D01*
X266954Y160854D01*
X266411Y161271D01*
X265779Y161533D01*
X265100Y161622D01*
D02*
G37*
G36*
X252600D02*
X251921Y161533D01*
X251289Y161271D01*
X250746Y160854D01*
X250329Y160311D01*
X250067Y159679D01*
X249978Y159000D01*
X250067Y158321D01*
X250329Y157689D01*
X250746Y157146D01*
X251289Y156729D01*
X251921Y156467D01*
X252600Y156378D01*
X253279Y156467D01*
X253911Y156729D01*
X254454Y157146D01*
X254871Y157689D01*
X255133Y158321D01*
X255222Y159000D01*
X255133Y159679D01*
X254871Y160311D01*
X254454Y160854D01*
X253911Y161271D01*
X253279Y161533D01*
X252600Y161622D01*
D02*
G37*
G36*
X16500Y161035D02*
X15456Y160897D01*
X14483Y160494D01*
X13647Y159853D01*
X13006Y159017D01*
X12603Y158044D01*
X12466Y157000D01*
X12603Y155956D01*
X13006Y154983D01*
X13647Y154147D01*
X14483Y153506D01*
X15456Y153103D01*
X16500Y152965D01*
X17544Y153103D01*
X18517Y153506D01*
X19353Y154147D01*
X19994Y154983D01*
X20397Y155956D01*
X20535Y157000D01*
X20397Y158044D01*
X19994Y159017D01*
X19353Y159853D01*
X18517Y160494D01*
X17544Y160897D01*
X16500Y161035D01*
D02*
G37*
G36*
X336100Y160035D02*
X335056Y159897D01*
X334083Y159494D01*
X333247Y158853D01*
X332606Y158017D01*
X332203Y157044D01*
X332066Y156000D01*
X332203Y154956D01*
X332606Y153983D01*
X333247Y153147D01*
X334083Y152506D01*
X335056Y152103D01*
X336100Y151965D01*
X337144Y152103D01*
X338117Y152506D01*
X338953Y153147D01*
X339594Y153983D01*
X339997Y154956D01*
X340135Y156000D01*
X339997Y157044D01*
X339594Y158017D01*
X338953Y158853D01*
X338117Y159494D01*
X337144Y159897D01*
X336100Y160035D01*
D02*
G37*
G36*
X292600Y152622D02*
X291921Y152533D01*
X291289Y152271D01*
X290746Y151854D01*
X290329Y151311D01*
X290067Y150679D01*
X289978Y150000D01*
X290067Y149321D01*
X290329Y148689D01*
X290746Y148146D01*
X291289Y147729D01*
X291921Y147467D01*
X292600Y147378D01*
X293279Y147467D01*
X293911Y147729D01*
X294454Y148146D01*
X294871Y148689D01*
X295133Y149321D01*
X295222Y150000D01*
X295133Y150679D01*
X294871Y151311D01*
X294454Y151854D01*
X293911Y152271D01*
X293279Y152533D01*
X292600Y152622D01*
D02*
G37*
G36*
X280100D02*
X279421Y152533D01*
X278789Y152271D01*
X278246Y151854D01*
X277829Y151311D01*
X277567Y150679D01*
X277478Y150000D01*
X277567Y149321D01*
X277829Y148689D01*
X278246Y148146D01*
X278789Y147729D01*
X279421Y147467D01*
X280100Y147378D01*
X280779Y147467D01*
X281411Y147729D01*
X281954Y148146D01*
X282371Y148689D01*
X282633Y149321D01*
X282722Y150000D01*
X282633Y150679D01*
X282371Y151311D01*
X281954Y151854D01*
X281411Y152271D01*
X280779Y152533D01*
X280100Y152622D01*
D02*
G37*
G36*
X265100D02*
X264421Y152533D01*
X263789Y152271D01*
X263246Y151854D01*
X262829Y151311D01*
X262567Y150679D01*
X262478Y150000D01*
X262567Y149321D01*
X262829Y148689D01*
X263246Y148146D01*
X263789Y147729D01*
X264421Y147467D01*
X265100Y147378D01*
X265779Y147467D01*
X266411Y147729D01*
X266954Y148146D01*
X267371Y148689D01*
X267633Y149321D01*
X267722Y150000D01*
X267633Y150679D01*
X267371Y151311D01*
X266954Y151854D01*
X266411Y152271D01*
X265779Y152533D01*
X265100Y152622D01*
D02*
G37*
G36*
X252600D02*
X251921Y152533D01*
X251289Y152271D01*
X250746Y151854D01*
X250329Y151311D01*
X250067Y150679D01*
X249978Y150000D01*
X250067Y149321D01*
X250329Y148689D01*
X250746Y148146D01*
X251289Y147729D01*
X251921Y147467D01*
X252600Y147378D01*
X253279Y147467D01*
X253911Y147729D01*
X254454Y148146D01*
X254871Y148689D01*
X255133Y149321D01*
X255222Y150000D01*
X255133Y150679D01*
X254871Y151311D01*
X254454Y151854D01*
X253911Y152271D01*
X253279Y152533D01*
X252600Y152622D01*
D02*
G37*
G36*
X16500Y151034D02*
X15456Y150897D01*
X14483Y150494D01*
X13647Y149853D01*
X13006Y149017D01*
X12603Y148044D01*
X12466Y147000D01*
X12603Y145956D01*
X13006Y144983D01*
X13647Y144147D01*
X14483Y143506D01*
X15456Y143103D01*
X16500Y142965D01*
X17544Y143103D01*
X18517Y143506D01*
X19353Y144147D01*
X19994Y144983D01*
X20397Y145956D01*
X20535Y147000D01*
X20397Y148044D01*
X19994Y149017D01*
X19353Y149853D01*
X18517Y150494D01*
X17544Y150897D01*
X16500Y151034D01*
D02*
G37*
G36*
X340100Y148000D02*
X332100D01*
Y140000D01*
X340100D01*
Y148000D01*
D02*
G37*
G36*
X292600Y143622D02*
X291921Y143533D01*
X291289Y143271D01*
X290746Y142854D01*
X290329Y142311D01*
X290067Y141679D01*
X289978Y141000D01*
X290067Y140321D01*
X290329Y139689D01*
X290746Y139146D01*
X291289Y138729D01*
X291921Y138467D01*
X292600Y138378D01*
X293279Y138467D01*
X293911Y138729D01*
X294454Y139146D01*
X294871Y139689D01*
X295133Y140321D01*
X295222Y141000D01*
X295133Y141679D01*
X294871Y142311D01*
X294454Y142854D01*
X293911Y143271D01*
X293279Y143533D01*
X292600Y143622D01*
D02*
G37*
G36*
X280100D02*
X279421Y143533D01*
X278789Y143271D01*
X278246Y142854D01*
X277829Y142311D01*
X277567Y141679D01*
X277478Y141000D01*
X277567Y140321D01*
X277829Y139689D01*
X278246Y139146D01*
X278789Y138729D01*
X279421Y138467D01*
X280100Y138378D01*
X280779Y138467D01*
X281411Y138729D01*
X281954Y139146D01*
X282371Y139689D01*
X282633Y140321D01*
X282722Y141000D01*
X282633Y141679D01*
X282371Y142311D01*
X281954Y142854D01*
X281411Y143271D01*
X280779Y143533D01*
X280100Y143622D01*
D02*
G37*
G36*
X265100D02*
X264421Y143533D01*
X263789Y143271D01*
X263246Y142854D01*
X262829Y142311D01*
X262567Y141679D01*
X262478Y141000D01*
X262567Y140321D01*
X262829Y139689D01*
X263246Y139146D01*
X263789Y138729D01*
X264421Y138467D01*
X265100Y138378D01*
X265779Y138467D01*
X266411Y138729D01*
X266954Y139146D01*
X267371Y139689D01*
X267633Y140321D01*
X267722Y141000D01*
X267633Y141679D01*
X267371Y142311D01*
X266954Y142854D01*
X266411Y143271D01*
X265779Y143533D01*
X265100Y143622D01*
D02*
G37*
G36*
X252600D02*
X251921Y143533D01*
X251289Y143271D01*
X250746Y142854D01*
X250329Y142311D01*
X250067Y141679D01*
X249978Y141000D01*
X250067Y140321D01*
X250329Y139689D01*
X250746Y139146D01*
X251289Y138729D01*
X251921Y138467D01*
X252600Y138378D01*
X253279Y138467D01*
X253911Y138729D01*
X254454Y139146D01*
X254871Y139689D01*
X255133Y140321D01*
X255222Y141000D01*
X255133Y141679D01*
X254871Y142311D01*
X254454Y142854D01*
X253911Y143271D01*
X253279Y143533D01*
X252600Y143622D01*
D02*
G37*
G36*
X20500Y141000D02*
X17000D01*
Y137500D01*
X20500D01*
Y141000D01*
D02*
G37*
G36*
X16000D02*
X12500D01*
Y137500D01*
X16000D01*
Y141000D01*
D02*
G37*
G36*
X20500Y136500D02*
X17000D01*
Y133000D01*
X20500D01*
Y136500D01*
D02*
G37*
G36*
X16000D02*
X12500D01*
Y133000D01*
X16000D01*
Y136500D01*
D02*
G37*
G36*
X336100Y138034D02*
X335056Y137897D01*
X334083Y137494D01*
X333247Y136853D01*
X332606Y136017D01*
X332203Y135044D01*
X332066Y134000D01*
X332203Y132956D01*
X332606Y131983D01*
X333247Y131147D01*
X334083Y130506D01*
X335056Y130103D01*
X336100Y129965D01*
X337144Y130103D01*
X338117Y130506D01*
X338953Y131147D01*
X339594Y131983D01*
X339997Y132956D01*
X340135Y134000D01*
X339997Y135044D01*
X339594Y136017D01*
X338953Y136853D01*
X338117Y137494D01*
X337144Y137897D01*
X336100Y138034D01*
D02*
G37*
G36*
X16500Y129034D02*
X15456Y128897D01*
X14483Y128494D01*
X13647Y127853D01*
X13006Y127017D01*
X12603Y126044D01*
X12466Y125000D01*
X12603Y123956D01*
X13006Y122983D01*
X13647Y122147D01*
X14483Y121506D01*
X15456Y121103D01*
X16500Y120966D01*
X17544Y121103D01*
X18517Y121506D01*
X19353Y122147D01*
X19994Y122983D01*
X20397Y123956D01*
X20535Y125000D01*
X20397Y126044D01*
X19994Y127017D01*
X19353Y127853D01*
X18517Y128494D01*
X17544Y128897D01*
X16500Y129034D01*
D02*
G37*
G36*
X253000Y118622D02*
X252321Y118533D01*
X251689Y118271D01*
X251146Y117854D01*
X250729Y117311D01*
X250467Y116679D01*
X250378Y116000D01*
X250467Y115321D01*
X250729Y114689D01*
X251146Y114146D01*
X251689Y113729D01*
X252321Y113467D01*
X253000Y113378D01*
X253679Y113467D01*
X254311Y113729D01*
X254854Y114146D01*
X255271Y114689D01*
X255533Y115321D01*
X255622Y116000D01*
X255533Y116679D01*
X255271Y117311D01*
X254854Y117854D01*
X254311Y118271D01*
X253679Y118533D01*
X253000Y118622D01*
D02*
G37*
G36*
X16500Y119035D02*
X15456Y118897D01*
X14483Y118494D01*
X13647Y117853D01*
X13006Y117017D01*
X12603Y116044D01*
X12466Y115000D01*
X12603Y113956D01*
X13006Y112983D01*
X13647Y112147D01*
X14483Y111506D01*
X15456Y111103D01*
X16500Y110966D01*
X17544Y111103D01*
X18517Y111506D01*
X19353Y112147D01*
X19994Y112983D01*
X20397Y113956D01*
X20535Y115000D01*
X20397Y116044D01*
X19994Y117017D01*
X19353Y117853D01*
X18517Y118494D01*
X17544Y118897D01*
X16500Y119035D01*
D02*
G37*
G36*
X253100Y112622D02*
X252421Y112533D01*
X251789Y112271D01*
X251246Y111854D01*
X250829Y111311D01*
X250567Y110679D01*
X250478Y110000D01*
X250567Y109321D01*
X250829Y108689D01*
X251246Y108146D01*
X251789Y107729D01*
X252421Y107467D01*
X253100Y107378D01*
X253779Y107467D01*
X254411Y107729D01*
X254954Y108146D01*
X255371Y108689D01*
X255633Y109321D01*
X255722Y110000D01*
X255633Y110679D01*
X255371Y111311D01*
X254954Y111854D01*
X254411Y112271D01*
X253779Y112533D01*
X253100Y112622D01*
D02*
G37*
G36*
X16500Y109035D02*
X15456Y108897D01*
X14483Y108494D01*
X13647Y107853D01*
X13006Y107017D01*
X12603Y106044D01*
X12466Y105000D01*
X12603Y103956D01*
X13006Y102983D01*
X13647Y102147D01*
X14483Y101506D01*
X15456Y101103D01*
X16500Y100965D01*
X17544Y101103D01*
X18517Y101506D01*
X19353Y102147D01*
X19994Y102983D01*
X20397Y103956D01*
X20535Y105000D01*
X20397Y106044D01*
X19994Y107017D01*
X19353Y107853D01*
X18517Y108494D01*
X17544Y108897D01*
X16500Y109035D01*
D02*
G37*
G36*
X277000Y104622D02*
X276321Y104533D01*
X275689Y104271D01*
X275146Y103854D01*
X274729Y103311D01*
X274467Y102679D01*
X274378Y102000D01*
X274467Y101321D01*
X274729Y100689D01*
X275146Y100146D01*
X275689Y99729D01*
X276321Y99467D01*
X277000Y99378D01*
X277679Y99467D01*
X278311Y99729D01*
X278854Y100146D01*
X279271Y100689D01*
X279533Y101321D01*
X279622Y102000D01*
X279533Y102679D01*
X279271Y103311D01*
X278854Y103854D01*
X278311Y104271D01*
X277679Y104533D01*
X277000Y104622D01*
D02*
G37*
G36*
X20500Y99000D02*
X12500D01*
Y91000D01*
X20500D01*
Y99000D01*
D02*
G37*
G36*
X16500Y87034D02*
X15456Y86897D01*
X14483Y86494D01*
X13647Y85853D01*
X13006Y85017D01*
X12603Y84044D01*
X12466Y83000D01*
X12603Y81956D01*
X13006Y80983D01*
X13647Y80147D01*
X14483Y79506D01*
X15456Y79103D01*
X16500Y78966D01*
X17544Y79103D01*
X18517Y79506D01*
X19353Y80147D01*
X19994Y80983D01*
X20397Y81956D01*
X20535Y83000D01*
X20397Y84044D01*
X19994Y85017D01*
X19353Y85853D01*
X18517Y86494D01*
X17544Y86897D01*
X16500Y87034D01*
D02*
G37*
G36*
X340000Y83000D02*
X332000D01*
Y75000D01*
X340000D01*
Y83000D01*
D02*
G37*
G36*
X16500Y77034D02*
X15456Y76897D01*
X14483Y76494D01*
X13647Y75853D01*
X13006Y75017D01*
X12603Y74044D01*
X12466Y73000D01*
X12603Y71956D01*
X13006Y70983D01*
X13647Y70147D01*
X14483Y69506D01*
X15456Y69103D01*
X16500Y68966D01*
X17544Y69103D01*
X18517Y69506D01*
X19353Y70147D01*
X19994Y70983D01*
X20397Y71956D01*
X20535Y73000D01*
X20397Y74044D01*
X19994Y75017D01*
X19353Y75853D01*
X18517Y76494D01*
X17544Y76897D01*
X16500Y77034D01*
D02*
G37*
G36*
X336000Y73035D02*
X334956Y72897D01*
X333983Y72494D01*
X333147Y71853D01*
X332506Y71017D01*
X332103Y70044D01*
X331965Y69000D01*
X332103Y67956D01*
X332506Y66983D01*
X333147Y66147D01*
X333983Y65506D01*
X334956Y65103D01*
X336000Y64965D01*
X337044Y65103D01*
X338017Y65506D01*
X338853Y66147D01*
X339494Y66983D01*
X339897Y67956D01*
X340035Y69000D01*
X339897Y70044D01*
X339494Y71017D01*
X338853Y71853D01*
X338017Y72494D01*
X337044Y72897D01*
X336000Y73035D01*
D02*
G37*
G36*
X292500Y67622D02*
X291821Y67533D01*
X291189Y67271D01*
X290646Y66854D01*
X290229Y66311D01*
X289967Y65679D01*
X289878Y65000D01*
X289967Y64321D01*
X290229Y63689D01*
X290646Y63146D01*
X291189Y62729D01*
X291821Y62467D01*
X292500Y62378D01*
X293179Y62467D01*
X293811Y62729D01*
X294354Y63146D01*
X294771Y63689D01*
X295033Y64321D01*
X295122Y65000D01*
X295033Y65679D01*
X294771Y66311D01*
X294354Y66854D01*
X293811Y67271D01*
X293179Y67533D01*
X292500Y67622D01*
D02*
G37*
G36*
X280000D02*
X279321Y67533D01*
X278689Y67271D01*
X278146Y66854D01*
X277729Y66311D01*
X277467Y65679D01*
X277378Y65000D01*
X277467Y64321D01*
X277729Y63689D01*
X278146Y63146D01*
X278689Y62729D01*
X279321Y62467D01*
X280000Y62378D01*
X280679Y62467D01*
X281311Y62729D01*
X281854Y63146D01*
X282271Y63689D01*
X282533Y64321D01*
X282622Y65000D01*
X282533Y65679D01*
X282271Y66311D01*
X281854Y66854D01*
X281311Y67271D01*
X280679Y67533D01*
X280000Y67622D01*
D02*
G37*
G36*
X265000D02*
X264321Y67533D01*
X263689Y67271D01*
X263146Y66854D01*
X262729Y66311D01*
X262467Y65679D01*
X262378Y65000D01*
X262467Y64321D01*
X262729Y63689D01*
X263146Y63146D01*
X263689Y62729D01*
X264321Y62467D01*
X265000Y62378D01*
X265679Y62467D01*
X266311Y62729D01*
X266854Y63146D01*
X267271Y63689D01*
X267533Y64321D01*
X267622Y65000D01*
X267533Y65679D01*
X267271Y66311D01*
X266854Y66854D01*
X266311Y67271D01*
X265679Y67533D01*
X265000Y67622D01*
D02*
G37*
G36*
X252500D02*
X251821Y67533D01*
X251189Y67271D01*
X250646Y66854D01*
X250229Y66311D01*
X249967Y65679D01*
X249878Y65000D01*
X249967Y64321D01*
X250229Y63689D01*
X250646Y63146D01*
X251189Y62729D01*
X251821Y62467D01*
X252500Y62378D01*
X253179Y62467D01*
X253811Y62729D01*
X254354Y63146D01*
X254771Y63689D01*
X255033Y64321D01*
X255122Y65000D01*
X255033Y65679D01*
X254771Y66311D01*
X254354Y66854D01*
X253811Y67271D01*
X253179Y67533D01*
X252500Y67622D01*
D02*
G37*
G36*
X16500Y67035D02*
X15456Y66897D01*
X14483Y66494D01*
X13647Y65853D01*
X13006Y65017D01*
X12603Y64044D01*
X12466Y63000D01*
X12603Y61956D01*
X13006Y60983D01*
X13647Y60147D01*
X14483Y59506D01*
X15456Y59103D01*
X16500Y58965D01*
X17544Y59103D01*
X18517Y59506D01*
X19353Y60147D01*
X19994Y60983D01*
X20397Y61956D01*
X20535Y63000D01*
X20397Y64044D01*
X19994Y65017D01*
X19353Y65853D01*
X18517Y66494D01*
X17544Y66897D01*
X16500Y67035D01*
D02*
G37*
G36*
X340000Y61500D02*
X332000D01*
Y53500D01*
X340000D01*
Y61500D01*
D02*
G37*
G36*
X292500Y58622D02*
X291821Y58533D01*
X291189Y58271D01*
X290646Y57854D01*
X290229Y57311D01*
X289967Y56679D01*
X289878Y56000D01*
X289967Y55321D01*
X290229Y54689D01*
X290646Y54146D01*
X291189Y53729D01*
X291821Y53467D01*
X292500Y53378D01*
X293179Y53467D01*
X293811Y53729D01*
X294354Y54146D01*
X294771Y54689D01*
X295033Y55321D01*
X295122Y56000D01*
X295033Y56679D01*
X294771Y57311D01*
X294354Y57854D01*
X293811Y58271D01*
X293179Y58533D01*
X292500Y58622D01*
D02*
G37*
G36*
X280000D02*
X279321Y58533D01*
X278689Y58271D01*
X278146Y57854D01*
X277729Y57311D01*
X277467Y56679D01*
X277378Y56000D01*
X277467Y55321D01*
X277729Y54689D01*
X278146Y54146D01*
X278689Y53729D01*
X279321Y53467D01*
X280000Y53378D01*
X280679Y53467D01*
X281311Y53729D01*
X281854Y54146D01*
X282271Y54689D01*
X282533Y55321D01*
X282622Y56000D01*
X282533Y56679D01*
X282271Y57311D01*
X281854Y57854D01*
X281311Y58271D01*
X280679Y58533D01*
X280000Y58622D01*
D02*
G37*
G36*
X265000D02*
X264321Y58533D01*
X263689Y58271D01*
X263146Y57854D01*
X262729Y57311D01*
X262467Y56679D01*
X262378Y56000D01*
X262467Y55321D01*
X262729Y54689D01*
X263146Y54146D01*
X263689Y53729D01*
X264321Y53467D01*
X265000Y53378D01*
X265679Y53467D01*
X266311Y53729D01*
X266854Y54146D01*
X267271Y54689D01*
X267533Y55321D01*
X267622Y56000D01*
X267533Y56679D01*
X267271Y57311D01*
X266854Y57854D01*
X266311Y58271D01*
X265679Y58533D01*
X265000Y58622D01*
D02*
G37*
G36*
X252500D02*
X251821Y58533D01*
X251189Y58271D01*
X250646Y57854D01*
X250229Y57311D01*
X249967Y56679D01*
X249878Y56000D01*
X249967Y55321D01*
X250229Y54689D01*
X250646Y54146D01*
X251189Y53729D01*
X251821Y53467D01*
X252500Y53378D01*
X253179Y53467D01*
X253811Y53729D01*
X254354Y54146D01*
X254771Y54689D01*
X255033Y55321D01*
X255122Y56000D01*
X255033Y56679D01*
X254771Y57311D01*
X254354Y57854D01*
X253811Y58271D01*
X253179Y58533D01*
X252500Y58622D01*
D02*
G37*
G36*
X20500Y57000D02*
X12500D01*
Y49000D01*
X20500D01*
Y57000D01*
D02*
G37*
G36*
X292500Y49622D02*
X291821Y49533D01*
X291189Y49271D01*
X290646Y48854D01*
X290229Y48311D01*
X289967Y47679D01*
X289878Y47000D01*
X289967Y46321D01*
X290229Y45689D01*
X290646Y45146D01*
X291189Y44729D01*
X291821Y44467D01*
X292500Y44378D01*
X293179Y44467D01*
X293811Y44729D01*
X294354Y45146D01*
X294771Y45689D01*
X295033Y46321D01*
X295122Y47000D01*
X295033Y47679D01*
X294771Y48311D01*
X294354Y48854D01*
X293811Y49271D01*
X293179Y49533D01*
X292500Y49622D01*
D02*
G37*
G36*
X280000D02*
X279321Y49533D01*
X278689Y49271D01*
X278146Y48854D01*
X277729Y48311D01*
X277467Y47679D01*
X277378Y47000D01*
X277467Y46321D01*
X277729Y45689D01*
X278146Y45146D01*
X278689Y44729D01*
X279321Y44467D01*
X280000Y44378D01*
X280679Y44467D01*
X281311Y44729D01*
X281854Y45146D01*
X282271Y45689D01*
X282533Y46321D01*
X282622Y47000D01*
X282533Y47679D01*
X282271Y48311D01*
X281854Y48854D01*
X281311Y49271D01*
X280679Y49533D01*
X280000Y49622D01*
D02*
G37*
G36*
X265000D02*
X264321Y49533D01*
X263689Y49271D01*
X263146Y48854D01*
X262729Y48311D01*
X262467Y47679D01*
X262378Y47000D01*
X262467Y46321D01*
X262729Y45689D01*
X263146Y45146D01*
X263689Y44729D01*
X264321Y44467D01*
X265000Y44378D01*
X265679Y44467D01*
X266311Y44729D01*
X266854Y45146D01*
X267271Y45689D01*
X267533Y46321D01*
X267622Y47000D01*
X267533Y47679D01*
X267271Y48311D01*
X266854Y48854D01*
X266311Y49271D01*
X265679Y49533D01*
X265000Y49622D01*
D02*
G37*
G36*
X252500D02*
X251821Y49533D01*
X251189Y49271D01*
X250646Y48854D01*
X250229Y48311D01*
X249967Y47679D01*
X249878Y47000D01*
X249967Y46321D01*
X250229Y45689D01*
X250646Y45146D01*
X251189Y44729D01*
X251821Y44467D01*
X252500Y44378D01*
X253179Y44467D01*
X253811Y44729D01*
X254354Y45146D01*
X254771Y45689D01*
X255033Y46321D01*
X255122Y47000D01*
X255033Y47679D01*
X254771Y48311D01*
X254354Y48854D01*
X253811Y49271D01*
X253179Y49533D01*
X252500Y49622D01*
D02*
G37*
G36*
X336000Y51534D02*
X334956Y51397D01*
X333983Y50994D01*
X333147Y50353D01*
X332506Y49517D01*
X332103Y48544D01*
X331965Y47500D01*
X332103Y46456D01*
X332506Y45483D01*
X333147Y44647D01*
X333983Y44006D01*
X334956Y43603D01*
X336000Y43466D01*
X337044Y43603D01*
X338017Y44006D01*
X338853Y44647D01*
X339494Y45483D01*
X339897Y46456D01*
X340035Y47500D01*
X339897Y48544D01*
X339494Y49517D01*
X338853Y50353D01*
X338017Y50994D01*
X337044Y51397D01*
X336000Y51534D01*
D02*
G37*
G36*
X277500Y39622D02*
X276821Y39533D01*
X276189Y39271D01*
X275646Y38854D01*
X275229Y38311D01*
X274967Y37679D01*
X274878Y37000D01*
X274967Y36321D01*
X275229Y35689D01*
X275646Y35146D01*
X276189Y34729D01*
X276821Y34467D01*
X277500Y34378D01*
X278179Y34467D01*
X278811Y34729D01*
X279354Y35146D01*
X279771Y35689D01*
X280033Y36321D01*
X280122Y37000D01*
X280033Y37679D01*
X279771Y38311D01*
X279354Y38854D01*
X278811Y39271D01*
X278179Y39533D01*
X277500Y39622D01*
D02*
G37*
G36*
X242000Y34622D02*
X241321Y34533D01*
X240689Y34271D01*
X240146Y33854D01*
X239729Y33311D01*
X239467Y32679D01*
X239378Y32000D01*
X239467Y31321D01*
X239729Y30689D01*
X240146Y30146D01*
X240689Y29729D01*
X241321Y29467D01*
X242000Y29378D01*
X242679Y29467D01*
X243311Y29729D01*
X243854Y30146D01*
X244271Y30689D01*
X244533Y31321D01*
X244622Y32000D01*
X244533Y32679D01*
X244271Y33311D01*
X243854Y33854D01*
X243311Y34271D01*
X242679Y34533D01*
X242000Y34622D01*
D02*
G37*
G36*
X253000Y18622D02*
X252321Y18533D01*
X251689Y18271D01*
X251146Y17854D01*
X250729Y17311D01*
X250467Y16679D01*
X250378Y16000D01*
X250467Y15321D01*
X250729Y14689D01*
X251146Y14146D01*
X251689Y13729D01*
X252321Y13467D01*
X253000Y13378D01*
X253679Y13467D01*
X254311Y13729D01*
X254854Y14146D01*
X255271Y14689D01*
X255533Y15321D01*
X255622Y16000D01*
X255533Y16679D01*
X255271Y17311D01*
X254854Y17854D01*
X254311Y18271D01*
X253679Y18533D01*
X253000Y18622D01*
D02*
G37*
G36*
X329000Y37049D02*
X326489Y36852D01*
X324040Y36264D01*
X321714Y35300D01*
X319566Y33984D01*
X317651Y32349D01*
X316016Y30434D01*
X314700Y28286D01*
X313736Y25960D01*
X313148Y23511D01*
X312950Y21000D01*
X313148Y18489D01*
X313736Y16040D01*
X314700Y13714D01*
X316016Y11566D01*
X317651Y9651D01*
X319566Y8016D01*
X321714Y6700D01*
X324040Y5736D01*
X326489Y5148D01*
X329000Y4950D01*
X331511Y5148D01*
X333960Y5736D01*
X336286Y6700D01*
X338434Y8016D01*
X340349Y9651D01*
X341984Y11566D01*
X343300Y13714D01*
X344264Y16040D01*
X344852Y18489D01*
X345050Y21000D01*
X344852Y23511D01*
X344264Y25960D01*
X343300Y28286D01*
X341984Y30434D01*
X340349Y32349D01*
X338434Y33984D01*
X336286Y35300D01*
X333960Y36264D01*
X331511Y36852D01*
X329000Y37049D01*
D02*
G37*
G36*
X21000D02*
X18489Y36852D01*
X16040Y36264D01*
X13714Y35300D01*
X11566Y33984D01*
X9651Y32349D01*
X8016Y30434D01*
X6700Y28286D01*
X5736Y25960D01*
X5148Y23511D01*
X4950Y21000D01*
X5148Y18489D01*
X5736Y16040D01*
X6700Y13714D01*
X8016Y11566D01*
X9651Y9651D01*
X11566Y8016D01*
X13714Y6700D01*
X16040Y5736D01*
X18489Y5148D01*
X21000Y4950D01*
X23511Y5148D01*
X25960Y5736D01*
X28286Y6700D01*
X30434Y8016D01*
X32349Y9651D01*
X33984Y11566D01*
X35300Y13714D01*
X36264Y16040D01*
X36852Y18489D01*
X37049Y21000D01*
X36852Y23511D01*
X36264Y25960D01*
X35300Y28286D01*
X33984Y30434D01*
X32349Y32349D01*
X30434Y33984D01*
X28286Y35300D01*
X25960Y36264D01*
X23511Y36852D01*
X21000Y37049D01*
D02*
G37*
%LPD*%
D59*
X166500Y849500D02*
Y852000D01*
X133000Y851000D02*
X134400Y852400D01*
X165000Y851000D02*
X166500Y849500D01*
X80000Y444000D02*
X131000Y495000D01*
Y515531D01*
X80000Y407776D02*
Y444000D01*
D61*
X341500Y503500D02*
D03*
X16500Y349500D02*
D03*
X337000Y459000D02*
D03*
Y437000D02*
D03*
X16500Y307000D02*
D03*
Y264500D02*
D03*
Y222000D02*
D03*
Y180000D02*
D03*
Y137000D02*
D03*
D62*
X159000Y40000D02*
D03*
X337000Y404913D02*
D03*
D63*
X261000Y851000D02*
D03*
X229000D02*
D03*
X197000D02*
D03*
X165000D02*
D03*
X133000D02*
D03*
X101000D02*
D03*
X69000D02*
D03*
D66*
X298000Y419000D02*
D03*
X308457D02*
D03*
X319000D02*
D03*
Y427000D02*
D03*
X308373Y427189D02*
D03*
X298000Y427000D02*
D03*
X308000Y435000D02*
D03*
X319000D02*
D03*
X298000D02*
D03*
X308500Y451000D02*
D03*
X298871D02*
D03*
X318000D02*
D03*
Y459000D02*
D03*
X298871D02*
D03*
X308457D02*
D03*
Y467000D02*
D03*
X299000D02*
D03*
X318000D02*
D03*
X277000Y378000D02*
D03*
X277600Y189850D02*
D03*
X69000Y71740D02*
D03*
X145000Y414000D02*
D03*
X141121Y521452D02*
D03*
X141492Y555260D02*
D03*
Y595260D02*
D03*
Y635260D02*
D03*
X208886Y645457D02*
D03*
Y605457D02*
D03*
Y565457D02*
D03*
Y525457D02*
D03*
X80000Y407776D02*
D03*
X131000Y515531D02*
D03*
X277100Y96000D02*
D03*
X277000Y284000D02*
D03*
D67*
X105000Y457795D02*
D03*
X100000Y422000D02*
D03*
Y414000D02*
D03*
Y438000D02*
D03*
Y452000D02*
D03*
X144000Y453000D02*
D03*
M02*
