G04 Layer_Color=16711935*
%FSLAX25Y25*%
%MOIN*%
G70*
G01*
G75*
%ADD41R,0.06509X0.05328*%
%ADD50C,0.06706*%
%ADD51R,0.06706X0.06706*%
%ADD52C,0.06800*%
%ADD53R,0.06800X0.06800*%
%ADD54R,0.06800X0.06800*%
%ADD55C,0.05800*%
%ADD56R,0.05328X0.06509*%
D41*
X467000Y264457D02*
D03*
Y271543D02*
D03*
X413000Y286957D02*
D03*
Y294043D02*
D03*
X422000Y286957D02*
D03*
Y294043D02*
D03*
X430000Y286957D02*
D03*
Y294043D02*
D03*
X438500Y286957D02*
D03*
Y294043D02*
D03*
X446842Y286957D02*
D03*
Y294043D02*
D03*
X455500Y286957D02*
D03*
Y294043D02*
D03*
X421500Y318543D02*
D03*
Y311457D02*
D03*
X430500Y318543D02*
D03*
Y311457D02*
D03*
X439000Y318543D02*
D03*
Y311457D02*
D03*
X455685Y318543D02*
D03*
Y311457D02*
D03*
X447500Y318543D02*
D03*
Y311457D02*
D03*
D50*
X479000Y258500D02*
D03*
Y268500D02*
D03*
Y278500D02*
D03*
D51*
Y288500D02*
D03*
D52*
X681768Y376500D02*
D03*
Y354500D02*
D03*
X643000Y462240D02*
D03*
X633000D02*
D03*
X623000D02*
D03*
X594000D02*
D03*
X584000D02*
D03*
X574000D02*
D03*
X538500Y461740D02*
D03*
X528500D02*
D03*
X518500D02*
D03*
X474000D02*
D03*
X464000D02*
D03*
X454000D02*
D03*
X409760D02*
D03*
X399760D02*
D03*
X389760D02*
D03*
X343500D02*
D03*
X333500D02*
D03*
X323500D02*
D03*
X275760D02*
D03*
X265760D02*
D03*
X255760D02*
D03*
X206500D02*
D03*
X196500D02*
D03*
X186500D02*
D03*
X158500Y461740D02*
D03*
X148500D02*
D03*
X138500D02*
D03*
Y333000D02*
D03*
Y323000D02*
D03*
Y313000D02*
D03*
Y378000D02*
D03*
Y368000D02*
D03*
Y358000D02*
D03*
X120000Y480000D02*
D03*
Y260000D02*
D03*
X680000D02*
D03*
Y480000D02*
D03*
D53*
X681768Y366500D02*
D03*
Y344500D02*
D03*
X138500Y343000D02*
D03*
Y388000D02*
D03*
D54*
X653000Y462240D02*
D03*
X604000D02*
D03*
X548500Y461740D02*
D03*
X484000D02*
D03*
X419760D02*
D03*
X353500D02*
D03*
X285760D02*
D03*
X216500D02*
D03*
X168500Y461740D02*
D03*
D55*
X460252Y342752D02*
D03*
X479000Y297500D02*
D03*
X452500Y342000D02*
D03*
X460500Y264000D02*
D03*
X370500Y357000D02*
D03*
X420500Y373000D02*
D03*
X415500Y377000D02*
D03*
X410500Y381500D02*
D03*
X391887Y345204D02*
D03*
X386500Y349500D02*
D03*
X381500Y353000D02*
D03*
X500000Y325500D02*
D03*
X441000Y342000D02*
D03*
X404043Y342957D02*
D03*
X651500Y386000D02*
D03*
X639000D02*
D03*
X461000Y389000D02*
D03*
X415500Y356000D02*
D03*
X405500Y386000D02*
D03*
X376500Y357000D02*
D03*
X266000Y319000D02*
D03*
X281000Y319500D02*
D03*
X378000D02*
D03*
X399000D02*
D03*
X481303Y323697D02*
D03*
X498500Y359000D02*
D03*
X665500Y379500D02*
D03*
Y401000D02*
D03*
X158500Y306500D02*
D03*
X152500Y306000D02*
D03*
X143500Y285000D02*
D03*
X446000Y280500D02*
D03*
X455500Y281000D02*
D03*
X399000Y326000D02*
D03*
X387043Y275457D02*
D03*
X413000Y281000D02*
D03*
X414772Y321728D02*
D03*
X424043Y325000D02*
D03*
X439000Y324500D02*
D03*
X455685Y324315D02*
D03*
X449780Y324307D02*
D03*
X434000Y354000D02*
D03*
X379000Y384500D02*
D03*
X441000Y257500D02*
D03*
X648000Y303500D02*
D03*
D56*
X455543Y302500D02*
D03*
X448457D02*
D03*
X421457Y302500D02*
D03*
X428543D02*
D03*
M02*
