G04 Layer_Color=65535*
%FSLAX25Y25*%
%MOIN*%
G70*
G01*
G75*
%ADD21C,0.01000*%
%ADD31C,0.00984*%
%ADD32C,0.02362*%
%ADD33C,0.00600*%
%ADD34C,0.00400*%
%ADD35C,0.00787*%
%ADD36C,0.00591*%
%ADD37C,0.00750*%
%ADD38C,0.00100*%
D21*
X484143Y358500D02*
G03*
X484143Y358500I-8643J0D01*
G01*
X463689Y346689D02*
Y370311D01*
X486917D01*
Y346689D02*
Y370311D01*
X463689Y346689D02*
X486917D01*
X179000Y386890D02*
Y392888D01*
X181999D01*
X182999Y391888D01*
Y389889D01*
X181999Y388889D01*
X179000D01*
X184998Y386890D02*
Y390889D01*
X186997Y392888D01*
X188997Y390889D01*
Y386890D01*
Y389889D01*
X184998D01*
X190996Y386890D02*
Y392888D01*
X193995D01*
X194995Y391888D01*
Y389889D01*
X193995Y388889D01*
X190996D01*
X192996D02*
X194995Y386890D01*
X200993Y391888D02*
X199993Y392888D01*
X197994D01*
X196994Y391888D01*
Y390889D01*
X197994Y389889D01*
X199993D01*
X200993Y388889D01*
Y387890D01*
X199993Y386890D01*
X197994D01*
X196994Y387890D01*
X206991Y392888D02*
X202992D01*
Y386890D01*
X206991D01*
X202992Y389889D02*
X204992D01*
X212989Y391888D02*
X211989Y392888D01*
X209990D01*
X208990Y391888D01*
Y387890D01*
X209990Y386890D01*
X211989D01*
X212989Y387890D01*
X220986Y386890D02*
Y390889D01*
X222986Y392888D01*
X224985Y390889D01*
Y386890D01*
Y389889D01*
X220986D01*
X226985Y390889D02*
X228984Y386890D01*
X230983Y390889D01*
X232982Y386890D02*
X234982D01*
X233982D01*
Y390889D01*
X232982D01*
X238981Y386890D02*
X240980D01*
X241980Y387890D01*
Y389889D01*
X240980Y390889D01*
X238981D01*
X237981Y389889D01*
Y387890D01*
X238981Y386890D01*
X243979D02*
Y390889D01*
X246978D01*
X247978Y389889D01*
Y386890D01*
X249977D02*
X251976D01*
X250977D01*
Y390889D01*
X249977D01*
X258974D02*
X255975D01*
X254975Y389889D01*
Y387890D01*
X255975Y386890D01*
X258974D01*
X260974D02*
X263972D01*
X264972Y387890D01*
X263972Y388889D01*
X261973D01*
X260974Y389889D01*
X261973Y390889D01*
X264972D01*
X179000Y377292D02*
Y383290D01*
X181999D01*
X182999Y382291D01*
Y380291D01*
X181999Y379292D01*
X179000D01*
X184998Y381291D02*
Y377292D01*
Y379292D01*
X185998Y380291D01*
X186997Y381291D01*
X187997D01*
X193995Y377292D02*
X191996D01*
X190996Y378292D01*
Y380291D01*
X191996Y381291D01*
X193995D01*
X194995Y380291D01*
Y379292D01*
X190996D01*
X196994Y377292D02*
X199993D01*
X200993Y378292D01*
X199993Y379292D01*
X197994D01*
X196994Y380291D01*
X197994Y381291D01*
X200993D01*
X202992Y377292D02*
X205991D01*
X206991Y378292D01*
X205991Y379292D01*
X203992D01*
X202992Y380291D01*
X203992Y381291D01*
X206991D01*
X208990D02*
Y378292D01*
X209990Y377292D01*
X212989D01*
Y381291D01*
X214988D02*
Y377292D01*
Y379292D01*
X215988Y380291D01*
X216988Y381291D01*
X217987D01*
X223985Y377292D02*
X221986D01*
X220986Y378292D01*
Y380291D01*
X221986Y381291D01*
X223985D01*
X224985Y380291D01*
Y379292D01*
X220986D01*
X232982Y383290D02*
X236981D01*
X234982D01*
Y377292D01*
X238981Y381291D02*
Y377292D01*
Y379292D01*
X239980Y380291D01*
X240980Y381291D01*
X241980D01*
X245978D02*
X247978D01*
X248977Y380291D01*
Y377292D01*
X245978D01*
X244979Y378292D01*
X245978Y379292D01*
X248977D01*
X250977Y377292D02*
Y381291D01*
X253976D01*
X254975Y380291D01*
Y377292D01*
X256975D02*
X259974D01*
X260974Y378292D01*
X259974Y379292D01*
X257975D01*
X256975Y380291D01*
X257975Y381291D01*
X260974D01*
X266971Y383290D02*
Y377292D01*
X263972D01*
X262973Y378292D01*
Y380291D01*
X263972Y381291D01*
X266971D01*
X268971D02*
Y378292D01*
X269971Y377292D01*
X272970D01*
Y381291D01*
X278968D02*
X275969D01*
X274969Y380291D01*
Y378292D01*
X275969Y377292D01*
X278968D01*
X283966D02*
X281967D01*
X280967Y378292D01*
Y380291D01*
X281967Y381291D01*
X283966D01*
X284966Y380291D01*
Y379292D01*
X280967D01*
X286965Y381291D02*
Y377292D01*
Y379292D01*
X287965Y380291D01*
X288964Y381291D01*
X289964D01*
X298961Y377292D02*
Y383290D01*
X300961Y381291D01*
X302960Y383290D01*
Y377292D01*
X305959D02*
X307958D01*
X308958Y378292D01*
Y380291D01*
X307958Y381291D01*
X305959D01*
X304959Y380291D01*
Y378292D01*
X305959Y377292D01*
X314956Y383290D02*
Y377292D01*
X311957D01*
X310957Y378292D01*
Y380291D01*
X311957Y381291D01*
X314956D01*
X316955D02*
Y378292D01*
X317955Y377292D01*
X320954D01*
Y381291D01*
X322953Y377292D02*
X324953D01*
X323953D01*
Y383290D01*
X322953D01*
X330951Y377292D02*
X328952D01*
X327952Y378292D01*
Y380291D01*
X328952Y381291D01*
X330951D01*
X331950Y380291D01*
Y379292D01*
X327952D01*
X333950Y377292D02*
Y378292D01*
X334950D01*
Y377292D01*
X333950D01*
X179000Y367695D02*
Y373693D01*
X180999Y371693D01*
X182999Y373693D01*
Y367695D01*
X185998Y371693D02*
X187997D01*
X188997Y370694D01*
Y367695D01*
X185998D01*
X184998Y368694D01*
X185998Y369694D01*
X188997D01*
X194995Y373693D02*
Y367695D01*
X191996D01*
X190996Y368694D01*
Y370694D01*
X191996Y371693D01*
X194995D01*
X199993Y367695D02*
X197994D01*
X196994Y368694D01*
Y370694D01*
X197994Y371693D01*
X199993D01*
X200993Y370694D01*
Y369694D01*
X196994D01*
X208990Y373693D02*
Y367695D01*
X211989D01*
X212989Y368694D01*
Y369694D01*
Y370694D01*
X211989Y371693D01*
X208990D01*
X214988D02*
Y368694D01*
X215988Y367695D01*
X218987D01*
Y366695D01*
X217987Y365695D01*
X216988D01*
X218987Y367695D02*
Y371693D01*
X220986D02*
X221986D01*
Y370694D01*
X220986D01*
Y371693D01*
Y368694D02*
X221986D01*
Y367695D01*
X220986D01*
Y368694D01*
X231983Y373693D02*
Y367695D01*
X234982D01*
X235982Y368694D01*
Y372693D01*
X234982Y373693D01*
X231983D01*
X238981Y371693D02*
X240980D01*
X241980Y370694D01*
Y367695D01*
X238981D01*
X237981Y368694D01*
X238981Y369694D01*
X241980D01*
X243979Y367695D02*
Y371693D01*
X246978D01*
X247978Y370694D01*
Y367695D01*
X249977D02*
X251976D01*
X250977D01*
Y371693D01*
X249977D01*
X257974Y367695D02*
X255975D01*
X254975Y368694D01*
Y370694D01*
X255975Y371693D01*
X257974D01*
X258974Y370694D01*
Y369694D01*
X254975D01*
X260974Y367695D02*
X262973D01*
X261973D01*
Y373693D01*
X260974D01*
X271970Y367695D02*
Y373693D01*
X275969Y367695D01*
Y373693D01*
X280967Y367695D02*
X278968D01*
X277968Y368694D01*
Y370694D01*
X278968Y371693D01*
X280967D01*
X281967Y370694D01*
Y369694D01*
X277968D01*
X284966Y371693D02*
X286965D01*
X287965Y370694D01*
Y367695D01*
X284966D01*
X283966Y368694D01*
X284966Y369694D01*
X287965D01*
X289964Y367695D02*
Y371693D01*
X290964D01*
X291964Y370694D01*
Y367695D01*
Y370694D01*
X292963Y371693D01*
X293963Y370694D01*
Y367695D01*
X296962Y371693D02*
X298961D01*
X299961Y370694D01*
Y367695D01*
X296962D01*
X295962Y368694D01*
X296962Y369694D01*
X299961D01*
X302960Y372693D02*
Y371693D01*
X301960D01*
X303960D01*
X302960D01*
Y368694D01*
X303960Y367695D01*
X306959D02*
X308958D01*
X307958D01*
Y371693D01*
X306959D01*
X180000Y360096D02*
X181999D01*
X182999Y359097D01*
Y356098D01*
X180000D01*
X179000Y357097D01*
X180000Y358097D01*
X182999D01*
X184998Y356098D02*
Y360096D01*
X187997D01*
X188997Y359097D01*
Y356098D01*
X194995Y362096D02*
Y356098D01*
X191996D01*
X190996Y357097D01*
Y359097D01*
X191996Y360096D01*
X194995D01*
X206991Y362096D02*
X204992D01*
X205991D01*
Y357097D01*
X204992Y356098D01*
X203992D01*
X202992Y357097D01*
X208990Y360096D02*
Y357097D01*
X209990Y356098D01*
X212989D01*
Y360096D01*
X214988Y356098D02*
X216988D01*
X215988D01*
Y362096D01*
X214988D01*
X219987Y356098D02*
X221986D01*
X220986D01*
Y360096D01*
X219987D01*
X225985D02*
X227984D01*
X228984Y359097D01*
Y356098D01*
X225985D01*
X224985Y357097D01*
X225985Y358097D01*
X228984D01*
X230983Y356098D02*
Y360096D01*
X233982D01*
X234982Y359097D01*
Y356098D01*
X246978Y361096D02*
X245978Y362096D01*
X243979D01*
X242979Y361096D01*
Y360096D01*
X243979Y359097D01*
X245978D01*
X246978Y358097D01*
Y357097D01*
X245978Y356098D01*
X243979D01*
X242979Y357097D01*
X249977Y360096D02*
X251976D01*
X252976Y359097D01*
Y356098D01*
X249977D01*
X248977Y357097D01*
X249977Y358097D01*
X252976D01*
X254975Y356098D02*
Y360096D01*
X257974D01*
X258974Y359097D01*
Y356098D01*
X264972Y362096D02*
Y356098D01*
X261973D01*
X260974Y357097D01*
Y359097D01*
X261973Y360096D01*
X264972D01*
X269971Y356098D02*
X267971D01*
X266971Y357097D01*
Y359097D01*
X267971Y360096D01*
X269971D01*
X270970Y359097D01*
Y358097D01*
X266971D01*
X272970Y360096D02*
Y356098D01*
Y358097D01*
X273969Y359097D01*
X274969Y360096D01*
X275969D01*
X278968Y356098D02*
X281967D01*
X282966Y357097D01*
X281967Y358097D01*
X279967D01*
X278968Y359097D01*
X279967Y360096D01*
X282966D01*
X181999Y346500D02*
Y352498D01*
X179000Y349499D01*
X182999D01*
X190996Y346500D02*
Y352498D01*
X192996Y350499D01*
X194995Y352498D01*
Y346500D01*
X197994Y350499D02*
X199993D01*
X200993Y349499D01*
Y346500D01*
X197994D01*
X196994Y347500D01*
X197994Y348499D01*
X200993D01*
X202992Y350499D02*
Y346500D01*
Y348499D01*
X203992Y349499D01*
X204992Y350499D01*
X205991D01*
X212989D02*
X209990D01*
X208990Y349499D01*
Y347500D01*
X209990Y346500D01*
X212989D01*
X214988Y352498D02*
Y346500D01*
Y349499D01*
X215988Y350499D01*
X217987D01*
X218987Y349499D01*
Y346500D01*
X230983D02*
X226985D01*
X230983Y350499D01*
Y351498D01*
X229983Y352498D01*
X227984D01*
X226985Y351498D01*
X232982D02*
X233982Y352498D01*
X235982D01*
X236981Y351498D01*
Y347500D01*
X235982Y346500D01*
X233982D01*
X232982Y347500D01*
Y351498D01*
X238981Y346500D02*
X240980D01*
X239980D01*
Y352498D01*
X238981Y351498D01*
X243979D02*
X244979Y352498D01*
X246978D01*
X247978Y351498D01*
Y350499D01*
X246978Y349499D01*
X247978Y348499D01*
Y347500D01*
X246978Y346500D01*
X244979D01*
X243979Y347500D01*
Y348499D01*
X244979Y349499D01*
X243979Y350499D01*
Y351498D01*
X244979Y349499D02*
X246978D01*
X669240Y301500D02*
Y307498D01*
X672239D01*
X673239Y306498D01*
Y304499D01*
X672239Y303499D01*
X669240D01*
X671240D02*
X673239Y301500D01*
X675238Y306498D02*
X676238Y307498D01*
X678237D01*
X679237Y306498D01*
Y305499D01*
X678237Y304499D01*
X679237Y303499D01*
Y302500D01*
X678237Y301500D01*
X676238D01*
X675238Y302500D01*
Y303499D01*
X676238Y304499D01*
X675238Y305499D01*
Y306498D01*
X676238Y304499D02*
X678237D01*
X673000Y317998D02*
Y312000D01*
X675999D01*
X676999Y313000D01*
Y316998D01*
X675999Y317998D01*
X673000D01*
X678998Y312000D02*
X680997D01*
X679998D01*
Y317998D01*
X678998Y316998D01*
X437600Y361698D02*
Y360698D01*
X439599Y358699D01*
X441599Y360698D01*
Y361698D01*
X439599Y358699D02*
Y355700D01*
X443598D02*
X445597D01*
X444598D01*
Y361698D01*
X443598Y360698D01*
X396500Y336998D02*
Y332000D01*
X397500Y331000D01*
X399499D01*
X400499Y332000D01*
Y336998D01*
X402498Y335998D02*
X403498Y336998D01*
X405497D01*
X406497Y335998D01*
Y334999D01*
X405497Y333999D01*
X404497D01*
X405497D01*
X406497Y332999D01*
Y332000D01*
X405497Y331000D01*
X403498D01*
X402498Y332000D01*
X166500Y327998D02*
Y323000D01*
X167500Y322000D01*
X169499D01*
X170499Y323000D01*
Y327998D01*
X176497Y322000D02*
X172498D01*
X176497Y325999D01*
Y326998D01*
X175497Y327998D01*
X173498D01*
X172498Y326998D01*
X607868Y380622D02*
Y375623D01*
X608867Y374624D01*
X610867D01*
X611866Y375623D01*
Y380622D01*
X613866Y374624D02*
X615865D01*
X614865D01*
Y380622D01*
X613866Y379622D01*
X476499Y385998D02*
X475499Y386998D01*
X473500D01*
X472500Y385998D01*
Y384999D01*
X473500Y383999D01*
X475499D01*
X476499Y382999D01*
Y382000D01*
X475499Y381000D01*
X473500D01*
X472500Y382000D01*
X478498Y386998D02*
Y381000D01*
X480497Y382999D01*
X482497Y381000D01*
Y386998D01*
X484496Y381000D02*
X486495D01*
X485496D01*
Y386998D01*
X484496Y385998D01*
X170500Y415000D02*
X164502D01*
Y417999D01*
X165502Y418999D01*
X167501D01*
X168501Y417999D01*
Y415000D01*
Y416999D02*
X170500Y418999D01*
X164502Y420998D02*
Y424997D01*
X165502D01*
X169500Y420998D01*
X170500D01*
X171500Y426996D02*
Y430995D01*
X170500Y432994D02*
X164502D01*
Y435993D01*
X165502Y436993D01*
X167501D01*
X168501Y435993D01*
Y432994D01*
X164502Y438992D02*
Y442991D01*
Y440992D01*
X170500D01*
X169500Y444990D02*
X170500Y445990D01*
Y447989D01*
X169500Y448989D01*
X165502D01*
X164502Y447989D01*
Y445990D01*
X165502Y444990D01*
X166501D01*
X167501Y445990D01*
Y448989D01*
X218500Y415000D02*
X212502D01*
Y417999D01*
X213502Y418999D01*
X215501D01*
X216501Y417999D01*
Y415000D01*
Y416999D02*
X218500Y418999D01*
X212502Y420998D02*
Y424997D01*
X213502D01*
X217500Y420998D01*
X218500D01*
X219500Y426996D02*
Y430995D01*
X218500Y432994D02*
X212502D01*
Y435993D01*
X213502Y436993D01*
X215501D01*
X216501Y435993D01*
Y432994D01*
X212502Y438992D02*
Y442991D01*
Y440992D01*
X218500D01*
X213502Y444990D02*
X212502Y445990D01*
Y447989D01*
X213502Y448989D01*
X214501D01*
X215501Y447989D01*
X216501Y448989D01*
X217500D01*
X218500Y447989D01*
Y445990D01*
X217500Y444990D01*
X216501D01*
X215501Y445990D01*
X214501Y444990D01*
X213502D01*
X215501Y445990D02*
Y447989D01*
X287760Y415000D02*
X281762D01*
Y417999D01*
X282762Y418999D01*
X284761D01*
X285760Y417999D01*
Y415000D01*
Y416999D02*
X287760Y418999D01*
X281762Y420998D02*
Y424997D01*
X282762D01*
X286760Y420998D01*
X287760D01*
X288759Y426996D02*
Y430995D01*
X287760Y432994D02*
X281762D01*
Y435993D01*
X282762Y436993D01*
X284761D01*
X285760Y435993D01*
Y432994D01*
X281762Y438992D02*
Y442991D01*
Y440992D01*
X287760D01*
X281762Y444990D02*
Y448989D01*
X282762D01*
X286760Y444990D01*
X287760D01*
X355500Y415000D02*
X349502D01*
Y417999D01*
X350502Y418999D01*
X352501D01*
X353501Y417999D01*
Y415000D01*
Y416999D02*
X355500Y418999D01*
X349502Y420998D02*
Y424997D01*
X350502D01*
X354500Y420998D01*
X355500D01*
X356500Y426996D02*
Y430995D01*
X355500Y432994D02*
X349502D01*
Y435993D01*
X350502Y436993D01*
X352501D01*
X353501Y435993D01*
Y432994D01*
X349502Y438992D02*
Y442991D01*
Y440992D01*
X355500D01*
X349502Y448989D02*
X350502Y446990D01*
X352501Y444990D01*
X354500D01*
X355500Y445990D01*
Y447989D01*
X354500Y448989D01*
X353501D01*
X352501Y447989D01*
Y444990D01*
X421760Y415000D02*
X415762D01*
Y417999D01*
X416761Y418999D01*
X418761D01*
X419761Y417999D01*
Y415000D01*
Y416999D02*
X421760Y418999D01*
X415762Y420998D02*
Y424997D01*
X416761D01*
X420760Y420998D01*
X421760D01*
X422759Y426996D02*
Y430995D01*
X421760Y432994D02*
X415762D01*
Y435993D01*
X416761Y436993D01*
X418761D01*
X419761Y435993D01*
Y432994D01*
X415762Y438992D02*
Y442991D01*
Y440992D01*
X421760D01*
X415762Y448989D02*
Y444990D01*
X418761D01*
X417761Y446990D01*
Y447989D01*
X418761Y448989D01*
X420760D01*
X421760Y447989D01*
Y445990D01*
X420760Y444990D01*
X486000Y415000D02*
X480002D01*
Y417999D01*
X481002Y418999D01*
X483001D01*
X484001Y417999D01*
Y415000D01*
Y416999D02*
X486000Y418999D01*
X480002Y420998D02*
Y424997D01*
X481002D01*
X485000Y420998D01*
X486000D01*
X487000Y426996D02*
Y430995D01*
X486000Y432994D02*
X480002D01*
Y435993D01*
X481002Y436993D01*
X483001D01*
X484001Y435993D01*
Y432994D01*
X480002Y438992D02*
Y442991D01*
Y440992D01*
X486000D01*
Y447989D02*
X480002D01*
X483001Y444990D01*
Y448989D01*
X550500Y415000D02*
X544502D01*
Y417999D01*
X545502Y418999D01*
X547501D01*
X548501Y417999D01*
Y415000D01*
Y416999D02*
X550500Y418999D01*
X544502Y420998D02*
Y424997D01*
X545502D01*
X549500Y420998D01*
X550500D01*
X551500Y426996D02*
Y430995D01*
X550500Y432994D02*
X544502D01*
Y435993D01*
X545502Y436993D01*
X547501D01*
X548501Y435993D01*
Y432994D01*
X544502Y438992D02*
Y442991D01*
Y440992D01*
X550500D01*
X545502Y444990D02*
X544502Y445990D01*
Y447989D01*
X545502Y448989D01*
X546501D01*
X547501Y447989D01*
Y446990D01*
Y447989D01*
X548501Y448989D01*
X549500D01*
X550500Y447989D01*
Y445990D01*
X549500Y444990D01*
X606000Y415500D02*
X600002D01*
Y418499D01*
X601002Y419499D01*
X603001D01*
X604001Y418499D01*
Y415500D01*
Y417499D02*
X606000Y419499D01*
X600002Y421498D02*
Y425497D01*
X601002D01*
X605000Y421498D01*
X606000D01*
X607000Y427496D02*
Y431495D01*
X606000Y433494D02*
X600002D01*
Y436493D01*
X601002Y437493D01*
X603001D01*
X604001Y436493D01*
Y433494D01*
X600002Y439492D02*
Y443491D01*
Y441492D01*
X606000D01*
Y449489D02*
Y445490D01*
X602001Y449489D01*
X601002D01*
X600002Y448489D01*
Y446490D01*
X601002Y445490D01*
X655000Y415500D02*
X649002D01*
Y418499D01*
X650002Y419499D01*
X652001D01*
X653001Y418499D01*
Y415500D01*
Y417499D02*
X655000Y419499D01*
X649002Y421498D02*
Y425497D01*
X650002D01*
X654000Y421498D01*
X655000D01*
X656000Y427496D02*
Y431495D01*
X655000Y433494D02*
X649002D01*
Y436493D01*
X650002Y437493D01*
X652001D01*
X653001Y436493D01*
Y433494D01*
X649002Y439492D02*
Y443491D01*
Y441492D01*
X655000D01*
Y445490D02*
Y447490D01*
Y446490D01*
X649002D01*
X650002Y445490D01*
X141000Y414740D02*
X135002D01*
Y417739D01*
X136002Y418739D01*
X138001D01*
X139001Y417739D01*
Y414740D01*
Y416740D02*
X141000Y418739D01*
X135002Y424737D02*
X136002Y422738D01*
X138001Y420738D01*
X140000D01*
X141000Y421738D01*
Y423737D01*
X140000Y424737D01*
X139001D01*
X138001Y423737D01*
Y420738D01*
X142000Y426736D02*
Y430735D01*
X141000Y432734D02*
X135002D01*
Y435733D01*
X136002Y436733D01*
X138001D01*
X139001Y435733D01*
Y432734D01*
X135002Y438732D02*
Y442731D01*
Y440732D01*
X141000D01*
X140000Y444731D02*
X141000Y445730D01*
Y447729D01*
X140000Y448729D01*
X136002D01*
X135002Y447729D01*
Y445730D01*
X136002Y444731D01*
X137001D01*
X138001Y445730D01*
Y448729D01*
X189000Y414740D02*
X183002D01*
Y417739D01*
X184002Y418739D01*
X186001D01*
X187001Y417739D01*
Y414740D01*
Y416740D02*
X189000Y418739D01*
X183002Y424737D02*
X184002Y422738D01*
X186001Y420738D01*
X188000D01*
X189000Y421738D01*
Y423737D01*
X188000Y424737D01*
X187001D01*
X186001Y423737D01*
Y420738D01*
X190000Y426736D02*
Y430735D01*
X189000Y432734D02*
X183002D01*
Y435733D01*
X184002Y436733D01*
X186001D01*
X187001Y435733D01*
Y432734D01*
X183002Y438732D02*
Y442731D01*
Y440732D01*
X189000D01*
X184002Y444731D02*
X183002Y445730D01*
Y447729D01*
X184002Y448729D01*
X185001D01*
X186001Y447729D01*
X187001Y448729D01*
X188000D01*
X189000Y447729D01*
Y445730D01*
X188000Y444731D01*
X187001D01*
X186001Y445730D01*
X185001Y444731D01*
X184002D01*
X186001Y445730D02*
Y447729D01*
X258260Y414740D02*
X252262D01*
Y417739D01*
X253261Y418739D01*
X255261D01*
X256260Y417739D01*
Y414740D01*
Y416740D02*
X258260Y418739D01*
X252262Y424737D02*
X253261Y422738D01*
X255261Y420738D01*
X257260D01*
X258260Y421738D01*
Y423737D01*
X257260Y424737D01*
X256260D01*
X255261Y423737D01*
Y420738D01*
X259260Y426736D02*
Y430735D01*
X258260Y432734D02*
X252262D01*
Y435733D01*
X253261Y436733D01*
X255261D01*
X256260Y435733D01*
Y432734D01*
X252262Y438732D02*
Y442731D01*
Y440732D01*
X258260D01*
X252262Y444731D02*
Y448729D01*
X253261D01*
X257260Y444731D01*
X258260D01*
X326000Y414740D02*
X320002D01*
Y417739D01*
X321002Y418739D01*
X323001D01*
X324001Y417739D01*
Y414740D01*
Y416740D02*
X326000Y418739D01*
X320002Y424737D02*
X321002Y422738D01*
X323001Y420738D01*
X325000D01*
X326000Y421738D01*
Y423737D01*
X325000Y424737D01*
X324001D01*
X323001Y423737D01*
Y420738D01*
X327000Y426736D02*
Y430735D01*
X326000Y432734D02*
X320002D01*
Y435733D01*
X321002Y436733D01*
X323001D01*
X324001Y435733D01*
Y432734D01*
X320002Y438732D02*
Y442731D01*
Y440732D01*
X326000D01*
X320002Y448729D02*
X321002Y446730D01*
X323001Y444731D01*
X325000D01*
X326000Y445730D01*
Y447729D01*
X325000Y448729D01*
X324001D01*
X323001Y447729D01*
Y444731D01*
X392260Y414740D02*
X386262D01*
Y417739D01*
X387262Y418739D01*
X389261D01*
X390261Y417739D01*
Y414740D01*
Y416740D02*
X392260Y418739D01*
X386262Y424737D02*
X387262Y422738D01*
X389261Y420738D01*
X391260D01*
X392260Y421738D01*
Y423737D01*
X391260Y424737D01*
X390261D01*
X389261Y423737D01*
Y420738D01*
X393260Y426736D02*
Y430735D01*
X392260Y432734D02*
X386262D01*
Y435733D01*
X387262Y436733D01*
X389261D01*
X390261Y435733D01*
Y432734D01*
X386262Y438732D02*
Y442731D01*
Y440732D01*
X392260D01*
X386262Y448729D02*
Y444730D01*
X389261D01*
X388261Y446730D01*
Y447729D01*
X389261Y448729D01*
X391260D01*
X392260Y447729D01*
Y445730D01*
X391260Y444730D01*
X456500Y414740D02*
X450502D01*
Y417739D01*
X451502Y418739D01*
X453501D01*
X454501Y417739D01*
Y414740D01*
Y416740D02*
X456500Y418739D01*
X450502Y424737D02*
X451502Y422738D01*
X453501Y420738D01*
X455500D01*
X456500Y421738D01*
Y423737D01*
X455500Y424737D01*
X454501D01*
X453501Y423737D01*
Y420738D01*
X457500Y426736D02*
Y430735D01*
X456500Y432734D02*
X450502D01*
Y435733D01*
X451502Y436733D01*
X453501D01*
X454501Y435733D01*
Y432734D01*
X450502Y438732D02*
Y442731D01*
Y440732D01*
X456500D01*
Y447729D02*
X450502D01*
X453501Y444730D01*
Y448729D01*
X521000Y414740D02*
X515002D01*
Y417739D01*
X516002Y418739D01*
X518001D01*
X519001Y417739D01*
Y414740D01*
Y416740D02*
X521000Y418739D01*
X515002Y424737D02*
X516002Y422738D01*
X518001Y420738D01*
X520000D01*
X521000Y421738D01*
Y423737D01*
X520000Y424737D01*
X519001D01*
X518001Y423737D01*
Y420738D01*
X522000Y426736D02*
Y430735D01*
X521000Y432734D02*
X515002D01*
Y435733D01*
X516002Y436733D01*
X518001D01*
X519001Y435733D01*
Y432734D01*
X515002Y438732D02*
Y442731D01*
Y440732D01*
X521000D01*
X516002Y444730D02*
X515002Y445730D01*
Y447729D01*
X516002Y448729D01*
X517001D01*
X518001Y447729D01*
Y446730D01*
Y447729D01*
X519001Y448729D01*
X520000D01*
X521000Y447729D01*
Y445730D01*
X520000Y444730D01*
X576500Y415240D02*
X570502D01*
Y418239D01*
X571502Y419239D01*
X573501D01*
X574501Y418239D01*
Y415240D01*
Y417240D02*
X576500Y419239D01*
X570502Y425237D02*
X571502Y423238D01*
X573501Y421238D01*
X575500D01*
X576500Y422238D01*
Y424237D01*
X575500Y425237D01*
X574501D01*
X573501Y424237D01*
Y421238D01*
X577500Y427236D02*
Y431235D01*
X576500Y433234D02*
X570502D01*
Y436233D01*
X571502Y437233D01*
X573501D01*
X574501Y436233D01*
Y433234D01*
X570502Y439232D02*
Y443231D01*
Y441232D01*
X576500D01*
Y449229D02*
Y445230D01*
X572501Y449229D01*
X571502D01*
X570502Y448230D01*
Y446230D01*
X571502Y445230D01*
X625500Y415240D02*
X619502D01*
Y418239D01*
X620502Y419239D01*
X622501D01*
X623501Y418239D01*
Y415240D01*
Y417240D02*
X625500Y419239D01*
X619502Y425237D02*
X620502Y423238D01*
X622501Y421238D01*
X624500D01*
X625500Y422238D01*
Y424237D01*
X624500Y425237D01*
X623501D01*
X622501Y424237D01*
Y421238D01*
X626500Y427236D02*
Y431235D01*
X625500Y433234D02*
X619502D01*
Y436233D01*
X620502Y437233D01*
X622501D01*
X623501Y436233D01*
Y433234D01*
X619502Y439232D02*
Y443231D01*
Y441232D01*
X625500D01*
Y445230D02*
Y447230D01*
Y446230D01*
X619502D01*
X620502Y445230D01*
X438500Y379000D02*
Y384998D01*
X441499D01*
X442499Y383998D01*
Y381999D01*
X441499Y380999D01*
X438500D01*
X440499D02*
X442499Y379000D01*
X448497Y384998D02*
X444498D01*
Y381999D01*
X446497Y382999D01*
X447497D01*
X448497Y381999D01*
Y380000D01*
X447497Y379000D01*
X445498D01*
X444498Y380000D01*
X485500Y318000D02*
X491498D01*
Y315001D01*
X490498Y314001D01*
X488499D01*
X487499Y315001D01*
Y318000D01*
Y316001D02*
X485500Y314001D01*
Y309003D02*
X491498D01*
X488499Y312002D01*
Y308003D01*
X159000Y335000D02*
X153002D01*
Y337999D01*
X154002Y338999D01*
X156001D01*
X157001Y337999D01*
Y335000D01*
Y336999D02*
X159000Y338999D01*
X154002Y340998D02*
X153002Y341998D01*
Y343997D01*
X154002Y344997D01*
X155001D01*
X156001Y343997D01*
Y342997D01*
Y343997D01*
X157001Y344997D01*
X158000D01*
X159000Y343997D01*
Y341998D01*
X158000Y340998D01*
X643000Y353500D02*
Y359498D01*
X645999D01*
X646999Y358498D01*
Y356499D01*
X645999Y355499D01*
X643000D01*
X644999D02*
X646999Y353500D01*
X652997D02*
X648998D01*
X652997Y357499D01*
Y358498D01*
X651997Y359498D01*
X649998D01*
X648998Y358498D01*
X651000Y330000D02*
Y335998D01*
X653999D01*
X654999Y334998D01*
Y332999D01*
X653999Y331999D01*
X651000D01*
X652999D02*
X654999Y330000D01*
X656998D02*
X658997D01*
X657998D01*
Y335998D01*
X656998Y334998D01*
X168499Y483000D02*
Y477002D01*
X165500D01*
X164501Y478002D01*
Y480001D01*
X165500Y481001D01*
X168499D01*
X158503Y477002D02*
X160502Y478002D01*
X162501Y480001D01*
Y482000D01*
X161502Y483000D01*
X159502D01*
X158503Y482000D01*
Y481001D01*
X159502Y480001D01*
X162501D01*
X156503Y484000D02*
X152505D01*
X150505Y483000D02*
Y477002D01*
X147506D01*
X146507Y478002D01*
Y480001D01*
X147506Y481001D01*
X150505D01*
X144507Y477002D02*
X140508D01*
X142508D01*
Y483000D01*
X138509Y482000D02*
X137509Y483000D01*
X135510D01*
X134510Y482000D01*
Y478002D01*
X135510Y477002D01*
X137509D01*
X138509Y478002D01*
Y479001D01*
X137509Y480001D01*
X134510D01*
X216499Y483000D02*
Y477002D01*
X213500D01*
X212501Y478002D01*
Y480001D01*
X213500Y481001D01*
X216499D01*
X206503Y477002D02*
X208502Y478002D01*
X210501Y480001D01*
Y482000D01*
X209502Y483000D01*
X207502D01*
X206503Y482000D01*
Y481001D01*
X207502Y480001D01*
X210501D01*
X204503Y484000D02*
X200504D01*
X198505Y483000D02*
Y477002D01*
X195506D01*
X194507Y478002D01*
Y480001D01*
X195506Y481001D01*
X198505D01*
X192507Y477002D02*
X188508D01*
X190508D01*
Y483000D01*
X186509Y478002D02*
X185509Y477002D01*
X183510D01*
X182510Y478002D01*
Y479001D01*
X183510Y480001D01*
X182510Y481001D01*
Y482000D01*
X183510Y483000D01*
X185509D01*
X186509Y482000D01*
Y481001D01*
X185509Y480001D01*
X186509Y479001D01*
Y478002D01*
X185509Y480001D02*
X183510D01*
X285759Y483000D02*
Y477002D01*
X282760D01*
X281761Y478002D01*
Y480001D01*
X282760Y481001D01*
X285759D01*
X275762Y477002D02*
X277762Y478002D01*
X279761Y480001D01*
Y482000D01*
X278762Y483000D01*
X276762D01*
X275762Y482000D01*
Y481001D01*
X276762Y480001D01*
X279761D01*
X273763Y484000D02*
X269764D01*
X267765Y483000D02*
Y477002D01*
X264766D01*
X263766Y478002D01*
Y480001D01*
X264766Y481001D01*
X267765D01*
X261767Y477002D02*
X257768D01*
X259768D01*
Y483000D01*
X255769Y477002D02*
X251770D01*
Y478002D01*
X255769Y482000D01*
Y483000D01*
X353499D02*
Y477002D01*
X350500D01*
X349501Y478002D01*
Y480001D01*
X350500Y481001D01*
X353499D01*
X343503Y477002D02*
X345502Y478002D01*
X347501Y480001D01*
Y482000D01*
X346502Y483000D01*
X344502D01*
X343503Y482000D01*
Y481001D01*
X344502Y480001D01*
X347501D01*
X341503Y484000D02*
X337505D01*
X335505Y483000D02*
Y477002D01*
X332506D01*
X331506Y478002D01*
Y480001D01*
X332506Y481001D01*
X335505D01*
X329507Y477002D02*
X325508D01*
X327508D01*
Y483000D01*
X319510Y477002D02*
X321510Y478002D01*
X323509Y480001D01*
Y482000D01*
X322509Y483000D01*
X320510D01*
X319510Y482000D01*
Y481001D01*
X320510Y480001D01*
X323509D01*
X419759Y483000D02*
Y477002D01*
X416760D01*
X415761Y478002D01*
Y480001D01*
X416760Y481001D01*
X419759D01*
X409762Y477002D02*
X411762Y478002D01*
X413761Y480001D01*
Y482000D01*
X412761Y483000D01*
X410762D01*
X409762Y482000D01*
Y481001D01*
X410762Y480001D01*
X413761D01*
X407763Y484000D02*
X403764D01*
X401765Y483000D02*
Y477002D01*
X398766D01*
X397766Y478002D01*
Y480001D01*
X398766Y481001D01*
X401765D01*
X395767Y477002D02*
X391768D01*
X393768D01*
Y483000D01*
X385770Y477002D02*
X389769D01*
Y480001D01*
X387770Y479001D01*
X386770D01*
X385770Y480001D01*
Y482000D01*
X386770Y483000D01*
X388769D01*
X389769Y482000D01*
X483999Y483000D02*
Y477002D01*
X481000D01*
X480001Y478002D01*
Y480001D01*
X481000Y481001D01*
X483999D01*
X474003Y477002D02*
X476002Y478002D01*
X478001Y480001D01*
Y482000D01*
X477002Y483000D01*
X475002D01*
X474003Y482000D01*
Y481001D01*
X475002Y480001D01*
X478001D01*
X472003Y484000D02*
X468005D01*
X466005Y483000D02*
Y477002D01*
X463006D01*
X462007Y478002D01*
Y480001D01*
X463006Y481001D01*
X466005D01*
X460007Y477002D02*
X456008D01*
X458008D01*
Y483000D01*
X451010D02*
Y477002D01*
X454009Y480001D01*
X450010D01*
X548499Y483000D02*
Y477002D01*
X545500D01*
X544501Y478002D01*
Y480001D01*
X545500Y481001D01*
X548499D01*
X538503Y477002D02*
X540502Y478002D01*
X542501Y480001D01*
Y482000D01*
X541502Y483000D01*
X539502D01*
X538503Y482000D01*
Y481001D01*
X539502Y480001D01*
X542501D01*
X536503Y484000D02*
X532505D01*
X530505Y483000D02*
Y477002D01*
X527506D01*
X526507Y478002D01*
Y480001D01*
X527506Y481001D01*
X530505D01*
X524507Y477002D02*
X520508D01*
X522508D01*
Y483000D01*
X518509Y478002D02*
X517509Y477002D01*
X515510D01*
X514510Y478002D01*
Y479001D01*
X515510Y480001D01*
X516510D01*
X515510D01*
X514510Y481001D01*
Y482000D01*
X515510Y483000D01*
X517509D01*
X518509Y482000D01*
X603999Y483500D02*
Y477502D01*
X601000D01*
X600001Y478502D01*
Y480501D01*
X601000Y481501D01*
X603999D01*
X594003Y477502D02*
X596002Y478502D01*
X598001Y480501D01*
Y482500D01*
X597002Y483500D01*
X595002D01*
X594003Y482500D01*
Y481501D01*
X595002Y480501D01*
X598001D01*
X592003Y484500D02*
X588004D01*
X586005Y483500D02*
Y477502D01*
X583006D01*
X582007Y478502D01*
Y480501D01*
X583006Y481501D01*
X586005D01*
X580007Y477502D02*
X576008D01*
X578008D01*
Y483500D01*
X570010D02*
X574009D01*
X570010Y479501D01*
Y478502D01*
X571010Y477502D01*
X573009D01*
X574009Y478502D01*
X651000Y483500D02*
Y477502D01*
X648001D01*
X647001Y478502D01*
Y480501D01*
X648001Y481501D01*
X651000D01*
X641003Y477502D02*
X643003Y478502D01*
X645002Y480501D01*
Y482500D01*
X644002Y483500D01*
X642003D01*
X641003Y482500D01*
Y481501D01*
X642003Y480501D01*
X645002D01*
X639004Y484500D02*
X635005D01*
X633006Y483500D02*
Y477502D01*
X630007D01*
X629007Y478502D01*
Y480501D01*
X630007Y481501D01*
X633006D01*
X627008Y477502D02*
X623009D01*
X625008D01*
Y483500D01*
X621010D02*
X619010D01*
X620010D01*
Y477502D01*
X621010Y478502D01*
X486500Y286500D02*
Y292498D01*
X489499D01*
X490499Y291498D01*
Y289499D01*
X489499Y288499D01*
X486500D01*
X496497Y292498D02*
X492498D01*
Y289499D01*
X494497Y290499D01*
X495497D01*
X496497Y289499D01*
Y287500D01*
X495497Y286500D01*
X493498D01*
X492498Y287500D01*
X118000Y389500D02*
X123998D01*
Y386501D01*
X122998Y385501D01*
X120999D01*
X119999Y386501D01*
Y389500D01*
X118000Y380503D02*
X123998D01*
X120999Y383502D01*
Y379503D01*
X118000Y346000D02*
X123998D01*
Y343001D01*
X122998Y342001D01*
X120999D01*
X119999Y343001D01*
Y346000D01*
X122998Y340002D02*
X123998Y339002D01*
Y337003D01*
X122998Y336003D01*
X121999D01*
X120999Y337003D01*
Y338003D01*
Y337003D01*
X119999Y336003D01*
X119000D01*
X118000Y337003D01*
Y339002D01*
X119000Y340002D01*
X681768Y384000D02*
Y389998D01*
X684767D01*
X685766Y388998D01*
Y386999D01*
X684767Y385999D01*
X681768D01*
X691764Y384000D02*
X687766D01*
X691764Y387999D01*
Y388998D01*
X690765Y389998D01*
X688765D01*
X687766Y388998D01*
X685268Y331000D02*
Y336998D01*
X688267D01*
X689266Y335998D01*
Y333999D01*
X688267Y332999D01*
X685268D01*
X691266Y331000D02*
X693265D01*
X692266D01*
Y336998D01*
X691266Y335998D01*
X647499Y395998D02*
X643500D01*
Y392999D01*
X645499D01*
X643500D01*
Y390000D01*
X649498Y395998D02*
Y390000D01*
X652497D01*
X653497Y391000D01*
Y391999D01*
X652497Y392999D01*
X649498D01*
X652497D01*
X653497Y393999D01*
Y394998D01*
X652497Y395998D01*
X649498D01*
X659495Y390000D02*
X655496D01*
X659495Y393999D01*
Y394998D01*
X658495Y395998D01*
X656496D01*
X655496Y394998D01*
X626499Y334998D02*
X622500D01*
Y331999D01*
X624499D01*
X622500D01*
Y329000D01*
X628498Y334998D02*
Y329000D01*
X631497D01*
X632497Y330000D01*
Y330999D01*
X631497Y331999D01*
X628498D01*
X631497D01*
X632497Y332999D01*
Y333998D01*
X631497Y334998D01*
X628498D01*
X634496Y329000D02*
X636495D01*
X635496D01*
Y334998D01*
X634496Y333998D01*
X393999Y269498D02*
X392999Y270498D01*
X391000D01*
X390000Y269498D01*
Y265500D01*
X391000Y264500D01*
X392999D01*
X393999Y265500D01*
X395998Y264500D02*
X397997D01*
X396998D01*
Y270498D01*
X395998Y269498D01*
X400996Y264500D02*
X402996D01*
X401996D01*
Y270498D01*
X400996Y269498D01*
X426498Y361001D02*
X427498Y362001D01*
Y364000D01*
X426498Y365000D01*
X422500D01*
X421500Y364000D01*
Y362001D01*
X422500Y361001D01*
X427498Y355003D02*
Y359002D01*
X424499D01*
X425499Y357003D01*
Y356003D01*
X424499Y355003D01*
X422500D01*
X421500Y356003D01*
Y358002D01*
X422500Y359002D01*
X409498Y361001D02*
X410498Y362001D01*
Y364000D01*
X409498Y365000D01*
X405500D01*
X404500Y364000D01*
Y362001D01*
X405500Y361001D01*
X404500Y356003D02*
X410498D01*
X407499Y359002D01*
Y355003D01*
X130499Y302998D02*
X129499Y303998D01*
X127500D01*
X126500Y302998D01*
Y299000D01*
X127500Y298000D01*
X129499D01*
X130499Y299000D01*
X132498Y302998D02*
X133498Y303998D01*
X135497D01*
X136497Y302998D01*
Y301999D01*
X135497Y300999D01*
X134497D01*
X135497D01*
X136497Y299999D01*
Y299000D01*
X135497Y298000D01*
X133498D01*
X132498Y299000D01*
X653499Y378498D02*
X652499Y379498D01*
X650500D01*
X649500Y378498D01*
Y374500D01*
X650500Y373500D01*
X652499D01*
X653499Y374500D01*
X659497Y373500D02*
X655498D01*
X659497Y377499D01*
Y378498D01*
X658497Y379498D01*
X656498D01*
X655498Y378498D01*
X666999Y334498D02*
X665999Y335498D01*
X664000D01*
X663000Y334498D01*
Y330500D01*
X664000Y329500D01*
X665999D01*
X666999Y330500D01*
X668998Y329500D02*
X670997D01*
X669998D01*
Y335498D01*
X668998Y334498D01*
D31*
X645992Y344512D02*
G03*
X645992Y344512I-492J0D01*
G01*
X462870Y331768D02*
G03*
X462870Y331768I-492J0D01*
G01*
D32*
X457850Y322713D02*
G03*
X457850Y322713I-1181J0D01*
G01*
D33*
X153094Y312606D02*
G03*
X153094Y312606I-300J0D01*
G01*
D34*
X651000Y318543D02*
X652850D01*
X652063Y317756D02*
Y319331D01*
X667811Y318543D02*
X668992D01*
X659937Y313425D02*
X661512Y315000D01*
X659937Y313425D02*
Y316575D01*
X661512Y315000D01*
Y313425D02*
Y316575D01*
X651000Y310500D02*
X670000D01*
X651000Y319500D02*
X670000Y319500D01*
X651000Y310500D02*
Y319500D01*
X670000Y310500D02*
X670000Y319500D01*
D35*
X659543Y305862D02*
X659937D01*
X659543Y301138D02*
X659937D01*
X474000Y293500D02*
X484000D01*
Y253500D02*
Y293500D01*
X474000Y253500D02*
Y293500D01*
Y253500D02*
X484000D01*
X145961Y297803D02*
Y298197D01*
X141039Y297803D02*
Y298197D01*
X398461Y278803D02*
Y279197D01*
X393539Y278803D02*
Y279197D01*
X451638Y378303D02*
Y378697D01*
X456362Y378303D02*
Y378697D01*
X416539Y346346D02*
Y346740D01*
X421461Y346346D02*
Y346740D01*
X408039Y346303D02*
Y346697D01*
X412961Y346303D02*
Y346697D01*
X477303Y311638D02*
X477697D01*
X477303Y316362D02*
X477697D01*
X663039Y369803D02*
Y370197D01*
X667961Y369803D02*
Y370197D01*
X663539Y344303D02*
Y344697D01*
X668461Y344303D02*
Y344697D01*
X663138Y389803D02*
Y390197D01*
X667862Y389803D02*
Y390197D01*
X640638Y334803D02*
Y335197D01*
X645362Y334803D02*
Y335197D01*
X692768Y381500D02*
X694768D01*
Y377500D02*
Y381500D01*
Y361500D02*
Y377500D01*
X670768Y381500D02*
X693768D01*
X674768Y361500D02*
Y381500D01*
X670768Y361500D02*
Y381500D01*
Y361500D02*
X694768D01*
X692768Y359500D02*
X694768D01*
Y355500D02*
Y359500D01*
Y339500D02*
Y355500D01*
X670768Y359500D02*
X693768D01*
X674768Y339500D02*
Y359500D01*
X670768Y339500D02*
Y359500D01*
Y339500D02*
X694768D01*
X662303Y354138D02*
X662697D01*
X662303Y358862D02*
X662697D01*
X658362Y344303D02*
Y344697D01*
X653638Y344303D02*
Y344697D01*
X150862Y439543D02*
Y439937D01*
X146138Y439543D02*
Y439937D01*
X160862Y439543D02*
Y439937D01*
X156138Y439543D02*
Y439937D01*
X198862Y439543D02*
Y439937D01*
X194138Y439543D02*
Y439937D01*
X208862Y439543D02*
Y439937D01*
X204138Y439543D02*
Y439937D01*
X268122Y439543D02*
Y439937D01*
X263398Y439543D02*
Y439937D01*
X278122Y439543D02*
Y439937D01*
X273398Y439543D02*
Y439937D01*
X335862Y439543D02*
Y439937D01*
X331138Y439543D02*
Y439937D01*
X345862Y439543D02*
Y439937D01*
X341138Y439543D02*
Y439937D01*
X402122Y439543D02*
Y439937D01*
X397398Y439543D02*
Y439937D01*
X412122Y439543D02*
Y439937D01*
X407398Y439543D02*
Y439937D01*
X466362Y439543D02*
Y439937D01*
X461638Y439543D02*
Y439937D01*
X476362Y439543D02*
Y439937D01*
X471638Y439543D02*
Y439937D01*
X530862Y439543D02*
Y439937D01*
X526138Y439543D02*
Y439937D01*
X540862Y439543D02*
Y439937D01*
X536138Y439543D02*
Y439937D01*
X586362Y440043D02*
Y440437D01*
X581638Y440043D02*
Y440437D01*
X596362Y440043D02*
Y440437D01*
X591638Y440043D02*
Y440437D01*
X645362Y440043D02*
Y440437D01*
X640638Y440043D02*
Y440437D01*
X635362Y440043D02*
Y440437D01*
X630638Y440043D02*
Y440437D01*
X636642Y344531D02*
Y370516D01*
X635067D02*
X636642D01*
X635067Y344531D02*
X636642D01*
X411394Y277437D02*
Y326650D01*
X460606Y277437D02*
Y326650D01*
X411394Y277437D02*
X460606D01*
X411394Y326650D02*
X460606D01*
X621000Y474240D02*
X658000D01*
Y451240D02*
Y474240D01*
X618000Y451240D02*
X658000D01*
X618000Y455240D02*
X658000D01*
X618000Y451240D02*
Y474240D01*
X621000D01*
X572000D02*
X609000D01*
Y451240D02*
Y474240D01*
X569000Y451240D02*
X609000D01*
X569000Y455240D02*
X609000D01*
X569000Y451240D02*
Y474240D01*
X572000D01*
X516500Y473740D02*
X553500D01*
Y450740D02*
Y473740D01*
X513500Y450740D02*
X553500D01*
X513500Y454740D02*
X553500D01*
X513500Y450740D02*
Y473740D01*
X516500D01*
X452000D02*
X489000D01*
Y450740D02*
Y473740D01*
X449000Y450740D02*
X489000D01*
X449000Y454740D02*
X489000D01*
X449000Y450740D02*
Y473740D01*
X452000D01*
X387760D02*
X424760D01*
Y450740D02*
Y473740D01*
X384760Y450740D02*
X424760D01*
X384760Y454740D02*
X424760D01*
X384760Y450740D02*
Y473740D01*
X387760D01*
X321500D02*
X358500D01*
Y450740D02*
Y473740D01*
X318500Y450740D02*
X358500D01*
X318500Y454740D02*
X358500D01*
X318500Y450740D02*
Y473740D01*
X321500D01*
X253760D02*
X290760D01*
Y450740D02*
Y473740D01*
X250760Y450740D02*
X290760D01*
X250760Y454740D02*
X290760D01*
X250760Y450740D02*
Y473740D01*
X253760D01*
X184500D02*
X221500D01*
Y450740D02*
Y473740D01*
X181500Y450740D02*
X221500D01*
X181500Y454740D02*
X221500D01*
X181500Y450740D02*
Y473740D01*
X184500D01*
X136500Y473740D02*
X173500D01*
Y450740D02*
Y473740D01*
X133500Y450740D02*
X173500D01*
X133500Y454740D02*
X173500D01*
X133500Y450740D02*
Y473740D01*
X136500D01*
X153638Y353803D02*
Y354197D01*
X158362Y353803D02*
Y354197D01*
X126500Y311000D02*
Y348000D01*
X149500D01*
Y308000D02*
Y348000D01*
X145500Y308000D02*
Y348000D01*
X126500Y308000D02*
X149500D01*
X126500D02*
Y311000D01*
Y356000D02*
Y393000D01*
X149500D01*
Y353000D02*
Y393000D01*
X145500Y353000D02*
Y393000D01*
X126500Y353000D02*
X149500D01*
X126500D02*
Y356000D01*
D36*
X436913Y344563D02*
Y352437D01*
Y344563D02*
X451087D01*
Y352437D01*
X436913D02*
X451087D01*
D37*
X164669Y314772D02*
Y320677D01*
X153252Y314772D02*
Y320677D01*
D38*
X216500Y281200D02*
X341000D01*
X216500Y281300D02*
X341000D01*
X216500Y281400D02*
X341000D01*
X216500Y281500D02*
X341000D01*
X216500Y281600D02*
X341000D01*
X216500Y281700D02*
X341000D01*
X216500Y281800D02*
X341000D01*
X216500Y281900D02*
X341000D01*
X216500Y282000D02*
X341000D01*
X216500Y282100D02*
X341000D01*
X216500Y282200D02*
X341000D01*
X216500Y282300D02*
X341000D01*
X216500Y282400D02*
X341000D01*
X216500Y282500D02*
X341000D01*
X216500Y282600D02*
X341000D01*
X216500Y282700D02*
X341000D01*
X216500Y282800D02*
X341000D01*
X334400Y282900D02*
X341000D01*
X316600D02*
X322600D01*
X294200D02*
X300800D01*
X279400D02*
X282200D01*
X265200D02*
X274600D01*
X260600D02*
X261800D01*
X243800D02*
X256800D01*
X226600D02*
X240000D01*
X216500D02*
X223400D01*
X334400Y283000D02*
X341000D01*
X316600D02*
X322600D01*
X294200D02*
X300800D01*
X279400D02*
X282200D01*
X265200D02*
X274600D01*
X260600D02*
X261800D01*
X243800D02*
X256800D01*
X226600D02*
X240000D01*
X216500D02*
X223400D01*
X335200Y283100D02*
X341000D01*
X316600D02*
X321800D01*
X295200D02*
X300800D01*
X279200D02*
X282200D01*
X265200D02*
X274400D01*
X260600D02*
X261800D01*
X244000D02*
X256600D01*
X226600D02*
X240000D01*
X216500D02*
X223400D01*
X335200Y283200D02*
X341000D01*
X316600D02*
X321800D01*
X295200D02*
X300800D01*
X279200D02*
X282200D01*
X265200D02*
X274400D01*
X260600D02*
X261800D01*
X244000D02*
X256600D01*
X226600D02*
X240000D01*
X216500D02*
X223400D01*
X335600Y283300D02*
X341000D01*
X316600D02*
X321400D01*
X296000D02*
X300800D01*
X279000D02*
X282200D01*
X265200D02*
X274200D01*
X260400D02*
X261800D01*
X244000D02*
X256600D01*
X226600D02*
X240200D01*
X216500D02*
X223400D01*
X335600Y283400D02*
X341000D01*
X316600D02*
X321400D01*
X296000D02*
X300800D01*
X279000D02*
X282200D01*
X265200D02*
X274200D01*
X260400D02*
X261800D01*
X244000D02*
X256600D01*
X226600D02*
X240200D01*
X216500D02*
X223400D01*
X336000Y283500D02*
X341000D01*
X316600D02*
X321000D01*
X296400D02*
X300800D01*
X278800D02*
X282200D01*
X265200D02*
X274000D01*
X260400D02*
X261800D01*
X244200D02*
X256400D01*
X226600D02*
X240400D01*
X216500D02*
X223400D01*
X336000Y283600D02*
X341000D01*
X316600D02*
X321000D01*
X296400D02*
X300800D01*
X278800D02*
X282200D01*
X265200D02*
X274000D01*
X260400D02*
X261800D01*
X244200D02*
X256400D01*
X226600D02*
X240400D01*
X216500D02*
X223400D01*
X336200Y283700D02*
X341000D01*
X316600D02*
X320800D01*
X296800D02*
X300800D01*
X278600D02*
X282200D01*
X265200D02*
X274000D01*
X260200D02*
X261800D01*
X244200D02*
X256400D01*
X226600D02*
X240400D01*
X216500D02*
X223400D01*
X336200Y283800D02*
X341000D01*
X316600D02*
X320800D01*
X296800D02*
X300800D01*
X278600D02*
X282200D01*
X265200D02*
X274000D01*
X260200D02*
X261800D01*
X244200D02*
X256400D01*
X226600D02*
X240400D01*
X216500D02*
X223400D01*
X336600Y283900D02*
X341000D01*
X316600D02*
X320400D01*
X297200D02*
X300800D01*
X278400D02*
X282200D01*
X265200D02*
X273800D01*
X260200D02*
X261800D01*
X244400D02*
X256200D01*
X226600D02*
X240600D01*
X216500D02*
X223400D01*
X336600Y284000D02*
X341000D01*
X316600D02*
X320400D01*
X297200D02*
X300800D01*
X278400D02*
X282200D01*
X265200D02*
X273800D01*
X260200D02*
X261800D01*
X244400D02*
X256200D01*
X226600D02*
X240600D01*
X216500D02*
X223400D01*
X336800Y284100D02*
X341000D01*
X316600D02*
X320200D01*
X297400D02*
X300800D01*
X278200D02*
X282200D01*
X265200D02*
X273600D01*
X260000D02*
X261800D01*
X244400D02*
X256200D01*
X226600D02*
X240600D01*
X216500D02*
X223400D01*
X336800Y284200D02*
X341000D01*
X316600D02*
X320200D01*
X297400D02*
X300800D01*
X278200D02*
X282200D01*
X265200D02*
X273600D01*
X260000D02*
X261800D01*
X244400D02*
X256200D01*
X226600D02*
X240600D01*
X216500D02*
X223400D01*
X336800Y284300D02*
X341000D01*
X316600D02*
X320000D01*
X297600D02*
X300800D01*
X278000D02*
X282200D01*
X265200D02*
X273400D01*
X259800D02*
X261800D01*
X244600D02*
X256000D01*
X226600D02*
X240800D01*
X216500D02*
X223400D01*
X336800Y284400D02*
X341000D01*
X316600D02*
X320000D01*
X297600D02*
X300800D01*
X278000D02*
X282200D01*
X265200D02*
X273400D01*
X259800D02*
X261800D01*
X244600D02*
X256000D01*
X226600D02*
X240800D01*
X216500D02*
X223400D01*
X337000Y284500D02*
X341000D01*
X316600D02*
X319800D01*
X297800D02*
X300800D01*
X277800D02*
X282200D01*
X265200D02*
X273200D01*
X259800D02*
X261800D01*
X244600D02*
X256000D01*
X226600D02*
X240800D01*
X216500D02*
X223400D01*
X337000Y284600D02*
X341000D01*
X316600D02*
X319800D01*
X297800D02*
X300800D01*
X277800D02*
X282200D01*
X265200D02*
X273200D01*
X259800D02*
X261800D01*
X244600D02*
X256000D01*
X226600D02*
X240800D01*
X216500D02*
X223400D01*
X337200Y284700D02*
X341000D01*
X316600D02*
X319600D01*
X298000D02*
X300800D01*
X277600D02*
X282200D01*
X265200D02*
X273000D01*
X259600D02*
X261800D01*
X244800D02*
X255800D01*
X226600D02*
X241000D01*
X216500D02*
X223400D01*
X337200Y284800D02*
X341000D01*
X316600D02*
X319600D01*
X298000D02*
X300800D01*
X277600D02*
X282200D01*
X265200D02*
X273000D01*
X259600D02*
X261800D01*
X244800D02*
X255800D01*
X226600D02*
X241000D01*
X216500D02*
X223400D01*
X337200Y284900D02*
X341000D01*
X316600D02*
X319600D01*
X298200D02*
X300800D01*
X277400D02*
X282200D01*
X265200D02*
X272800D01*
X259600D02*
X261800D01*
X244800D02*
X255800D01*
X226600D02*
X241000D01*
X216500D02*
X223400D01*
X337200Y285000D02*
X341000D01*
X316600D02*
X319600D01*
X298200D02*
X300800D01*
X277400D02*
X282200D01*
X265200D02*
X272800D01*
X259600D02*
X261800D01*
X244800D02*
X255800D01*
X226600D02*
X241000D01*
X216500D02*
X223400D01*
X337200Y285100D02*
X341000D01*
X316600D02*
X319400D01*
X298200D02*
X300800D01*
X277200D02*
X282200D01*
X265200D02*
X272600D01*
X259400D02*
X261800D01*
X245000D02*
X255600D01*
X226600D02*
X241200D01*
X216500D02*
X223400D01*
X337200Y285200D02*
X341000D01*
X316600D02*
X319400D01*
X298200D02*
X300800D01*
X277200D02*
X282200D01*
X265200D02*
X272600D01*
X259400D02*
X261800D01*
X245000D02*
X255600D01*
X226600D02*
X241200D01*
X216500D02*
X223400D01*
X337400Y285300D02*
X341000D01*
X316600D02*
X319200D01*
X298400D02*
X300800D01*
X277000D02*
X282200D01*
X265200D02*
X272400D01*
X259400D02*
X261800D01*
X245000D02*
X255600D01*
X226600D02*
X241200D01*
X216500D02*
X223400D01*
X337400Y285400D02*
X341000D01*
X316600D02*
X319200D01*
X298400D02*
X300800D01*
X277000D02*
X282200D01*
X265200D02*
X272400D01*
X259400D02*
X261800D01*
X245000D02*
X255600D01*
X226600D02*
X241200D01*
X216500D02*
X223400D01*
X337400Y285500D02*
X341000D01*
X316600D02*
X319200D01*
X298600D02*
X300800D01*
X276800D02*
X282200D01*
X265200D02*
X272200D01*
X259200D02*
X261800D01*
X245200D02*
X255400D01*
X226600D02*
X241400D01*
X216500D02*
X223400D01*
X337400Y285600D02*
X341000D01*
X316600D02*
X319200D01*
X298600D02*
X300800D01*
X276800D02*
X282200D01*
X265200D02*
X272200D01*
X259200D02*
X261800D01*
X245200D02*
X255400D01*
X226600D02*
X241400D01*
X216500D02*
X223400D01*
X337400Y285700D02*
X341000D01*
X316600D02*
X319000D01*
X298600D02*
X300800D01*
X276600D02*
X282200D01*
X265200D02*
X272000D01*
X259200D02*
X261800D01*
X245200D02*
X255400D01*
X226600D02*
X241400D01*
X216500D02*
X223400D01*
X337400Y285800D02*
X341000D01*
X316600D02*
X319000D01*
X298600D02*
X300800D01*
X276600D02*
X282200D01*
X265200D02*
X272000D01*
X259200D02*
X261800D01*
X245200D02*
X255400D01*
X226600D02*
X241400D01*
X216500D02*
X223400D01*
X337400Y285900D02*
X341000D01*
X316600D02*
X319000D01*
X298800D02*
X300800D01*
X276400D02*
X282200D01*
X265200D02*
X271800D01*
X259000D02*
X261800D01*
X245400D02*
X255200D01*
X226600D02*
X241600D01*
X216500D02*
X223400D01*
X337400Y286000D02*
X341000D01*
X316600D02*
X319000D01*
X298800D02*
X300800D01*
X276400D02*
X282200D01*
X265200D02*
X271800D01*
X259000D02*
X261800D01*
X245400D02*
X255200D01*
X226600D02*
X241600D01*
X216500D02*
X223400D01*
X337400Y286100D02*
X341000D01*
X316600D02*
X319000D01*
X298800D02*
X300800D01*
X276200D02*
X282200D01*
X265200D02*
X271600D01*
X259000D02*
X261800D01*
X245400D02*
X255200D01*
X226600D02*
X241600D01*
X216500D02*
X223400D01*
X337400Y286200D02*
X341000D01*
X316600D02*
X319000D01*
X298800D02*
X300800D01*
X276200D02*
X282200D01*
X265200D02*
X271600D01*
X259000D02*
X261800D01*
X245400D02*
X255200D01*
X226600D02*
X241600D01*
X216500D02*
X223400D01*
X322800Y286300D02*
X341000D01*
X304200D02*
X318800D01*
X298800D02*
X300800D01*
X276000D02*
X294400D01*
X265200D02*
X271400D01*
X258800D02*
X261800D01*
X245600D02*
X255000D01*
X226600D02*
X241800D01*
X216500D02*
X223400D01*
X322800Y286400D02*
X341000D01*
X304200D02*
X318800D01*
X298800D02*
X300800D01*
X276000D02*
X294400D01*
X265200D02*
X271400D01*
X258800D02*
X261800D01*
X245600D02*
X255000D01*
X226600D02*
X241800D01*
X216500D02*
X223400D01*
X322600Y286500D02*
X341000D01*
X304200D02*
X318800D01*
X299000D02*
X300800D01*
X275800D02*
X295000D01*
X265200D02*
X271200D01*
X258800D02*
X261800D01*
X245600D02*
X255000D01*
X226600D02*
X241800D01*
X216500D02*
X223400D01*
X322600Y286600D02*
X341000D01*
X304200D02*
X318800D01*
X299000D02*
X300800D01*
X275800D02*
X295000D01*
X265200D02*
X271200D01*
X258800D02*
X261800D01*
X245600D02*
X255000D01*
X226600D02*
X241800D01*
X216500D02*
X223400D01*
X322400Y286700D02*
X341000D01*
X304200D02*
X318800D01*
X299000D02*
X300800D01*
X275600D02*
X295200D01*
X265200D02*
X271000D01*
X258600D02*
X261800D01*
X245800D02*
X255000D01*
X226600D02*
X242000D01*
X216500D02*
X223400D01*
X322400Y286800D02*
X341000D01*
X304200D02*
X318800D01*
X299000D02*
X300800D01*
X275600D02*
X295200D01*
X265200D02*
X271000D01*
X258600D02*
X261800D01*
X245800D02*
X255000D01*
X226600D02*
X242000D01*
X216500D02*
X223400D01*
X322200Y286900D02*
X341000D01*
X304200D02*
X318800D01*
X299000D02*
X300800D01*
X275400D02*
X295400D01*
X265200D02*
X270800D01*
X258600D02*
X261800D01*
X245800D02*
X254800D01*
X226600D02*
X242000D01*
X216500D02*
X223400D01*
X322200Y287000D02*
X341000D01*
X304200D02*
X318800D01*
X299000D02*
X300800D01*
X275400D02*
X295400D01*
X265200D02*
X270800D01*
X258600D02*
X261800D01*
X245800D02*
X254800D01*
X226600D02*
X242000D01*
X216500D02*
X223400D01*
X322200Y287100D02*
X341000D01*
X304200D02*
X318800D01*
X299000D02*
X300800D01*
X275200D02*
X295400D01*
X265200D02*
X270600D01*
X258400D02*
X261800D01*
X246000D02*
X254800D01*
X226600D02*
X242200D01*
X216500D02*
X223400D01*
X322200Y287200D02*
X341000D01*
X304200D02*
X318800D01*
X299000D02*
X300800D01*
X275200D02*
X295400D01*
X265200D02*
X270600D01*
X258400D02*
X261800D01*
X246000D02*
X254800D01*
X226600D02*
X242200D01*
X216500D02*
X223400D01*
X322200Y287300D02*
X341000D01*
X304200D02*
X318800D01*
X299000D02*
X300800D01*
X258000D02*
X295600D01*
X246000D02*
X254600D01*
X226600D02*
X242200D01*
X216500D02*
X223400D01*
X322200Y287400D02*
X341000D01*
X304200D02*
X318800D01*
X299000D02*
X300800D01*
X258000D02*
X295600D01*
X246000D02*
X254600D01*
X226600D02*
X242200D01*
X216500D02*
X223400D01*
X322200Y287500D02*
X341000D01*
X304200D02*
X318800D01*
X299200D02*
X300800D01*
X257200D02*
X295600D01*
X226600D02*
X242400D01*
X216500D02*
X223400D01*
X322200Y287600D02*
X341000D01*
X304200D02*
X318800D01*
X299200D02*
X300800D01*
X257200D02*
X295600D01*
X226600D02*
X242400D01*
X216500D02*
X223400D01*
X322200Y287700D02*
X341000D01*
X304200D02*
X318800D01*
X299200D02*
X300800D01*
X276200D02*
X295600D01*
X256400D02*
X275200D01*
X236800D02*
X242600D01*
X216500D02*
X223400D01*
X322200Y287800D02*
X341000D01*
X304200D02*
X318800D01*
X299200D02*
X300800D01*
X276200D02*
X295600D01*
X256400D02*
X275200D01*
X236800D02*
X242600D01*
X216500D02*
X223400D01*
X322200Y287900D02*
X341000D01*
X304200D02*
X318800D01*
X299000D02*
X300800D01*
X277000D02*
X295600D01*
X255600D02*
X274400D01*
X237600D02*
X242600D01*
X216500D02*
X223400D01*
X322200Y288000D02*
X341000D01*
X304200D02*
X318800D01*
X299000D02*
X300800D01*
X277000D02*
X295600D01*
X255600D02*
X274400D01*
X237600D02*
X242600D01*
X216500D02*
X223400D01*
X322200Y288100D02*
X341000D01*
X304200D02*
X318800D01*
X299000D02*
X300800D01*
X277400D02*
X295400D01*
X254800D02*
X273600D01*
X238000D02*
X242800D01*
X216500D02*
X223400D01*
X322200Y288200D02*
X341000D01*
X304200D02*
X318800D01*
X299000D02*
X300800D01*
X277400D02*
X295400D01*
X254800D02*
X273600D01*
X238000D02*
X242800D01*
X216500D02*
X223400D01*
X322200Y288300D02*
X341000D01*
X304200D02*
X318800D01*
X299000D02*
X300800D01*
X277800D02*
X295400D01*
X254000D02*
X272800D01*
X238400D02*
X242800D01*
X216500D02*
X223400D01*
X322200Y288400D02*
X341000D01*
X304200D02*
X318800D01*
X299000D02*
X300800D01*
X277800D02*
X295400D01*
X254000D02*
X272800D01*
X238400D02*
X242800D01*
X216500D02*
X223400D01*
X322200Y288500D02*
X341000D01*
X304200D02*
X318800D01*
X299000D02*
X300800D01*
X278000D02*
X295200D01*
X253200D02*
X272000D01*
X238600D02*
X243000D01*
X216500D02*
X223400D01*
X322200Y288600D02*
X341000D01*
X304200D02*
X318800D01*
X299000D02*
X300800D01*
X278000D02*
X295200D01*
X253200D02*
X272000D01*
X238600D02*
X243000D01*
X216500D02*
X223400D01*
X322200Y288700D02*
X341000D01*
X304200D02*
X318800D01*
X299000D02*
X300800D01*
X278400D02*
X295000D01*
X252400D02*
X271200D01*
X239000D02*
X243000D01*
X216500D02*
X223400D01*
X322200Y288800D02*
X341000D01*
X304200D02*
X318800D01*
X299000D02*
X300800D01*
X278400D02*
X295000D01*
X252400D02*
X271200D01*
X239000D02*
X243000D01*
X216500D02*
X223400D01*
X322200Y288900D02*
X341000D01*
X304200D02*
X318800D01*
X298800D02*
X300800D01*
X278600D02*
X294600D01*
X251600D02*
X270400D01*
X239200D02*
X243200D01*
X216500D02*
X223400D01*
X322200Y289000D02*
X341000D01*
X304200D02*
X318800D01*
X298800D02*
X300800D01*
X278600D02*
X294600D01*
X251600D02*
X270400D01*
X239200D02*
X243200D01*
X216500D02*
X223400D01*
X322200Y289100D02*
X341000D01*
X316200D02*
X318800D01*
X298800D02*
X300800D01*
X278800D02*
X286400D01*
X250800D02*
X269600D01*
X239400D02*
X243200D01*
X216500D02*
X223400D01*
X322200Y289200D02*
X341000D01*
X316200D02*
X318800D01*
X298800D02*
X300800D01*
X278800D02*
X286400D01*
X250800D02*
X269600D01*
X239400D02*
X243200D01*
X216500D02*
X223400D01*
X322200Y289300D02*
X341000D01*
X316200D02*
X318800D01*
X298800D02*
X300800D01*
X279000D02*
X285400D01*
X250000D02*
X268800D01*
X239600D02*
X243400D01*
X216500D02*
X223400D01*
X322200Y289400D02*
X341000D01*
X316200D02*
X318800D01*
X298800D02*
X300800D01*
X279000D02*
X285400D01*
X250000D02*
X268800D01*
X239600D02*
X243400D01*
X216500D02*
X223400D01*
X322200Y289500D02*
X341000D01*
X316200D02*
X318800D01*
X298600D02*
X300800D01*
X279000D02*
X284800D01*
X249200D02*
X268000D01*
X239600D02*
X243400D01*
X216500D02*
X223400D01*
X322200Y289600D02*
X341000D01*
X316200D02*
X318800D01*
X298600D02*
X300800D01*
X279000D02*
X284800D01*
X249200D02*
X268000D01*
X239600D02*
X243400D01*
X216500D02*
X223400D01*
X322200Y289700D02*
X341000D01*
X316200D02*
X318800D01*
X298600D02*
X300800D01*
X279200D02*
X284400D01*
X248400D02*
X267200D01*
X239800D02*
X243600D01*
X216500D02*
X223400D01*
X322200Y289800D02*
X341000D01*
X316200D02*
X318800D01*
X298600D02*
X300800D01*
X279200D02*
X284400D01*
X248400D02*
X267200D01*
X239800D02*
X243600D01*
X216500D02*
X223400D01*
X322200Y289900D02*
X341000D01*
X316200D02*
X318800D01*
X298400D02*
X300800D01*
X279400D02*
X284000D01*
X247600D02*
X266400D01*
X240000D02*
X243600D01*
X216500D02*
X223400D01*
X322200Y290000D02*
X341000D01*
X316200D02*
X318800D01*
X298400D02*
X300800D01*
X279400D02*
X284000D01*
X247600D02*
X266400D01*
X240000D02*
X243600D01*
X216500D02*
X223400D01*
X322200Y290100D02*
X341000D01*
X316200D02*
X318800D01*
X298200D02*
X300800D01*
X279400D02*
X283600D01*
X246800D02*
X265600D01*
X240000D02*
X243800D01*
X216500D02*
X223400D01*
X322200Y290200D02*
X341000D01*
X316200D02*
X318800D01*
X298200D02*
X300800D01*
X279400D02*
X283600D01*
X246800D02*
X265600D01*
X240000D02*
X243800D01*
X216500D02*
X223400D01*
X322200Y290300D02*
X341000D01*
X316200D02*
X318800D01*
X298200D02*
X300800D01*
X279600D02*
X283400D01*
X246200D02*
X264800D01*
X240200D02*
X243800D01*
X216500D02*
X223400D01*
X322200Y290400D02*
X341000D01*
X316200D02*
X318800D01*
X298200D02*
X300800D01*
X279600D02*
X283400D01*
X246200D02*
X264800D01*
X240200D02*
X243800D01*
X216500D02*
X223400D01*
X322200Y290500D02*
X341000D01*
X316200D02*
X318800D01*
X298000D02*
X300800D01*
X279600D02*
X283200D01*
X245400D02*
X264000D01*
X240200D02*
X244000D01*
X216500D02*
X223400D01*
X322200Y290600D02*
X341000D01*
X316200D02*
X318800D01*
X298000D02*
X300800D01*
X279600D02*
X283200D01*
X245400D02*
X264000D01*
X240200D02*
X244000D01*
X216500D02*
X223400D01*
X322200Y290700D02*
X341000D01*
X316200D02*
X318800D01*
X297800D02*
X300800D01*
X279800D02*
X283000D01*
X244600D02*
X263200D01*
X240400D02*
X244000D01*
X216500D02*
X223400D01*
X322200Y290800D02*
X341000D01*
X316200D02*
X318800D01*
X297800D02*
X300800D01*
X279800D02*
X283000D01*
X244600D02*
X263200D01*
X240400D02*
X244000D01*
X216500D02*
X223400D01*
X322200Y290900D02*
X341000D01*
X316200D02*
X318800D01*
X297600D02*
X300800D01*
X279800D02*
X282800D01*
X240400D02*
X262400D01*
X216500D02*
X223400D01*
X322200Y291000D02*
X341000D01*
X316200D02*
X318800D01*
X297600D02*
X300800D01*
X279800D02*
X282800D01*
X240400D02*
X262400D01*
X216500D02*
X223400D01*
X322200Y291100D02*
X341000D01*
X316200D02*
X318800D01*
X297400D02*
X300800D01*
X280000D02*
X282600D01*
X265200D02*
X276000D01*
X256400D02*
X261800D01*
X247800D02*
X252800D01*
X240600D02*
X244200D01*
X226600D02*
X236600D01*
X216500D02*
X223400D01*
X322200Y291200D02*
X341000D01*
X316200D02*
X318800D01*
X297400D02*
X300800D01*
X280000D02*
X282600D01*
X265200D02*
X276000D01*
X256400D02*
X261800D01*
X247800D02*
X252800D01*
X240600D02*
X244200D01*
X226600D02*
X236600D01*
X216500D02*
X223400D01*
X322200Y291300D02*
X341000D01*
X316200D02*
X318800D01*
X297000D02*
X300800D01*
X280000D02*
X282600D01*
X265200D02*
X276200D01*
X256200D02*
X261800D01*
X248000D02*
X252600D01*
X240600D02*
X244400D01*
X226600D02*
X236800D01*
X216500D02*
X223400D01*
X322200Y291400D02*
X341000D01*
X316200D02*
X318800D01*
X297000D02*
X300800D01*
X280000D02*
X282600D01*
X265200D02*
X276200D01*
X256200D02*
X261800D01*
X248000D02*
X252600D01*
X240600D02*
X244400D01*
X226600D02*
X236800D01*
X216500D02*
X223400D01*
X322200Y291500D02*
X341000D01*
X316200D02*
X318800D01*
X296800D02*
X300800D01*
X280000D02*
X282400D01*
X265200D02*
X276400D01*
X256200D02*
X261800D01*
X248000D02*
X252600D01*
X240600D02*
X244600D01*
X226600D02*
X237000D01*
X216500D02*
X223400D01*
X322200Y291600D02*
X341000D01*
X316200D02*
X318800D01*
X296800D02*
X300800D01*
X280000D02*
X282400D01*
X265200D02*
X276400D01*
X256200D02*
X261800D01*
X248000D02*
X252600D01*
X240600D02*
X244600D01*
X226600D02*
X237000D01*
X216500D02*
X223400D01*
X322200Y291700D02*
X341000D01*
X316200D02*
X318800D01*
X296400D02*
X300800D01*
X280000D02*
X282200D01*
X265200D02*
X276600D01*
X256000D02*
X261800D01*
X248200D02*
X252400D01*
X240600D02*
X244600D01*
X226600D02*
X237200D01*
X216500D02*
X223400D01*
X322200Y291800D02*
X341000D01*
X316200D02*
X318800D01*
X296400D02*
X300800D01*
X280000D02*
X282200D01*
X265200D02*
X276600D01*
X256000D02*
X261800D01*
X248200D02*
X252400D01*
X240600D02*
X244600D01*
X226600D02*
X237200D01*
X216500D02*
X223400D01*
X322200Y291900D02*
X341000D01*
X316200D02*
X318800D01*
X296000D02*
X300800D01*
X280000D02*
X282200D01*
X265200D02*
X276600D01*
X256000D02*
X261800D01*
X248200D02*
X252400D01*
X240600D02*
X244800D01*
X226600D02*
X237200D01*
X216500D02*
X223400D01*
X322200Y292000D02*
X341000D01*
X316200D02*
X318800D01*
X296000D02*
X300800D01*
X280000D02*
X282200D01*
X265200D02*
X276600D01*
X256000D02*
X261800D01*
X248200D02*
X252400D01*
X240600D02*
X244800D01*
X226600D02*
X237200D01*
X216500D02*
X223400D01*
X322200Y292100D02*
X341000D01*
X316200D02*
X318800D01*
X295400D02*
X300800D01*
X280000D02*
X282000D01*
X265200D02*
X276600D01*
X255800D02*
X261800D01*
X248400D02*
X252200D01*
X240600D02*
X244800D01*
X226600D02*
X237200D01*
X216500D02*
X223400D01*
X322200Y292200D02*
X341000D01*
X316200D02*
X318800D01*
X295400D02*
X300800D01*
X280000D02*
X282000D01*
X265200D02*
X276600D01*
X255800D02*
X261800D01*
X248400D02*
X252200D01*
X240600D02*
X244800D01*
X226600D02*
X237200D01*
X216500D02*
X223400D01*
X322200Y292300D02*
X341000D01*
X316200D02*
X318800D01*
X294400D02*
X300800D01*
X280000D02*
X282000D01*
X265200D02*
X276800D01*
X255600D02*
X261800D01*
X248400D02*
X252200D01*
X240600D02*
X245000D01*
X226600D02*
X237200D01*
X216500D02*
X223400D01*
X322200Y292400D02*
X341000D01*
X316200D02*
X318800D01*
X294400D02*
X300800D01*
X280000D02*
X282000D01*
X265200D02*
X276800D01*
X255600D02*
X261800D01*
X248400D02*
X252200D01*
X240600D02*
X245000D01*
X226600D02*
X237200D01*
X216500D02*
X223400D01*
X322200Y292500D02*
X341000D01*
X304400D02*
X318800D01*
X286200D02*
X300800D01*
X280000D02*
X282000D01*
X265200D02*
X276800D01*
X255600D02*
X261800D01*
X248600D02*
X252000D01*
X240600D02*
X245000D01*
X226600D02*
X237200D01*
X216500D02*
X223400D01*
X322200Y292600D02*
X341000D01*
X304400D02*
X318800D01*
X286200D02*
X300800D01*
X280000D02*
X282000D01*
X265200D02*
X276800D01*
X255600D02*
X261800D01*
X248600D02*
X252000D01*
X240600D02*
X245000D01*
X226600D02*
X237200D01*
X216500D02*
X223400D01*
X322200Y292700D02*
X341000D01*
X304200D02*
X318800D01*
X285800D02*
X300800D01*
X280000D02*
X281800D01*
X265200D02*
X276800D01*
X255400D02*
X261800D01*
X248600D02*
X252000D01*
X240600D02*
X245200D01*
X226600D02*
X237200D01*
X216500D02*
X223400D01*
X322200Y292800D02*
X341000D01*
X304200D02*
X318800D01*
X285800D02*
X300800D01*
X280000D02*
X281800D01*
X265200D02*
X276800D01*
X255400D02*
X261800D01*
X248600D02*
X252000D01*
X240600D02*
X245200D01*
X226600D02*
X237200D01*
X216500D02*
X223400D01*
X322200Y292900D02*
X341000D01*
X304200D02*
X318800D01*
X285400D02*
X300800D01*
X280000D02*
X281800D01*
X265200D02*
X276800D01*
X255400D02*
X261800D01*
X248800D02*
X251800D01*
X240600D02*
X245200D01*
X226600D02*
X237200D01*
X216500D02*
X223400D01*
X322200Y293000D02*
X341000D01*
X304200D02*
X318800D01*
X285400D02*
X300800D01*
X280000D02*
X281800D01*
X265200D02*
X276800D01*
X255400D02*
X261800D01*
X248800D02*
X251800D01*
X240600D02*
X245200D01*
X226600D02*
X237200D01*
X216500D02*
X223400D01*
X322200Y293100D02*
X341000D01*
X304200D02*
X318800D01*
X285400D02*
X300800D01*
X280000D02*
X281800D01*
X265200D02*
X276800D01*
X255200D02*
X261800D01*
X248800D02*
X251800D01*
X240600D02*
X245400D01*
X226600D02*
X237200D01*
X216500D02*
X223400D01*
X322200Y293200D02*
X341000D01*
X304200D02*
X318800D01*
X285400D02*
X300800D01*
X280000D02*
X281800D01*
X265200D02*
X276800D01*
X255200D02*
X261800D01*
X248800D02*
X251800D01*
X240600D02*
X245400D01*
X226600D02*
X237200D01*
X216500D02*
X223400D01*
X322200Y293300D02*
X341000D01*
X304200D02*
X318800D01*
X285200D02*
X300800D01*
X280000D02*
X281800D01*
X265200D02*
X276800D01*
X255200D02*
X261800D01*
X249000D02*
X251600D01*
X240600D02*
X245400D01*
X226600D02*
X237200D01*
X216500D02*
X223400D01*
X322200Y293400D02*
X341000D01*
X304200D02*
X318800D01*
X285200D02*
X300800D01*
X280000D02*
X281800D01*
X265200D02*
X276800D01*
X255200D02*
X261800D01*
X249000D02*
X251600D01*
X240600D02*
X245400D01*
X226600D02*
X237200D01*
X216500D02*
X223400D01*
X322200Y293500D02*
X341000D01*
X304200D02*
X318800D01*
X285200D02*
X300800D01*
X280000D02*
X281800D01*
X265200D02*
X276800D01*
X255000D02*
X261800D01*
X249000D02*
X251600D01*
X240600D02*
X245600D01*
X226600D02*
X237200D01*
X216500D02*
X223400D01*
X322200Y293600D02*
X341000D01*
X304200D02*
X318800D01*
X285200D02*
X300800D01*
X280000D02*
X281800D01*
X265200D02*
X276800D01*
X255000D02*
X261800D01*
X249000D02*
X251600D01*
X240600D02*
X245600D01*
X226600D02*
X237200D01*
X216500D02*
X223400D01*
X322200Y293700D02*
X341000D01*
X304200D02*
X318800D01*
X285200D02*
X300800D01*
X280000D02*
X281800D01*
X265200D02*
X276800D01*
X255000D02*
X261800D01*
X249200D02*
X251600D01*
X240600D02*
X245600D01*
X226600D02*
X237200D01*
X216500D02*
X223400D01*
X322200Y293800D02*
X341000D01*
X304200D02*
X318800D01*
X285200D02*
X300800D01*
X280000D02*
X281800D01*
X265200D02*
X276800D01*
X255000D02*
X261800D01*
X249200D02*
X251600D01*
X240600D02*
X245600D01*
X226600D02*
X237200D01*
X216500D02*
X223400D01*
X322200Y293900D02*
X341000D01*
X304200D02*
X318800D01*
X285200D02*
X300800D01*
X280000D02*
X281800D01*
X265200D02*
X276800D01*
X254800D02*
X261800D01*
X249200D02*
X251400D01*
X240600D02*
X245800D01*
X226600D02*
X237200D01*
X216500D02*
X223400D01*
X322200Y294000D02*
X341000D01*
X304200D02*
X318800D01*
X285200D02*
X300800D01*
X280000D02*
X281800D01*
X265200D02*
X276800D01*
X254800D02*
X261800D01*
X249200D02*
X251400D01*
X240600D02*
X245800D01*
X226600D02*
X237200D01*
X216500D02*
X223400D01*
X322200Y294100D02*
X341000D01*
X304200D02*
X318800D01*
X285200D02*
X300800D01*
X280000D02*
X281800D01*
X265200D02*
X276600D01*
X254800D02*
X261800D01*
X249400D02*
X251400D01*
X240600D02*
X245800D01*
X226600D02*
X237200D01*
X216500D02*
X223400D01*
X322200Y294200D02*
X341000D01*
X304200D02*
X318800D01*
X285200D02*
X300800D01*
X280000D02*
X281800D01*
X265200D02*
X276600D01*
X254800D02*
X261800D01*
X249400D02*
X251400D01*
X240600D02*
X245800D01*
X226600D02*
X237200D01*
X216500D02*
X223400D01*
X322200Y294300D02*
X341000D01*
X304200D02*
X318800D01*
X285200D02*
X300800D01*
X280000D02*
X281800D01*
X265200D02*
X276600D01*
X254600D02*
X261800D01*
X249400D02*
X251200D01*
X240600D02*
X246000D01*
X226600D02*
X237200D01*
X216500D02*
X223400D01*
X322200Y294400D02*
X341000D01*
X304200D02*
X318800D01*
X285200D02*
X300800D01*
X280000D02*
X281800D01*
X265200D02*
X276600D01*
X254600D02*
X261800D01*
X249400D02*
X251200D01*
X240600D02*
X246000D01*
X226600D02*
X237200D01*
X216500D02*
X223400D01*
X322200Y294500D02*
X341000D01*
X304200D02*
X318800D01*
X285400D02*
X300800D01*
X280000D02*
X281800D01*
X265200D02*
X276600D01*
X254600D02*
X261800D01*
X249600D02*
X251200D01*
X240600D02*
X246000D01*
X226600D02*
X237200D01*
X216500D02*
X223400D01*
X322200Y294600D02*
X341000D01*
X304200D02*
X318800D01*
X285400D02*
X300800D01*
X280000D02*
X281800D01*
X265200D02*
X276600D01*
X254600D02*
X261800D01*
X249600D02*
X251200D01*
X240600D02*
X246000D01*
X226600D02*
X237200D01*
X216500D02*
X223400D01*
X322400Y294700D02*
X341000D01*
X304200D02*
X318800D01*
X285400D02*
X300800D01*
X280000D02*
X281800D01*
X265200D02*
X276400D01*
X254400D02*
X261800D01*
X249600D02*
X251000D01*
X240600D02*
X246200D01*
X226600D02*
X237000D01*
X216500D02*
X223400D01*
X322400Y294800D02*
X341000D01*
X304200D02*
X318800D01*
X285400D02*
X300800D01*
X280000D02*
X281800D01*
X265200D02*
X276400D01*
X254400D02*
X261800D01*
X249600D02*
X251000D01*
X240600D02*
X246200D01*
X226600D02*
X237000D01*
X216500D02*
X223400D01*
X322600Y294900D02*
X341000D01*
X304200D02*
X318800D01*
X285800D02*
X300800D01*
X280000D02*
X281800D01*
X265200D02*
X276200D01*
X254400D02*
X261800D01*
X249800D02*
X251000D01*
X240600D02*
X246200D01*
X226600D02*
X236800D01*
X216500D02*
X223400D01*
X322600Y295000D02*
X341000D01*
X304200D02*
X318800D01*
X285800D02*
X300800D01*
X280000D02*
X281800D01*
X265200D02*
X276200D01*
X254400D02*
X261800D01*
X249800D02*
X251000D01*
X240600D02*
X246200D01*
X226600D02*
X236800D01*
X216500D02*
X223400D01*
X322800Y295100D02*
X341000D01*
X304200D02*
X318800D01*
X286200D02*
X300800D01*
X280000D02*
X282000D01*
X265200D02*
X276000D01*
X254200D02*
X261800D01*
X249800D02*
X250800D01*
X240600D02*
X246400D01*
X226600D02*
X236600D01*
X216500D02*
X223400D01*
X322800Y295200D02*
X341000D01*
X304200D02*
X318800D01*
X286200D02*
X300800D01*
X280000D02*
X282000D01*
X265200D02*
X276000D01*
X254200D02*
X261800D01*
X249800D02*
X250800D01*
X240600D02*
X246400D01*
X226600D02*
X236600D01*
X216500D02*
X223400D01*
X337400Y295300D02*
X341000D01*
X316600D02*
X319000D01*
X298400D02*
X300800D01*
X279800D02*
X282000D01*
X254200D02*
X261800D01*
X250000D02*
X250800D01*
X240400D02*
X246400D01*
X216500D02*
X223400D01*
X337400Y295400D02*
X341000D01*
X316600D02*
X319000D01*
X298400D02*
X300800D01*
X279800D02*
X282000D01*
X254200D02*
X261800D01*
X250000D02*
X250800D01*
X240400D02*
X246400D01*
X216500D02*
X223400D01*
X337400Y295500D02*
X341000D01*
X316600D02*
X319000D01*
X298400D02*
X300800D01*
X279800D02*
X282000D01*
X254000D02*
X261800D01*
X250000D02*
X250600D01*
X240400D02*
X246600D01*
X216500D02*
X223400D01*
X337400Y295600D02*
X341000D01*
X316600D02*
X319000D01*
X298400D02*
X300800D01*
X279800D02*
X282000D01*
X254000D02*
X261800D01*
X250000D02*
X250600D01*
X240400D02*
X246600D01*
X216500D02*
X223400D01*
X337400Y295700D02*
X341000D01*
X316600D02*
X319000D01*
X298400D02*
X300800D01*
X279800D02*
X282200D01*
X254000D02*
X261800D01*
X250200D02*
X250600D01*
X240200D02*
X246800D01*
X216500D02*
X223400D01*
X337400Y295800D02*
X341000D01*
X316600D02*
X319000D01*
X298400D02*
X300800D01*
X279800D02*
X282200D01*
X254000D02*
X261800D01*
X250200D02*
X250600D01*
X240200D02*
X246800D01*
X216500D02*
X223400D01*
X337400Y295900D02*
X341000D01*
X316600D02*
X319200D01*
X298400D02*
X300800D01*
X279600D02*
X282200D01*
X253800D02*
X261800D01*
X250200D02*
X250400D01*
X240200D02*
X246800D01*
X216500D02*
X223400D01*
X337400Y296000D02*
X341000D01*
X316600D02*
X319200D01*
X298400D02*
X300800D01*
X279600D02*
X282200D01*
X253800D02*
X261800D01*
X250200D02*
X250400D01*
X240200D02*
X246800D01*
X216500D02*
X223400D01*
X337400Y296100D02*
X341000D01*
X316600D02*
X319200D01*
X298400D02*
X300800D01*
X279600D02*
X282400D01*
X253800D02*
X261800D01*
X240000D02*
X247000D01*
X216500D02*
X223400D01*
X337400Y296200D02*
X341000D01*
X316600D02*
X319200D01*
X298400D02*
X300800D01*
X279600D02*
X282400D01*
X253800D02*
X261800D01*
X240000D02*
X247000D01*
X216500D02*
X223400D01*
X337200Y296300D02*
X341000D01*
X316600D02*
X319400D01*
X298400D02*
X300800D01*
X279400D02*
X282600D01*
X253600D02*
X261800D01*
X240000D02*
X247000D01*
X216500D02*
X223400D01*
X337200Y296400D02*
X341000D01*
X316600D02*
X319400D01*
X298400D02*
X300800D01*
X279400D02*
X282600D01*
X253600D02*
X261800D01*
X240000D02*
X247000D01*
X216500D02*
X223400D01*
X337200Y296500D02*
X341000D01*
X316600D02*
X319600D01*
X298400D02*
X300800D01*
X279200D02*
X282600D01*
X253400D02*
X261800D01*
X239800D02*
X247200D01*
X216500D02*
X223400D01*
X337200Y296600D02*
X341000D01*
X316600D02*
X319600D01*
X298400D02*
X300800D01*
X279200D02*
X282600D01*
X253400D02*
X261800D01*
X239800D02*
X247200D01*
X216500D02*
X223400D01*
X337200Y296700D02*
X341000D01*
X316600D02*
X319600D01*
X298400D02*
X300800D01*
X279000D02*
X282800D01*
X253400D02*
X261800D01*
X239600D02*
X247200D01*
X216500D02*
X223400D01*
X337200Y296800D02*
X341000D01*
X316600D02*
X319600D01*
X298400D02*
X300800D01*
X279000D02*
X282800D01*
X253400D02*
X261800D01*
X239600D02*
X247200D01*
X216500D02*
X223400D01*
X337000Y296900D02*
X341000D01*
X316600D02*
X319800D01*
X298400D02*
X300800D01*
X279000D02*
X283000D01*
X253200D02*
X261800D01*
X239600D02*
X247400D01*
X216500D02*
X223400D01*
X337000Y297000D02*
X341000D01*
X316600D02*
X319800D01*
X298400D02*
X300800D01*
X279000D02*
X283000D01*
X253200D02*
X261800D01*
X239600D02*
X247400D01*
X216500D02*
X223400D01*
X336800Y297100D02*
X341000D01*
X316600D02*
X320000D01*
X298400D02*
X300800D01*
X278800D02*
X283200D01*
X253200D02*
X261800D01*
X239400D02*
X247400D01*
X216500D02*
X223400D01*
X336800Y297200D02*
X341000D01*
X316600D02*
X320000D01*
X298400D02*
X300800D01*
X278800D02*
X283200D01*
X253200D02*
X261800D01*
X239400D02*
X247400D01*
X216500D02*
X223400D01*
X336800Y297300D02*
X341000D01*
X316600D02*
X320200D01*
X298400D02*
X300800D01*
X278600D02*
X283400D01*
X253000D02*
X261800D01*
X239200D02*
X247600D01*
X216500D02*
X223400D01*
X336800Y297400D02*
X341000D01*
X316600D02*
X320200D01*
X298400D02*
X300800D01*
X278600D02*
X283400D01*
X253000D02*
X261800D01*
X239200D02*
X247600D01*
X216500D02*
X223400D01*
X336600Y297500D02*
X341000D01*
X316600D02*
X320400D01*
X298400D02*
X300800D01*
X278400D02*
X283600D01*
X253000D02*
X261800D01*
X239000D02*
X247600D01*
X216500D02*
X223400D01*
X336600Y297600D02*
X341000D01*
X316600D02*
X320400D01*
X298400D02*
X300800D01*
X278400D02*
X283600D01*
X253000D02*
X261800D01*
X239000D02*
X247600D01*
X216500D02*
X223400D01*
X336200Y297700D02*
X341000D01*
X316600D02*
X320800D01*
X298400D02*
X300800D01*
X278000D02*
X284000D01*
X252800D02*
X261800D01*
X238600D02*
X247800D01*
X216500D02*
X223400D01*
X336200Y297800D02*
X341000D01*
X316600D02*
X320800D01*
X298400D02*
X300800D01*
X278000D02*
X284000D01*
X252800D02*
X261800D01*
X238600D02*
X247800D01*
X216500D02*
X223400D01*
X336000Y297900D02*
X341000D01*
X316600D02*
X321000D01*
X298400D02*
X300800D01*
X277800D02*
X284400D01*
X252800D02*
X261800D01*
X238400D02*
X247800D01*
X216500D02*
X223400D01*
X336000Y298000D02*
X341000D01*
X316600D02*
X321000D01*
X298400D02*
X300800D01*
X277800D02*
X284400D01*
X252800D02*
X261800D01*
X238400D02*
X247800D01*
X216500D02*
X223400D01*
X335600Y298100D02*
X341000D01*
X316600D02*
X321400D01*
X298400D02*
X300800D01*
X277400D02*
X284800D01*
X252600D02*
X261800D01*
X238000D02*
X248000D01*
X216500D02*
X223400D01*
X335600Y298200D02*
X341000D01*
X316600D02*
X321400D01*
X298400D02*
X300800D01*
X277400D02*
X284800D01*
X252600D02*
X261800D01*
X238000D02*
X248000D01*
X216500D02*
X223400D01*
X335200Y298300D02*
X341000D01*
X316600D02*
X321800D01*
X298400D02*
X300800D01*
X277000D02*
X285400D01*
X252600D02*
X261800D01*
X237600D02*
X248000D01*
X216500D02*
X223400D01*
X335200Y298400D02*
X341000D01*
X316600D02*
X321800D01*
X298400D02*
X300800D01*
X277000D02*
X285400D01*
X252600D02*
X261800D01*
X237600D02*
X248000D01*
X216500D02*
X223400D01*
X334400Y298500D02*
X341000D01*
X316600D02*
X322600D01*
X298400D02*
X300800D01*
X276200D02*
X286400D01*
X252400D02*
X261800D01*
X236800D02*
X248200D01*
X216500D02*
X223400D01*
X334400Y298600D02*
X341000D01*
X316600D02*
X322600D01*
X298400D02*
X300800D01*
X276200D02*
X286400D01*
X252400D02*
X261800D01*
X236800D02*
X248200D01*
X216500D02*
X223400D01*
X216500Y298700D02*
X341000D01*
X216500Y298800D02*
X341000D01*
X216500Y298900D02*
X341000D01*
X216500Y299000D02*
X341000D01*
X216500Y299100D02*
X341000D01*
X216500Y299200D02*
X341000D01*
X216500Y299300D02*
X341000D01*
X216500Y299400D02*
X341000D01*
X216500Y299500D02*
X341000D01*
X216500Y299600D02*
X341000D01*
X216500Y299700D02*
X341000D01*
X216500Y299800D02*
X341000D01*
X216500Y299900D02*
X341000D01*
X216500Y300000D02*
X341000D01*
X216500Y300100D02*
X341000D01*
X216500Y300200D02*
X341000D01*
X216500Y300300D02*
X341000D01*
X216500Y300400D02*
X341000D01*
X216500Y300500D02*
X341000D01*
X216500Y300600D02*
X341000D01*
X216500Y300700D02*
X341000D01*
X216500Y300800D02*
X341000D01*
X216500Y300900D02*
X341000D01*
X216500Y301000D02*
X341000D01*
X216500Y301100D02*
X341000D01*
X216500Y301200D02*
X341000D01*
X216500Y301300D02*
X341000D01*
M02*
