G04 Layer_Color=32896*
%FSLAX25Y25*%
%MOIN*%
G70*
G01*
G75*
%ADD21C,0.01000*%
%ADD35C,0.00787*%
D21*
X414998Y303499D02*
X415998Y302499D01*
Y300500D01*
X414998Y299500D01*
X411000D01*
X410000Y300500D01*
Y302499D01*
X411000Y303499D01*
X410000Y309497D02*
Y305498D01*
X413999Y309497D01*
X414998D01*
X415998Y308497D01*
Y306498D01*
X414998Y305498D01*
Y311496D02*
X415998Y312496D01*
Y314495D01*
X414998Y315495D01*
X411000D01*
X410000Y314495D01*
Y312496D01*
X411000Y311496D01*
X414998D01*
X412998Y264499D02*
X413998Y263499D01*
Y261500D01*
X412998Y260500D01*
X409000D01*
X408000Y261500D01*
Y263499D01*
X409000Y264499D01*
X408000Y266498D02*
Y268497D01*
Y267498D01*
X413998D01*
X412998Y266498D01*
X409000Y271496D02*
X408000Y272496D01*
Y274496D01*
X409000Y275495D01*
X412998D01*
X413998Y274496D01*
Y272496D01*
X412998Y271496D01*
X411999D01*
X410999Y272496D01*
Y275495D01*
X421498Y264499D02*
X422498Y263499D01*
Y261500D01*
X421498Y260500D01*
X417500D01*
X416500Y261500D01*
Y263499D01*
X417500Y264499D01*
X416500Y266498D02*
Y268497D01*
Y267498D01*
X422498D01*
X421498Y266498D01*
Y271496D02*
X422498Y272496D01*
Y274496D01*
X421498Y275495D01*
X420499D01*
X419499Y274496D01*
X418499Y275495D01*
X417500D01*
X416500Y274496D01*
Y272496D01*
X417500Y271496D01*
X418499D01*
X419499Y272496D01*
X420499Y271496D01*
X421498D01*
X419499Y272496D02*
Y274496D01*
X429998Y264499D02*
X430998Y263499D01*
Y261500D01*
X429998Y260500D01*
X426000D01*
X425000Y261500D01*
Y263499D01*
X426000Y264499D01*
X425000Y266498D02*
Y268497D01*
Y267498D01*
X430998D01*
X429998Y266498D01*
X430998Y271496D02*
Y275495D01*
X429998D01*
X426000Y271496D01*
X425000D01*
X466501Y256998D02*
X467501Y257998D01*
X469500D01*
X470500Y256998D01*
Y253000D01*
X469500Y252000D01*
X467501D01*
X466501Y253000D01*
X464502Y252000D02*
X462503D01*
X463502D01*
Y257998D01*
X464502Y256998D01*
X455505Y257998D02*
X457504Y256998D01*
X459504Y254999D01*
Y253000D01*
X458504Y252000D01*
X456504D01*
X455505Y253000D01*
Y253999D01*
X456504Y254999D01*
X459504D01*
X437998Y264999D02*
X438998Y263999D01*
Y262000D01*
X437998Y261000D01*
X434000D01*
X433000Y262000D01*
Y263999D01*
X434000Y264999D01*
X433000Y266998D02*
Y268997D01*
Y267998D01*
X438998D01*
X437998Y266998D01*
X438998Y275995D02*
Y271996D01*
X435999D01*
X436999Y273996D01*
Y274995D01*
X435999Y275995D01*
X434000D01*
X433000Y274995D01*
Y272996D01*
X434000Y271996D01*
X445498Y264999D02*
X446498Y263999D01*
Y262000D01*
X445498Y261000D01*
X441500D01*
X440500Y262000D01*
Y263999D01*
X441500Y264999D01*
X440500Y266998D02*
Y268997D01*
Y267998D01*
X446498D01*
X445498Y266998D01*
X440500Y274995D02*
X446498D01*
X443499Y271996D01*
Y275995D01*
X453498Y264999D02*
X454498Y263999D01*
Y262000D01*
X453498Y261000D01*
X449500D01*
X448500Y262000D01*
Y263999D01*
X449500Y264999D01*
X448500Y266998D02*
Y268997D01*
Y267998D01*
X454498D01*
X453498Y266998D01*
Y271996D02*
X454498Y272996D01*
Y274995D01*
X453498Y275995D01*
X452499D01*
X451499Y274995D01*
Y273996D01*
Y274995D01*
X450499Y275995D01*
X449500D01*
X448500Y274995D01*
Y272996D01*
X449500Y271996D01*
X472501Y304498D02*
X473501Y305498D01*
X475500D01*
X476500Y304498D01*
Y300500D01*
X475500Y299500D01*
X473501D01*
X472501Y300500D01*
X470502Y299500D02*
X468503D01*
X469502D01*
Y305498D01*
X470502Y304498D01*
X461505Y299500D02*
X465504D01*
X461505Y303499D01*
Y304498D01*
X462504Y305498D01*
X464504D01*
X465504Y304498D01*
X423998Y332499D02*
X424998Y331499D01*
Y329500D01*
X423998Y328500D01*
X420000D01*
X419000Y329500D01*
Y331499D01*
X420000Y332499D01*
X419000Y334498D02*
Y336497D01*
Y335498D01*
X424998D01*
X423998Y334498D01*
Y339496D02*
X424998Y340496D01*
Y342495D01*
X423998Y343495D01*
X420000D01*
X419000Y342495D01*
Y340496D01*
X420000Y339496D01*
X423998D01*
X431998Y332499D02*
X432998Y331499D01*
Y329500D01*
X431998Y328500D01*
X428000D01*
X427000Y329500D01*
Y331499D01*
X428000Y332499D01*
Y334498D02*
X427000Y335498D01*
Y337497D01*
X428000Y338497D01*
X431998D01*
X432998Y337497D01*
Y335498D01*
X431998Y334498D01*
X430999D01*
X429999Y335498D01*
Y338497D01*
X440998Y332499D02*
X441998Y331499D01*
Y329500D01*
X440998Y328500D01*
X437000D01*
X436000Y329500D01*
Y331499D01*
X437000Y332499D01*
X440998Y334498D02*
X441998Y335498D01*
Y337497D01*
X440998Y338497D01*
X439999D01*
X438999Y337497D01*
X437999Y338497D01*
X437000D01*
X436000Y337497D01*
Y335498D01*
X437000Y334498D01*
X437999D01*
X438999Y335498D01*
X439999Y334498D01*
X440998D01*
X438999Y335498D02*
Y337497D01*
X449498Y332499D02*
X450498Y331499D01*
Y329500D01*
X449498Y328500D01*
X445500D01*
X444500Y329500D01*
Y331499D01*
X445500Y332499D01*
X450498Y334498D02*
Y338497D01*
X449498D01*
X445500Y334498D01*
X444500D01*
X458498Y332499D02*
X459498Y331499D01*
Y329500D01*
X458498Y328500D01*
X454500D01*
X453500Y329500D01*
Y331499D01*
X454500Y332499D01*
X459498Y338497D02*
X458498Y336497D01*
X456499Y334498D01*
X454500D01*
X453500Y335498D01*
Y337497D01*
X454500Y338497D01*
X455499D01*
X456499Y337497D01*
Y334498D01*
D35*
X451803Y304961D02*
X452197D01*
X451803Y300039D02*
X452197D01*
X469461Y267803D02*
Y268197D01*
X464539Y267803D02*
Y268197D01*
X424803Y300039D02*
X425197D01*
X424803Y304961D02*
X425197D01*
X415461Y290303D02*
Y290697D01*
X410539Y290303D02*
Y290697D01*
X424461Y290303D02*
Y290697D01*
X419539Y290303D02*
Y290697D01*
X432461Y290303D02*
Y290697D01*
X427539Y290303D02*
Y290697D01*
X440961Y290303D02*
Y290697D01*
X436039Y290303D02*
Y290697D01*
X449303Y290303D02*
Y290697D01*
X444382Y290303D02*
Y290697D01*
X457961Y290303D02*
Y290697D01*
X453039Y290303D02*
Y290697D01*
X419039Y314803D02*
Y315197D01*
X423961Y314803D02*
Y315197D01*
X428039Y314803D02*
Y315197D01*
X432961Y314803D02*
Y315197D01*
X436539Y314803D02*
Y315197D01*
X441461Y314803D02*
Y315197D01*
X453224Y314803D02*
Y315197D01*
X458146Y314803D02*
Y315197D01*
X445039Y314803D02*
Y315197D01*
X449961Y314803D02*
Y315197D01*
M02*
