G04 Layer_Physical_Order=2*
G04 Layer_Color=16711680*
%FSLAX25Y25*%
%MOIN*%
G70*
G01*
G75*
%ADD12R,0.05709X0.04528*%
%ADD21C,0.01000*%
%ADD22C,0.02500*%
%ADD23C,0.03000*%
%ADD24C,0.05905*%
%ADD25R,0.05905X0.05905*%
%ADD26C,0.06000*%
%ADD27R,0.06000X0.06000*%
%ADD28R,0.06000X0.06000*%
%ADD29C,0.05000*%
%ADD30R,0.04528X0.05709*%
G36*
X107000Y493500D02*
X694500D01*
Y248000D01*
X696500Y246000D01*
X696000Y245500D01*
X105500D01*
X105001Y494845D01*
X105463Y495037D01*
X107000Y493500D01*
D02*
G37*
%LPC*%
G36*
X138500Y326631D02*
X137560Y326507D01*
X136685Y326145D01*
X135932Y325568D01*
X135355Y324816D01*
X134993Y323940D01*
X134869Y323000D01*
X134993Y322060D01*
X135355Y321184D01*
X135932Y320432D01*
X136685Y319855D01*
X137560Y319493D01*
X138500Y319369D01*
X139440Y319493D01*
X140315Y319855D01*
X141068Y320432D01*
X141645Y321184D01*
X142007Y322060D01*
X142131Y323000D01*
X142007Y323940D01*
X141645Y324816D01*
X141068Y325568D01*
X140315Y326145D01*
X139440Y326507D01*
X138500Y326631D01*
D02*
G37*
G36*
X480803Y323197D02*
X477839D01*
X477893Y322783D01*
X478246Y321932D01*
X478807Y321201D01*
X479538Y320640D01*
X480389Y320287D01*
X480803Y320233D01*
Y323197D01*
D02*
G37*
G36*
X484767D02*
X481803D01*
Y320233D01*
X482217Y320287D01*
X483068Y320640D01*
X483799Y321201D01*
X484360Y321932D01*
X484713Y322783D01*
X484767Y323197D01*
D02*
G37*
G36*
X455185Y314740D02*
X452831D01*
X452441Y314662D01*
X452110Y314441D01*
X451889Y314111D01*
X451847Y313903D01*
X451338D01*
X451296Y314111D01*
X451075Y314441D01*
X450744Y314662D01*
X450354Y314740D01*
X448000D01*
Y311457D01*
Y308173D01*
X450354D01*
X450744Y308251D01*
X451075Y308472D01*
X451296Y308803D01*
X451338Y309010D01*
X451847D01*
X451889Y308803D01*
X452110Y308472D01*
X452441Y308251D01*
X452831Y308173D01*
X455185D01*
Y311457D01*
Y314740D01*
D02*
G37*
G36*
X433354D02*
X431000D01*
Y311957D01*
X434374D01*
Y313720D01*
X434296Y314111D01*
X434075Y314441D01*
X433744Y314662D01*
X433354Y314740D01*
D02*
G37*
G36*
X138000Y316969D02*
X137456Y316897D01*
X136483Y316494D01*
X135647Y315853D01*
X135006Y315017D01*
X134603Y314044D01*
X134531Y313500D01*
X138000D01*
Y316969D01*
D02*
G37*
G36*
X139000D02*
Y313500D01*
X142469D01*
X142397Y314044D01*
X141994Y315017D01*
X141353Y315853D01*
X140517Y316494D01*
X139544Y316897D01*
X139000Y316969D01*
D02*
G37*
G36*
X480803Y327161D02*
X480389Y327107D01*
X479538Y326754D01*
X478807Y326193D01*
X478246Y325462D01*
X477893Y324610D01*
X477839Y324197D01*
X480803D01*
Y327161D01*
D02*
G37*
G36*
X481803D02*
Y324197D01*
X484767D01*
X484713Y324610D01*
X484360Y325462D01*
X483799Y326193D01*
X483068Y326754D01*
X482217Y327107D01*
X481803Y327161D01*
D02*
G37*
G36*
X398500Y329464D02*
X398086Y329410D01*
X397235Y329057D01*
X396504Y328496D01*
X395943Y327765D01*
X395590Y326914D01*
X395536Y326500D01*
X398500D01*
Y329464D01*
D02*
G37*
G36*
X428500Y351641D02*
X410587D01*
X409767Y351478D01*
X409073Y351014D01*
X404131Y346072D01*
X404043Y346083D01*
X403234Y345977D01*
X402480Y345665D01*
X401832Y345168D01*
X401335Y344520D01*
X401023Y343766D01*
X400917Y342957D01*
X401023Y342147D01*
X401335Y341393D01*
X401832Y340746D01*
X402480Y340249D01*
X403234Y339936D01*
X404043Y339830D01*
X404853Y339936D01*
X405607Y340249D01*
X406254Y340746D01*
X406751Y341393D01*
X407063Y342147D01*
X407170Y342957D01*
X407159Y343044D01*
X411474Y347359D01*
X427613D01*
X429359Y345613D01*
Y337500D01*
X429522Y336681D01*
X429986Y335986D01*
X432986Y332986D01*
X433681Y332522D01*
X434500Y332359D01*
X490113D01*
X496885Y325587D01*
X496873Y325500D01*
X496980Y324691D01*
X497292Y323937D01*
X497789Y323289D01*
X498437Y322792D01*
X499191Y322480D01*
X500000Y322373D01*
X500809Y322480D01*
X501563Y322792D01*
X502211Y323289D01*
X502708Y323937D01*
X503020Y324691D01*
X503127Y325500D01*
X503020Y326309D01*
X502708Y327063D01*
X502211Y327711D01*
X501563Y328208D01*
X500809Y328520D01*
X500000Y328627D01*
X499913Y328615D01*
X492514Y336014D01*
X491819Y336478D01*
X491000Y336641D01*
X435387D01*
X433641Y338387D01*
Y346500D01*
X433478Y347319D01*
X433014Y348014D01*
X430014Y351014D01*
X429319Y351478D01*
X428500Y351641D01*
D02*
G37*
G36*
X281000Y322627D02*
X280191Y322520D01*
X279437Y322208D01*
X278789Y321711D01*
X278352Y321141D01*
X268265D01*
X268211Y321211D01*
X267563Y321708D01*
X266809Y322020D01*
X266000Y322127D01*
X265191Y322020D01*
X264437Y321708D01*
X263789Y321211D01*
X263292Y320563D01*
X262980Y319809D01*
X262873Y319000D01*
X262980Y318191D01*
X263292Y317437D01*
X263789Y316789D01*
X264437Y316292D01*
X265191Y315980D01*
X266000Y315873D01*
X266809Y315980D01*
X267563Y316292D01*
X268211Y316789D01*
X268265Y316859D01*
X279350D01*
X279437Y316792D01*
X280191Y316480D01*
X281000Y316373D01*
X281809Y316480D01*
X282563Y316792D01*
X283211Y317289D01*
X283708Y317937D01*
X284020Y318691D01*
X284127Y319500D01*
X284020Y320309D01*
X283708Y321063D01*
X283211Y321711D01*
X282563Y322208D01*
X281809Y322520D01*
X281000Y322627D01*
D02*
G37*
G36*
X424043Y328127D02*
X423234Y328020D01*
X422480Y327708D01*
X421832Y327211D01*
X421336Y326563D01*
X421023Y325809D01*
X420917Y325000D01*
X421023Y324191D01*
X421336Y323437D01*
X421832Y322789D01*
X422480Y322292D01*
X423234Y321980D01*
X423411Y321956D01*
X423378Y321457D01*
X418646D01*
X418351Y321334D01*
X417884Y321617D01*
X417898Y321728D01*
X417792Y322538D01*
X417480Y323292D01*
X416983Y323939D01*
X416335Y324436D01*
X415581Y324749D01*
X414772Y324855D01*
X413962Y324749D01*
X413208Y324436D01*
X412561Y323939D01*
X412064Y323292D01*
X411751Y322538D01*
X411645Y321728D01*
X411751Y320919D01*
X412064Y320165D01*
X412561Y319517D01*
X413208Y319021D01*
X413962Y318708D01*
X414772Y318602D01*
X415581Y318708D01*
X416023Y318891D01*
X416373Y318541D01*
X414666Y316834D01*
X414257Y316222D01*
X414114Y315500D01*
Y307957D01*
X414257Y307235D01*
X414666Y306623D01*
X418543Y302746D01*
Y299646D01*
X418734Y299186D01*
X419193Y298996D01*
X423721D01*
X424180Y299186D01*
X424370Y299646D01*
Y305354D01*
X424180Y305814D01*
X423721Y306004D01*
X420620D01*
X418951Y307673D01*
X419158Y308173D01*
X421000D01*
Y311457D01*
Y314740D01*
X418646D01*
X418607Y314732D01*
X418361Y315193D01*
X418798Y315630D01*
X424354D01*
X424814Y315820D01*
X425004Y316280D01*
Y316657D01*
X426996D01*
Y316280D01*
X427186Y315820D01*
X427646Y315630D01*
X433354D01*
X433813Y315820D01*
X434004Y316280D01*
Y316657D01*
X435496D01*
Y316280D01*
X435686Y315820D01*
X436146Y315630D01*
X441854D01*
X442313Y315820D01*
X442504Y316280D01*
Y316657D01*
X443996D01*
Y316280D01*
X444186Y315820D01*
X444646Y315630D01*
X450354D01*
X450813Y315820D01*
X451004Y316280D01*
Y316657D01*
X452181D01*
Y316280D01*
X452372Y315820D01*
X452831Y315630D01*
X458539D01*
X458655Y315678D01*
X459349Y314984D01*
X459030Y314595D01*
X458929Y314662D01*
X458539Y314740D01*
X456185D01*
Y311457D01*
Y308173D01*
X457842D01*
X458049Y307673D01*
X456380Y306004D01*
X453279D01*
X452820Y305814D01*
X452630Y305354D01*
Y299646D01*
X452820Y299186D01*
X453279Y298996D01*
X456380D01*
X457587Y297789D01*
X457396Y297327D01*
X456000D01*
Y294043D01*
Y290760D01*
X457885D01*
X458092Y290260D01*
X457702Y289870D01*
X452646D01*
X452186Y289680D01*
X451996Y289220D01*
Y288843D01*
X450346D01*
Y289220D01*
X450156Y289680D01*
X449697Y289870D01*
X443988D01*
X443529Y289680D01*
X443339Y289220D01*
Y288843D01*
X442004D01*
Y289220D01*
X441814Y289680D01*
X441354Y289870D01*
X435646D01*
X435186Y289680D01*
X434996Y289220D01*
Y288843D01*
X433504D01*
Y289220D01*
X433314Y289680D01*
X432854Y289870D01*
X427146D01*
X426686Y289680D01*
X426496Y289220D01*
Y288843D01*
X425504D01*
Y289220D01*
X425314Y289680D01*
X424854Y289870D01*
X419146D01*
X418686Y289680D01*
X418496Y289220D01*
Y288843D01*
X416504D01*
Y289220D01*
X416314Y289680D01*
X415854Y289870D01*
X410146D01*
X409687Y289680D01*
X409496Y289220D01*
Y284693D01*
X409687Y284234D01*
X410146Y284044D01*
X411053D01*
X411222Y283543D01*
X410789Y283211D01*
X410292Y282563D01*
X409980Y281809D01*
X409873Y281000D01*
X409980Y280191D01*
X410292Y279437D01*
X410789Y278789D01*
X411437Y278292D01*
X412191Y277980D01*
X413000Y277873D01*
X413809Y277980D01*
X414563Y278292D01*
X415211Y278789D01*
X415708Y279437D01*
X416020Y280191D01*
X416127Y281000D01*
X416020Y281809D01*
X415708Y282563D01*
X415211Y283211D01*
X414778Y283543D01*
X414947Y284044D01*
X415854D01*
X416314Y284234D01*
X416504Y284693D01*
Y285070D01*
X418496D01*
Y284693D01*
X418686Y284234D01*
X419146Y284044D01*
X424854D01*
X425314Y284234D01*
X425504Y284693D01*
Y285070D01*
X426496D01*
Y284693D01*
X426686Y284234D01*
X427146Y284044D01*
X432854D01*
X433314Y284234D01*
X433504Y284693D01*
Y285070D01*
X434996D01*
Y284693D01*
X435186Y284234D01*
X435646Y284044D01*
X441354D01*
X441814Y284234D01*
X442004Y284693D01*
Y285070D01*
X443339D01*
Y284693D01*
X443529Y284234D01*
X443988Y284044D01*
X444086D01*
X444222Y283593D01*
X444217Y283543D01*
X443504Y282996D01*
X442943Y282265D01*
X442590Y281414D01*
X442536Y281000D01*
X449464D01*
X449410Y281414D01*
X449057Y282265D01*
X448496Y282996D01*
X447783Y283543D01*
X447778Y283593D01*
X447915Y284044D01*
X449697D01*
X450156Y284234D01*
X450346Y284693D01*
Y285070D01*
X451996D01*
Y284693D01*
X452186Y284234D01*
X452646Y284044D01*
X453553D01*
X453722Y283543D01*
X453289Y283211D01*
X452792Y282563D01*
X452480Y281809D01*
X452373Y281000D01*
X452480Y280191D01*
X452792Y279437D01*
X453289Y278789D01*
X453937Y278292D01*
X454691Y277980D01*
X455500Y277873D01*
X456309Y277980D01*
X457063Y278292D01*
X457711Y278789D01*
X458208Y279437D01*
X458520Y280191D01*
X458627Y281000D01*
X458520Y281809D01*
X458208Y282563D01*
X457711Y283211D01*
X457278Y283543D01*
X457447Y284044D01*
X458354D01*
X458814Y284234D01*
X459004Y284693D01*
Y285836D01*
X463834Y290666D01*
X464243Y291278D01*
X464386Y292000D01*
Y294762D01*
X465238Y295614D01*
X476540D01*
X476789Y295289D01*
X477437Y294792D01*
X478191Y294480D01*
X479000Y294373D01*
X479809Y294480D01*
X480563Y294792D01*
X481211Y295289D01*
X481708Y295937D01*
X482020Y296691D01*
X482127Y297500D01*
X482020Y298309D01*
X481708Y299063D01*
X481211Y299711D01*
X480563Y300208D01*
X479809Y300520D01*
X479000Y300627D01*
X478191Y300520D01*
X477437Y300208D01*
X476789Y299711D01*
X476540Y299386D01*
X464457D01*
X463735Y299243D01*
X463123Y298834D01*
X462500Y298211D01*
X458457Y302254D01*
Y302746D01*
X463834Y308123D01*
X464243Y308735D01*
X464386Y309457D01*
Y314500D01*
X464243Y315222D01*
X463834Y315834D01*
X459791Y319877D01*
X459189Y320279D01*
Y320807D01*
X458999Y321266D01*
X458539Y321457D01*
X457873D01*
X457704Y321956D01*
X457896Y322104D01*
X458393Y322752D01*
X458705Y323506D01*
X458812Y324315D01*
X458705Y325124D01*
X458393Y325878D01*
X457896Y326526D01*
X457248Y327023D01*
X456494Y327335D01*
X455685Y327442D01*
X454876Y327335D01*
X454122Y327023D01*
X453474Y326526D01*
X453008Y325919D01*
X452730Y325885D01*
X452452Y325917D01*
X451991Y326518D01*
X451343Y327015D01*
X450589Y327327D01*
X449780Y327434D01*
X448970Y327327D01*
X448216Y327015D01*
X447569Y326518D01*
X447072Y325870D01*
X446759Y325116D01*
X446653Y324307D01*
X446759Y323498D01*
X447072Y322744D01*
X447569Y322096D01*
X447751Y321956D01*
X447581Y321457D01*
X444646D01*
X444186Y321266D01*
X443996Y320807D01*
Y320429D01*
X442504D01*
Y320807D01*
X442313Y321266D01*
X441854Y321457D01*
X440947D01*
X440778Y321956D01*
X441211Y322289D01*
X441708Y322937D01*
X442020Y323691D01*
X442127Y324500D01*
X442020Y325309D01*
X441708Y326063D01*
X441211Y326711D01*
X440563Y327208D01*
X439809Y327520D01*
X439000Y327627D01*
X438191Y327520D01*
X437437Y327208D01*
X436789Y326711D01*
X436292Y326063D01*
X435980Y325309D01*
X435873Y324500D01*
X435980Y323691D01*
X436292Y322937D01*
X436789Y322289D01*
X437222Y321956D01*
X437053Y321457D01*
X436146D01*
X435686Y321266D01*
X435496Y320807D01*
Y320429D01*
X434004D01*
Y320807D01*
X433813Y321266D01*
X433354Y321457D01*
X429173D01*
X426881Y323749D01*
X427064Y324191D01*
X427170Y325000D01*
X427064Y325809D01*
X426751Y326563D01*
X426254Y327211D01*
X425607Y327708D01*
X424853Y328020D01*
X424043Y328127D01*
D02*
G37*
G36*
X402464Y325500D02*
X395536D01*
X395590Y325086D01*
X395943Y324235D01*
X396504Y323504D01*
X397235Y322943D01*
X397570Y322804D01*
Y322263D01*
X397437Y322208D01*
X396789Y321711D01*
X396736Y321641D01*
X380264D01*
X380211Y321711D01*
X379563Y322208D01*
X378809Y322520D01*
X378000Y322627D01*
X377191Y322520D01*
X376437Y322208D01*
X375789Y321711D01*
X375292Y321063D01*
X374980Y320309D01*
X374873Y319500D01*
X374980Y318691D01*
X375292Y317937D01*
X375789Y317289D01*
X376437Y316792D01*
X377191Y316480D01*
X378000Y316373D01*
X378809Y316480D01*
X379563Y316792D01*
X380211Y317289D01*
X380264Y317359D01*
X396736D01*
X396789Y317289D01*
X397437Y316792D01*
X398191Y316480D01*
X399000Y316373D01*
X399809Y316480D01*
X400563Y316792D01*
X401211Y317289D01*
X401708Y317937D01*
X402020Y318691D01*
X402127Y319500D01*
X402020Y320309D01*
X401708Y321063D01*
X401211Y321711D01*
X400563Y322208D01*
X400430Y322263D01*
Y322804D01*
X400765Y322943D01*
X401496Y323504D01*
X402057Y324235D01*
X402410Y325086D01*
X402464Y325500D01*
D02*
G37*
G36*
X438500Y310957D02*
X435126D01*
Y309193D01*
X435204Y308803D01*
X435425Y308472D01*
X435755Y308251D01*
X436146Y308173D01*
X438500D01*
Y310957D01*
D02*
G37*
G36*
X442874D02*
X439500D01*
Y308173D01*
X441854D01*
X442244Y308251D01*
X442575Y308472D01*
X442796Y308803D01*
X442874Y309193D01*
Y310957D01*
D02*
G37*
G36*
X447000D02*
X443626D01*
Y309193D01*
X443704Y308803D01*
X443925Y308472D01*
X444255Y308251D01*
X444646Y308173D01*
X447000D01*
Y310957D01*
D02*
G37*
G36*
X434374D02*
X431000D01*
Y308173D01*
X433354D01*
X433744Y308251D01*
X434075Y308472D01*
X434296Y308803D01*
X434374Y309193D01*
Y310957D01*
D02*
G37*
G36*
X158000Y309964D02*
X157586Y309910D01*
X156735Y309557D01*
X156004Y308996D01*
X155443Y308265D01*
X155363Y308072D01*
X154867Y308007D01*
X154711Y308211D01*
X154063Y308708D01*
X153309Y309020D01*
X152500Y309127D01*
X151691Y309020D01*
X150937Y308708D01*
X150289Y308211D01*
X149792Y307563D01*
X149480Y306809D01*
X149373Y306000D01*
X149480Y305191D01*
X149792Y304437D01*
X150289Y303789D01*
X150937Y303292D01*
X151691Y302980D01*
X152500Y302873D01*
X153309Y302980D01*
X153751Y303163D01*
X200207Y256707D01*
X200207Y256707D01*
X200571Y256464D01*
X201000Y256378D01*
X201000Y256379D01*
X438109D01*
X438292Y255937D01*
X438789Y255289D01*
X439437Y254792D01*
X440191Y254480D01*
X441000Y254373D01*
X441809Y254480D01*
X442563Y254792D01*
X443211Y255289D01*
X443708Y255937D01*
X444020Y256691D01*
X444127Y257500D01*
X444020Y258309D01*
X443708Y259063D01*
X443211Y259711D01*
X442563Y260208D01*
X441809Y260520D01*
X441000Y260627D01*
X440191Y260520D01*
X439437Y260208D01*
X438789Y259711D01*
X438292Y259063D01*
X438109Y258622D01*
X201465D01*
X157458Y302628D01*
X157466Y302658D01*
X157721Y303072D01*
X158000Y303036D01*
Y306500D01*
Y309964D01*
D02*
G37*
G36*
X425374Y310957D02*
X422000D01*
Y308173D01*
X424354D01*
X424745Y308251D01*
X425075Y308472D01*
X425296Y308803D01*
X425374Y309193D01*
Y310957D01*
D02*
G37*
G36*
X430000D02*
X426626D01*
Y309193D01*
X426704Y308803D01*
X426925Y308472D01*
X427255Y308251D01*
X427646Y308173D01*
X430000D01*
Y310957D01*
D02*
G37*
G36*
X438500Y314740D02*
X436146D01*
X435755Y314662D01*
X435425Y314441D01*
X435204Y314111D01*
X435126Y313720D01*
Y311957D01*
X438500D01*
Y314740D01*
D02*
G37*
G36*
X441854D02*
X439500D01*
Y311957D01*
X442874D01*
Y313720D01*
X442796Y314111D01*
X442575Y314441D01*
X442244Y314662D01*
X441854Y314740D01*
D02*
G37*
G36*
X424354D02*
X422000D01*
Y311957D01*
X425374D01*
Y313720D01*
X425296Y314111D01*
X425075Y314441D01*
X424745Y314662D01*
X424354Y314740D01*
D02*
G37*
G36*
X430000D02*
X427646D01*
X427255Y314662D01*
X426925Y314441D01*
X426704Y314111D01*
X426626Y313720D01*
Y311957D01*
X430000D01*
Y314740D01*
D02*
G37*
G36*
X138000Y312500D02*
X134531D01*
X134603Y311956D01*
X135006Y310983D01*
X135647Y310147D01*
X136483Y309506D01*
X137456Y309103D01*
X138000Y309031D01*
Y312500D01*
D02*
G37*
G36*
X142469D02*
X139000D01*
Y309031D01*
X139544Y309103D01*
X140517Y309506D01*
X141353Y310147D01*
X141994Y310983D01*
X142397Y311956D01*
X142469Y312500D01*
D02*
G37*
G36*
X447000Y314740D02*
X444646D01*
X444255Y314662D01*
X443925Y314441D01*
X443704Y314111D01*
X443626Y313720D01*
Y311957D01*
X447000D01*
Y314740D01*
D02*
G37*
G36*
X138000Y357500D02*
X134531D01*
X134603Y356956D01*
X135006Y355983D01*
X135647Y355147D01*
X136483Y354506D01*
X137456Y354103D01*
X138000Y354031D01*
Y357500D01*
D02*
G37*
G36*
X142469D02*
X139000D01*
Y354031D01*
X139544Y354103D01*
X140517Y354506D01*
X141353Y355147D01*
X141994Y355983D01*
X142397Y356956D01*
X142469Y357500D01*
D02*
G37*
G36*
X681268Y358469D02*
X680723Y358397D01*
X679750Y357994D01*
X678915Y357353D01*
X678274Y356517D01*
X677871Y355544D01*
X677799Y355000D01*
X681268D01*
Y358469D01*
D02*
G37*
G36*
Y354000D02*
X677799D01*
X677871Y353456D01*
X678274Y352483D01*
X678915Y351647D01*
X679750Y351006D01*
X680723Y350603D01*
X681268Y350531D01*
Y354000D01*
D02*
G37*
G36*
X138000Y347020D02*
X135500D01*
X135110Y346942D01*
X134779Y346721D01*
X134558Y346390D01*
X134480Y346000D01*
Y343500D01*
X138000D01*
Y347020D01*
D02*
G37*
G36*
X141500D02*
X139000D01*
Y343500D01*
X142520D01*
Y346000D01*
X142442Y346390D01*
X142221Y346721D01*
X141890Y346942D01*
X141500Y347020D01*
D02*
G37*
G36*
X685736Y354000D02*
X682268D01*
Y350531D01*
X682812Y350603D01*
X683785Y351006D01*
X684621Y351647D01*
X685262Y352483D01*
X685665Y353456D01*
X685736Y354000D01*
D02*
G37*
G36*
X139000Y361969D02*
Y358500D01*
X142469D01*
X142397Y359044D01*
X141994Y360017D01*
X141353Y360853D01*
X140517Y361494D01*
X139544Y361897D01*
X139000Y361969D01*
D02*
G37*
G36*
X498000Y362464D02*
X497586Y362410D01*
X496735Y362057D01*
X496004Y361496D01*
X495443Y360765D01*
X495090Y359914D01*
X495036Y359500D01*
X498000D01*
Y362464D01*
D02*
G37*
G36*
X499000D02*
Y359500D01*
X501964D01*
X501910Y359914D01*
X501557Y360765D01*
X500996Y361496D01*
X500265Y362057D01*
X499414Y362410D01*
X499000Y362464D01*
D02*
G37*
G36*
X138000Y361969D02*
X137456Y361897D01*
X136483Y361494D01*
X135647Y360853D01*
X135006Y360017D01*
X134603Y359044D01*
X134531Y358500D01*
X138000D01*
Y361969D01*
D02*
G37*
G36*
X682268Y358469D02*
Y355000D01*
X685736D01*
X685665Y355544D01*
X685262Y356517D01*
X684621Y357353D01*
X683785Y357994D01*
X682812Y358397D01*
X682268Y358469D01*
D02*
G37*
G36*
X498000Y358500D02*
X495036D01*
X495090Y358086D01*
X495443Y357235D01*
X496004Y356504D01*
X496735Y355943D01*
X497586Y355590D01*
X498000Y355536D01*
Y358500D01*
D02*
G37*
G36*
X501964D02*
X499000D01*
Y355536D01*
X499414Y355590D01*
X500265Y355943D01*
X500996Y356504D01*
X501557Y357235D01*
X501910Y358086D01*
X501964Y358500D01*
D02*
G37*
G36*
X452000Y341500D02*
X449036D01*
X449090Y341086D01*
X449443Y340235D01*
X450004Y339504D01*
X450735Y338943D01*
X451586Y338590D01*
X452000Y338536D01*
Y341500D01*
D02*
G37*
G36*
X455964D02*
X453000D01*
Y338536D01*
X453414Y338590D01*
X454265Y338943D01*
X454996Y339504D01*
X455557Y340235D01*
X455910Y341086D01*
X455964Y341500D01*
D02*
G37*
G36*
X138000Y342500D02*
X134480D01*
Y340000D01*
X134558Y339610D01*
X134779Y339279D01*
X135110Y339058D01*
X135500Y338980D01*
X138000D01*
Y342500D01*
D02*
G37*
G36*
X444464Y341500D02*
X441500D01*
Y338536D01*
X441914Y338590D01*
X442765Y338943D01*
X443496Y339504D01*
X444057Y340235D01*
X444410Y341086D01*
X444464Y341500D01*
D02*
G37*
G36*
X399500Y329464D02*
Y326500D01*
X402464D01*
X402410Y326914D01*
X402057Y327765D01*
X401496Y328496D01*
X400765Y329057D01*
X399914Y329410D01*
X399500Y329464D01*
D02*
G37*
G36*
X138500Y336631D02*
X137560Y336507D01*
X136685Y336145D01*
X135932Y335567D01*
X135355Y334816D01*
X134993Y333940D01*
X134869Y333000D01*
X134993Y332060D01*
X135355Y331185D01*
X135932Y330433D01*
X136685Y329855D01*
X137560Y329493D01*
X138500Y329369D01*
X139440Y329493D01*
X140315Y329855D01*
X141068Y330433D01*
X141645Y331185D01*
X142007Y332060D01*
X142131Y333000D01*
X142007Y333940D01*
X141645Y334816D01*
X141068Y335567D01*
X140315Y336145D01*
X139440Y336507D01*
X138500Y336631D01*
D02*
G37*
G36*
X440500Y341500D02*
X437536D01*
X437590Y341086D01*
X437943Y340235D01*
X438504Y339504D01*
X439235Y338943D01*
X440086Y338590D01*
X440500Y338536D01*
Y341500D01*
D02*
G37*
G36*
X441500Y345464D02*
Y342500D01*
X444464D01*
X444410Y342914D01*
X444057Y343765D01*
X443496Y344496D01*
X442765Y345057D01*
X441914Y345410D01*
X441500Y345464D01*
D02*
G37*
G36*
X452000D02*
X451586Y345410D01*
X450735Y345057D01*
X450004Y344496D01*
X449443Y343765D01*
X449090Y342914D01*
X449036Y342500D01*
X452000D01*
Y345464D01*
D02*
G37*
G36*
X453000D02*
Y342500D01*
X455964D01*
X455910Y342914D01*
X455557Y343765D01*
X454996Y344496D01*
X454265Y345057D01*
X453414Y345410D01*
X453000Y345464D01*
D02*
G37*
G36*
X440500D02*
X440086Y345410D01*
X439235Y345057D01*
X438504Y344496D01*
X437943Y343765D01*
X437590Y342914D01*
X437536Y342500D01*
X440500D01*
Y345464D01*
D02*
G37*
G36*
X142520Y342500D02*
X139000D01*
Y338980D01*
X141500D01*
X141890Y339058D01*
X142221Y339279D01*
X142442Y339610D01*
X142520Y340000D01*
Y342500D01*
D02*
G37*
G36*
X434000Y357127D02*
X433191Y357020D01*
X432437Y356708D01*
X431789Y356211D01*
X431292Y355563D01*
X430980Y354809D01*
X430873Y354000D01*
X430980Y353191D01*
X431292Y352437D01*
X431789Y351789D01*
X432437Y351292D01*
X433191Y350980D01*
X434000Y350873D01*
X434809Y350980D01*
X435563Y351292D01*
X436211Y351789D01*
X436708Y352437D01*
X436891Y352878D01*
X448035D01*
X457267Y343647D01*
X457232Y343561D01*
X457125Y342752D01*
X457232Y341943D01*
X457544Y341189D01*
X458041Y340541D01*
X458689Y340044D01*
X459443Y339732D01*
X460252Y339625D01*
X461061Y339732D01*
X461815Y340044D01*
X462463Y340541D01*
X462960Y341189D01*
X463272Y341943D01*
X463379Y342752D01*
X463272Y343561D01*
X462960Y344315D01*
X462463Y344963D01*
X461815Y345460D01*
X461061Y345772D01*
X460252Y345879D01*
X459443Y345772D01*
X458689Y345460D01*
X458653Y345433D01*
X449293Y354793D01*
X448929Y355036D01*
X448500Y355122D01*
X448500Y355121D01*
X436891D01*
X436708Y355563D01*
X436211Y356211D01*
X435563Y356708D01*
X434809Y357020D01*
X434000Y357127D01*
D02*
G37*
G36*
X684768Y348149D02*
X678768D01*
X678308Y347959D01*
X678118Y347500D01*
Y341500D01*
X678308Y341041D01*
X678768Y340851D01*
X684768D01*
X685227Y341041D01*
X685417Y341500D01*
Y347500D01*
X685227Y347959D01*
X684768Y348149D01*
D02*
G37*
G36*
X159000Y309964D02*
Y307000D01*
X161964D01*
X161910Y307414D01*
X161557Y308265D01*
X160996Y308996D01*
X160265Y309557D01*
X159414Y309910D01*
X159000Y309964D01*
D02*
G37*
G36*
X449464Y280000D02*
X446500D01*
Y277036D01*
X446914Y277090D01*
X447765Y277443D01*
X448496Y278004D01*
X449057Y278735D01*
X449410Y279586D01*
X449464Y280000D01*
D02*
G37*
G36*
X143000Y284500D02*
X140036D01*
X140090Y284086D01*
X140443Y283235D01*
X141004Y282504D01*
X141735Y281943D01*
X142586Y281590D01*
X143000Y281536D01*
Y284500D01*
D02*
G37*
G36*
X146964D02*
X144000D01*
Y281536D01*
X144414Y281590D01*
X145265Y281943D01*
X145996Y282504D01*
X146557Y283235D01*
X146910Y284086D01*
X146964Y284500D01*
D02*
G37*
G36*
X445500Y280000D02*
X442536D01*
X442590Y279586D01*
X442943Y278735D01*
X443504Y278004D01*
X444235Y277443D01*
X445086Y277090D01*
X445500Y277036D01*
Y280000D01*
D02*
G37*
G36*
X479000Y282083D02*
X478073Y281961D01*
X477208Y281603D01*
X476466Y281034D01*
X475897Y280292D01*
X475539Y279427D01*
X475417Y278500D01*
X475539Y277573D01*
X475897Y276708D01*
X476466Y275966D01*
X477208Y275397D01*
X478073Y275039D01*
X479000Y274917D01*
X479927Y275039D01*
X480792Y275397D01*
X481534Y275966D01*
X482103Y276708D01*
X482461Y277573D01*
X482583Y278500D01*
X482461Y279427D01*
X482103Y280292D01*
X481534Y281034D01*
X480792Y281603D01*
X479927Y281961D01*
X479000Y282083D01*
D02*
G37*
G36*
X386543Y278921D02*
X386130Y278867D01*
X385278Y278514D01*
X384547Y277953D01*
X383986Y277222D01*
X383633Y276370D01*
X383579Y275957D01*
X386543D01*
Y278921D01*
D02*
G37*
G36*
X387543D02*
Y275957D01*
X390508D01*
X390453Y276370D01*
X390101Y277222D01*
X389540Y277953D01*
X388808Y278514D01*
X387957Y278867D01*
X387543Y278921D01*
D02*
G37*
G36*
X416874Y293543D02*
X413500D01*
Y290760D01*
X415854D01*
X416245Y290838D01*
X416575Y291059D01*
X416796Y291389D01*
X416874Y291779D01*
Y293543D01*
D02*
G37*
G36*
X421500D02*
X418126D01*
Y291779D01*
X418204Y291389D01*
X418425Y291059D01*
X418755Y290838D01*
X419146Y290760D01*
X421500D01*
Y293543D01*
D02*
G37*
G36*
X433874D02*
X430500D01*
Y290760D01*
X432854D01*
X433245Y290838D01*
X433575Y291059D01*
X433796Y291389D01*
X433874Y291779D01*
Y293543D01*
D02*
G37*
G36*
X412500D02*
X409126D01*
Y291779D01*
X409204Y291389D01*
X409425Y291059D01*
X409756Y290838D01*
X410146Y290760D01*
X412500D01*
Y293543D01*
D02*
G37*
G36*
X481953Y292102D02*
X476047D01*
X475588Y291912D01*
X475398Y291453D01*
Y285547D01*
X475588Y285088D01*
X476047Y284898D01*
X481953D01*
X482412Y285088D01*
X482602Y285547D01*
Y291453D01*
X482412Y291912D01*
X481953Y292102D01*
D02*
G37*
G36*
X143000Y288464D02*
X142586Y288410D01*
X141735Y288057D01*
X141004Y287496D01*
X140443Y286765D01*
X140090Y285914D01*
X140036Y285500D01*
X143000D01*
Y288464D01*
D02*
G37*
G36*
X144000D02*
Y285500D01*
X146964D01*
X146910Y285914D01*
X146557Y286765D01*
X145996Y287496D01*
X145265Y288057D01*
X144414Y288410D01*
X144000Y288464D01*
D02*
G37*
G36*
X120000Y266679D02*
X119969Y266666D01*
X119936Y266675D01*
X118760Y266560D01*
X118702Y266528D01*
X118635Y266535D01*
X117504Y266192D01*
X117453Y266149D01*
X117387Y266143D01*
X116344Y265586D01*
X116302Y265534D01*
X116238Y265515D01*
X115325Y264765D01*
X115294Y264706D01*
X115235Y264675D01*
X114485Y263761D01*
X114466Y263698D01*
X114414Y263656D01*
X113857Y262613D01*
X113851Y262547D01*
X113808Y262496D01*
X113465Y261365D01*
X113472Y261298D01*
X113441Y261240D01*
X113325Y260064D01*
X113344Y260000D01*
X113325Y259936D01*
X113441Y258760D01*
X113472Y258701D01*
X113465Y258635D01*
X113808Y257504D01*
X113851Y257453D01*
X113857Y257387D01*
X114414Y256344D01*
X114466Y256302D01*
X114485Y256239D01*
X115235Y255325D01*
X115294Y255293D01*
X115325Y255235D01*
X116238Y254485D01*
X116302Y254466D01*
X116344Y254414D01*
X117387Y253857D01*
X117453Y253851D01*
X117504Y253808D01*
X118635Y253465D01*
X118702Y253472D01*
X118760Y253440D01*
X119936Y253325D01*
X119969Y253334D01*
X120000Y253322D01*
X120031Y253334D01*
X120064Y253325D01*
X121240Y253440D01*
X121299Y253472D01*
X121365Y253465D01*
X122496Y253808D01*
X122547Y253851D01*
X122613Y253857D01*
X123656Y254414D01*
X123698Y254466D01*
X123762Y254485D01*
X124675Y255235D01*
X124706Y255293D01*
X124765Y255325D01*
X125515Y256239D01*
X125534Y256302D01*
X125586Y256344D01*
X126143Y257387D01*
X126149Y257453D01*
X126192Y257504D01*
X126535Y258635D01*
X126528Y258701D01*
X126559Y258760D01*
X126675Y259936D01*
X126656Y260000D01*
X126675Y260064D01*
X126559Y261240D01*
X126528Y261298D01*
X126535Y261365D01*
X126192Y262496D01*
X126149Y262547D01*
X126143Y262613D01*
X125586Y263656D01*
X125534Y263698D01*
X125515Y263761D01*
X124765Y264675D01*
X124706Y264706D01*
X124675Y264765D01*
X123762Y265515D01*
X123698Y265534D01*
X123656Y265586D01*
X122613Y266143D01*
X122547Y266149D01*
X122496Y266192D01*
X121365Y266535D01*
X121299Y266528D01*
X121240Y266560D01*
X120064Y266675D01*
X120031Y266666D01*
X120000Y266679D01*
D02*
G37*
G36*
X680000D02*
X679969Y266666D01*
X679936Y266675D01*
X678760Y266560D01*
X678701Y266528D01*
X678635Y266535D01*
X677504Y266192D01*
X677453Y266149D01*
X677387Y266143D01*
X676344Y265586D01*
X676302Y265534D01*
X676238Y265515D01*
X675325Y264765D01*
X675293Y264706D01*
X675235Y264675D01*
X674485Y263761D01*
X674466Y263698D01*
X674414Y263656D01*
X673857Y262613D01*
X673851Y262547D01*
X673808Y262496D01*
X673465Y261365D01*
X673472Y261298D01*
X673441Y261240D01*
X673325Y260064D01*
X673344Y260000D01*
X673325Y259936D01*
X673441Y258760D01*
X673472Y258701D01*
X673465Y258635D01*
X673808Y257504D01*
X673851Y257453D01*
X673857Y257387D01*
X674414Y256344D01*
X674466Y256302D01*
X674485Y256239D01*
X675235Y255325D01*
X675293Y255293D01*
X675325Y255235D01*
X676238Y254485D01*
X676302Y254466D01*
X676344Y254414D01*
X677387Y253857D01*
X677453Y253851D01*
X677504Y253808D01*
X678635Y253465D01*
X678701Y253472D01*
X678760Y253440D01*
X679936Y253325D01*
X679969Y253334D01*
X680000Y253322D01*
X680031Y253334D01*
X680064Y253325D01*
X681240Y253440D01*
X681298Y253472D01*
X681365Y253465D01*
X682496Y253808D01*
X682547Y253851D01*
X682613Y253857D01*
X683656Y254414D01*
X683698Y254466D01*
X683762Y254485D01*
X684675Y255235D01*
X684706Y255293D01*
X684765Y255325D01*
X685515Y256239D01*
X685534Y256302D01*
X685586Y256344D01*
X686143Y257387D01*
X686149Y257453D01*
X686192Y257504D01*
X686535Y258635D01*
X686528Y258701D01*
X686559Y258760D01*
X686675Y259936D01*
X686656Y260000D01*
X686675Y260064D01*
X686559Y261240D01*
X686528Y261298D01*
X686535Y261365D01*
X686192Y262496D01*
X686149Y262547D01*
X686143Y262613D01*
X685586Y263656D01*
X685534Y263698D01*
X685515Y263761D01*
X684765Y264675D01*
X684706Y264706D01*
X684675Y264765D01*
X683762Y265515D01*
X683698Y265534D01*
X683656Y265586D01*
X682613Y266143D01*
X682547Y266149D01*
X682496Y266192D01*
X681365Y266535D01*
X681298Y266528D01*
X681240Y266560D01*
X680064Y266675D01*
X680031Y266666D01*
X680000Y266679D01*
D02*
G37*
G36*
X466500Y271043D02*
X463126D01*
Y269280D01*
X463204Y268889D01*
X463425Y268559D01*
X463756Y268338D01*
X464146Y268260D01*
X466500D01*
Y271043D01*
D02*
G37*
G36*
X469854Y267370D02*
X464146D01*
X463687Y267180D01*
X463496Y266721D01*
Y266009D01*
X462996Y265839D01*
X462711Y266211D01*
X462063Y266708D01*
X461309Y267020D01*
X460500Y267127D01*
X459691Y267020D01*
X458937Y266708D01*
X458289Y266211D01*
X457792Y265563D01*
X457480Y264809D01*
X457373Y264000D01*
X457480Y263191D01*
X457792Y262437D01*
X458289Y261789D01*
X458937Y261292D01*
X459691Y260980D01*
X460500Y260873D01*
X461309Y260980D01*
X462063Y261292D01*
X462711Y261789D01*
X463005Y262172D01*
X463147Y262178D01*
X463551Y262062D01*
X463687Y261734D01*
X464146Y261543D01*
X469854D01*
X470314Y261734D01*
X470504Y262193D01*
Y266721D01*
X470314Y267180D01*
X469854Y267370D01*
D02*
G37*
G36*
X479000Y262083D02*
X478073Y261961D01*
X477208Y261603D01*
X476466Y261034D01*
X475897Y260292D01*
X475539Y259427D01*
X475417Y258500D01*
X475539Y257573D01*
X475897Y256708D01*
X476466Y255966D01*
X477208Y255397D01*
X478073Y255039D01*
X479000Y254917D01*
X479927Y255039D01*
X480792Y255397D01*
X481534Y255966D01*
X482103Y256708D01*
X482461Y257573D01*
X482583Y258500D01*
X482461Y259427D01*
X482103Y260292D01*
X481534Y261034D01*
X480792Y261603D01*
X479927Y261961D01*
X479000Y262083D01*
D02*
G37*
G36*
X478500Y268000D02*
X475079D01*
X475149Y267468D01*
X475547Y266507D01*
X476181Y265681D01*
X477007Y265047D01*
X477968Y264649D01*
X478500Y264579D01*
Y268000D01*
D02*
G37*
G36*
X482921D02*
X479500D01*
Y264579D01*
X480032Y264649D01*
X480993Y265047D01*
X481819Y265681D01*
X482453Y266507D01*
X482851Y267468D01*
X482921Y268000D01*
D02*
G37*
G36*
X390508Y274957D02*
X387543D01*
Y271992D01*
X387957Y272047D01*
X388808Y272399D01*
X389540Y272960D01*
X390101Y273692D01*
X390453Y274543D01*
X390508Y274957D01*
D02*
G37*
G36*
X466500Y274827D02*
X464146D01*
X463756Y274749D01*
X463425Y274528D01*
X463204Y274197D01*
X463126Y273807D01*
Y272043D01*
X466500D01*
Y274827D01*
D02*
G37*
G36*
X469854D02*
X467500D01*
Y272043D01*
X470874D01*
Y273807D01*
X470796Y274197D01*
X470575Y274528D01*
X470245Y274749D01*
X469854Y274827D01*
D02*
G37*
G36*
X386543Y274957D02*
X383579D01*
X383633Y274543D01*
X383986Y273692D01*
X384547Y272960D01*
X385278Y272399D01*
X386130Y272047D01*
X386543Y271992D01*
Y274957D01*
D02*
G37*
G36*
X470874Y271043D02*
X467500D01*
Y268260D01*
X469854D01*
X470245Y268338D01*
X470575Y268559D01*
X470796Y268889D01*
X470874Y269280D01*
Y271043D01*
D02*
G37*
G36*
X478500Y272421D02*
X477968Y272351D01*
X477007Y271953D01*
X476181Y271319D01*
X475547Y270493D01*
X475149Y269532D01*
X475079Y269000D01*
X478500D01*
Y272421D01*
D02*
G37*
G36*
X479500D02*
Y269000D01*
X482921D01*
X482851Y269532D01*
X482453Y270493D01*
X481819Y271319D01*
X480993Y271953D01*
X480032Y272351D01*
X479500Y272421D01*
D02*
G37*
G36*
X451740Y302000D02*
X448957D01*
Y298626D01*
X450721D01*
X451111Y298704D01*
X451441Y298925D01*
X451662Y299255D01*
X451740Y299646D01*
Y302000D01*
D02*
G37*
G36*
X647500Y303000D02*
X644536D01*
X644590Y302586D01*
X644943Y301735D01*
X645504Y301004D01*
X646235Y300443D01*
X647086Y300090D01*
X647500Y300036D01*
Y303000D01*
D02*
G37*
G36*
X651464D02*
X648500D01*
Y300036D01*
X648914Y300090D01*
X649765Y300443D01*
X650496Y301004D01*
X651057Y301735D01*
X651410Y302586D01*
X651464Y303000D01*
D02*
G37*
G36*
X447957Y302000D02*
X445173D01*
Y299646D01*
X445251Y299255D01*
X445472Y298925D01*
X445803Y298704D01*
X446193Y298626D01*
X447957D01*
Y302000D01*
D02*
G37*
G36*
X429500Y297327D02*
X427146D01*
X426756Y297249D01*
X426425Y297028D01*
X426278Y296808D01*
X426115Y296771D01*
X425885D01*
X425722Y296808D01*
X425575Y297028D01*
X425245Y297249D01*
X424854Y297327D01*
X422500D01*
Y294043D01*
Y290760D01*
X424854D01*
X425245Y290838D01*
X425575Y291059D01*
X425722Y291279D01*
X425885Y291316D01*
X426115D01*
X426278Y291279D01*
X426425Y291059D01*
X426756Y290838D01*
X427146Y290760D01*
X429500D01*
Y294043D01*
Y297327D01*
D02*
G37*
G36*
X428043Y302000D02*
X425260D01*
Y299646D01*
X425338Y299255D01*
X425559Y298925D01*
X425889Y298704D01*
X426279Y298626D01*
X428043D01*
Y302000D01*
D02*
G37*
G36*
X431827D02*
X429043D01*
Y298626D01*
X430807D01*
X431197Y298704D01*
X431528Y298925D01*
X431749Y299255D01*
X431827Y299646D01*
Y302000D01*
D02*
G37*
G36*
X161964Y306000D02*
X159000D01*
Y303036D01*
X159414Y303090D01*
X160265Y303443D01*
X160996Y304004D01*
X161557Y304735D01*
X161910Y305586D01*
X161964Y306000D01*
D02*
G37*
G36*
X647500Y306964D02*
X647086Y306910D01*
X646235Y306557D01*
X645504Y305996D01*
X644943Y305265D01*
X644590Y304414D01*
X644536Y304000D01*
X647500D01*
Y306964D01*
D02*
G37*
G36*
X648500D02*
Y304000D01*
X651464D01*
X651410Y304414D01*
X651057Y305265D01*
X650496Y305996D01*
X649765Y306557D01*
X648914Y306910D01*
X648500Y306964D01*
D02*
G37*
G36*
X450721Y306374D02*
X448957D01*
Y303000D01*
X451740D01*
Y305354D01*
X451662Y305745D01*
X451441Y306075D01*
X451111Y306296D01*
X450721Y306374D01*
D02*
G37*
G36*
X447957D02*
X446193D01*
X445803Y306296D01*
X445472Y306075D01*
X445251Y305745D01*
X445173Y305354D01*
Y303000D01*
X447957D01*
Y306374D01*
D02*
G37*
G36*
X428043Y306374D02*
X426279D01*
X425889Y306296D01*
X425559Y306075D01*
X425338Y305745D01*
X425260Y305354D01*
Y303000D01*
X428043D01*
Y306374D01*
D02*
G37*
G36*
X430807D02*
X429043D01*
Y303000D01*
X431827D01*
Y305354D01*
X431749Y305745D01*
X431528Y306075D01*
X431197Y306296D01*
X430807Y306374D01*
D02*
G37*
G36*
X455000Y293543D02*
X451626D01*
Y291779D01*
X451704Y291389D01*
X451925Y291059D01*
X452255Y290838D01*
X452646Y290760D01*
X455000D01*
Y293543D01*
D02*
G37*
G36*
X412500Y297327D02*
X410146D01*
X409756Y297249D01*
X409425Y297028D01*
X409204Y296697D01*
X409126Y296307D01*
Y294543D01*
X412500D01*
Y297327D01*
D02*
G37*
G36*
X415854D02*
X413500D01*
Y294543D01*
X416874D01*
Y296307D01*
X416796Y296697D01*
X416575Y297028D01*
X416245Y297249D01*
X415854Y297327D01*
D02*
G37*
G36*
X450716Y293543D02*
X447342D01*
Y290760D01*
X449697D01*
X450087Y290838D01*
X450418Y291059D01*
X450639Y291389D01*
X450716Y291779D01*
Y293543D01*
D02*
G37*
G36*
X438000D02*
X434626D01*
Y291779D01*
X434704Y291389D01*
X434925Y291059D01*
X435255Y290838D01*
X435646Y290760D01*
X438000D01*
Y293543D01*
D02*
G37*
G36*
X442374D02*
X439000D01*
Y290760D01*
X441354D01*
X441745Y290838D01*
X442075Y291059D01*
X442296Y291389D01*
X442374Y291779D01*
Y293543D01*
D02*
G37*
G36*
X446343D02*
X442969D01*
Y291779D01*
X443046Y291389D01*
X443267Y291059D01*
X443598Y290838D01*
X443988Y290760D01*
X446343D01*
Y293543D01*
D02*
G37*
G36*
Y297327D02*
X443988D01*
X443598Y297249D01*
X443267Y297028D01*
X443046Y296697D01*
X442969Y296307D01*
Y294543D01*
X446343D01*
Y297327D01*
D02*
G37*
G36*
X449697D02*
X447342D01*
Y294543D01*
X450716D01*
Y296307D01*
X450639Y296697D01*
X450418Y297028D01*
X450087Y297249D01*
X449697Y297327D01*
D02*
G37*
G36*
X455000D02*
X452646D01*
X452255Y297249D01*
X451925Y297028D01*
X451704Y296697D01*
X451626Y296307D01*
Y294543D01*
X455000D01*
Y297327D01*
D02*
G37*
G36*
X441354D02*
X439000D01*
Y294543D01*
X442374D01*
Y296307D01*
X442296Y296697D01*
X442075Y297028D01*
X441745Y297249D01*
X441354Y297327D01*
D02*
G37*
G36*
X421500D02*
X419146D01*
X418755Y297249D01*
X418425Y297028D01*
X418204Y296697D01*
X418126Y296307D01*
Y294543D01*
X421500D01*
Y297327D01*
D02*
G37*
G36*
X432854D02*
X430500D01*
Y294543D01*
X433874D01*
Y296307D01*
X433796Y296697D01*
X433575Y297028D01*
X433245Y297249D01*
X432854Y297327D01*
D02*
G37*
G36*
X438000D02*
X435646D01*
X435255Y297249D01*
X434925Y297028D01*
X434704Y296697D01*
X434626Y296307D01*
Y294543D01*
X438000D01*
Y297327D01*
D02*
G37*
G36*
X633000Y465871D02*
X632060Y465747D01*
X631184Y465385D01*
X630432Y464808D01*
X629855Y464056D01*
X629493Y463180D01*
X629369Y462240D01*
X629493Y461300D01*
X629855Y460425D01*
X630432Y459673D01*
X631184Y459096D01*
X632060Y458733D01*
X633000Y458609D01*
X633940Y458733D01*
X634816Y459096D01*
X635568Y459673D01*
X636145Y460425D01*
X636507Y461300D01*
X636631Y462240D01*
X636507Y463180D01*
X636145Y464056D01*
X635568Y464808D01*
X634816Y465385D01*
X633940Y465747D01*
X633000Y465871D01*
D02*
G37*
G36*
X186000Y465709D02*
X185456Y465637D01*
X184483Y465234D01*
X183647Y464593D01*
X183006Y463757D01*
X182603Y462784D01*
X182531Y462240D01*
X186000D01*
Y465709D01*
D02*
G37*
G36*
X206000D02*
X205456Y465637D01*
X204483Y465234D01*
X203647Y464593D01*
X203006Y463757D01*
X202603Y462784D01*
X202531Y462240D01*
X206000D01*
Y465709D01*
D02*
G37*
G36*
X584000Y465871D02*
X583060Y465747D01*
X582185Y465385D01*
X581432Y464808D01*
X580855Y464056D01*
X580493Y463180D01*
X580369Y462240D01*
X580493Y461300D01*
X580855Y460425D01*
X581432Y459673D01*
X582185Y459096D01*
X583060Y458733D01*
X584000Y458609D01*
X584940Y458733D01*
X585815Y459096D01*
X586567Y459673D01*
X587145Y460425D01*
X587507Y461300D01*
X587631Y462240D01*
X587507Y463180D01*
X587145Y464056D01*
X586567Y464808D01*
X585815Y465385D01*
X584940Y465747D01*
X584000Y465871D01*
D02*
G37*
G36*
X646969Y461740D02*
X643500D01*
Y458272D01*
X644044Y458343D01*
X645017Y458746D01*
X645853Y459387D01*
X646494Y460223D01*
X646897Y461196D01*
X646969Y461740D01*
D02*
G37*
G36*
X607000Y465890D02*
X601000D01*
X600541Y465699D01*
X600351Y465240D01*
Y459240D01*
X600541Y458781D01*
X601000Y458591D01*
X607000D01*
X607459Y458781D01*
X607649Y459240D01*
Y465240D01*
X607459Y465699D01*
X607000Y465890D01*
D02*
G37*
G36*
X656000D02*
X650000D01*
X649541Y465699D01*
X649351Y465240D01*
Y459240D01*
X649541Y458781D01*
X650000Y458591D01*
X656000D01*
X656459Y458781D01*
X656649Y459240D01*
Y465240D01*
X656459Y465699D01*
X656000Y465890D01*
D02*
G37*
G36*
X389260Y465709D02*
X388716Y465637D01*
X387743Y465234D01*
X386907Y464593D01*
X386266Y463757D01*
X385863Y462784D01*
X385791Y462240D01*
X389260D01*
Y465709D01*
D02*
G37*
G36*
X409260D02*
X408716Y465637D01*
X407743Y465234D01*
X406907Y464593D01*
X406266Y463757D01*
X405863Y462784D01*
X405791Y462240D01*
X409260D01*
Y465709D01*
D02*
G37*
G36*
X453500D02*
X452956Y465637D01*
X451983Y465234D01*
X451147Y464593D01*
X450506Y463757D01*
X450103Y462784D01*
X450031Y462240D01*
X453500D01*
Y465709D01*
D02*
G37*
G36*
X343000D02*
X342456Y465637D01*
X341483Y465234D01*
X340647Y464593D01*
X340006Y463757D01*
X339603Y462784D01*
X339531Y462240D01*
X343000D01*
Y465709D01*
D02*
G37*
G36*
X255260D02*
X254716Y465637D01*
X253743Y465234D01*
X252907Y464593D01*
X252266Y463757D01*
X251863Y462784D01*
X251791Y462240D01*
X255260D01*
Y465709D01*
D02*
G37*
G36*
X275260D02*
X274716Y465637D01*
X273743Y465234D01*
X272907Y464593D01*
X272266Y463757D01*
X271863Y462784D01*
X271791Y462240D01*
X275260D01*
Y465709D01*
D02*
G37*
G36*
X323000D02*
X322456Y465637D01*
X321483Y465234D01*
X320647Y464593D01*
X320006Y463757D01*
X319603Y462784D01*
X319531Y462240D01*
X323000D01*
Y465709D01*
D02*
G37*
G36*
X464000Y465371D02*
X463060Y465247D01*
X462184Y464885D01*
X461433Y464308D01*
X460855Y463556D01*
X460493Y462680D01*
X460369Y461740D01*
X460493Y460800D01*
X460855Y459925D01*
X461433Y459173D01*
X462184Y458596D01*
X463060Y458233D01*
X464000Y458109D01*
X464940Y458233D01*
X465815Y458596D01*
X466568Y459173D01*
X467145Y459925D01*
X467507Y460800D01*
X467631Y461740D01*
X467507Y462680D01*
X467145Y463556D01*
X466568Y464308D01*
X465815Y464885D01*
X464940Y465247D01*
X464000Y465371D01*
D02*
G37*
G36*
X528500D02*
X527560Y465247D01*
X526685Y464885D01*
X525933Y464308D01*
X525355Y463556D01*
X524993Y462680D01*
X524869Y461740D01*
X524993Y460800D01*
X525355Y459925D01*
X525933Y459173D01*
X526685Y458596D01*
X527560Y458233D01*
X528500Y458109D01*
X529440Y458233D01*
X530315Y458596D01*
X531068Y459173D01*
X531645Y459925D01*
X532007Y460800D01*
X532131Y461740D01*
X532007Y462680D01*
X531645Y463556D01*
X531068Y464308D01*
X530315Y464885D01*
X529440Y465247D01*
X528500Y465371D01*
D02*
G37*
G36*
X148500Y465371D02*
X147560Y465247D01*
X146685Y464885D01*
X145932Y464308D01*
X145355Y463556D01*
X144993Y462680D01*
X144869Y461740D01*
X144993Y460800D01*
X145355Y459925D01*
X145932Y459173D01*
X146685Y458596D01*
X147560Y458233D01*
X148500Y458109D01*
X149440Y458233D01*
X150315Y458596D01*
X151068Y459173D01*
X151645Y459925D01*
X152007Y460800D01*
X152131Y461740D01*
X152007Y462680D01*
X151645Y463556D01*
X151068Y464308D01*
X150315Y464885D01*
X149440Y465247D01*
X148500Y465371D01*
D02*
G37*
G36*
X399760Y465371D02*
X398820Y465247D01*
X397944Y464885D01*
X397192Y464308D01*
X396615Y463556D01*
X396252Y462680D01*
X396129Y461740D01*
X396252Y460800D01*
X396615Y459925D01*
X397192Y459173D01*
X397944Y458596D01*
X398820Y458233D01*
X399760Y458109D01*
X400700Y458233D01*
X401575Y458596D01*
X402327Y459173D01*
X402904Y459925D01*
X403267Y460800D01*
X403391Y461740D01*
X403267Y462680D01*
X402904Y463556D01*
X402327Y464308D01*
X401575Y464885D01*
X400700Y465247D01*
X399760Y465371D01*
D02*
G37*
G36*
X196500D02*
X195560Y465247D01*
X194685Y464885D01*
X193932Y464308D01*
X193355Y463556D01*
X192993Y462680D01*
X192869Y461740D01*
X192993Y460800D01*
X193355Y459925D01*
X193932Y459173D01*
X194685Y458596D01*
X195560Y458233D01*
X196500Y458109D01*
X197440Y458233D01*
X198316Y458596D01*
X199068Y459173D01*
X199645Y459925D01*
X200007Y460800D01*
X200131Y461740D01*
X200007Y462680D01*
X199645Y463556D01*
X199068Y464308D01*
X198316Y464885D01*
X197440Y465247D01*
X196500Y465371D01*
D02*
G37*
G36*
X265760D02*
X264820Y465247D01*
X263944Y464885D01*
X263192Y464308D01*
X262615Y463556D01*
X262252Y462680D01*
X262129Y461740D01*
X262252Y460800D01*
X262615Y459925D01*
X263192Y459173D01*
X263944Y458596D01*
X264820Y458233D01*
X265760Y458109D01*
X266700Y458233D01*
X267575Y458596D01*
X268327Y459173D01*
X268904Y459925D01*
X269267Y460800D01*
X269391Y461740D01*
X269267Y462680D01*
X268904Y463556D01*
X268327Y464308D01*
X267575Y464885D01*
X266700Y465247D01*
X265760Y465371D01*
D02*
G37*
G36*
X333500D02*
X332560Y465247D01*
X331684Y464885D01*
X330932Y464308D01*
X330355Y463556D01*
X329993Y462680D01*
X329869Y461740D01*
X329993Y460800D01*
X330355Y459925D01*
X330932Y459173D01*
X331684Y458596D01*
X332560Y458233D01*
X333500Y458109D01*
X334440Y458233D01*
X335315Y458596D01*
X336068Y459173D01*
X336645Y459925D01*
X337007Y460800D01*
X337131Y461740D01*
X337007Y462680D01*
X336645Y463556D01*
X336068Y464308D01*
X335315Y464885D01*
X334440Y465247D01*
X333500Y465371D01*
D02*
G37*
G36*
X577969Y461740D02*
X574500D01*
Y458272D01*
X575044Y458343D01*
X576017Y458746D01*
X576853Y459387D01*
X577494Y460223D01*
X577897Y461196D01*
X577969Y461740D01*
D02*
G37*
G36*
X597969D02*
X594500D01*
Y458272D01*
X595044Y458343D01*
X596017Y458746D01*
X596853Y459387D01*
X597494Y460223D01*
X597897Y461196D01*
X597969Y461740D01*
D02*
G37*
G36*
X626969D02*
X623500D01*
Y458272D01*
X624044Y458343D01*
X625017Y458746D01*
X625853Y459387D01*
X626494Y460223D01*
X626897Y461196D01*
X626969Y461740D01*
D02*
G37*
G36*
X642500D02*
X639031D01*
X639103Y461196D01*
X639506Y460223D01*
X640147Y459387D01*
X640983Y458746D01*
X641956Y458343D01*
X642500Y458272D01*
Y461740D01*
D02*
G37*
G36*
X573500D02*
X570031D01*
X570103Y461196D01*
X570506Y460223D01*
X571147Y459387D01*
X571983Y458746D01*
X572956Y458343D01*
X573500Y458272D01*
Y461740D01*
D02*
G37*
G36*
X593500D02*
X590031D01*
X590103Y461196D01*
X590506Y460223D01*
X591147Y459387D01*
X591983Y458746D01*
X592956Y458343D01*
X593500Y458272D01*
Y461740D01*
D02*
G37*
G36*
X622500D02*
X619031D01*
X619103Y461196D01*
X619506Y460223D01*
X620147Y459387D01*
X620983Y458746D01*
X621956Y458343D01*
X622500Y458272D01*
Y461740D01*
D02*
G37*
G36*
X473500Y465709D02*
X472956Y465637D01*
X471983Y465234D01*
X471147Y464593D01*
X470506Y463757D01*
X470103Y462784D01*
X470031Y462240D01*
X473500D01*
Y465709D01*
D02*
G37*
G36*
X573500Y466209D02*
X572956Y466137D01*
X571983Y465734D01*
X571147Y465093D01*
X570506Y464257D01*
X570103Y463284D01*
X570031Y462740D01*
X573500D01*
Y466209D01*
D02*
G37*
G36*
X593500D02*
X592956Y466137D01*
X591983Y465734D01*
X591147Y465093D01*
X590506Y464257D01*
X590103Y463284D01*
X590031Y462740D01*
X593500D01*
Y466209D01*
D02*
G37*
G36*
X622500D02*
X621956Y466137D01*
X620983Y465734D01*
X620147Y465093D01*
X619506Y464257D01*
X619103Y463284D01*
X619031Y462740D01*
X622500D01*
Y466209D01*
D02*
G37*
G36*
X159000Y465709D02*
Y462240D01*
X162469D01*
X162397Y462784D01*
X161994Y463757D01*
X161353Y464593D01*
X160517Y465234D01*
X159544Y465637D01*
X159000Y465709D01*
D02*
G37*
G36*
X138000D02*
X137456Y465637D01*
X136483Y465234D01*
X135647Y464593D01*
X135006Y463757D01*
X134603Y462784D01*
X134531Y462240D01*
X138000D01*
Y465709D01*
D02*
G37*
G36*
X158000D02*
X157456Y465637D01*
X156483Y465234D01*
X155647Y464593D01*
X155006Y463757D01*
X154603Y462784D01*
X154531Y462240D01*
X158000D01*
Y465709D01*
D02*
G37*
G36*
X139000D02*
Y462240D01*
X142469D01*
X142397Y462784D01*
X141994Y463757D01*
X141353Y464593D01*
X140517Y465234D01*
X139544Y465637D01*
X139000Y465709D01*
D02*
G37*
G36*
X643500Y466209D02*
Y462740D01*
X646969D01*
X646897Y463284D01*
X646494Y464257D01*
X645853Y465093D01*
X645017Y465734D01*
X644044Y466137D01*
X643500Y466209D01*
D02*
G37*
G36*
X120000Y486679D02*
X119969Y486665D01*
X119936Y486675D01*
X118760Y486559D01*
X118702Y486528D01*
X118635Y486535D01*
X117504Y486192D01*
X117453Y486149D01*
X117387Y486143D01*
X116344Y485586D01*
X116302Y485534D01*
X116238Y485515D01*
X115325Y484765D01*
X115294Y484706D01*
X115235Y484675D01*
X114485Y483762D01*
X114466Y483698D01*
X114414Y483656D01*
X113857Y482613D01*
X113851Y482547D01*
X113808Y482496D01*
X113465Y481365D01*
X113472Y481298D01*
X113441Y481240D01*
X113325Y480064D01*
X113344Y480000D01*
X113325Y479936D01*
X113441Y478760D01*
X113472Y478701D01*
X113465Y478635D01*
X113808Y477504D01*
X113851Y477453D01*
X113857Y477387D01*
X114414Y476344D01*
X114466Y476302D01*
X114485Y476238D01*
X115235Y475325D01*
X115294Y475293D01*
X115325Y475235D01*
X116238Y474485D01*
X116302Y474466D01*
X116344Y474414D01*
X117387Y473857D01*
X117453Y473851D01*
X117504Y473808D01*
X118635Y473465D01*
X118702Y473472D01*
X118760Y473441D01*
X119936Y473325D01*
X119969Y473335D01*
X120000Y473321D01*
X120031Y473335D01*
X120064Y473325D01*
X121240Y473441D01*
X121299Y473472D01*
X121365Y473465D01*
X122496Y473808D01*
X122547Y473851D01*
X122613Y473857D01*
X123656Y474414D01*
X123698Y474466D01*
X123762Y474485D01*
X124675Y475235D01*
X124706Y475293D01*
X124765Y475325D01*
X125515Y476238D01*
X125534Y476302D01*
X125586Y476344D01*
X126143Y477387D01*
X126149Y477453D01*
X126192Y477504D01*
X126535Y478635D01*
X126528Y478701D01*
X126559Y478760D01*
X126675Y479936D01*
X126656Y480000D01*
X126675Y480064D01*
X126559Y481240D01*
X126528Y481298D01*
X126535Y481365D01*
X126192Y482496D01*
X126149Y482547D01*
X126143Y482613D01*
X125586Y483656D01*
X125534Y483698D01*
X125515Y483762D01*
X124765Y484675D01*
X124706Y484706D01*
X124675Y484765D01*
X123762Y485515D01*
X123698Y485534D01*
X123656Y485586D01*
X122613Y486143D01*
X122547Y486149D01*
X122496Y486192D01*
X121365Y486535D01*
X121299Y486528D01*
X121240Y486559D01*
X120064Y486675D01*
X120031Y486665D01*
X120000Y486679D01*
D02*
G37*
G36*
X680000D02*
X679969Y486665D01*
X679936Y486675D01*
X678760Y486559D01*
X678701Y486528D01*
X678635Y486535D01*
X677504Y486192D01*
X677453Y486149D01*
X677387Y486143D01*
X676344Y485586D01*
X676302Y485534D01*
X676238Y485515D01*
X675325Y484765D01*
X675293Y484706D01*
X675235Y484675D01*
X674485Y483762D01*
X674466Y483698D01*
X674414Y483656D01*
X673857Y482613D01*
X673851Y482547D01*
X673808Y482496D01*
X673465Y481365D01*
X673472Y481298D01*
X673441Y481240D01*
X673325Y480064D01*
X673344Y480000D01*
X673325Y479936D01*
X673441Y478760D01*
X673472Y478701D01*
X673465Y478635D01*
X673808Y477504D01*
X673851Y477453D01*
X673857Y477387D01*
X674414Y476344D01*
X674466Y476302D01*
X674485Y476238D01*
X675235Y475325D01*
X675293Y475293D01*
X675325Y475235D01*
X676238Y474485D01*
X676302Y474466D01*
X676344Y474414D01*
X677387Y473857D01*
X677453Y473851D01*
X677504Y473808D01*
X678635Y473465D01*
X678701Y473472D01*
X678760Y473441D01*
X679936Y473325D01*
X679969Y473335D01*
X680000Y473321D01*
X680031Y473335D01*
X680064Y473325D01*
X681240Y473441D01*
X681298Y473472D01*
X681365Y473465D01*
X682496Y473808D01*
X682547Y473851D01*
X682613Y473857D01*
X683656Y474414D01*
X683698Y474466D01*
X683762Y474485D01*
X684675Y475235D01*
X684706Y475293D01*
X684765Y475325D01*
X685515Y476238D01*
X685534Y476302D01*
X685586Y476344D01*
X686143Y477387D01*
X686149Y477453D01*
X686192Y477504D01*
X686535Y478635D01*
X686528Y478701D01*
X686559Y478760D01*
X686675Y479936D01*
X686656Y480000D01*
X686675Y480064D01*
X686559Y481240D01*
X686528Y481298D01*
X686535Y481365D01*
X686192Y482496D01*
X686149Y482547D01*
X686143Y482613D01*
X685586Y483656D01*
X685534Y483698D01*
X685515Y483762D01*
X684765Y484675D01*
X684706Y484706D01*
X684675Y484765D01*
X683762Y485515D01*
X683698Y485534D01*
X683656Y485586D01*
X682613Y486143D01*
X682547Y486149D01*
X682496Y486192D01*
X681365Y486535D01*
X681298Y486528D01*
X681240Y486559D01*
X680064Y486675D01*
X680031Y486665D01*
X680000Y486679D01*
D02*
G37*
G36*
X623500Y466209D02*
Y462740D01*
X626969D01*
X626897Y463284D01*
X626494Y464257D01*
X625853Y465093D01*
X625017Y465734D01*
X624044Y466137D01*
X623500Y466209D01*
D02*
G37*
G36*
X642500Y466209D02*
X641956Y466137D01*
X640983Y465734D01*
X640147Y465093D01*
X639506Y464257D01*
X639103Y463284D01*
X639031Y462740D01*
X642500D01*
Y466209D01*
D02*
G37*
G36*
X574500Y466209D02*
Y462740D01*
X577969D01*
X577897Y463284D01*
X577494Y464257D01*
X576853Y465093D01*
X576017Y465734D01*
X575044Y466137D01*
X574500Y466209D01*
D02*
G37*
G36*
X594500D02*
Y462740D01*
X597969D01*
X597897Y463284D01*
X597494Y464257D01*
X596853Y465093D01*
X596017Y465734D01*
X595044Y466137D01*
X594500Y466209D01*
D02*
G37*
G36*
X256260Y465709D02*
Y462240D01*
X259729D01*
X259657Y462784D01*
X259254Y463757D01*
X258613Y464593D01*
X257777Y465234D01*
X256804Y465637D01*
X256260Y465709D01*
D02*
G37*
G36*
X276260D02*
Y462240D01*
X279729D01*
X279657Y462784D01*
X279254Y463757D01*
X278613Y464593D01*
X277777Y465234D01*
X276804Y465637D01*
X276260Y465709D01*
D02*
G37*
G36*
X324000D02*
Y462240D01*
X327469D01*
X327397Y462784D01*
X326994Y463757D01*
X326353Y464593D01*
X325517Y465234D01*
X324544Y465637D01*
X324000Y465709D01*
D02*
G37*
G36*
X207000D02*
Y462240D01*
X210469D01*
X210397Y462784D01*
X209994Y463757D01*
X209353Y464593D01*
X208517Y465234D01*
X207544Y465637D01*
X207000Y465709D01*
D02*
G37*
G36*
X518000Y465709D02*
X517456Y465637D01*
X516483Y465234D01*
X515647Y464593D01*
X515006Y463757D01*
X514603Y462784D01*
X514531Y462240D01*
X518000D01*
Y465709D01*
D02*
G37*
G36*
X538000D02*
X537456Y465637D01*
X536483Y465234D01*
X535647Y464593D01*
X535006Y463757D01*
X534603Y462784D01*
X534531Y462240D01*
X538000D01*
Y465709D01*
D02*
G37*
G36*
X187000Y465709D02*
Y462240D01*
X190469D01*
X190397Y462784D01*
X189994Y463757D01*
X189353Y464593D01*
X188517Y465234D01*
X187544Y465637D01*
X187000Y465709D01*
D02*
G37*
G36*
X474500D02*
Y462240D01*
X477969D01*
X477897Y462784D01*
X477494Y463757D01*
X476853Y464593D01*
X476017Y465234D01*
X475044Y465637D01*
X474500Y465709D01*
D02*
G37*
G36*
X519000D02*
Y462240D01*
X522469D01*
X522397Y462784D01*
X521994Y463757D01*
X521353Y464593D01*
X520517Y465234D01*
X519544Y465637D01*
X519000Y465709D01*
D02*
G37*
G36*
X539000D02*
Y462240D01*
X542469D01*
X542397Y462784D01*
X541994Y463757D01*
X541353Y464593D01*
X540517Y465234D01*
X539544Y465637D01*
X539000Y465709D01*
D02*
G37*
G36*
X454500D02*
Y462240D01*
X457969D01*
X457897Y462784D01*
X457494Y463757D01*
X456853Y464593D01*
X456017Y465234D01*
X455044Y465637D01*
X454500Y465709D01*
D02*
G37*
G36*
X344000D02*
Y462240D01*
X347469D01*
X347397Y462784D01*
X346994Y463757D01*
X346353Y464593D01*
X345517Y465234D01*
X344544Y465637D01*
X344000Y465709D01*
D02*
G37*
G36*
X390260D02*
Y462240D01*
X393728D01*
X393657Y462784D01*
X393254Y463757D01*
X392613Y464593D01*
X391777Y465234D01*
X390804Y465637D01*
X390260Y465709D01*
D02*
G37*
G36*
X410260D02*
Y462240D01*
X413729D01*
X413657Y462784D01*
X413254Y463757D01*
X412613Y464593D01*
X411777Y465234D01*
X410804Y465637D01*
X410260Y465709D01*
D02*
G37*
G36*
X665000Y400500D02*
X662036D01*
X662090Y400086D01*
X662443Y399235D01*
X663004Y398504D01*
X663735Y397943D01*
X664586Y397590D01*
X665000Y397536D01*
Y400500D01*
D02*
G37*
G36*
X668964D02*
X666000D01*
Y397536D01*
X666414Y397590D01*
X667265Y397943D01*
X667996Y398504D01*
X668557Y399235D01*
X668910Y400086D01*
X668964Y400500D01*
D02*
G37*
G36*
X665000Y404464D02*
X664586Y404410D01*
X663735Y404057D01*
X663004Y403496D01*
X662443Y402765D01*
X662090Y401914D01*
X662036Y401500D01*
X665000D01*
Y404464D01*
D02*
G37*
G36*
X141500Y392020D02*
X139000D01*
Y388500D01*
X142520D01*
Y391000D01*
X142442Y391390D01*
X142221Y391721D01*
X141890Y391942D01*
X141500Y392020D01*
D02*
G37*
G36*
X461000Y392127D02*
X460191Y392020D01*
X459437Y391708D01*
X458789Y391211D01*
X458540Y390886D01*
X452500D01*
X451778Y390743D01*
X451166Y390334D01*
X429016Y368184D01*
X428711Y367726D01*
X418870Y357886D01*
X417960D01*
X417711Y358211D01*
X417063Y358708D01*
X416309Y359020D01*
X415500Y359127D01*
X414691Y359020D01*
X413937Y358708D01*
X413289Y358211D01*
X412792Y357563D01*
X412480Y356809D01*
X412373Y356000D01*
X412480Y355191D01*
X412792Y354437D01*
X413289Y353789D01*
X413937Y353292D01*
X414691Y352980D01*
X415500Y352873D01*
X416309Y352980D01*
X417063Y353292D01*
X417711Y353789D01*
X417960Y354114D01*
X419652D01*
X420374Y354257D01*
X420986Y354666D01*
X431684Y365364D01*
X431989Y365822D01*
X453281Y387114D01*
X458540D01*
X458789Y386789D01*
X459437Y386292D01*
X460191Y385980D01*
X461000Y385873D01*
X461809Y385980D01*
X462563Y386292D01*
X463211Y386789D01*
X463708Y387437D01*
X464020Y388191D01*
X464127Y389000D01*
X464020Y389809D01*
X463708Y390563D01*
X463211Y391211D01*
X462563Y391708D01*
X461809Y392020D01*
X461000Y392127D01*
D02*
G37*
G36*
X651500Y389127D02*
X650691Y389020D01*
X649937Y388708D01*
X649289Y388211D01*
X649040Y387886D01*
X641460D01*
X641211Y388211D01*
X640563Y388708D01*
X639809Y389020D01*
X639000Y389127D01*
X638191Y389020D01*
X637437Y388708D01*
X636789Y388211D01*
X636292Y387563D01*
X635980Y386809D01*
X635873Y386000D01*
X635980Y385191D01*
X636292Y384437D01*
X636789Y383789D01*
X637437Y383292D01*
X638191Y382980D01*
X639000Y382873D01*
X639809Y382980D01*
X640563Y383292D01*
X641211Y383789D01*
X641460Y384114D01*
X649040D01*
X649289Y383789D01*
X649937Y383292D01*
X650691Y382980D01*
X651500Y382873D01*
X652309Y382980D01*
X653063Y383292D01*
X653711Y383789D01*
X654208Y384437D01*
X654520Y385191D01*
X654627Y386000D01*
X654520Y386809D01*
X654208Y387563D01*
X653711Y388211D01*
X653063Y388708D01*
X652309Y389020D01*
X651500Y389127D01*
D02*
G37*
G36*
X138000Y392020D02*
X135500D01*
X135110Y391942D01*
X134779Y391721D01*
X134558Y391390D01*
X134480Y391000D01*
Y388500D01*
X138000D01*
Y392020D01*
D02*
G37*
G36*
X279729Y461240D02*
X276260D01*
Y457771D01*
X276804Y457843D01*
X277777Y458246D01*
X278613Y458887D01*
X279254Y459723D01*
X279657Y460696D01*
X279729Y461240D01*
D02*
G37*
G36*
X327469D02*
X324000D01*
Y457771D01*
X324544Y457843D01*
X325517Y458246D01*
X326353Y458887D01*
X326994Y459723D01*
X327397Y460696D01*
X327469Y461240D01*
D02*
G37*
G36*
X347469D02*
X344000D01*
Y457771D01*
X344544Y457843D01*
X345517Y458246D01*
X346353Y458887D01*
X346994Y459723D01*
X347397Y460696D01*
X347469Y461240D01*
D02*
G37*
G36*
X259729D02*
X256260D01*
Y457771D01*
X256804Y457843D01*
X257777Y458246D01*
X258613Y458887D01*
X259254Y459723D01*
X259657Y460696D01*
X259729Y461240D01*
D02*
G37*
G36*
X666000Y404464D02*
Y401500D01*
X668964D01*
X668910Y401914D01*
X668557Y402765D01*
X667996Y403496D01*
X667265Y404057D01*
X666414Y404410D01*
X666000Y404464D01*
D02*
G37*
G36*
X190469Y461240D02*
X187000D01*
Y457771D01*
X187544Y457843D01*
X188517Y458246D01*
X189353Y458887D01*
X189994Y459723D01*
X190397Y460696D01*
X190469Y461240D01*
D02*
G37*
G36*
X210469D02*
X207000D01*
Y457771D01*
X207544Y457843D01*
X208517Y458246D01*
X209353Y458887D01*
X209994Y459723D01*
X210397Y460696D01*
X210469Y461240D01*
D02*
G37*
G36*
X138500Y381631D02*
X137560Y381507D01*
X136685Y381145D01*
X135932Y380568D01*
X135355Y379816D01*
X134993Y378940D01*
X134869Y378000D01*
X134993Y377060D01*
X135355Y376185D01*
X135932Y375432D01*
X136685Y374855D01*
X137560Y374493D01*
X138500Y374369D01*
X139440Y374493D01*
X140315Y374855D01*
X141068Y375432D01*
X141645Y376185D01*
X142007Y377060D01*
X142131Y378000D01*
X142007Y378940D01*
X141645Y379816D01*
X141068Y380568D01*
X140315Y381145D01*
X139440Y381507D01*
X138500Y381631D01*
D02*
G37*
G36*
X665000Y379000D02*
X662036D01*
X662090Y378586D01*
X662443Y377735D01*
X663004Y377004D01*
X663735Y376443D01*
X664586Y376090D01*
X665000Y376036D01*
Y379000D01*
D02*
G37*
G36*
X668964D02*
X666000D01*
Y376036D01*
X666414Y376090D01*
X667265Y376443D01*
X667996Y377004D01*
X668557Y377735D01*
X668910Y378586D01*
X668964Y379000D01*
D02*
G37*
G36*
X681268Y376000D02*
X677799D01*
X677871Y375456D01*
X678274Y374483D01*
X678915Y373647D01*
X679750Y373006D01*
X680723Y372603D01*
X681268Y372531D01*
Y376000D01*
D02*
G37*
G36*
X684768Y370149D02*
X678768D01*
X678308Y369959D01*
X678118Y369500D01*
Y363500D01*
X678308Y363041D01*
X678768Y362851D01*
X684768D01*
X685227Y363041D01*
X685417Y363500D01*
Y369500D01*
X685227Y369959D01*
X684768Y370149D01*
D02*
G37*
G36*
X138500Y371631D02*
X137560Y371507D01*
X136685Y371145D01*
X135932Y370567D01*
X135355Y369815D01*
X134993Y368940D01*
X134869Y368000D01*
X134993Y367060D01*
X135355Y366184D01*
X135932Y365433D01*
X136685Y364855D01*
X137560Y364493D01*
X138500Y364369D01*
X139440Y364493D01*
X140315Y364855D01*
X141068Y365433D01*
X141645Y366184D01*
X142007Y367060D01*
X142131Y368000D01*
X142007Y368940D01*
X141645Y369815D01*
X141068Y370567D01*
X140315Y371145D01*
X139440Y371507D01*
X138500Y371631D01*
D02*
G37*
G36*
X685736Y376000D02*
X682268D01*
Y372531D01*
X682812Y372603D01*
X683785Y373006D01*
X684621Y373647D01*
X685262Y374483D01*
X685665Y375456D01*
X685736Y376000D01*
D02*
G37*
G36*
X405500Y389127D02*
X404691Y389020D01*
X403937Y388708D01*
X403289Y388211D01*
X402792Y387563D01*
X402480Y386809D01*
X402373Y386000D01*
X402480Y385191D01*
X402663Y384749D01*
X377751Y359837D01*
X377309Y360020D01*
X376500Y360127D01*
X375691Y360020D01*
X374937Y359708D01*
X374289Y359211D01*
X373792Y358563D01*
X373750Y358462D01*
X373250D01*
X373208Y358563D01*
X372711Y359211D01*
X372063Y359708D01*
X371621Y359891D01*
Y375535D01*
X377749Y381663D01*
X378191Y381480D01*
X379000Y381373D01*
X379809Y381480D01*
X380563Y381792D01*
X381211Y382289D01*
X381708Y382937D01*
X382020Y383691D01*
X382127Y384500D01*
X382020Y385309D01*
X381708Y386063D01*
X381211Y386711D01*
X380563Y387208D01*
X379809Y387520D01*
X379000Y387627D01*
X378191Y387520D01*
X377437Y387208D01*
X376789Y386711D01*
X376292Y386063D01*
X375980Y385309D01*
X375873Y384500D01*
X375980Y383691D01*
X376163Y383249D01*
X369707Y376793D01*
X369464Y376429D01*
X369378Y376000D01*
X369378Y376000D01*
Y359891D01*
X368937Y359708D01*
X368289Y359211D01*
X367792Y358563D01*
X367480Y357809D01*
X367373Y357000D01*
X367480Y356191D01*
X367792Y355437D01*
X368289Y354789D01*
X368937Y354292D01*
X369691Y353980D01*
X370500Y353873D01*
X371309Y353980D01*
X372063Y354292D01*
X372711Y354789D01*
X373208Y355437D01*
X373250Y355538D01*
X373750D01*
X373792Y355437D01*
X374289Y354789D01*
X374937Y354292D01*
X375691Y353980D01*
X376500Y353873D01*
X377309Y353980D01*
X378063Y354292D01*
X378174Y354377D01*
X378584Y354062D01*
X378480Y353809D01*
X378373Y353000D01*
X378480Y352191D01*
X378792Y351437D01*
X379289Y350789D01*
X379937Y350292D01*
X380691Y349980D01*
X381500Y349873D01*
X382309Y349980D01*
X382968Y350253D01*
X383259Y350108D01*
X383432Y349945D01*
X383373Y349500D01*
X383480Y348691D01*
X383792Y347937D01*
X384289Y347289D01*
X384937Y346792D01*
X385691Y346480D01*
X386500Y346373D01*
X387309Y346480D01*
X388063Y346792D01*
X388711Y347289D01*
X389208Y347937D01*
X389520Y348691D01*
X389627Y349500D01*
X389520Y350309D01*
X389484Y350397D01*
X413621Y374535D01*
X413937Y374292D01*
X414691Y373980D01*
X415500Y373873D01*
X416309Y373980D01*
X417063Y374292D01*
X417174Y374377D01*
X417584Y374062D01*
X417480Y373809D01*
X417373Y373000D01*
X417457Y372361D01*
X393138Y348042D01*
X392696Y348225D01*
X391887Y348331D01*
X391077Y348225D01*
X390323Y347912D01*
X389676Y347415D01*
X389179Y346768D01*
X388866Y346014D01*
X388760Y345204D01*
X388866Y344395D01*
X389179Y343641D01*
X389676Y342993D01*
X390323Y342497D01*
X391077Y342184D01*
X391887Y342078D01*
X392696Y342184D01*
X393450Y342497D01*
X394098Y342993D01*
X394595Y343641D01*
X394907Y344395D01*
X395013Y345204D01*
X394907Y346014D01*
X394724Y346456D01*
X418724Y370455D01*
X418937Y370292D01*
X419691Y369980D01*
X420500Y369873D01*
X421309Y369980D01*
X422063Y370292D01*
X422711Y370789D01*
X423208Y371437D01*
X423520Y372191D01*
X423627Y373000D01*
X423520Y373809D01*
X423208Y374563D01*
X422711Y375211D01*
X422063Y375708D01*
X421309Y376020D01*
X420500Y376127D01*
X419691Y376020D01*
X418937Y375708D01*
X418826Y375623D01*
X418416Y375938D01*
X418520Y376191D01*
X418556Y376464D01*
X418627Y376571D01*
X418713Y377000D01*
X418627Y377429D01*
X418556Y377536D01*
X418520Y377809D01*
X418208Y378563D01*
X417711Y379211D01*
X417063Y379708D01*
X416309Y380020D01*
X415500Y380127D01*
X414691Y380020D01*
X413937Y379708D01*
X413289Y379211D01*
X412792Y378563D01*
X412480Y377809D01*
X412373Y377000D01*
X412436Y376522D01*
X388096Y352183D01*
X388063Y352208D01*
X387309Y352520D01*
X386500Y352627D01*
X385691Y352520D01*
X385032Y352247D01*
X384741Y352392D01*
X384568Y352555D01*
X384627Y353000D01*
X384520Y353809D01*
X384484Y353898D01*
X409249Y378663D01*
X409691Y378480D01*
X410500Y378373D01*
X411309Y378480D01*
X412063Y378792D01*
X412711Y379289D01*
X413208Y379937D01*
X413520Y380691D01*
X413627Y381500D01*
X413520Y382309D01*
X413208Y383063D01*
X412711Y383711D01*
X412063Y384208D01*
X411309Y384520D01*
X410500Y384627D01*
X409691Y384520D01*
X408937Y384208D01*
X408289Y383711D01*
X407792Y383063D01*
X407480Y382309D01*
X407373Y381500D01*
X407480Y380691D01*
X407663Y380249D01*
X383096Y355682D01*
X383063Y355708D01*
X382309Y356020D01*
X381500Y356127D01*
X380691Y356020D01*
X379937Y355708D01*
X379826Y355623D01*
X379416Y355938D01*
X379520Y356191D01*
X379627Y357000D01*
X379520Y357809D01*
X379337Y358251D01*
X404249Y383163D01*
X404691Y382980D01*
X405500Y382873D01*
X406309Y382980D01*
X407063Y383292D01*
X407711Y383789D01*
X408208Y384437D01*
X408520Y385191D01*
X408627Y386000D01*
X408520Y386809D01*
X408208Y387563D01*
X407711Y388211D01*
X407063Y388708D01*
X406309Y389020D01*
X405500Y389127D01*
D02*
G37*
G36*
X138000Y387500D02*
X134480D01*
Y385000D01*
X134558Y384610D01*
X134779Y384279D01*
X135110Y384058D01*
X135500Y383980D01*
X138000D01*
Y387500D01*
D02*
G37*
G36*
X142520D02*
X139000D01*
Y383980D01*
X141500D01*
X141890Y384058D01*
X142221Y384279D01*
X142442Y384610D01*
X142520Y385000D01*
Y387500D01*
D02*
G37*
G36*
X666000Y382964D02*
Y380000D01*
X668964D01*
X668910Y380414D01*
X668557Y381265D01*
X667996Y381996D01*
X667265Y382557D01*
X666414Y382910D01*
X666000Y382964D01*
D02*
G37*
G36*
X681268Y380469D02*
X680723Y380397D01*
X679750Y379994D01*
X678915Y379353D01*
X678274Y378517D01*
X677871Y377544D01*
X677799Y377000D01*
X681268D01*
Y380469D01*
D02*
G37*
G36*
X682268Y380469D02*
Y377000D01*
X685736D01*
X685665Y377544D01*
X685262Y378517D01*
X684621Y379353D01*
X683785Y379994D01*
X682812Y380397D01*
X682268Y380469D01*
D02*
G37*
G36*
X665000Y382964D02*
X664586Y382910D01*
X663735Y382557D01*
X663004Y381996D01*
X662443Y381265D01*
X662090Y380414D01*
X662036Y380000D01*
X665000D01*
Y382964D01*
D02*
G37*
G36*
X393728Y461240D02*
X390260D01*
Y457771D01*
X390804Y457843D01*
X391777Y458246D01*
X392613Y458887D01*
X393254Y459723D01*
X393657Y460696D01*
X393728Y461240D01*
D02*
G37*
G36*
X158000Y461240D02*
X154531D01*
X154603Y460696D01*
X155006Y459723D01*
X155647Y458887D01*
X156483Y458246D01*
X157456Y457843D01*
X158000Y457771D01*
Y461240D01*
D02*
G37*
G36*
X142469D02*
X139000D01*
Y457771D01*
X139544Y457843D01*
X140517Y458246D01*
X141353Y458887D01*
X141994Y459723D01*
X142397Y460696D01*
X142469Y461240D01*
D02*
G37*
G36*
X162469D02*
X159000D01*
Y457771D01*
X159544Y457843D01*
X160517Y458246D01*
X161353Y458887D01*
X161994Y459723D01*
X162397Y460696D01*
X162469Y461240D01*
D02*
G37*
G36*
X138000D02*
X134531D01*
X134603Y460696D01*
X135006Y459723D01*
X135647Y458887D01*
X136483Y458246D01*
X137456Y457843D01*
X138000Y457771D01*
Y461240D01*
D02*
G37*
G36*
X473500Y461240D02*
X470031D01*
X470103Y460696D01*
X470506Y459723D01*
X471147Y458887D01*
X471983Y458246D01*
X472956Y457843D01*
X473500Y457771D01*
Y461240D01*
D02*
G37*
G36*
X518000D02*
X514531D01*
X514603Y460696D01*
X515006Y459723D01*
X515647Y458887D01*
X516483Y458246D01*
X517456Y457843D01*
X518000Y457771D01*
Y461240D01*
D02*
G37*
G36*
X538000D02*
X534531D01*
X534603Y460696D01*
X535006Y459723D01*
X535647Y458887D01*
X536483Y458246D01*
X537456Y457843D01*
X538000Y457771D01*
Y461240D01*
D02*
G37*
G36*
X487000Y465390D02*
X481000D01*
X480541Y465199D01*
X480351Y464740D01*
Y458740D01*
X480541Y458281D01*
X481000Y458091D01*
X487000D01*
X487459Y458281D01*
X487649Y458740D01*
Y464740D01*
X487459Y465199D01*
X487000Y465390D01*
D02*
G37*
G36*
X551500D02*
X545500D01*
X545041Y465199D01*
X544851Y464740D01*
Y458740D01*
X545041Y458281D01*
X545500Y458091D01*
X551500D01*
X551959Y458281D01*
X552149Y458740D01*
Y464740D01*
X551959Y465199D01*
X551500Y465390D01*
D02*
G37*
G36*
X171500Y465390D02*
X165500D01*
X165041Y465199D01*
X164851Y464740D01*
Y458740D01*
X165041Y458281D01*
X165500Y458091D01*
X171500D01*
X171959Y458281D01*
X172149Y458740D01*
Y464740D01*
X171959Y465199D01*
X171500Y465390D01*
D02*
G37*
G36*
X422760Y465390D02*
X416760D01*
X416301Y465199D01*
X416110Y464740D01*
Y458740D01*
X416301Y458281D01*
X416760Y458091D01*
X422760D01*
X423219Y458281D01*
X423409Y458740D01*
Y464740D01*
X423219Y465199D01*
X422760Y465390D01*
D02*
G37*
G36*
X219500D02*
X213500D01*
X213041Y465199D01*
X212851Y464740D01*
Y458740D01*
X213041Y458281D01*
X213500Y458091D01*
X219500D01*
X219959Y458281D01*
X220149Y458740D01*
Y464740D01*
X219959Y465199D01*
X219500Y465390D01*
D02*
G37*
G36*
X288760D02*
X282760D01*
X282301Y465199D01*
X282110Y464740D01*
Y458740D01*
X282301Y458281D01*
X282760Y458091D01*
X288760D01*
X289219Y458281D01*
X289409Y458740D01*
Y464740D01*
X289219Y465199D01*
X288760Y465390D01*
D02*
G37*
G36*
X356500D02*
X350500D01*
X350041Y465199D01*
X349851Y464740D01*
Y458740D01*
X350041Y458281D01*
X350500Y458091D01*
X356500D01*
X356959Y458281D01*
X357149Y458740D01*
Y464740D01*
X356959Y465199D01*
X356500Y465390D01*
D02*
G37*
G36*
X542469Y461240D02*
X539000D01*
Y457771D01*
X539544Y457843D01*
X540517Y458246D01*
X541353Y458887D01*
X541994Y459723D01*
X542397Y460696D01*
X542469Y461240D01*
D02*
G37*
G36*
X186000D02*
X182531D01*
X182603Y460696D01*
X183006Y459723D01*
X183647Y458887D01*
X184483Y458246D01*
X185456Y457843D01*
X186000Y457771D01*
Y461240D01*
D02*
G37*
G36*
X206000D02*
X202531D01*
X202603Y460696D01*
X203006Y459723D01*
X203647Y458887D01*
X204483Y458246D01*
X205456Y457843D01*
X206000Y457771D01*
Y461240D01*
D02*
G37*
G36*
X522469D02*
X519000D01*
Y457771D01*
X519544Y457843D01*
X520517Y458246D01*
X521353Y458887D01*
X521994Y459723D01*
X522397Y460696D01*
X522469Y461240D01*
D02*
G37*
G36*
X413729D02*
X410260D01*
Y457771D01*
X410804Y457843D01*
X411777Y458246D01*
X412613Y458887D01*
X413254Y459723D01*
X413657Y460696D01*
X413729Y461240D01*
D02*
G37*
G36*
X457969D02*
X454500D01*
Y457771D01*
X455044Y457843D01*
X456017Y458246D01*
X456853Y458887D01*
X457494Y459723D01*
X457897Y460696D01*
X457969Y461240D01*
D02*
G37*
G36*
X477969D02*
X474500D01*
Y457771D01*
X475044Y457843D01*
X476017Y458246D01*
X476853Y458887D01*
X477494Y459723D01*
X477897Y460696D01*
X477969Y461240D01*
D02*
G37*
G36*
X389260D02*
X385791D01*
X385863Y460696D01*
X386266Y459723D01*
X386907Y458887D01*
X387743Y458246D01*
X388716Y457843D01*
X389260Y457771D01*
Y461240D01*
D02*
G37*
G36*
X409260D02*
X405791D01*
X405863Y460696D01*
X406266Y459723D01*
X406907Y458887D01*
X407743Y458246D01*
X408716Y457843D01*
X409260Y457771D01*
Y461240D01*
D02*
G37*
G36*
X453500D02*
X450031D01*
X450103Y460696D01*
X450506Y459723D01*
X451147Y458887D01*
X451983Y458246D01*
X452956Y457843D01*
X453500Y457771D01*
Y461240D01*
D02*
G37*
G36*
X343000D02*
X339531D01*
X339603Y460696D01*
X340006Y459723D01*
X340647Y458887D01*
X341483Y458246D01*
X342456Y457843D01*
X343000Y457771D01*
Y461240D01*
D02*
G37*
G36*
X255260D02*
X251791D01*
X251863Y460696D01*
X252266Y459723D01*
X252907Y458887D01*
X253743Y458246D01*
X254716Y457843D01*
X255260Y457771D01*
Y461240D01*
D02*
G37*
G36*
X275260D02*
X271791D01*
X271863Y460696D01*
X272266Y459723D01*
X272907Y458887D01*
X273743Y458246D01*
X274716Y457843D01*
X275260Y457771D01*
Y461240D01*
D02*
G37*
G36*
X323000D02*
X319531D01*
X319603Y460696D01*
X320006Y459723D01*
X320647Y458887D01*
X321483Y458246D01*
X322456Y457843D01*
X323000Y457771D01*
Y461240D01*
D02*
G37*
%LPD*%
D12*
X467000Y264457D02*
D03*
Y271543D02*
D03*
X413000Y286957D02*
D03*
Y294043D02*
D03*
X422000Y286957D02*
D03*
Y294043D02*
D03*
X430000Y286957D02*
D03*
Y294043D02*
D03*
X438500Y286957D02*
D03*
Y294043D02*
D03*
X446842Y286957D02*
D03*
Y294043D02*
D03*
X455500Y286957D02*
D03*
Y294043D02*
D03*
X421500Y318543D02*
D03*
Y311457D02*
D03*
X430500Y318543D02*
D03*
Y311457D02*
D03*
X439000Y318543D02*
D03*
Y311457D02*
D03*
X455685Y318543D02*
D03*
Y311457D02*
D03*
X447500Y318543D02*
D03*
Y311457D02*
D03*
D21*
X448500Y354000D02*
X460000Y342500D01*
X460252Y342752D01*
X460500Y264000D02*
X466543D01*
X370500Y357000D02*
Y376000D01*
X391887Y345204D02*
X420500Y373818D01*
Y373000D02*
Y373818D01*
X416046Y378546D02*
X417591Y377000D01*
X386750Y349250D02*
X416046Y378546D01*
X386500Y349091D02*
X386750Y348841D01*
Y349250D01*
Y347841D02*
Y348841D01*
X382100Y353100D02*
X410500Y381500D01*
X381600Y353100D02*
X382100D01*
X415500Y377000D02*
X417591D01*
X381500Y353000D02*
X381600Y353100D01*
X386500Y349091D02*
Y349500D01*
X370500Y376000D02*
X379000Y384500D01*
X376500Y357000D02*
X405500Y386000D01*
X280500Y319000D02*
X281000Y319500D01*
X152500Y306000D02*
X201000Y257500D01*
X441000D01*
X455500Y281000D02*
Y286957D01*
X455500Y286957D01*
X466543Y264000D02*
X467000Y264457D01*
X413000Y281000D02*
Y286957D01*
X417957Y318543D02*
X419043D01*
X414772Y321728D02*
X417957Y318543D01*
X424043Y325000D02*
X430500Y318543D01*
X439000D02*
Y324500D01*
X455685Y318543D02*
Y324315D01*
X449500Y318630D02*
X449780Y318909D01*
Y324307D01*
X434000Y354000D02*
X448500D01*
D22*
X462500Y295543D02*
X464457Y297500D01*
X479000D01*
X430350Y366850D02*
X452500Y389000D01*
X430350Y366698D02*
Y366850D01*
X419652Y356000D02*
X430350Y366698D01*
X415500Y356000D02*
X419652D01*
X452500Y389000D02*
X461000D01*
X639000Y386000D02*
X651500D01*
X455500Y286957D02*
X457457D01*
X462500Y292000D01*
Y295543D01*
X455543Y302500D02*
X462500Y295543D01*
X455543Y302500D02*
X462500Y309457D01*
Y314500D01*
X458457Y318543D02*
X462500Y314500D01*
X455685Y318543D02*
X458457D01*
X419043D02*
X421500D01*
X416000Y315500D02*
X419043Y318543D01*
X416000Y307957D02*
Y315500D01*
Y307957D02*
X421457Y302500D01*
X446842Y286957D02*
X455500D01*
X438500D02*
X446842D01*
X430000D02*
X438500D01*
X422000D02*
X430000D01*
X413000D02*
X422000D01*
X421500Y318543D02*
X430500D01*
X447500D02*
X455685D01*
X439000D02*
X447500D01*
X430500D02*
X439000D01*
D23*
X491000Y334500D02*
X500000Y325500D01*
X434500Y334500D02*
X491000D01*
X431500Y337500D02*
X434500Y334500D01*
X431500Y337500D02*
Y346500D01*
X428500Y349500D02*
X431500Y346500D01*
X410587Y349500D02*
X428500D01*
X404043Y342957D02*
X410587Y349500D01*
X266000Y319000D02*
X280500D01*
X378000Y319500D02*
X399000D01*
D24*
X479000Y258500D02*
D03*
Y268500D02*
D03*
Y278500D02*
D03*
D25*
Y288500D02*
D03*
D26*
X681768Y376500D02*
D03*
Y354500D02*
D03*
X643000Y462240D02*
D03*
X633000D02*
D03*
X623000D02*
D03*
X594000D02*
D03*
X584000D02*
D03*
X574000D02*
D03*
X538500Y461740D02*
D03*
X528500D02*
D03*
X518500D02*
D03*
X474000D02*
D03*
X464000D02*
D03*
X454000D02*
D03*
X409760D02*
D03*
X399760D02*
D03*
X389760D02*
D03*
X343500D02*
D03*
X333500D02*
D03*
X323500D02*
D03*
X275760D02*
D03*
X265760D02*
D03*
X255760D02*
D03*
X206500D02*
D03*
X196500D02*
D03*
X186500D02*
D03*
X158500Y461740D02*
D03*
X148500D02*
D03*
X138500D02*
D03*
Y333000D02*
D03*
Y323000D02*
D03*
Y313000D02*
D03*
Y378000D02*
D03*
Y368000D02*
D03*
Y358000D02*
D03*
X120000Y480000D02*
D03*
Y260000D02*
D03*
X680000D02*
D03*
Y480000D02*
D03*
D27*
X681768Y366500D02*
D03*
Y344500D02*
D03*
X138500Y343000D02*
D03*
Y388000D02*
D03*
D28*
X653000Y462240D02*
D03*
X604000D02*
D03*
X548500Y461740D02*
D03*
X484000D02*
D03*
X419760D02*
D03*
X353500D02*
D03*
X285760D02*
D03*
X216500D02*
D03*
X168500Y461740D02*
D03*
D29*
X460252Y342752D02*
D03*
X479000Y297500D02*
D03*
X452500Y342000D02*
D03*
X460500Y264000D02*
D03*
X370500Y357000D02*
D03*
X420500Y373000D02*
D03*
X415500Y377000D02*
D03*
X410500Y381500D02*
D03*
X391887Y345204D02*
D03*
X386500Y349500D02*
D03*
X381500Y353000D02*
D03*
X500000Y325500D02*
D03*
X441000Y342000D02*
D03*
X404043Y342957D02*
D03*
X651500Y386000D02*
D03*
X639000D02*
D03*
X461000Y389000D02*
D03*
X415500Y356000D02*
D03*
X405500Y386000D02*
D03*
X376500Y357000D02*
D03*
X266000Y319000D02*
D03*
X281000Y319500D02*
D03*
X378000D02*
D03*
X399000D02*
D03*
X481303Y323697D02*
D03*
X498500Y359000D02*
D03*
X665500Y379500D02*
D03*
Y401000D02*
D03*
X158500Y306500D02*
D03*
X152500Y306000D02*
D03*
X143500Y285000D02*
D03*
X446000Y280500D02*
D03*
X455500Y281000D02*
D03*
X399000Y326000D02*
D03*
X387043Y275457D02*
D03*
X413000Y281000D02*
D03*
X414772Y321728D02*
D03*
X424043Y325000D02*
D03*
X439000Y324500D02*
D03*
X455685Y324315D02*
D03*
X449780Y324307D02*
D03*
X434000Y354000D02*
D03*
X379000Y384500D02*
D03*
X441000Y257500D02*
D03*
X648000Y303500D02*
D03*
D30*
X455543Y302500D02*
D03*
X448457D02*
D03*
X421457Y302500D02*
D03*
X428543D02*
D03*
M02*
