M48
;Layer_Color=9474304
;FILE_FORMAT=2:5
INCH,LZ
;TYPE=PLATED
T1F00S00C0.02800
T2F00S00C0.03543
T3F00S00C0.04000
T4F00S00C0.12000
%
T01
X0648Y03035
X0479Y02975
X04555Y0281
X0446Y02805
X0441Y02575
X04605Y0264
X0413Y0281
X0387043Y0275457
X01585Y03065
X01525Y0306
X01435Y0285
X0266Y0319
X0281Y03195
X0378
X0399
Y0326
X0414772Y0321728
X0424043Y0325
X0439Y03245
X044978Y0324307
X0455685Y0324315
X04525Y0342
X0460252Y0342752
X0441Y0342
X0434Y0354
X04155Y0356
Y0377
X04205Y0373
X04105Y03815
X04055Y0386
X0379Y03845
X03765Y0357
X03705
X03815Y0353
X03865Y03495
X0391887Y0345204
X0404043Y0342957
X0461Y0389
X04985Y0359
X05Y03255
X0481303Y0323697
X0639Y0386
X06515
X06655Y03795
Y0401
T02
X0479Y02585
Y02685
Y02785
Y02885
T03
X01385Y0313
Y0323
Y0333
Y0343
Y0358
Y0368
Y0378
Y0388
Y046174
X01485
X01585
X01685
X01865Y046174
X01965
X02065
X02165
X025576
X026576
X027576
X028576
X03235
X03335
X03435
X03535
X038976
X039976
X040976
X041976
X0454
X0464
X0474
X0484
X05185
X05285
X05385
X05485
X0574Y046224
X0584
X0594
X0604
X0623
X0633
X0643
X0653
X0681768Y03765
Y03665
Y03545
Y03445
T04
X068Y026
X012
X068Y048
X012
M30
