G04 Layer_Physical_Order=1*
G04 Layer_Color=255*
%FSLAX25Y25*%
%MOIN*%
G70*
G01*
G75*
%ADD10R,0.06000X0.05000*%
%ADD11R,0.04134X0.05512*%
%ADD12R,0.04528X0.05709*%
%ADD13R,0.05709X0.04528*%
%ADD14R,0.01575X0.04724*%
%ADD15R,0.05512X0.04134*%
%ADD16R,0.06102X0.05118*%
%ADD17R,0.03740X0.08268*%
%ADD18R,0.21654X0.25590*%
%ADD19R,0.02756X0.03543*%
%ADD20R,0.02200X0.08600*%
%ADD21R,0.03937X0.03543*%
%ADD22O,0.07087X0.01181*%
%ADD23O,0.01181X0.07087*%
%ADD24R,0.01575X0.04331*%
%ADD25C,0.01000*%
%ADD26C,0.03000*%
%ADD27C,0.15000*%
%ADD28C,0.06000*%
%ADD29R,0.06000X0.06000*%
%ADD30R,0.06000X0.06000*%
%ADD31C,0.05905*%
%ADD32R,0.05905X0.05905*%
%ADD33C,0.02362*%
D10*
X118110Y324803D02*
D03*
X127110D02*
D03*
D11*
X153740Y324803D02*
D03*
X161221D02*
D03*
X241000Y234500D02*
D03*
X233520D02*
D03*
X193500Y366980D02*
D03*
X186020D02*
D03*
X193500Y357480D02*
D03*
X186020D02*
D03*
X192980Y334000D02*
D03*
X185500D02*
D03*
D12*
X262913Y315500D02*
D03*
X270000D02*
D03*
X142543Y266500D02*
D03*
X135457D02*
D03*
X308000Y230000D02*
D03*
X300913D02*
D03*
X308043Y218000D02*
D03*
X300957D02*
D03*
D13*
X225500Y249000D02*
D03*
Y241913D02*
D03*
X363563Y447260D02*
D03*
Y454347D02*
D03*
X270500Y447000D02*
D03*
Y454087D02*
D03*
X177063Y446760D02*
D03*
Y453847D02*
D03*
X184500Y348980D02*
D03*
Y341894D02*
D03*
X192500Y349067D02*
D03*
Y341980D02*
D03*
D14*
X261551Y223500D02*
D03*
X271000D02*
D03*
X266276D02*
D03*
D15*
X177000Y341480D02*
D03*
Y334000D02*
D03*
X346063Y424740D02*
D03*
Y417260D02*
D03*
X253000Y424480D02*
D03*
Y417000D02*
D03*
X159563Y424240D02*
D03*
Y416760D02*
D03*
X305563Y459760D02*
D03*
Y467240D02*
D03*
X212500Y459500D02*
D03*
Y466980D02*
D03*
X119063Y459260D02*
D03*
Y466740D02*
D03*
X358000Y464000D02*
D03*
Y471480D02*
D03*
X264937Y463740D02*
D03*
Y471220D02*
D03*
X171500Y463500D02*
D03*
Y470980D02*
D03*
X137000Y246760D02*
D03*
Y254240D02*
D03*
D16*
X248252Y207858D02*
D03*
Y190142D02*
D03*
X279748Y207858D02*
D03*
Y190142D02*
D03*
D17*
X162996Y367783D02*
D03*
X145043D02*
D03*
D18*
X154020Y342980D02*
D03*
D19*
X318263Y414760D02*
D03*
X314583Y422760D02*
D03*
X322063D02*
D03*
X225200Y414500D02*
D03*
X221520Y422500D02*
D03*
X229000D02*
D03*
X131763Y414260D02*
D03*
X128083Y422260D02*
D03*
X135563D02*
D03*
D20*
X348563Y434000D02*
D03*
X343563D02*
D03*
X338563D02*
D03*
X333563D02*
D03*
X328563D02*
D03*
X323563D02*
D03*
X318563D02*
D03*
X313563D02*
D03*
Y452600D02*
D03*
X318563D02*
D03*
X323563D02*
D03*
X328563D02*
D03*
X333563D02*
D03*
X338563D02*
D03*
X343563D02*
D03*
X348563D02*
D03*
X255500Y433740D02*
D03*
X250500D02*
D03*
X245500D02*
D03*
X240500D02*
D03*
X235500D02*
D03*
X230500D02*
D03*
X225500D02*
D03*
X220500D02*
D03*
Y452340D02*
D03*
X225500D02*
D03*
X230500D02*
D03*
X235500D02*
D03*
X240500D02*
D03*
X245500D02*
D03*
X250500D02*
D03*
X255500D02*
D03*
X162063Y433500D02*
D03*
X157063D02*
D03*
X152063D02*
D03*
X147063D02*
D03*
X142063D02*
D03*
X137063D02*
D03*
X132063D02*
D03*
X127063D02*
D03*
Y452100D02*
D03*
X132063D02*
D03*
X137063D02*
D03*
X142063D02*
D03*
X147063D02*
D03*
X152063D02*
D03*
X157063D02*
D03*
X162063D02*
D03*
D21*
X306063Y446650D02*
D03*
Y440350D02*
D03*
X213000Y446390D02*
D03*
Y440091D02*
D03*
X119563Y446150D02*
D03*
Y439850D02*
D03*
X356563Y431500D02*
D03*
Y437799D02*
D03*
X263500Y431240D02*
D03*
Y437539D02*
D03*
X170063Y431000D02*
D03*
Y437299D02*
D03*
D22*
X239276Y249878D02*
D03*
Y255784D02*
D03*
Y251847D02*
D03*
Y253815D02*
D03*
Y261689D02*
D03*
Y259720D02*
D03*
Y263657D02*
D03*
Y257752D02*
D03*
Y273500D02*
D03*
Y277437D02*
D03*
Y275468D02*
D03*
Y267595D02*
D03*
Y265626D02*
D03*
Y271532D02*
D03*
Y269563D02*
D03*
Y289248D02*
D03*
Y287280D02*
D03*
Y293185D02*
D03*
Y291216D02*
D03*
Y281374D02*
D03*
Y279405D02*
D03*
Y285311D02*
D03*
Y283343D02*
D03*
Y295153D02*
D03*
Y297122D02*
D03*
X298724Y257752D02*
D03*
Y261689D02*
D03*
Y259720D02*
D03*
Y251847D02*
D03*
Y249878D02*
D03*
Y255784D02*
D03*
Y253815D02*
D03*
Y263657D02*
D03*
Y267595D02*
D03*
Y265626D02*
D03*
Y271532D02*
D03*
Y269563D02*
D03*
Y281374D02*
D03*
Y285311D02*
D03*
Y283343D02*
D03*
Y275468D02*
D03*
Y273500D02*
D03*
Y279405D02*
D03*
Y277437D02*
D03*
Y291216D02*
D03*
Y289248D02*
D03*
Y293185D02*
D03*
Y287280D02*
D03*
Y297122D02*
D03*
Y295153D02*
D03*
D23*
X245378Y243776D02*
D03*
X247346D02*
D03*
X255221D02*
D03*
X257189D02*
D03*
X249315D02*
D03*
X253252D02*
D03*
X251284D02*
D03*
X263094D02*
D03*
X265063D02*
D03*
X259157D02*
D03*
X261126D02*
D03*
X245378Y303224D02*
D03*
X249315D02*
D03*
X251284D02*
D03*
X253252D02*
D03*
X255221D02*
D03*
X247346D02*
D03*
X261126D02*
D03*
X263094D02*
D03*
X257189D02*
D03*
X259157D02*
D03*
X284748Y243776D02*
D03*
X280811D02*
D03*
X282780D02*
D03*
X290653D02*
D03*
X292622D02*
D03*
X286717D02*
D03*
X288685D02*
D03*
X270969D02*
D03*
X267032D02*
D03*
X269000D02*
D03*
X276874D02*
D03*
X278842D02*
D03*
X272937D02*
D03*
X274905D02*
D03*
X265063Y303224D02*
D03*
X267032D02*
D03*
X269000D02*
D03*
X270969D02*
D03*
X272937D02*
D03*
X278842D02*
D03*
X280811D02*
D03*
X274905D02*
D03*
X276874D02*
D03*
X286717D02*
D03*
X288685D02*
D03*
X282780D02*
D03*
X284748D02*
D03*
X290653D02*
D03*
X292622D02*
D03*
D24*
X245661Y344382D02*
D03*
X248220Y354618D02*
D03*
X245661D02*
D03*
X248220Y344382D02*
D03*
X253339D02*
D03*
X250780D02*
D03*
Y354618D02*
D03*
X253339D02*
D03*
D25*
X298724Y294876D02*
X303662D01*
X239276Y252124D02*
X242929D01*
X247549Y356900D02*
X248220D01*
X251451Y354618D02*
Y357239D01*
X137000Y246760D02*
X137697Y246063D01*
X147638D01*
X150945Y262441D02*
X157480Y255906D01*
X150945Y262441D02*
Y263219D01*
X152281Y264555D01*
Y266445D01*
X138821Y279906D02*
X152281Y266445D01*
X138821Y279906D02*
Y281680D01*
X115800Y279500D02*
X116500D01*
X112400Y282900D02*
X115800Y279500D01*
X116500Y266000D02*
Y279500D01*
Y266000D02*
X117000Y265500D01*
X131000Y289500D02*
X138821Y281680D01*
X112900Y243663D02*
Y257198D01*
X112501Y243264D02*
X112900Y243663D01*
X116902Y239800D02*
X117000Y239702D01*
X114639Y239800D02*
X116902D01*
X112501Y241938D02*
X114639Y239800D01*
X112501Y241938D02*
Y243264D01*
X118260Y254240D02*
X137000D01*
X120724Y295276D02*
X127953D01*
X117000Y255500D02*
X117405Y255906D01*
X116500Y299500D02*
X120724Y295276D01*
X177063Y453847D02*
X212846D01*
X192500Y341980D02*
X200461D01*
X153740Y324803D02*
X153740Y324803D01*
X147638Y324803D02*
X153740D01*
X137795Y330433D02*
Y334646D01*
X132166Y324803D02*
X137795Y330433D01*
X127110Y324803D02*
X132166D01*
X118000Y335500D02*
X118110Y335390D01*
Y324803D02*
Y335390D01*
X298724Y251847D02*
X298815Y251937D01*
X298446Y251569D02*
X298724Y251847D01*
X272343Y233843D02*
X273000Y234500D01*
X303662Y294876D02*
X311700Y286838D01*
Y259200D02*
Y286838D01*
X293208Y235554D02*
X304708D01*
X297240Y233000D02*
X298194Y233954D01*
X295000Y233000D02*
X297240D01*
X283781Y237936D02*
X292498Y229219D01*
X288963Y239800D02*
X293208Y235554D01*
X285381Y239619D02*
X293500Y231500D01*
X270843Y233843D02*
X272343D01*
X275168Y239132D02*
X277411Y236890D01*
X273000Y237500D02*
Y238075D01*
X261826Y239132D02*
X262817Y240123D01*
X279263Y238263D02*
X280811Y239811D01*
X264000Y237726D02*
X265063Y238789D01*
X245519Y289481D02*
Y303083D01*
X271615Y239460D02*
X273000Y238075D01*
X270943Y235443D02*
X273000Y237500D01*
X266941Y237559D02*
Y243685D01*
X269278Y238571D02*
X269962Y237887D01*
X267726Y235000D02*
X269737D01*
X253500Y238000D02*
X254737D01*
X234632Y239132D02*
Y245142D01*
X259000Y236306D02*
X261826Y239132D01*
X258132D02*
X261826D01*
X243919Y253115D02*
Y299340D01*
X274205Y239132D02*
X275168D01*
X269500Y232500D02*
X270843Y233843D01*
X277411Y235776D02*
X279187Y234000D01*
X269737Y235000D02*
X270181Y235443D01*
X239500Y247000D02*
Y249654D01*
X302377Y292907D02*
X303368Y291917D01*
Y289632D02*
Y291917D01*
Y289632D02*
X305000Y288000D01*
X283057Y240123D02*
X283781Y239399D01*
X292622Y243776D02*
X294776D01*
X273215Y240123D02*
X274205Y239132D01*
X284748Y243776D02*
X286717D01*
X294081Y249178D02*
Y251569D01*
Y249178D02*
X295071Y248187D01*
X240034Y303224D02*
X243919Y299340D01*
X233219Y250060D02*
X234728Y251569D01*
X233219Y246555D02*
Y250060D01*
X235500Y247500D02*
X237878Y249878D01*
X206378Y297122D02*
X239276D01*
X249037Y303502D02*
X249315Y303224D01*
X252974Y303502D02*
X253252Y303224D01*
X294081Y251569D02*
X298446D01*
X262817Y240123D02*
Y243498D01*
X234728Y251569D02*
X238998D01*
X234632Y261967D02*
X238442D01*
X237878Y249878D02*
X239276D01*
X285381Y239619D02*
Y243143D01*
X254942Y303502D02*
X255221Y303224D01*
X299002Y292907D02*
X302377D01*
X298724Y293185D02*
X299002Y292907D01*
X293500Y231500D02*
X295000Y233000D01*
X275281Y231007D02*
Y235644D01*
X275219Y230945D02*
X275281Y231007D01*
X219000Y242000D02*
X219087Y241913D01*
X225500D01*
X257000Y222000D02*
X258346D01*
X260308Y220038D01*
X262794D01*
X266256Y223500D01*
X266276D01*
X251000Y224500D02*
X257062Y218438D01*
X269938D01*
X270000Y218500D01*
X286142Y190142D02*
X286500Y190500D01*
X279748Y190142D02*
X286142D01*
X241000Y190500D02*
X241358Y190142D01*
X248252D01*
X266750Y407750D02*
X322000Y352500D01*
X266500Y407500D02*
X266750Y407750D01*
X262000Y407500D02*
X266500D01*
X160500Y409000D02*
X212000D01*
X260900Y360100D01*
X131763Y413593D02*
X133356Y412000D01*
X248252Y207858D02*
X279748D01*
X240500Y234000D02*
X241000Y234500D01*
X240500Y215610D02*
Y234000D01*
Y215610D02*
X248252Y207858D01*
X270000Y315500D02*
X277000D01*
X269278Y238571D02*
Y243498D01*
X271247Y239980D02*
Y243498D01*
X255221Y238483D02*
Y243776D01*
X265063Y238789D02*
Y243776D01*
X280811Y239811D02*
Y243776D01*
X273215Y240123D02*
Y243498D01*
X288963Y239800D02*
Y243498D01*
X283057Y240123D02*
Y243498D01*
X269000Y243776D02*
X269278Y243498D01*
X271615Y239460D02*
Y239611D01*
X271247Y239980D02*
X271615Y239611D01*
X270969Y243776D02*
X271247Y243498D01*
X270181Y235443D02*
X270943D01*
X264226Y231500D02*
X267726Y235000D01*
X277411Y235776D02*
Y236890D01*
X279263Y238263D02*
X279263D01*
X273000Y233500D02*
Y234500D01*
X277500Y230000D02*
X278000Y229500D01*
X279187Y234000D02*
X280000D01*
X266941Y237559D02*
X267000Y237500D01*
X264000Y237000D02*
Y237726D01*
X269500Y229500D02*
Y232500D01*
X258000Y231500D02*
X264226D01*
X275219Y227719D02*
Y230945D01*
X271000Y223500D02*
X275219Y227719D01*
X261500Y229000D02*
X261551Y228949D01*
Y223500D02*
Y228949D01*
X256219Y229719D02*
X258000Y231500D01*
X253555Y229719D02*
X256219D01*
X251000Y224500D02*
Y228000D01*
X259000Y236000D02*
Y236306D01*
X252774Y230500D02*
X253555Y229719D01*
X245000Y230500D02*
X252774D01*
X241000Y234500D02*
X245000Y230500D01*
X231500Y241500D02*
X233032Y239968D01*
Y234987D02*
Y239968D01*
Y234987D02*
X233520Y234500D01*
X239276Y249878D02*
X239500Y249654D01*
X233219Y246555D02*
X234632Y245142D01*
X229000Y249000D02*
X230500Y247500D01*
X225500Y249000D02*
X229000D01*
X245500Y235000D02*
Y238765D01*
X260500Y309000D02*
X262913Y311413D01*
Y315500D01*
X238998Y251569D02*
X239276Y251847D01*
X234632Y261967D02*
Y265776D01*
X232000Y268409D02*
X234632Y265776D01*
X232000Y268409D02*
Y277500D01*
X306000Y250500D02*
X309500Y254000D01*
X303368Y255868D02*
X304500Y257000D01*
X295071Y248187D02*
X297313D01*
X298000Y247500D01*
X294776Y243776D02*
X295500Y244500D01*
X298815Y251937D02*
X303180D01*
X310443Y259200D01*
X309500Y254000D02*
X315500D01*
X317781Y253055D02*
Y340219D01*
X313781Y249055D02*
X317781Y253055D01*
X319381Y252392D02*
Y340882D01*
X315381Y248392D02*
X319381Y252392D01*
X322000Y255000D02*
Y352500D01*
X310443Y259200D02*
X311700D01*
X298724Y253815D02*
X299002Y254093D01*
X303074D01*
X303368Y254387D01*
Y255868D01*
X313781Y236956D02*
Y249055D01*
Y236956D02*
X314044Y236693D01*
Y217327D02*
Y236693D01*
X310763Y214046D02*
X314044Y217327D01*
X300163Y360100D02*
X319381Y340882D01*
X299500Y358500D02*
X317781Y340219D01*
X315381Y237619D02*
Y248392D01*
X278000Y229500D02*
X282000D01*
X262817Y243498D02*
X263094Y243776D01*
X254500Y235500D02*
X258132Y239132D01*
X254737Y238000D02*
X255221Y238483D01*
X254500Y232000D02*
Y235500D01*
X245132Y239132D02*
X245500Y238765D01*
X234632Y239132D02*
X245132D01*
X245519Y289481D02*
X246500Y288500D01*
X245378Y303224D02*
X245519Y303083D01*
X298724Y297122D02*
Y302276D01*
X298000Y303000D02*
X298724Y302276D01*
X240034Y303224D02*
Y307466D01*
X240555Y307219D02*
X244029D01*
X240034Y302034D02*
Y303224D01*
X238000Y300000D02*
X240034Y302034D01*
X214500Y313500D02*
X217681Y310319D01*
X229858D01*
X230677Y309500D01*
X241500D01*
X187500Y313726D02*
X192281Y308945D01*
X187500Y313726D02*
Y321500D01*
X185500Y331500D02*
Y334000D01*
X196000Y307500D02*
X206378Y297122D01*
X192281Y290719D02*
X227000Y256000D01*
X192281Y290719D02*
Y308945D01*
X192980Y334000D02*
X197500Y329480D01*
Y328500D02*
Y329480D01*
X266941Y243685D02*
X267000Y243744D01*
X272937Y243776D02*
X273215Y243498D01*
X284748Y243776D02*
X285381Y243143D01*
X283781Y237936D02*
Y239399D01*
X295226Y230000D02*
X300913D01*
X294445Y229219D02*
X295226Y230000D01*
X292498Y229219D02*
X294445D01*
X185000Y313000D02*
X190000Y308000D01*
X145043Y367783D02*
X145764D01*
X200441Y342000D02*
X200461Y341980D01*
X189187Y368441D02*
Y370192D01*
Y368441D02*
X192039D01*
X193500Y366980D01*
X185216Y367783D02*
X186020Y366980D01*
X162996Y367783D02*
X185216D01*
X154020Y342980D02*
X163000Y334000D01*
X151559Y345441D02*
X154020Y342980D01*
X184587Y349067D02*
X192500D01*
X184500Y348980D02*
X184587Y349067D01*
X184500Y341894D02*
X185500Y340894D01*
X177000Y357961D02*
X186020Y366980D01*
X177000Y341480D02*
Y357961D01*
X192500Y349067D02*
X193500Y350067D01*
Y357480D01*
Y366980D01*
X354042Y464781D02*
X356563Y462260D01*
X305563Y459760D02*
X320563D01*
X326563Y426497D02*
X329560Y423500D01*
X335063Y469486D02*
Y475260D01*
X345063D02*
X348323Y472000D01*
X315063Y475260D02*
X322063Y468260D01*
X307043Y467240D02*
X315063Y475260D01*
X356563Y457760D02*
Y461260D01*
X357563Y462260D01*
X356563Y444760D02*
X356563Y444760D01*
Y437799D02*
Y444760D01*
X348323Y472000D02*
X355303D01*
X305563Y467240D02*
X307043D01*
X356563Y427760D02*
Y431500D01*
X346063Y417260D02*
X356563Y427760D01*
X322863Y433300D02*
X323563Y434000D01*
X326500Y426434D02*
X326563Y426497D01*
X326500Y426000D02*
Y426434D01*
X329560Y423500D02*
X342823D01*
X318563Y434000D02*
X318563Y434000D01*
X318563Y427260D02*
Y434000D01*
X312413Y434000D02*
X313563D01*
X306063Y440350D02*
X312413Y434000D01*
X312013Y452600D02*
X313563D01*
X306063Y446650D02*
X312013Y452600D01*
X324682Y474879D02*
X325063Y475260D01*
X321363Y457356D02*
X324682Y460674D01*
Y474879D01*
X318563Y452600D02*
X321363Y455400D01*
Y457356D01*
X326282Y460705D02*
X335063Y469486D01*
X323563Y452600D02*
X326282Y455319D01*
Y460705D01*
X332781Y464781D02*
X354042D01*
X331219Y463219D02*
X332781Y464781D01*
X331219Y459055D02*
X331363Y458911D01*
Y455400D02*
Y458911D01*
X331219Y459055D02*
Y463219D01*
X320063Y460260D02*
X320563Y459760D01*
X320063Y460260D02*
Y460260D01*
X328563Y452600D02*
X331363Y455400D01*
X328563Y452600D02*
Y459760D01*
Y452600D02*
X328563Y452600D01*
X348000Y468500D02*
X352500D01*
X344500Y472000D02*
X348000Y468500D01*
X348563Y434000D02*
Y437600D01*
X333500Y452663D02*
Y460000D01*
Y452663D02*
X333563Y452600D01*
X337007Y447200D02*
X338963D01*
X336363Y447844D02*
X337007Y447200D01*
X338963D02*
X348563Y437600D01*
X333563Y452600D02*
X336363Y449800D01*
Y447844D02*
Y449800D01*
X341363Y457863D02*
X343000Y459500D01*
X341363Y455400D02*
Y457863D01*
X338563Y452600D02*
X341363Y455400D01*
X337000Y458823D02*
Y462500D01*
X338563Y452600D02*
Y457260D01*
X337000Y458823D02*
X338563Y457260D01*
X363503Y447200D02*
X363563Y447260D01*
X342007Y447200D02*
X363503D01*
X338563Y452600D02*
X341363Y449800D01*
Y447844D02*
X342007Y447200D01*
X341363Y447844D02*
Y449800D01*
X322063Y462760D02*
Y468260D01*
X328563Y434000D02*
X329563Y433000D01*
Y426822D02*
Y433000D01*
X350309Y454347D02*
X363563D01*
X348563Y452600D02*
X350309Y454347D01*
X343563Y452600D02*
X348563D01*
X327563Y417260D02*
X346063D01*
X323563Y424260D02*
Y434000D01*
X322063Y422760D02*
X323563Y424260D01*
X252000Y475000D02*
X255260Y471740D01*
X251437D02*
Y476740D01*
X242000Y469226D02*
Y475000D01*
X233500Y426237D02*
X236497Y423240D01*
X222000Y475000D02*
X229000Y468000D01*
X213980Y466980D02*
X222000Y475000D01*
X260979Y464521D02*
X263500Y462000D01*
X212500Y459500D02*
X227500D01*
X263500Y457500D02*
Y461000D01*
X264500Y462000D01*
X263500Y444500D02*
X263500Y444500D01*
Y437539D02*
Y444500D01*
X255260Y471740D02*
X262240D01*
X212500Y466980D02*
X213980D01*
X263500Y427500D02*
Y431240D01*
X229800Y433040D02*
X230500Y433740D01*
X233437Y426174D02*
X233500Y426237D01*
X233437Y425740D02*
Y426174D01*
X236497Y423240D02*
X249760D01*
X225500Y433740D02*
X225500Y433740D01*
X225500Y427000D02*
Y433740D01*
X219350Y433740D02*
X220500D01*
X213000Y440091D02*
X219350Y433740D01*
X218950Y452340D02*
X220500D01*
X213000Y446390D02*
X218950Y452340D01*
X231619Y474619D02*
X232000Y475000D01*
X231619Y460415D02*
Y474619D01*
X225500Y452340D02*
X228300Y455140D01*
X233219Y455059D02*
Y460445D01*
X242000Y469226D01*
X230500Y452340D02*
X233219Y455059D01*
X239718Y464521D02*
X260979D01*
X238156Y462959D02*
X239718Y464521D01*
X238156Y458795D02*
X238300Y458651D01*
Y455140D02*
Y458651D01*
X238156Y458795D02*
Y462959D01*
X227000Y460000D02*
X227500Y459500D01*
X235500Y452340D02*
X238300Y455140D01*
X235500Y452340D02*
Y459500D01*
Y452340D02*
X235500Y452340D01*
X254937Y468240D02*
X259437D01*
X251437Y471740D02*
X254937Y468240D01*
X255500Y433740D02*
Y437340D01*
X240437Y452403D02*
Y459740D01*
Y452403D02*
X240500Y452340D01*
X243944Y446940D02*
X245900D01*
X243300Y447584D02*
X243944Y446940D01*
X245900D02*
X255500Y437340D01*
X240500Y452340D02*
X243300Y449540D01*
Y447584D02*
Y449540D01*
X248300Y457603D02*
X249937Y459240D01*
X248300Y455140D02*
Y457603D01*
X245500Y452340D02*
X248300Y455140D01*
X243937Y458563D02*
Y462240D01*
X245500Y452340D02*
Y457000D01*
X243937Y458563D02*
X245500Y457000D01*
X270440Y446940D02*
X270500Y447000D01*
X248944Y446940D02*
X270440D01*
X245500Y452340D02*
X248300Y449540D01*
Y447584D02*
X248944Y446940D01*
X248300Y447584D02*
Y449540D01*
X235500Y433740D02*
X236500Y432740D01*
Y426562D02*
Y432740D01*
X255500Y452340D02*
X257246Y454087D01*
X270500D01*
X250500Y452340D02*
X255500D01*
X234500Y417000D02*
X253000D01*
X230500Y424000D02*
Y433740D01*
X229000Y422500D02*
X230500Y424000D01*
X229000Y422500D02*
X234500Y417000D01*
X168803Y471500D02*
X170411Y469892D01*
X167542Y464281D02*
X170063Y461760D01*
X119063Y459260D02*
X134063D01*
X147000Y452163D02*
X147063Y452100D01*
X147000Y452163D02*
Y459500D01*
X144719Y462719D02*
X146281Y464281D01*
X144719Y458555D02*
Y462719D01*
Y458555D02*
X144863Y458411D01*
Y454900D02*
Y458411D01*
X161500Y468000D02*
X166000D01*
X158000Y471500D02*
X161500Y468000D01*
X146281Y464281D02*
X167542D01*
X139782Y460205D02*
X148563Y468986D01*
X139782Y454819D02*
Y460205D01*
X158000Y471500D02*
Y476500D01*
X135563Y462260D02*
Y467760D01*
X150500Y458323D02*
Y462000D01*
Y458323D02*
X152063Y456760D01*
X161823Y471500D02*
X168803D01*
X158563Y474760D02*
X161823Y471500D01*
X154863Y457363D02*
X156500Y459000D01*
X154863Y454900D02*
Y457363D01*
X152063Y452100D02*
X154863Y454900D01*
X142063Y452100D02*
Y459260D01*
X142063Y452100D02*
X144863Y454900D01*
X132063Y452100D02*
X134863Y454900D01*
X140063Y425997D02*
X143060Y423000D01*
X142063Y433500D02*
X143063Y432500D01*
X152063Y452100D02*
Y456760D01*
Y452100D02*
X154863Y449300D01*
X137063Y452100D02*
X139782Y454819D01*
X157063Y452100D02*
X162063D01*
X163809Y453847D01*
X147063Y452100D02*
X149863Y449300D01*
X140000Y425500D02*
Y425934D01*
X140063Y425997D01*
X128563Y474760D02*
X135563Y467760D01*
X148563Y468986D02*
Y474760D01*
X170063Y457260D02*
Y460760D01*
X171063Y461760D01*
X170063Y444260D02*
X170063Y444260D01*
Y437299D02*
Y444260D01*
X155507Y446700D02*
X177003D01*
X163809Y453847D02*
X177063D01*
X154863Y447344D02*
Y449300D01*
Y447344D02*
X155507Y446700D01*
X177003D02*
X177063Y446760D01*
X119563Y446150D02*
X125513Y452100D01*
X119563Y439850D02*
X125913Y433500D01*
X120543Y466740D02*
X128563Y474760D01*
X119063Y466740D02*
X120543D01*
X138182Y460175D02*
Y474379D01*
X134863Y456856D02*
X138182Y460175D01*
X134863Y454900D02*
Y456856D01*
X138182Y474379D02*
X138563Y474760D01*
X133563Y459760D02*
Y459760D01*
Y459760D02*
X134063Y459260D01*
X142063Y452100D02*
X142063Y452100D01*
X135563Y422260D02*
X141063Y416760D01*
X159563D01*
X170063Y427260D02*
Y431000D01*
X135563Y422260D02*
X137063Y423760D01*
Y433500D01*
X149863Y447344D02*
Y449300D01*
X143063Y426322D02*
Y432500D01*
X143060Y423000D02*
X156323D01*
X132063Y433500D02*
X132063Y433500D01*
X132063Y426760D02*
Y433500D01*
X136363Y432800D02*
X137063Y433500D01*
X125913D02*
X127063D01*
X125513Y452100D02*
X127063D01*
X145764Y367783D02*
X150980Y373000D01*
X122402Y367783D02*
X145043D01*
X118059Y363441D02*
X122402Y367783D01*
X118059Y369239D02*
Y373441D01*
X113900Y365080D02*
X118059Y369239D01*
X113900Y342044D02*
Y365080D01*
Y342044D02*
X114544Y341400D01*
X117050D01*
X118059Y340391D01*
Y335559D02*
Y340391D01*
X118000Y335500D02*
X118059Y335559D01*
X181878Y377500D02*
X189187Y370192D01*
X118059Y373441D02*
X122118Y377500D01*
X181878D01*
X149863Y447344D02*
X150507Y446700D01*
X162063Y433500D02*
Y437100D01*
X150507Y446700D02*
X152463D01*
X162063Y437100D01*
X262240Y471740D02*
X263848Y470132D01*
X145043Y367783D02*
Y374457D01*
X229000Y462500D02*
Y468000D01*
X227000Y460000D02*
Y460000D01*
X228300Y455140D02*
Y457096D01*
X231619Y460415D01*
X212846Y453847D02*
X213000Y454000D01*
X252500Y454340D02*
Y461000D01*
X250500Y452340D02*
X252500Y454340D01*
X118559Y345441D02*
X119000Y345882D01*
X131763Y413593D02*
Y414260D01*
X344500Y472000D02*
Y477000D01*
X355303Y472000D02*
X356911Y470392D01*
X270500Y454087D02*
X306913D01*
X307000Y454000D01*
X346000Y455037D02*
Y460500D01*
X343563Y452600D02*
X346000Y455037D01*
X317336Y413833D02*
X318263Y414760D01*
X117000Y261298D02*
Y265500D01*
X112900Y257198D02*
X117000Y261298D01*
Y235500D02*
Y239702D01*
X112400Y282900D02*
Y301198D01*
X117000Y255500D02*
X118260Y254240D01*
X117000Y265500D02*
X134457D01*
X135457Y266500D01*
X118260Y246760D02*
X137000D01*
X117000Y245500D02*
X118260Y246760D01*
X308000Y218043D02*
Y230000D01*
Y218043D02*
X308043Y218000D01*
X282780Y243776D02*
X283057Y243498D01*
X298724Y294876D02*
Y295153D01*
X298194Y233954D02*
X304046D01*
X239276Y251847D02*
Y252124D01*
X242929D02*
X243919Y253115D01*
X322323Y422500D02*
X326500D01*
X322063Y422760D02*
X322323Y422500D01*
X327563Y417260D01*
X247256Y303315D02*
Y306690D01*
Y303315D02*
X247346Y303224D01*
X246078Y307868D02*
X247256Y306690D01*
X249000Y310000D02*
X249037Y309963D01*
Y303502D02*
Y309963D01*
X244678Y307868D02*
X246078D01*
X300957Y218000D02*
X301370D01*
X305324Y214046D02*
X310763D01*
X197500Y361500D02*
X200500Y358500D01*
X186020Y361520D02*
X186500Y362000D01*
X186020Y357480D02*
Y361520D01*
X253500Y417500D02*
X261500D01*
X253000Y417000D02*
X253500Y417500D01*
X263500Y427500D01*
X286717Y243776D02*
X286995Y243498D01*
X288685Y243776D02*
X288963Y243498D01*
X304708Y235554D02*
X304763Y235500D01*
X311000D01*
X311500Y236000D01*
X315381Y237619D02*
X317500Y235500D01*
X260900Y360100D02*
X300163D01*
X159803Y417000D02*
X165000D01*
X159563Y416760D02*
X159803Y417000D01*
X170063Y427260D01*
X254942Y303502D02*
Y307172D01*
X248220Y340280D02*
Y344382D01*
Y340280D02*
X248500Y340000D01*
X245661Y338436D02*
X245781Y338555D01*
X245661Y344382D02*
X245781Y344262D01*
Y338555D02*
Y344262D01*
X169000Y302000D02*
X176500D01*
X158000Y313000D02*
X169000Y302000D01*
X248220Y354618D02*
Y356900D01*
X242772Y358500D02*
X243756Y359484D01*
X247567D01*
X248551Y358500D01*
X247549Y356900D02*
Y357239D01*
X246904Y357884D02*
X247549Y357239D01*
X244418Y357884D02*
X246904D01*
X243435Y356900D02*
X244418Y357884D01*
X200500Y358500D02*
X238274D01*
X238955Y359181D01*
X240845D01*
X241526Y358500D01*
X242772D01*
X239900Y356900D02*
X243435D01*
X119000Y302000D02*
X132000D01*
X116500Y299500D02*
X119000Y302000D01*
X248551Y358500D02*
X250449D01*
X251433Y359484D01*
X255244D01*
X256228Y358500D01*
X299500D01*
X250780Y354618D02*
X251451D01*
Y357239D02*
X252096Y357884D01*
X254582D01*
X255226Y357239D01*
Y356274D02*
Y357239D01*
Y356274D02*
X262000Y349500D01*
X116500Y289500D02*
X131000D01*
X250780Y344382D02*
X250781Y344380D01*
Y321781D02*
Y344380D01*
X249000Y320000D02*
X250781Y321781D01*
X143543Y265500D02*
X150000D01*
X142543Y266500D02*
X143543Y265500D01*
X245661Y320113D02*
X248055Y317719D01*
X245661Y320113D02*
Y338436D01*
X253339Y344382D02*
X256000Y341721D01*
X254942Y307172D02*
X256000Y308229D01*
Y341721D01*
X252974Y303502D02*
Y307466D01*
X254400Y308892D01*
X249007Y317719D02*
X254400Y312326D01*
Y308892D02*
Y312326D01*
X248055Y317719D02*
X249007D01*
X251284Y303224D02*
Y312216D01*
X251000Y312500D02*
X251284Y312216D01*
X240034Y307466D02*
X240308D01*
X240555Y307219D01*
X192500Y349067D02*
X205159D01*
X246078Y307868D02*
Y308148D01*
X205159Y349067D02*
X246078Y308148D01*
X244029Y307219D02*
X244678Y307868D01*
X116500Y305000D02*
Y305298D01*
Y309500D01*
Y305000D02*
X145000D01*
X147719Y312719D02*
X148000Y313000D01*
X147719Y298781D02*
Y312719D01*
Y298781D02*
X149000Y297500D01*
X150000Y305000D02*
Y305500D01*
X112400Y301198D02*
X116500Y305298D01*
X150000Y305000D02*
X158000Y313000D01*
X168000D02*
X185000D01*
X304046Y233954D02*
X308000Y230000D01*
X300913D02*
X300957Y229957D01*
Y218000D02*
Y229957D01*
X301370Y218000D02*
X305324Y214046D01*
D26*
X224200Y412833D02*
X260656D01*
X161221Y324803D02*
X170417Y334000D01*
X163000D02*
X170417D01*
X177000D01*
X262511Y412000D02*
X264344Y413833D01*
X261489Y412000D02*
X262511D01*
X260656Y412833D02*
X261489Y412000D01*
X223367D02*
X224200Y412833D01*
X264344Y413833D02*
X317336D01*
X206885Y412000D02*
X223367D01*
X206604Y412281D02*
X206885Y412000D01*
X156555Y412281D02*
X206604D01*
X156274Y412000D02*
X156555Y412281D01*
X133356Y412000D02*
X156274D01*
X279500Y288000D02*
X282500Y285000D01*
X271500Y288000D02*
X279500D01*
X230000Y306500D02*
X234500D01*
X228781Y307719D02*
X230000Y306500D01*
X185500Y331500D02*
X209281Y307719D01*
X228781D01*
X177000Y334000D02*
X185500D01*
X118559Y345441D02*
X151559D01*
X122500Y383000D02*
X131763Y392263D01*
X119000Y345882D02*
Y354500D01*
X131763Y392263D02*
Y413593D01*
X138000Y313000D02*
Y326961D01*
X154020Y342980D01*
X185500Y334000D02*
Y340894D01*
D27*
X118110Y393701D02*
D03*
X364173D02*
D03*
X118110Y196850D02*
D03*
X364173D02*
D03*
D28*
X128000Y476500D02*
D03*
X138000D02*
D03*
X148000D02*
D03*
X116500Y279500D02*
D03*
Y289500D02*
D03*
Y299500D02*
D03*
X315000Y477000D02*
D03*
X325000D02*
D03*
X335000D02*
D03*
X221437Y476740D02*
D03*
X231437D02*
D03*
X241437D02*
D03*
X118000Y335500D02*
D03*
X118059Y363441D02*
D03*
X117000Y235500D02*
D03*
Y245500D02*
D03*
Y255500D02*
D03*
D29*
X158000Y476500D02*
D03*
X345000Y477000D02*
D03*
X251437Y476740D02*
D03*
D30*
X116500Y309500D02*
D03*
X118000Y345500D02*
D03*
X118059Y373441D02*
D03*
X117000Y265500D02*
D03*
D31*
X158000Y313000D02*
D03*
X168000D02*
D03*
X148000D02*
D03*
D32*
X138000D02*
D03*
D33*
X137795Y255906D02*
D03*
X147638Y246063D02*
D03*
X157480Y255906D02*
D03*
X127953Y295276D02*
D03*
X147638Y324803D02*
D03*
X137795Y334646D02*
D03*
X305000Y288000D02*
D03*
X219000Y242000D02*
D03*
X257000Y222000D02*
D03*
X270000Y218500D02*
D03*
X286500Y190500D02*
D03*
X241000D02*
D03*
X262000Y407500D02*
D03*
X160500Y409000D02*
D03*
X277000Y315500D02*
D03*
X269962Y237887D02*
D03*
X279263Y238263D02*
D03*
X273000Y233500D02*
D03*
X275130Y235945D02*
D03*
X277500Y230000D02*
D03*
X280000Y234000D02*
D03*
X267000Y237500D02*
D03*
X264000Y237000D02*
D03*
X269500Y229500D02*
D03*
X261500Y229000D02*
D03*
X258000Y231500D02*
D03*
X259000Y236000D02*
D03*
X231500Y241500D02*
D03*
X282500Y285000D02*
D03*
X271500Y288000D02*
D03*
X239500Y247000D02*
D03*
X235500Y247500D02*
D03*
X230500D02*
D03*
X232000Y277500D02*
D03*
X306000Y250500D02*
D03*
X304500Y257000D02*
D03*
X295500Y244500D02*
D03*
X315500Y254000D02*
D03*
X322000Y255000D02*
D03*
X282000Y229500D02*
D03*
X253500Y238000D02*
D03*
X254500Y232000D02*
D03*
X245500Y235000D02*
D03*
X246500Y288500D02*
D03*
X298000Y303000D02*
D03*
X238000Y300000D02*
D03*
X234500Y306500D02*
D03*
X214500Y313500D02*
D03*
X187500Y321500D02*
D03*
X197500Y328500D02*
D03*
X298000Y247500D02*
D03*
X251000Y228000D02*
D03*
X293500Y231500D02*
D03*
X190000Y308000D02*
D03*
X200441Y342000D02*
D03*
X356563Y444760D02*
D03*
Y457760D02*
D03*
X326500Y426000D02*
D03*
X318563Y427260D02*
D03*
X320063Y460260D02*
D03*
X328563Y459760D02*
D03*
X352500Y468500D02*
D03*
X333500Y460000D02*
D03*
X343000Y459500D02*
D03*
X337000Y462500D02*
D03*
X329563Y426822D02*
D03*
X322063Y462760D02*
D03*
X263500Y444500D02*
D03*
Y457500D02*
D03*
X233437Y425740D02*
D03*
X225500Y427000D02*
D03*
X235500Y459500D02*
D03*
X259437Y468240D02*
D03*
X240437Y459740D02*
D03*
X249937Y459240D02*
D03*
X243937Y462240D02*
D03*
X236500Y426562D02*
D03*
X147000Y459500D02*
D03*
X166000Y468000D02*
D03*
X135563Y462260D02*
D03*
X150500Y462000D02*
D03*
X156500Y459000D02*
D03*
X140000Y425500D02*
D03*
X170063Y457260D02*
D03*
Y444260D02*
D03*
X142063Y459260D02*
D03*
X133563Y459760D02*
D03*
X143063Y426322D02*
D03*
X132063Y426760D02*
D03*
X150980Y373000D02*
D03*
X145043Y374457D02*
D03*
X182000Y452500D02*
D03*
X229000Y462500D02*
D03*
X227000Y460000D02*
D03*
X213000Y454000D02*
D03*
X252500Y461000D02*
D03*
X122500Y383000D02*
D03*
X119000Y354500D02*
D03*
X307000Y454000D02*
D03*
X346000Y460500D02*
D03*
X326500Y422500D02*
D03*
X243687Y304000D02*
D03*
X249000Y310000D02*
D03*
X227000Y256000D02*
D03*
X197500Y361500D02*
D03*
X186500Y362000D02*
D03*
X261500Y417500D02*
D03*
X311500Y236000D02*
D03*
X317500Y235500D02*
D03*
X165000Y417000D02*
D03*
X248500Y340000D02*
D03*
X176500Y302000D02*
D03*
X239900Y356900D02*
D03*
X132000Y302000D02*
D03*
X262000Y349500D02*
D03*
X131000Y289500D02*
D03*
X249000Y320000D02*
D03*
X150000Y265500D02*
D03*
X260500Y309000D02*
D03*
X251000Y312500D02*
D03*
X241500Y309500D02*
D03*
X149000Y297500D02*
D03*
X145000Y305000D02*
D03*
X150000D02*
D03*
X196000Y307500D02*
D03*
M02*
