G04 Layer_Color=65535*
%FSLAX25Y25*%
%MOIN*%
G70*
G01*
G75*
%ADD25C,0.01000*%
%ADD34C,0.00984*%
%ADD35C,0.00600*%
%ADD36C,0.02362*%
%ADD37C,0.00400*%
%ADD38C,0.00787*%
%ADD39C,0.00591*%
%ADD40C,0.00750*%
G36*
X132813Y427200D02*
X131313D01*
Y428200D01*
X132813D01*
Y427200D01*
D02*
G37*
G36*
X226250Y427440D02*
X224750D01*
Y428440D01*
X226250D01*
Y427440D01*
D02*
G37*
G36*
X319313Y427700D02*
X317813D01*
Y428700D01*
X319313D01*
Y427700D01*
D02*
G37*
D25*
X272352Y199000D02*
G03*
X272352Y199000I-8352J0D01*
G01*
X252189Y187189D02*
Y210811D01*
X275811D01*
Y187189D02*
Y210811D01*
X252189Y187189D02*
X275811D01*
X143999Y236888D02*
X140000D01*
Y233889D01*
X141999D01*
X140000D01*
Y230890D01*
X146998D02*
X148997D01*
X149997Y231890D01*
Y233889D01*
X148997Y234889D01*
X146998D01*
X145998Y233889D01*
Y231890D01*
X146998Y230890D01*
X151996Y234889D02*
Y230890D01*
Y232889D01*
X152996Y233889D01*
X153996Y234889D01*
X154995D01*
X157994Y230890D02*
X160993D01*
X161993Y231890D01*
X160993Y232889D01*
X158994D01*
X157994Y233889D01*
X158994Y234889D01*
X161993D01*
X166991Y230890D02*
X164992D01*
X163992Y231890D01*
Y233889D01*
X164992Y234889D01*
X166991D01*
X167991Y233889D01*
Y232889D01*
X163992D01*
X179987Y235888D02*
X178987Y236888D01*
X176988D01*
X175988Y235888D01*
Y234889D01*
X176988Y233889D01*
X178987D01*
X179987Y232889D01*
Y231890D01*
X178987Y230890D01*
X176988D01*
X175988Y231890D01*
X184985Y230890D02*
X182986D01*
X181986Y231890D01*
Y233889D01*
X182986Y234889D01*
X184985D01*
X185985Y233889D01*
Y232889D01*
X181986D01*
X187985Y230890D02*
Y234889D01*
X190983D01*
X191983Y233889D01*
Y230890D01*
X193983D02*
X196982D01*
X197981Y231890D01*
X196982Y232889D01*
X194982D01*
X193983Y233889D01*
X194982Y234889D01*
X197981D01*
X200980Y230890D02*
X202980D01*
X203979Y231890D01*
Y233889D01*
X202980Y234889D01*
X200980D01*
X199981Y233889D01*
Y231890D01*
X200980Y230890D01*
X205979Y234889D02*
Y230890D01*
Y232889D01*
X206978Y233889D01*
X207978Y234889D01*
X208978D01*
X143999Y226291D02*
X142999Y227290D01*
X141000D01*
X140000Y226291D01*
Y222292D01*
X141000Y221292D01*
X142999D01*
X143999Y222292D01*
X145998Y227290D02*
Y221292D01*
Y224291D01*
X146998Y225291D01*
X148997D01*
X149997Y224291D01*
Y221292D01*
X151996Y225291D02*
Y221292D01*
Y223292D01*
X152996Y224291D01*
X153996Y225291D01*
X154995D01*
X157994Y221292D02*
X159994D01*
X158994D01*
Y225291D01*
X157994D01*
X162993Y221292D02*
X165992D01*
X166991Y222292D01*
X165992Y223292D01*
X163992D01*
X162993Y224291D01*
X163992Y225291D01*
X166991D01*
X169990Y226291D02*
Y225291D01*
X168991D01*
X170990D01*
X169990D01*
Y222292D01*
X170990Y221292D01*
X173989D02*
X175988D01*
X174989D01*
Y225291D01*
X173989D01*
X178987Y221292D02*
Y225291D01*
X181986D01*
X182986Y224291D01*
Y221292D01*
X187985D02*
X185985D01*
X184985Y222292D01*
Y224291D01*
X185985Y225291D01*
X187985D01*
X188984Y224291D01*
Y223292D01*
X184985D01*
X196982Y227290D02*
Y226291D01*
X198981Y224291D01*
X200980Y226291D01*
Y227290D01*
X198981Y224291D02*
Y221292D01*
X202980Y225291D02*
Y222292D01*
X203979Y221292D01*
X206978D01*
Y225291D01*
X140000Y211695D02*
Y215693D01*
X141999Y217693D01*
X143999Y215693D01*
Y211695D01*
Y214694D01*
X140000D01*
X145998Y211695D02*
X147997D01*
X146998D01*
Y217693D01*
X145998D01*
X153996Y211695D02*
X151996D01*
X150996Y212694D01*
Y214694D01*
X151996Y215693D01*
X153996D01*
X154995Y214694D01*
Y213694D01*
X150996D01*
X156994Y215693D02*
X160993Y211695D01*
X158994Y213694D01*
X160993Y215693D01*
X156994Y211695D01*
X165992D02*
X163992D01*
X162993Y212694D01*
Y214694D01*
X163992Y215693D01*
X165992D01*
X166991Y214694D01*
Y213694D01*
X162993D01*
X168991Y211695D02*
X170990D01*
X169990D01*
Y215693D01*
X168991D01*
X143999Y207095D02*
X142999Y208095D01*
X141000D01*
X140000Y207095D01*
Y203097D01*
X141000Y202097D01*
X142999D01*
X143999Y203097D01*
Y205096D01*
X141999D01*
X146998Y206096D02*
X148997D01*
X149997Y205096D01*
Y202097D01*
X146998D01*
X145998Y203097D01*
X146998Y204096D01*
X149997D01*
X151996Y206096D02*
Y202097D01*
Y204096D01*
X152996Y205096D01*
X153996Y206096D01*
X154995D01*
X161993D02*
X158994D01*
X157994Y205096D01*
Y203097D01*
X158994Y202097D01*
X161993D01*
X163992D02*
X165992D01*
X164992D01*
Y206096D01*
X163992D01*
X169990D02*
X171990D01*
X172989Y205096D01*
Y202097D01*
X169990D01*
X168991Y203097D01*
X169990Y204096D01*
X172989D01*
X140000Y192499D02*
Y196498D01*
X141999Y198497D01*
X143999Y196498D01*
Y192499D01*
Y195498D01*
X140000D01*
X145998Y190500D02*
Y196498D01*
X148997D01*
X149997Y195498D01*
Y193499D01*
X148997Y192499D01*
X145998D01*
X151996Y196498D02*
Y192499D01*
Y194499D01*
X152996Y195498D01*
X153996Y196498D01*
X154995D01*
X157994Y192499D02*
X159994D01*
X158994D01*
Y196498D01*
X157994D01*
X162993Y192499D02*
X164992D01*
X163992D01*
Y198497D01*
X162993D01*
X177988Y192499D02*
X173989D01*
X177988Y196498D01*
Y197498D01*
X176988Y198497D01*
X174989D01*
X173989Y197498D01*
X179987D02*
X180987Y198497D01*
X182986D01*
X183986Y197498D01*
Y193499D01*
X182986Y192499D01*
X180987D01*
X179987Y193499D01*
Y197498D01*
X185985Y192499D02*
X187985D01*
X186985D01*
Y198497D01*
X185985Y197498D01*
X190983D02*
X191983Y198497D01*
X193983D01*
X194982Y197498D01*
Y196498D01*
X193983Y195498D01*
X194982Y194499D01*
Y193499D01*
X193983Y192499D01*
X191983D01*
X190983Y193499D01*
Y194499D01*
X191983Y195498D01*
X190983Y196498D01*
Y197498D01*
X191983Y195498D02*
X193983D01*
X132110Y335301D02*
Y329303D01*
X135109D01*
X136109Y330303D01*
Y334301D01*
X135109Y335301D01*
X132110D01*
X142107Y329303D02*
X138108D01*
X142107Y333302D01*
Y334301D01*
X141107Y335301D01*
X139108D01*
X138108Y334301D01*
X167323Y324803D02*
Y330801D01*
X170322D01*
X171321Y329802D01*
Y327802D01*
X170322Y326802D01*
X167323D01*
X169322D02*
X171321Y324803D01*
X173321Y330801D02*
X177320D01*
Y329802D01*
X173321Y325803D01*
Y324803D01*
D34*
X167524Y367783D02*
G03*
X167524Y367783I-492J0D01*
G01*
X243114Y243776D02*
G03*
X243114Y243776I-492J0D01*
G01*
D35*
X350763Y444500D02*
G03*
X350763Y442100I0J-1200D01*
G01*
X257700Y444240D02*
G03*
X257700Y441840I0J-1200D01*
G01*
X164263Y444000D02*
G03*
X164263Y441600I0J-1200D01*
G01*
X243595Y343988D02*
G03*
X243595Y343988I-300J0D01*
G01*
X350763Y439011D02*
Y447589D01*
X311363Y439011D02*
Y447589D01*
X257700Y438752D02*
Y447329D01*
X218300Y438752D02*
Y447329D01*
X164263Y438511D02*
Y447089D01*
X124863Y438511D02*
Y447089D01*
X263999Y322499D02*
X263499Y322999D01*
X262500D01*
X262000Y322499D01*
Y320500D01*
X262500Y320000D01*
X263499D01*
X263999Y320500D01*
X266998Y320000D02*
X264999D01*
X266998Y321999D01*
Y322499D01*
X266498Y322999D01*
X265499D01*
X264999Y322499D01*
X267998D02*
X268498Y322999D01*
X269498D01*
X269997Y322499D01*
Y320500D01*
X269498Y320000D01*
X268498D01*
X267998Y320500D01*
Y322499D01*
X212499Y248999D02*
X212000Y249499D01*
X211000D01*
X210500Y248999D01*
Y247000D01*
X211000Y246500D01*
X212000D01*
X212499Y247000D01*
X213499Y246500D02*
X214499D01*
X213999D01*
Y249499D01*
X213499Y248999D01*
X215998D02*
X216498Y249499D01*
X217498D01*
X217998Y248999D01*
Y248499D01*
X217498Y248000D01*
X217998Y247500D01*
Y247000D01*
X217498Y246500D01*
X216498D01*
X215998Y247000D01*
Y247500D01*
X216498Y248000D01*
X215998Y248499D01*
Y248999D01*
X216498Y248000D02*
X217498D01*
X263000Y230999D02*
Y230499D01*
X264000Y229500D01*
X264999Y230499D01*
Y230999D01*
X264000Y229500D02*
Y228000D01*
X265999D02*
X266999D01*
X266499D01*
Y230999D01*
X265999Y230499D01*
X307000Y408999D02*
Y406000D01*
X308500D01*
X308999Y406500D01*
Y408499D01*
X308500Y408999D01*
X307000D01*
X309999Y406000D02*
X310999D01*
X310499D01*
Y408999D01*
X309999Y408499D01*
X312498Y405500D02*
X314498D01*
X315497Y406000D02*
Y408999D01*
X316997D01*
X317497Y408499D01*
Y407500D01*
X316997Y407000D01*
X315497D01*
X318496Y406000D02*
Y407999D01*
X319496Y408999D01*
X320496Y407999D01*
Y406000D01*
Y407500D01*
X318496D01*
X321495Y408499D02*
X321995Y408999D01*
X322995D01*
X323495Y408499D01*
Y407999D01*
X322995Y407500D01*
X322495D01*
X322995D01*
X323495Y407000D01*
Y406500D01*
X322995Y406000D01*
X321995D01*
X321495Y406500D01*
X218500Y409499D02*
Y406500D01*
X220000D01*
X220499Y407000D01*
Y408999D01*
X220000Y409499D01*
X218500D01*
X221499Y406500D02*
X222499D01*
X221999D01*
Y409499D01*
X221499Y408999D01*
X223998Y406000D02*
X225998D01*
X226997Y406500D02*
Y409499D01*
X228497D01*
X228997Y408999D01*
Y408000D01*
X228497Y407500D01*
X226997D01*
X229996Y406500D02*
Y408499D01*
X230996Y409499D01*
X231996Y408499D01*
Y406500D01*
Y408000D01*
X229996D01*
X234995Y406500D02*
X232995D01*
X234995Y408499D01*
Y408999D01*
X234495Y409499D01*
X233495D01*
X232995Y408999D01*
X125063Y409259D02*
Y406260D01*
X126562D01*
X127062Y406760D01*
Y408759D01*
X126562Y409259D01*
X125063D01*
X128062Y406260D02*
X129062D01*
X128562D01*
Y409259D01*
X128062Y408759D01*
X130561Y405760D02*
X132561D01*
X133560Y406260D02*
Y409259D01*
X135060D01*
X135560Y408759D01*
Y407759D01*
X135060Y407260D01*
X133560D01*
X136559Y406260D02*
Y408259D01*
X137559Y409259D01*
X138559Y408259D01*
Y406260D01*
Y407759D01*
X136559D01*
X139558Y406260D02*
X140558D01*
X140058D01*
Y409259D01*
X139558Y408759D01*
X292063Y433259D02*
Y430760D01*
X292563Y430260D01*
X293563D01*
X294062Y430760D01*
Y433259D01*
X296562Y430260D02*
Y433259D01*
X295062Y431759D01*
X297061D01*
X298061Y429760D02*
X300060D01*
X301060Y430260D02*
Y433259D01*
X302560D01*
X303059Y432759D01*
Y431759D01*
X302560Y431259D01*
X301060D01*
X304059Y430260D02*
Y432259D01*
X305059Y433259D01*
X306058Y432259D01*
Y430260D01*
Y431759D01*
X304059D01*
X307058Y432759D02*
X307558Y433259D01*
X308558D01*
X309057Y432759D01*
Y432259D01*
X308558Y431759D01*
X308058D01*
X308558D01*
X309057Y431259D01*
Y430760D01*
X308558Y430260D01*
X307558D01*
X307058Y430760D01*
X199000Y432999D02*
Y430500D01*
X199500Y430000D01*
X200500D01*
X200999Y430500D01*
Y432999D01*
X203499Y430000D02*
Y432999D01*
X201999Y431499D01*
X203998D01*
X204998Y429500D02*
X206997D01*
X207997Y430000D02*
Y432999D01*
X209497D01*
X209996Y432499D01*
Y431499D01*
X209497Y431000D01*
X207997D01*
X210996Y430000D02*
Y431999D01*
X211996Y432999D01*
X212996Y431999D01*
Y430000D01*
Y431499D01*
X210996D01*
X215995Y430000D02*
X213995D01*
X215995Y431999D01*
Y432499D01*
X215495Y432999D01*
X214495D01*
X213995Y432499D01*
X105563Y432759D02*
Y430260D01*
X106063Y429760D01*
X107062D01*
X107562Y430260D01*
Y432759D01*
X110062Y429760D02*
Y432759D01*
X108562Y431259D01*
X110561D01*
X111561Y429260D02*
X113560D01*
X114560Y429760D02*
Y432759D01*
X116060D01*
X116559Y432259D01*
Y431259D01*
X116060Y430759D01*
X114560D01*
X117559Y429760D02*
Y431759D01*
X118559Y432759D01*
X119558Y431759D01*
Y429760D01*
Y431259D01*
X117559D01*
X120558Y429760D02*
X121558D01*
X121058D01*
Y432759D01*
X120558Y432259D01*
X243000Y364999D02*
Y362500D01*
X243500Y362000D01*
X244499D01*
X244999Y362500D01*
Y364999D01*
X245999Y364499D02*
X246499Y364999D01*
X247498D01*
X247998Y364499D01*
Y363999D01*
X247498Y363499D01*
X246999D01*
X247498D01*
X247998Y363000D01*
Y362500D01*
X247498Y362000D01*
X246499D01*
X245999Y362500D01*
X237724Y306125D02*
Y303626D01*
X238224Y303126D01*
X239224D01*
X239724Y303626D01*
Y306125D01*
X242723Y303126D02*
X240723D01*
X242723Y305125D01*
Y305625D01*
X242223Y306125D01*
X241223D01*
X240723Y305625D01*
X141980Y326499D02*
Y324000D01*
X142480Y323500D01*
X143480D01*
X143980Y324000D01*
Y326499D01*
X144979Y323500D02*
X145979D01*
X145479D01*
Y326499D01*
X144979Y325999D01*
X240499Y209501D02*
X240999Y210000D01*
Y211000D01*
X240499Y211500D01*
X239999D01*
X239499Y211000D01*
Y210000D01*
X239000Y209501D01*
X238500D01*
X238000Y210000D01*
Y211000D01*
X238500Y211500D01*
X240999Y208501D02*
X238000D01*
X239000Y207501D01*
X238000Y206502D01*
X240999D01*
X238000Y205502D02*
Y204502D01*
Y205002D01*
X240999D01*
X240499Y205502D01*
X301563Y436260D02*
X298564D01*
Y437759D01*
X299064Y438259D01*
X300063D01*
X300563Y437759D01*
Y436260D01*
Y437259D02*
X301563Y438259D01*
X302563Y440259D02*
Y440758D01*
X302063Y441258D01*
X299564D01*
Y439759D01*
X300063Y439259D01*
X301063D01*
X301563Y439759D01*
Y441258D01*
X302063Y442258D02*
Y444257D01*
X301563Y445257D02*
X298564D01*
Y446757D01*
X299064Y447256D01*
X300063D01*
X300563Y446757D01*
Y445257D01*
X301563Y448256D02*
X299564D01*
X298564Y449256D01*
X299564Y450255D01*
X301563D01*
X300063D01*
Y448256D01*
X299064Y451255D02*
X298564Y451755D01*
Y452754D01*
X299064Y453254D01*
X299564D01*
X300063Y452754D01*
Y452255D01*
Y452754D01*
X300563Y453254D01*
X301063D01*
X301563Y452754D01*
Y451755D01*
X301063Y451255D01*
X208500Y436000D02*
X205501D01*
Y437500D01*
X206001Y437999D01*
X207000D01*
X207500Y437500D01*
Y436000D01*
Y437000D02*
X208500Y437999D01*
X209500Y439999D02*
Y440498D01*
X209000Y440998D01*
X206501D01*
Y439499D01*
X207000Y438999D01*
X208000D01*
X208500Y439499D01*
Y440998D01*
X209000Y441998D02*
Y443997D01*
X208500Y444997D02*
X205501D01*
Y446497D01*
X206001Y446996D01*
X207000D01*
X207500Y446497D01*
Y444997D01*
X208500Y447996D02*
X206501D01*
X205501Y448996D01*
X206501Y449996D01*
X208500D01*
X207000D01*
Y447996D01*
X208500Y452994D02*
Y450995D01*
X206501Y452994D01*
X206001D01*
X205501Y452495D01*
Y451495D01*
X206001Y450995D01*
X115063Y435760D02*
X112064D01*
Y437259D01*
X112564Y437759D01*
X113564D01*
X114063Y437259D01*
Y435760D01*
Y436760D02*
X115063Y437759D01*
X116063Y439759D02*
Y440258D01*
X115563Y440758D01*
X113064D01*
Y439259D01*
X113564Y438759D01*
X114563D01*
X115063Y439259D01*
Y440758D01*
X115563Y441758D02*
Y443757D01*
X115063Y444757D02*
X112064D01*
Y446256D01*
X112564Y446756D01*
X113564D01*
X114063Y446256D01*
Y444757D01*
X115063Y447756D02*
X113064D01*
X112064Y448756D01*
X113064Y449755D01*
X115063D01*
X113564D01*
Y447756D01*
X115063Y450755D02*
Y451755D01*
Y451255D01*
X112064D01*
X112564Y450755D01*
X342063Y409260D02*
Y412259D01*
X343563D01*
X344062Y411759D01*
Y410759D01*
X343563Y410259D01*
X342063D01*
X343063D02*
X344062Y409260D01*
X347061Y412259D02*
X346062Y411759D01*
X345062Y410759D01*
Y409760D01*
X345562Y409260D01*
X346562D01*
X347061Y409760D01*
Y410259D01*
X346562Y410759D01*
X345062D01*
X348061Y408760D02*
X350060D01*
X351060Y409260D02*
Y412259D01*
X352560D01*
X353059Y411759D01*
Y410759D01*
X352560Y410259D01*
X351060D01*
X354059Y409260D02*
Y411259D01*
X355059Y412259D01*
X356058Y411259D01*
Y409260D01*
Y410759D01*
X354059D01*
X357058Y411759D02*
X357558Y412259D01*
X358558D01*
X359057Y411759D01*
Y411259D01*
X358558Y410759D01*
X358058D01*
X358558D01*
X359057Y410259D01*
Y409760D01*
X358558Y409260D01*
X357558D01*
X357058Y409760D01*
X241000Y407000D02*
Y409999D01*
X242499D01*
X242999Y409499D01*
Y408499D01*
X242499Y408000D01*
X241000D01*
X242000D02*
X242999Y407000D01*
X245998Y409999D02*
X244999Y409499D01*
X243999Y408499D01*
Y407500D01*
X244499Y407000D01*
X245498D01*
X245998Y407500D01*
Y408000D01*
X245498Y408499D01*
X243999D01*
X246998Y406500D02*
X248997D01*
X249997Y407000D02*
Y409999D01*
X251497D01*
X251996Y409499D01*
Y408499D01*
X251497Y408000D01*
X249997D01*
X252996Y407000D02*
Y408999D01*
X253996Y409999D01*
X254995Y408999D01*
Y407000D01*
Y408499D01*
X252996D01*
X257995Y407000D02*
X255995D01*
X257995Y408999D01*
Y409499D01*
X257495Y409999D01*
X256495D01*
X255995Y409499D01*
X153500Y404000D02*
Y406999D01*
X154999D01*
X155499Y406499D01*
Y405500D01*
X154999Y405000D01*
X153500D01*
X154500D02*
X155499Y404000D01*
X158498Y406999D02*
X157499Y406499D01*
X156499Y405500D01*
Y404500D01*
X156999Y404000D01*
X157999D01*
X158498Y404500D01*
Y405000D01*
X157999Y405500D01*
X156499D01*
X159498Y403500D02*
X161497D01*
X162497Y404000D02*
Y406999D01*
X163997D01*
X164496Y406499D01*
Y405500D01*
X163997Y405000D01*
X162497D01*
X165496Y404000D02*
Y405999D01*
X166496Y406999D01*
X167496Y405999D01*
Y404000D01*
Y405500D01*
X165496D01*
X168495Y404000D02*
X169495D01*
X168995D01*
Y406999D01*
X168495Y406499D01*
X233000Y225500D02*
Y228499D01*
X234500D01*
X234999Y227999D01*
Y226999D01*
X234500Y226500D01*
X233000D01*
X234000D02*
X234999Y225500D01*
X237998Y228499D02*
X235999D01*
Y226999D01*
X236999Y227499D01*
X237498D01*
X237998Y226999D01*
Y226000D01*
X237498Y225500D01*
X236499D01*
X235999Y226000D01*
X144000Y250500D02*
Y253499D01*
X145500D01*
X145999Y252999D01*
Y251999D01*
X145500Y251500D01*
X144000D01*
X145000D02*
X145999Y250500D01*
X146999Y252999D02*
X147499Y253499D01*
X148499D01*
X148998Y252999D01*
Y252499D01*
X148499Y251999D01*
X147999D01*
X148499D01*
X148998Y251500D01*
Y251000D01*
X148499Y250500D01*
X147499D01*
X146999Y251000D01*
X190980Y372500D02*
Y375499D01*
X192480D01*
X192980Y374999D01*
Y374000D01*
X192480Y373500D01*
X190980D01*
X191980D02*
X192980Y372500D01*
X195979D02*
X193979D01*
X195979Y374499D01*
Y374999D01*
X195479Y375499D01*
X194479D01*
X193979Y374999D01*
X300563Y457260D02*
X297564D01*
Y458759D01*
X298064Y459259D01*
X299063D01*
X299563Y458759D01*
Y457260D01*
Y458259D02*
X300563Y459259D01*
Y462258D02*
Y460259D01*
X298564Y462258D01*
X298064D01*
X297564Y461758D01*
Y460759D01*
X298064Y460259D01*
X301063Y463258D02*
Y465257D01*
X300563Y466257D02*
X297564D01*
Y467757D01*
X298064Y468256D01*
X299063D01*
X299563Y467757D01*
Y466257D01*
X300563Y469256D02*
X298564D01*
X297564Y470256D01*
X298564Y471255D01*
X300563D01*
X299063D01*
Y469256D01*
X298064Y472255D02*
X297564Y472755D01*
Y473755D01*
X298064Y474254D01*
X298564D01*
X299063Y473755D01*
Y473255D01*
Y473755D01*
X299563Y474254D01*
X300063D01*
X300563Y473755D01*
Y472755D01*
X300063Y472255D01*
X207500Y457000D02*
X204501D01*
Y458499D01*
X205001Y458999D01*
X206000D01*
X206500Y458499D01*
Y457000D01*
Y458000D02*
X207500Y458999D01*
Y461998D02*
Y459999D01*
X205501Y461998D01*
X205001D01*
X204501Y461498D01*
Y460499D01*
X205001Y459999D01*
X208000Y462998D02*
Y464997D01*
X207500Y465997D02*
X204501D01*
Y467497D01*
X205001Y467996D01*
X206000D01*
X206500Y467497D01*
Y465997D01*
X207500Y468996D02*
X205501D01*
X204501Y469996D01*
X205501Y470996D01*
X207500D01*
X206000D01*
Y468996D01*
X207500Y473994D02*
Y471995D01*
X205501Y473994D01*
X205001D01*
X204501Y473495D01*
Y472495D01*
X205001Y471995D01*
X114063Y456760D02*
X111064D01*
Y458259D01*
X111564Y458759D01*
X112564D01*
X113063Y458259D01*
Y456760D01*
Y457760D02*
X114063Y458759D01*
Y461758D02*
Y459759D01*
X112064Y461758D01*
X111564D01*
X111064Y461258D01*
Y460259D01*
X111564Y459759D01*
X114563Y462758D02*
Y464757D01*
X114063Y465757D02*
X111064D01*
Y467256D01*
X111564Y467756D01*
X112564D01*
X113063Y467256D01*
Y465757D01*
X114063Y468756D02*
X112064D01*
X111064Y469756D01*
X112064Y470755D01*
X114063D01*
X112564D01*
Y468756D01*
X114063Y471755D02*
Y472755D01*
Y472255D01*
X111064D01*
X111564Y471755D01*
X169480Y346000D02*
Y348999D01*
X170980D01*
X171480Y348499D01*
Y347499D01*
X170980Y347000D01*
X169480D01*
X170480D02*
X171480Y346000D01*
X172479D02*
X173479D01*
X172979D01*
Y348999D01*
X172479Y348499D01*
X354500Y476500D02*
Y479499D01*
X355999D01*
X356499Y478999D01*
Y477999D01*
X355999Y477500D01*
X354500D01*
X355500D02*
X356499Y476500D01*
X357499D02*
X358499D01*
X357999D01*
Y479499D01*
X357499Y478999D01*
X359998Y476000D02*
X361998D01*
X362997Y476500D02*
Y479499D01*
X364497D01*
X364997Y478999D01*
Y477999D01*
X364497Y477500D01*
X362997D01*
X365996Y476500D02*
Y478499D01*
X366996Y479499D01*
X367996Y478499D01*
Y476500D01*
Y477999D01*
X365996D01*
X368995Y478999D02*
X369495Y479499D01*
X370495D01*
X370995Y478999D01*
Y478499D01*
X370495Y477999D01*
X369995D01*
X370495D01*
X370995Y477500D01*
Y477000D01*
X370495Y476500D01*
X369495D01*
X368995Y477000D01*
X261437Y476240D02*
Y479239D01*
X262936D01*
X263436Y478739D01*
Y477740D01*
X262936Y477240D01*
X261437D01*
X262437D02*
X263436Y476240D01*
X264436D02*
X265436D01*
X264936D01*
Y479239D01*
X264436Y478739D01*
X266935Y475740D02*
X268935D01*
X269934Y476240D02*
Y479239D01*
X271434D01*
X271934Y478739D01*
Y477740D01*
X271434Y477240D01*
X269934D01*
X272933Y476240D02*
Y478239D01*
X273933Y479239D01*
X274933Y478239D01*
Y476240D01*
Y477740D01*
X272933D01*
X277932Y476240D02*
X275932D01*
X277932Y478239D01*
Y478739D01*
X277432Y479239D01*
X276432D01*
X275932Y478739D01*
X168000Y476000D02*
Y478999D01*
X169500D01*
X169999Y478499D01*
Y477499D01*
X169500Y477000D01*
X168000D01*
X169000D02*
X169999Y476000D01*
X170999D02*
X171999D01*
X171499D01*
Y478999D01*
X170999Y478499D01*
X173498Y475500D02*
X175498D01*
X176497Y476000D02*
Y478999D01*
X177997D01*
X178497Y478499D01*
Y477499D01*
X177997Y477000D01*
X176497D01*
X179496Y476000D02*
Y477999D01*
X180496Y478999D01*
X181496Y477999D01*
Y476000D01*
Y477499D01*
X179496D01*
X182495Y476000D02*
X183495D01*
X182995D01*
Y478999D01*
X182495Y478499D01*
X106000Y224000D02*
Y226999D01*
X107500D01*
X107999Y226499D01*
Y225500D01*
X107500Y225000D01*
X106000D01*
X108999Y226499D02*
X109499Y226999D01*
X110499D01*
X110998Y226499D01*
Y225999D01*
X110499Y225500D01*
X110998Y225000D01*
Y224500D01*
X110499Y224000D01*
X109499D01*
X108999Y224500D01*
Y225000D01*
X109499Y225500D01*
X108999Y225999D01*
Y226499D01*
X109499Y225500D02*
X110499D01*
X127953Y314961D02*
Y317960D01*
X129452D01*
X129952Y317460D01*
Y316460D01*
X129452Y315960D01*
X127953D01*
X130952Y317960D02*
X132951D01*
Y317460D01*
X130952Y315460D01*
Y314961D01*
X104700Y317500D02*
Y320499D01*
X106200D01*
X106699Y319999D01*
Y319000D01*
X106200Y318500D01*
X104700D01*
X109698Y320499D02*
X108699Y319999D01*
X107699Y319000D01*
Y318000D01*
X108199Y317500D01*
X109199D01*
X109698Y318000D01*
Y318500D01*
X109199Y319000D01*
X107699D01*
X310200Y492000D02*
Y494999D01*
X311700D01*
X312199Y494499D01*
Y493500D01*
X311700Y493000D01*
X310200D01*
X315198Y494999D02*
X313199D01*
Y493500D01*
X314199Y493999D01*
X314699D01*
X315198Y493500D01*
Y492500D01*
X314699Y492000D01*
X313699D01*
X313199Y492500D01*
X216600Y491730D02*
Y494729D01*
X218099D01*
X218599Y494229D01*
Y493229D01*
X218099Y492730D01*
X216600D01*
X221098Y491730D02*
Y494729D01*
X219599Y493229D01*
X221598D01*
X158000Y491000D02*
Y493999D01*
X159500D01*
X159999Y493499D01*
Y492499D01*
X159500Y492000D01*
X158000D01*
X160999Y493499D02*
X161499Y493999D01*
X162499D01*
X162998Y493499D01*
Y492999D01*
X162499Y492499D01*
X161999D01*
X162499D01*
X162998Y492000D01*
Y491500D01*
X162499Y491000D01*
X161499D01*
X160999Y491500D01*
X104921Y325559D02*
Y328558D01*
X106421D01*
X106921Y328058D01*
Y327059D01*
X106421Y326559D01*
X104921D01*
X109920Y325559D02*
X107920D01*
X109920Y327558D01*
Y328058D01*
X109420Y328558D01*
X108420D01*
X107920Y328058D01*
X106480Y380500D02*
Y383499D01*
X107980D01*
X108480Y382999D01*
Y381999D01*
X107980Y381500D01*
X106480D01*
X109479Y380500D02*
X110479D01*
X109979D01*
Y383499D01*
X109479Y382999D01*
X364062Y439759D02*
X361063D01*
Y437760D01*
Y436261D02*
Y435261D01*
X361563Y434761D01*
X362562D01*
X363062Y435261D01*
Y436261D01*
X362562Y436761D01*
X361563D01*
X361063Y436261D01*
X363062Y433262D02*
Y432262D01*
X362562Y431762D01*
X361063D01*
Y433262D01*
X361563Y433761D01*
X362063Y433262D01*
Y431762D01*
X364062Y428763D02*
X361063D01*
Y430263D01*
X361563Y430762D01*
X362562D01*
X363062Y430263D01*
Y428763D01*
X360563Y427763D02*
Y425764D01*
X361063Y424764D02*
X364062D01*
Y423265D01*
X363562Y422765D01*
X362562D01*
X362063Y423265D01*
Y424764D01*
X361063Y421765D02*
X363062D01*
X364062Y420766D01*
X363062Y419766D01*
X361063D01*
X362562D01*
Y421765D01*
X363562Y418766D02*
X364062Y418266D01*
Y417267D01*
X363562Y416767D01*
X363062D01*
X362562Y417267D01*
Y417767D01*
Y417267D01*
X362063Y416767D01*
X361563D01*
X361063Y417267D01*
Y418266D01*
X361563Y418766D01*
X270999Y439500D02*
X268000D01*
Y437500D01*
Y436001D02*
Y435001D01*
X268500Y434501D01*
X269499D01*
X269999Y435001D01*
Y436001D01*
X269499Y436501D01*
X268500D01*
X268000Y436001D01*
X269999Y433002D02*
Y432002D01*
X269499Y431502D01*
X268000D01*
Y433002D01*
X268500Y433502D01*
X269000Y433002D01*
Y431502D01*
X270999Y428503D02*
X268000D01*
Y430003D01*
X268500Y430503D01*
X269499D01*
X269999Y430003D01*
Y428503D01*
X267500Y427503D02*
Y425504D01*
X268000Y424505D02*
X270999D01*
Y423005D01*
X270499Y422505D01*
X269499D01*
X269000Y423005D01*
Y424505D01*
X268000Y421505D02*
X269999D01*
X270999Y420506D01*
X269999Y419506D01*
X268000D01*
X269499D01*
Y421505D01*
X268000Y416507D02*
Y418506D01*
X269999Y416507D01*
X270499D01*
X270999Y417007D01*
Y418007D01*
X270499Y418506D01*
X177562Y438260D02*
X174563D01*
Y436261D01*
Y434761D02*
Y433761D01*
X175063Y433261D01*
X176063D01*
X176562Y433761D01*
Y434761D01*
X176063Y435261D01*
X175063D01*
X174563Y434761D01*
X176562Y431762D02*
Y430762D01*
X176063Y430262D01*
X174563D01*
Y431762D01*
X175063Y432262D01*
X175563Y431762D01*
Y430262D01*
X177562Y427263D02*
X174563D01*
Y428763D01*
X175063Y429263D01*
X176063D01*
X176562Y428763D01*
Y427263D01*
X174063Y426264D02*
Y424264D01*
X174563Y423265D02*
X177562D01*
Y421765D01*
X177062Y421265D01*
X176063D01*
X175563Y421765D01*
Y423265D01*
X174563Y420266D02*
X176562D01*
X177562Y419266D01*
X176562Y418266D01*
X174563D01*
X176063D01*
Y420266D01*
X174563Y417267D02*
Y416267D01*
Y416767D01*
X177562D01*
X177062Y417267D01*
X200999Y355999D02*
X199000D01*
Y354500D01*
X200000D01*
X199000D01*
Y353000D01*
X201999Y355999D02*
Y353000D01*
X203499D01*
X203998Y353500D01*
Y354000D01*
X203499Y354500D01*
X201999D01*
X203499D01*
X203998Y354999D01*
Y355499D01*
X203499Y355999D01*
X201999D01*
X206997Y353000D02*
X204998D01*
X206997Y354999D01*
Y355499D01*
X206498Y355999D01*
X205498D01*
X204998Y355499D01*
X184980Y327999D02*
X182980D01*
Y326500D01*
X183980D01*
X182980D01*
Y325000D01*
X185979Y327999D02*
Y325000D01*
X187479D01*
X187979Y325500D01*
Y326000D01*
X187479Y326500D01*
X185979D01*
X187479D01*
X187979Y326999D01*
Y327499D01*
X187479Y327999D01*
X185979D01*
X188978Y325000D02*
X189978D01*
X189478D01*
Y327999D01*
X188978Y327499D01*
X372562Y457260D02*
X373062Y457760D01*
Y458760D01*
X372562Y459260D01*
X370563D01*
X370063Y458760D01*
Y457760D01*
X370563Y457260D01*
X370063Y454261D02*
Y456260D01*
X372062Y454261D01*
X372562D01*
X373062Y454761D01*
Y455761D01*
X372562Y456260D01*
X370063Y453261D02*
Y452262D01*
Y452762D01*
X373062D01*
X372562Y453261D01*
X369563Y450762D02*
Y448763D01*
X370063Y447763D02*
X373062D01*
Y446264D01*
X372562Y445764D01*
X371563D01*
X371063Y446264D01*
Y447763D01*
X370063Y444764D02*
X372062D01*
X373062Y443764D01*
X372062Y442765D01*
X370063D01*
X371563D01*
Y444764D01*
X372562Y441765D02*
X373062Y441265D01*
Y440266D01*
X372562Y439766D01*
X372062D01*
X371563Y440266D01*
Y440765D01*
Y440266D01*
X371063Y439766D01*
X370563D01*
X370063Y440266D01*
Y441265D01*
X370563Y441765D01*
X279499Y457000D02*
X279999Y457500D01*
Y458500D01*
X279499Y459000D01*
X277500D01*
X277000Y458500D01*
Y457500D01*
X277500Y457000D01*
X277000Y454001D02*
Y456001D01*
X278999Y454001D01*
X279499D01*
X279999Y454501D01*
Y455501D01*
X279499Y456001D01*
X277000Y453002D02*
Y452002D01*
Y452502D01*
X279999D01*
X279499Y453002D01*
X276500Y450502D02*
Y448503D01*
X277000Y447503D02*
X279999D01*
Y446004D01*
X279499Y445504D01*
X278500D01*
X278000Y446004D01*
Y447503D01*
X277000Y444504D02*
X278999D01*
X279999Y443505D01*
X278999Y442505D01*
X277000D01*
X278500D01*
Y444504D01*
X277000Y439506D02*
Y441505D01*
X278999Y439506D01*
X279499D01*
X279999Y440006D01*
Y441006D01*
X279499Y441505D01*
X186062Y455760D02*
X186562Y456260D01*
Y457260D01*
X186062Y457760D01*
X184063D01*
X183563Y457260D01*
Y456260D01*
X184063Y455760D01*
X183563Y452762D02*
Y454761D01*
X185562Y452762D01*
X186062D01*
X186562Y453261D01*
Y454261D01*
X186062Y454761D01*
X183563Y451762D02*
Y450762D01*
Y451262D01*
X186562D01*
X186062Y451762D01*
X183063Y449263D02*
Y447263D01*
X183563Y446264D02*
X186562D01*
Y444764D01*
X186062Y444264D01*
X185063D01*
X184563Y444764D01*
Y446264D01*
X183563Y443264D02*
X185562D01*
X186562Y442265D01*
X185562Y441265D01*
X183563D01*
X185063D01*
Y443264D01*
X183563Y440266D02*
Y439266D01*
Y439766D01*
X186562D01*
X186062Y440266D01*
X134643Y275599D02*
X134143Y276099D01*
X133143D01*
X132643Y275599D01*
Y273600D01*
X133143Y273100D01*
X134143D01*
X134643Y273600D01*
X137642Y276099D02*
X135642D01*
Y274600D01*
X136642Y275099D01*
X137142D01*
X137642Y274600D01*
Y273600D01*
X137142Y273100D01*
X136142D01*
X135642Y273600D01*
X316043Y219826D02*
X315543Y220326D01*
X314544D01*
X314044Y219826D01*
Y217827D01*
X314544Y217327D01*
X315543D01*
X316043Y217827D01*
X318542Y217327D02*
Y220326D01*
X317043Y218826D01*
X319042D01*
X315499Y230499D02*
X315000Y230999D01*
X314000D01*
X313500Y230499D01*
Y228500D01*
X314000Y228000D01*
X315000D01*
X315499Y228500D01*
X316499Y230499D02*
X316999Y230999D01*
X317999D01*
X318498Y230499D01*
Y229999D01*
X317999Y229500D01*
X317499D01*
X317999D01*
X318498Y229000D01*
Y228500D01*
X317999Y228000D01*
X316999D01*
X316499Y228500D01*
X179480Y356499D02*
X178980Y356999D01*
X177980D01*
X177480Y356499D01*
Y354500D01*
X177980Y354000D01*
X178980D01*
X179480Y354500D01*
X182479Y354000D02*
X180479D01*
X182479Y355999D01*
Y356499D01*
X181979Y356999D01*
X180979D01*
X180479Y356499D01*
X202499Y346999D02*
X201999Y347499D01*
X201000D01*
X200500Y346999D01*
Y345000D01*
X201000Y344500D01*
X201999D01*
X202499Y345000D01*
X203499Y344500D02*
X204499D01*
X203999D01*
Y347499D01*
X203499Y346999D01*
X357762Y453600D02*
X355763Y451601D01*
Y453600D02*
X357762Y451601D01*
X356763Y453600D02*
Y451601D01*
X355763Y452600D02*
X357762D01*
X264699Y453340D02*
X262700Y451341D01*
Y453340D02*
X264699Y451341D01*
X263700Y453340D02*
Y451341D01*
X262700Y452341D02*
X264699D01*
X171262Y453100D02*
X169263Y451101D01*
Y453100D02*
X171262Y451101D01*
X170263Y453100D02*
Y451101D01*
X169263Y452100D02*
X171262D01*
D36*
X249512Y252831D02*
G03*
X249512Y252831I-1181J0D01*
G01*
D37*
X113110Y320303D02*
X113110Y329303D01*
X132110Y320303D02*
Y329303D01*
X113110Y320303D02*
X132110Y320303D01*
X113110Y329303D02*
X132110D01*
X121598Y323228D02*
Y326378D01*
Y324803D02*
X123173Y323228D01*
Y326378D01*
X121598Y324803D02*
X123173Y326378D01*
X114118Y321260D02*
X115299D01*
X131047Y320472D02*
Y322047D01*
X130260Y321260D02*
X132110D01*
X312065Y411748D02*
Y425248D01*
Y411748D02*
X324565D01*
X312065Y425248D02*
X324565D01*
Y411748D02*
Y425248D01*
X323165D02*
X323265D01*
X324565Y423648D02*
Y423848D01*
X323565Y425248D02*
X324565D01*
Y423748D02*
Y425248D01*
X219002Y411488D02*
Y424988D01*
Y411488D02*
X231502D01*
X219002Y424988D02*
X231502D01*
Y411488D02*
Y424988D01*
X230102D02*
X230202D01*
X231502Y423388D02*
Y423588D01*
X230502Y424988D02*
X231502D01*
Y423488D02*
Y424988D01*
X125565Y411248D02*
Y424748D01*
Y411248D02*
X138065D01*
X125565Y424748D02*
X138065D01*
Y411248D02*
Y424748D01*
X136665D02*
X136765D01*
X138065Y423148D02*
Y423348D01*
X137065Y424748D02*
X138065D01*
Y423248D02*
Y424748D01*
D38*
X157283Y327165D02*
X157677D01*
X157283Y322441D02*
X157677D01*
X266260Y313039D02*
X266653D01*
X266260Y317961D02*
X266653D01*
X223039Y245260D02*
Y245654D01*
X227961Y245260D02*
Y245654D01*
X179362Y337543D02*
Y337937D01*
X174638Y337543D02*
Y337937D01*
X141028Y357350D02*
Y358925D01*
X167012Y357350D02*
Y358925D01*
X141028D02*
X167012D01*
X237063Y236862D02*
X237457D01*
X237063Y232138D02*
X237457D01*
X163000Y465500D02*
Y488500D01*
X126000D02*
X163000D01*
X123000Y469500D02*
X163000D01*
X123000Y465500D02*
X163000D01*
X123000Y488500D02*
X126000D01*
X123000Y465500D02*
Y488500D01*
X304488Y443303D02*
Y443697D01*
X307638Y443303D02*
Y443697D01*
X211425Y443043D02*
Y443437D01*
X214575Y443043D02*
Y443437D01*
X117988Y442803D02*
Y443197D01*
X121138Y442803D02*
Y443197D01*
X348425Y420803D02*
Y421197D01*
X343701Y420803D02*
Y421197D01*
X255362Y420543D02*
Y420937D01*
X250638Y420543D02*
Y420937D01*
X161925Y420303D02*
Y420697D01*
X157201Y420303D02*
Y420697D01*
X189563Y369342D02*
X189957D01*
X189563Y364618D02*
X189957D01*
X303201Y463303D02*
Y463697D01*
X307925Y463303D02*
Y463697D01*
X210138Y463043D02*
Y463437D01*
X214862Y463043D02*
Y463437D01*
X116701Y462803D02*
Y463197D01*
X121425Y462803D02*
Y463197D01*
X355638Y467543D02*
Y467937D01*
X360362Y467543D02*
Y467937D01*
X262575Y467283D02*
Y467677D01*
X267299Y467283D02*
Y467677D01*
X169138Y467043D02*
Y467437D01*
X173862Y467043D02*
Y467437D01*
X104500Y274500D02*
Y277500D01*
Y274500D02*
X127500D01*
X104500Y277500D02*
Y314500D01*
X127500D01*
Y274500D02*
Y314500D01*
X123500Y274500D02*
Y314500D01*
X350000Y466000D02*
Y489000D01*
X313000D02*
X350000D01*
X310000Y470000D02*
X350000D01*
X310000Y466000D02*
X350000D01*
X310000Y489000D02*
X313000D01*
X310000Y466000D02*
Y489000D01*
X256437Y465740D02*
Y488740D01*
X219437D02*
X256437D01*
X216437Y469740D02*
X256437D01*
X216437Y465740D02*
X256437D01*
X216437Y488740D02*
X219437D01*
X216437Y465740D02*
Y488740D01*
X129000Y330500D02*
Y350500D01*
X105000D02*
X129000D01*
X125000Y330500D02*
Y350500D01*
X106000Y330500D02*
X129000D01*
X105000Y334500D02*
Y350500D01*
Y330500D02*
X107000D01*
X105000D02*
Y334500D01*
X129059Y358441D02*
Y378441D01*
X105059D02*
X129059D01*
X125059Y358441D02*
Y378441D01*
X106059Y358441D02*
X129059D01*
X105059Y362441D02*
Y378441D01*
Y358441D02*
X107059D01*
X105059D02*
Y362441D01*
X354988Y434453D02*
Y434846D01*
X358138Y434453D02*
Y434846D01*
X261925Y434193D02*
Y434587D01*
X265075Y434193D02*
Y434587D01*
X168488Y433953D02*
Y434346D01*
X171638Y433953D02*
Y434346D01*
X189563Y359842D02*
X189957D01*
X189563Y355118D02*
X189957D01*
X189043Y336362D02*
X189437D01*
X189043Y331638D02*
X189437D01*
X361102Y450606D02*
Y451000D01*
X366024Y450606D02*
Y451000D01*
X268039Y450347D02*
Y450740D01*
X272961Y450347D02*
Y450740D01*
X174602Y450106D02*
Y450500D01*
X179524Y450106D02*
Y450500D01*
X138803Y268961D02*
X139197D01*
X138803Y264039D02*
X139197D01*
X186961Y345240D02*
Y345634D01*
X182039Y345240D02*
Y345634D01*
X194961Y345327D02*
Y345721D01*
X190039Y345327D02*
Y345721D01*
X244394Y248894D02*
Y298106D01*
Y248894D02*
X293606D01*
X244394Y298106D02*
X293606D01*
Y248894D02*
Y298106D01*
X133000Y318000D02*
X173000D01*
X133000Y308000D02*
Y318000D01*
X173000Y308000D02*
Y318000D01*
X133000Y308000D02*
X173000D01*
X139362Y250303D02*
Y250697D01*
X134638Y250303D02*
Y250697D01*
X304260Y232461D02*
X304654D01*
X304260Y227539D02*
X304654D01*
X304303Y220461D02*
X304697D01*
X304303Y215539D02*
X304697D01*
X105000Y230500D02*
Y233500D01*
Y230500D02*
X128000D01*
X105000Y233500D02*
Y270500D01*
X128000D01*
Y230500D02*
Y270500D01*
X124000Y230500D02*
Y270500D01*
D39*
X273362Y219563D02*
Y227437D01*
X259189Y219563D02*
X273362D01*
X259189Y227437D02*
X273362D01*
X259189Y219563D02*
Y227437D01*
D40*
X243752Y346153D02*
Y352059D01*
X255169Y346153D02*
Y352059D01*
M02*
